<?xml version="1.0" encoding="UTF-8"?>
<svg id="_图层_1" data-name="图层 1" xmlns="http://www.w3.org/2000/svg" viewBox="0 0 856.13 454.41">
  <defs>
    <style>
      .cls-1 {
        stroke: #196b24;
      }

      .cls-1, .cls-2, .cls-3, .cls-4, .cls-5, .cls-6, .cls-7, .cls-8, .cls-9, .cls-10 {
        fill: none;
        stroke-miterlimit: 10;
      }

      .cls-1, .cls-2, .cls-3, .cls-4, .cls-5, .cls-6, .cls-7, .cls-8, .cls-10 {
        stroke-width: 1.5px;
      }

      .cls-11 {
        fill: #fbe3d6;
      }

      .cls-12 {
        fill: #caeefb;
      }

      .cls-12, .cls-13, .cls-14 {
        fill-rule: evenodd;
      }

      .cls-15 {
        fill: #84e291;
      }

      .cls-2 {
        stroke: #7f7f7f;
      }

      .cls-3 {
        stroke: #042433;
      }

      .cls-4 {
        stroke: #000;
      }

      .cls-16 {
        fill: #8ed973;
      }

      .cls-5 {
        stroke: #4ea72e;
      }

      .cls-17 {
        fill: #156082;
      }

      .cls-6 {
        stroke-dasharray: 4.5 1.5;
      }

      .cls-6, .cls-8 {
        stroke: #156082;
      }

      .cls-18 {
        fill: #c1e5f5;
      }

      .cls-7 {
        stroke: #e97132;
      }

      .cls-13 {
        fill: #d86ecc;
      }

      .cls-9 {
        stroke: #0f9ed5;
      }

      .cls-10 {
        stroke: #a02b93;
      }

      .cls-14 {
        fill: #dceaf7;
      }
    </style>
  </defs>
  <g>
    <rect class="cls-18" x="27.74" y="83.73" width="23.25" height="93.75"/>
    <rect class="cls-9" x="27.74" y="83.73" width="23.25" height="93.75"/>
    <path d="M36.29,124.98h1.2l2.46,4,2.48-4h1.18l-3.05,4.97,3.25,5.28h-1.2l-2.67-4.3-2.67,4.3h-1.2l3.27-5.28-3.05-4.97Z"/>
    <polygon class="cls-14" points="79.87 83.35 125.62 110.18 125.62 150.27 79.87 177.1 79.87 83.35"/>
    <polygon class="cls-3" points="79.87 83.35 125.62 110.18 125.62 150.27 79.87 177.1 79.87 83.35"/>
    <g>
      <path d="M91.35,116.83v-.93c.43.06.81.1,1.16.12.35.02.67.04.98.04h3.93c-.56-.05-1.07-.1-1.53-.17-.46-.07-.9-.14-1.32-.23s-.83-.19-1.24-.3c-.41-.11-.83-.24-1.27-.38.27-.26.44-.55.51-.87.46.24.95.43,1.47.59s1.1.28,1.73.38c.63.1,1.31.17,2.04.22s1.53.08,2.41.1c.36,0,.73,0,1.12,0,.38-.01.79-.05,1.22-.09-.03.16-.05.33-.06.5-.01.17-.02.37-.03.6s0,.5-.01.82c0,.32,0,.71,0,1.16.22-.11.43-.24.64-.38.21-.14.4-.29.58-.46l.41.85c-.23.15-.48.3-.77.45-.28.15-.57.28-.87.39,0,.44,0,.8,0,1.08,0,.29.01.52.02.72,0,.19.02.36.04.5.01.14.03.27.05.41-.28-.02-.57-.04-.87-.06-.3-.02-.59-.03-.85-.03-.56,0-1.1.03-1.61.09.03-.24.05-.56.06-.98,0-.41.01-.99.01-1.73v-3.05c-.25-.02-.48-.03-.71-.04-.23,0-.45-.02-.67-.04v2.94c0,.8,0,1.48.03,2.06s.04,1.04.07,1.4h-5.66c-.2,0-.36-.02-.49-.06s-.23-.11-.31-.23c-.08-.11-.14-.28-.18-.48-.04-.21-.07-.48-.09-.83.16,0,.31-.02.45-.06.14-.04.29-.13.45-.25-.03.23-.04.42-.04.56s.01.26.04.34c.03.08.08.14.14.16.07.03.15.04.26.04h2.15v-1.2c-.35,0-.75,0-1.2.02-.45.01-.86.03-1.23.05v-.91c.39.03.81.05,1.25.07s.84.03,1.19.03v-1.07c-.18,0-.39,0-.62,0-.23,0-.47,0-.72.01-.25,0-.5.01-.75.02-.25,0-.48.02-.69.03v-.91c.21,0,.44.02.68.04.25.01.5.03.75.04.25,0,.49.02.73.02.23,0,.44,0,.62,0v-1.13h-3.39ZM93.23,114.25c-.11-.55-.21-1.02-.3-1.4s-.16-.71-.23-.99-.14-.52-.21-.73-.14-.41-.23-.61c.2-.03.38-.07.56-.14.17-.06.35-.15.54-.28.02.4.05.76.09,1.08.04.32.09.63.14.94.06.31.13.63.21.98.09.34.19.74.31,1.2-.16-.04-.31-.06-.44-.06-.13,0-.28,0-.44.02ZM98.76,111.65c-.02-.18-.05-.36-.09-.55-.04-.19-.09-.34-.14-.48.17,0,.35-.05.55-.11s.35-.14.48-.23c.06.28.42.61,1.08,1,.66.39,1.71.87,3.13,1.42-.12.16-.22.33-.29.49s-.13.33-.16.49c-.03.14-.08.22-.15.23-.07,0-.13-.06-.18-.2-.03-.08-.08-.16-.14-.24s-.22-.2-.46-.36c-.24-.15-.58-.35-1.04-.61-.46-.25-1.08-.59-1.88-1.02l.1,1.82c.37.2.7.36.98.48s.51.21.69.26c-.13.15-.26.31-.37.48-.11.17-.2.32-.27.45-.06.1-.12.15-.18.15-.06,0-.1-.07-.12-.21,0-.03-.02-.06-.05-.09s-.1-.09-.19-.16c-.09-.08-.24-.18-.43-.31-.19-.13-.45-.3-.77-.51-.32-.21-.73-.48-1.21-.78-.48-.31-1.07-.68-1.75-1.1l.37,2.59c-.28-.08-.54-.09-.78-.04l-.3-2.39c-.04-.28-.08-.53-.14-.76s-.12-.42-.19-.57c.34-.04.65-.14.93-.3.08.27.19.49.35.68.16.19.36.36.61.52.81.5,1.52.92,2.12,1.25l-.1-1.3ZM97.23,116.83h-1.81v1.13h1.81v-1.13ZM97.23,118.7h-1.81v1.07h1.81v-1.07ZM97.23,121.71v-1.2h-1.81v1.2h1.81ZM99.98,116.18v4.89h1.78v-4.89h-1.78Z"/>
      <path d="M102.42,135.1v-3.11c0-.39,0-.72-.03-.98-.02-.26-.05-.52-.09-.76h.94c-.02.27-.04.52-.05.75-.01.23-.03.46-.04.69,0,.23-.02.47-.02.71,0,.25,0,.52,0,.81s0,.56,0,.79c0,.23.01.45.02.66,0,.21.02.42.04.63.01.21.03.45.05.72l-5.5-.7c0,.49.02.88.04,1.15.02.28.04.47.07.57-.29-.04-.61-.07-.95-.11-.34-.03-.67-.06-.97-.08-.54-.04-1.06-.08-1.55-.14s-.89-.1-1.18-.15c-.41-.08-.74-.17-.98-.27s-.44-.26-.58-.47-.24-.49-.3-.85c-.06-.36-.11-.82-.15-1.39.22,0,.4-.02.55-.09.15-.07.3-.18.45-.34-.05.48-.07.88-.06,1.19,0,.31.06.56.14.75.09.19.21.33.38.43.17.1.39.17.67.23.15.03.38.06.68.11.3.04.63.08.98.11.36.03.72.06,1.08.08s.69.03.96.03v-3.51c0-.4,0-.79-.03-1.17s-.05-.67-.1-.88c.4.09.83.18,1.28.25.46.07.9.13,1.35.17.44.04.86.07,1.25.09s.73.01,1.02,0c-.05.17-.09.35-.11.54-.03.19-.04.36-.03.51,0,.09-.02.15-.08.16-.06.01-.15-.04-.25-.18-.03-.04-.08-.07-.16-.11-.08-.03-.24-.07-.48-.11-.24-.04-.6-.09-1.06-.14-.47-.05-1.09-.12-1.88-.19v3.01l4.67.57ZM102.19,126.57c0-.2,0-.41,0-.63,0-.22-.01-.43-.02-.63,0-.2-.02-.38-.04-.54-.01-.16-.03-.28-.04-.37h.91c-.03.22-.05.54-.07.98-.02.43-.03,1-.03,1.72s0,1.25.03,1.7c.02.45.04.78.07,1h-.91c.03-.19.05-.5.07-.94.02-.44.03-.89.03-1.37-.47-.08-.98-.18-1.54-.31s-1.08-.28-1.57-.44v1.38c0,.35,0,.64.03.88s.04.43.07.59c-.11-.02-.25-.04-.41-.05s-.33-.02-.52-.02h-4.27c-.19,0-.38,0-.58,0s-.41.01-.65.02v-.77h1.04v-2.14h-1.34v-.85c.25.02.49.04.74.05.25.01.5.02.77.02h2.95c-.46-.21-.82-.39-1.09-.55-.27-.16-.51-.32-.71-.48.1-.1.21-.23.31-.36.1-.14.18-.27.24-.41.82.71,1.75,1.27,2.81,1.67,1.06.4,2.3.69,3.71.85ZM94.35,135.5c.02-.18.04-.36.06-.54.02-.18.03-.38.04-.58,0-.21.02-.44.02-.7,0-.26,0-.56,0-.9s0-.64,0-.9c0-.26-.01-.5-.02-.71,0-.21-.02-.4-.04-.58-.02-.18-.04-.36-.06-.54h.95c-.03.18-.05.36-.06.54-.01.18-.03.38-.04.58,0,.21-.02.44-.02.71,0,.26,0,.56,0,.9s0,.64,0,.9c0,.26.01.49.03.7.01.21.03.4.06.58.02.18.05.36.08.54h-1ZM98.43,128.76v-2.14h-3.95v2.14h3.95Z"/>
      <path d="M91.03,139.9v-.97c.16.03.3.05.41.06.11.01.23.02.33.03.11,0,.23,0,.35.01.12,0,.27,0,.44,0h1.27c.17,0,.34,0,.51,0,.17,0,.33-.01.49-.02-.05-.16-.09-.32-.14-.48-.04-.16-.09-.33-.14-.51.18-.08.32-.16.43-.24s.22-.22.36-.41c.14.75.3,1.41.47,1.97.17.56.35,1.05.53,1.46.18.41.37.75.56,1.02.19.27.39.49.59.65,0-.93-.03-1.78-.05-2.54s-.05-1.42-.09-1.96h.94c-.05.58-.08,1.3-.1,2.15s-.03,1.81-.04,2.85c.25.14.51.25.79.33.28.08.59.13.93.16-.06.22-.1.4-.13.53-.03.14-.06.31-.1.51-.03.19-.11.2-.24.03-.08-.1-.2-.21-.38-.31-.18-.1-.47-.23-.88-.38v3.49c.22-.27.4-.51.54-.73.14-.22.28-.45.4-.7l.54.41c-.13.3-.28.58-.43.83-.15.25-.34.52-.57.82l-.46-.4c0,.52,0,1,.02,1.45.01.44.04.83.09,1.16h-.94c.04-.5.07-1.17.09-2,.02-.83.04-1.73.05-2.71-.23.29-.43.61-.62.95-.19.34-.33.64-.45.92-.23.57-.4,1.15-.52,1.72-.12.58-.17,1.18-.16,1.81-.22-.24-.53-.43-.94-.58.05-.19.09-.37.12-.53.03-.17.07-.33.11-.49-.33-.06-.7-.09-1.11-.09h-1.14c-.17,0-.32,0-.44,0-.12,0-.24.01-.36.02-.12,0-.24.02-.36.04-.12.01-.26.03-.41.05v-.96h.4v-2.68h-.56v-.96c.16.03.3.05.41.06.11.01.23.02.33.03.11,0,.23,0,.35.01.12,0,.27,0,.44,0h1.34c.25,0,.49,0,.73-.01.24,0,.45-.02.64-.04,0,.13-.02.29-.03.48,0,.19-.02.39-.02.59,0,.2,0,.41-.01.62,0,.21,0,.4,0,.57,0,.21,0,.44,0,.68,0,.25.01.48.02.71.08-.26.15-.5.24-.73.08-.23.17-.46.28-.68.25-.54.52-1.03.83-1.46.31-.43.61-.81.9-1.12v-.94c-.21-.14-.41-.31-.61-.49-.19-.19-.39-.41-.58-.68-.19-.27-.39-.6-.58-.98-.19-.38-.38-.84-.58-1.37,0,.21,0,.42,0,.63s0,.42,0,.61,0,.37,0,.58,0,.41.01.61c0,.2.01.39.02.57,0,.18.02.34.03.47-.19-.05-.4-.08-.64-.09-.24-.01-.48-.02-.73-.02h-1.56c-.13,0-.25,0-.36.01-.11,0-.23.02-.36.04-.12.01-.26.03-.41.05v-.91h.46v-2.59h-.57ZM94.53,142.5v-2.59h-2.25v2.59h2.25ZM94.61,148.33v-2.68h-2.34v2.68h2.34ZM99.56,143.18c.02-.26.04-.6.06-1.02.02-.42.03-.86.03-1.32s0-.85-.02-1.17c-.01-.32-.03-.61-.05-.87.09,0,.22,0,.4.01.18,0,.37.02.57.03.2,0,.39.02.58.02.19,0,.34,0,.44,0,.43,0,.79,0,1.1-.02.3-.01.53-.03.68-.05-.03.27-.05.56-.06.88-.01.32-.02.71-.02,1.16s0,.9.03,1.33c.02.43.04.76.06,1.01-.1-.02-.22-.03-.37-.04s-.31-.02-.48-.02c-.17,0-.33,0-.5,0h-.42c-.56,0-.99.02-1.3.03s-.55.02-.73.04ZM99.63,149.25c.03-.27.05-.61.06-1.03s.02-.85.02-1.31,0-.85-.01-1.18c0-.33-.03-.63-.06-.9.09,0,.22.02.39.02.18,0,.36.01.56.02.2,0,.39.02.58.02.19,0,.34,0,.46,0,.41,0,.75,0,1.03-.02.28-.01.5-.03.68-.05-.03.27-.05.57-.06.9,0,.33-.01.73-.01,1.18s0,.9.01,1.33c0,.43.03.76.06,1.01-.1,0-.22-.02-.37-.03-.15,0-.31-.02-.48-.02-.17,0-.33,0-.49-.01-.16,0-.3,0-.41,0-.39,0-.77,0-1.13.02s-.64.03-.83.05ZM102.65,142.3v-2.61h-2.37v2.61h2.37ZM102.65,148.35v-2.62h-2.29v2.62h2.29Z"/>
    </g>
    <rect class="cls-18" x="297.75" y="83.73" width="29.25" height="93.75"/>
    <rect class="cls-9" x="297.75" y="83.73" width="29.25" height="93.75"/>
    <path d="M303.04,124.24h1.2l2.45,3.99,2.48-3.99h1.18l-3.05,4.96,3.25,5.27h-1.2l-2.67-4.29-2.66,4.29h-1.2l3.26-5.27-3.05-4.96Z"/>
    <path d="M314.02,121.76l-.93,2.61h-.47l.58-2.61h.82Z"/>
    <polygon class="cls-12" points="262.87 83.35 217.12 110.18 217.12 150.27 262.87 177.1 262.87 83.35"/>
    <polygon class="cls-3" points="262.87 83.35 217.12 110.18 217.12 150.27 262.87 177.1 262.87 83.35"/>
    <g>
      <path d="M242.6,149.24c.1.09.2.17.3.26.1.09.19.18.29.26-.12.11-.23.24-.31.38s-.15.31-.2.5c-.26-.32-.52-.62-.79-.88-.27-.27-.56-.52-.88-.75s-.66-.45-1.04-.66c-.38-.21-.81-.41-1.3-.61.11-.17.2-.32.25-.46.05-.13.09-.26.11-.38.03-.19.08-.28.16-.28s.15.09.22.25c.06.12.32.34.8.66v-1.24c0-.32,0-.59-.01-.81,0-.22-.02-.4-.03-.53,0-.14-.02-.27-.04-.41l2.39,1.47c0-.38-.02-.72-.04-1.02-.02-.3-.04-.6-.07-.91.19.04.45.07.78.09.33.02.67.03,1.03.03h6.13c.26,0,.47.02.63.05s.29.1.38.21c.09.11.15.27.19.49.04.22.07.51.09.88-.2,0-.36.02-.49.04s-.27.09-.43.23c.03-.25.04-.44.04-.59,0-.15-.03-.26-.08-.33-.05-.08-.12-.13-.22-.15-.1-.02-.23-.04-.39-.04h-2.01v1.31c.41,0,.79,0,1.13-.02.35-.01.72-.04,1.13-.06v.95c-.4-.03-.77-.05-1.13-.06-.35-.01-.73-.02-1.14-.02v1.38c.71.02,1.38.12,2.02.31.63.19,1.18.47,1.65.83-.22.27-.35.58-.38.94-.26-.25-.53-.46-.81-.63-.28-.17-.61-.31-.98-.41-.37-.1-.78-.17-1.24-.21-.46-.04-1-.06-1.6-.06h-4.08ZM240.53,141.89c0,.25,0,.46,0,.65,0,.19,0,.35.01.5,0,.15.01.29.02.43,0,.14.02.28.03.42h-.77c.02-.19.03-.38.04-.58,0-.19.02-.41.02-.63s0-.48.01-.76c0-.28,0-.6,0-.97,0-.46-.01-.91-.04-1.38-.03-.46-.06-.89-.09-1.29.28.08.57.12.87.13.3,0,.53.02.68.03h1.21c.28.02.5.06.66.11.17.06.3.16.4.31.1.15.17.37.21.66.04.28.07.66.09,1.13-.16-.02-.3,0-.42.05-.12.05-.28.15-.48.29.05-.37.07-.67.07-.89s-.03-.39-.08-.51c-.05-.12-.13-.2-.23-.24-.1-.04-.23-.06-.39-.06l-1.87-.04v1.82c.43.06.8.13,1.11.21s.6.19.87.33c.27.13.52.3.76.49.24.19.5.43.78.71-.11.11-.21.24-.29.37-.08.13-.16.3-.24.51-.15-.28-.32-.53-.5-.74-.18-.21-.39-.38-.62-.53-.23-.14-.5-.26-.81-.34-.31-.09-.66-.15-1.06-.19ZM240.88,147.93c.25.16.5.34.76.53s.52.4.78.62c.03-.32.05-.65.06-.99.01-.34.03-.73.04-1.18l-1.64-1v2.01ZM244.88,145h-1.71v1.31h1.71v-1.31ZM244.88,147.09h-1.71v1.37h1.71v-1.37ZM246.59,142.77c.15.08.31.15.46.23.16.08.33.16.52.26-.2.28-.3.56-.3.84-.47-.37-.91-.64-1.33-.81-.42-.17-.88-.28-1.38-.35.08-.13.14-.27.2-.41.06-.14.1-.28.13-.43.03-.1.08-.15.15-.15.07,0,.13.05.16.12.04.07.11.13.21.19.1.06.27.14.48.22v-1.44h-.8c-.2,0-.36,0-.48,0-.12,0-.21.01-.26.02-.06,0-.11.02-.17.03.05-.23.08-.41.09-.53,0-.13.01-.28.01-.45,0-.09.03-.14.09-.16.06-.02.11.02.17.12.05.08.1.12.15.14s.14.03.26.03h.94v-.61c0-.18,0-.35,0-.51v-.47c-.02-.16-.03-.33-.04-.52h.78c0,.19-.02.36-.03.52,0,.16-.02.31-.02.47s0,.33,0,.51v.61h1.74c0-.64,0-1.15-.01-1.55,0-.4-.03-.76-.06-1.08h.86c-.03.32-.05.68-.06,1.08s-.01.92-.01,1.55c.54,0,1.05,0,1.52-.03s.95-.05,1.43-.1v1.05c-.48-.05-.96-.08-1.43-.1s-.98-.03-1.52-.03c0,.64,0,1.19,0,1.67.01.48.04.89.06,1.22h-.86c.02-.33.04-.74.05-1.21.01-.48.02-1.04.02-1.68h-1.74v1.72ZM245.55,146.31h1.8v-1.31h-1.8v1.31ZM245.55,148.46h1.8v-1.37h-1.8v1.37Z"/>
      <path d="M240.56,125.33v3.11c0,.39,0,.72.03.98.02.26.05.52.09.76h-.94c.02-.27.04-.52.05-.75.01-.23.03-.46.04-.69,0-.23.02-.47.02-.71,0-.25,0-.52,0-.81s0-.56,0-.79c0-.23-.01-.45-.02-.66,0-.21-.02-.42-.04-.63-.01-.21-.03-.45-.05-.72l5.5.7c0-.49-.02-.88-.04-1.15-.02-.28-.04-.47-.07-.57.29.04.61.07.95.11.34.03.67.06.97.08.54.04,1.06.08,1.55.14s.89.1,1.18.15c.41.08.74.17.98.27s.44.26.58.47.24.49.3.85c.06.36.11.82.15,1.39-.22,0-.4.02-.55.09-.15.07-.3.18-.45.34.05-.48.07-.88.06-1.19,0-.31-.06-.56-.14-.75-.09-.19-.21-.33-.38-.43-.17-.1-.39-.17-.67-.23-.15-.03-.38-.06-.68-.11-.3-.04-.63-.08-.98-.11-.36-.03-.72-.06-1.08-.08s-.69-.03-.96-.03v3.51c0,.4,0,.79.03,1.17s.05.67.1.88c-.4-.09-.83-.18-1.28-.25-.46-.07-.9-.13-1.35-.17-.44-.04-.86-.07-1.25-.09s-.73-.01-1.02,0c.05-.17.09-.35.11-.54.03-.19.04-.36.03-.51,0-.09.02-.15.08-.16.06-.01.15.04.25.18.03.04.08.07.16.11.08.03.24.07.48.11.24.04.6.09,1.06.14.47.05,1.09.12,1.88.19v-3.01l-4.67-.57ZM240.79,133.87c0,.2,0,.41,0,.63,0,.22.01.43.02.63,0,.2.02.38.04.54.01.16.03.28.04.37h-.91c.03-.22.05-.54.07-.98.02-.43.03-1,.03-1.72s0-1.25-.03-1.7c-.02-.45-.04-.78-.07-1h.91c-.03.19-.05.5-.07.94-.02.44-.03.89-.03,1.37.47.08.98.18,1.54.31s1.08.28,1.57.44v-1.38c0-.35,0-.64-.03-.88s-.04-.43-.07-.59c.11.02.25.04.41.05s.33.02.52.02h4.27c.19,0,.38,0,.58,0s.41-.01.65-.02v.77h-1.04v2.14h1.34v.85c-.25-.02-.49-.04-.74-.05-.25-.01-.5-.02-.77-.02h-2.95c.46.21.82.39,1.09.55.27.16.51.32.71.48-.1.1-.21.23-.31.36-.1.14-.18.27-.24.41-.82-.71-1.75-1.27-2.81-1.67-1.06-.4-2.3-.69-3.71-.85ZM244.55,131.67v2.14h3.95v-2.14h-3.95ZM248.63,124.93c-.02.18-.04.36-.06.54-.02.18-.03.38-.04.58,0,.21-.02.44-.02.7,0,.26,0,.56,0,.9s0,.64,0,.9c0,.26.01.5.02.71,0,.21.02.4.04.58.02.18.04.36.06.54h-.95c.03-.18.05-.36.06-.54.01-.18.03-.38.04-.58,0-.21.02-.44.02-.71,0-.26,0-.56,0-.9s0-.64,0-.9c0-.26-.01-.49-.03-.7-.01-.21-.03-.4-.06-.58-.02-.18-.05-.36-.08-.54h1Z"/>
      <path d="M243.36,111.18c-.03.27-.05.61-.06,1.03s-.02.85-.02,1.31,0,.85.01,1.18c0,.33.03.63.06.9-.09,0-.22-.02-.39-.02-.18,0-.36-.01-.56-.02-.2,0-.39-.02-.58-.02-.19,0-.34,0-.46,0-.41,0-.75,0-1.03.02-.28.01-.5.03-.68.05.03-.27.05-.57.06-.9,0-.33.01-.73.01-1.18s0-.9-.01-1.33c0-.43-.03-.76-.06-1.01.1,0,.22.02.37.03.15,0,.31.02.48.02.17,0,.33,0,.49.01.16,0,.3,0,.41,0,.39,0,.77,0,1.13-.02s.64-.03.83-.05ZM243.43,117.25c-.02.26-.04.6-.06,1.02-.02.42-.03.86-.03,1.32s0,.85.02,1.17c.01.32.03.61.05.87-.09,0-.22,0-.4-.01-.18,0-.37-.02-.57-.03-.2,0-.39-.02-.58-.02-.19,0-.34,0-.44,0-.43,0-.79,0-1.1.02-.3.01-.53.03-.68.05.03-.27.05-.56.06-.88.01-.32.02-.71.02-1.16s0-.9-.03-1.33c-.02-.43-.04-.76-.06-1.01.1.02.22.03.37.04s.31.02.48.02c.17,0,.33,0,.5,0h.42c.56,0,.99-.02,1.3-.03s.55-.02.73-.04ZM240.33,112.08v2.62h2.29v-2.62h-2.29ZM240.33,118.13v2.61h2.37v-2.61h-2.37ZM251.95,120.53v.97c-.16-.03-.3-.05-.41-.06-.11-.01-.23-.02-.33-.03-.11,0-.23,0-.35-.01-.12,0-.27,0-.44,0h-1.27c-.17,0-.34,0-.51,0-.17,0-.33.01-.49.02.05.16.09.32.14.48.04.16.09.33.14.51-.18.08-.32.16-.43.24s-.22.22-.36.41c-.14-.75-.3-1.41-.47-1.97-.17-.56-.35-1.05-.53-1.46-.18-.41-.37-.75-.56-1.02-.19-.27-.39-.49-.59-.65,0,.93.03,1.78.05,2.54s.05,1.42.09,1.96h-.94c.05-.58.08-1.3.1-2.15s.03-1.81.04-2.85c-.25-.14-.51-.25-.79-.33-.28-.08-.59-.13-.93-.16.06-.22.1-.4.13-.53.03-.14.06-.31.1-.51.03-.19.11-.2.24-.03.08.1.2.21.38.31.18.1.47.23.88.38v-3.49c-.22.27-.4.51-.54.73-.14.22-.28.45-.4.7l-.54-.41c.13-.3.28-.58.43-.83.15-.25.34-.52.57-.82l.46.4c0-.52,0-1-.02-1.45-.01-.44-.04-.83-.09-1.16h.94c-.04.5-.07,1.17-.09,2-.02.83-.04,1.73-.05,2.71.23-.29.43-.61.62-.95.19-.34.33-.64.45-.92.23-.57.4-1.15.52-1.72.12-.58.17-1.18.16-1.81.22.24.53.43.94.58-.05.19-.09.37-.12.53-.03.17-.07.33-.11.49.33.06.7.09,1.11.09h1.14c.17,0,.32,0,.44,0,.12,0,.24-.01.36-.02.12,0,.24-.02.36-.04.12-.01.26-.03.41-.05v.96h-.4v2.68h.56v.96c-.16-.03-.3-.05-.41-.06-.11-.01-.23-.02-.33-.03-.11,0-.23,0-.35-.01-.12,0-.27,0-.44,0h-1.34c-.25,0-.49,0-.73.01-.24,0-.45.02-.64.04,0-.13.02-.29.03-.48,0-.19.02-.39.02-.59,0-.2,0-.41.01-.62,0-.21,0-.4,0-.57,0-.21,0-.44,0-.68,0-.25-.01-.48-.02-.71-.08.26-.15.5-.24.73-.08.23-.17.46-.28.68-.25.54-.52,1.03-.83,1.46-.31.43-.61.81-.9,1.12v.94c.21.14.41.31.61.49.19.19.39.41.58.68.19.27.39.6.58.98.19.38.38.84.58,1.37,0-.21,0-.42,0-.63s0-.42,0-.61,0-.37,0-.58,0-.41-.01-.61c0-.2-.01-.39-.02-.57,0-.18-.02-.34-.03-.47.19.05.4.08.64.09.24.01.48.02.73.02h1.56c.13,0,.25,0,.36-.01.11,0,.23-.02.36-.04.12-.01.26-.03.41-.05v.91h-.46v2.59h.57ZM248.37,112.11v2.68h2.34v-2.68h-2.34ZM248.46,117.93v2.59h2.25v-2.59h-2.25Z"/>
    </g>
    <rect class="cls-11" x="159.37" y="83.35" width="24" height="93.75"/>
    <rect class="cls-7" x="159.37" y="83.35" width="24" height="93.75"/>
    <path d="M168.85,125.96v-.98h5.4l-4.28,9.25h4.07v1h-5.65l4.33-9.26h-3.85Z"/>
    <path class="cls-17" d="M73.55,126.85l6,3-6,3v-6ZM50.62,129.1h23.93v1.5h-23.93v-1.5Z"/>
    <path class="cls-17" d="M153.72,126.85l6,3-6,3v-6ZM125.62,129.1h29.1v1.5h-29.1v-1.5Z"/>
    <path class="cls-17" d="M211.47,126.85l6,3-6,3v-6ZM183.37,129.1h29.1v1.5h-29.1v-1.5Z"/>
    <path class="cls-17" d="M291.72,126.85l6,3-6,3v-6ZM263.62,129.1h29.1v1.5h-29.1v-1.5Z"/>
    <g>
      <path d="M122.15,26.46c.18.04.26.12.24.26-.02.14-.11.22-.28.24-.14.02-.29.08-.45.18-.16.1-.33.29-.52.6-.24.35-.53.71-.86,1.08s-.74.79-1.22,1.26c-.13-.2-.27-.36-.42-.46-.15-.1-.38-.2-.68-.3.32-.18.65-.39.96-.64.32-.25.61-.52.88-.81.27-.29.51-.61.73-.95.22-.34.4-.68.54-1.05.2.17.39.3.56.4.17.1.34.16.5.18ZM125.53,24.2c-.19-.25-.42-.5-.68-.73-.26-.23-.58-.49-.96-.77l.97-.79c.42.4.8.79,1.14,1.19.34.4.61.76.83,1.1,1.38,0,2.63-.01,3.76-.04,1.12-.02,2.06-.07,2.8-.14v1.14c-.61-.06-1.36-.1-2.23-.14-.88-.03-1.86-.04-2.94-.04v5.68c.62-.01,1.16-.03,1.6-.05.44-.02.82-.06,1.15-.11-.44.76-.87,1.4-1.29,1.94s-.81.98-1.2,1.32c-.29.28-.56.53-.82.77-.26.23-.53.46-.8.68.1.06.19.11.29.15.1.04.19.09.29.14.95.43,1.91.76,2.88.98.97.22,2.03.38,3.2.46-.22.19-.38.37-.49.53-.11.16-.2.41-.29.75-.89-.18-1.72-.37-2.5-.57-.78-.2-1.55-.47-2.33-.82-.71-.3-1.35-.63-1.93-.99-.25.17-.52.33-.8.49-.28.16-.6.32-.95.49-.28.13-.62.28-1.02.43-.4.16-.83.31-1.29.46s-.92.29-1.4.41-.92.22-1.34.29c-.07-.22-.18-.42-.32-.6s-.35-.4-.62-.65c.44-.01.86-.04,1.25-.08s.77-.1,1.15-.18c.38-.08.76-.17,1.14-.29.38-.11.78-.24,1.2-.39.36-.13.71-.28,1.05-.44.34-.16.68-.35,1.02-.55-.36-.28-.7-.57-1.03-.89-.32-.32-.64-.67-.96-1.05-.17-.22-.37-.48-.6-.8s-.45-.65-.66-.98c-.35.01-.68.03-.98.04-.31.02-.62.05-.93.08v-1.12c.4.05.88.08,1.46.11.58.02,1.3.04,2.16.05v-5.68c-1.07,0-2.05.02-2.94.04-.89.03-1.64.08-2.25.14v-1.14c.4.04.82.06,1.27.08.45.02.96.04,1.53.05s1.22.03,1.94.04c.72,0,1.54,0,2.47,0ZM125.91,34.64c.5-.36.99-.75,1.44-1.17.34-.31.62-.62.86-.94s.45-.67.66-1.06h-5.97c.2.35.41.64.62.88.21.24.47.53.77.88.24.28.5.53.78.76.28.23.56.44.84.65ZM124.58,24.98v5.7h2.54v-5.7h-2.54ZM133.01,30.06c-.28-.29-.55-.56-.82-.82-.27-.26-.56-.51-.87-.75-.31-.24-.63-.48-.98-.72-.35-.24-.74-.5-1.17-.77l.67-.81c.79.54,1.53,1.08,2.22,1.61.69.53,1.25,1.02,1.69,1.47l-.74.79Z"/>
      <path d="M142.89,23.05c.16.02.24.08.24.18,0,.1-.07.17-.23.23-.31.13-.67.56-1.08,1.28-.34.6-.7,1.2-1.1,1.81-.4.61-.8,1.2-1.22,1.77-.41.57-.84,1.11-1.26,1.63-.43.52-.84.98-1.25,1.39-.17-.24-.34-.42-.52-.55-.18-.13-.41-.22-.7-.28.65-.48,1.27-1.02,1.86-1.62.59-.6,1.13-1.24,1.63-1.93.5-.68.94-1.41,1.32-2.17.38-.76.7-1.55.94-2.37.24.19.47.34.68.43.21.1.44.16.69.2ZM141.56,30.42c-.52,0-1.01.01-1.47.04-.46.02-.85.05-1.16.09v-1.19c.35.05.92.08,1.71.11.79.02,1.9.04,3.33.04,1.14,0,2.14-.01,2.99-.04.85-.02,1.5-.06,1.95-.11l-.59,6.58c-.02.28-.09.52-.19.74s-.29.4-.57.55c-.28.15-.67.27-1.18.35s-1.19.14-2.05.18c-.02-.24-.07-.45-.13-.64-.07-.19-.24-.41-.51-.68.8.05,1.44.06,1.91.04.47-.02.82-.07,1.05-.17.23-.1.39-.24.46-.43.07-.19.13-.44.16-.76l.45-4.7h-5.1c-.02.89-.12,1.7-.3,2.43s-.46,1.41-.86,2.05-.92,1.22-1.57,1.77c-.65.55-1.45,1.08-2.42,1.6-.12-.2-.27-.38-.44-.51s-.4-.26-.68-.35c1.02-.47,1.87-.93,2.54-1.39.67-.46,1.2-.95,1.6-1.48.39-.53.66-1.12.82-1.78.16-.66.23-1.44.23-2.33ZM151.99,29.72c-.2.13-.38.29-.53.49-.15.19-.29.41-.42.67-.67-.5-1.27-1.02-1.78-1.55-.52-.53-1-1.11-1.44-1.74-.44-.63-.87-1.34-1.26-2.13s-.81-1.69-1.23-2.71l.99-.38c.48,1.2.95,2.21,1.41,3.04.46.82.91,1.51,1.37,2.06s.92,1,1.4,1.35.98.65,1.5.9Z"/>
      <path d="M159.38,24.81c.28-.54.51-1.06.69-1.56.19-.5.32-.98.39-1.43.25.13.48.24.69.32.2.08.47.15.79.21.13.02.21.08.23.17.02.09-.04.17-.17.23-.1.05-.19.11-.28.19s-.19.19-.31.34c-.11.15-.24.35-.39.6-.14.25-.32.58-.54.97h4.04c.66,0,1.28-.01,1.86-.04.58-.03,1.08-.08,1.5-.15-.04.25-.07.58-.1.99-.03.41-.04.81-.04,1.19v8.94c0,.54,0,1.01.03,1.42.02.4.06.83.12,1.29h-1.35v-1.73h-9.28v1.86h-1.3c.06-.46.1-.9.12-1.33s.03-.92.03-1.46v-8.98c0-.16,0-.33,0-.52,0-.19-.02-.39-.03-.59-.01-.2-.03-.39-.04-.58-.02-.19-.04-.35-.06-.5.28.04.73.07,1.36.09s1.32.05,2.08.07ZM166.52,28.56v-2.83h-9.28v2.83h9.28ZM157.24,29.43v2.79h9.28v-2.79h-9.28ZM157.24,33.07v2.83h9.28v-2.83h-9.28Z"/>
      <path d="M177.34,35.9c-.7.14-1.29.27-1.77.38-.48.11-.9.21-1.25.3-.35.09-.66.18-.93.26s-.52.18-.77.29c-.04-.25-.09-.49-.17-.7s-.2-.44-.35-.69c.5-.02.96-.06,1.36-.11.4-.05.8-.11,1.19-.18.39-.07.8-.16,1.23-.27.43-.11.94-.24,1.51-.4-.05.2-.08.39-.08.56,0,.17,0,.35.03.56ZM174.04,28.91c-.23.02-.46.06-.69.11s-.44.11-.6.18c-.01-.22-.06-.45-.14-.69-.08-.25-.18-.45-.29-.6.35-.07.77-.53,1.27-1.37.5-.84,1.1-2.16,1.79-3.97.2.16.41.28.62.37.21.09.42.16.62.21.18.04.28.1.29.19.01.09-.07.17-.25.23-.1.04-.2.1-.31.18-.11.08-.26.28-.45.58-.19.3-.45.74-.77,1.32-.32.58-.75,1.37-1.29,2.38l2.31-.13c.25-.47.45-.88.6-1.23.15-.35.26-.65.33-.87.19.17.39.32.6.47.21.14.4.26.57.34.13.07.2.15.19.23,0,.08-.09.13-.26.15-.04,0-.08.02-.12.06-.04.04-.11.12-.21.24s-.23.3-.39.54c-.16.24-.38.56-.65.97-.27.41-.6.92-.99,1.53-.39.61-.86,1.35-1.4,2.22l3.28-.47c-.1.35-.11.68-.05.99l-3.03.38c-.35.05-.67.11-.96.17s-.53.15-.72.24c-.05-.43-.17-.82-.38-1.17.34-.1.62-.24.86-.44s.45-.45.66-.77c.64-1.02,1.17-1.92,1.59-2.69l-1.64.13ZM180.6,38.28h-1.17c.07-.54.12-1.03.15-1.47.03-.44.04-.85.04-1.23v-4.98c-.06.71-.13,1.35-.22,1.94s-.18,1.14-.29,1.67c-.11.53-.23,1.05-.38,1.57-.14.52-.31,1.05-.49,1.6-.32-.34-.69-.55-1.1-.65.3-.58.55-1.2.75-1.87.2-.67.36-1.4.49-2.19.13-.79.22-1.65.28-2.58.06-.93.1-1.94.13-3.05.01-.46,0-.93,0-1.42-.02-.49-.06-1-.12-1.54.2.04.41.06.63.08s.47.03.76.04.63.01,1.04.02c.4,0,.89,0,1.47,0-.14-.28-.31-.55-.49-.81-.18-.26-.37-.51-.58-.74l1.08-.52c.19.29.38.61.57.97.19.36.35.73.5,1.1.55,0,1.01,0,1.37,0,.36,0,.66-.02.91-.03.25-.01.46-.03.63-.04.17-.02.35-.04.51-.06-.02.35-.05.71-.07,1.1s-.04.75-.04,1.08c0,.71.04,1.39.11,2.04-.3-.04-.71-.06-1.23-.07-.52-.01-1.25-.02-2.19-.02h-3.86c-.02.31-.04.61-.05.9-.01.29-.03.57-.05.85h3.71c1.01,0,1.88-.01,2.6-.04.73-.02,1.32-.05,1.78-.09v7.16c0,.25-.02.46-.07.62-.05.16-.14.29-.29.4-.14.1-.35.18-.61.23s-.61.08-1.05.11c0-.2-.03-.39-.08-.57-.05-.17-.16-.36-.32-.57.29.04.53.05.71.05s.33-.02.43-.05.17-.1.21-.18c.04-.08.05-.19.05-.32v-2.72h-1.51c0,.44,0,.95.03,1.52s.04,1.09.06,1.56h-1.15c.04-.49.07-1.02.09-1.58.02-.56.04-1.06.04-1.51h-1.35c0,.23,0,.49,0,.78,0,.29.01.6.02.91,0,.31.01.63.03.95.01.32.02.61.04.87h-1.15c.01-.26.03-.55.05-.87.02-.31.03-.63.04-.95.01-.32.02-.62.03-.92s0-.56,0-.78h-1.42v4.29ZM179.77,27.36h6.18v-2.25h-6.18v2.25ZM180.6,30.84v2.29h1.42v-2.29h-1.42ZM182.96,30.84v2.29h1.35v-2.29h-1.35ZM186.77,30.84h-1.51v2.29h1.51v-2.29Z"/>
      <path d="M192.91,24.56c-.25,0-.52,0-.79,0-.28,0-.54.02-.79.03-.25.01-.48.03-.69.05-.2.02-.36.03-.47.04v-1.15c.28.04.69.07,1.23.09.55.02,1.27.04,2.17.04s1.58-.01,2.15-.04c.56-.02.99-.05,1.26-.09v1.15c-.24-.04-.64-.07-1.19-.09-.55-.02-1.13-.04-1.73-.04-.1.59-.23,1.24-.4,1.95-.17.71-.35,1.37-.56,1.98h1.75c.44,0,.81-.01,1.11-.04.29-.02.54-.05.75-.09-.02.14-.04.32-.06.51s-.03.42-.03.66v5.41c0,.24,0,.48,0,.73,0,.25.02.52.03.82h-.97v-1.32h-2.7v1.69h-1.08c.02-.31.04-.62.06-.94s.03-.64.03-.97v-3.73c-.26.58-.5,1.04-.69,1.38-.2.34-.4.64-.6.89-.13-.13-.29-.26-.46-.39-.17-.13-.35-.23-.51-.3.9-1.03,1.61-2.22,2.12-3.56s.87-2.9,1.07-4.7ZM195.69,29.32h-2.7v4.99h2.7v-4.99ZM204.21,34.48c-.23-.02-.46-.05-.69-.07-.23-.02-.47-.04-.74-.05-.26-.01-.56-.02-.88-.03-.32,0-.7,0-1.14,0s-.81,0-1.14,0c-.33,0-.63.02-.89.03-.26.01-.51.03-.74.05-.23.02-.46.05-.68.07v-1.21c.23.04.46.06.68.08.23.02.47.03.74.04.26.01.56.02.89.03.33,0,.71,0,1.14,0s.81,0,1.14,0c.32,0,.62-.02.88-.04.26-.02.51-.04.74-.07.23-.03.46-.06.69-.1v1.26ZM203.71,24.27h-3.93c-.49,0-.9.01-1.23.04s-.65.06-.96.11v-1.19c.34.02.65.04.95.06s.59.03.87.04c.29.01.59.02.9.03.31,0,.65,0,1.03,0s.71,0,1,0c.29,0,.57-.02.84-.03.26-.01.53-.03.8-.04s.57-.04.91-.06l-.88,6.96c.62-.01,1.11-.03,1.46-.05.35-.02.59-.05.72-.09-.05.37-.09.77-.14,1.21s-.08.84-.1,1.23c-.05.69-.11,1.34-.17,1.96-.07.62-.13,1.12-.19,1.5-.1.52-.21.93-.34,1.24s-.33.56-.59.73-.62.3-1.07.38c-.45.08-1.04.14-1.76.19.01-.28-.02-.51-.11-.69-.08-.19-.23-.38-.43-.57.61.06,1.11.08,1.5.07.39-.01.71-.07.95-.18.24-.11.42-.27.54-.49s.22-.5.29-.85c.04-.19.08-.48.13-.86.05-.38.1-.79.14-1.24.04-.45.07-.91.1-1.37.02-.46.04-.87.04-1.22h-4.43c-.5,0-1,.01-1.48.04s-.85.07-1.12.13c.12-.5.23-1.05.32-1.62.09-.58.16-1.14.22-1.7.05-.56.09-1.09.11-1.59s.02-.93,0-1.29c.22.06.44.11.68.14.24.04.46.05.65.04.12-.01.19.02.21.1.02.08-.06.18-.23.32-.05.04-.09.11-.14.21-.04.1-.09.31-.14.61-.05.31-.11.75-.18,1.34-.07.59-.15,1.38-.24,2.38h3.8l.72-5.91Z"/>
      <path d="M210.65,38.68h-1.23c.04-.2.06-.38.08-.52.02-.14.03-.29.04-.42,0-.14.01-.29.02-.44,0-.16,0-.34,0-.56v-1.6c0-.22,0-.43,0-.64,0-.21-.02-.42-.03-.62-.2.06-.41.12-.61.17-.2.05-.42.11-.65.17-.1-.23-.2-.41-.31-.54-.11-.13-.28-.28-.52-.45.95-.18,1.78-.38,2.5-.59.71-.22,1.33-.44,1.85-.67.52-.23.95-.47,1.29-.71.34-.25.62-.5.82-.75-1.18.01-2.25.03-3.22.06-.97.03-1.79.07-2.48.12v-1.19c.73.06,1.64.1,2.72.13,1.08.02,2.28.04,3.6.05.18-.31.32-.65.42-1,.1-.35.16-.75.2-1.18.28.07.5.13.68.16.17.04.39.08.64.13.24.04.25.14.04.31-.13.1-.26.26-.4.48-.13.22-.29.59-.49,1.11h4.42c-.34-.28-.64-.5-.92-.69s-.57-.35-.88-.5l.52-.69c.38.17.74.35,1.05.54s.66.43,1.04.72l-.5.58c.66,0,1.27,0,1.83-.03s1.05-.06,1.47-.12v1.19c-.64-.05-1.48-.09-2.52-.12-1.05-.03-2.19-.05-3.42-.06.37.29.77.55,1.2.78.43.23.81.42,1.16.57.72.29,1.45.51,2.18.66s1.5.22,2.29.21c-.3.28-.55.67-.74,1.19-.24-.06-.47-.11-.68-.15-.21-.04-.42-.09-.62-.14-.07.42-.11.89-.11,1.41v1.44c0,.22,0,.4,0,.56,0,.16.02.31.03.46.01.15.03.3.05.46.02.16.04.33.06.52h-1.21v-.5h-3.39v.7h-1.21c.04-.2.06-.38.08-.52.02-.14.03-.29.04-.42,0-.14.01-.29.02-.44,0-.16,0-.34,0-.56v-1.69c0-.31,0-.62-.02-.92-.01-.3-.03-.57-.05-.81.17.01.37.02.61.04.24.01.49.02.75.03.26,0,.52.01.78.02.26,0,.5,0,.72,0,.26,0,.55,0,.87,0s.61-.02.9-.03c-.32-.1-.63-.19-.92-.3-.29-.1-.58-.22-.87-.35-.68-.31-1.3-.66-1.85-1.05-.55-.39-1.02-.77-1.42-1.14h-1.19c-.18.26-.39.52-.62.77-.23.25-.52.49-.87.74-.34.25-.75.49-1.23.73-.48.24-1.06.49-1.73.74.26,0,.53,0,.8,0,.27,0,.53,0,.77,0,.23,0,.47,0,.73,0,.26,0,.51-.01.77-.02.25,0,.49-.01.72-.03.23-.01.43-.02.59-.04-.06.24-.1.51-.12.81-.02.3-.03.61-.03.92v1.97c0,.16,0,.32.02.46.01.14.03.29.05.45s.04.33.06.52h-1.15v-.58h-3.28v.72ZM214.79,27.9c-.32-.02-.75-.05-1.29-.07-.54-.02-1.09-.04-1.67-.04s-1.07,0-1.48.03c-.41.02-.77.04-1.1.06,0-.11,0-.28.02-.5.01-.23.02-.47.04-.72.01-.25.02-.5.03-.74,0-.24,0-.43,0-.56,0-.54,0-1-.03-1.39-.02-.38-.04-.67-.06-.87.34.04.71.06,1.11.08.4.02.89.03,1.47.03s1.14-.01,1.68-.04c.54-.02.97-.05,1.28-.07-.02.12-.04.28-.05.47-.01.19-.02.39-.03.6,0,.21,0,.42,0,.63v.53c.01.71.02,1.26.04,1.64.01.38.03.69.05.92ZM213.68,23.99h-3.3v2.99h3.3v-2.99ZM213.93,34.26h-3.28v2.85h3.28v-2.85ZM222.47,27.81c-.34-.04-.77-.06-1.3-.08s-1.08-.03-1.66-.03-1.07,0-1.49.02c-.41.01-.8.04-1.14.07.01-.11.02-.27.03-.5,0-.22.01-.46.03-.71.01-.25.02-.5.03-.74,0-.24,0-.43,0-.58,0-.52,0-.95-.03-1.3-.02-.35-.04-.64-.06-.87.34.04.71.06,1.14.07.42.01.92.02,1.5.02s1.14,0,1.68-.02c.54-.01.97-.04,1.28-.07-.01.12-.02.28-.04.47-.01.19-.02.39-.03.6,0,.21-.01.42-.02.62,0,.2,0,.38,0,.52,0,.49,0,.97.03,1.43s.04.81.06,1.05ZM221.3,34.15h-3.39v2.96h3.39v-2.96ZM221.34,23.99h-3.32v2.9h3.32v-2.9Z"/>
    </g>
  </g>
  <g>
    <rect class="cls-11" x="493.12" y="66.1" width="23.25" height="93.75"/>
    <rect class="cls-7" x="493.12" y="66.1" width="23.25" height="93.75"/>
    <polygon points="508.12 117.24 502.3 117.24 502.3 116.67 507.03 110.13 502.66 110.13 502.66 109.5 507.9 109.5 507.9 110.06 503.17 116.62 508.12 116.62 508.12 117.24"/>
    <path class="cls-17" d="M544.47,109.6l6,3-6,3v-6ZM516.37,111.85h29.1v1.5h-29.1v-1.5Z"/>
    <polygon class="cls-12" points="595.12 65.35 549.37 92.18 549.37 133.02 595.12 159.85 595.12 65.35"/>
    <polygon class="cls-3" points="595.12 65.35 549.37 92.18 549.37 133.02 595.12 159.85 595.12 65.35"/>
    <g>
      <path d="M565.22,127.04h-1.68c-.27,0-.49,0-.68,0-.19,0-.36.01-.5.02-.14,0-.27.02-.39.04-.12.01-.24.03-.35.05.05-.24.09-.47.11-.71.03-.23.04-.42.03-.55,0-.24.07-.27.24-.1.09.08.22.15.39.21.18.05.41.08.69.08h2.14c0-.5,0-.96,0-1.38s0-.79-.01-1.15-.01-.68-.02-1c0-.31-.02-.63-.04-.94h.93c0,.31-.02.63-.04.94-.01.31-.02.65-.03,1s0,.73-.01,1.15,0,.87,0,1.38h2.84c0-.52,0-.98,0-1.38s0-.75-.01-1.06-.01-.58-.03-.81c-.01-.23-.03-.43-.05-.6h.93c-.02.19-.04.4-.05.63-.01.23-.02.49-.03.8s0,.65-.01,1.05c0,.39,0,.85,0,1.38h3.49c0-.69,0-1.32,0-1.87,0-.56-.01-1.06-.03-1.53-.01-.46-.03-.88-.04-1.25-.01-.38-.04-.73-.06-1.06h1.08c-.03.35-.05.73-.06,1.14-.01.41-.03.87-.04,1.38-.01.51-.02,1.08-.03,1.7s0,1.33,0,2.11c0,1.41.01,2.63.04,3.68s.06,1.93.11,2.64h-1.08c.05-.68.08-1.52.11-2.52.02-.99.04-2.15.04-3.47h-3.49c0,.53,0,.99,0,1.37s0,.71.01,1,.01.54.03.76c.01.22.03.44.05.65h-.93c.02-.21.04-.43.05-.66.01-.23.02-.49.03-.78,0-.29,0-.62.01-1s0-.83,0-1.34h-2.84v3.49c.24.1.49.23.76.36s.54.28.8.43c.27.15.52.3.76.46.24.15.45.29.62.41-.16.14-.28.27-.34.39-.07.12-.12.28-.16.49-.3-.29-.63-.57-.99-.83-.36-.26-.76-.49-1.22-.71s-.97-.42-1.54-.61c-.57-.19-1.22-.37-1.97-.54.09-.16.17-.32.24-.47.06-.15.12-.33.16-.54.04-.14.09-.22.16-.23.07,0,.14.06.19.2.05.11.23.25.55.4.32.15.72.31,1.2.48v-3.19Z"/>
      <path d="M567.83,116.71c.82,0,1.54.03,2.16.07s1.18.1,1.68.18c.5.09.96.2,1.39.34.43.14.86.32,1.3.54-.16.14-.28.3-.37.47s-.15.35-.19.54c-.43-.29-.89-.54-1.39-.73-.5-.19-1.11-.33-1.84-.42-.73-.09-1.61-.14-2.66-.15-1.05,0-2.34.01-3.88.07.02-.12.04-.35.06-.68.02-.33.04-.75.05-1.27.01-.51.02-1.1.03-1.77s0-1.39,0-2.18c-.74.05-1.3.09-1.69.14s-.68.09-.88.13c.05-.21.08-.39.11-.55.02-.16.04-.33.05-.52,0-.13.04-.22.11-.25.06-.03.14,0,.25.11.03.03.07.05.14.07.06.02.17.03.31.04.15,0,.35.01.61,0,.26,0,.59-.02,1-.04,0-1.22,0-2.17-.03-2.85-.02-.68-.05-1.15-.1-1.4h1c0,.12-.02.34-.04.66-.01.31-.03.67-.04,1.07,0,.4-.02.82-.02,1.25,0,.44,0,.84,0,1.21,1-.07,1.86-.17,2.6-.31s1.41-.31,2.03-.5c-.14-.1-.28-.18-.42-.26-.14-.08-.28-.16-.42-.24-.19-.1-.41-.21-.66-.31-.25-.1-.5-.2-.76-.3-.26-.09-.53-.18-.8-.25-.27-.07-.53-.13-.78-.18.11-.19.21-.35.27-.49s.12-.28.16-.43c.05-.2.12-.3.21-.31.09,0,.17.07.25.23.02.05.07.1.16.16.09.06.22.14.39.24.18.1.4.21.68.34.28.13.62.29,1.03.47.26.11.53.25.81.42.28.17.57.35.86.56,1.19-.48,2.07-1.04,2.64-1.7.1-.12.17-.23.21-.31.03-.08,0-.16-.08-.23s-.25-.14-.49-.2c-.24-.06-.57-.13-1.01-.19.15-.12.28-.27.37-.43.09-.16.17-.33.21-.5.56.16,1,.32,1.33.46s.56.3.7.45c.14.15.19.31.16.48s-.12.36-.27.56c-.15.21-.34.42-.56.63-.22.21-.46.42-.72.62-.26.2-.52.38-.79.55-.27.17-.54.31-.81.43.58.46,1.14.94,1.67,1.45.53.51.99,1,1.38,1.47-.13.1-.26.24-.38.39-.12.16-.22.33-.29.54-.35-.61-.82-1.21-1.41-1.82-.59-.6-1.23-1.16-1.91-1.67-.92.3-1.83.54-2.71.71-.89.17-1.84.28-2.84.35v5.03c.4,0,.78-.01,1.13-.01h1.03v-1.72c0-.4-.01-.79-.04-1.16-.02-.38-.06-.67-.11-.88l4.65.28c.58.04.97.26,1.18.66s.26,1.06.16,1.97c-.2,0-.37.02-.52.06-.15.04-.33.11-.55.23.1-.45.16-.81.19-1.08s.02-.48-.01-.63c-.04-.15-.11-.25-.22-.31-.11-.05-.25-.08-.42-.09l-3.58-.24v2.91ZM564.04,108.19c-.27.17-.55.41-.86.72s-.6.63-.88.98l-.57-.67c.27-.33.55-.65.85-.96.3-.31.58-.56.83-.76l.63.7Z"/>
      <path d="M566.14,93.78c-.03.27-.05.61-.06,1.03-.01.42-.02.85-.02,1.31s0,.85.01,1.18c0,.33.03.63.06.9-.08,0-.22-.02-.39-.02s-.36-.01-.56-.02c-.2,0-.39-.02-.58-.02-.19,0-.34,0-.46,0-.41,0-.75,0-1.03.02-.28.01-.5.03-.68.05.03-.27.05-.56.06-.9,0-.33.01-.73.01-1.18s0-.9-.01-1.33-.03-.76-.06-1.01c.1,0,.22.02.37.03.15,0,.31.02.48.02.17,0,.33,0,.49.01.16,0,.3,0,.41,0,.39,0,.77,0,1.13-.02.37-.01.64-.03.83-.05ZM566.21,99.85c-.02.26-.04.6-.06,1.02-.02.42-.03.86-.03,1.32s0,.85.02,1.17c.01.32.03.61.05.87-.08,0-.22,0-.4-.01-.18,0-.37-.02-.57-.03s-.39-.02-.58-.02c-.19,0-.34,0-.44,0-.43,0-.79,0-1.1.02-.3.01-.53.03-.68.05.03-.27.05-.56.06-.88.01-.32.02-.71.02-1.16s0-.9-.03-1.33c-.02-.43-.04-.76-.06-1.01.1.02.22.03.37.04.15,0,.31.02.48.02.17,0,.33,0,.5,0h.42c.56,0,.99-.02,1.3-.03.3,0,.55-.02.73-.04ZM563.11,94.68v2.62h2.29v-2.62h-2.29ZM563.11,100.73v2.61h2.37v-2.61h-2.37ZM574.73,103.13v.97c-.16-.03-.3-.05-.41-.06-.11-.01-.23-.02-.33-.03-.11,0-.23,0-.35-.01-.12,0-.27,0-.44,0h-1.27c-.17,0-.34,0-.51,0s-.33.01-.49.02c.05.16.09.32.13.48.04.16.09.33.14.51-.18.08-.32.16-.43.24-.1.09-.22.22-.36.41-.14-.75-.3-1.41-.47-1.97s-.35-1.05-.53-1.46-.37-.75-.56-1.02c-.2-.27-.39-.49-.59-.65,0,.93.03,1.78.05,2.54.02.77.05,1.42.09,1.96h-.94c.05-.58.08-1.3.1-2.15.02-.85.03-1.8.04-2.85-.25-.14-.51-.25-.79-.33-.28-.08-.59-.13-.93-.16.06-.22.1-.4.13-.53.03-.14.06-.31.1-.51.03-.19.11-.2.24-.03.08.11.2.21.38.31.18.11.47.23.88.38v-3.49c-.22.27-.4.51-.54.73-.14.22-.28.45-.4.7l-.54-.41c.13-.3.28-.58.43-.83.15-.25.34-.53.57-.82l.46.4c0-.52,0-1-.02-1.45-.01-.44-.04-.83-.09-1.16h.94c-.04.5-.07,1.17-.09,2-.02.83-.04,1.73-.05,2.71.23-.29.43-.61.62-.95.18-.34.33-.64.45-.92.23-.57.4-1.14.52-1.72.12-.58.17-1.18.16-1.81.22.24.53.43.94.58-.05.19-.09.37-.12.53-.03.17-.07.33-.11.49.33.06.7.08,1.11.08h1.14c.17,0,.32,0,.44,0,.12,0,.25-.01.36-.02.12,0,.24-.02.36-.04.12-.01.26-.03.41-.05v.95h-.4v2.68h.56v.95c-.16-.03-.3-.05-.41-.06-.11-.01-.23-.02-.33-.03-.11,0-.23,0-.35-.01-.12,0-.27,0-.44,0h-1.34c-.25,0-.49,0-.73.01-.24,0-.45.02-.64.04,0-.13.02-.29.03-.48s.02-.39.02-.59c0-.2,0-.41.01-.62,0-.21,0-.4,0-.57,0-.21,0-.44,0-.68,0-.25-.01-.48-.02-.71-.08.26-.15.5-.24.73s-.17.46-.28.68c-.25.54-.52,1.03-.83,1.46-.31.43-.61.81-.91,1.12v.94c.21.14.41.31.61.49.2.19.39.41.58.68.2.27.39.6.58.98.19.38.38.84.58,1.37,0-.21,0-.42,0-.63,0-.21,0-.42,0-.61,0-.18,0-.37,0-.58,0-.2,0-.41-.01-.61,0-.2-.01-.39-.02-.57,0-.18-.02-.34-.03-.47.19.05.4.08.64.09.24.01.48.02.73.02h1.56c.13,0,.25,0,.36-.01.11,0,.23-.02.36-.04.12-.01.26-.03.41-.05v.91h-.46v2.59h.57ZM571.15,94.71v2.68h2.34v-2.68h-2.34ZM571.24,100.53v2.59h2.25v-2.59h-2.25Z"/>
    </g>
    <path d="M589.63,108.89c1.04.94,1.56,2.14,1.56,3.59,0,1.37-.45,2.43-1.35,3.18-.9.75-2.15,1.13-3.74,1.13s-2.84-.37-3.71-1.1c-.87-.73-1.3-1.78-1.3-3.14,0-1.79.72-2.99,2.15-3.58l.32.9c-1.12.45-1.67,1.35-1.67,2.7,0,1.06.36,1.88,1.08,2.43.72.56,1.76.84,3.13.84s2.4-.3,3.16-.9c.76-.6,1.15-1.43,1.15-2.49s-.36-1.99-1.07-2.68h-2.27v2.62h-.77v-3.5h3.35Z"/>
    <path class="cls-17" d="M623.22,109.6l6,3-6,3v-6ZM595.12,111.85h29.1v1.5h-29.1v-1.5Z"/>
    <rect class="cls-18" x="630" y="65.73" width="23.25" height="94.5"/>
    <rect class="cls-9" x="630" y="65.73" width="23.25" height="94.5"/>
    <g>
      <path d="M636.82,106.08h1.2l2.46,4,2.48-4h1.18l-3.05,4.97,3.25,5.28h-1.2l-2.67-4.3-2.67,4.3h-1.2l3.27-5.28-3.05-4.97Z"/>
      <path d="M649.04,107.12c0,.68-.13,1.3-.38,1.87-.25.57-.61.98-1.08,1.21l-.3-.49c.73-.36,1.1-1.19,1.1-2.48h-.83v-1.51h1.48v1.4Z"/>
    </g>
    <polygon class="cls-14" points="688.87 112.6 734.62 139.43 734.62 179.52 688.87 206.35 688.87 112.6"/>
    <polygon class="cls-3" points="688.87 112.6 734.62 139.43 734.62 179.52 688.87 206.35 688.87 112.6"/>
    <rect class="cls-18" x="558" y="180.48" width="93.75" height="24"/>
    <rect class="cls-9" x="558" y="180.48" width="93.75" height="24"/>
    <polygon points="607.76 197.13 604.76 192.63 601.75 197.13 600.72 197.13 604.24 191.96 601.01 187.31 602.04 187.31 604.78 191.36 607.47 187.31 608.51 187.31 605.35 191.96 608.79 197.13 607.76 197.13"/>
    <path class="cls-17" d="M680.97,129.1l6,3-6,3v-6ZM652.87,131.35h29.1v1.5h-29.1v-1.5Z"/>
    <path class="cls-17" d="M680.97,189.1l6,3-6,3v-6ZM652.87,191.35h29.1v1.5h-29.1v-1.5Z"/>
    <path class="cls-17" d="M762.72,153.85l6,3-6,3v-6ZM734.62,156.1h29.1v1.5h-29.1v-1.5Z"/>
    <path class="cls-13" d="M769.87,156.85c0-7.87,6.55-14.25,14.63-14.25s14.62,6.38,14.62,14.25-6.55,14.25-14.62,14.25-14.63-6.38-14.63-14.25Z"/>
    <path class="cls-10" d="M769.87,156.85c0-7.87,6.55-14.25,14.63-14.25s14.62,6.38,14.62,14.25-6.55,14.25-14.62,14.25-14.63-6.38-14.63-14.25Z"/>
    <path d="M783.63,157.04c0,1.65-.28,2.9-.85,3.76-.57.86-1.42,1.29-2.54,1.29-2.24,0-3.35-1.68-3.35-5.05,0-1.17.12-2.12.37-2.86.25-.74.61-1.29,1.1-1.65.48-.36,1.12-.54,1.92-.54,1.14,0,1.98.41,2.53,1.24.55.83.82,2.1.82,3.81ZM782.01,157.04c0-.92-.06-1.65-.17-2.2-.12-.55-.3-.95-.55-1.21-.25-.26-.59-.38-1.01-.38-.65,0-1.11.29-1.38.87-.27.58-.4,1.55-.4,2.92s.14,2.28.41,2.88c.27.6.72.9,1.35.9s1.06-.3,1.34-.91c.28-.61.42-1.56.42-2.86ZM783.65,162.7l4.61-10.82h1.49l-4.6,10.82h-1.5ZM790.77,160.67h2.54v-7.07l-2.3,1.47v-1.33l2.4-1.6h1.5v8.53h2.17v1.29h-6.31v-1.29Z"/>
    <g>
      <path d="M578.93,26.65v-2.13c0-.34,0-.62,0-.87,0-.24-.02-.45-.03-.63-.01-.18-.03-.35-.04-.5-.02-.15-.04-.3-.06-.44.3.06.6.11.89.14.29.04.53.05.69.04.3-.01.34.09.13.31-.11.11-.2.27-.26.5-.07.22-.1.51-.1.87v2.7c.64,0,1.22,0,1.74,0,.52,0,1.01-.01,1.45-.02.44,0,.87-.01,1.26-.03.4-.01.79-.03,1.19-.05v1.17c-.4-.01-.79-.03-1.19-.05-.4-.02-.82-.03-1.26-.04s-.93-.01-1.45-.02c-.52,0-1.1,0-1.74,0v3.59c.66,0,1.24,0,1.75,0,.5,0,.95-.01,1.34-.02.39,0,.73-.02,1.02-.04.29-.02.54-.04.76-.06v1.17c-.24-.02-.5-.04-.79-.06-.29-.02-.62-.03-1.01-.04-.38,0-.83-.01-1.32-.02-.5,0-1.08,0-1.74,0v4.42c.88,0,1.67,0,2.37,0,.7,0,1.35-.02,1.93-.04.58-.02,1.11-.04,1.59-.05s.92-.04,1.34-.08v1.37c-.44-.04-.93-.06-1.44-.08-.52-.02-1.1-.04-1.74-.05s-1.36-.03-2.15-.04c-.79,0-1.68,0-2.67,0-1.78,0-3.33.01-4.66.04-1.33.03-2.44.07-3.34.14v-1.37c.87.06,1.92.11,3.18.14,1.26.03,2.72.04,4.39.04v-4.42c-.67,0-1.25,0-1.73,0-.48,0-.9.01-1.26.02-.36,0-.68.02-.96.04s-.56.04-.82.06v-1.17c.26.02.54.04.83.06.29.02.62.03.98.04.37,0,.79.01,1.27.02.48,0,1.04,0,1.69,0v-3.59h-4.42c-.13.3-.29.62-.46.96-.17.34-.36.68-.55,1.02s-.38.66-.58.96c-.19.31-.37.57-.52.78-.18-.2-.35-.35-.5-.43s-.36-.15-.62-.2c.37-.38.72-.8,1.04-1.25s.62-.96.9-1.54.54-1.23.78-1.95.47-1.55.68-2.49c.2.12.4.22.59.3s.42.15.69.21c.18.05.28.12.29.21.01.09-.07.17-.25.24-.14.06-.31.29-.5.69-.19.4-.4.91-.61,1.52h4.04Z"/>
      <path d="M591.98,29.95c-.01,1.03-.04,1.94-.09,2.73-.05.79-.13,1.5-.23,2.13-.11.63-.25,1.22-.43,1.76-.18.54-.41,1.09-.69,1.64-.18-.2-.38-.36-.59-.47-.22-.11-.44-.19-.68-.23.37-.54.68-1.13.92-1.76s.42-1.41.53-2.33c.11-.92.18-2.04.19-3.37.01-1.33-.02-2.96-.09-4.91.16.02.44.05.87.07.42.02.96.04,1.6.06.65.02,1.39.03,2.24.04.84,0,1.76,0,2.76,0-.06-.94-.12-1.65-.17-2.14-.05-.49-.11-.86-.17-1.11.26.06.5.11.69.14.2.03.42.05.66.06.17.01.27.06.32.14.04.08,0,.18-.13.32-.04.04-.07.09-.09.17-.02.08-.04.21-.05.4-.01.19-.01.44,0,.77,0,.32.02.75.04,1.26,1.54,0,2.74-.01,3.61-.04.87-.02,1.45-.07,1.77-.13v1.26c-.16-.01-.43-.03-.83-.04-.4-.02-.85-.03-1.35-.05-.5-.01-1.03-.02-1.59-.03-.55,0-1.06,0-1.53,0,.08,1.26.22,2.36.4,3.29.18.93.39,1.79.63,2.57.12-.18.23-.36.33-.53.1-.17.2-.35.3-.53.13-.24.26-.52.4-.83.13-.31.26-.63.38-.96s.22-.67.32-1.01c.09-.34.17-.67.22-.98.24.14.45.26.62.34.17.08.36.15.55.2.25.06.38.15.4.26.01.11-.08.22-.29.32-.06.02-.13.09-.21.2-.08.11-.18.27-.3.5s-.26.51-.43.87-.37.79-.59,1.31c-.14.32-.32.66-.53,1.02-.21.35-.45.72-.71,1.09.6,1.5,1.32,2.61,2.15,3.33.16.13.29.22.4.26.11.04.21,0,.3-.11.09-.11.17-.32.25-.62s.16-.73.24-1.28c.16.19.34.35.54.47.2.12.41.21.63.27-.21.71-.4,1.27-.59,1.69s-.38.71-.57.88c-.19.17-.4.24-.61.21-.22-.04-.45-.15-.7-.34-.26-.19-.53-.43-.8-.71s-.53-.59-.78-.91c-.25-.32-.48-.66-.69-1-.21-.34-.39-.68-.55-1.02-.58.73-1.19,1.44-1.84,2.11-.65.67-1.27,1.26-1.86,1.75-.13-.17-.3-.33-.5-.48s-.42-.27-.68-.37c.77-.44,1.53-1.04,2.3-1.78.76-.75,1.47-1.55,2.12-2.42-.38-1.17-.68-2.31-.89-3.43s-.36-2.32-.44-3.6h-6.36c.01.5.02.98.02,1.43v1.31h2.18c.5,0,.99-.02,1.47-.05.47-.03.84-.07,1.11-.14l-.36,5.88c-.05.73-.33,1.23-.84,1.49-.51.26-1.34.33-2.5.21,0-.25-.02-.47-.07-.66-.05-.19-.14-.42-.29-.69.56.12,1.02.2,1.36.23.34.04.61.03.8-.02.19-.05.32-.14.39-.28.07-.14.11-.32.12-.53l.31-4.52h-3.68ZM602.76,25.16c-.22-.34-.52-.7-.91-1.09-.39-.39-.8-.76-1.23-1.11l.85-.72c.42.34.83.7,1.22,1.08.39.38.71.73.96,1.05l-.88.79Z"/>
      <path d="M611.65,30.31c.35-.85.62-1.69.82-2.51s.35-1.7.46-2.64h-2.78c-.41,0-.8,0-1.18.02-.38.01-.75.03-1.13.05v-1.14c.18.02.37.04.56.05.19.01.41.02.66.04.25.01.54.02.87.02h2.32c.3,0,.57,0,.8-.02.23-.01.44-.02.61-.04.17-.01.35-.03.53-.05-.16,1.36-.39,2.63-.69,3.83-.31,1.2-.68,2.32-1.13,3.36.52.72,1.01,1.43,1.47,2.12.46.69.87,1.33,1.22,1.92l-1.08.76c-.31-.58-.65-1.17-1.02-1.77s-.75-1.2-1.16-1.8c-.4.77-.9,1.59-1.52,2.47-.62.88-1.31,1.71-2.08,2.49-.19-.2-.39-.38-.59-.51-.2-.14-.41-.26-.62-.37.36-.25.73-.56,1.1-.93.37-.37.74-.77,1.1-1.22.36-.44.7-.92,1.03-1.42.33-.5.62-1.01.88-1.52-.53-.76-1.05-1.47-1.56-2.13-.51-.66-.98-1.24-1.4-1.73l.87-.69c.4.46.82.97,1.28,1.54s.91,1.17,1.37,1.81ZM621.29,26.18c.55,0,1.01,0,1.36-.03.35-.02.71-.05,1.05-.1v1.17c-.32-.02-.67-.04-1.04-.06-.37-.02-.83-.03-1.37-.04v9.48c0,.31-.03.57-.1.78-.07.21-.21.38-.42.52-.22.14-.52.25-.92.33s-.92.16-1.59.22c-.02-.25-.08-.5-.18-.75-.1-.25-.25-.5-.45-.75.56.07,1.02.11,1.35.13.34.01.59-.02.77-.08.17-.07.29-.17.34-.32.05-.15.08-.35.08-.59v-8.98h-2.81c-.72,0-1.29,0-1.7.03-.42.02-.8.04-1.16.06v-1.15c.19.02.38.04.56.06.18.02.38.03.6.04.22,0,.46.01.74.02.28,0,.6,0,.97,0h2.81c0-1.12-.01-2-.04-2.65s-.07-1.11-.12-1.39c.3.08.55.14.74.16.19.02.41.03.65.02.19-.01.3.02.33.09.03.07-.02.15-.15.23-.1.06-.17.16-.22.31-.05.14-.07.28-.07.41v2.81ZM616.5,28.6c.42.59.83,1.24,1.22,1.96s.77,1.47,1.14,2.26l-1.08.56c-.23-.65-.53-1.33-.91-2.05-.38-.71-.83-1.44-1.34-2.17l.97-.56Z"/>
      <path d="M627.78,26.62c-.54.01-1.02.03-1.44.05-.42.02-.81.07-1.15.13v-1.24c.35.06.73.1,1.14.13.41.02.9.04,1.45.04-.01-.95-.04-1.7-.08-2.26-.04-.56-.09-.98-.15-1.25.28.06.52.1.73.13.21.02.41.03.6.02.57-.01.61.18.13.58-.06.05-.1.15-.12.31-.02.16-.03.44-.03.85v1.64c.43,0,.8-.01,1.1-.04.3-.02.59-.07.88-.13v1.24c-.29-.06-.58-.1-.88-.13-.3-.02-.67-.04-1.1-.04v3.53c.36-.17.71-.34,1.06-.5s.69-.34,1.03-.5c.02.22.06.38.1.5s.12.28.24.47c-.36.16-.75.33-1.16.51-.41.19-.84.38-1.27.59v5.28c0,.36-.04.66-.12.89s-.22.42-.42.57c-.2.14-.48.25-.84.31s-.8.1-1.34.11c0-.23-.04-.47-.12-.72s-.21-.5-.39-.74c.47.1.84.16,1.13.18.28.02.5,0,.65-.06s.25-.17.3-.32c.05-.14.07-.34.07-.59v-4.38c-.42.2-.82.41-1.2.6s-.72.39-1.04.57c-.07-.28-.16-.5-.25-.68-.1-.17-.23-.38-.41-.6,1.03-.31,2-.65,2.9-1.03v-4ZM638.58,36.08c0,.16,0,.28.03.38.02.1.06.17.13.23.07.05.16.09.28.11.12.02.29.03.5.03.19,0,.35-.02.48-.06.13-.04.23-.13.31-.25.08-.13.14-.3.18-.53.04-.23.07-.53.1-.9.17.16.35.29.56.39.21.1.43.17.67.19-.1.46-.2.83-.32,1.11s-.27.5-.46.65c-.19.15-.43.25-.72.31-.29.05-.65.08-1.08.08-.4,0-.71-.02-.95-.06s-.41-.12-.52-.23c-.11-.11-.19-.26-.22-.46s-.04-.45-.04-.77v-7.23h-3.55v2.97c0,.79-.06,1.51-.19,2.15-.13.64-.32,1.21-.59,1.73-.26.52-.6.98-1.02,1.4-.41.41-.9.8-1.47,1.14-.11-.2-.25-.38-.43-.54-.18-.16-.38-.29-.59-.4.65-.31,1.18-.64,1.6-.97.42-.34.75-.73.99-1.17.24-.44.41-.96.5-1.53.09-.58.14-1.27.14-2.07v-1.47c0-.4,0-.75-.02-1.04-.01-.29-.02-.53-.04-.73-.01-.2-.03-.38-.05-.55.29.06.69.1,1.2.13.51.03,1.11.05,1.79.05.82,0,1.45-.02,1.9-.05.45-.03.82-.07,1.11-.13-.06.3-.11.64-.14,1.03s-.05.79-.05,1.21v5.88ZM635.31,24.94c-.14-.36-.32-.7-.52-1.02s-.47-.68-.81-1.07l1.15-.63c.28.48.51.94.71,1.39.2.44.38.89.53,1.33h1.77c.47,0,.87,0,1.2-.02.33-.01.62-.03.87-.04.25-.02.52-.04.79-.06v1.12c-.29-.02-.56-.04-.82-.06-.26-.02-.56-.03-.92-.04-.35,0-.79-.01-1.3-.02-.51,0-1.15,0-1.92,0s-1.35,0-1.86,0c-.5,0-.94.01-1.3.02-.36,0-.68.02-.96.04s-.56.04-.85.06v-1.12c.26.02.52.05.77.06s.53.03.84.04c.31.01.68.02,1.09.02h1.52Z"/>
      <path d="M658.24,23.08c-.02.18-.05.37-.06.57s-.03.41-.04.65-.01.5-.02.79c0,.29,0,.63,0,1v10.06c0,.46-.03.82-.1,1.1-.07.28-.21.5-.42.66-.22.16-.54.28-.96.36-.42.08-.98.14-1.68.19,0-.29-.03-.53-.09-.74-.06-.2-.19-.43-.38-.69.55.04.99.05,1.33.04.33-.01.58-.06.76-.15.17-.09.29-.23.33-.41.05-.19.07-.44.07-.75v-11.5h-11.14v14.08h-1.37c.05-.32.09-.62.12-.88.03-.26.05-.52.07-.77.02-.25.03-.51.04-.78,0-.27,0-.57,0-.89v-8.92c0-.38,0-.72,0-1.01,0-.29-.01-.55-.02-.78s-.02-.45-.04-.64c-.02-.19-.04-.38-.06-.56.32.04.68.07,1.07.09.39.02.85.04,1.38.06.53.02,1.14.03,1.85.04.7,0,1.53,0,2.48,0,1.11,0,2.04,0,2.8,0,.76,0,1.41-.02,1.94-.04s.96-.04,1.29-.06c.33-.02.62-.05.86-.09ZM648.92,29.21c.46-1.38.79-2.8,1.01-4.25.4.25.8.38,1.21.38.1,0,.16.04.18.12.02.08-.03.17-.16.26-.06.04-.11.1-.16.19-.05.09-.13.3-.24.62-.11.32-.27.8-.47,1.43s-.47,1.51-.82,2.62c.31.77.6,1.51.87,2.24.26.72.5,1.37.7,1.95l-1.08.49c-.13-.5-.29-1.03-.46-1.58-.17-.55-.36-1.11-.57-1.69-.25.59-.54,1.21-.87,1.86-.33.65-.64,1.21-.93,1.69-.35-.26-.75-.44-1.19-.52.48-.6.93-1.27,1.34-2.02.42-.75.8-1.54,1.14-2.4-.35-.91-.71-1.79-1.08-2.62-.37-.83-.73-1.55-1.08-2.15l.96-.5c.25.54.53,1.14.82,1.81.29.67.59,1.36.89,2.08ZM654.1,28.74c.43-1.23.79-2.45,1.06-3.68.42.24.79.38,1.12.41.13.02.21.07.22.14.02.07-.04.14-.17.23-.06.04-.13.13-.22.29-.08.16-.19.4-.32.72-.13.32-.28.74-.47,1.25-.19.51-.41,1.13-.66,1.87.41.89.78,1.75,1.13,2.59.34.84.62,1.57.82,2.19l-.99.43c-.23-.69-.46-1.34-.7-1.96-.24-.62-.49-1.24-.76-1.86-.12.29-.26.61-.41.96-.16.35-.32.7-.49,1.05-.17.35-.34.7-.51,1.05-.17.35-.34.67-.5.96-.17-.14-.34-.26-.52-.34-.18-.08-.37-.15-.56-.2.44-.62.87-1.34,1.29-2.15.41-.81.8-1.67,1.14-2.59-.31-.71-.64-1.41-.99-2.1s-.71-1.38-1.1-2.06l.87-.54c.55.97,1.12,2.1,1.71,3.37Z"/>
      <path d="M662.86,28.73c-.23.02-.46.06-.69.11-.23.05-.44.11-.6.18-.01-.22-.06-.45-.14-.69-.08-.25-.18-.45-.29-.6.18-.04.38-.16.59-.37.21-.21.43-.53.68-.96.24-.43.5-.97.78-1.64.28-.67.58-1.48.91-2.44.42.29.83.48,1.24.58.18.04.28.1.29.19.01.09-.07.17-.25.23-.1.04-.2.1-.3.19-.1.09-.24.29-.42.59-.18.31-.43.75-.74,1.34s-.73,1.39-1.24,2.4l2.54-.13c.3-.54.53-.99.7-1.35.17-.36.29-.66.36-.9.19.17.39.32.6.47.21.14.4.26.57.34.13.07.2.15.19.23,0,.08-.09.13-.26.15-.04.01-.08.04-.13.07-.05.04-.12.12-.22.24-.1.13-.23.31-.41.56-.17.25-.4.58-.68,1-.28.42-.62.94-1.03,1.57-.41.62-.9,1.38-1.48,2.27l3.41-.58c-.1.35-.11.68-.05.99l-3.15.49c-.77.11-1.33.25-1.68.41-.05-.43-.17-.82-.38-1.17.34-.1.62-.24.84-.44.22-.2.44-.45.64-.77.67-1.06,1.22-1.95,1.64-2.69l-1.84.13ZM667.49,35.59c-1.41.28-2.61.53-3.6.77-1,.24-1.74.44-2.22.61-.04-.25-.09-.49-.17-.7s-.2-.44-.35-.68c1.02-.05,2.02-.16,3.01-.32.98-.17,2.05-.41,3.21-.72-.01.31.03.66.13,1.05ZM669.31,26.42c-.17.29-.35.57-.56.86-.2.28-.44.58-.72.89-.11-.14-.23-.27-.37-.38-.14-.11-.32-.21-.55-.31.32-.28.64-.61.96-1.01.31-.4.6-.83.86-1.3.26-.47.49-.97.69-1.51.2-.53.37-1.08.49-1.63.24.13.45.23.63.29.18.06.37.1.56.11.13,0,.2.04.22.12s-.05.17-.18.26c-.21.12-.52.61-.94,1.46,1.01,0,1.85,0,2.53,0,.68,0,1.24-.01,1.69-.02.44,0,.79-.02,1.03-.03.24-.01.42-.03.52-.05-.17.42-.37.85-.61,1.28-.24.43-.5.86-.78,1.27s-.58.81-.88,1.18c-.31.37-.61.71-.91,1.01.72.5,1.47.93,2.25,1.27.78.34,1.57.6,2.36.77-.17.16-.32.35-.44.57-.13.22-.22.45-.28.69-1.07-.48-1.98-.93-2.72-1.34s-1.41-.83-1.98-1.25c-.59.48-1.28.93-2.06,1.35-.79.42-1.71.83-2.77,1.23-.1-.24-.19-.43-.29-.57-.1-.14-.25-.29-.45-.44,1.03-.28,1.93-.6,2.7-.98.77-.38,1.45-.8,2.05-1.25-.38-.36-.74-.75-1.07-1.15-.33-.41-.65-.87-.96-1.37ZM669.78,38.5h-1.15c.02-.2.04-.43.05-.69.01-.25.02-.57.02-.96v-3.23c0-.46,0-.79-.02-1.01-.01-.22-.03-.43-.05-.63.3.02.75.04,1.33.06s1.32.03,2.18.03,1.54,0,2.07-.03c.53-.02.95-.04,1.26-.06-.02.19-.04.41-.04.64,0,.23,0,.57,0,1v2.94c0,.7.02,1.24.05,1.64h-1.15v-.97h-4.54v1.26ZM669.98,25.16c-.04.06-.07.12-.1.19-.03.07-.06.13-.1.19.33.54.69,1.04,1.08,1.49.4.45.82.87,1.28,1.25.48-.43.92-.91,1.33-1.43.4-.52.74-1.08,1.02-1.69h-4.51ZM674.32,32.94h-4.54v3.37h4.54v-3.37Z"/>
    </g>
    <g>
      <path d="M715.6,142.39c0-1.49-.04-2.57-.12-3.22h.99c-.08.7-.12,1.78-.12,3.23h2.15c1.14,0,2.11-.07,2.91-.2-.11.36-.17.74-.17,1.16,0,.14-.04.21-.12.21s-.13-.04-.17-.11-.12-.12-.25-.16c-.13-.04-.27-.05-.42-.05h-.7s-3.23.01-3.23.01c0,1.5.04,2.5.12,3h-.99c.08-.49.12-1.5.12-3.02-.98-.02-1.75-.06-2.32-.12,0,1.78.04,2.99.12,3.64h-.98c.08-.83.12-2.07.12-3.72-1.02-.13-1.87-.4-2.56-.82-.69-.41-1.41-1.09-2.17-2.02.26-.22.48-.56.66-1.02.69,1.01,1.33,1.71,1.92,2.12.58.41,1.3.69,2.16.84,0-1.61-.04-2.77-.12-3.48h.98c-.08.79-.12,1.98-.12,3.57.66.08,1.43.13,2.32.14ZM721.4,150.14c-.06.23-.09.44-.1.62,0,.18,0,.35,0,.51s-.04.24-.13.24-.16-.06-.22-.17c-.06-.11-.19-.17-.4-.17h-11c-.5,0-.86-.04-1.07-.13-.22-.09-.38-.28-.47-.57s-.15-.79-.18-1.48c.46-.03.84-.19,1.16-.49-.1.5-.15.86-.15,1.09s.05.4.14.5c.09.11.32.16.67.16h9.26c1.04,0,1.87-.04,2.5-.12ZM719.83,147.51c-.08.22-.12.61-.12,1.14,0,.11-.03.17-.1.17s-.13-.05-.2-.16c-.07-.11-.2-.16-.4-.16h-5.26c-.73,0-1.54.04-2.43.11v-1.08c1.15.07,1.96.11,2.43.11h4.06c.89,0,1.57-.04,2.03-.12ZM720.27,145.67c-.27.33-.44.58-.5.78-.05.19-.13.29-.21.29s-.15-.06-.19-.17c-.04-.11-.21-.29-.5-.53-.3-.24-.93-.69-1.89-1.35.18-.22.33-.47.43-.73.93.76,1.88,1.33,2.87,1.71ZM720.13,139.71c-.57.64-1.34,1.32-2.3,2.03l-.58-.79c.71-.46,1.48-1.09,2.3-1.91l.58.67Z"/>
      <path d="M721.67,165.38c-.06.23-.09.44-.1.62,0,.18,0,.34,0,.5s-.04.23-.13.23-.16-.06-.22-.17c-.06-.11-.19-.17-.4-.17h-11.42c-.44,0-.76-.06-.98-.19-.22-.13-.38-.38-.47-.76-.1-.38-.16-.96-.19-1.74.44-.01.82-.14,1.16-.4-.1.49-.15.89-.15,1.21,0,.66.24.99.73.99h9.69c1.04,0,1.87-.04,2.5-.12ZM714.18,158.04c0,1.2.04,2.35.09,3.45l-4.38-.38c-.68-.05-1.12-.32-1.32-.81-.2-.49-.3-1.15-.3-1.98.4.04.77-.08,1.11-.37-.08.48-.12.89-.12,1.23s.07.6.21.79.43.3.87.33l3.13.24v-2.58c-1.14-.12-2.14-.42-3-.91-.86-.48-1.73-1.23-2.62-2.25.31-.24.51-.57.63-.98.78,1.12,1.53,1.92,2.25,2.4.72.48,1.63.79,2.74.91-.02-1.41-.05-2.42-.09-3h.88c-.06.39-.09,1.41-.09,3.08.35.03.67.05.98.05s.63-.04.98-.11c-.1.26-.15.65-.15,1.16,0,.1-.04.15-.12.15s-.15-.03-.2-.08-.22-.12-.51-.18c-.29-.07-.61-.12-.97-.16ZM719.69,162.67c-.08.22-.12.6-.12,1.13,0,.11-.03.17-.1.17s-.13-.05-.2-.16c-.07-.11-.2-.16-.4-.16h-4.77c-.49,0-1.3.04-2.42.11v-1.07c.89.07,1.7.11,2.42.11h3.57c.89,0,1.57-.04,2.03-.12ZM716.5,161.1c.04-.8.06-1.82.06-3.04s-.02-2.24-.06-3.04c.46.04,1.15.06,2.07.06s1.63-.02,2.11-.06c-.05.68-.08,1.62-.08,2.82s.03,2.29.08,3.26c-.72-.04-1.48-.06-2.29-.06s-1.43.02-1.89.06ZM717.28,160.19h2.59v-4.24h-2.59v4.24Z"/>
      <path d="M708.19,171.23h-.61v-1.04c.47.08,1.02.12,1.65.12h1.36c.28,0,.63-.01,1.07-.03-.18-.66-.28-1.02-.29-1.07.33-.12.6-.36.84-.7.56,2.86,1.33,4.68,2.3,5.46,0-1.88-.06-3.49-.15-4.82h1.01c-.08,1.15-.13,2.93-.15,5.35.5.28,1.11.46,1.85.52-.09.36-.17.73-.24,1.11-.02.1-.05.15-.1.15s-.1-.04-.16-.12c-.16-.22-.61-.47-1.34-.75v3.74c.45-.55.78-1.06,1.01-1.53l.58.44c-.27.62-.62,1.21-1.07,1.77l-.49-.43c0,1.23.04,2.16.12,2.79h-1.01c.08-1.26.13-2.94.15-5.03-.6.79-1.06,1.7-1.39,2.71-.33,1.01-.49,2.04-.48,3.07-.23-.25-.57-.46-1.01-.63l.24-1.1c-.36-.06-.75-.09-1.19-.09h-1.22c-.57,0-1.13.04-1.69.12v-1.02h.43v-2.87h-.59v-1.02c.47.08,1.02.12,1.65.12h1.43c.62,0,1.11-.02,1.46-.06-.05.7-.08,1.37-.08,2s0,1.27.03,1.92c.43-1.58,1.23-3,2.41-4.27v-1.01c-.98-.62-1.81-1.88-2.52-3.77l-.02,1.33c0,.89.03,1.69.08,2.38-.36-.08-.84-.12-1.46-.12h-1.19c-.66,0-1.22.04-1.69.11v-.98h.49v-2.78ZM708.91,174.01h2.41v-2.78h-2.41v2.78ZM708.91,180.25h2.5v-2.87h-2.5v2.87ZM716.7,174.74c.06-.77.09-1.6.09-2.47s-.03-1.61-.08-2.21c1.19.05,2.07.08,2.63.08s1.03-.03,1.41-.08c-.06.55-.09,1.28-.09,2.2s.03,1.74.09,2.49c-.4-.05-.81-.08-1.24-.08s-.96,0-1.61.03-1.05.04-1.21.05ZM716.78,181.24c.06-.59.09-1.41.09-2.46s-.03-1.8-.08-2.27c.74.05,1.48.08,2.22.08s1.32-.03,1.75-.08c-.05.45-.08,1.24-.08,2.38s.03,1.92.08,2.35c-.5-.05-1.16-.08-1.99-.08s-1.49.02-1.99.08ZM717.48,173.8h2.53v-2.79h-2.53v2.79ZM717.55,180.28h2.46v-2.81h-2.46v2.81Z"/>
      <path d="M691.78,158.04h10.95v2.27c0,1.56-.11,2.7-.34,3.42-.23.73-.59,1.36-1.08,1.88s-1.1.94-1.81,1.22c-.71.28-1.54.43-2.49.43s-1.85-.22-2.68-.66c-.84-.44-1.47-1.04-1.9-1.8-.43-.76-.64-1.85-.64-3.27v-3.49ZM692.81,159.09v1.27c0,1.32.07,2.28.2,2.88.13.59.39,1.12.79,1.56.39.45.87.79,1.43,1.02.56.23,1.2.35,1.92.35s1.39-.13,2-.4c.61-.27,1.11-.65,1.51-1.15s.66-1.08.8-1.76c.14-.68.21-1.67.21-2.98v-.78h-8.85Z"/>
    </g>
  </g>
  <g>
    <rect class="cls-15" x="92.62" y="315.1" width="33" height="94.5"/>
    <rect class="cls-2" x="92.62" y="315.1" width="33" height="94.5"/>
    <path d="M104.59,357.66l-.08.34c-.2.03-.36.1-.48.21s-.18.26-.18.46c0,.3.08.67.23,1.12l.58,1.69,1.29-1.63c.2-.25.36-.46.47-.62.11-.16.19-.3.24-.43.05-.12.07-.23.07-.32,0-.13-.04-.23-.11-.32-.07-.09-.2-.14-.38-.15l.08-.34h2.6l-.08.34c-.14.04-.27.11-.39.2-.12.09-.27.23-.44.42-.17.19-.48.55-.94,1.1l-2.08,2.48,1.02,2.83c.15.43.28.75.38.98.1.23.18.39.26.5.06.08.12.14.19.18.07.04.17.09.33.14l-.07.34h-2.82l.07-.34c.21-.03.38-.11.49-.22.11-.11.17-.26.17-.44,0-.27-.06-.58-.17-.91l-.72-2.13-1.59,1.99c-.24.3-.41.54-.52.73-.11.19-.16.35-.16.48,0,.18.04.31.13.37.09.07.21.11.37.13l-.08.34h-2.59l.07-.34c.14-.05.28-.11.39-.2.12-.09.27-.24.46-.45.19-.21.52-.6.99-1.15l2.21-2.63-1.03-2.86c-.17-.48-.31-.81-.4-.99-.1-.18-.19-.31-.29-.39-.1-.07-.22-.13-.37-.15l.08-.34h2.82Z"/>
    <path d="M109.83,361.88h1.48v7.54h-.75v-6.8h-1.19l.45-.74Z"/>
    <rect class="cls-16" x="160.87" y="315.1" width="31.5" height="94.5"/>
    <rect class="cls-5" x="160.87" y="315.1" width="31.5" height="94.5"/>
    <path d="M172.19,357.66l-.08.34c-.2.03-.36.1-.48.21-.12.1-.18.26-.18.46,0,.3.08.67.23,1.12l.58,1.69,1.29-1.63c.2-.25.36-.46.47-.62.11-.16.19-.3.24-.43.05-.12.07-.23.07-.32,0-.13-.04-.23-.11-.32-.07-.09-.2-.14-.38-.15l.08-.34h2.6l-.08.34c-.14.04-.27.11-.39.2-.12.09-.27.23-.44.42-.17.19-.48.55-.94,1.1l-2.08,2.48,1.02,2.83c.15.43.28.75.38.98.1.23.18.39.26.5.06.08.12.14.19.18.07.04.17.09.33.14l-.07.34h-2.82l.07-.34c.21-.03.38-.11.49-.22.11-.11.17-.26.17-.44,0-.27-.06-.58-.17-.91l-.72-2.13-1.59,1.99c-.24.3-.41.54-.52.73-.11.19-.16.35-.16.48,0,.18.04.31.13.37.09.07.21.11.37.13l-.08.34h-2.59l.07-.34c.14-.05.28-.11.39-.2.12-.09.27-.24.46-.45.19-.21.52-.6.99-1.15l2.21-2.63-1.03-2.86c-.17-.48-.31-.81-.4-.99-.1-.18-.19-.31-.29-.39-.1-.07-.22-.13-.37-.15l.08-.34h2.82Z"/>
    <path d="M177.03,364.24h-.72c.03-.77.29-1.39.77-1.85.48-.46,1.05-.7,1.73-.7s1.24.22,1.68.66c.44.44.67.97.67,1.6,0,.47-.12.9-.37,1.3-.25.4-.62.87-1.13,1.42l-1.88,2.03h3.49v.72h-5.12l2.88-3.11c.5-.55.86-.98,1.08-1.29.22-.32.33-.68.33-1.08s-.16-.76-.48-1.07c-.32-.31-.71-.46-1.19-.46s-.86.16-1.18.48-.49.77-.54,1.36Z"/>
    <path class="cls-17" d="M220.47,349.6l6,3-6,3v-6ZM192.37,351.85h29.1v1.5h-29.1v-1.5Z"/>
    <path class="cls-17" d="M282.72,349.6l6,3-6,3v-6ZM254.62,351.85h29.1v1.5h-29.1v-1.5Z"/>
    <path class="cls-17" d="M198.37,375.1l-6-3,6-3v6ZM221.37,371.35h4.5v1.5h-4.5v-1.5ZM215.37,371.35h4.5v1.5h-4.5v-1.5ZM209.37,371.35h4.5v1.5h-4.5v-1.5ZM203.37,371.35h4.5v1.5h-4.5v-1.5ZM197.37,371.35h4.5v1.5h-4.5v-1.5Z"/>
    <path class="cls-17" d="M260.62,375.1l-6-3,6-3v6ZM283.62,371.35h4.5v1.5h-4.5v-1.5ZM277.62,371.35h4.5v1.5h-4.5v-1.5ZM271.62,371.35h4.5v1.5h-4.5v-1.5ZM265.62,371.35h4.5v1.5h-4.5v-1.5ZM259.62,371.35h4.5v1.5h-4.5v-1.5Z"/>
    <rect class="cls-18" x="33.74" y="315.48" width="24" height="94.5"/>
    <rect class="cls-9" x="33.74" y="315.48" width="24" height="94.5"/>
    <path d="M41.64,359.21l-.06.27c-.16.03-.28.08-.38.16-.09.08-.14.2-.14.36,0,.23.06.53.18.89l.46,1.33,1.02-1.29c.16-.2.28-.36.37-.49.09-.13.15-.24.19-.34.04-.1.06-.18.06-.26,0-.1-.03-.18-.09-.25-.06-.07-.16-.11-.3-.12l.06-.27h2.05l-.06.27c-.11.03-.21.09-.31.16-.1.07-.21.18-.35.33-.13.15-.38.44-.75.87l-1.64,1.96.8,2.24c.12.34.22.6.3.77.08.18.14.31.2.39.05.06.1.11.15.15.05.03.14.07.26.11l-.06.27h-2.22l.06-.27c.17-.03.3-.08.39-.17.09-.09.13-.21.13-.35,0-.22-.04-.46-.13-.72l-.57-1.68-1.26,1.57c-.19.23-.32.43-.41.58-.08.15-.13.28-.13.38,0,.14.03.24.1.29.07.05.16.09.29.1l-.06.27h-2.05l.06-.27c.11-.04.22-.09.31-.16.09-.07.21-.19.36-.36.15-.17.41-.47.78-.91l1.75-2.08-.81-2.26c-.14-.38-.24-.64-.32-.78-.08-.14-.15-.25-.23-.31-.08-.06-.17-.1-.29-.12l.06-.27h2.22Z"/>
    <path d="M46.78,368.62c-.64,0-1.13-.26-1.48-.79-.35-.53-.52-1.3-.52-2.33s.17-1.8.52-2.33c.34-.53.83-.79,1.47-.79s1.14.27,1.51.81c.37.54.56,1.31.56,2.31s-.19,1.77-.56,2.31-.87.81-1.5.81ZM46.79,362.95c-.46,0-.81.22-1.07.66s-.38,1.08-.38,1.91c0,1.71.48,2.56,1.45,2.56.47,0,.83-.22,1.1-.67.26-.45.39-1.09.39-1.91s-.14-1.45-.41-1.9c-.27-.44-.63-.66-1.08-.66Z"/>
    <rect class="cls-11" x="290.62" y="315.1" width="23.25" height="94.5"/>
    <rect class="cls-7" x="290.62" y="315.1" width="23.25" height="94.5"/>
    <polygon points="305.49 367.16 299.65 367.16 299.65 366.59 304.39 360.04 300.01 360.04 300.01 359.4 305.26 359.4 305.26 359.96 300.52 366.54 305.49 366.54 305.49 367.16"/>
    <path class="cls-17" d="M86.22,349.6l6,3-6,3v-6ZM58.12,351.85h29.1v1.5h-29.1v-1.5Z"/>
    <path class="cls-17" d="M64.12,375.1l-6-3,6-3v6ZM87.12,371.35h4.5v1.5h-4.5v-1.5ZM81.12,371.35h4.5v1.5h-4.5v-1.5ZM75.12,371.35h4.5v1.5h-4.5v-1.5ZM69.12,371.35h4.5v1.5h-4.5v-1.5ZM63.12,371.35h4.5v1.5h-4.5v-1.5Z"/>
    <path class="cls-17" d="M153.72,349.6l6,3-6,3v-6ZM125.62,351.85h29.1v1.5h-29.1v-1.5Z"/>
    <path class="cls-17" d="M131.62,375.1l-6-3,6-3v6ZM154.62,371.35h4.5v1.5h-4.5v-1.5ZM148.62,371.35h4.5v1.5h-4.5v-1.5ZM142.62,371.35h4.5v1.5h-4.5v-1.5ZM136.62,371.35h4.5v1.5h-4.5v-1.5ZM130.62,371.35h4.5v1.5h-4.5v-1.5Z"/>
    <line class="cls-6" x1="230.62" y1="352.6" x2="250.16" y2="352.6"/>
    <line class="cls-6" x1="230.62" y1="372.85" x2="250.16" y2="372.85"/>
    <g>
      <path d="M139.16,265.88c-.56,0-1.1.02-1.61.04-.51.03-.92.07-1.23.12v-1.23c.31.05.72.08,1.23.11.51.02,1.05.04,1.61.04-.01-.97-.04-1.78-.08-2.41-.04-.63-.09-1.08-.15-1.36.32.06.59.1.78.11.2.01.38.01.55,0,.31-.01.48.02.51.1.03.08-.05.2-.24.35-.19.16-.29.39-.29.7v2.51c.5,0,.98-.01,1.41-.04.44-.02.8-.06,1.07-.11v1.23c-.28-.05-.63-.08-1.07-.11s-.91-.04-1.41-.04v3.44c.8-.36,1.54-.73,2.2-1.1-.05.37.03.76.23,1.15-.36.13-.75.28-1.16.45-.41.17-.84.35-1.27.54v5.12c0,.3-.03.56-.09.77-.06.22-.19.4-.4.56-.2.16-.5.28-.9.37s-.93.16-1.6.21c0-.31-.03-.56-.08-.76-.05-.19-.15-.41-.3-.65.52.06.93.08,1.23.07.31-.01.54-.06.69-.13s.26-.2.3-.36.06-.36.06-.6v-4.13c-.5.23-.99.45-1.45.66-.46.21-.87.4-1.23.57-.07-.48-.27-.93-.59-1.33.56-.13,1.12-.28,1.67-.43.55-.16,1.08-.34,1.61-.54v-3.89ZM152.22,265.59c-.5-.07-1.3-.11-2.4-.11h-5.26v4.7c0,.87-.04,1.64-.14,2.32-.09.68-.24,1.3-.46,1.87s-.5,1.1-.86,1.59c-.35.5-.79,1-1.31,1.51-.11-.17-.28-.34-.5-.5-.23-.17-.44-.29-.65-.36.56-.41,1.03-.83,1.41-1.27.37-.44.67-.93.88-1.47s.37-1.14.46-1.81c.09-.67.14-1.43.14-2.3,0-.35,0-.79-.02-1.32-.01-.53-.03-1.06-.04-1.59-.02-.53-.04-1.03-.06-1.48-.02-.45-.04-.78-.05-.98.24.02.5.05.77.07.27.02.58.04.92.05.34.01.74.02,1.18.03.44,0,.96,0,1.55,0,1.23,0,2.22-.01,2.99-.04.77-.03,1.26-.07,1.46-.12v1.21ZM147.74,264.4c-.07-.18-.17-.38-.31-.6-.13-.22-.28-.45-.44-.69-.16-.23-.34-.47-.53-.7s-.4-.46-.61-.68l1.01-.61c.35.38.69.81,1.04,1.29s.63.93.87,1.36l-1.03.63Z"/>
      <path d="M160.61,266.64c.36-.01.69-.03,1-.05.31-.02.63-.05.98-.09v.52c.53-.91.93-1.89,1.21-2.92.28-1.03.46-2.04.56-3.01.24.1.46.17.66.22.2.05.42.08.66.11.17.01.26.06.28.14.02.08-.06.19-.24.31-.11.08-.2.22-.29.4-.08.18-.17.44-.27.79-.14.54-.31,1.07-.49,1.59h3.95c.25,0,.47,0,.65,0,.18,0,.33-.01.44-.03.11-.01.22-.02.32-.04v1.03c-.12-.02-.32-.04-.59-.05-.28-.01-.59-.02-.94-.02-.08,1-.19,1.9-.31,2.72-.12.82-.26,1.56-.42,2.24-.16.67-.35,1.28-.57,1.83s-.47,1.05-.76,1.5c.94,1.15,2.25,2.02,3.95,2.61-.23.14-.41.29-.53.44-.13.15-.26.36-.41.64-1.51-.73-2.73-1.67-3.64-2.81-.42.54-.92,1.04-1.5,1.49-.58.45-1.24.9-2,1.36-.1-.24-.2-.41-.32-.52s-.32-.22-.61-.32c.83-.41,1.56-.84,2.19-1.29.63-.45,1.17-.98,1.63-1.59-.49-.8-.88-1.71-1.15-2.71s-.47-2.14-.58-3.4l1.05-.18c.02,1.09.14,2.08.35,2.96.21.88.53,1.69.95,2.41.48-.84.85-1.85,1.11-3.04s.44-2.63.53-4.33h-3.08c-.19.52-.39.99-.59,1.43-.2.44-.39.84-.59,1.22-.2-.13-.39-.22-.56-.27-.17-.05-.35-.08-.56-.09.02-.05.05-.09.09-.13s.07-.08.09-.12c-.19-.02-.41-.04-.64-.06-.23-.02-.51-.03-.82-.04-.31,0-.68-.01-1.09-.02s-.9,0-1.45,0-1.09,0-1.55,0c-.46,0-.86.02-1.22.03s-.67.03-.95.04c-.28.02-.53.04-.76.08v-1.1c.35.04.72.07,1.12.09.4.02.81.04,1.23.05v-2.11c-.34.01-.68.03-1.03.05-.35.02-.65.05-.9.09v-1.1c.25.04.55.07.9.09.35.02.69.04,1.03.05-.01-.64-.03-1.13-.05-1.47-.02-.34-.06-.62-.11-.82.52.05.99.07,1.41.05.3-.02.32.07.07.29-.19.16-.29.35-.29.58v1.39h2.45c0-.37,0-.69,0-.94,0-.25-.02-.47-.03-.65-.01-.18-.03-.33-.05-.44-.02-.11-.05-.22-.07-.32.5.05.97.07,1.39.05.3-.02.32.07.07.29-.19.18-.29.37-.29.58v1.42c.32-.01.66-.03,1-.06.34-.03.66-.06.95-.1v1.1c-.29-.05-.6-.08-.95-.11-.34-.02-.68-.04-1-.05v2.13ZM156.12,277.18h-1.21c.04-.41.06-.76.08-1.04.02-.29.03-.61.03-.96v-4.67c0-.38,0-.76,0-1.12,0-.36-.02-.64-.04-.83.22.04.6.06,1.16.08.56.02,1.31.03,2.26.03.56,0,1.03,0,1.41,0s.68-.01.92-.02c.24,0,.43-.02.57-.03s.26-.03.37-.05c-.04.58-.05,1.2-.05,1.87v5.14c0,.24-.03.45-.08.64-.05.19-.19.34-.4.48-.21.13-.52.24-.93.33-.41.09-.97.16-1.68.21.01-.49-.14-.91-.45-1.24.58-.01,1.03-.03,1.36-.05.33-.02.58-.07.75-.13.17-.06.27-.15.32-.26.04-.11.06-.27.06-.46v-1.3h-4.43v3.39ZM160.55,270.93v-1.48h-4.43v1.48h4.43ZM156.12,271.69v1.3h4.43v-1.3h-4.43ZM159.6,266.64v-2.13h-2.45v2.13h2.45Z"/>
      <path d="M175.98,265.03c.46,0,.88-.01,1.27-.04.39-.02.72-.06,1-.11v1.17c-.28-.05-.61-.08-1-.11-.39-.02-.81-.04-1.27-.04v1.53c.43.35.84.7,1.23,1.05s.77.72,1.15,1.11l-.92.78c-.2-.37-.43-.72-.68-1.05-.25-.32-.51-.61-.78-.87v5.8c0,.24,0,.5,0,.79,0,.29.02.59.03.89.01.31.03.61.04.9.02.29.04.56.06.8h-1.35c.05-.59.08-1.18.11-1.78s.04-1.13.04-1.61v-5.43c-.3.94-.64,1.81-1.01,2.61-.37.81-.76,1.51-1.17,2.13-.26-.38-.65-.63-1.15-.74.38-.4.75-.87,1.1-1.43.35-.56.67-1.15.96-1.78.29-.62.55-1.26.77-1.91.22-.65.38-1.26.49-1.82-.58,0-1.11.01-1.6.04-.49.02-.9.06-1.21.11v-1.17c.31.05.72.08,1.22.11.5.02,1.04.04,1.61.04,0-.97-.02-1.76-.04-2.37-.03-.61-.08-1.1-.14-1.47.23.06.47.1.72.13.25.02.48.04.69.04.18,0,.28.03.3.1.02.07-.04.18-.19.35-.18.22-.27.6-.27,1.15v2.07ZM183.59,273.11c.54.79,1.23,1.47,2.07,2.03.84.56,1.83,1.03,2.96,1.42-.18.11-.34.26-.47.45-.13.19-.25.39-.34.59-.47-.23-.93-.49-1.4-.79-.46-.3-.9-.62-1.32-.96-.42-.34-.81-.69-1.15-1.05-.35-.37-.64-.74-.88-1.13-.17.48-.39.91-.67,1.3-.28.38-.62.74-1.04,1.06s-.9.63-1.46.92c-.56.29-1.2.57-1.92.83-.1-.26-.21-.47-.34-.61s-.32-.29-.56-.43c1.48-.34,2.63-.79,3.45-1.36.82-.57,1.39-1.32,1.7-2.26-.59,0-1.1,0-1.54,0-.44,0-.83.02-1.17.03s-.66.03-.94.05c-.28.02-.56.05-.84.09v-1.17c.26.04.54.06.82.08.28.02.6.04.96.05.36.02.77.03,1.23.04.46,0,1.01,0,1.65,0,.08-.47.12-.97.11-1.5h-1.08c-.32,0-.62,0-.89,0s-.53.01-.77.02-.47.02-.7.03c.02-.43.04-.86.05-1.28.01-.42.02-.9.02-1.44v-.77c0-.22,0-.43,0-.62,0-.19-.02-.38-.03-.56-.01-.18-.02-.37-.04-.58.37.02.77.04,1.18.06.42.02.9.03,1.47.03h3.05c.5,0,.94,0,1.32-.03.37-.02.73-.04,1.08-.06-.01.36-.02.72-.03,1.09,0,.37,0,.84,0,1.43,0,.54,0,1.02,0,1.44,0,.42.02.85.03,1.3-.24-.01-.48-.02-.73-.04-.25-.01-.51-.02-.79-.03s-.6,0-.95,0h-1.19c-.01.28-.03.54-.05.78s-.04.48-.08.72c.71,0,1.33,0,1.85,0,.52,0,.99-.01,1.4-.03.41-.01.77-.03,1.08-.05.31-.02.61-.05.88-.09v1.17c-.25-.04-.53-.06-.83-.08-.3-.02-.65-.04-1.05-.05-.4-.02-.85-.03-1.36-.04s-1.1,0-1.76,0ZM185.35,263.03c.58,0,1.11-.01,1.6-.04.49-.02.9-.06,1.25-.11v1.14c-.35-.05-.77-.08-1.25-.11-.49-.02-1.02-.04-1.6-.04v1.33h-1.05v-1.33h-2.52v1.35h-.99v-1.35c-.56,0-1.06.01-1.5.04-.43.02-.82.06-1.17.11v-1.14c.35.05.74.08,1.17.11.43.02.93.04,1.5.04-.01-.42-.03-.77-.04-1.05s-.04-.53-.06-.73c.24.04.45.06.62.08s.38.03.6.03c.11,0,.17.04.19.11.02.07-.02.14-.12.2-.06.04-.11.11-.14.23-.04.11-.05.23-.05.33v.81h2.52c0-.44,0-.79-.02-1.03-.01-.24-.04-.49-.09-.74.24.04.46.06.65.08s.4.03.63.03c.11,0,.17.03.19.08s-.02.11-.12.17c-.07.05-.12.13-.15.23-.03.11-.04.22-.04.32v.85ZM186.11,267.85v-1.33h-6v1.33h6ZM180.11,268.68v1.32h6v-1.32h-6Z"/>
      <path d="M197.63,273.43c-.66,0-1.26,0-1.78.02-.53.01-1.01.03-1.44.04-.43.02-.82.04-1.17.06-.35.02-.68.05-.99.07v-1.21c.31.02.64.05.99.07.35.02.74.04,1.17.06.43.02.91.03,1.44.04s1.12.02,1.78.02c-.01-.53-.03-.93-.04-1.22s-.05-.53-.08-.75c.28.04.52.06.74.08.22.02.43.03.63.03s.31.04.32.12c0,.08-.08.18-.24.32-.07.06-.13.15-.17.26s-.06.24-.06.37v.79c.69,0,1.3,0,1.86,0,.55,0,1.05-.02,1.5-.04.44-.02.85-.04,1.21-.06.36-.02.7-.05,1.01-.09v1.21c-.64-.06-1.42-.11-2.33-.14-.92-.04-2-.05-3.24-.05v2.38c.84,0,1.6,0,2.29-.02s1.32-.03,1.9-.04c.58-.02,1.12-.04,1.62-.07.5-.03.98-.06,1.45-.1v1.32c-.49-.04-1.01-.07-1.54-.09-.53-.02-1.11-.04-1.73-.06-.62-.02-1.3-.03-2.06-.04s-1.59-.02-2.51-.02-1.76,0-2.51.02-1.44.03-2.05.04c-.62.02-1.2.04-1.73.06-.54.02-1.05.05-1.54.09v-1.32c.47.04.96.07,1.46.1.5.03,1.05.05,1.64.07.59.02,1.23.03,1.92.04s1.46.02,2.32.02v-2.38ZM193.59,263.21c-.42.02-.8.05-1.14.06-.34.02-.65.04-.93.06v-1.03c.49.05,1.07.08,1.73.11.66.02,1.45.04,2.36.04s1.72-.01,2.37-.04c.65-.02,1.23-.06,1.72-.11v1.03c-.53-.06-1.15-.1-1.87-.11v2.87c.3,0,.56,0,.77-.02.22-.01.41-.02.6-.03.18,0,.35-.02.51-.03.16-.01.34-.03.53-.05v1.08c-.19-.02-.37-.04-.53-.05-.16-.01-.33-.02-.51-.04-.18-.01-.38-.02-.6-.03-.22,0-.47,0-.77,0,0,.42,0,.79,0,1.11,0,.32.02.61.03.87.01.26.03.51.04.75s.04.49.08.76h-1.32c.04-.26.06-.52.08-.77s.03-.5.04-.76c.01-.26.02-.54.03-.86s0-.68,0-1.1h-2.38c-.06.52-.15.98-.27,1.39-.12.41-.28.79-.47,1.14s-.42.68-.68,1c-.26.32-.58.65-.94.98-.31-.32-.7-.58-1.15-.76.36-.23.68-.46.96-.69.28-.23.52-.5.73-.78.21-.29.38-.62.51-.98.13-.37.23-.79.31-1.27-.53,0-1,0-1.42.03-.41.02-.8.04-1.16.08v-1.08c.2.02.39.04.57.05.17.01.36.02.56.03.2,0,.42.02.67.03.25.01.54.02.89.02.04-.4.06-.83.06-1.31,0-.47,0-1-.03-1.58ZM196.84,263.21c-.35,0-.72,0-1.13,0-.4,0-.78,0-1.15,0,.02.58.03,1.1.03,1.58,0,.47-.02.92-.05,1.32h2.29v-2.88ZM202.12,263.09c-.13.08-.2.25-.2.49v2.88c0,.35.01.76.04,1.23.02.48.05.92.09,1.34h-1.19c.02-.22.04-.42.06-.6.02-.19.03-.38.04-.58,0-.2.01-.41.02-.63,0-.22,0-.48,0-.77v-1.86c0-.46-.01-.84-.04-1.16s-.06-.6-.11-.84c.24.06.45.1.63.13s.37.03.56.02c.16-.02.24,0,.26.09.02.08-.04.17-.17.25ZM205.2,261.93c-.16.08-.23.25-.23.49v6.89c0,.34-.03.62-.08.86-.05.23-.17.43-.35.58-.18.15-.44.26-.78.34-.34.08-.81.12-1.4.14.02-.24.01-.45-.04-.63-.05-.18-.17-.38-.38-.61.43.08.78.13,1.05.14.26.01.47-.01.61-.08s.24-.17.29-.31c.05-.14.07-.32.07-.53v-4.83c0-.64-.02-1.23-.04-1.77-.03-.54-.06-.94-.1-1.19.24.06.45.1.63.13.18.02.38.02.61,0,.17-.01.27.03.3.14.03.1-.02.19-.15.26Z"/>
    </g>
  </g>
  <g>
    <rect class="cls-4" x="10.87" y="9.85" width="835.5" height="438"/>
    <line class="cls-8" x1="846.57" y1="238.6" x2="10.87" y2="238.6"/>
    <line class="cls-8" x1="399.37" y1="9.85" x2="399.37" y2="447.8"/>
  </g>
  <g>
    <rect class="cls-18" x="420.75" y="315.48" width="23.25" height="93.75"/>
    <rect class="cls-9" x="420.75" y="315.48" width="23.25" height="93.75"/>
    <polygon points="435.41 367.64 432.42 363.14 429.42 367.64 428.39 367.64 431.9 362.48 428.68 357.83 429.71 357.83 432.44 361.88 435.13 357.83 436.16 357.83 433.01 362.48 436.45 367.64 435.41 367.64"/>
    <path class="cls-17" d="M480.72,348.85l6,3-6,3v-6ZM452.62,351.1h29.1v1.5h-29.1v-1.5Z"/>
    <path class="cls-17" d="M485.97,359.35l6,3-6,3v-6ZM457.87,361.6h29.1v1.5h-29.1v-1.5Z"/>
    <path class="cls-17" d="M492.72,372.1l6,3-6,3v-6ZM464.62,374.35h29.1v1.5h-29.1v-1.5Z"/>
    <rect class="cls-15" x="499.87" y="338.35" width="72" height="45" rx="7.5" ry="7.5"/>
    <rect class="cls-1" x="499.87" y="338.35" width="72" height="45" rx="7.5" ry="7.5"/>
    <path d="M520.11,367.3c-.27,1.27-.68,2.22-1.24,2.85-.56.62-1.26.94-2.1.94-.25,0-.44-.01-.58-.04l.15-.77c.06.02.2.03.41.03.26,0,.49-.07.68-.2.19-.14.36-.37.52-.7.16-.33.31-.8.44-1.39l1.89-8.37h-1.49l.13-.61c.39-.02.68-.06.85-.1.17-.04.31-.1.4-.18.1-.08.18-.19.25-.32.07-.13.15-.37.26-.73.31-1.06.79-1.85,1.44-2.38.65-.53,1.47-.8,2.48-.8.58,0,1.07.05,1.49.14l-.34,1.5h-.77c-.08-.33-.19-.57-.32-.72-.13-.15-.33-.22-.59-.22-.33,0-.62.09-.85.28-.23.18-.43.46-.59.82-.16.36-.32.85-.46,1.47l-.22.96h2.26l-.19.89h-2.27l-1.64,7.67Z"/>
    <path d="M530.84,352.03h1.44c-.61,1.25-1.08,2.66-1.42,4.24-.33,1.57-.5,3.16-.5,4.76,0,3.14.49,5.89,1.48,8.27h-1.37c-.95-2.33-1.42-5.03-1.42-8.11,0-3.33.6-6.38,1.79-9.16Z"/>
    <path d="M538.41,363.17c-.09-.46-.18-.91-.27-1.34-.09-.43-.19-.83-.29-1.2-.1-.37-.18-.61-.25-.73-.06-.11-.13-.19-.21-.24-.07-.04-.17-.07-.28-.07-.12,0-.23.03-.33.08-.1.06-.21.15-.33.29-.12.14-.27.35-.47.65l-.57-.38c.37-.56.72-.97,1.07-1.25.34-.28.74-.41,1.21-.41.18,0,.34.02.48.06.14.04.26.1.37.19.11.09.2.2.28.33.08.14.16.32.24.55.08.23.15.52.22.86.07.34.13.7.18,1.07h.09c.56-.79.99-1.37,1.28-1.74.29-.37.54-.64.73-.82.2-.18.39-.31.58-.38.18-.07.43-.11.73-.11.28,0,.5.04.68.11l-.35,1.59h-.62c-.04-.25-.14-.37-.31-.37-.05,0-.11,0-.17.03-.06.02-.13.06-.22.11-.09.06-.21.17-.37.34-.16.17-.35.38-.55.62-.21.25-.42.5-.63.77l-.6.75c.11.56.21,1.05.3,1.46.09.41.18.75.25,1.03.07.27.14.49.19.65.06.16.12.28.18.36.06.08.13.14.2.17.07.03.15.05.23.05.16,0,.31-.06.46-.18.15-.12.37-.4.65-.84l.57.38c-.41.61-.78,1.04-1.11,1.29-.33.25-.73.37-1.18.37-.25,0-.47-.05-.64-.14-.18-.09-.33-.24-.46-.44-.13-.2-.24-.51-.34-.93-.18-.75-.29-1.33-.33-1.73h-.09c-.62.87-1.08,1.5-1.39,1.88-.3.38-.55.66-.75.84-.2.18-.39.31-.57.38s-.43.11-.73.11c-.28,0-.5-.04-.68-.11l.35-1.59h.62c.04.25.14.37.31.37.08,0,.17-.02.26-.07.09-.04.22-.15.39-.32.17-.17.4-.43.7-.79.3-.36.73-.89,1.3-1.61Z"/>
    <path d="M546.91,352.03c1.19,2.78,1.78,5.83,1.78,9.16,0,3.08-.47,5.78-1.42,8.11h-1.37c.99-2.38,1.48-5.14,1.48-8.27,0-1.6-.17-3.18-.5-4.76-.33-1.57-.8-2.99-1.42-4.24h1.44Z"/>
    <path class="cls-17" d="M603.72,359.35l6,3-6,3v-6ZM575.62,361.6h29.1v1.5h-29.1v-1.5Z"/>
    <rect class="cls-11" x="614.62" y="315.1" width="24" height="94.5"/>
    <rect class="cls-7" x="614.62" y="315.1" width="24" height="94.5"/>
    <polygon points="630.06 367.16 624.22 367.16 624.22 366.59 628.96 360.04 624.58 360.04 624.58 359.4 629.83 359.4 629.83 359.96 625.09 366.54 630.06 366.54 630.06 367.16"/>
    <rect class="cls-15" x="681.37" y="338.35" width="72" height="45" rx="7.5" ry="7.5"/>
    <rect class="cls-1" x="681.37" y="338.35" width="72" height="45" rx="7.5" ry="7.5"/>
    <path d="M692.11,368.05c-.27,1.27-.68,2.22-1.24,2.85-.56.62-1.26.94-2.1.94-.25,0-.44-.01-.58-.04l.15-.77c.06.02.2.03.41.03.26,0,.49-.07.68-.2.19-.14.36-.37.52-.7.16-.33.31-.8.44-1.39l1.89-8.37h-1.49l.13-.61c.39-.02.68-.06.85-.1.17-.04.31-.1.4-.18.1-.08.18-.19.25-.32.07-.13.15-.37.26-.73.31-1.06.79-1.85,1.44-2.38.65-.53,1.47-.8,2.48-.8.58,0,1.07.05,1.49.14l-.34,1.5h-.77c-.08-.33-.19-.57-.32-.72-.13-.15-.33-.22-.59-.22-.33,0-.62.09-.85.28-.23.18-.43.46-.59.82-.16.36-.32.85-.46,1.47l-.22.96h2.26l-.19.89h-2.27l-1.64,7.67Z"/>
    <path d="M700.04,355.17h6.68v.91h-6.68v-.91Z"/>
    <path d="M711.29,350.78h1.91v9.71h-.96v-8.76h-1.53l.58-.95Z"/>
    <path d="M721.29,352.78h1.44c-.61,1.25-1.08,2.66-1.42,4.24-.33,1.57-.5,3.16-.5,4.76,0,3.14.49,5.89,1.48,8.27h-1.37c-.95-2.33-1.42-5.03-1.42-8.11,0-3.33.6-6.38,1.79-9.16Z"/>
    <path d="M728.86,363.92c-.09-.46-.18-.91-.27-1.34-.09-.43-.19-.83-.29-1.2-.1-.37-.18-.61-.25-.73-.06-.11-.13-.19-.21-.24-.07-.04-.17-.07-.28-.07-.12,0-.23.03-.33.08-.1.06-.21.15-.33.29-.12.14-.27.35-.47.65l-.57-.38c.37-.56.72-.97,1.07-1.25.34-.28.74-.41,1.21-.41.18,0,.34.02.48.06.14.04.26.1.37.19.11.09.2.2.28.33.08.14.16.32.24.55.08.23.15.52.22.86.07.34.13.7.18,1.07h.09c.56-.79.99-1.37,1.28-1.74.29-.37.54-.64.73-.82.2-.18.39-.31.58-.38.18-.07.43-.11.73-.11.28,0,.5.04.68.11l-.35,1.59h-.62c-.04-.25-.14-.37-.31-.37-.05,0-.11,0-.17.03-.06.02-.13.06-.22.11-.09.06-.21.17-.37.34-.16.17-.35.38-.55.62-.21.25-.42.5-.63.77l-.6.75c.11.56.21,1.05.3,1.46.09.41.18.75.25,1.03.07.27.14.49.19.65.06.16.12.28.18.36.06.08.13.14.2.17.07.03.15.05.23.05.16,0,.31-.06.46-.18.15-.12.37-.4.65-.84l.57.38c-.41.61-.78,1.04-1.11,1.29-.33.25-.73.37-1.18.37-.25,0-.47-.05-.64-.14-.18-.09-.33-.24-.46-.44-.13-.2-.24-.51-.34-.93-.18-.75-.29-1.33-.33-1.73h-.09c-.62.87-1.08,1.5-1.39,1.88-.3.38-.55.66-.75.84-.2.18-.39.31-.57.38s-.43.11-.73.11c-.28,0-.5-.04-.68-.11l.35-1.59h.62c.04.25.14.37.31.37.08,0,.17-.02.26-.07.09-.04.22-.15.39-.32.17-.17.4-.43.7-.79.3-.36.73-.89,1.3-1.61Z"/>
    <path d="M737.37,352.78c1.19,2.78,1.78,5.83,1.78,9.16,0,3.08-.47,5.78-1.42,8.11h-1.37c.99-2.38,1.48-5.14,1.48-8.27,0-1.6-.17-3.18-.5-4.76-.33-1.57-.8-2.99-1.42-4.24h1.44Z"/>
    <path class="cls-17" d="M673.47,359.35l6,3-6,3v-6ZM645.37,361.6h29.1v1.5h-29.1v-1.5Z"/>
    <path class="cls-17" d="M785.97,348.85l6,3-6,3v-6ZM757.87,351.1h29.1v1.5h-29.1v-1.5Z"/>
    <path class="cls-17" d="M791.22,359.35l6,3-6,3v-6ZM763.12,361.6h29.1v1.5h-29.1v-1.5Z"/>
    <path class="cls-17" d="M797.97,372.1l6,3-6,3v-6ZM769.87,374.35h29.1v1.5h-29.1v-1.5Z"/>
    <rect class="cls-18" x="807.75" y="315.48" width="24" height="93.75"/>
    <rect class="cls-9" x="807.75" y="315.48" width="24" height="93.75"/>
    <polygon points="822.89 367.64 819.9 363.14 816.9 367.64 815.87 367.64 819.38 362.48 816.16 357.83 817.19 357.83 819.92 361.88 822.61 357.83 823.64 357.83 820.49 362.48 823.93 367.64 822.89 367.64"/>
    <g>
      <path d="M591.56,270.9c-.21.35-.44.77-.69,1.25-.26.49-.53,1.01-.81,1.57s-.56,1.14-.85,1.74-.56,1.2-.82,1.79c-.4-.37-.8-.64-1.23-.81.32-.43.65-.9.97-1.41.32-.5.63-1.03.93-1.57.29-.54.57-1.08.83-1.63.26-.55.48-1.08.68-1.61.17.21.32.35.45.43.13.08.31.17.54.25ZM590.41,269.19c-.46-.43-.96-.83-1.51-1.19s-1.1-.66-1.64-.88l.59-.92c.5.25,1.04.55,1.6.9s1.13.75,1.7,1.19l-.74.9ZM591.11,264.73c-.24-.2-.47-.39-.7-.56s-.47-.33-.72-.5c-.25-.16-.52-.32-.81-.49-.29-.16-.61-.34-.96-.53l.59-.88c.62.35,1.21.69,1.77,1.03s1.06.68,1.53,1.03l-.7.9ZM594.89,270.38c-.06.06-.11.21-.14.43-.04.23-.07.6-.09,1.12-.04.75-.1,1.38-.2,1.91-.1.53-.26,1.01-.5,1.43-.23.43-.55.82-.96,1.19-.4.37-.92.75-1.56,1.16-.17-.22-.34-.38-.51-.5-.17-.12-.39-.23-.66-.32.77-.31,1.39-.66,1.86-1.04.47-.38.82-.83,1.05-1.37.23-.53.37-1.17.42-1.89.04-.73.03-1.59-.05-2.6.17.02.37.04.61.06.24.02.43.02.58,0,.16-.01.25.02.29.1s-.01.18-.14.32ZM599.98,267.69c-.28-.34-.55-.64-.82-.92-.27-.28-.53-.52-.78-.74l.79-.63c.26.24.54.52.84.83.29.31.59.63.87.96.29.33.57.67.84,1.01.27.34.51.66.73.96l-.94.67c-.14-.24-.29-.47-.44-.69s-.3-.44-.46-.66c-1.44.08-2.64.16-3.6.22-.96.06-1.75.11-2.35.16s-1.07.1-1.4.15c-.33.05-.57.11-.72.17-.05-.17-.1-.34-.16-.5-.06-.17-.14-.36-.23-.58.2-.07.42-.2.63-.38.22-.18.43-.4.63-.67.28-.36.51-.67.71-.94s.37-.51.51-.73c.14-.22.27-.43.38-.62.11-.19.21-.39.31-.59-.66,0-1.28.01-1.85.04-.57.02-1.04.05-1.4.09v-1.12c.5.05,1.17.08,2,.11s1.71.04,2.63.04c-.2-.32-.41-.63-.61-.91-.2-.28-.46-.6-.77-.96l.92-.63c.19.28.36.52.51.74s.29.42.42.61c.13.19.24.38.35.56.11.18.22.38.34.6.48,0,.97,0,1.47,0,.5,0,.97-.01,1.42-.03.45-.01.87-.03,1.24-.04.38-.02.69-.04.95-.06v1.12c-.31-.02-.66-.04-1.04-.06s-.82-.03-1.32-.04c-.5-.01-1.08-.02-1.74-.03-.66,0-1.43,0-2.31,0-.12.14-.24.3-.37.47-.13.17-.28.39-.47.66-.19.27-.42.62-.69,1.04-.28.42-.63.96-1.06,1.6l6.04-.23ZM597.53,270.29c-.06.05-.09.13-.1.25,0,.12,0,.32,0,.59v4.09c0,.24.02.54.04.89.03.35.07.67.12.95h-1.28c.02-.24.05-.55.07-.92.02-.37.04-.68.04-.92v-3.86c0-.78-.05-1.3-.14-1.57.26.06.48.1.64.11.16.01.33,0,.51-.02.12-.01.19.03.22.13.02.1-.01.19-.11.27ZM603.44,274.68c-.08.56-.18,1.01-.3,1.34-.11.33-.26.58-.45.76-.19.17-.42.29-.69.33-.28.05-.61.07-1.01.07-.36,0-.66-.03-.88-.08-.23-.05-.41-.15-.53-.29-.13-.14-.21-.32-.25-.56-.04-.23-.06-.53-.06-.89v-4.09c0-.35-.01-.64-.04-.88s-.07-.45-.13-.63c.19.06.38.1.55.12.17.02.38.01.6,0,.22-.02.34,0,.38.1s-.01.19-.14.3c-.1.08-.16.22-.2.41s-.05.47-.05.86v3.93c0,.23.06.42.19.57.13.15.33.22.62.21.23-.01.42-.04.57-.09.15-.05.27-.14.37-.29.1-.14.17-.35.21-.62.04-.27.07-.63.08-1.07.13.17.29.29.46.37s.41.13.71.15Z"/>
      <path d="M609.19,265c.46,0,.88-.01,1.27-.04.39-.02.72-.06,1-.11v1.17c-.28-.05-.61-.08-1-.11-.39-.02-.81-.04-1.27-.04v1.53c.43.35.84.7,1.23,1.05s.77.72,1.15,1.11l-.92.78c-.2-.37-.43-.72-.68-1.05-.25-.32-.51-.61-.78-.87v5.8c0,.24,0,.5,0,.79,0,.29.02.59.03.89.01.31.03.61.04.9.02.29.04.56.06.8h-1.35c.05-.59.08-1.18.11-1.78s.04-1.13.04-1.61v-5.43c-.3.94-.64,1.81-1.01,2.61-.37.81-.76,1.51-1.17,2.13-.26-.38-.65-.63-1.15-.74.38-.4.75-.87,1.1-1.43s.67-1.15.96-1.78c.29-.62.55-1.26.77-1.91.22-.65.38-1.26.49-1.82-.58,0-1.11.01-1.6.04-.49.02-.9.06-1.21.11v-1.17c.31.05.72.08,1.22.11.5.02,1.04.04,1.61.04,0-.97-.02-1.76-.04-2.37-.03-.61-.08-1.1-.14-1.47.23.06.47.1.72.13.25.02.48.04.68.04.18,0,.28.03.3.1.02.07-.04.18-.19.35-.18.22-.27.6-.27,1.15v2.07ZM616.79,273.08c.54.79,1.23,1.47,2.07,2.03.84.56,1.83,1.03,2.96,1.42-.18.11-.34.26-.47.45-.13.19-.25.39-.34.59-.47-.23-.93-.49-1.4-.79-.46-.3-.9-.62-1.33-.96-.42-.34-.8-.69-1.15-1.05-.35-.37-.64-.74-.88-1.13-.17.48-.39.91-.67,1.3s-.62.74-1.04,1.06c-.41.32-.9.63-1.46.92-.56.29-1.2.57-1.92.83-.1-.26-.21-.47-.34-.61-.13-.14-.32-.29-.56-.43,1.48-.34,2.63-.79,3.45-1.36.82-.57,1.39-1.32,1.7-2.26-.59,0-1.1,0-1.54,0s-.83.02-1.17.03c-.34.01-.65.03-.94.05-.28.02-.56.05-.84.09v-1.17c.26.04.54.06.82.08.28.02.6.04.96.05.36.02.77.03,1.23.04s1.01,0,1.65,0c.08-.47.12-.97.11-1.5h-1.08c-.32,0-.62,0-.89,0-.27,0-.53.01-.77.02s-.47.02-.7.03c.02-.43.04-.86.05-1.28.01-.42.02-.9.02-1.44v-.77c0-.22,0-.43,0-.62,0-.19-.02-.38-.03-.56-.01-.18-.02-.37-.04-.58.37.02.77.04,1.18.06.42.02.9.03,1.47.03h3.05c.5,0,.94,0,1.32-.03.37-.02.73-.04,1.08-.06-.01.36-.02.72-.03,1.09,0,.37,0,.84,0,1.43,0,.54,0,1.02,0,1.44,0,.42.01.85.03,1.3-.24-.01-.48-.02-.73-.04-.25-.01-.51-.02-.79-.03s-.6,0-.95,0h-1.19c-.01.28-.03.54-.04.78-.02.24-.04.48-.08.72.71,0,1.32,0,1.85,0,.52,0,.99-.01,1.4-.03.41-.01.77-.03,1.08-.05.31-.02.61-.05.88-.09v1.17c-.25-.04-.53-.06-.83-.08-.3-.02-.65-.04-1.05-.05-.4-.02-.85-.03-1.36-.04s-1.1,0-1.76,0ZM618.56,263c.58,0,1.11-.01,1.59-.04.49-.02.9-.06,1.25-.11v1.14c-.35-.05-.77-.08-1.25-.11-.49-.02-1.02-.04-1.59-.04v1.33h-1.05v-1.33h-2.52v1.35h-.99v-1.35c-.56,0-1.06.01-1.5.04-.43.02-.82.06-1.17.11v-1.14c.35.05.74.08,1.17.11.43.02.93.04,1.5.04-.01-.42-.03-.77-.04-1.05-.02-.28-.04-.53-.06-.73.24.04.45.06.62.08s.38.03.6.03c.11,0,.17.04.19.11.02.07-.02.14-.12.2-.06.04-.11.11-.14.23s-.05.23-.05.33v.81h2.52c0-.44,0-.79-.02-1.03-.01-.24-.04-.49-.09-.74.24.04.46.06.65.08s.4.03.63.03c.11,0,.17.03.19.08s-.02.11-.12.17c-.07.05-.12.13-.15.23-.03.11-.04.22-.04.32v.85ZM619.32,267.82v-1.33h-6v1.33h6ZM613.32,268.65v1.32h6v-1.32h-6Z"/>
      <path d="M630.82,273.4c-.66,0-1.26,0-1.78.02-.53.01-1.01.03-1.44.04-.43.02-.82.04-1.17.06-.35.02-.68.05-.99.07v-1.21c.31.02.64.05.99.07.35.02.74.04,1.17.06.43.02.91.03,1.44.04.53.01,1.12.02,1.78.02-.01-.53-.03-.93-.04-1.22-.02-.28-.04-.53-.08-.75.28.04.52.06.74.08.22.02.43.03.63.03s.31.04.32.12c0,.08-.08.18-.24.32-.07.06-.13.15-.17.26s-.06.24-.06.37v.79c.69,0,1.3,0,1.86,0,.55,0,1.05-.02,1.5-.04.44-.02.85-.04,1.21-.06s.7-.05,1.01-.09v1.21c-.64-.06-1.42-.11-2.33-.14-.92-.04-2-.05-3.24-.05v2.38c.84,0,1.6,0,2.29-.02.68-.01,1.32-.03,1.9-.04.58-.02,1.12-.04,1.62-.07.5-.03.98-.06,1.45-.1v1.32c-.49-.04-1.01-.07-1.54-.09-.54-.02-1.11-.04-1.73-.06-.62-.02-1.3-.03-2.05-.04-.75-.01-1.59-.02-2.51-.02s-1.76,0-2.51.02-1.44.03-2.05.04c-.62.02-1.2.04-1.73.06-.54.02-1.05.05-1.54.09v-1.32c.47.04.96.07,1.46.1.5.03,1.05.05,1.64.07.59.02,1.23.03,1.92.04s1.46.02,2.32.02v-2.38ZM626.78,263.18c-.42.02-.8.05-1.14.06-.34.02-.65.04-.93.06v-1.03c.49.05,1.07.08,1.73.11.66.02,1.45.04,2.36.04s1.71-.01,2.37-.04c.65-.02,1.23-.06,1.72-.11v1.03c-.53-.06-1.15-.1-1.88-.11v2.87c.3,0,.56,0,.78-.02.22-.01.41-.02.59-.03.18,0,.35-.02.51-.03.16-.01.34-.03.53-.05v1.08c-.19-.02-.37-.04-.53-.05s-.33-.02-.51-.04c-.18-.01-.38-.02-.59-.03-.22,0-.48,0-.78,0,0,.42,0,.79,0,1.11s.02.61.03.87c.01.26.03.51.04.75.02.24.04.49.08.76h-1.32c.04-.26.06-.52.08-.77.02-.25.03-.5.04-.76.01-.26.02-.54.03-.86,0-.31,0-.68,0-1.1h-2.38c-.06.52-.15.98-.27,1.39-.12.41-.28.79-.47,1.14-.19.35-.42.68-.69,1-.26.32-.58.65-.94.98-.31-.32-.7-.58-1.15-.76.36-.23.68-.46.96-.69.28-.23.52-.5.73-.78.21-.29.38-.62.51-.98.13-.37.23-.79.31-1.27-.53,0-1,0-1.42.03-.42.02-.8.04-1.16.08v-1.08c.2.02.39.04.57.05.17.01.36.02.56.03.2,0,.42.02.67.03.25.01.54.02.89.02.04-.4.06-.83.06-1.31,0-.47,0-1-.03-1.58ZM630.02,263.18c-.35,0-.72,0-1.13,0-.4,0-.78,0-1.14,0,.02.58.03,1.1.03,1.58s-.02.92-.04,1.32h2.29v-2.88ZM635.31,263.06c-.13.08-.2.25-.2.49v2.88c0,.35.01.76.04,1.23.02.48.05.92.09,1.34h-1.19c.02-.22.04-.42.06-.6.02-.19.03-.38.04-.58,0-.2.01-.41.02-.63,0-.22,0-.48,0-.77v-1.86c0-.46-.01-.84-.04-1.16s-.06-.6-.11-.84c.24.06.45.1.63.13.18.02.37.03.56.02.16-.02.24,0,.26.09.02.08-.04.17-.17.25ZM638.39,261.9c-.16.08-.23.25-.23.49v6.89c0,.34-.03.62-.08.86-.05.23-.17.43-.35.58-.18.15-.44.26-.78.34-.34.08-.81.12-1.4.14.02-.24.01-.45-.04-.63-.05-.18-.17-.38-.38-.61.43.08.78.13,1.05.14.26.01.47-.01.61-.08.14-.07.24-.17.29-.31.05-.14.07-.32.07-.53v-4.83c0-.64-.02-1.23-.05-1.77-.03-.54-.06-.94-.1-1.19.24.06.45.1.63.13.18.02.38.02.61,0,.17-.01.27.03.3.14s-.02.19-.15.26Z"/>
    </g>
  </g>
</svg>