<?xml version="1.0" encoding="UTF-8"?>
<svg id="_图层_1" data-name="图层 1" xmlns="http://www.w3.org/2000/svg" viewBox="0 0 595.28 202.48">
  <defs>
    <style>
      .cls-1 {
        fill: #d6eacd;
        stroke: #4e9f35;
      }

      .cls-1, .cls-2, .cls-3, .cls-4, .cls-5, .cls-6, .cls-7, .cls-8 {
        stroke-miterlimit: 8;
      }

      .cls-9 {
        fill: #040000;
      }

      .cls-2 {
        fill: #d29bc4;
      }

      .cls-2, .cls-4, .cls-5 {
        fill-rule: evenodd;
        stroke-width: .67px;
      }

      .cls-2, .cls-4, .cls-5, .cls-6 {
        stroke: #a7a7a6;
      }

      .cls-3 {
        fill: #ebcde2;
        stroke: #952d8a;
      }

      .cls-10 {
        fill: #4e9f35;
      }

      .cls-4 {
        fill: #fff;
      }

      .cls-5 {
        fill: #eba682;
      }

      .cls-11 {
        isolation: isolate;
      }

      .cls-12 {
        fill: #e7211a;
      }

      .cls-6 {
        stroke-width: 4px;
      }

      .cls-6, .cls-8 {
        fill: none;
      }

      .cls-13 {
        fill: #a7a7a6;
      }

      .cls-14 {
        fill: #952d8a;
      }

      .cls-7 {
        fill: #f9e1d5;
        stroke: #de6f35;
      }

      .cls-8 {
        stroke: #040000;
        stroke-width: 2px;
      }

      .cls-15 {
        fill: #de6f35;
      }
    </style>
  </defs>
  <path class="cls-2" d="M215.95,123.89c0-3.73,2.9-6.75,6.49-6.75s6.49,3.02,6.49,6.75-2.9,6.75-6.49,6.75-6.49-3.02-6.49-6.75Z"/>
  <g class="cls-11">
    <path class="cls-9" d="M224.85,124.19c0,.59-.11,1.11-.33,1.57-.22.45-.53.8-.94,1.04-.41.24-.88.36-1.43.36s-1.04-.12-1.45-.36c-.41-.24-.71-.59-.93-1.04-.21-.45-.32-.97-.32-1.57,0-.91.24-1.62.72-2.14.48-.52,1.14-.78,1.99-.78.55,0,1.03.12,1.44.35.41.23.72.57.93,1.01s.32.96.32,1.55ZM224.29,124.19c0-.76-.19-1.36-.56-1.8-.38-.44-.9-.66-1.57-.66s-1.21.22-1.59.65c-.38.43-.56,1.03-.56,1.81s.19,1.38.57,1.83c.38.45.91.68,1.57.68s1.22-.22,1.59-.66c.37-.44.56-1.06.56-1.85Z"/>
  </g>
  <path class="cls-2" d="M183.25,69.39c0-3.73,3.02-6.75,6.75-6.75s6.75,3.02,6.75,6.75-3.02,6.75-6.75,6.75-6.75-3.02-6.75-6.75Z"/>
  <g class="cls-11">
    <path class="cls-9" d="M192.4,69.16c0,.59-.11,1.11-.33,1.57-.22.45-.53.8-.94,1.04-.41.24-.88.36-1.43.36s-1.04-.12-1.45-.36c-.41-.24-.71-.59-.93-1.04-.21-.45-.32-.97-.32-1.57,0-.91.24-1.62.72-2.14.48-.52,1.14-.78,1.99-.78.55,0,1.03.12,1.44.35.41.23.72.57.93,1.01s.32.96.32,1.55ZM191.84,69.16c0-.76-.19-1.36-.56-1.8-.38-.44-.9-.66-1.57-.66s-1.21.22-1.59.65c-.38.43-.56,1.03-.56,1.81s.19,1.38.57,1.83c.38.45.91.68,1.57.68s1.22-.22,1.59-.66c.37-.44.56-1.06.56-1.85Z"/>
  </g>
  <path class="cls-5" d="M180.66,101.83c0-5.02,4.07-9.08,9.08-9.08s9.08,4.07,9.08,9.08-4.07,9.08-9.08,9.08-9.08-4.07-9.08-9.08Z"/>
  <g class="cls-11">
    <path class="cls-9" d="M190.11,105.48c-.98,0-1.75-.35-2.31-1.06-.56-.7-.84-1.67-.84-2.9s.28-2.18.85-2.86c.57-.68,1.36-1.02,2.37-1.02.65,0,1.19.13,1.63.39.44.26.79.67,1.04,1.24l-.67.28c-.18-.46-.44-.79-.78-1-.33-.2-.74-.3-1.22-.3-.79,0-1.41.29-1.84.87s-.65,1.38-.65,2.4.22,1.85.65,2.45,1.03.89,1.79.89c.54,0,.98-.13,1.32-.39.35-.26.6-.61.77-1.06l.63.29c-.5,1.18-1.43,1.77-2.76,1.77Z"/>
  </g>
  <path class="cls-5" d="M150.03,126.22c0-5.02,4.07-9.08,9.08-9.08s9.08,4.07,9.08,9.08-4.07,9.08-9.08,9.08-9.08-4.07-9.08-9.08Z"/>
  <g class="cls-11">
    <path class="cls-9" d="M159.02,130.4c-.98,0-1.75-.35-2.31-1.06-.56-.7-.84-1.67-.84-2.9s.28-2.18.85-2.86c.57-.68,1.36-1.02,2.37-1.02.65,0,1.19.13,1.63.39.44.26.79.67,1.04,1.24l-.67.28c-.18-.46-.44-.79-.78-1-.33-.2-.74-.3-1.22-.3-.79,0-1.41.29-1.84.87s-.65,1.38-.65,2.4.22,1.85.65,2.45,1.03.89,1.79.89c.54,0,.98-.13,1.32-.39.35-.26.6-.61.77-1.06l.63.29c-.5,1.18-1.43,1.77-2.76,1.77Z"/>
  </g>
  <path class="cls-13" d="M191.82,92.53v-16.65s-1.38,0-1.38,0v16.65s1.38,0,1.38,0ZM189.05,92.53v-16.65s-1.38,0-1.38,0v16.65s1.38,0,1.38,0Z"/>
  <path class="cls-6" d="M195.97,108.06l21.32,11.22"/>
  <path class="cls-6" d="M164.83,119.98l18.26-11.93"/>
  <path class="cls-4" d="M236.72,105.72c0-2.29,1.86-4.15,4.15-4.15s4.15,1.86,4.15,4.15-1.86,4.15-4.15,4.15-4.15-1.86-4.15-4.15Z"/>
  <g class="cls-11">
    <path class="cls-9" d="M242.01,107.78v-2.06h-2.38v2.06h-.41v-4.29h.41v1.87h2.38v-1.87h.4v4.29h-.4Z"/>
  </g>
  <path class="cls-6" d="M227.11,119.21l11.05-10.63"/>
  <path class="cls-4" d="M154.7,154.26c0-2.15,1.86-3.89,4.15-3.89s4.15,1.74,4.15,3.89-1.86,3.89-4.15,3.89-4.15-1.74-4.15-3.89Z"/>
  <g class="cls-11">
    <path class="cls-9" d="M159.82,156.06v-2.06h-2.38v2.06h-.41v-4.29h.41v1.87h2.38v-1.87h.4v4.29h-.4Z"/>
  </g>
  <path class="cls-4" d="M131.86,108.32c0-2.29,1.86-4.15,4.15-4.15s4.15,1.86,4.15,4.15-1.86,4.15-4.15,4.15-4.15-1.86-4.15-4.15Z"/>
  <g class="cls-11">
    <path class="cls-9" d="M136.81,109.86v-2.06h-2.38v2.06h-.41v-4.29h.41v1.87h2.38v-1.87h.4v4.29h-.4Z"/>
  </g>
  <path class="cls-6" d="M158.6,135.05v14.66"/>
  <path class="cls-6" d="M152.05,119.68l-13.7-9.03"/>
  <g class="cls-11">
    <path class="cls-12" d="M137.02,97.82h1.3v-3.6l-1.17.75v-.68l1.22-.82h.76v4.34h1.1v.66h-3.21v-.66Z"/>
  </g>
  <g class="cls-11">
    <path class="cls-12" d="M168.04,156.61v-.57c.12-.27.29-.54.5-.81.22-.26.51-.55.87-.85.44-.36.73-.65.87-.84s.21-.39.21-.58c0-.24-.07-.43-.2-.56-.13-.13-.33-.2-.57-.2-.47,0-.74.25-.81.76l-.82-.06c.05-.43.21-.77.49-1.01s.65-.36,1.12-.36c.51,0,.91.12,1.19.36.29.24.43.58.43,1.03,0,.21-.04.4-.12.58-.08.18-.2.36-.35.54s-.4.4-.75.68c-.61.48-.98.88-1.13,1.2h2.44v.68h-3.36Z"/>
  </g>
  <g class="cls-11">
    <path class="cls-12" d="M159.13,111.45v1.05h-.78v-1.05h-2.22v-.67l2.06-3.28h.94v3.29h.73v.66h-.73ZM158.35,108.35l-1.51,2.44h1.51v-2.44Z"/>
  </g>
  <g class="cls-11">
    <path class="cls-12" d="M204.41,96.31c0,.53-.16.95-.47,1.26s-.75.46-1.31.46c-.46,0-.83-.11-1.11-.32-.28-.21-.45-.52-.52-.94l.82-.07c.05.18.1.32.17.4.07.09.16.15.27.2s.25.07.41.07c.3,0,.52-.09.68-.27.16-.18.23-.44.23-.78,0-.3-.08-.53-.23-.7s-.36-.26-.64-.26c-.15,0-.29.02-.41.07-.12.05-.24.13-.37.26h-.78l.16-2.75h2.82v.67h-2.1l-.08,1.38c.24-.2.56-.3.95-.3.47,0,.84.14,1.11.43.27.29.41.68.41,1.17Z"/>
  </g>
  <g class="cls-11">
    <path class="cls-12" d="M253.4,106.44c0,.47-.15.83-.44,1.08-.29.25-.72.37-1.27.37-.51,0-.92-.12-1.21-.35-.3-.23-.47-.58-.53-1.04l.83-.07c.04.27.13.48.28.61s.36.2.63.2.5-.07.65-.22c.15-.14.22-.35.22-.62,0-.25-.09-.44-.28-.57-.18-.14-.46-.2-.81-.2h-.37v-.68h.35c.32,0,.56-.07.73-.2.17-.13.26-.32.26-.57s-.07-.45-.2-.57-.32-.19-.57-.19c-.49,0-.76.25-.82.74l-.81-.06c.05-.43.22-.76.51-.99.29-.23.66-.35,1.13-.35.51,0,.9.12,1.17.35s.41.56.41.98c0,.3-.08.55-.25.76-.17.21-.43.35-.78.42h0c.36.05.65.18.86.39.21.21.31.47.31.79Z"/>
  </g>
  <g class="cls-11">
    <path class="cls-12" d="M232.5,135.66c-.44.69-.78,1.26-.99,1.71-.22.45-.38.89-.49,1.32-.11.43-.17.87-.17,1.31h-.84c0-.63.13-1.27.39-1.94s.71-1.46,1.34-2.37h-2.55v-.69h3.32v.66Z"/>
  </g>
  <g class="cls-11">
    <path class="cls-12" d="M199.82,68.58c0-.89.15-1.56.46-2.01s.76-.68,1.38-.68c.39,0,.69.08.92.25s.4.43.51.81l-.77.12c-.1-.35-.33-.53-.68-.53-.67,0-1.01.6-1.02,1.79.12-.19.27-.34.46-.44s.42-.15.67-.15c.44,0,.8.14,1.06.43.26.28.4.67.4,1.17,0,.53-.14.95-.43,1.25-.29.3-.69.45-1.2.45-.57,0-1.01-.2-1.31-.61s-.45-1.02-.45-1.84ZM200.69,69.23c0,.34.08.62.24.84.16.22.37.33.63.33s.47-.09.62-.28c.15-.18.22-.44.22-.76s-.08-.57-.23-.74-.36-.26-.64-.26c-.25,0-.45.08-.61.24-.16.16-.24.37-.24.64Z"/>
  </g>
  <g class="cls-11">
    <path class="cls-10" d="M137.58,120.69c.01.37.09.66.25.86.15.2.36.3.63.3.18,0,.34-.04.48-.13s.27-.24.38-.45l.64.31c-.14.22-.28.4-.42.51-.14.12-.3.2-.49.26-.19.06-.41.09-.66.09-.53,0-.94-.17-1.23-.5-.29-.33-.43-.8-.43-1.41s.15-1.07.45-1.39c.3-.32.72-.48,1.24-.48s.91.17,1.19.51.41.82.41,1.44v.1h-2.44ZM138.39,119.21c-.24,0-.43.09-.57.26-.14.17-.22.41-.23.71h1.58c-.02-.32-.1-.56-.22-.72s-.31-.24-.56-.24Z"/>
    <path class="cls-10" d="M140.79,121.7h1.3v-3.6l-1.17.75v-.68l1.22-.82h.76v4.34h1.1v.66h-3.21v-.66Z"/>
  </g>
  <g class="cls-11">
    <path class="cls-10" d="M150.52,144.05c.01.37.09.66.25.86.15.2.36.3.63.3.18,0,.34-.04.48-.13s.27-.24.38-.45l.64.31c-.14.22-.28.4-.42.51-.14.12-.3.2-.49.26-.19.06-.41.09-.66.09-.53,0-.94-.17-1.23-.5-.29-.33-.43-.8-.43-1.41s.15-1.07.45-1.39c.3-.32.72-.48,1.24-.48s.91.17,1.19.51.41.82.41,1.44v.1h-2.44ZM151.33,142.57c-.24,0-.43.09-.57.26-.14.17-.22.41-.23.71h1.58c-.02-.32-.1-.56-.22-.72s-.31-.24-.56-.24Z"/>
    <path class="cls-10" d="M153.54,145.71v-.57c.12-.27.29-.54.5-.81.22-.26.51-.55.87-.85.44-.36.73-.65.87-.84s.21-.39.21-.58c0-.24-.07-.43-.2-.56-.13-.13-.33-.2-.57-.2-.47,0-.74.25-.81.76l-.82-.06c.05-.43.21-.77.49-1.01s.65-.36,1.12-.36c.51,0,.91.12,1.19.36.29.24.43.58.43,1.03,0,.21-.04.4-.12.58-.08.18-.2.36-.35.54s-.4.4-.75.68c-.61.48-.98.88-1.13,1.2h2.44v.68h-3.36Z"/>
  </g>
  <g class="cls-11">
    <path class="cls-10" d="M174.55,120.17c.01.37.09.66.25.86.15.2.36.3.63.3.18,0,.34-.04.48-.13s.27-.24.38-.45l.64.31c-.14.22-.28.4-.42.51-.14.12-.3.2-.49.26-.19.06-.41.09-.66.09-.53,0-.94-.17-1.23-.5-.29-.33-.43-.8-.43-1.41s.15-1.07.45-1.39c.3-.32.72-.48,1.24-.48s.91.17,1.19.51.41.82.41,1.44v.1h-2.44ZM175.36,118.69c-.24,0-.43.09-.57.26-.14.17-.22.41-.23.71h1.58c-.02-.32-.1-.56-.22-.72s-.31-.24-.56-.24Z"/>
    <path class="cls-10" d="M180.95,120.45c0,.47-.15.83-.44,1.08-.29.25-.72.37-1.27.37-.51,0-.92-.12-1.21-.35-.3-.23-.47-.58-.53-1.04l.83-.07c.04.27.13.48.28.61s.36.2.63.2.5-.07.65-.22c.15-.14.22-.35.22-.62,0-.25-.09-.44-.28-.57-.18-.14-.46-.2-.81-.2h-.37v-.68h.35c.32,0,.56-.07.73-.2.17-.13.26-.32.26-.57s-.07-.45-.2-.57-.32-.19-.57-.19c-.49,0-.76.25-.82.74l-.81-.06c.05-.43.22-.76.51-.99.29-.23.66-.35,1.13-.35.51,0,.9.12,1.17.35s.41.56.41.98c0,.3-.08.55-.25.76-.17.21-.43.35-.78.42h0c.36.05.65.18.86.39.21.21.31.47.31.79Z"/>
  </g>
  <g class="cls-11">
    <path class="cls-10" d="M199.97,119.13c.01.37.09.66.25.86.15.2.36.3.63.3.18,0,.34-.04.48-.13s.27-.24.38-.45l.64.31c-.14.22-.28.4-.42.51-.14.12-.3.2-.49.26-.19.06-.41.09-.66.09-.53,0-.94-.17-1.23-.5-.29-.33-.43-.8-.43-1.41s.15-1.07.45-1.39c.3-.32.72-.48,1.24-.48s.91.17,1.19.51.41.82.41,1.44v.1h-2.44ZM200.78,117.65c-.24,0-.43.09-.57.26-.14.17-.22.41-.23.71h1.58c-.02-.32-.1-.56-.22-.72s-.31-.24-.56-.24Z"/>
    <path class="cls-10" d="M205.81,119.75v1.05h-.78v-1.05h-2.22v-.67l2.06-3.28h.94v3.29h.73v.66h-.73ZM205.02,116.65l-1.51,2.44h1.51v-2.44Z"/>
  </g>
  <g class="cls-11">
    <path class="cls-10" d="M234.48,120.17c.01.37.09.66.25.86.15.2.36.3.63.3.18,0,.34-.04.48-.13s.27-.24.38-.45l.64.31c-.14.22-.28.4-.42.51-.14.12-.3.2-.49.26-.19.06-.41.09-.66.09-.53,0-.94-.17-1.23-.5-.29-.33-.43-.8-.43-1.41s.15-1.07.45-1.39c.3-.32.72-.48,1.24-.48s.91.17,1.19.51.41.82.41,1.44v.1h-2.44ZM235.29,118.69c-.24,0-.43.09-.57.26-.14.17-.22.41-.23.71h1.58c-.02-.32-.1-.56-.22-.72s-.31-.24-.56-.24Z"/>
    <path class="cls-10" d="M240.9,120.19c0,.53-.16.95-.47,1.26s-.75.46-1.31.46c-.46,0-.83-.11-1.11-.32-.28-.21-.45-.52-.52-.94l.82-.07c.05.18.1.32.17.4.07.09.16.15.27.2s.25.07.41.07c.3,0,.52-.09.68-.27.16-.18.23-.44.23-.78,0-.3-.08-.53-.23-.7s-.36-.26-.64-.26c-.15,0-.29.02-.41.07-.12.05-.24.13-.37.26h-.78l.16-2.75h2.82v.67h-2.1l-.08,1.38c.24-.2.56-.3.95-.3.47,0,.84.14,1.11.43.27.29.41.68.41,1.17Z"/>
  </g>
  <g class="cls-11">
    <path class="cls-10" d="M179.65,85.4c.01.37.09.66.25.86.15.2.36.3.63.3.18,0,.34-.04.48-.13s.27-.24.38-.45l.64.31c-.14.22-.28.4-.42.51-.14.12-.3.2-.49.26-.19.06-.41.09-.66.09-.53,0-.94-.17-1.23-.5-.29-.33-.43-.8-.43-1.41s.15-1.07.45-1.39c.3-.32.72-.48,1.24-.48s.91.17,1.19.51.41.82.41,1.44v.1h-2.44ZM180.46,83.91c-.24,0-.43.09-.57.26-.14.17-.22.41-.23.71h1.58c-.02-.32-.1-.56-.22-.72s-.31-.24-.56-.24Z"/>
    <path class="cls-10" d="M182.69,84.67c0-.89.15-1.56.46-2.01s.76-.68,1.38-.68c.39,0,.69.08.92.25s.4.43.51.81l-.77.12c-.1-.35-.33-.53-.68-.53-.67,0-1.01.6-1.02,1.79.12-.19.27-.34.46-.44s.42-.15.67-.15c.44,0,.8.14,1.06.43.26.28.4.67.4,1.17,0,.53-.14.95-.43,1.25-.29.3-.69.45-1.2.45-.57,0-1.01-.2-1.31-.61s-.45-1.02-.45-1.84ZM183.56,85.32c0,.34.08.62.24.84.16.22.37.33.63.33s.47-.09.62-.28c.15-.18.22-.44.22-.76s-.08-.57-.23-.74-.36-.26-.64-.26c-.25,0-.45.08-.61.24-.16.16-.24.37-.24.64Z"/>
  </g>
  <g class="cls-11">
    <path class="cls-12" d="M338.03,46.43h1.29v-3.6l-1.17.75v-.68l1.22-.82h.76v4.34h1.1v.66h-3.21v-.66Z"/>
  </g>
  <g class="cls-11">
    <path class="cls-12" d="M337.85,63.18v-.57c.12-.27.29-.54.5-.81.22-.26.51-.55.87-.85.44-.36.73-.65.87-.84s.21-.39.21-.58c0-.24-.07-.43-.2-.56s-.33-.2-.57-.2c-.47,0-.74.25-.81.76l-.82-.06c.05-.43.21-.77.5-1.01s.65-.36,1.12-.36c.51,0,.91.12,1.19.36.29.24.43.58.43,1.03,0,.21-.04.4-.12.58-.08.18-.2.36-.35.54-.15.18-.41.4-.75.68-.61.48-.98.88-1.13,1.2h2.44v.68h-3.36Z"/>
  </g>
  <g class="cls-11">
    <path class="cls-12" d="M341.22,77.37c0,.47-.15.83-.44,1.08-.29.25-.72.37-1.27.37-.51,0-.92-.12-1.21-.35s-.47-.58-.53-1.04l.83-.07c.04.27.13.48.28.61s.36.2.63.2.5-.07.65-.22c.15-.14.22-.35.22-.62,0-.25-.09-.44-.28-.57-.18-.14-.46-.2-.81-.2h-.37v-.68h.35c.32,0,.56-.07.73-.2.17-.13.26-.32.26-.57s-.07-.45-.2-.57c-.13-.13-.32-.19-.57-.19-.49,0-.76.25-.82.74l-.81-.06c.05-.43.22-.76.51-.99.29-.23.67-.35,1.13-.35.51,0,.9.12,1.17.35.27.23.41.56.41.98,0,.3-.08.55-.25.76s-.43.35-.78.42h0c.36.05.65.18.86.39.21.21.31.47.31.79Z"/>
  </g>
  <g class="cls-11">
    <path class="cls-12" d="M340.66,93.28v1.05h-.78v-1.05h-2.22v-.67l2.06-3.28h.94v3.29h.73v.66h-.73ZM339.88,90.18l-1.51,2.44h1.51v-2.44Z"/>
  </g>
  <g class="cls-11">
    <path class="cls-12" d="M341.25,108.25c0,.53-.16.95-.47,1.26-.32.31-.75.46-1.31.46-.46,0-.83-.11-1.11-.32-.28-.21-.45-.52-.52-.94l.82-.07c.05.18.11.32.17.4s.16.15.27.2.25.07.41.07c.3,0,.52-.09.68-.27.16-.18.23-.44.23-.78,0-.3-.08-.53-.23-.7s-.36-.26-.63-.26c-.15,0-.29.02-.41.07-.12.05-.24.13-.37.26h-.78l.16-2.75h2.82v.67h-2.1l-.08,1.38c.24-.2.56-.3.96-.3.47,0,.84.14,1.11.43.27.29.41.68.41,1.17Z"/>
  </g>
  <g class="cls-11">
    <path class="cls-12" d="M337.86,123.09c0-.89.15-1.56.46-2.01s.76-.68,1.38-.68c.39,0,.69.08.92.25.23.16.4.43.51.81l-.77.12c-.1-.35-.33-.53-.68-.53-.67,0-1.01.6-1.01,1.79.12-.19.27-.34.46-.44.19-.1.42-.15.67-.15.44,0,.8.14,1.06.43.26.28.4.67.4,1.17,0,.53-.14.95-.43,1.25-.29.3-.69.45-1.2.45-.57,0-1.01-.2-1.31-.61-.3-.41-.46-1.02-.46-1.84ZM338.73,123.73c0,.34.08.62.24.84s.37.33.63.33.47-.09.62-.28c.15-.18.22-.44.22-.76s-.08-.57-.23-.74-.36-.26-.64-.26c-.25,0-.45.08-.61.24s-.24.37-.24.64Z"/>
  </g>
  <g class="cls-11">
    <path class="cls-12" d="M341.2,136.7c-.45.69-.78,1.26-.99,1.71-.22.45-.38.89-.49,1.32-.11.43-.17.87-.17,1.31h-.84c0-.63.13-1.27.39-1.94s.7-1.46,1.34-2.37h-2.55v-.69h3.32v.66Z"/>
  </g>
  <rect class="cls-7" x="352.99" y="40.84" width="17.65" height="11.42"/>
  <g class="cls-11">
    <path class="cls-15" d="M362.84,48.63v-2.29h-2.65v2.29h-.45v-4.76h.45v2.07h2.65v-2.07h.45v4.76h-.45Z"/>
  </g>
  <rect class="cls-7" x="370.64" y="40.84" width="21.8" height="11.42"/>
  <g class="cls-11">
    <path class="cls-15" d="M378.87,47.35c0,.43-.13.76-.39,1-.26.24-.62.35-1.1.35-.86,0-1.36-.39-1.51-1.17l.42-.09c.07.31.19.54.37.68.18.14.42.21.72.21.34,0,.6-.08.78-.25.18-.16.27-.4.27-.71,0-.18-.03-.32-.09-.43-.06-.11-.15-.2-.25-.28-.11-.07-.23-.13-.37-.18-.14-.05-.3-.1-.46-.15-.35-.11-.6-.21-.76-.32-.16-.11-.28-.24-.36-.41-.08-.16-.13-.36-.13-.6,0-.39.12-.68.35-.9.24-.21.57-.32.99-.32.4,0,.71.08.95.25.23.17.39.42.48.77l-.42.1c-.06-.26-.18-.45-.34-.58-.17-.12-.39-.18-.67-.18s-.51.07-.67.21c-.16.14-.24.35-.24.62,0,.17.03.31.09.42.06.11.15.21.28.29.12.08.35.17.67.27.37.12.63.22.78.3.15.08.26.17.35.27.08.1.15.22.19.35.04.13.07.28.07.45Z"/>
    <path class="cls-15" d="M382.68,45.27c0,.28-.06.53-.19.75-.13.22-.31.39-.56.51s-.53.18-.86.18h-.81v1.91h-.45v-4.76h1.24c.52,0,.92.12,1.2.37.29.25.43.59.43,1.03ZM382.22,45.28c0-.33-.1-.58-.31-.77-.21-.18-.51-.28-.92-.28h-.73v2.13h.76c.38,0,.68-.09.89-.28s.31-.45.31-.8Z"/>
    <path class="cls-15" d="M386.25,47.32c0,.44-.13.78-.39,1.02-.26.24-.62.36-1.09.36-.9,0-1.4-.41-1.5-1.23l.44-.05c.08.61.43.92,1.07.92.34,0,.59-.09.77-.26.18-.17.27-.42.27-.76,0-.3-.11-.52-.32-.68-.21-.16-.51-.23-.89-.23h-.32v-.4h.31c.21,0,.4-.04.56-.1s.29-.17.39-.31.14-.3.14-.51c0-.3-.08-.53-.23-.69-.16-.16-.39-.24-.69-.24-.27,0-.5.07-.67.21-.17.14-.27.36-.3.65l-.43-.04c.04-.38.19-.67.43-.87.25-.21.57-.31.96-.31.43,0,.76.11,1,.33.24.22.36.53.36.93,0,.29-.08.54-.25.74-.17.2-.4.33-.7.4h0c.34.06.6.18.79.38.19.2.29.45.29.75Z"/>
  </g>
  <rect class="cls-7" x="392.44" y="40.84" width="17.13" height="11.42"/>
  <g class="cls-11">
    <path class="cls-15" d="M399.43,48.63v-.36h1.22v-3.96l-1.09.72v-.39l1.14-.78h.38v4.4h1.04v.36h-2.68Z"/>
  </g>
  <rect class="cls-7" x="409.57" y="40.84" width="17.13" height="11.42"/>
  <g class="cls-11">
    <path class="cls-15" d="M419.46,46.25c0,.8-.13,1.4-.39,1.82s-.64.63-1.14.63-.87-.21-1.13-.62c-.25-.41-.38-1.02-.38-1.83s.12-1.44.37-1.84c.25-.4.63-.6,1.16-.6s.88.2,1.13.61c.25.41.37,1.02.37,1.84ZM419.03,46.25c0-.73-.08-1.26-.25-1.59s-.44-.5-.82-.5-.67.17-.84.5c-.17.33-.25.86-.25,1.59s.09,1.24.26,1.58.45.51.82.51.64-.18.82-.53c.18-.35.27-.87.27-1.56Z"/>
  </g>
  <rect class="cls-7" x="426.7" y="40.84" width="21.8" height="11.42"/>
  <g class="cls-11">
    <path class="cls-15" d="M432.31,46.58v-.89h.81v.89h-.81ZM434.29,46.58v-.89h.81v.89h-.81ZM436.27,46.58v-.89h.81v.89h-.81Z"/>
    <path class="cls-15" d="M437.94,46.58v-.89h.81v.89h-.81ZM439.92,46.58v-.89h.81v.89h-.81ZM441.9,46.58v-.89h.81v.89h-.81Z"/>
  </g>
  <rect class="cls-7" x="352.99" y="56.41" width="17.65" height="10.9"/>
  <g class="cls-11">
    <path class="cls-15" d="M362.84,64.21v-2.29h-2.65v2.29h-.45v-4.76h.45v2.07h2.65v-2.07h.45v4.76h-.45Z"/>
  </g>
  <rect class="cls-7" x="370.64" y="56.41" width="21.8" height="10.9"/>
  <g class="cls-11">
    <path class="cls-15" d="M378.87,62.92c0,.43-.13.76-.39,1-.26.24-.62.35-1.1.35-.86,0-1.36-.39-1.51-1.17l.42-.09c.07.31.19.54.37.68.18.14.42.21.72.21.34,0,.6-.08.78-.25.18-.16.27-.4.27-.71,0-.18-.03-.32-.09-.43-.06-.11-.15-.2-.25-.28-.11-.07-.23-.13-.37-.18-.14-.05-.3-.1-.46-.15-.35-.11-.6-.21-.76-.32-.16-.11-.28-.24-.36-.41-.08-.16-.13-.36-.13-.6,0-.39.12-.68.35-.9.24-.21.57-.32.99-.32.4,0,.71.08.95.25.23.17.39.42.48.77l-.42.1c-.06-.26-.18-.45-.34-.58-.17-.12-.39-.18-.67-.18s-.51.07-.67.21c-.16.14-.24.35-.24.62,0,.17.03.31.09.42.06.11.15.21.28.29.12.08.35.17.67.27.37.12.63.22.78.3.15.08.26.17.35.27.08.1.15.22.19.35.04.13.07.28.07.45Z"/>
    <path class="cls-15" d="M382.68,60.85c0,.28-.06.53-.19.75-.13.22-.31.39-.56.51s-.53.18-.86.18h-.81v1.91h-.45v-4.76h1.24c.52,0,.92.12,1.2.37.29.25.43.59.43,1.03ZM382.22,60.85c0-.33-.1-.58-.31-.77-.21-.18-.51-.28-.92-.28h-.73v2.13h.76c.38,0,.68-.09.89-.28s.31-.45.31-.8Z"/>
    <path class="cls-15" d="M386.25,62.89c0,.44-.13.78-.39,1.02-.26.24-.62.36-1.09.36-.9,0-1.4-.41-1.5-1.23l.44-.05c.08.61.43.92,1.07.92.34,0,.59-.09.77-.26.18-.17.27-.42.27-.76,0-.3-.11-.52-.32-.68-.21-.16-.51-.23-.89-.23h-.32v-.4h.31c.21,0,.4-.04.56-.1s.29-.17.39-.31.14-.3.14-.51c0-.3-.08-.53-.23-.69-.16-.16-.39-.24-.69-.24-.27,0-.5.07-.67.21-.17.14-.27.36-.3.65l-.43-.04c.04-.38.19-.67.43-.87.25-.21.57-.31.96-.31.43,0,.76.11,1,.33.24.22.36.53.36.93,0,.29-.08.54-.25.74-.17.2-.4.33-.7.4h0c.34.06.6.18.79.38.19.2.29.45.29.75Z"/>
  </g>
  <rect class="cls-7" x="392.44" y="56.41" width="17.13" height="10.9"/>
  <g class="cls-11">
    <path class="cls-15" d="M399.43,64.21v-.36h1.22v-3.96l-1.09.72v-.39l1.14-.78h.38v4.4h1.04v.36h-2.68Z"/>
  </g>
  <rect class="cls-7" x="409.57" y="56.41" width="17.13" height="10.9"/>
  <g class="cls-11">
    <path class="cls-15" d="M419.46,61.82c0,.8-.13,1.4-.39,1.82s-.64.63-1.14.63-.87-.21-1.13-.62c-.25-.41-.38-1.02-.38-1.83s.12-1.44.37-1.84c.25-.4.63-.6,1.16-.6s.88.2,1.13.61c.25.41.37,1.02.37,1.84ZM419.03,61.82c0-.73-.08-1.26-.25-1.59s-.44-.5-.82-.5-.67.17-.84.5c-.17.33-.25.86-.25,1.59s.09,1.24.26,1.58.45.51.82.51.64-.18.82-.53c.18-.35.27-.87.27-1.56Z"/>
  </g>
  <rect class="cls-7" x="426.7" y="56.41" width="21.8" height="10.9"/>
  <g class="cls-11">
    <path class="cls-15" d="M432.31,62.15v-.89h.81v.89h-.81ZM434.29,62.15v-.89h.81v.89h-.81ZM436.27,62.15v-.89h.81v.89h-.81Z"/>
    <path class="cls-15" d="M437.94,62.15v-.89h.81v.89h-.81ZM439.92,62.15v-.89h.81v.89h-.81ZM441.9,62.15v-.89h.81v.89h-.81Z"/>
  </g>
  <rect class="cls-7" x="352.99" y="71.46" width="17.65" height="11.42"/>
  <g class="cls-11">
    <path class="cls-15" d="M362.84,79.26v-2.29h-2.65v2.29h-.45v-4.76h.45v2.07h2.65v-2.07h.45v4.76h-.45Z"/>
  </g>
  <rect class="cls-7" x="370.64" y="71.46" width="21.8" height="11.42"/>
  <g class="cls-11">
    <path class="cls-15" d="M378.87,77.98c0,.43-.13.76-.39,1-.26.24-.62.35-1.1.35-.86,0-1.36-.39-1.51-1.17l.42-.09c.07.31.19.54.37.68.18.14.42.21.72.21.34,0,.6-.08.78-.25.18-.16.27-.4.27-.71,0-.18-.03-.32-.09-.43-.06-.11-.15-.2-.25-.28-.11-.07-.23-.13-.37-.18-.14-.05-.3-.1-.46-.15-.35-.11-.6-.21-.76-.32-.16-.11-.28-.24-.36-.41-.08-.16-.13-.36-.13-.6,0-.39.12-.68.35-.9.24-.21.57-.32.99-.32.4,0,.71.08.95.25.23.17.39.42.48.77l-.42.1c-.06-.26-.18-.45-.34-.58-.17-.12-.39-.18-.67-.18s-.51.07-.67.21c-.16.14-.24.35-.24.62,0,.17.03.31.09.42.06.11.15.21.28.29.12.08.35.17.67.27.37.12.63.22.78.3.15.08.26.17.35.27.08.1.15.22.19.35.04.13.07.28.07.45Z"/>
    <path class="cls-15" d="M382.68,75.9c0,.28-.06.53-.19.75-.13.22-.31.39-.56.51s-.53.18-.86.18h-.81v1.91h-.45v-4.76h1.24c.52,0,.92.12,1.2.37.29.25.43.59.43,1.03ZM382.22,75.91c0-.33-.1-.58-.31-.77-.21-.18-.51-.28-.92-.28h-.73v2.13h.76c.38,0,.68-.09.89-.28s.31-.45.31-.8Z"/>
    <path class="cls-15" d="M386.25,77.95c0,.44-.13.78-.39,1.02-.26.24-.62.36-1.09.36-.9,0-1.4-.41-1.5-1.23l.44-.05c.08.61.43.92,1.07.92.34,0,.59-.09.77-.26.18-.17.27-.42.27-.76,0-.3-.11-.52-.32-.68-.21-.16-.51-.23-.89-.23h-.32v-.4h.31c.21,0,.4-.04.56-.1s.29-.17.39-.31.14-.3.14-.51c0-.3-.08-.53-.23-.69-.16-.16-.39-.24-.69-.24-.27,0-.5.07-.67.21-.17.14-.27.36-.3.65l-.43-.04c.04-.38.19-.67.43-.87.25-.21.57-.31.96-.31.43,0,.76.11,1,.33.24.22.36.53.36.93,0,.29-.08.54-.25.74-.17.2-.4.33-.7.4h0c.34.06.6.18.79.38.19.2.29.45.29.75Z"/>
  </g>
  <rect class="cls-7" x="392.44" y="71.46" width="17.13" height="11.42"/>
  <g class="cls-11">
    <path class="cls-15" d="M399.43,79.26v-.36h1.22v-3.96l-1.09.72v-.39l1.14-.78h.38v4.4h1.04v.36h-2.68Z"/>
  </g>
  <rect class="cls-7" x="409.57" y="71.46" width="17.13" height="11.42"/>
  <g class="cls-11">
    <path class="cls-15" d="M419.46,76.88c0,.8-.13,1.4-.39,1.82s-.64.63-1.14.63-.87-.21-1.13-.62c-.25-.41-.38-1.02-.38-1.83s.12-1.44.37-1.84c.25-.4.63-.6,1.16-.6s.88.2,1.13.61c.25.41.37,1.02.37,1.84ZM419.03,76.88c0-.73-.08-1.26-.25-1.59s-.44-.5-.82-.5-.67.17-.84.5c-.17.33-.25.86-.25,1.59s.09,1.24.26,1.58.45.51.82.51.64-.18.82-.53c.18-.35.27-.87.27-1.56Z"/>
  </g>
  <rect class="cls-7" x="426.7" y="71.46" width="21.8" height="11.42"/>
  <g class="cls-11">
    <path class="cls-15" d="M432.31,77.2v-.89h.81v.89h-.81ZM434.29,77.2v-.89h.81v.89h-.81ZM436.27,77.2v-.89h.81v.89h-.81Z"/>
    <path class="cls-15" d="M437.94,77.2v-.89h.81v.89h-.81ZM439.92,77.2v-.89h.81v.89h-.81ZM441.9,77.2v-.89h.81v.89h-.81Z"/>
  </g>
  <rect class="cls-7" x="352.99" y="86.52" width="17.65" height="11.42"/>
  <g class="cls-11">
    <path class="cls-15" d="M361.71,94.38c-.62,0-1.1-.22-1.44-.66-.35-.44-.52-1.04-.52-1.81s.18-1.36.53-1.79c.36-.43.85-.64,1.48-.64.4,0,.74.08,1.02.24s.49.42.65.78l-.42.18c-.12-.29-.28-.5-.49-.62-.21-.13-.46-.19-.76-.19-.5,0-.88.18-1.15.54-.27.36-.4.86-.4,1.5s.13,1.16.4,1.53c.27.37.64.56,1.12.56.34,0,.61-.08.83-.24.22-.16.38-.38.48-.66l.39.18c-.32.74-.89,1.1-1.73,1.1Z"/>
  </g>
  <rect class="cls-7" x="370.64" y="86.52" width="21.8" height="11.42"/>
  <g class="cls-11">
    <path class="cls-15" d="M378.87,93.03c0,.43-.13.76-.39,1-.26.24-.62.35-1.1.35-.86,0-1.36-.39-1.51-1.17l.42-.09c.07.31.19.54.37.68.18.14.42.21.72.21.34,0,.6-.08.78-.25.18-.16.27-.4.27-.71,0-.18-.03-.32-.09-.43-.06-.11-.15-.2-.25-.28-.11-.07-.23-.13-.37-.18-.14-.05-.3-.1-.46-.15-.35-.11-.6-.21-.76-.32-.16-.11-.28-.24-.36-.41-.08-.16-.13-.36-.13-.6,0-.39.12-.68.35-.9.24-.21.57-.32.99-.32.4,0,.71.08.95.25.23.17.39.42.48.77l-.42.1c-.06-.26-.18-.45-.34-.58-.17-.12-.39-.18-.67-.18s-.51.07-.67.21c-.16.14-.24.35-.24.62,0,.17.03.31.09.42.06.11.15.21.28.29.12.08.35.17.67.27.37.12.63.22.78.3.15.08.26.17.35.27.08.1.15.22.19.35.04.13.07.28.07.45Z"/>
    <path class="cls-15" d="M382.68,90.95c0,.28-.06.53-.19.75-.13.22-.31.39-.56.51s-.53.18-.86.18h-.81v1.91h-.45v-4.76h1.24c.52,0,.92.12,1.2.37.29.25.43.59.43,1.03ZM382.22,90.96c0-.33-.1-.58-.31-.77-.21-.18-.51-.28-.92-.28h-.73v2.13h.76c.38,0,.68-.09.89-.28s.31-.45.31-.8Z"/>
    <path class="cls-15" d="M386.25,93c0,.44-.13.78-.39,1.02-.26.24-.62.36-1.09.36-.9,0-1.4-.41-1.5-1.23l.44-.05c.08.61.43.92,1.07.92.34,0,.59-.09.77-.26.18-.17.27-.42.27-.76,0-.3-.11-.52-.32-.68-.21-.16-.51-.23-.89-.23h-.32v-.4h.31c.21,0,.4-.04.56-.1s.29-.17.39-.31.14-.3.14-.51c0-.3-.08-.53-.23-.69-.16-.16-.39-.24-.69-.24-.27,0-.5.07-.67.21-.17.14-.27.36-.3.65l-.43-.04c.04-.38.19-.67.43-.87.25-.21.57-.31.96-.31.43,0,.76.11,1,.33.24.22.36.53.36.93,0,.29-.08.54-.25.74-.17.2-.4.33-.7.4h0c.34.06.6.18.79.38.19.2.29.45.29.75Z"/>
  </g>
  <rect class="cls-7" x="392.44" y="86.52" width="17.13" height="11.42"/>
  <g class="cls-11">
    <path class="cls-15" d="M397.61,94.31v-.36h1.22v-3.96l-1.09.72v-.39l1.14-.78h.38v4.4h1.04v.36h-2.68Z"/>
    <path class="cls-15" d="M401.11,94.31v-.3c.1-.26.25-.52.45-.78.2-.26.49-.55.87-.88.39-.34.67-.62.82-.85.16-.23.24-.48.24-.73,0-.29-.08-.52-.25-.68-.16-.16-.39-.24-.69-.24-.27,0-.48.08-.65.23-.17.16-.27.37-.3.64l-.43-.05c.03-.36.18-.64.43-.86.25-.22.57-.33.96-.33.43,0,.77.11,1.01.33.24.22.36.53.36.92,0,.2-.04.39-.11.57-.07.18-.18.36-.32.53-.14.18-.39.42-.74.73-.61.54-.99,1-1.15,1.37h2.39v.38h-2.89Z"/>
  </g>
  <rect class="cls-7" x="409.57" y="86.52" width="17.13" height="11.42"/>
  <g class="cls-11">
    <path class="cls-15" d="M419.46,91.93c0,.8-.13,1.4-.39,1.82s-.64.63-1.14.63-.87-.21-1.13-.62c-.25-.41-.38-1.02-.38-1.83s.12-1.44.37-1.84c.25-.4.63-.6,1.16-.6s.88.2,1.13.61c.25.41.37,1.02.37,1.84ZM419.03,91.93c0-.73-.08-1.26-.25-1.59s-.44-.5-.82-.5-.67.17-.84.5c-.17.33-.25.86-.25,1.59s.09,1.24.26,1.58.45.51.82.51.64-.18.82-.53c.18-.35.27-.87.27-1.56Z"/>
  </g>
  <rect class="cls-7" x="426.7" y="86.52" width="21.8" height="11.42"/>
  <g class="cls-11">
    <path class="cls-15" d="M432.31,92.25v-.89h.81v.89h-.81ZM434.29,92.25v-.89h.81v.89h-.81ZM436.27,92.25v-.89h.81v.89h-.81Z"/>
    <path class="cls-15" d="M437.94,92.25v-.89h.81v.89h-.81ZM439.92,92.25v-.89h.81v.89h-.81ZM441.9,92.25v-.89h.81v.89h-.81Z"/>
  </g>
  <rect class="cls-7" x="351.95" y="102.09" width="17.65" height="11.42"/>
  <g class="cls-11">
    <path class="cls-15" d="M360.91,109.95c-.62,0-1.1-.22-1.44-.66-.35-.44-.52-1.04-.52-1.81s.18-1.36.53-1.79c.36-.43.85-.64,1.48-.64.4,0,.74.08,1.02.24s.49.42.65.78l-.42.18c-.12-.29-.28-.5-.49-.62-.21-.13-.46-.19-.76-.19-.5,0-.88.18-1.15.54-.27.36-.4.86-.4,1.5s.13,1.16.4,1.53c.27.37.64.56,1.12.56.34,0,.61-.08.83-.24.22-.16.38-.38.48-.66l.39.18c-.32.74-.89,1.1-1.73,1.1Z"/>
  </g>
  <rect class="cls-7" x="369.6" y="102.09" width="21.8" height="11.42"/>
  <g class="cls-11">
    <path class="cls-15" d="M378.08,108.6c0,.43-.13.76-.39,1-.26.24-.62.35-1.1.35-.86,0-1.36-.39-1.51-1.17l.42-.09c.07.31.19.54.37.68.18.14.42.21.72.21.34,0,.6-.08.78-.25.18-.16.27-.4.27-.71,0-.18-.03-.32-.09-.43-.06-.11-.15-.2-.25-.28-.11-.07-.23-.13-.37-.18-.14-.05-.3-.1-.46-.15-.35-.11-.6-.21-.76-.32-.16-.11-.28-.24-.36-.41-.08-.16-.13-.36-.13-.6,0-.39.12-.68.35-.9.24-.21.57-.32.99-.32.4,0,.71.08.95.25.23.17.39.42.48.77l-.42.1c-.06-.26-.18-.45-.34-.58-.17-.12-.39-.18-.67-.18s-.51.07-.67.21c-.16.14-.24.35-.24.62,0,.17.03.31.09.42.06.11.15.21.28.29.12.08.35.17.67.27.37.12.63.22.78.3.15.08.26.17.35.27.08.1.15.22.19.35.04.13.07.28.07.45Z"/>
    <path class="cls-15" d="M381.89,106.53c0,.28-.06.53-.19.75-.13.22-.31.39-.56.51s-.53.18-.86.18h-.81v1.91h-.45v-4.76h1.24c.52,0,.92.12,1.2.37.29.25.43.59.43,1.03ZM381.43,106.53c0-.33-.1-.58-.31-.77-.21-.18-.51-.28-.92-.28h-.73v2.13h.76c.38,0,.68-.09.89-.28s.31-.45.31-.8Z"/>
    <path class="cls-15" d="M382.56,109.88v-.3c.1-.26.25-.52.45-.78.2-.26.49-.55.87-.88.39-.34.67-.62.82-.85.16-.23.24-.48.24-.73,0-.29-.08-.52-.25-.68-.16-.16-.39-.24-.69-.24-.27,0-.48.08-.65.23-.17.16-.27.37-.3.64l-.43-.05c.03-.36.18-.64.43-.86.25-.22.57-.33.96-.33.43,0,.77.11,1.01.33.24.22.36.53.36.92,0,.2-.04.39-.11.57-.07.18-.18.36-.32.53-.14.18-.39.42-.74.73-.61.54-.99,1-1.15,1.37h2.39v.38h-2.89Z"/>
  </g>
  <rect class="cls-7" x="391.4" y="102.09" width="17.65" height="11.42"/>
  <g class="cls-11">
    <path class="cls-15" d="M396.82,109.88v-.36h1.22v-3.96l-1.09.72v-.39l1.14-.78h.38v4.4h1.04v.36h-2.68Z"/>
    <path class="cls-15" d="M400.32,109.88v-.3c.1-.26.25-.52.45-.78.2-.26.49-.55.87-.88.39-.34.67-.62.82-.85.16-.23.24-.48.24-.73,0-.29-.08-.52-.25-.68-.16-.16-.39-.24-.69-.24-.27,0-.48.08-.65.23-.17.16-.27.37-.3.64l-.43-.05c.03-.36.18-.64.43-.86.25-.22.57-.33.96-.33.43,0,.77.11,1.01.33.24.22.36.53.36.92,0,.2-.04.39-.11.57-.07.18-.18.36-.32.53-.14.18-.39.42-.74.73-.61.54-.99,1-1.15,1.37h2.39v.38h-2.89Z"/>
  </g>
  <rect class="cls-7" x="408.53" y="102.09" width="17.65" height="11.42"/>
  <g class="cls-11">
    <path class="cls-15" d="M418.67,107.5c0,.8-.13,1.4-.39,1.82s-.64.63-1.14.63-.87-.21-1.13-.62c-.25-.41-.38-1.02-.38-1.83s.12-1.44.37-1.84c.25-.4.63-.6,1.16-.6s.88.2,1.13.61c.25.41.37,1.02.37,1.84ZM418.24,107.5c0-.73-.08-1.26-.25-1.59s-.44-.5-.82-.5-.67.17-.84.5c-.17.33-.25.86-.25,1.59s.09,1.24.26,1.58.45.51.82.51.64-.18.82-.53c.18-.35.27-.87.27-1.56Z"/>
  </g>
  <rect class="cls-7" x="426.18" y="102.09" width="21.8" height="11.42"/>
  <g class="cls-11">
    <path class="cls-15" d="M431.52,107.83v-.89h.81v.89h-.81ZM433.5,107.83v-.89h.81v.89h-.81ZM435.48,107.83v-.89h.81v.89h-.81Z"/>
    <path class="cls-15" d="M437.15,107.83v-.89h.81v.89h-.81ZM439.13,107.83v-.89h.81v.89h-.81ZM441.11,107.83v-.89h.81v.89h-.81Z"/>
  </g>
  <rect class="cls-7" x="351.95" y="117.14" width="17.65" height="11.42"/>
  <g class="cls-11">
    <path class="cls-15" d="M362.93,122.54c0,.49-.09.93-.28,1.3-.18.38-.45.67-.78.87-.34.2-.74.3-1.2.3s-.87-.1-1.21-.3c-.34-.2-.6-.49-.77-.86-.18-.38-.27-.81-.27-1.31,0-.76.2-1.35.6-1.78.4-.43.95-.65,1.66-.65.46,0,.86.1,1.2.29s.6.48.78.84c.18.37.27.8.27,1.29ZM362.46,122.54c0-.63-.16-1.13-.47-1.5-.31-.37-.75-.55-1.31-.55s-1.01.18-1.32.54c-.31.36-.47.86-.47,1.51s.16,1.15.48,1.53c.32.38.75.56,1.31.56s1.01-.18,1.32-.55.46-.88.46-1.54Z"/>
  </g>
  <rect class="cls-7" x="369.6" y="117.14" width="21.8" height="11.42"/>
  <g class="cls-11">
    <path class="cls-15" d="M378.08,123.65c0,.43-.13.76-.39,1-.26.24-.62.35-1.1.35-.86,0-1.36-.39-1.51-1.17l.42-.09c.07.31.19.54.37.68.18.14.42.21.72.21.34,0,.6-.08.78-.25.18-.16.27-.4.27-.71,0-.18-.03-.32-.09-.43-.06-.11-.15-.2-.25-.28-.11-.07-.23-.13-.37-.18-.14-.05-.3-.1-.46-.15-.35-.11-.6-.21-.76-.32-.16-.11-.28-.24-.36-.41-.08-.16-.13-.36-.13-.6,0-.39.12-.68.35-.9.24-.21.57-.32.99-.32.4,0,.71.08.95.25.23.17.39.42.48.77l-.42.1c-.06-.26-.18-.45-.34-.58-.17-.12-.39-.18-.67-.18s-.51.07-.67.21c-.16.14-.24.35-.24.62,0,.17.03.31.09.42.06.11.15.21.28.29.12.08.35.17.67.27.37.12.63.22.78.3.15.08.26.17.35.27.08.1.15.22.19.35.04.13.07.28.07.45Z"/>
    <path class="cls-15" d="M381.89,121.58c0,.28-.06.53-.19.75-.13.22-.31.39-.56.51s-.53.18-.86.18h-.81v1.91h-.45v-4.76h1.24c.52,0,.92.12,1.2.37.29.25.43.59.43,1.03ZM381.43,121.59c0-.33-.1-.58-.31-.77-.21-.18-.51-.28-.92-.28h-.73v2.13h.76c.38,0,.68-.09.89-.28s.31-.45.31-.8Z"/>
    <path class="cls-15" d="M382.56,124.94v-.3c.1-.26.25-.52.45-.78.2-.26.49-.55.87-.88.39-.34.67-.62.82-.85.16-.23.24-.48.24-.73,0-.29-.08-.52-.25-.68-.16-.16-.39-.24-.69-.24-.27,0-.48.08-.65.23-.17.16-.27.37-.3.64l-.43-.05c.03-.36.18-.64.43-.86.25-.22.57-.33.96-.33.43,0,.77.11,1.01.33.24.22.36.53.36.92,0,.2-.04.39-.11.57-.07.18-.18.36-.32.53-.14.18-.39.42-.74.73-.61.54-.99,1-1.15,1.37h2.39v.38h-2.89Z"/>
  </g>
  <rect class="cls-7" x="391.4" y="117.14" width="17.65" height="11.42"/>
  <g class="cls-11">
    <path class="cls-15" d="M396.82,124.94v-.36h1.22v-3.96l-1.09.72v-.39l1.14-.78h.38v4.4h1.04v.36h-2.68Z"/>
    <path class="cls-15" d="M403.24,123.38c0,.5-.13.9-.38,1.19-.25.29-.59.43-1.03.43-.48,0-.85-.2-1.11-.59-.26-.39-.38-.98-.38-1.75,0-.85.13-1.49.4-1.92.27-.43.67-.64,1.19-.64.32,0,.58.07.77.21.19.14.33.35.42.65l-.41.09c-.12-.39-.39-.59-.81-.59-.37,0-.65.18-.85.53-.2.35-.29.87-.3,1.55.11-.21.27-.37.46-.48.19-.11.42-.17.67-.17.41,0,.74.13.98.4s.37.63.37,1.09ZM402.8,123.41c0-.37-.09-.65-.26-.86s-.42-.31-.75-.31c-.18,0-.35.04-.5.12-.15.08-.27.2-.36.36-.09.16-.13.34-.13.54,0,.4.09.74.28,1,.19.26.43.39.73.39s.55-.11.72-.33c.17-.22.26-.52.26-.91Z"/>
  </g>
  <rect class="cls-7" x="408.53" y="117.14" width="17.65" height="11.42"/>
  <g class="cls-11">
    <path class="cls-15" d="M418.67,122.56c0,.8-.13,1.4-.39,1.82s-.64.63-1.14.63-.87-.21-1.13-.62c-.25-.41-.38-1.02-.38-1.83s.12-1.44.37-1.84c.25-.4.63-.6,1.16-.6s.88.2,1.13.61c.25.41.37,1.02.37,1.84ZM418.24,122.56c0-.73-.08-1.26-.25-1.59s-.44-.5-.82-.5-.67.17-.84.5c-.17.33-.25.86-.25,1.59s.09,1.24.26,1.58.45.51.82.51.64-.18.82-.53c.18-.35.27-.87.27-1.56Z"/>
  </g>
  <rect class="cls-7" x="426.18" y="117.14" width="21.8" height="11.42"/>
  <g class="cls-11">
    <path class="cls-15" d="M431.52,122.88v-.89h.81v.89h-.81ZM433.5,122.88v-.89h.81v.89h-.81ZM435.48,122.88v-.89h.81v.89h-.81Z"/>
    <path class="cls-15" d="M437.15,122.88v-.89h.81v.89h-.81ZM439.13,122.88v-.89h.81v.89h-.81ZM441.11,122.88v-.89h.81v.89h-.81Z"/>
  </g>
  <rect class="cls-7" x="351.95" y="132.71" width="17.65" height="10.9"/>
  <g class="cls-11">
    <path class="cls-15" d="M362.93,137.59c0,.49-.09.93-.28,1.3-.18.38-.45.67-.78.87-.34.2-.74.3-1.2.3s-.87-.1-1.21-.3c-.34-.2-.6-.49-.77-.86-.18-.38-.27-.81-.27-1.31,0-.76.2-1.35.6-1.78.4-.43.95-.65,1.66-.65.46,0,.86.1,1.2.29s.6.48.78.84c.18.37.27.8.27,1.29ZM362.46,137.59c0-.63-.16-1.13-.47-1.5-.31-.37-.75-.55-1.31-.55s-1.01.18-1.32.54c-.31.36-.47.86-.47,1.51s.16,1.15.48,1.53c.32.38.75.56,1.31.56s1.01-.18,1.32-.55.46-.88.46-1.54Z"/>
  </g>
  <rect class="cls-7" x="369.6" y="132.71" width="21.8" height="10.9"/>
  <g class="cls-11">
    <path class="cls-15" d="M378.08,138.71c0,.43-.13.76-.39,1-.26.24-.62.35-1.1.35-.86,0-1.36-.39-1.51-1.17l.42-.09c.07.31.19.54.37.68.18.14.42.21.72.21.34,0,.6-.08.78-.25.18-.16.27-.4.27-.71,0-.18-.03-.32-.09-.43-.06-.11-.15-.2-.25-.28-.11-.07-.23-.13-.37-.18-.14-.05-.3-.1-.46-.15-.35-.11-.6-.21-.76-.32-.16-.11-.28-.24-.36-.41-.08-.16-.13-.36-.13-.6,0-.39.12-.68.35-.9.24-.21.57-.32.99-.32.4,0,.71.08.95.25.23.17.39.42.48.77l-.42.1c-.06-.26-.18-.45-.34-.58-.17-.12-.39-.18-.67-.18s-.51.07-.67.21c-.16.14-.24.35-.24.62,0,.17.03.31.09.42.06.11.15.21.28.29.12.08.35.17.67.27.37.12.63.22.78.3.15.08.26.17.35.27.08.1.15.22.19.35.04.13.07.28.07.45Z"/>
    <path class="cls-15" d="M381.89,136.63c0,.28-.06.53-.19.75-.13.22-.31.39-.56.51s-.53.18-.86.18h-.81v1.91h-.45v-4.76h1.24c.52,0,.92.12,1.2.37.29.25.43.59.43,1.03ZM381.43,136.64c0-.33-.1-.58-.31-.77-.21-.18-.51-.28-.92-.28h-.73v2.13h.76c.38,0,.68-.09.89-.28s.31-.45.31-.8Z"/>
    <path class="cls-15" d="M385.45,138.68c0,.44-.13.78-.39,1.02-.26.24-.62.36-1.09.36-.9,0-1.4-.41-1.5-1.23l.44-.05c.08.61.43.92,1.07.92.34,0,.59-.09.77-.26.18-.17.27-.42.27-.76,0-.3-.11-.52-.32-.68-.21-.16-.51-.23-.89-.23h-.32v-.4h.31c.21,0,.4-.04.56-.1s.29-.17.39-.31.14-.3.14-.51c0-.3-.08-.53-.23-.69-.16-.16-.39-.24-.69-.24-.27,0-.5.07-.67.21-.17.14-.27.36-.3.65l-.43-.04c.04-.38.19-.67.43-.87.25-.21.57-.31.96-.31.43,0,.76.11,1,.33.24.22.36.53.36.93,0,.29-.08.54-.25.74-.17.2-.4.33-.7.4h0c.34.06.6.18.79.38.19.2.29.45.29.75Z"/>
  </g>
  <rect class="cls-7" x="391.4" y="132.71" width="17.65" height="10.9"/>
  <g class="cls-11">
    <path class="cls-15" d="M396.82,139.99v-.36h1.22v-3.96l-1.09.72v-.39l1.14-.78h.38v4.4h1.04v.36h-2.68Z"/>
    <path class="cls-15" d="M403.24,138.43c0,.5-.13.9-.38,1.19-.25.29-.59.43-1.03.43-.48,0-.85-.2-1.11-.59-.26-.39-.38-.98-.38-1.75,0-.85.13-1.49.4-1.92.27-.43.67-.64,1.19-.64.32,0,.58.07.77.21.19.14.33.35.42.65l-.41.09c-.12-.39-.39-.59-.81-.59-.37,0-.65.18-.85.53-.2.35-.29.87-.3,1.55.11-.21.27-.37.46-.48.19-.11.42-.17.67-.17.41,0,.74.13.98.4s.37.63.37,1.09ZM402.8,138.46c0-.37-.09-.65-.26-.86s-.42-.31-.75-.31c-.18,0-.35.04-.5.12-.15.08-.27.2-.36.36-.09.16-.13.34-.13.54,0,.4.09.74.28,1,.19.26.43.39.73.39s.55-.11.72-.33c.17-.22.26-.52.26-.91Z"/>
  </g>
  <rect class="cls-7" x="408.53" y="132.71" width="17.65" height="10.9"/>
  <g class="cls-11">
    <path class="cls-15" d="M418.67,137.61c0,.8-.13,1.4-.39,1.82s-.64.63-1.14.63-.87-.21-1.13-.62c-.25-.41-.38-1.02-.38-1.83s.12-1.44.37-1.84c.25-.4.63-.6,1.16-.6s.88.2,1.13.61c.25.41.37,1.02.37,1.84ZM418.24,137.61c0-.73-.08-1.26-.25-1.59s-.44-.5-.82-.5-.67.17-.84.5c-.17.33-.25.86-.25,1.59s.09,1.24.26,1.58.45.51.82.51.64-.18.82-.53c.18-.35.27-.87.27-1.56Z"/>
  </g>
  <rect class="cls-7" x="426.18" y="132.71" width="21.8" height="10.9"/>
  <g class="cls-11">
    <path class="cls-15" d="M431.52,137.93v-.89h.81v.89h-.81ZM433.5,137.93v-.89h.81v.89h-.81ZM435.48,137.93v-.89h.81v.89h-.81Z"/>
    <path class="cls-15" d="M437.15,137.93v-.89h.81v.89h-.81ZM439.13,137.93v-.89h.81v.89h-.81ZM441.11,137.93v-.89h.81v.89h-.81Z"/>
  </g>
  <g class="cls-11">
    <path class="cls-9" d="M354.58,28.12c.6-.63.89-1.65.88-3.06v-1.48c0-.16-.01-.34-.04-.54.22.02.42.04.58.04h3.56c.19,0,.39-.01.58-.04v.39c-.2-.02-.4-.04-.58-.04h-1.68l.28.1s.05.04.05.05c0,.02-.02.03-.05.04-.12.03-.21.09-.26.19-.07.13-.14.26-.22.39h1.3c.18,0,.39-.01.63-.04-.02.23-.04.45-.04.64v.92c0,.19.01.41.04.67-.21-.02-.43-.04-.65-.04h-.79v1.58c.01.25-.03.4-.13.44-.07.06-.34.11-.8.16-.05-.17-.12-.33-.21-.47.23.03.41.05.52.05.08,0,.12,0,.15-.02.08-.01.12-.1.11-.27v-1.46h-.73c-.19,0-.42.01-.69.04.03-.23.04-.46.04-.67v-.95c0-.16-.01-.36-.04-.6.24.02.45.04.63.04h.33c.13-.26.24-.51.32-.77h-1.85v1.87c.02,1.13-.25,2.14-.8,3.03-.16-.08-.31-.13-.44-.17ZM355.7,27.84c.55-.28.92-.69,1.12-1.22l.45.23s.03.02.02.04c0,.01-.03.03-.06.03-.09.02-.17.08-.24.17-.25.34-.55.67-.91.99-.13-.11-.26-.18-.39-.24ZM359.24,25.09v-.61h-2.45v.61h2.45ZM356.79,25.4v.61h2.45v-.61h-2.45ZM358.69,26.93l.25-.26c.44.38.85.75,1.23,1.12l-.29.28c-.34-.38-.73-.76-1.19-1.13Z"/>
    <path class="cls-9" d="M360.94,25.63v-.4c.15.02.3.04.46.04h2.07v-.28c0-.1-.01-.22-.04-.36.7-.46,1.22-.87,1.54-1.25h-2.91c-.15,0-.32.01-.5.04v-.4c.15.02.31.04.49.04h3.15c.17,0,.39-.01.65-.04-.44.51-1.11,1.11-2,1.8v.45h2.04c.17,0,.33-.01.47-.04v.4c-.15-.02-.31-.04-.46-.04h-2.05v2.15c0,.3-.06.49-.2.57-.12.1-.42.16-.89.18-.03-.17-.1-.34-.21-.5.22.03.39.04.52.04.12,0,.2-.01.25-.04.11-.03.16-.16.15-.38v-2.02h-2.07c-.17,0-.32.01-.46.04Z"/>
  </g>
  <g class="cls-11">
    <path class="cls-9" d="M354.62,35.95c1.31-.15,2.1-.59,2.34-1.34h-1.73c-.19,0-.36.01-.51.03v-.39c.33.02.5.03.51.03h1.79c.02-.11.03-.22.03-.34,0-.05,0-.1,0-.16l.49.06s.06.02.06.04,0,.05-.04.07c-.07.05-.12.16-.15.32h2.21c.26-.01.42-.02.5-.03v.39c-.2-.02-.37-.03-.5-.03h-1.79c.54.74,1.3,1.14,2.27,1.23-.17.21-.28.37-.32.46-1.05-.27-1.85-.83-2.39-1.68h-.04c-.17.84-.98,1.43-2.43,1.79-.13-.22-.22-.37-.29-.45ZM355.39,32.12h1.85v-1.02c0-.17-.02-.36-.04-.57l.46.06s.04.02.04.04c0,.02-.02.05-.05.08-.05.01-.07.15-.06.42v.99h1.85c.14,0,.31-.02.5-.04v.4c-.2-.02-.36-.04-.5-.04h-1.85v.11c.91.36,1.59.65,2.04.89l-.26.39c-.43-.32-1.02-.62-1.78-.92v.26c0,.16.02.33.04.52h-.43c.02-.19.04-.36.04-.51v-.62c-.74.61-1.46,1.04-2.15,1.31-.07-.12-.18-.26-.34-.42.72-.1,1.41-.43,2.05-1h-1.41c-.16,0-.32.02-.5.04v-.4c.18.02.35.03.5.04ZM355.73,31.05l.27-.26c.32.32.61.62.84.9l-.33.26c-.23-.33-.49-.63-.78-.91ZM357.82,31.78c.47-.39.8-.75.99-1.07l.39.3s.04.05.03.08c-.01.02-.04.03-.08.04-.1.01-.19.06-.26.14-.29.33-.55.58-.76.76-.1-.09-.2-.17-.31-.24Z"/>
    <path class="cls-9" d="M361.41,35.74h2.11v-.82h-1.41c-.08,0-.25.01-.5.04v-.39c.22.02.39.03.5.04h1.41v-.17c0-.13-.02-.33-.04-.59l.45.07s.07.01.07.02c0,.01,0,.03-.03.07-.08.07-.11.23-.11.48v.12h1.34c.11,0,.28-.01.5-.04v.39c-.24-.03-.4-.04-.5-.04h-1.34v.82h1.99c.13,0,.3-.02.5-.04v.39c-.23-.02-.4-.04-.5-.04h-4.45c-.12,0-.29.02-.5.04v-.39c.21.02.38.04.5.04ZM363.04,32.65h-.79c-.06.57-.33,1.09-.82,1.56-.14-.11-.28-.2-.42-.26.52-.23.82-.67.89-1.3h-.38c-.13,0-.3.02-.51.04v-.39c.21.02.39.03.51.04h.42c.01-.28.02-.61.01-.97h-.15c-.11,0-.28.02-.51.04v-.39c.23.03.4.04.51.04h1.75c.12,0,.29-.02.5-.04v.39c-.21-.02-.37-.03-.5-.04h-.16v.97h.38c.1,0,.27-.01.5-.04v.39c-.21-.02-.38-.03-.5-.04h-.38v.7c0,.1.01.27.04.52h-.42c.02-.21.03-.38.04-.52v-.7ZM362.27,32.34h.77v-.97h-.73c0,.3-.01.62-.03.97ZM364.97,31.77v1.12c0,.1.01.27.04.52h-.41c.02-.23.04-.41.04-.52v-1.18c0-.17-.02-.37-.04-.59l.46.06s.07.01.07.02,0,.03-.04.06c-.08.09-.12.25-.12.49ZM365.76,30.7l.45.06s.07.02.07.03c0,0-.01.03-.04.07-.07.06-.1.22-.09.47v2.07c0,.26-.05.44-.17.52-.12.1-.36.16-.71.18-.03-.18-.09-.33-.18-.45.15.02.26.03.35.03.1,0,.18-.01.23-.03.1-.04.15-.14.14-.3v-2.07c0-.13-.02-.32-.04-.58Z"/>
  </g>
  <g class="cls-11">
    <path class="cls-9" d="M375.32,26.09h1.97v-.27c0-.15-.01-.33-.04-.54l.49.06s.07.01.07.02-.02.03-.06.05c-.07.03-.1.16-.1.4v.27h1.96c.18,0,.36-.01.54-.04v.4c-.17-.02-.36-.04-.54-.04h-1.96v1.55c0,.2-.05.33-.17.39-.11.07-.35.12-.74.14-.03-.15-.1-.31-.21-.49.22.03.38.05.5.05.05,0,.09,0,.12,0,.1-.02.14-.08.14-.19v-1.44h-1.97c-.17,0-.36.01-.55.04v-.4c.21.02.4.04.55.04ZM374.79,28.11c.57-.36.98-.81,1.24-1.34l.43.27s.04.03.04.04c0,0,0,.01-.01.02,0,.01-.04.02-.1.03-.08.03-.17.11-.28.24-.25.32-.55.65-.9.99-.12-.11-.26-.19-.42-.25ZM374.96,25.51c1.1-.22,1.69-.74,1.77-1.58l-.99.04c-.18,0-.37.02-.56.05l-.02-.39c.12.02.25.02.4.02.06,0,.11,0,.16,0l1.08-.03c.02-.19.03-.37.03-.52,0-.12,0-.23-.01-.32l.53.06s.06.02.06.03c0,.01-.02.03-.07.06-.08.03-.12.11-.12.24-.01.15-.02.3-.04.43l1.1-.04c.18,0,.38-.02.62-.06-.05.2-.08.38-.08.54l-.04.76c0,.05,0,.1,0,.15,0,.08,0,.14.02.17.02.04.09.07.2.09.08,0,.16.01.24.01.11,0,.22,0,.33-.03.15-.03.22-.21.21-.52.14.09.29.16.42.19-.11.44-.31.67-.59.68-.08.01-.19.02-.34.02-.16,0-.29,0-.39-.01-.21-.02-.34-.08-.39-.17-.05-.07-.07-.21-.07-.42,0-.05,0-.11,0-.19l.04-.92-1.34.06c-.14.97-.75,1.61-1.83,1.94-.08-.13-.19-.24-.34-.35ZM378.62,26.75c.42.33.84.69,1.27,1.07l-.28.33c-.41-.38-.83-.74-1.27-1.08l.28-.32Z"/>
    <path class="cls-9" d="M380.82,25.62c.71-.58,1.31-1.53,1.82-2.86l.46.24s.06.04.06.05c0,.01-.02.03-.07.05-.09.04-.18.15-.27.34-.12.26-.26.52-.4.77v3.7c0,.17.02.36.04.59h-.42c.02-.24.04-.43.04-.59v-3.13c-.24.38-.51.76-.81,1.13-.13-.11-.27-.21-.43-.3ZM384.35,23.46v2.2c.67-.6,1.18-1.19,1.54-1.79l.38.33s.06.06.05.07-.03.03-.08.05c-.08,0-.19.09-.34.27-.56.64-1.08,1.16-1.54,1.56v1.4c0,.19.03.3.12.33.09.05.31.08.65.08s.58-.03.7-.08c.12-.04.2-.14.23-.29.03-.13.05-.31.08-.55.1.09.25.16.45.2,0,.04-.02.08-.03.13-.02.09-.04.16-.05.23-.1.47-.39.7-.88.7-.17,0-.32,0-.45,0-.22,0-.43,0-.64-.02-.34-.03-.52-.22-.54-.56v-1.31c-.28.2-.58.41-.92.63-.13-.17-.25-.31-.37-.39.33-.07.76-.31,1.29-.7v-2.52c0-.13-.01-.33-.04-.59l.48.06s.07.01.07.03c0,0-.01.03-.05.07-.07.06-.1.21-.1.45Z"/>
  </g>
  <g class="cls-11">
    <path class="cls-9" d="M374.69,35.95c1.31-.15,2.1-.59,2.34-1.34h-1.73c-.19,0-.36.01-.51.03v-.39c.33.02.5.03.51.03h1.79c.02-.11.03-.22.03-.34,0-.05,0-.1,0-.16l.49.06s.06.02.06.04,0,.05-.04.07c-.07.05-.12.16-.15.32h2.21c.26-.01.42-.02.5-.03v.39c-.2-.02-.37-.03-.5-.03h-1.79c.54.74,1.3,1.14,2.27,1.23-.17.21-.28.37-.32.46-1.05-.27-1.85-.83-2.39-1.68h-.04c-.17.84-.98,1.43-2.43,1.79-.13-.22-.22-.37-.29-.45ZM375.45,32.12h1.85v-1.02c0-.17-.02-.36-.04-.57l.46.06s.04.02.04.04c0,.02-.02.05-.05.08-.05.01-.07.15-.06.42v.99h1.85c.14,0,.31-.02.5-.04v.4c-.2-.02-.36-.04-.5-.04h-1.85v.11c.91.36,1.59.65,2.04.89l-.26.39c-.43-.32-1.02-.62-1.78-.92v.26c0,.16.02.33.04.52h-.43c.02-.19.04-.36.04-.51v-.62c-.74.61-1.46,1.04-2.15,1.31-.07-.12-.18-.26-.34-.42.72-.1,1.41-.43,2.05-1h-1.41c-.16,0-.32.02-.5.04v-.4c.18.02.35.03.5.04ZM375.8,31.05l.27-.26c.32.32.61.62.84.9l-.33.26c-.23-.33-.49-.63-.78-.91ZM377.89,31.78c.47-.39.8-.75.99-1.07l.39.3s.04.05.03.08c-.01.02-.04.03-.08.04-.1.01-.19.06-.26.14-.29.33-.55.58-.76.76-.1-.09-.2-.17-.31-.24Z"/>
    <path class="cls-9" d="M381.48,35.74h2.11v-.82h-1.41c-.08,0-.25.01-.5.04v-.39c.22.02.39.03.5.04h1.41v-.17c0-.13-.02-.33-.04-.59l.45.07s.07.01.07.02c0,.01,0,.03-.03.07-.08.07-.11.23-.11.48v.12h1.34c.11,0,.28-.01.5-.04v.39c-.24-.03-.4-.04-.5-.04h-1.34v.82h1.99c.13,0,.3-.02.5-.04v.39c-.23-.02-.4-.04-.5-.04h-4.45c-.12,0-.29.02-.5.04v-.39c.21.02.38.04.5.04ZM383.1,32.65h-.79c-.06.57-.33,1.09-.82,1.56-.14-.11-.28-.2-.42-.26.52-.23.82-.67.89-1.3h-.38c-.13,0-.3.02-.51.04v-.39c.21.02.39.03.51.04h.42c.01-.28.02-.61.01-.97h-.15c-.11,0-.28.02-.51.04v-.39c.23.03.4.04.51.04h1.75c.12,0,.29-.02.5-.04v.39c-.21-.02-.37-.03-.5-.04h-.16v.97h.38c.1,0,.27-.01.5-.04v.39c-.21-.02-.38-.03-.5-.04h-.38v.7c0,.1.01.27.04.52h-.42c.02-.21.03-.38.04-.52v-.7ZM382.33,32.34h.77v-.97h-.73c0,.3-.01.62-.03.97ZM385.03,31.77v1.12c0,.1.01.27.04.52h-.41c.02-.23.04-.41.04-.52v-1.18c0-.17-.02-.37-.04-.59l.46.06s.07.01.07.02,0,.03-.04.06c-.08.09-.12.25-.12.49ZM385.82,30.7l.45.06s.07.02.07.03c0,0-.01.03-.04.07-.07.06-.1.22-.09.47v2.07c0,.26-.05.44-.17.52-.12.1-.36.16-.71.18-.03-.18-.09-.33-.18-.45.15.02.26.03.35.03.1,0,.18-.01.23-.03.1-.04.15-.14.14-.3v-2.07c0-.13-.02-.32-.04-.58Z"/>
  </g>
  <g class="cls-11">
    <path class="cls-9" d="M395.64,27.42c.11,0,.27,0,.47,0,1.57,0,2.75-.15,3.52-.45l.32.39s.06.08.06.1c0,0,0,.02,0,.02,0,.02-.03.03-.07.03-.02,0-.04,0-.07,0-.03,0-.08-.01-.13-.01-.08,0-.19.01-.33.03-.76.13-1.89.22-3.36.29v1.6c0,.64-.04,1.15-.14,1.53-.1.39-.29.83-.58,1.31-.15-.08-.32-.15-.5-.2.55-.42.84-1.35.86-2.79v-1.23c0-.21,0-.41-.04-.6ZM398.08,30.05l.5.06c.07,0,.1.03.11.05,0,.02-.02.05-.08.1-.08.05-.13.19-.14.4,0,.97-.71,1.63-2.12,1.99-.06-.15-.17-.29-.31-.42.79-.07,1.35-.27,1.68-.62.26-.28.39-.67.39-1.19,0-.12,0-.25-.02-.38ZM396.56,28.37h1.41c.01-.13.02-.22.02-.29,0-.03,0-.06,0-.11,0-.05,0-.1,0-.16l.55.09s.06.02.06.04c0,.02-.03.04-.07.06-.04.03-.08.08-.12.14-.02.09-.04.17-.06.23h1.74c.12,0,.25,0,.38-.04v.39c-.14-.03-.27-.04-.39-.04h-1.77c-.04.23-.08.46-.13.7h1.29c.13,0,.28,0,.43-.04-.03.14-.04.29-.04.44v1.21c0,.15,0,.32.04.52h-.42c.03-.17.04-.35.04-.53v-1.28h-2.34v1.36c0,.2,0,.38.04.52h-.42c.03-.15.04-.32.04-.52v-1.23c0-.17,0-.32-.04-.47.16.03.31.04.46.04h.55c.06-.26.1-.49.12-.7h-1.35c-.13,0-.27,0-.43.04v-.39c.13.03.27.04.41.04ZM398.49,31.57l.26-.36c.71.39,1.31.74,1.81,1.05l-.27.37c-.54-.44-1.14-.79-1.8-1.06Z"/>
    <path class="cls-9" d="M406.75,29.03v.36c-.18-.03-.35-.04-.5-.04h-4.62c-.15,0-.32,0-.5.04v-.36c.15.03.31.04.5.04h4.62c.15,0,.31,0,.5-.04ZM401.79,32.18h2.03v-.35h-1.58c-.19,0-.36,0-.51.04v-.36c.15.03.32.04.51.04h1.58v-.36h-1.33c-.19,0-.36,0-.52.04.03-.19.04-.36.04-.52v-.59c0-.15,0-.32-.04-.51.18.03.34.04.5.04h2.98c.15,0,.33,0,.54-.04-.03.18-.04.35-.04.5v.6c0,.17,0,.35.04.52-.21-.02-.39-.04-.54-.04h-1.28v.36h1.48c.15,0,.32,0,.51-.04v.36c-.19-.03-.36-.04-.51-.04h-1.48v.35h1.94c.14,0,.31,0,.51-.04v.36c-.21-.03-.38-.04-.51-.04h-4.33c-.15,0-.32.01-.51.05v-.37c.16.03.33.04.51.04ZM405.87,27.25c-.03.15-.04.29-.04.43v.7c0,.12,0,.27.04.44-.2-.03-.34-.04-.45-.04h-2.89c-.13,0-.23,0-.29,0-.06,0-.13.01-.22.03.03-.16.04-.31.04-.44v-.66c0-.14-.01-.3-.04-.47.13.03.29.04.48.04h2.93c.12,0,.26,0,.44-.04ZM402.35,29.9v.37h1.47v-.37h-1.47ZM402.35,30.53v.39h1.47v-.39h-1.47ZM402.4,27.56v.35h3.1v-.35h-3.1ZM402.4,28.17v.36h3.1v-.36h-3.1ZM404.17,29.9v.37h1.44v-.37h-1.44ZM404.17,30.53v.39h1.44v-.39h-1.44Z"/>
  </g>
  <g class="cls-11">
    <path class="cls-9" d="M412.44,29.29h2.5c-.16-.19-.37-.39-.64-.62l.29-.27c.23.2.46.42.69.65l-.27.24h1.86c.18,0,.35-.01.52-.04v.39c-.17-.03-.34-.04-.52-.04h-2.7c0,.23-.03.48-.05.74h1.71c.21,0,.41-.01.6-.04-.02.19-.04.39-.05.57-.03.87-.1,1.33-.2,1.38-.04.17-.38.29-1.03.35-.03-.15-.09-.31-.18-.47.2.02.36.04.49.04.06,0,.1,0,.13,0,.12-.01.22-.06.29-.14.06.03.11-.43.15-1.37h-1.95c-.13.81-.67,1.49-1.59,2.04-.11-.13-.23-.25-.39-.37,1.19-.38,1.76-1.29,1.71-2.72h-1.37c-.15,0-.33.01-.54.04v-.39c.21.02.39.04.54.04ZM412.56,27.77h.97v-.17c0-.2-.01-.42-.04-.65l.46.07s.07.02.07.03c0,.01-.01.04-.05.08-.05.05-.08.21-.08.47v.17h1.61v-.19c0-.2-.01-.43-.04-.67l.46.06s.07.01.08.03-.01.04-.05.08c-.07.04-.1.21-.09.5v.19h.87c.2,0,.38-.01.57-.04v.39c-.17-.02-.36-.04-.57-.04h-.87v.1c0,.17.01.35.04.56h-.43c.03-.2.04-.38.04-.56v-.1h-1.61v.1c0,.17.01.35.04.56h-.43c.03-.19.04-.38.04-.56v-.1h-.97c-.17,0-.35.01-.55.04v-.39c.19.02.37.04.55.04Z"/>
    <path class="cls-9" d="M417.99,30.09c.85-.25,1.59-.76,2.24-1.53h-1.46c-.18,0-.37.01-.56.04v-.39c.2.02.39.04.56.04h1.92v-.65c-.52.04-1.17.08-1.97.11-.03-.13-.08-.26-.16-.4.17.04.45.05.84.04.41,0,.86-.03,1.36-.08,1.04-.1,1.66-.22,1.85-.35l.26.37c.04.05.06.09.05.1,0,.01-.02.02-.04.02-.02,0-.04,0-.06,0-.05-.01-.11-.02-.18-.02-.1,0-.22.01-.35.03-.41.05-.83.1-1.25.15v.68h1.84c.17,0,.35-.01.53-.04v.39c-.17-.03-.35-.04-.53-.04h-1.43c.69.72,1.44,1.16,2.27,1.32-.15.1-.27.22-.39.39-.9-.39-1.67-.94-2.29-1.66v.76c0,.17.01.36.04.57h-.42c.02-.2.04-.39.04-.57v-.81h-.03c-.52.73-1.29,1.36-2.32,1.89-.08-.14-.2-.26-.35-.36ZM419.21,30.08c.19.02.37.04.54.04h2.25c.17,0,.35-.01.54-.04-.02.18-.04.34-.04.5v1.42c0,.15.01.34.04.55h-.42c.02-.15.04-.26.04-.35h-2.56c0,.18.01.34.04.49h-.43c.03-.19.04-.37.04-.56v-1.55c0-.15-.01-.32-.04-.5ZM422.15,31.02v-.59h-2.56v.59h2.56ZM419.59,31.33v.57h2.56v-.57h-2.56Z"/>
    <path class="cls-9" d="M424.36,29.74c.16-.38.26-.88.3-1.5l.4.08c.05,0,.08.02.08.02,0,0,0,.03-.04.07-.06.06-.1.15-.12.25-.08.42-.15.8-.24,1.14-.1-.03-.23-.05-.39-.06ZM425.3,26.96l.46.07s.06.01.06.03,0,.04-.04.06c-.08.07-.11.21-.11.41v4.5c0,.13.01.35.04.64h-.41c.02-.25.04-.46.04-.64v-4.56c0-.12-.02-.29-.04-.52ZM426.12,28.09c.12.33.24.68.35,1.05l-.35.12c-.1-.42-.21-.78-.33-1.06l.33-.11ZM426.14,29.77c.48-.54.75-1.31.82-2.32l.47.15s.06.02.07.03c0,0-.02.02-.05.04-.08.04-.15.15-.19.33-.01.06-.03.15-.07.27-.02.08-.04.14-.04.17h.86v-.91c0-.11-.01-.31-.04-.6l.46.07c.05,0,.08.02.08.05,0,.02,0,.04-.04.07-.07.07-.1.22-.11.45v.88h.75c.09,0,.25-.02.46-.04v.39c-.17-.02-.33-.03-.46-.04h-.75v1.31h.58c.08,0,.24-.01.47-.04v.39c-.21-.02-.37-.04-.47-.04h-.58v1.65h.93s.16,0,.36-.02h.11v.37c-.23-.03-.38-.04-.47-.04h-2.39c-.09,0-.24.01-.47.04v-.37s.08,0,.16,0c.17.01.27.02.31.02h1.11v-1.65h-.63c-.1,0-.26.01-.46.04v-.39c.2.02.35.03.46.04h.63v-1.31h-.93c-.11.33-.28.73-.52,1.21-.12-.08-.26-.14-.42-.18Z"/>
  </g>
  <rect class="cls-1" x="472.38" y="48.62" width="26.99" height="11.42"/>
  <g class="cls-11">
    <path class="cls-10" d="M477.9,54.62c0-.64.09-1.19.27-1.65.18-.46.46-.95.85-1.46h.75c-.4.53-.68,1.02-.86,1.49-.18.47-.27,1.01-.27,1.63s.09,1.16.26,1.63c.18.47.46.97.86,1.5h-.75c-.39-.52-.68-1.01-.86-1.48s-.26-1.02-.26-1.65Z"/>
    <path class="cls-10" d="M480.37,55.79h1.23v-3.43l-1.12.71v-.65l1.16-.78h.73v4.14h1.05v.63h-3.06v-.63Z"/>
    <path class="cls-10" d="M484.98,56.22c0,.25-.02.46-.07.64-.05.18-.13.36-.24.54h-.52c.26-.35.39-.67.39-.98h-.37v-.89h.81v.69Z"/>
  </g>
  <g class="cls-11">
    <path class="cls-10" d="M490.27,55.42v1h-.75v-1h-2.12v-.64l1.96-3.13h.9v3.14h.7v.63h-.7ZM489.52,52.47l-1.44,2.33h1.44v-2.33Z"/>
    <path class="cls-10" d="M493.11,54.63c0,.63-.09,1.17-.26,1.63-.17.46-.46.96-.86,1.49h-.75c.41-.54.69-1.05.87-1.51.17-.46.26-1,.26-1.61s-.09-1.15-.26-1.61c-.17-.46-.46-.97-.87-1.51h.75c.41.54.69,1.04.86,1.5.17.46.25,1,.25,1.63Z"/>
  </g>
  <rect class="cls-1" x="472.38" y="60.04" width="26.99" height="10.9"/>
  <g class="cls-11">
    <path class="cls-10" d="M477.9,65.52c0-.64.09-1.19.27-1.65.18-.46.46-.95.85-1.46h.75c-.4.53-.68,1.02-.86,1.49-.18.47-.27,1.01-.27,1.63s.09,1.16.26,1.63c.18.47.46.97.86,1.5h-.75c-.39-.52-.68-1.01-.86-1.48s-.26-1.02-.26-1.65Z"/>
    <path class="cls-10" d="M482.88,66.32v1h-.75v-1h-2.12v-.64l1.96-3.13h.9v3.14h.7v.63h-.7ZM482.13,63.37l-1.44,2.33h1.44v-2.33Z"/>
    <path class="cls-10" d="M484.98,67.12c0,.25-.02.46-.07.64-.05.18-.13.36-.24.54h-.52c.26-.35.39-.67.39-.98h-.37v-.89h.81v.69Z"/>
  </g>
  <g class="cls-11">
    <path class="cls-10" d="M487.76,66.7h1.23v-3.43l-1.12.71v-.65l1.16-.78h.73v4.14h1.05v.63h-3.06v-.63Z"/>
    <path class="cls-10" d="M493.11,65.53c0,.63-.09,1.17-.26,1.63-.17.46-.46.96-.86,1.49h-.75c.41-.54.69-1.05.87-1.51.17-.46.26-1,.26-1.61s-.09-1.15-.26-1.61c-.17-.46-.46-.97-.87-1.51h.75c.41.54.69,1.04.86,1.5.17.46.25,1,.25,1.63Z"/>
  </g>
  <rect class="cls-1" x="472.38" y="71.46" width="26.99" height="10.9"/>
  <g class="cls-11">
    <path class="cls-10" d="M477.9,76.94c0-.64.09-1.19.27-1.65.18-.46.46-.95.85-1.46h.75c-.4.53-.68,1.02-.86,1.49-.18.47-.27,1.01-.27,1.63s.09,1.16.26,1.63c.18.47.46.97.86,1.5h-.75c-.39-.52-.68-1.01-.86-1.48s-.26-1.02-.26-1.65Z"/>
    <path class="cls-10" d="M480.2,78.74v-.54c.11-.26.27-.52.48-.77.21-.25.48-.52.83-.81.42-.35.69-.61.83-.8.13-.19.2-.37.2-.55,0-.23-.06-.41-.19-.53-.13-.12-.31-.19-.54-.19-.45,0-.71.24-.77.73l-.78-.05c.05-.41.21-.73.47-.96.27-.23.62-.34,1.07-.34.49,0,.87.12,1.14.35s.41.56.41.98c0,.2-.04.38-.12.56-.08.17-.19.34-.34.51-.15.17-.39.38-.72.65-.58.46-.94.84-1.08,1.14h2.32v.65h-3.2Z"/>
    <path class="cls-10" d="M484.98,78.54c0,.25-.02.46-.07.64-.05.18-.13.36-.24.54h-.52c.26-.35.39-.67.39-.98h-.37v-.89h.81v.69Z"/>
  </g>
  <g class="cls-11">
    <path class="cls-10" d="M490.27,77.74v1h-.75v-1h-2.12v-.64l1.96-3.13h.9v3.14h.7v.63h-.7ZM489.52,74.79l-1.44,2.33h1.44v-2.33Z"/>
    <path class="cls-10" d="M493.11,76.95c0,.63-.09,1.17-.26,1.63-.17.46-.46.96-.86,1.49h-.75c.41-.54.69-1.05.87-1.51.17-.46.26-1,.26-1.61s-.09-1.15-.26-1.61c-.17-.46-.46-.97-.87-1.51h.75c.41.54.69,1.04.86,1.5.17.46.25,1,.25,1.63Z"/>
  </g>
  <rect class="cls-1" x="472.38" y="82.36" width="26.99" height="11.42"/>
  <g class="cls-11">
    <path class="cls-10" d="M477.9,88.36c0-.64.09-1.19.27-1.65.18-.46.46-.95.85-1.46h.75c-.4.53-.68,1.02-.86,1.49-.18.47-.27,1.01-.27,1.63s.09,1.16.26,1.63c.18.47.46.97.86,1.5h-.75c-.39-.52-.68-1.01-.86-1.48s-.26-1.02-.26-1.65Z"/>
    <path class="cls-10" d="M482.88,89.16v1h-.75v-1h-2.12v-.64l1.96-3.13h.9v3.14h.7v.63h-.7ZM482.13,86.21l-1.44,2.33h1.44v-2.33Z"/>
    <path class="cls-10" d="M484.98,89.96c0,.25-.02.46-.07.64-.05.18-.13.36-.24.54h-.52c.26-.35.39-.67.39-.98h-.37v-.89h.81v.69Z"/>
  </g>
  <g class="cls-11">
    <path class="cls-10" d="M487.59,90.16v-.54c.11-.26.27-.52.48-.77.21-.25.48-.52.83-.81.42-.35.69-.61.83-.8.13-.19.2-.37.2-.55,0-.23-.06-.41-.19-.53-.13-.12-.31-.19-.54-.19-.45,0-.71.24-.77.73l-.78-.05c.05-.41.21-.73.47-.96.27-.23.62-.34,1.07-.34.49,0,.87.12,1.14.35s.41.56.41.98c0,.2-.04.38-.12.56-.08.17-.19.34-.34.51-.15.17-.39.38-.72.65-.58.46-.94.84-1.08,1.14h2.32v.65h-3.2Z"/>
    <path class="cls-10" d="M493.11,88.37c0,.63-.09,1.17-.26,1.63-.17.46-.46.96-.86,1.49h-.75c.41-.54.69-1.05.87-1.51.17-.46.26-1,.26-1.61s-.09-1.15-.26-1.61c-.17-.46-.46-.97-.87-1.51h.75c.41.54.69,1.04.86,1.5.17.46.25,1,.25,1.63Z"/>
  </g>
  <rect class="cls-1" x="472.38" y="93.78" width="26.99" height="10.9"/>
  <g class="cls-11">
    <path class="cls-10" d="M477.9,99.78c0-.64.09-1.19.27-1.65.18-.46.46-.95.85-1.46h.75c-.4.53-.68,1.02-.86,1.49-.18.47-.27,1.01-.27,1.63s.09,1.16.26,1.63c.18.47.46.97.86,1.5h-.75c-.39-.52-.68-1.01-.86-1.48s-.26-1.02-.26-1.65Z"/>
    <path class="cls-10" d="M483.44,100.01c0,.51-.15.91-.45,1.2s-.72.44-1.25.44c-.44,0-.79-.1-1.06-.3-.26-.2-.43-.5-.5-.89l.78-.07c.04.17.1.3.17.39.06.08.15.15.26.19.11.05.24.07.39.07.28,0,.5-.09.65-.26.15-.17.22-.42.22-.74,0-.28-.07-.5-.22-.67-.14-.16-.35-.24-.6-.24-.15,0-.28.02-.39.07-.12.04-.23.13-.35.25h-.74l.15-2.62h2.68v.64h-2l-.08,1.32c.23-.19.54-.28.91-.28.45,0,.8.14,1.06.41.26.27.39.64.39,1.12Z"/>
    <path class="cls-10" d="M484.98,101.38c0,.25-.02.46-.07.64-.05.18-.13.36-.24.54h-.52c.26-.35.39-.67.39-.98h-.37v-.89h.81v.69Z"/>
  </g>
  <g class="cls-11">
    <path class="cls-10" d="M490.27,100.58v1h-.75v-1h-2.12v-.64l1.96-3.13h.9v3.14h.7v.63h-.7ZM489.52,97.63l-1.44,2.33h1.44v-2.33Z"/>
    <path class="cls-10" d="M493.11,99.79c0,.63-.09,1.17-.26,1.63-.17.46-.46.96-.86,1.49h-.75c.41-.54.69-1.05.87-1.51.17-.46.26-1,.26-1.61s-.09-1.15-.26-1.61c-.17-.46-.46-.97-.87-1.51h.75c.41.54.69,1.04.86,1.5.17.46.25,1,.25,1.63Z"/>
  </g>
  <rect class="cls-1" x="472.38" y="104.68" width="26.99" height="11.42"/>
  <g class="cls-11">
    <path class="cls-10" d="M477.9,110.68c0-.64.09-1.19.27-1.65.18-.46.46-.95.85-1.46h.75c-.4.53-.68,1.02-.86,1.49-.18.47-.27,1.01-.27,1.63s.09,1.16.26,1.63c.18.47.46.97.86,1.5h-.75c-.39-.52-.68-1.01-.86-1.48s-.26-1.02-.26-1.65Z"/>
    <path class="cls-10" d="M482.88,111.48v1h-.75v-1h-2.12v-.64l1.96-3.13h.9v3.14h.7v.63h-.7ZM482.13,108.53l-1.44,2.33h1.44v-2.33Z"/>
    <path class="cls-10" d="M484.98,112.28c0,.25-.02.46-.07.64-.05.18-.13.36-.24.54h-.52c.26-.35.39-.67.39-.98h-.37v-.89h.81v.69Z"/>
  </g>
  <g class="cls-11">
    <path class="cls-10" d="M490.82,110.91c0,.51-.15.91-.45,1.2s-.72.44-1.25.44c-.44,0-.79-.1-1.06-.3-.26-.2-.43-.5-.5-.89l.78-.07c.04.17.1.3.17.39.06.08.15.15.26.19.11.05.24.07.39.07.28,0,.5-.09.65-.26.15-.17.22-.42.22-.74,0-.28-.07-.5-.22-.67-.14-.16-.35-.24-.6-.24-.15,0-.28.02-.39.07-.12.04-.23.13-.35.25h-.74l.15-2.62h2.68v.64h-2l-.08,1.32c.23-.19.54-.28.91-.28.45,0,.8.14,1.06.41.26.27.39.64.39,1.12Z"/>
    <path class="cls-10" d="M493.11,110.69c0,.63-.09,1.17-.26,1.63-.17.46-.46.96-.86,1.49h-.75c.41-.54.69-1.05.87-1.51.17-.46.26-1,.26-1.61s-.09-1.15-.26-1.61c-.17-.46-.46-.97-.87-1.51h.75c.41.54.69,1.04.86,1.5.17.46.25,1,.25,1.63Z"/>
  </g>
  <rect class="cls-1" x="472.38" y="116.1" width="26.99" height="10.9"/>
  <g class="cls-11">
    <path class="cls-10" d="M477.9,122.1c0-.64.09-1.19.27-1.65.18-.46.46-.95.85-1.46h.75c-.4.53-.68,1.02-.86,1.49-.18.47-.27,1.01-.27,1.63s.09,1.16.26,1.63c.18.47.46.97.86,1.5h-.75c-.39-.52-.68-1.01-.86-1.48s-.26-1.02-.26-1.65Z"/>
    <path class="cls-10" d="M483.44,122.33c0,.51-.15.91-.45,1.2s-.72.44-1.25.44c-.44,0-.79-.1-1.06-.3-.26-.2-.43-.5-.5-.89l.78-.07c.04.17.1.3.17.39.06.08.15.15.26.19.11.05.24.07.39.07.28,0,.5-.09.65-.26.15-.17.22-.42.22-.74,0-.28-.07-.5-.22-.67-.14-.16-.35-.24-.6-.24-.15,0-.28.02-.39.07-.12.04-.23.13-.35.25h-.74l.15-2.62h2.68v.64h-2l-.08,1.32c.23-.19.54-.28.91-.28.45,0,.8.14,1.06.41.26.27.39.64.39,1.12Z"/>
    <path class="cls-10" d="M484.98,123.7c0,.25-.02.46-.07.64-.05.18-.13.36-.24.54h-.52c.26-.35.39-.67.39-.98h-.37v-.89h.81v.69Z"/>
  </g>
  <g class="cls-11">
    <path class="cls-10" d="M487.6,121.63c0-.84.15-1.48.44-1.91.29-.43.73-.65,1.31-.65.37,0,.66.08.88.23.22.16.38.41.49.77l-.73.12c-.1-.33-.32-.5-.65-.5-.63,0-.96.57-.97,1.7.11-.18.26-.32.44-.42s.4-.14.64-.14c.42,0,.76.13,1.01.41.25.27.38.64.38,1.11,0,.51-.14.9-.41,1.19-.27.29-.66.43-1.14.43-.54,0-.96-.19-1.25-.58-.29-.39-.43-.97-.43-1.76ZM488.43,122.24c0,.32.08.59.23.8.15.21.35.32.6.32s.45-.09.59-.26c.14-.18.21-.42.21-.72s-.07-.54-.22-.71c-.14-.17-.35-.25-.61-.25-.24,0-.43.07-.58.22-.15.15-.23.35-.23.61Z"/>
    <path class="cls-10" d="M493.11,122.11c0,.63-.09,1.17-.26,1.63-.17.46-.46.96-.86,1.49h-.75c.41-.54.69-1.05.87-1.51.17-.46.26-1,.26-1.61s-.09-1.15-.26-1.61c-.17-.46-.46-.97-.87-1.51h.75c.41.54.69,1.04.86,1.5.17.46.25,1,.25,1.63Z"/>
  </g>
  <rect class="cls-1" x="472.38" y="127" width="26.99" height="11.42"/>
  <g class="cls-11">
    <path class="cls-10" d="M477.9,133c0-.64.09-1.19.27-1.65.18-.46.46-.95.85-1.46h.75c-.4.53-.68,1.02-.86,1.49-.18.47-.27,1.01-.27,1.63s.09,1.16.26,1.63c.18.47.46.97.86,1.5h-.75c-.39-.52-.68-1.01-.86-1.48s-.26-1.02-.26-1.65Z"/>
    <path class="cls-10" d="M480.21,132.53c0-.84.15-1.48.44-1.91.29-.43.73-.65,1.31-.65.37,0,.66.08.88.23.22.16.38.41.49.77l-.73.12c-.1-.33-.32-.5-.65-.5-.63,0-.96.57-.97,1.7.11-.18.26-.32.44-.42s.4-.14.64-.14c.42,0,.76.13,1.01.41.25.27.38.64.38,1.11,0,.51-.14.9-.41,1.19-.27.29-.66.43-1.14.43-.54,0-.96-.19-1.25-.58-.29-.39-.43-.97-.43-1.76ZM481.04,133.14c0,.32.08.59.23.8.15.21.35.32.6.32s.45-.09.59-.26c.14-.18.21-.42.21-.72s-.07-.54-.22-.71c-.14-.17-.35-.25-.61-.25-.24,0-.43.07-.58.22-.15.15-.23.35-.23.61Z"/>
    <path class="cls-10" d="M484.98,134.6c0,.25-.02.46-.07.64-.05.18-.13.36-.24.54h-.52c.26-.35.39-.67.39-.98h-.37v-.89h.81v.69Z"/>
  </g>
  <g class="cls-11">
    <path class="cls-10" d="M490.82,133.23c0,.51-.15.91-.45,1.2s-.72.44-1.25.44c-.44,0-.79-.1-1.06-.3-.26-.2-.43-.5-.5-.89l.78-.07c.04.17.1.3.17.39.06.08.15.15.26.19.11.05.24.07.39.07.28,0,.5-.09.65-.26.15-.17.22-.42.22-.74,0-.28-.07-.5-.22-.67-.14-.16-.35-.24-.6-.24-.15,0-.28.02-.39.07-.12.04-.23.13-.35.25h-.74l.15-2.62h2.68v.64h-2l-.08,1.32c.23-.19.54-.28.91-.28.45,0,.8.14,1.06.41.26.27.39.64.39,1.12Z"/>
    <path class="cls-10" d="M493.11,133.01c0,.63-.09,1.17-.26,1.63-.17.46-.46.96-.86,1.49h-.75c.41-.54.69-1.05.87-1.51.17-.46.26-1,.26-1.61s-.09-1.15-.26-1.61c-.17-.46-.46-.97-.87-1.51h.75c.41.54.69,1.04.86,1.5.17.46.25,1,.25,1.63Z"/>
  </g>
  <rect class="cls-1" x="472.38" y="138.42" width="26.99" height="11.42"/>
  <g class="cls-11">
    <path class="cls-10" d="M477.9,144.42c0-.64.09-1.19.27-1.65.18-.46.46-.95.85-1.46h.75c-.4.53-.68,1.02-.86,1.49-.18.47-.27,1.01-.27,1.63s.09,1.16.26,1.63c.18.47.46.97.86,1.5h-.75c-.39-.52-.68-1.01-.86-1.48s-.26-1.02-.26-1.65Z"/>
    <path class="cls-10" d="M483.44,144.65c0,.51-.15.91-.45,1.2s-.72.44-1.25.44c-.44,0-.79-.1-1.06-.3-.26-.2-.43-.5-.5-.89l.78-.07c.04.17.1.3.17.39.06.08.15.15.26.19.11.05.24.07.39.07.28,0,.5-.09.65-.26.15-.17.22-.42.22-.74,0-.28-.07-.5-.22-.67-.14-.16-.35-.24-.6-.24-.15,0-.28.02-.39.07-.12.04-.23.13-.35.25h-.74l.15-2.62h2.68v.64h-2l-.08,1.32c.23-.19.54-.28.91-.28.45,0,.8.14,1.06.41.26.27.39.64.39,1.12Z"/>
    <path class="cls-10" d="M484.98,146.02c0,.25-.02.46-.07.64-.05.18-.13.36-.24.54h-.52c.26-.35.39-.67.39-.98h-.37v-.89h.81v.69Z"/>
  </g>
  <g class="cls-11">
    <path class="cls-10" d="M490.78,142.08c-.42.66-.74,1.2-.94,1.63-.21.43-.36.85-.47,1.26-.11.41-.16.83-.16,1.25h-.8c0-.6.12-1.21.37-1.85s.67-1.39,1.28-2.26h-2.43v-.65h3.16v.62Z"/>
    <path class="cls-10" d="M493.11,144.43c0,.63-.09,1.17-.26,1.63-.17.46-.46.96-.86,1.49h-.75c.41-.54.69-1.05.87-1.51.17-.46.26-1,.26-1.61s-.09-1.15-.26-1.61c-.17-.46-.46-.97-.87-1.51h.75c.41.54.69,1.04.86,1.5.17.46.25,1,.25,1.63Z"/>
  </g>
  <rect class="cls-1" x="472.38" y="149.84" width="26.99" height="11.42"/>
  <g class="cls-11">
    <path class="cls-10" d="M477.9,155.84c0-.64.09-1.19.27-1.65.18-.46.46-.95.85-1.46h.75c-.4.53-.68,1.02-.86,1.49-.18.47-.27,1.01-.27,1.63s.09,1.16.26,1.63c.18.47.46.97.86,1.5h-.75c-.39-.52-.68-1.01-.86-1.48s-.26-1.02-.26-1.65Z"/>
    <path class="cls-10" d="M483.39,153.5c-.42.66-.74,1.2-.94,1.63-.21.43-.36.85-.47,1.26-.11.41-.16.83-.16,1.25h-.8c0-.6.12-1.21.37-1.85s.67-1.39,1.28-2.26h-2.43v-.65h3.16v.62Z"/>
    <path class="cls-10" d="M484.98,157.44c0,.25-.02.46-.07.64-.05.18-.13.36-.24.54h-.52c.26-.35.39-.67.39-.98h-.37v-.89h.81v.69Z"/>
  </g>
  <g class="cls-11">
    <path class="cls-10" d="M490.82,156.07c0,.51-.15.91-.45,1.2s-.72.44-1.25.44c-.44,0-.79-.1-1.06-.3-.26-.2-.43-.5-.5-.89l.78-.07c.04.17.1.3.17.39.06.08.15.15.26.19.11.05.24.07.39.07.28,0,.5-.09.65-.26.15-.17.22-.42.22-.74,0-.28-.07-.5-.22-.67-.14-.16-.35-.24-.6-.24-.15,0-.28.02-.39.07-.12.04-.23.13-.35.25h-.74l.15-2.62h2.68v.64h-2l-.08,1.32c.23-.19.54-.28.91-.28.45,0,.8.14,1.06.41.26.27.39.64.39,1.12Z"/>
    <path class="cls-10" d="M493.11,155.85c0,.63-.09,1.17-.26,1.63-.17.46-.46.96-.86,1.49h-.75c.41-.54.69-1.05.87-1.51.17-.46.26-1,.26-1.61s-.09-1.15-.26-1.61c-.17-.46-.46-.97-.87-1.51h.75c.41.54.69,1.04.86,1.5.17.46.25,1,.25,1.63Z"/>
  </g>
  <rect class="cls-1" x="472.38" y="161.26" width="26.99" height="10.9"/>
  <g class="cls-11">
    <path class="cls-10" d="M477.9,166.74c0-.64.09-1.19.27-1.65.18-.46.46-.95.85-1.46h.75c-.4.53-.68,1.02-.86,1.49-.18.47-.27,1.01-.27,1.63s.09,1.16.26,1.63c.18.47.46.97.86,1.5h-.75c-.39-.52-.68-1.01-.86-1.48s-.26-1.02-.26-1.65Z"/>
    <path class="cls-10" d="M483.41,167.22c0,.45-.14.79-.42,1.03s-.68.36-1.21.36c-.49,0-.87-.11-1.16-.33-.28-.22-.45-.55-.5-1l.79-.07c.04.26.13.45.27.58s.34.19.6.19.47-.07.62-.21c.14-.14.21-.33.21-.59,0-.23-.09-.42-.26-.55-.18-.13-.43-.19-.77-.19h-.35v-.65h.33c.3,0,.54-.06.7-.19.16-.13.24-.31.24-.55s-.06-.43-.19-.55-.3-.18-.54-.18c-.46,0-.72.24-.78.71l-.77-.06c.05-.41.21-.72.48-.94.28-.22.63-.33,1.08-.33.48,0,.85.11,1.11.33.26.22.39.53.39.93,0,.29-.08.53-.24.73-.16.2-.41.33-.74.4h0c.35.05.62.17.82.37s.3.45.3.76Z"/>
    <path class="cls-10" d="M484.98,168.34c0,.25-.02.46-.07.64-.05.18-.13.36-.24.54h-.52c.26-.35.39-.67.39-.98h-.37v-.89h.81v.69Z"/>
  </g>
  <g class="cls-11">
    <path class="cls-10" d="M490.78,164.4c-.42.66-.74,1.2-.94,1.63-.21.43-.36.85-.47,1.26-.11.41-.16.83-.16,1.25h-.8c0-.6.12-1.21.37-1.85s.67-1.39,1.28-2.26h-2.43v-.65h3.16v.62Z"/>
    <path class="cls-10" d="M493.11,166.75c0,.63-.09,1.17-.26,1.63-.17.46-.46.96-.86,1.49h-.75c.41-.54.69-1.05.87-1.51.17-.46.26-1,.26-1.61s-.09-1.15-.26-1.61c-.17-.46-.46-.97-.87-1.51h.75c.41.54.69,1.04.86,1.5.17.46.25,1,.25,1.63Z"/>
  </g>
  <rect class="cls-1" x="472.38" y="172.16" width="26.99" height="11.42"/>
  <g class="cls-11">
    <path class="cls-10" d="M477.9,178.16c0-.64.09-1.19.27-1.65.18-.46.46-.95.85-1.46h.75c-.4.53-.68,1.02-.86,1.49-.18.47-.27,1.01-.27,1.63s.09,1.16.26,1.63c.18.47.46.97.86,1.5h-.75c-.39-.52-.68-1.01-.86-1.48s-.26-1.02-.26-1.65Z"/>
    <path class="cls-10" d="M483.39,175.82c-.42.66-.74,1.2-.94,1.63-.21.43-.36.85-.47,1.26-.11.41-.16.83-.16,1.25h-.8c0-.6.12-1.21.37-1.85s.67-1.39,1.28-2.26h-2.43v-.65h3.16v.62Z"/>
    <path class="cls-10" d="M484.98,179.76c0,.25-.02.46-.07.64-.05.18-.13.36-.24.54h-.52c.26-.35.39-.67.39-.98h-.37v-.89h.81v.69Z"/>
  </g>
  <g class="cls-11">
    <path class="cls-10" d="M490.8,178.64c0,.45-.14.79-.42,1.03s-.68.36-1.21.36c-.49,0-.87-.11-1.16-.33-.28-.22-.45-.55-.5-1l.79-.07c.04.26.13.45.27.58s.34.19.6.19.47-.07.62-.21c.14-.14.21-.33.21-.59,0-.23-.09-.42-.26-.55-.18-.13-.43-.19-.77-.19h-.35v-.65h.33c.3,0,.54-.06.7-.19.16-.13.24-.31.24-.55s-.06-.43-.19-.55-.3-.18-.54-.18c-.46,0-.72.24-.78.71l-.77-.06c.05-.41.21-.72.48-.94.28-.22.63-.33,1.08-.33.48,0,.85.11,1.11.33.26.22.39.53.39.93,0,.29-.08.53-.24.73-.16.2-.41.33-.74.4h0c.35.05.62.17.82.37s.3.45.3.76Z"/>
    <path class="cls-10" d="M493.11,178.17c0,.63-.09,1.17-.26,1.63-.17.46-.46.96-.86,1.49h-.75c.41-.54.69-1.05.87-1.51.17-.46.26-1,.26-1.61s-.09-1.15-.26-1.61c-.17-.46-.46-.97-.87-1.51h.75c.41.54.69,1.04.86,1.5.17.46.25,1,.25,1.63Z"/>
  </g>
  <g class="cls-11">
    <path class="cls-10" d="M518.12,61c.01.37.09.66.25.86.15.2.36.3.63.3.18,0,.34-.04.48-.13s.27-.24.38-.45l.64.31c-.14.22-.28.4-.42.51-.14.12-.3.2-.49.26-.19.06-.41.09-.66.09-.53,0-.94-.17-1.23-.5-.29-.33-.43-.8-.43-1.41s.15-1.07.45-1.39c.3-.32.72-.48,1.24-.48s.92.17,1.19.51.41.82.41,1.44v.1h-2.44ZM518.93,59.52c-.24,0-.43.09-.57.26-.14.17-.22.41-.23.71h1.58c-.02-.32-.1-.56-.22-.72s-.31-.24-.56-.24Z"/>
    <path class="cls-10" d="M521.33,62.01h1.29v-3.6l-1.17.75v-.68l1.22-.82h.76v4.34h1.1v.66h-3.21v-.66Z"/>
  </g>
  <g class="cls-11">
    <path class="cls-10" d="M518.12,84.88c.01.37.09.66.25.86.15.2.36.3.63.3.18,0,.34-.04.48-.13s.27-.24.38-.45l.64.31c-.14.22-.28.4-.42.51-.14.12-.3.2-.49.26-.19.06-.41.09-.66.09-.53,0-.94-.17-1.23-.5-.29-.33-.43-.8-.43-1.41s.15-1.07.45-1.39c.3-.32.72-.48,1.24-.48s.92.17,1.19.51.41.82.41,1.44v.1h-2.44ZM518.93,83.39c-.24,0-.43.09-.57.26-.14.17-.22.41-.23.71h1.58c-.02-.32-.1-.56-.22-.72s-.31-.24-.56-.24Z"/>
    <path class="cls-10" d="M521.15,86.54v-.57c.12-.27.29-.54.5-.81.22-.26.51-.55.87-.85.44-.36.73-.65.87-.84s.21-.39.21-.58c0-.24-.07-.43-.2-.56s-.33-.2-.57-.2c-.47,0-.74.25-.81.76l-.82-.06c.05-.43.21-.77.5-1.01s.65-.36,1.12-.36c.51,0,.91.12,1.19.36.29.24.43.58.43,1.03,0,.21-.04.4-.12.58-.08.18-.2.36-.35.54-.15.18-.41.4-.75.68-.61.48-.98.88-1.13,1.2h2.44v.68h-3.36Z"/>
  </g>
  <g class="cls-11">
    <path class="cls-10" d="M518.12,105.12c.01.37.09.66.25.86.15.2.36.3.63.3.18,0,.34-.04.48-.13s.27-.24.38-.45l.64.31c-.14.22-.28.4-.42.51-.14.12-.3.2-.49.26-.19.06-.41.09-.66.09-.53,0-.94-.17-1.23-.5-.29-.33-.43-.8-.43-1.41s.15-1.07.45-1.39c.3-.32.72-.48,1.24-.48s.92.17,1.19.51.41.82.41,1.44v.1h-2.44ZM518.93,103.64c-.24,0-.43.09-.57.26-.14.17-.22.41-.23.71h1.58c-.02-.32-.1-.56-.22-.72s-.31-.24-.56-.24Z"/>
    <path class="cls-10" d="M524.52,105.4c0,.47-.15.83-.44,1.08-.29.25-.72.37-1.27.37-.51,0-.92-.12-1.21-.35s-.47-.58-.53-1.04l.83-.07c.04.27.13.48.28.61s.36.2.63.2.5-.07.65-.22c.15-.14.22-.35.22-.62,0-.25-.09-.44-.28-.57-.18-.14-.46-.2-.81-.2h-.37v-.68h.35c.32,0,.56-.07.73-.2.17-.13.26-.32.26-.57s-.07-.45-.2-.57c-.13-.13-.32-.19-.57-.19-.49,0-.76.25-.82.74l-.81-.06c.05-.43.22-.76.51-.99.29-.23.67-.35,1.13-.35.51,0,.9.12,1.17.35.27.23.41.56.41.98,0,.3-.08.55-.25.76s-.43.35-.78.42h0c.36.05.65.18.86.39.21.21.31.47.31.79Z"/>
  </g>
  <g class="cls-11">
    <path class="cls-10" d="M518.12,129c.01.37.09.66.25.86.15.2.36.3.63.3.18,0,.34-.04.48-.13s.27-.24.38-.45l.64.31c-.14.22-.28.4-.42.51-.14.12-.3.2-.49.26-.19.06-.41.09-.66.09-.53,0-.94-.17-1.23-.5-.29-.33-.43-.8-.43-1.41s.15-1.07.45-1.39c.3-.32.72-.48,1.24-.48s.92.17,1.19.51.41.82.41,1.44v.1h-2.44ZM518.93,127.51c-.24,0-.43.09-.57.26-.14.17-.22.41-.23.71h1.58c-.02-.32-.1-.56-.22-.72s-.31-.24-.56-.24Z"/>
    <path class="cls-10" d="M523.96,129.61v1.05h-.78v-1.05h-2.22v-.67l2.06-3.28h.94v3.29h.73v.66h-.73ZM523.18,126.51l-1.51,2.44h1.51v-2.44Z"/>
  </g>
  <g class="cls-11">
    <path class="cls-10" d="M518.12,151.32c.01.37.09.66.25.86.15.2.36.3.63.3.18,0,.34-.04.48-.13s.27-.24.38-.45l.64.31c-.14.22-.28.4-.42.51-.14.12-.3.2-.49.26-.19.06-.41.09-.66.09-.53,0-.94-.17-1.23-.5-.29-.33-.43-.8-.43-1.41s.15-1.07.45-1.39c.3-.32.72-.48,1.24-.48s.92.17,1.19.51.41.82.41,1.44v.1h-2.44ZM518.93,149.83c-.24,0-.43.09-.57.26-.14.17-.22.41-.23.71h1.58c-.02-.32-.1-.56-.22-.72s-.31-.24-.56-.24Z"/>
    <path class="cls-10" d="M524.55,151.33c0,.53-.16.95-.47,1.26-.32.31-.75.46-1.31.46-.46,0-.83-.11-1.11-.32-.28-.21-.45-.52-.52-.94l.82-.07c.05.18.11.32.17.4s.16.15.27.2.25.07.41.07c.3,0,.52-.09.68-.27.16-.18.23-.44.23-.78,0-.3-.08-.53-.23-.7s-.36-.26-.63-.26c-.15,0-.29.02-.41.07-.12.05-.24.13-.37.26h-.78l.16-2.75h2.82v.67h-2.1l-.08,1.38c.24-.2.56-.3.96-.3.47,0,.84.14,1.11.43.27.29.41.68.41,1.17Z"/>
  </g>
  <g class="cls-11">
    <path class="cls-10" d="M518.12,172.08c.01.37.09.66.25.86.15.2.36.3.63.3.18,0,.34-.04.48-.13s.27-.24.38-.45l.64.31c-.14.22-.28.4-.42.51-.14.12-.3.2-.49.26-.19.06-.41.09-.66.09-.53,0-.94-.17-1.23-.5-.29-.33-.43-.8-.43-1.41s.15-1.07.45-1.39c.3-.32.72-.48,1.24-.48s.92.17,1.19.51.41.82.41,1.44v.1h-2.44ZM518.93,170.6c-.24,0-.43.09-.57.26-.14.17-.22.41-.23.71h1.58c-.02-.32-.1-.56-.22-.72s-.31-.24-.56-.24Z"/>
    <path class="cls-10" d="M521.17,171.36c0-.89.15-1.56.46-2.01s.76-.68,1.38-.68c.39,0,.69.08.92.25.23.16.4.43.51.81l-.77.12c-.1-.35-.33-.53-.68-.53-.67,0-1.01.6-1.01,1.79.12-.19.27-.34.46-.44.19-.1.42-.15.67-.15.44,0,.8.14,1.06.43.26.28.4.67.4,1.17,0,.53-.14.95-.43,1.25-.29.3-.69.45-1.2.45-.57,0-1.01-.2-1.31-.61-.3-.41-.46-1.02-.46-1.84ZM522.04,172c0,.34.08.62.24.84s.37.33.63.33.47-.09.62-.28c.15-.18.22-.44.22-.76s-.08-.57-.23-.74-.36-.26-.64-.26c-.25,0-.45.08-.61.24s-.24.37-.24.64Z"/>
  </g>
  <rect class="cls-1" x="534.67" y="55.37" width="26.99" height="11.42"/>
  <g class="cls-11">
    <path class="cls-10" d="M546.63,62.54h1.23v-3.43l-1.12.71v-.65l1.16-.78h.73v4.14h1.05v.63h-3.06v-.63Z"/>
  </g>
  <rect class="cls-1" x="561.66" y="55.37" width="26.99" height="11.42"/>
  <g class="cls-11">
    <path class="cls-10" d="M569.74,61.11v-.89h.81v.89h-.81ZM571.72,61.11v-.89h.81v.89h-.81ZM573.7,61.11v-.89h.81v.89h-.81Z"/>
    <path class="cls-10" d="M575.37,61.11v-.89h.81v.89h-.81ZM577.35,61.11v-.89h.81v.89h-.81ZM579.33,61.11v-.89h.81v.89h-.81Z"/>
  </g>
  <g class="cls-11">
    <path class="cls-9" d="M538.63,43.49l.41.18s.07.04.06.05c0,.02-.04.05-.1.09-.05.04-.1.09-.14.17-.11.23-.22.43-.31.62h.46c.17,0,.35,0,.54-.04v.39c-.2-.03-.38-.04-.54-.04h-.62c-.16.27-.33.52-.5.76-.13-.09-.27-.15-.42-.2.51-.42.9-1.09,1.17-1.99ZM538.08,46.78h.42v-.81c-.12,0-.28.01-.49.04v-.39c.2.03.36.04.5.04h.47c.12,0,.29-.01.5-.04v.39c-.21-.03-.38-.04-.5-.04h-.14v.81h.38c.12,0,.24,0,.38-.04v.38c-.13-.03-.26-.04-.37-.04h-.39v1.38c.24-.18.44-.36.61-.55l.12.38c-.42.34-.74.61-.94.82l-.31-.34c.14-.11.2-.2.18-.28v-1.4h-.4c-.12,0-.25,0-.37.04v-.38c.11.03.23.04.35.04ZM540.35,48.11c.21.29.58.49,1.11.6.27.05.56.08.87.08s.62-.03.96-.08c-.12.13-.19.3-.21.51-.95-.05-1.58-.12-1.91-.22-.34-.09-.67-.28-.98-.57-.18.28-.41.56-.67.84-.09-.12-.23-.21-.4-.26.4-.23.68-.52.82-.88-.17-.29-.28-.63-.34-.99l.31-.09c.05.29.12.53.21.7.12-.44.18-.87.2-1.29h-.32c-.12,0-.28,0-.45.04.33-.74.57-1.37.72-1.89h-.35c-.09,0-.21,0-.36.04v-.39c.11.03.22.04.34.04h.37c.13,0,.29,0,.5-.04-.29.8-.53,1.43-.71,1.89h.18c.12,0,.28,0,.46-.04-.08.88-.2,1.55-.36,2ZM541.13,47.45h.53v-.45h-.44c-.09,0-.22,0-.36.04v-.39c.11.03.22.04.34.04h.46v-.44h-.41c-.09,0-.22,0-.39.04v-.39c.14.03.26.04.37.04h.43v-.52h-.58c-.09,0-.22.01-.4.04v-.39c.14.03.27.04.39.04h.58v-.47h-.42c-.1,0-.21.01-.35.04v-.39c.12.03.22.04.33.04h.44v-.17c0-.2,0-.4-.04-.58l.46.06s.06.02.06.04c0,.02-.02.05-.07.08-.05.03-.07.16-.07.38v.18h.47c.12,0,.28,0,.46-.04-.03.15-.04.3-.04.47v.36c.15,0,.26,0,.32,0,.06,0,.12-.01.18-.03v.38c-.1-.03-.27-.04-.5-.04v.4c0,.13,0,.28.04.47-.16-.03-.31-.04-.46-.04h-.47v.44h.61c.11,0,.23,0,.37-.04v.39c-.13-.03-.25-.04-.37-.04h-.6v.45h.7c.12,0,.26,0,.43-.04v.39c-.18-.03-.33-.04-.44-.04h-.69v.33c0,.17,0,.33.04.5h-.41c.03-.18.04-.35.04-.5v-.33h-.51c-.14,0-.3,0-.47.04v-.39c.16.03.31.04.45.04ZM542,44.64v.47h.55v-.47h-.55ZM542.55,45.94v-.52h-.55v.52h.55Z"/>
    <path class="cls-9" d="M543.86,48.93c1.31-.15,2.1-.59,2.34-1.34h-1.73c-.19,0-.36.01-.51.03v-.39c.33.02.5.03.51.03h1.79c.02-.11.03-.22.03-.34,0-.05,0-.1,0-.16l.49.06s.06.02.06.04,0,.05-.04.07c-.07.05-.12.16-.15.32h2.21c.26-.01.42-.02.5-.03v.39c-.2-.02-.37-.03-.5-.03h-1.79c.54.74,1.3,1.14,2.27,1.23-.17.21-.28.37-.32.46-1.05-.27-1.85-.83-2.39-1.68h-.04c-.17.84-.98,1.43-2.43,1.79-.13-.22-.22-.37-.29-.45ZM544.63,45.1h1.85v-1.02c0-.17-.02-.36-.04-.57l.46.06s.04.02.04.04c0,.02-.02.05-.05.08-.05.01-.07.15-.06.42v.99h1.85c.14,0,.31-.02.5-.04v.4c-.2-.02-.36-.04-.5-.04h-1.85v.11c.91.36,1.59.65,2.04.89l-.26.39c-.43-.32-1.02-.62-1.78-.92v.26c0,.16.02.33.04.52h-.43c.02-.19.04-.36.04-.51v-.62c-.74.61-1.46,1.04-2.15,1.31-.07-.12-.18-.26-.34-.42.72-.1,1.41-.43,2.05-1h-1.41c-.16,0-.32.02-.5.04v-.4c.18.02.35.03.5.04ZM544.97,44.03l.27-.26c.32.32.61.62.84.9l-.33.26c-.23-.33-.49-.63-.78-.91ZM547.06,44.76c.47-.39.8-.75.99-1.07l.39.3s.04.05.03.08c-.01.02-.04.03-.08.04-.1.01-.19.06-.26.14-.29.33-.55.58-.76.76-.1-.09-.2-.17-.31-.24Z"/>
    <path class="cls-9" d="M550.65,48.72h2.11v-.82h-1.41c-.08,0-.25.01-.5.04v-.39c.22.02.39.03.5.04h1.41v-.17c0-.13-.02-.33-.04-.59l.45.07s.07.01.07.02c0,.01,0,.03-.03.07-.08.07-.11.23-.11.48v.12h1.34c.11,0,.28-.01.5-.04v.39c-.24-.03-.4-.04-.5-.04h-1.34v.82h1.99c.13,0,.3-.02.5-.04v.39c-.23-.02-.4-.04-.5-.04h-4.45c-.12,0-.29.02-.5.04v-.39c.21.02.38.04.5.04ZM552.28,45.63h-.79c-.06.57-.33,1.09-.82,1.56-.14-.11-.28-.2-.42-.26.52-.23.82-.67.89-1.3h-.38c-.13,0-.3.02-.51.04v-.39c.21.02.39.03.51.04h.42c.01-.28.02-.61.01-.97h-.15c-.11,0-.28.02-.51.04v-.39c.23.03.4.04.51.04h1.75c.12,0,.29-.02.5-.04v.39c-.21-.02-.37-.03-.5-.04h-.16v.97h.38c.1,0,.27-.01.5-.04v.39c-.21-.02-.38-.03-.5-.04h-.38v.7c0,.1.01.27.04.52h-.42c.02-.21.03-.38.04-.52v-.7ZM551.51,45.32h.77v-.97h-.73c0,.3-.01.62-.03.97ZM554.21,44.74v1.12c0,.1.01.27.04.52h-.41c.02-.23.04-.41.04-.52v-1.18c0-.17-.02-.37-.04-.59l.46.06s.07.01.07.02,0,.03-.04.06c-.08.09-.12.25-.12.49ZM555,43.67l.45.06s.07.02.07.03c0,0-.01.03-.04.07-.07.06-.1.22-.09.47v2.07c0,.26-.05.44-.17.52-.12.1-.36.16-.71.18-.03-.18-.09-.33-.18-.45.15.02.26.03.35.03.1,0,.18-.01.23-.03.1-.04.15-.14.14-.3v-2.07c0-.13-.02-.32-.04-.58Z"/>
  </g>
  <rect class="cls-1" x="534.67" y="77.69" width="26.99" height="11.42"/>
  <g class="cls-11">
    <path class="cls-10" d="M546.63,84.86h1.23v-3.43l-1.12.71v-.65l1.16-.78h.73v4.14h1.05v.63h-3.06v-.63Z"/>
  </g>
  <rect class="cls-1" x="561.66" y="77.69" width="26.99" height="11.42"/>
  <g class="cls-11">
    <path class="cls-10" d="M569.74,83.43v-.89h.81v.89h-.81ZM571.72,83.43v-.89h.81v.89h-.81ZM573.7,83.43v-.89h.81v.89h-.81Z"/>
    <path class="cls-10" d="M575.37,83.43v-.89h.81v.89h-.81ZM577.35,83.43v-.89h.81v.89h-.81ZM579.33,83.43v-.89h.81v.89h-.81Z"/>
  </g>
  <rect class="cls-1" x="534.67" y="98.45" width="26.99" height="11.42"/>
  <g class="cls-11">
    <path class="cls-10" d="M546.63,105.63h1.23v-3.43l-1.12.71v-.65l1.16-.78h.73v4.14h1.05v.63h-3.06v-.63Z"/>
  </g>
  <rect class="cls-1" x="561.66" y="98.45" width="26.99" height="11.42"/>
  <g class="cls-11">
    <path class="cls-10" d="M569.74,104.19v-.89h.81v.89h-.81ZM571.72,104.19v-.89h.81v.89h-.81ZM573.7,104.19v-.89h.81v.89h-.81Z"/>
    <path class="cls-10" d="M575.37,104.19v-.89h.81v.89h-.81ZM577.35,104.19v-.89h.81v.89h-.81ZM579.33,104.19v-.89h.81v.89h-.81Z"/>
  </g>
  <rect class="cls-1" x="534.67" y="121.29" width="26.99" height="11.42"/>
  <g class="cls-11">
    <path class="cls-10" d="M546.63,128.47h1.23v-3.43l-1.12.71v-.65l1.16-.78h.73v4.14h1.05v.63h-3.06v-.63Z"/>
  </g>
  <rect class="cls-1" x="561.66" y="121.29" width="26.99" height="11.42"/>
  <g class="cls-11">
    <path class="cls-10" d="M569.74,127.03v-.89h.81v.89h-.81ZM571.72,127.03v-.89h.81v.89h-.81ZM573.7,127.03v-.89h.81v.89h-.81Z"/>
    <path class="cls-10" d="M575.37,127.03v-.89h.81v.89h-.81ZM577.35,127.03v-.89h.81v.89h-.81ZM579.33,127.03v-.89h.81v.89h-.81Z"/>
  </g>
  <rect class="cls-1" x="534.67" y="144.65" width="26.99" height="11.42"/>
  <g class="cls-11">
    <path class="cls-10" d="M546.63,151.82h1.23v-3.43l-1.12.71v-.65l1.16-.78h.73v4.14h1.05v.63h-3.06v-.63Z"/>
  </g>
  <rect class="cls-1" x="561.66" y="144.65" width="26.99" height="11.42"/>
  <g class="cls-11">
    <path class="cls-10" d="M569.74,150.39v-.89h.81v.89h-.81ZM571.72,150.39v-.89h.81v.89h-.81ZM573.7,150.39v-.89h.81v.89h-.81Z"/>
    <path class="cls-10" d="M575.37,150.39v-.89h.81v.89h-.81ZM577.35,150.39v-.89h.81v.89h-.81ZM579.33,150.39v-.89h.81v.89h-.81Z"/>
  </g>
  <rect class="cls-1" x="534.67" y="167.49" width="26.99" height="11.42"/>
  <g class="cls-11">
    <path class="cls-10" d="M546.46,175.29v-.54c.11-.26.27-.52.48-.77.21-.25.48-.52.83-.81.42-.35.69-.61.83-.8.13-.19.2-.37.2-.55,0-.23-.06-.41-.19-.53-.13-.12-.31-.19-.54-.19-.45,0-.71.24-.77.73l-.78-.05c.05-.41.21-.73.47-.96.27-.23.62-.34,1.07-.34.49,0,.87.12,1.14.35s.41.56.41.98c0,.2-.04.38-.12.56-.08.17-.19.34-.34.51-.15.17-.39.38-.72.65-.58.46-.94.84-1.08,1.14h2.32v.65h-3.2Z"/>
  </g>
  <rect class="cls-1" x="561.66" y="167.49" width="26.99" height="11.42"/>
  <g class="cls-11">
    <path class="cls-10" d="M569.74,173.23v-.89h.81v.89h-.81ZM571.72,173.23v-.89h.81v.89h-.81ZM573.7,173.23v-.89h.81v.89h-.81Z"/>
    <path class="cls-10" d="M575.37,173.23v-.89h.81v.89h-.81ZM577.35,173.23v-.89h.81v.89h-.81ZM579.33,173.23v-.89h.81v.89h-.81Z"/>
  </g>
  <rect class="cls-3" x="357.66" y="172.16" width="31.14" height="11.42"/>
  <g class="cls-11">
    <path class="cls-14" d="M365.66,175.2v4.11h1.83v.65h-2.66v-4.76h.82Z"/>
    <path class="cls-14" d="M371.47,178.22c0,.57-.16,1.01-.47,1.33s-.76.48-1.32.48-.98-.16-1.29-.49c-.31-.32-.47-.76-.47-1.32s.16-1.01.47-1.32c.31-.32.75-.47,1.31-.47s1.02.15,1.32.46.45.75.45,1.33ZM370.66,178.22c0-.81-.31-1.22-.94-1.22s-.98.41-.98,1.22c0,.4.08.7.24.92s.39.32.7.32c.66,0,.99-.41.99-1.23Z"/>
    <path class="cls-14" d="M372.06,178.21c0-.57.13-1.01.38-1.32.25-.31.62-.46,1.09-.46.26,0,.48.06.68.17.19.12.34.28.44.49h.01c0-.19.01-.39.04-.6h.74c-.02.2-.03.46-.03.77v2.59c0,.39-.15.73-.44,1.01-.29.28-.7.42-1.24.42-.89,0-1.4-.31-1.53-.93l.77-.12c.09.32.35.48.78.48.29,0,.5-.09.66-.26.15-.17.23-.37.23-.6v-.37c0-.07,0-.15.01-.22h-.01c-.12.23-.27.4-.46.52s-.43.17-.72.17c-.45,0-.8-.15-1.04-.46-.24-.31-.36-.74-.36-1.3ZM372.87,178.21c0,.79.29,1.19.88,1.19.29,0,.52-.11.67-.32.15-.21.23-.51.23-.89s-.08-.68-.23-.88-.38-.31-.67-.31-.5.1-.65.3c-.15.2-.23.5-.23.91Z"/>
  </g>
  <g class="cls-11">
    <path class="cls-14" d="M381.65,176.66c0,.3-.07.56-.2.78-.13.23-.33.4-.58.53-.26.13-.56.19-.91.19h-.72v1.8h-.82v-4.76h1.5c.55,0,.98.13,1.28.38.3.25.45.61.45,1.08ZM380.83,176.67c0-.27-.08-.49-.25-.64-.17-.15-.42-.23-.75-.23h-.59v1.78h.62c.31,0,.54-.08.71-.23.17-.16.25-.38.25-.67Z"/>
  </g>
  <rect class="cls-3" x="415.8" y="172.16" width="26.47" height="11.42"/>
  <g class="cls-11">
    <path class="cls-14" d="M423.49,177.9v-.89h.81v.89h-.81ZM425.48,177.9v-.89h.81v.89h-.81ZM427.46,177.9v-.89h.81v.89h-.81Z"/>
    <path class="cls-14" d="M429.12,177.9v-.89h.81v.89h-.81ZM431.11,177.9v-.89h.81v.89h-.81ZM433.09,177.9v-.89h.81v.89h-.81Z"/>
  </g>
  <rect class="cls-3" x="388.81" y="172.16" width="26.99" height="11.42"/>
  <g class="cls-11">
    <path class="cls-14" d="M398.4,175.2l1.14,2.8c.06.14.18.48.36,1.02.07-.22.19-.56.38-1.02l1.11-2.8h1.11v4.76h-.75v-3.16c0-.14,0-.28,0-.42,0-.14,0-.28.01-.42-.05.14-.09.26-.13.35-.03.09-.11.28-.22.58l-1.21,3.07h-.62l-1.25-3.11c-.13-.34-.24-.63-.33-.9,0,.14,0,.28.01.42,0,.14,0,.28,0,.42v3.17h-.74v-4.76h1.12Z"/>
    <path class="cls-14" d="M407.08,176.59c0,.34-.1.63-.29.86-.19.24-.46.39-.82.47l1.32,2.03h-.94l-1.17-1.94h-.69v1.94h-.82v-4.76h1.67c.55,0,.98.12,1.28.36.3.24.45.59.45,1.03ZM406.26,176.6c0-.26-.09-.46-.26-.6-.17-.14-.42-.21-.73-.21h-.77v1.64h.8c.3,0,.53-.07.71-.22.17-.15.25-.35.25-.62Z"/>
  </g>
  <g class="cls-11">
    <path class="cls-9" d="M309.83,24.46h1.97v-.3c0-.22-.02-.53-.06-.91l.7.1c.08,0,.11.02.11.05.01.02,0,.05-.07.1-.1.12-.16.36-.17.73v.23h2.16v-.54c0-.29-.03-.54-.08-.75l.74.09c.07.01.1.03.11.05,0,.03-.01.06-.06.11-.12.12-.18.3-.18.55v.49h1.8c.33,0,.59-.02.78-.06v.62c-.27-.04-.52-.06-.78-.06h-1.8v.44c0,.26.02.53.06.8h-.64c.04-.32.06-.59.06-.8v-.44h-2.16v.44c0,.28.03.55.06.8h-.64c.04-.3.06-.56.06-.8v-.44h-1.97c-.27,0-.53.02-.79.06v-.62c.23.04.5.06.79.06ZM316.61,26.65c-.04.29-.06.59-.06.9v.92c.01,1.05-.12,1.69-.39,1.93-.21.29-.84.46-1.88.49-.07-.28-.14-.52-.22-.72.16.01.31.02.45.02,1.04,0,1.54-.34,1.5-1.02v-1.96h-3v4.16c0,.26.02.53.06.8h-.72s.02-.19.05-.49c.02-.2.03-.3.03-.31v-4.16h-1.87c-.29,0-.55.02-.79.06v-.62c.25.04.52.06.79.06h5.24c.32,0,.59-.02.81-.06Z"/>
    <path class="cls-9" d="M318.61,31.7c.6-.54,1.09-1.21,1.48-2.02l.58.34c.07.04.11.08.1.1,0,.03-.05.06-.15.1-.11.04-.21.13-.29.27-.29.47-.64.98-1.05,1.52-.15-.15-.37-.25-.66-.32ZM320.04,29.09c.05-.36.07-.65.06-.88v-1.17c0-.22-.02-.5-.06-.84.33.04.61.06.85.06h1.51v-2.21c0-.19-.02-.47-.06-.85l.77.09c.08.01.12.04.12.07,0,.03-.02.08-.08.13-.13.14-.2.35-.2.66v.38h2.89c.23,0,.52-.02.85-.06v.6c-.33-.04-.62-.06-.85-.06h-2.89v1.25h1.93c.17,0,.45-.01.84-.06-.04.33-.06.6-.06.8v1.35c0,.17.02.42.06.74-.37-.04-.66-.06-.87-.06h-3.91c-.22,0-.52.01-.89.06ZM320.64,26.73v1.81h4.48v-1.81h-4.48ZM321.3,30.02l.6-.18c.24.67.44,1.26.58,1.79l-.6.22c-.11-.67-.31-1.27-.58-1.82ZM323.15,29.96l.55-.21c.32.57.6,1.13.85,1.67l-.57.31c-.2-.61-.48-1.21-.83-1.77ZM325.86,29.54c.43.63.85,1.32,1.27,2.06l-.58.37c-.33-.7-.75-1.39-1.24-2.09l.55-.34Z"/>
    <path class="cls-9" d="M328.33,26.2c1.03-.73,1.8-1.78,2.31-3.13l.67.29c.07.03.1.06.1.08s-.04.05-.11.08c-.12.07-.2.14-.26.21-.14.25-.27.45-.38.62h2.89c-.37-.31-.8-.61-1.31-.9l.36-.44c.51.3,1,.61,1.46.94l-.27.4h1.89c.18,0,.4-.01.67-.06v.56c-.28-.04-.51-.06-.67-.06h-2.42v.71h1.84c.17,0,.41-.01.71-.06v.56c-.29-.05-.52-.07-.69-.06h-1.86v.68h1.94c.14,0,.35-.01.63-.06v.56c-.25-.04-.46-.06-.64-.06h-1.93v.65h2.64c.16,0,.38-.02.65-.06v.56c-.26-.05-.48-.07-.64-.06h-5.38c0,.12.02.27.06.47h-.66c.05-.22.07-.4.06-.52v-2.79c-.3.41-.62.81-.97,1.2-.16-.2-.39-.31-.68-.34ZM328.6,31.24c1.3-.27,2.43-.89,3.39-1.87h-2.67c-.17,0-.41.01-.71.06v-.58c.26.04.48.06.68.06h3.34c0-.19-.01-.39-.06-.61l.74.09c.09,0,.14.03.14.05,0,.02-.04.05-.12.1-.12.05-.17.17-.16.36h3.17c.17,0,.4-.02.7-.06v.58c-.29-.05-.51-.07-.68-.06h-2.61c.82.83,1.93,1.35,3.32,1.57-.28.16-.44.38-.48.66-1.56-.56-2.7-1.26-3.42-2.11v1.76c0,.21.02.47.06.77h-.66c.05-.32.07-.57.06-.77v-1.77c-.84.94-2.02,1.71-3.55,2.33-.08-.24-.24-.43-.48-.57ZM330.52,24.81v.71h2.19v-.71h-2.19ZM330.52,25.96v.68h2.19v-.68h-2.19ZM330.52,27.74h2.19v-.65h-2.19v.65Z"/>
  </g>
  <g class="cls-11">
    <path class="cls-9" d="M340.86,31.09h-.73l-2.5-6.67h.69l1.84,5.06c.17.49.29.85.35,1.09.05-.18.11-.36.16-.54.05-.18.11-.36.18-.54l1.84-5.07h.68l-2.5,6.67Z"/>
  </g>
  <g class="cls-11">
    <path class="cls-9" d="M380.37,160.88h-.66c.04-.33.06-.62.06-.87v-6.61c0-.27-.03-.55-.06-.86.34.03.65.05.9.06h5.76c.25,0,.55-.03.89-.06-.03.32-.05.6-.06.84v6.44c0,.21.03.49.06.86h-.66c.03-.19.05-.38.06-.55h-6.36c0,.22.03.47.06.75ZM380.3,159.67h6.36v-6.59h-6.36v6.59ZM382.15,155.28l.37-.45c.13.21.38.42.74.63.33-.25.66-.58.98-.98h-1.81c-.37.45-.71.83-1.03,1.15-.18-.17-.39-.32-.62-.43.81-.42,1.39-1.09,1.74-2.02l.62.2c.07.02.1.04.1.07s-.03.06-.1.09c-.09.04-.23.19-.43.45h1.72c.25,0,.55-.03.9-.06-.45.64-.98,1.24-1.6,1.8.81.48,1.67.78,2.58.91-.23.23-.39.45-.48.65-.81-.3-1.64-.7-2.49-1.18-.56.42-1.35.84-2.37,1.26-.17-.24-.35-.42-.53-.55.94-.22,1.74-.57,2.4-1.05-.25-.16-.48-.33-.7-.5ZM382.11,158.35l.26-.51c.88.36,1.75.76,2.59,1.19l-.3.48c-.8-.48-1.65-.87-2.55-1.17ZM382.66,157.13l.24-.44c.62.27,1.19.55,1.73.85l-.25.48c-.47-.3-1.05-.6-1.72-.89Z"/>
    <path class="cls-9" d="M388.78,160.09c.88-.68,1.31-2.33,1.29-4.97v-1.86c0-.25-.03-.54-.06-.87.36.03.67.05.92.06h5.09c.18,0,.47-.02.88-.06-.04.32-.06.59-.06.81v.1c0,.21.03.47.06.79-.44-.04-.74-.06-.91-.06h-5.38v.64c0,1.57-.07,2.73-.23,3.49-.13.75-.42,1.46-.87,2.15-.19-.13-.43-.2-.73-.22ZM390.61,153.57h5.69v-.66h-5.69v.66ZM391.64,155.54c.41.04.71.06.88.06h1.19v-.46c-.6.03-1.37.05-2.32.08-.03-.21-.11-.41-.25-.61.48.07,1.01.1,1.57.1.33,0,.69-.01,1.06-.04.97-.07,1.72-.2,2.23-.4l.56.56s.03.04.03.06c0,0,0,.01,0,.02-.02.01-.06.02-.11,0-.08-.02-.17-.03-.26-.03-.11,0-.23.01-.36.04-.21.03-.75.09-1.6.16v.51h1.23c.23,0,.54-.02.94-.06-.03.32-.05.58-.06.79v.16c0,.17.03.44.06.81-.36-.03-.67-.05-.92-.06h-1.25v.56h2.04c.15,0,.47-.02.95-.06-.03.34-.05.63-.06.86v1.36c0,.32-.1.54-.33.66-.22.13-.65.21-1.29.24,0-.28-.09-.51-.25-.71.28.05.52.08.71.08.44,0,.65-.14.62-.41v-1.56h-2.38v.86c.31-.02.62-.05.95-.1l-.24-.36.42-.26c.24.3.5.71.79,1.23l-.45.26-.26-.47c-1.08.14-1.8.24-2.17.3-.37.06-.66.12-.87.18l-.24-.72c.21.03.42.04.61.04.19,0,.5-.02.93-.05v-.9h-2.1v1.76c0,.18.02.45.06.81h-.66c.03-.27.05-.54.06-.81v-1.44c0-.16-.02-.44-.06-.84.4.03.71.05.94.06h1.75v-.56h-1.22c-.2,0-.49.02-.85.06.03-.34.05-.6.06-.77v-.22c0-.19-.03-.45-.06-.77ZM392.25,156.06v.72h1.47v-.72h-1.47ZM394.26,156.06v.72h1.57v-.72h-1.57Z"/>
    <path class="cls-9" d="M398.62,156.31c.25-.59.41-1.37.46-2.33l.62.13c.08.01.13.03.13.04,0,.01-.01.05-.06.1-.1.1-.16.23-.18.39-.12.65-.24,1.24-.37,1.77-.16-.04-.36-.08-.6-.1ZM400.07,151.99l.72.11c.06,0,.09.02.09.05,0,.03-.01.06-.06.09-.12.11-.17.32-.17.64v7.01c0,.21.02.54.06,1h-.64c.03-.39.05-.72.06-1v-7.09c0-.19-.03-.45-.06-.8ZM401.34,153.75c.19.52.37,1.06.54,1.63l-.54.19c-.16-.66-.33-1.21-.51-1.65l.51-.17ZM401.38,156.37c.74-.83,1.16-2.04,1.27-3.61l.74.23c.06.02.1.03.1.05,0,.01-.02.03-.08.06-.13.07-.23.24-.29.51-.02.1-.05.24-.1.43-.03.13-.05.22-.07.26h1.33v-1.41c0-.17-.02-.48-.06-.94l.71.11c.08.01.12.04.13.07.01.03,0,.06-.07.1-.1.11-.16.34-.18.7v1.36h1.16c.15,0,.39-.02.72-.06v.6c-.26-.03-.51-.05-.72-.06h-1.16v2.04h.9c.12,0,.37-.02.74-.06v.6c-.33-.03-.57-.06-.74-.06h-.9v2.57h1.45c.06,0,.24-.01.55-.04h.17v.58c-.36-.04-.6-.06-.73-.06h-3.72c-.14,0-.38.02-.73.06v-.58s.12,0,.24,0c.26.02.43.03.49.03h1.72v-2.57h-.98c-.16,0-.4.02-.71.06v-.6c.31.03.55.05.71.06h.98v-2.04h-1.44c-.17.52-.44,1.14-.8,1.88-.19-.13-.41-.22-.66-.28Z"/>
  </g>
  <g class="cls-11">
    <path class="cls-9" d="M410.84,159.92c-.74,0-1.33-.21-1.75-.63-.42-.42-.63-1.02-.63-1.79v-4.34h.63v4.28c0,.62.15,1.1.45,1.44.3.34.74.51,1.3.51.6,0,1.06-.17,1.38-.52s.48-.84.48-1.49v-4.22h.64v4.25c0,.79-.22,1.4-.66,1.85-.44.44-1.06.66-1.85.66Z"/>
  </g>
  <g class="cls-11">
    <path class="cls-9" d="M472.37,28.42c-.05.31-.07.58-.06.82v2.71c.19.08.47.23.85.46.36.19.8.32,1.33.4.23.03.53.04.9.04.29,0,.69,0,1.18-.03.95-.05,1.77-.12,2.45-.2-.17.21-.27.46-.31.74-1.32.06-2.27.09-2.86.09s-1.08-.02-1.44-.06c-.62-.12-1.26-.38-1.94-.78-.18-.14-.34-.21-.51-.21s-.31.07-.45.2c-.27.19-.53.48-.79.86l-.43-.65c.52-.44,1.01-.75,1.49-.92v-2.91h-.71c-.32,0-.57.01-.76.06v-.62c.23.04.49.06.76.06h.52c.2,0,.46-.02.79-.06ZM470.97,25.65l.48-.34c.35.45.74,1,1.16,1.64l-.52.36c-.33-.58-.71-1.14-1.13-1.67ZM475.63,30.34v-1.31h-1.21c-.26,0-.51.05-.77.16l-.38-.65c.16-.07.33-.23.51-.49.17-.29.4-.75.67-1.38h-.65c-.2,0-.44.01-.74.06v-.62c.26.04.5.06.74.06h.85c.26-.68.4-1.14.42-1.38l.82.28s.07.03.07.06c0,.02-.03.04-.08.07-.15.07-.26.18-.33.32-.09.18-.19.4-.31.65h2.44c.21,0,.47-.02.77-.06v.62c-.31-.05-.57-.07-.77-.06h-2.63c-.38.85-.68,1.47-.89,1.85h1.48v-.31c0-.31-.02-.63-.06-.96l.79.1c.06.01.09.03.09.06,0,.02-.02.06-.08.09-.13.09-.19.31-.19.66v.35h1.21c.28,0,.54-.02.77-.06v.62c-.19-.04-.45-.06-.77-.06h-1.21v1.31h1.63c.22,0,.47-.02.76-.06v.62c-.23-.04-.48-.06-.76-.06h-1.63v.86c0,.28.01.56.06.83h-.66c.04-.27.06-.55.06-.83v-.86h-1.87c-.26,0-.51.01-.74.06v-.62c.29.04.54.06.74.06h1.87Z"/>
    <path class="cls-9" d="M480.18,27.5v-.6c.16.04.37.06.63.06h.64v-1.25c-.01-.37-.03-.67-.06-.91l.77.09c.08.02.12.04.11.06,0,.03-.03.07-.1.12-.12.1-.18.29-.17.54v1.34h.38c.21,0,.41-.02.6-.06v.6c-.18-.04-.38-.06-.6-.06h-.38v2.14c.1-.06.28-.16.53-.3.13-.07.23-.12.29-.17,0,.03,0,.08,0,.14-.02.19-.04.37-.05.52-.15.06-.36.16-.63.28-.06.03-.1.04-.14.06v2.75c0,.31-.08.52-.27.63-.16.12-.54.2-1.13.26-.09-.33-.16-.55-.22-.67.26.03.46.05.6.05.15,0,.25-.02.3-.05.13-.04.19-.21.18-.49v-2.19c-.23.12-.57.31-1.04.59-.11-.23-.23-.43-.36-.59.54-.2,1.01-.39,1.41-.56v-2.4h-.63c-.21,0-.42.02-.64.06ZM483.46,31.7c.35-.46.62-.86.81-1.2h-.88c-.23,0-.46.02-.7.06v-.58c.27.04.53.06.77.06h1.04c.19-.34.34-.66.46-.96l.58.26c.08.04.13.07.14.1,0,.03-.03.05-.1.07-.14.04-.23.1-.27.18-.03.06-.08.14-.14.24-.03.05-.05.09-.07.12h2.82c.28,0,.53-.02.77-.06v.58c-.31-.04-.58-.06-.82-.06h-.76c-.11.62-.37,1.16-.77,1.63.69.31,1.33.64,1.93.98l-.32.56c-.64-.46-1.31-.83-2.01-1.12-.79.53-1.73.93-2.81,1.19-.08-.25-.2-.46-.35-.63,1.08-.15,1.94-.43,2.57-.81-.02,0-.06-.02-.13-.04-1.05-.34-1.64-.53-1.78-.56ZM483.28,26.63v-.58c.26.04.49.06.71.06h3.48c.29,0,.54-.02.77-.06v.58c-.28-.04-.54-.06-.77-.06h-3.48c-.2,0-.43.02-.71.06ZM484.12,28.45h1.71c.39-.63.67-1.2.86-1.7l.6.28c.06.03.09.06.09.09s-.03.05-.09.08c-.14.06-.24.16-.31.28-.15.3-.35.63-.58.98h.84c.21,0,.46-.02.77-.06v.58c-.29-.04-.55-.06-.77-.06h-3.1c-.23,0-.48.02-.75.06v-.58c.26.04.5.06.73.06ZM483.84,27.15l.48-.38c.39.33.72.73.99,1.18l-.48.36c-.35-.55-.68-.94-.99-1.17ZM484.28,31.42c.59.18,1.09.35,1.51.51.42-.43.66-.91.73-1.43h-1.65c-.15.25-.35.56-.59.92ZM484.81,25.05l.41-.44c.39.28.77.59,1.14.93l-.41.47c-.31-.33-.69-.66-1.14-.97Z"/>
    <path class="cls-9" d="M489.69,27.76c1.03-.73,1.8-1.78,2.31-3.13l.67.29c.07.03.1.06.1.08s-.04.05-.11.08c-.12.07-.2.14-.26.21-.14.25-.27.45-.38.62h2.89c-.37-.31-.8-.61-1.31-.9l.36-.44c.51.3,1,.61,1.46.94l-.27.4h1.89c.18,0,.4-.01.67-.06v.56c-.28-.04-.51-.06-.67-.06h-2.42v.71h1.84c.17,0,.41-.01.71-.06v.56c-.29-.05-.52-.07-.69-.06h-1.86v.68h1.94c.14,0,.35-.01.63-.06v.56c-.25-.04-.46-.06-.64-.06h-1.93v.65h2.64c.16,0,.38-.02.65-.06v.56c-.26-.05-.48-.07-.64-.06h-5.38c0,.12.02.27.06.47h-.66c.05-.22.07-.4.06-.52v-2.79c-.3.41-.62.81-.97,1.2-.16-.2-.39-.31-.68-.34ZM489.97,32.8c1.3-.27,2.43-.89,3.39-1.87h-2.67c-.17,0-.41.01-.71.06v-.58c.26.04.48.06.68.06h3.34c0-.19-.01-.39-.06-.61l.74.09c.09,0,.14.03.14.05,0,.02-.04.05-.12.1-.12.05-.17.17-.16.36h3.17c.17,0,.4-.02.7-.06v.58c-.29-.05-.51-.07-.68-.06h-2.61c.82.83,1.93,1.35,3.32,1.57-.28.16-.44.38-.48.66-1.56-.56-2.7-1.26-3.42-2.11v1.76c0,.21.02.47.06.77h-.66c.05-.32.07-.57.06-.77v-1.77c-.84.94-2.02,1.71-3.55,2.33-.08-.24-.24-.43-.48-.57ZM491.88,26.37v.71h2.19v-.71h-2.19ZM491.88,27.52v.68h2.19v-.68h-2.19ZM491.88,29.3h2.19v-.65h-2.19v.65Z"/>
  </g>
  <g class="cls-11">
    <path class="cls-9" d="M499.77,32.65v-6.67h.63v6.67h-.63Z"/>
  </g>
  <g class="cls-11">
    <path class="cls-9" d="M541.1,28.24c-.04.2-.06.48-.06.82v2.84c.32.12.74.34,1.27.65.26.14.76.23,1.49.27.25.01.51.02.79.02.57,0,1.23-.03,1.97-.08.33-.02.7-.06,1.11-.13.07-.01.12-.02.16-.03-.16.22-.25.49-.28.79h-.17c-.09,0-.2,0-.33,0s-.23,0-.3,0c-.69.04-1.38.05-2.07.05-.65,0-1.19-.02-1.62-.07-.37-.04-.99-.34-1.85-.89-.13-.08-.26-.11-.39-.11-.18,0-.36.07-.55.21-.22.16-.46.39-.73.71-.14-.22-.29-.4-.43-.53.46-.37.92-.65,1.39-.84v-3.13h-.72c-.3,0-.55.02-.75.06v-.6c.2.04.45.06.75.06h.53c.32,0,.58-.02.79-.06ZM541.56,26.74l-.44.44c-.46-.57-.94-1.06-1.43-1.48l.44-.44c.5.43.98.92,1.43,1.48ZM543.71,24.75l.91.1s.08.03.08.06-.03.06-.08.09c-.16.06-.24.3-.24.71,0,.55-.01.95-.04,1.23l1.7-.05.81-.07s0,.04,0,.08c-.03.18-.04.37-.06.57-.02.33-.04.85-.06,1.56-.02.85-.05,1.44-.07,1.78.01.5-.18.84-.58,1.04-.15.1-.51.18-1.07.24-.04-.28-.14-.54-.3-.78.23.03.45.05.64.05.08,0,.14,0,.18,0,.35-.02.53-.2.56-.53.05-.59.09-1.47.11-2.65,0-.35.01-.61.02-.79-.21,0-.6.02-1.16.03-.38.01-.62.02-.74.02,0,1.96-.68,3.53-2.05,4.72-.24-.16-.48-.29-.73-.39,1.36-.72,2.1-2.16,2.2-4.31-.6,0-1.18.03-1.74.09v-.62c.19.03.45.05.79.05.33,0,.66,0,.97-.02.02-.28.02-.55.02-.79,0-.43-.02-.9-.06-1.41Z"/>
    <path class="cls-9" d="M548.72,32.92c.88-.68,1.31-2.33,1.29-4.97v-1.86c0-.25-.03-.54-.06-.87.36.03.67.05.92.06h5.09c.18,0,.47-.02.88-.06-.04.32-.06.59-.06.81v.1c0,.21.03.47.06.79-.44-.04-.74-.06-.91-.06h-5.38v.64c0,1.57-.07,2.73-.23,3.49-.13.75-.42,1.46-.87,2.15-.19-.13-.43-.2-.73-.22ZM550.55,26.4h5.69v-.66h-5.69v.66ZM551.58,28.37c.41.04.71.06.88.06h1.19v-.46c-.6.03-1.37.05-2.32.08-.03-.21-.11-.41-.25-.61.48.07,1.01.1,1.57.1.33,0,.69-.01,1.06-.04.97-.07,1.72-.2,2.23-.4l.56.56s.03.04.03.06c0,0,0,.01,0,.02-.02.01-.06.02-.11,0-.08-.02-.17-.03-.26-.03-.11,0-.23.01-.36.04-.21.03-.75.09-1.6.16v.51h1.23c.23,0,.54-.02.94-.06-.03.32-.05.58-.06.79v.16c0,.17.03.44.06.81-.36-.03-.67-.05-.92-.06h-1.25v.56h2.04c.15,0,.47-.02.95-.06-.03.34-.05.63-.06.86v1.36c0,.32-.1.54-.33.66-.22.13-.65.21-1.29.24,0-.28-.09-.51-.25-.71.28.05.52.08.71.08.44,0,.65-.14.62-.41v-1.56h-2.38v.86c.31-.02.62-.05.95-.1l-.24-.36.42-.26c.24.3.5.71.79,1.23l-.45.26-.26-.47c-1.08.14-1.8.24-2.17.3-.37.06-.66.12-.87.18l-.24-.72c.21.03.42.04.61.04.19,0,.5-.02.93-.05v-.9h-2.1v1.76c0,.18.02.45.06.81h-.66c.03-.27.05-.54.06-.81v-1.44c0-.16-.02-.44-.06-.84.4.03.71.05.94.06h1.75v-.56h-1.22c-.2,0-.49.02-.85.06.03-.34.05-.6.06-.77v-.22c0-.19-.03-.45-.06-.77ZM552.18,28.89v.72h1.47v-.72h-1.47ZM554.2,28.89v.72h1.57v-.72h-1.57Z"/>
    <path class="cls-9" d="M558.56,29.14c.25-.59.41-1.37.46-2.33l.62.13c.08.01.13.03.13.04,0,.01-.01.05-.06.1-.1.1-.16.23-.18.39-.12.65-.24,1.24-.37,1.77-.16-.04-.36-.08-.6-.1ZM560.01,24.82l.72.11c.06,0,.09.02.09.05,0,.03-.01.06-.06.09-.12.11-.17.32-.17.64v7.01c0,.21.02.54.06,1h-.64c.03-.39.05-.72.06-1v-7.09c0-.19-.03-.45-.06-.8ZM561.28,26.58c.19.52.37,1.06.54,1.63l-.54.19c-.16-.66-.33-1.21-.51-1.65l.51-.17ZM561.32,29.19c.74-.83,1.16-2.04,1.27-3.61l.74.23c.06.02.1.03.1.05,0,.01-.02.03-.08.06-.13.07-.23.24-.29.51-.02.1-.05.24-.1.43-.03.13-.05.22-.07.26h1.33v-1.41c0-.17-.02-.48-.06-.94l.71.11c.08.01.12.04.13.07.01.03,0,.06-.07.1-.1.11-.16.34-.18.7v1.36h1.16c.15,0,.39-.02.72-.06v.6c-.26-.03-.51-.05-.72-.06h-1.16v2.04h.9c.12,0,.37-.02.74-.06v.6c-.33-.03-.57-.06-.74-.06h-.9v2.57h1.45c.06,0,.24-.01.55-.04h.17v.58c-.36-.04-.6-.06-.73-.06h-3.72c-.14,0-.38.02-.73.06v-.58s.12,0,.24,0c.26.02.43.03.49.03h1.72v-2.57h-.98c-.16,0-.4.02-.71.06v-.6c.31.03.55.05.71.06h.98v-2.04h-1.44c-.17.52-.44,1.14-.8,1.88-.19-.13-.41-.22-.66-.28Z"/>
    <path class="cls-9" d="M568.11,27.76c1.03-.73,1.8-1.78,2.31-3.13l.67.29c.07.03.1.06.1.08s-.04.05-.11.08c-.12.07-.2.14-.26.21-.14.25-.27.45-.38.62h2.89c-.37-.31-.8-.61-1.31-.9l.36-.44c.51.3,1,.61,1.46.94l-.27.4h1.89c.18,0,.4-.01.67-.06v.56c-.28-.04-.51-.06-.67-.06h-2.42v.71h1.84c.17,0,.41-.01.71-.06v.56c-.29-.05-.52-.07-.69-.06h-1.86v.68h1.94c.14,0,.35-.01.63-.06v.56c-.25-.04-.46-.06-.64-.06h-1.93v.65h2.64c.16,0,.38-.02.65-.06v.56c-.26-.05-.48-.07-.64-.06h-5.38c0,.12.02.27.06.47h-.66c.05-.22.07-.4.06-.52v-2.79c-.3.41-.62.81-.97,1.2-.16-.2-.39-.31-.68-.34ZM568.38,32.8c1.3-.27,2.43-.89,3.39-1.87h-2.67c-.17,0-.41.01-.71.06v-.58c.26.04.48.06.68.06h3.34c0-.19-.01-.39-.06-.61l.74.09c.09,0,.14.03.14.05,0,.02-.04.05-.12.1-.12.05-.17.17-.16.36h3.17c.17,0,.4-.02.7-.06v.58c-.29-.05-.51-.07-.68-.06h-2.61c.82.83,1.93,1.35,3.32,1.57-.28.16-.44.38-.48.66-1.56-.56-2.7-1.26-3.42-2.11v1.76c0,.21.02.47.06.77h-.66c.05-.32.07-.57.06-.77v-1.77c-.84.94-2.02,1.71-3.55,2.33-.08-.24-.24-.43-.48-.57ZM570.3,26.37v.71h2.19v-.71h-2.19ZM570.3,27.52v.68h2.19v-.68h-2.19ZM570.3,29.3h2.19v-.65h-2.19v.65Z"/>
  </g>
  <g class="cls-11">
    <path class="cls-9" d="M578.18,32.65v-6.67h3.47v.53h-2.83v2.45h2.55v.53h-2.55v2.64h3.03v.53h-3.66Z"/>
  </g>
  <g>
    <path class="cls-9" d="M52.17,107.94v.94l-20.88,12.02-.41-.24v-.47l21.29-12.26Z"/>
    <g class="cls-11">
      <path class="cls-12" d="M70.99,120.78c0-.97.26-1.73.78-2.28.52-.55,1.2-.82,2.02-.82.54,0,1.03.13,1.46.39.43.26.77.62.99,1.08.23.46.34.99.34,1.57s-.12,1.12-.36,1.59c-.24.47-.58.82-1.02,1.06-.44.24-.92.36-1.42.36-.55,0-1.05-.13-1.48-.4-.43-.27-.76-.63-.99-1.09-.22-.46-.34-.95-.34-1.46ZM71.8,120.79c0,.71.19,1.26.57,1.67.38.41.86.61,1.43.61s1.06-.2,1.44-.61.57-.99.57-1.74c0-.48-.08-.89-.24-1.25-.16-.35-.4-.63-.71-.83-.31-.2-.66-.29-1.05-.29-.55,0-1.02.19-1.42.56-.4.38-.59,1.01-.59,1.89Z"/>
    </g>
    <path class="cls-9" d="M69.64,118l-.41.71-17.06-9.83v-.94l17.47,10.06Z"/>
    <g class="cls-11">
      <path class="cls-12" d="M49.7,83.93c0-.97.26-1.73.78-2.28.52-.55,1.2-.82,2.02-.82.54,0,1.03.13,1.46.39.43.26.77.62.99,1.08.23.46.34.99.34,1.57s-.12,1.12-.36,1.59c-.24.47-.58.82-1.02,1.06-.44.24-.92.36-1.42.36-.55,0-1.05-.13-1.48-.4-.43-.27-.76-.63-.99-1.09-.22-.46-.34-.95-.34-1.46ZM50.5,83.94c0,.71.19,1.26.57,1.67.38.41.86.61,1.43.61s1.06-.2,1.44-.61.57-.99.57-1.74c0-.48-.08-.89-.24-1.25-.16-.35-.4-.63-.71-.83-.31-.2-.66-.29-1.05-.29-.55,0-1.02.19-1.42.56-.4.38-.59,1.01-.59,1.89Z"/>
    </g>
    <path class="cls-9" d="M50.29,88.73h.82v20.54h-.82v-20.54Z"/>
    <path class="cls-9" d="M53.24,88.73h.82v20.54h-.82v-20.54Z"/>
    <g class="cls-11">
      <path class="cls-9" d="M93.08,111.17v-5.85h.78v2.4h3.05v-2.4h.78v5.85h-.78v-2.76h-3.05v2.76h-.78Z"/>
    </g>
    <path class="cls-9" d="M90.1,110.62l.41.71-12.81,7.38-.41-.71,12.81-7.38Z"/>
    <g class="cls-11">
      <path class="cls-9" d="M7.91,111.17v-5.85h.78v2.4h3.05v-2.4h.78v5.85h-.78v-2.76h-3.05v2.76h-.78Z"/>
    </g>
    <path class="cls-9" d="M13.8,111.32l.41-.71,16.67,9.6v.47l-.41.24-16.67-9.6Z"/>
    <g class="cls-11">
      <path class="cls-9" d="M29.2,148.03v-5.85h.78v2.4h3.05v-2.4h.78v5.85h-.78v-2.76h-3.05v2.76h-.78Z"/>
    </g>
    <path class="cls-9" d="M31.29,140.59h-.82v-19.68l.41-.24.41.24v19.68Z"/>
  </g>
  <path class="cls-8" d="M281.1,19.81v170.49"/>
</svg>