<?xml version="1.0" encoding="UTF-8"?>
<svg id="_图层_1" data-name="图层 1" xmlns="http://www.w3.org/2000/svg" viewBox="0 0 583.69 334.96">
  <defs>
    <style>
      .cls-1, .cls-2, .cls-3, .cls-4, .cls-5, .cls-6, .cls-7, .cls-8, .cls-9, .cls-10, .cls-11 {
        fill-rule: evenodd;
      }

      .cls-1, .cls-12 {
        fill: #e7211a;
      }

      .cls-13, .cls-4 {
        fill: #040000;
      }

      .cls-14 {
        stroke-width: 4px;
      }

      .cls-14, .cls-15 {
        fill: none;
        stroke: #040000;
        stroke-miterlimit: 8;
      }

      .cls-2 {
        fill: #1d95c7;
      }

      .cls-3 {
        fill: #1e6935;
      }

      .cls-16 {
        isolation: isolate;
      }

      .cls-17 {
        fill: #165d7e;
      }

      .cls-5 {
        fill: #de6f35;
      }

      .cls-6 {
        fill: #952d8a;
      }

      .cls-7 {
        fill: #732169;
      }

      .cls-8 {
        fill: #d29bc4;
      }

      .cls-9 {
        fill: #68348f;
      }

      .cls-15 {
        stroke-width: 2px;
      }

      .cls-10 {
        fill: #ebcde2;
      }

      .cls-11 {
        fill: #4e9f35;
      }
    </style>
  </defs>
  <path class="cls-13" d="M100.59,248.04v-27.47s-.72,0-.72,0v27.47s.72,0,.72,0ZM99.15,248.04v-27.47s-.72,0-.72,0v27.47s.72,0,.72,0Z"/>
  <path class="cls-4" d="M56.28,17.94c0-5.37,4.35-9.73,9.73-9.73s9.73,4.35,9.73,9.73-4.35,9.73-9.73,9.73-9.73-4.35-9.73-9.73Z"/>
  <path class="cls-4" d="M16.29,53.06c0-5.37,4.35-9.73,9.73-9.73s9.73,4.35,9.73,9.73-4.35,9.73-9.73,9.73-9.73-4.35-9.73-9.73Z"/>
  <path class="cls-4" d="M103.29,64.95c0-5.37,4.35-9.73,9.73-9.73s9.73,4.35,9.73,9.73-4.35,9.73-9.73,9.73-9.73-4.35-9.73-9.73Z"/>
  <path class="cls-4" d="M80.05,129.25c0-5.37,4.35-9.73,9.73-9.73s9.73,4.35,9.73,9.73-4.35,9.73-9.73,9.73-9.73-4.35-9.73-9.73Z"/>
  <path class="cls-4" d="M39.53,95.75c0-5.37,4.35-9.73,9.73-9.73s9.73,4.35,9.73,9.73-4.35,9.73-9.73,9.73-9.73-4.35-9.73-9.73Z"/>
  <path class="cls-4" d="M274.04,16.31c0-5.37,4.35-9.73,9.73-9.73s9.73,4.35,9.73,9.73-4.35,9.73-9.73,9.73-9.73-4.35-9.73-9.73Z"/>
  <path class="cls-4" d="M237.3,57.92c0-5.37,4.35-9.73,9.73-9.73s9.73,4.35,9.73,9.73-4.35,9.73-9.73,9.73-9.73-4.35-9.73-9.73Z"/>
  <path class="cls-4" d="M361.58,74.67c0-5.37,4.35-9.73,9.73-9.73s9.73,4.35,9.73,9.73-4.35,9.73-9.73,9.73-9.73-4.35-9.73-9.73Z"/>
  <path class="cls-4" d="M334.02,37.39c0-5.37,4.35-9.73,9.73-9.73s9.73,4.35,9.73,9.73-4.35,9.73-9.73,9.73-9.73-4.35-9.73-9.73Z"/>
  <path class="cls-4" d="M314.57,113.04c0-5.37,4.35-9.73,9.73-9.73s9.73,4.35,9.73,9.73-4.35,9.73-9.73,9.73-9.73-4.35-9.73-9.73Z"/>
  <path class="cls-4" d="M227.57,118.44c0-5.37,4.35-9.73,9.73-9.73s9.73,4.35,9.73,9.73-4.35,9.73-9.73,9.73-9.73-4.35-9.73-9.73Z"/>
  <path class="cls-4" d="M278.9,79.54c0-5.37,4.35-9.73,9.73-9.73s9.73,4.35,9.73,9.73-4.35,9.73-9.73,9.73-9.73-4.35-9.73-9.73Z"/>
  <path class="cls-15" d="M33.04,45.83l26.05-20.87"/>
  <path class="cls-15" d="M73.03,24.96l33.32,33.19"/>
  <path class="cls-15" d="M49.37,85.73l-16.33-26.19"/>
  <path class="cls-15" d="M89.78,119.56l16.66-47.59"/>
  <path class="cls-15" d="M49.25,85.63l16.6-57.96"/>
  <path class="cls-15" d="M82.67,122.19l-16.66-94.53"/>
  <path class="cls-15" d="M56.28,88.54l47.08-23.6"/>
  <path class="cls-15" d="M103.18,65.38l-67.44-12.32"/>
  <path class="cls-13" d="M253.92,51.82l20.91-25.36-.83-.69-20.91,25.36.83.69ZM275.63,28.05l1.08-4.71-4.42,1.96,3.33,2.75Z"/>
  <path class="cls-13" d="M336.38,30.9l-39.63-12.95.34-1.03,39.63,12.95-.34,1.03ZM296.93,19.71l-3.44-3.4,4.78-.71-1.34,4.11Z"/>
  <path class="cls-13" d="M284.3,25.98l4.37,40.51-1.07.12-4.37-40.51,1.07-.12ZM290.21,65.6l-1.69,4.53-2.61-4.07,4.3-.46Z"/>
  <path class="cls-13" d="M350.69,43.6l12.29,20.81-.93.55-12.29-20.81.93-.55ZM364.02,62.96l.34,4.82-4.06-2.62,3.72-2.2Z"/>
  <path class="cls-13" d="M324.82,103.05l11.82-55.54-1.06-.23-11.82,55.54,1.06.23ZM338.08,48.55l-1.21-4.68-3.01,3.78,4.23.9Z"/>
  <path class="cls-13" d="M243.79,111.42l66.68.99-.02,1.08-66.68-.99.02-1.08ZM309.77,110.77l4.29,2.23-4.35,2.1.06-4.32Z"/>
  <path class="cls-13" d="M246.09,67.61l-2.62,40.36,1.08.07,2.62-40.36-1.08-.07ZM241.9,107.15l1.88,4.45,2.44-4.17-4.31-.28Z"/>
  <path class="cls-5" d="M47.63,200.57c0-5.37,4.35-9.73,9.73-9.73s9.73,4.35,9.73,9.73-4.35,9.73-9.73,9.73-9.73-4.35-9.73-9.73Z"/>
  <path class="cls-5" d="M47.09,277.3c0-5.37,4.35-9.73,9.73-9.73s9.73,4.35,9.73,9.73-4.35,9.73-9.73,9.73-9.73-4.35-9.73-9.73Z"/>
  <path class="cls-5" d="M6.57,257.85c0-5.37,4.35-9.73,9.73-9.73s9.73,4.35,9.73,9.73-4.35,9.73-9.73,9.73-9.73-4.35-9.73-9.73Z"/>
  <path class="cls-5" d="M6.57,218.95c0-5.37,4.35-9.73,9.73-9.73s9.73,4.35,9.73,9.73-4.35,9.73-9.73,9.73-9.73-4.35-9.73-9.73Z"/>
  <path class="cls-5" d="M89.78,257.85c0-5.37,4.35-9.73,9.73-9.73s9.73,4.35,9.73,9.73-4.35,9.73-9.73,9.73-9.73-4.35-9.73-9.73Z"/>
  <path class="cls-5" d="M89.78,218.95c0-5.37,4.35-9.73,9.73-9.73s9.73,4.35,9.73,9.73-4.35,9.73-9.73,9.73-9.73-4.35-9.73-9.73Z"/>
  <path class="cls-5" d="M130.31,190.85c0-5.37,4.35-9.73,9.73-9.73s9.73,4.35,9.73,9.73-4.35,9.73-9.73,9.73-9.73-4.35-9.73-9.73Z"/>
  <path class="cls-1" d="M167.59,220.57c0-5.37,4.35-9.73,9.73-9.73s9.73,4.35,9.73,9.73-4.35,9.73-9.73,9.73-9.73-4.35-9.73-9.73Z"/>
  <path class="cls-13" d="M23.8,213.48l24.06-11.94-.32-.65-24.06,11.94.32.65ZM23.16,212.19l24.06-11.94-.32-.65-24.06,11.94.32.65Z"/>
  <path class="cls-13" d="M67.54,199.59l25.87,11.94-.3.65-25.87-11.94.3-.65ZM66.93,200.9l25.87,11.94-.3.65-25.87-11.94.3-.65Z"/>
  <path class="cls-13" d="M17.37,228.67v19.05h-.72v-19.05h.72ZM15.93,228.67v19.05h-.72v-19.05h.72Z"/>
  <path class="cls-13" d="M23.84,263.39l23.54,12.98-.35.63-23.54-12.98.35-.63ZM23.14,264.65l23.54,12.98-.35.63-23.54-12.98.35-.63Z"/>
  <path class="cls-13" d="M67.02,278.28l26.39-12.98-.32-.65-26.39,12.98.32.65ZM66.39,276.99l26.39-12.98-.32-.65-26.39,12.98.32.65Z"/>
  <path class="cls-14" d="M106.53,212.26l26.45-14.39"/>
  <path class="cls-14" d="M146.52,197.87l23.85,15.69"/>
  <path class="cls-5" d="M483.16,165.18c0-3.43,2.78-6.21,6.21-6.21s6.21,2.78,6.21,6.21-2.78,6.21-6.21,6.21-6.21-2.78-6.21-6.21Z"/>
  <path class="cls-2" d="M437.23,120.6c0-3.58,2.78-6.48,6.21-6.48s6.21,2.9,6.21,6.48-2.78,6.48-6.21,6.48-6.21-2.9-6.21-6.48Z"/>
  <path class="cls-3" d="M479.37,117.09c0-3.43,2.78-6.21,6.21-6.21s6.21,2.78,6.21,6.21-2.78,6.21-6.21,6.21-6.21-2.78-6.21-6.21Z"/>
  <path class="cls-3" d="M506.93,128.98c0-3.43,2.78-6.21,6.21-6.21s6.21,2.78,6.21,6.21-2.78,6.21-6.21,6.21-6.21-2.78-6.21-6.21Z"/>
  <path class="cls-2" d="M537.61,163.31c2.35-2.56,6.33-2.73,8.89-.38,2.56,2.35,2.72,6.33.38,8.88-2.35,2.56-6.33,2.73-8.88.38-2.56-2.35-2.73-6.33-.38-8.88Z"/>
  <path class="cls-1" d="M536.65,73.59c0-3.58,2.9-6.48,6.48-6.48s6.48,2.9,6.48,6.48-2.9,6.48-6.48,6.48-6.48-2.9-6.48-6.48Z"/>
  <path class="cls-2" d="M512.34,201.93c0-3.43,2.78-6.21,6.21-6.21s6.21,2.78,6.21,6.21-2.78,6.21-6.21,6.21-6.21-2.78-6.21-6.21Z"/>
  <path class="cls-2" d="M460.46,211.11c0-3.43,2.78-6.21,6.21-6.21s6.21,2.78,6.21,6.21-2.78,6.21-6.21,6.21-6.21-2.78-6.21-6.21Z"/>
  <path class="cls-2" d="M439.39,174.91c0-3.43,2.78-6.21,6.21-6.21s6.21,2.78,6.21,6.21-2.78,6.21-6.21,6.21-6.21-2.78-6.21-6.21Z"/>
  <path class="cls-11" d="M560.97,54.41c0-3.43,2.78-6.21,6.21-6.21s6.21,2.78,6.21,6.21-2.78,6.21-6.21,6.21-6.21-2.78-6.21-6.21Z"/>
  <path class="cls-11" d="M556.64,126.82c0-3.43,2.78-6.21,6.21-6.21s6.21,2.78,6.21,6.21-2.78,6.21-6.21,6.21-6.21-2.78-6.21-6.21Z"/>
  <path class="cls-11" d="M564.21,86.29c0-3.43,2.78-6.21,6.21-6.21s6.21,2.78,6.21,6.21-2.78,6.21-6.21,6.21-6.21-2.78-6.21-6.21Z"/>
  <path class="cls-17" d="M484.66,161.07l-34.42-33.25.75-.78,34.42,33.25-.75.78ZM449.64,129.48l-1.61-4.56,4.61,1.45-3,3.11Z"/>
  <path class="cls-17" d="M489.08,159.09l-3.38-32.15,1.07-.11,3.38,32.15-1.08.11ZM484.16,127.83l1.7-4.52,2.6,4.07-4.3.45Z"/>
  <path class="cls-17" d="M482.79,164.94l-27.69,8.59.32,1.03,27.69-8.59-.32-1.03ZM455.3,171.76l-3.49,3.35,4.77.78-1.28-4.13Z"/>
  <path class="cls-17" d="M484.22,169.58l-12.73,33.65,1.01.38,12.73-33.65-1.01-.38ZM470.24,201.98l.49,4.81,3.55-3.28-4.04-1.53Z"/>
  <path class="cls-17" d="M494.4,169.46l18.14,24.84-.88.64-18.14-24.83.88-.64ZM513.42,192.75l.81,4.77-4.3-2.22,3.49-2.55Z"/>
  <path class="cls-17" d="M495.62,164.91l36.68,2.32-.07,1.08-36.68-2.32.06-1.08ZM531.68,165.57l4.18,2.43-4.45,1.88.27-4.31Z"/>
  <path class="cls-17" d="M494.44,161.12l13.11-24.13-.95-.52-13.11,24.13.95.52ZM508.63,138.4l.16-4.83-3.96,2.77,3.8,2.06Z"/>
  <path class="cls-17" d="M537.97,77.65l-23.77,41.59.94.54,23.77-41.59-.94-.54ZM513.15,117.81l-.27,4.83,4.02-2.68-3.75-2.15Z"/>
  <path class="cls-17" d="M536.74,73.15l-48.28,34.93.63.88,48.28-34.93-.63-.88ZM488.09,106.35l-2.24,4.28,4.77-.78-2.53-3.5Z"/>
  <path class="cls-17" d="M543.64,79.89l14.08,39.15-1.02.37-14.08-39.15,1.02-.37ZM559.01,117.82l-.57,4.8-3.5-3.34,4.07-1.46Z"/>
  <path class="cls-17" d="M547.7,77.43l13.29,6.54-.48.97-13.28-6.54.48-.97ZM561.05,82.2l2.93,3.85-4.84.03,1.91-3.88Z"/>
  <path class="cls-17" d="M547.76,69.61l12.15-8.15-.6-.9-12.15,8.15.6.9ZM560.22,63.21l2.39-4.2-4.79.61,2.41,3.59Z"/>
  <path class="cls-17" d="M538.41,77.82l-19.52,113.99,1.07.18,19.52-113.99-1.07-.18ZM517.42,190.83l1.4,4.63,2.86-3.9-4.26-.73Z"/>
  <path class="cls-17" d="M536.69,73.1l-85.64,40.98.47.97,85.64-40.98-.47-.97ZM451,112.32l-2.97,3.82,4.83.08-1.87-3.9Z"/>
  <g class="cls-16">
    <path class="cls-13" d="M23.52,303.85c1.97-1.11,3.33-2.9,4.07-5.4l.87.34c.13.04.19.08.18.11,0,.03-.05.09-.18.17-.18.08-.35.3-.49.66-.89,1.93-2.09,3.49-3.61,4.69-.25-.23-.53-.43-.84-.58ZM24.52,309.19c2.39-.8,3.59-2.67,3.62-5.62h-.85c-.33,0-.69.03-1.08.08v-.8c.36.05.72.08,1.08.08h4.24c.48,0,.92-.03,1.32-.08-.06.42-.1.82-.11,1.2l-.11,2.39c-.04,1.36-.22,2.2-.54,2.5-.27.37-.98.59-2.14.65-.11-.33-.27-.66-.47-1,.32.03.61.04.89.04.56,0,.92-.08,1.06-.23.27-.17.42-.76.44-1.77l.13-3.06h-3.02c-.1,3.03-1.32,5.15-3.67,6.36-.22-.26-.47-.51-.78-.74ZM31.09,298.06c.65,2.44,2.16,4.29,4.52,5.53-.3.15-.61.37-.93.65-2.04-1.47-3.5-3.49-4.4-6.07l.82-.11Z"/>
    <path class="cls-13" d="M36.98,304.01v-.83c.3.05.62.08.96.08h4.31v-.58c0-.21-.03-.45-.08-.74,1.46-.95,2.53-1.82,3.22-2.61h-6.05c-.31,0-.66.03-1.05.08v-.83c.3.05.64.08,1.01.08h6.55c.35,0,.8-.03,1.35-.08-.92,1.06-2.3,2.31-4.16,3.75v.93h4.25c.35,0,.68-.03.98-.08v.83c-.32-.05-.64-.08-.96-.08h-4.26v4.48c.02.62-.12,1.01-.41,1.18-.26.2-.88.32-1.86.37-.06-.35-.21-.71-.44-1.05.46.06.82.09,1.09.09.25,0,.43-.03.52-.08.22-.06.33-.32.31-.79v-4.21h-4.32c-.35,0-.66.03-.95.08Z"/>
    <path class="cls-13" d="M51.44,310.02h-.89c.05-.45.07-.84.08-1.17v-8.85c0-.35-.04-.74-.08-1.15.46.04.86.07,1.21.08h7.71c.34,0,.74-.03,1.2-.08-.04.43-.07.81-.08,1.13v8.62c0,.27.03.66.08,1.15h-.88c.04-.26.07-.5.08-.74h-8.51c0,.3.04.63.08,1ZM51.36,308.4h8.51v-8.82h-8.51v8.82ZM53.83,302.52l.5-.61c.18.28.51.56.99.84.44-.34.88-.77,1.31-1.31h-2.42c-.49.6-.95,1.11-1.37,1.54-.24-.23-.52-.42-.83-.57,1.09-.56,1.87-1.46,2.33-2.71l.83.27c.09.03.13.05.13.09s-.04.07-.13.12c-.12.05-.31.25-.57.61h2.3c.33,0,.73-.03,1.2-.08-.6.86-1.32,1.67-2.14,2.41,1.08.64,2.23,1.04,3.45,1.22-.31.31-.53.6-.65.87-1.09-.41-2.2-.93-3.34-1.58-.75.57-1.81,1.13-3.17,1.69-.23-.32-.46-.57-.7-.74,1.25-.29,2.33-.76,3.22-1.4-.33-.21-.64-.44-.93-.67ZM53.77,306.64l.34-.68c1.18.49,2.34,1.02,3.47,1.6l-.4.65c-1.07-.64-2.21-1.16-3.41-1.56ZM54.51,305.01l.32-.59c.82.36,1.59.74,2.31,1.13l-.34.65c-.63-.41-1.4-.8-2.3-1.19Z"/>
  </g>
  <g class="cls-16">
    <path class="cls-13" d="M63.47,305.74v-.72h3.67v.72h-3.67Z"/>
  </g>
  <g class="cls-16">
    <path class="cls-13" d="M71.96,302.71c-.05.27-.08.64-.08,1.1v3.8c.43.17.99.45,1.7.87.35.19,1.02.31,1.99.37.33.02.68.03,1.05.03.77,0,1.65-.04,2.63-.11.44-.03.93-.08,1.49-.18.09-.02.16-.03.21-.04-.22.3-.34.65-.37,1.05h-.22c-.12,0-.27-.01-.44-.01s-.3,0-.41.01c-.93.05-1.85.07-2.77.06-.87,0-1.59-.03-2.17-.09-.5-.06-1.32-.46-2.48-1.19-.17-.1-.34-.15-.52-.15-.24,0-.49.09-.73.28-.3.21-.62.53-.98.95-.19-.29-.38-.53-.58-.7.62-.5,1.24-.87,1.86-1.13v-4.19h-.96c-.41,0-.74.03-1,.08v-.8c.26.05.6.08,1,.08h.72c.42,0,.77-.03,1.05-.08ZM72.58,300.7l-.58.58c-.62-.76-1.26-1.42-1.92-1.98l.58-.58c.67.58,1.31,1.24,1.92,1.98ZM75.46,298.04l1.22.14c.07,0,.1.04.1.08s-.04.08-.11.12c-.22.08-.32.4-.32.94,0,.73-.02,1.28-.05,1.64l2.28-.07,1.09-.09s0,.06-.01.1c-.03.25-.06.5-.08.77-.03.44-.05,1.14-.08,2.09-.03,1.13-.06,1.93-.09,2.39.02.66-.24,1.12-.78,1.39-.21.14-.69.25-1.44.32-.06-.37-.19-.72-.41-1.04.31.05.6.07.86.07.1,0,.18,0,.25,0,.46-.03.71-.26.75-.71.07-.79.12-1.97.15-3.55,0-.47.02-.82.03-1.05-.28,0-.8.02-1.56.04-.5.02-.83.03-.99.03,0,2.62-.91,4.73-2.74,6.31-.32-.22-.64-.39-.98-.52,1.82-.97,2.81-2.89,2.94-5.77-.81,0-1.58.04-2.32.12v-.84c.25.04.6.06,1.06.07.45,0,.88,0,1.3-.03.02-.38.03-.73.03-1.06,0-.58-.03-1.21-.08-1.89Z"/>
    <path class="cls-13" d="M82.18,309.28c2.74-.31,4.36-1.24,4.88-2.79h-3.6c-.4,0-.75.02-1.06.06v-.8c.68.05,1.04.07,1.06.07h3.72c.04-.22.06-.46.06-.7,0-.1,0-.21-.01-.34l1.01.13c.08.02.12.05.13.09,0,.04-.02.1-.09.16-.14.11-.24.33-.31.67h4.6c.54-.02.88-.04,1.04-.07v.8c-.41-.04-.76-.06-1.04-.06h-3.74c1.12,1.53,2.7,2.38,4.74,2.55-.35.44-.58.76-.67.95-2.2-.56-3.85-1.73-4.98-3.5h-.1c-.35,1.74-2.03,2.98-5.05,3.72-.26-.45-.47-.76-.61-.94ZM83.78,301.31h3.84v-2.11c0-.35-.04-.74-.08-1.19l.96.13c.05.02.08.05.08.09,0,.04-.03.1-.1.17-.1.03-.14.31-.13.87v2.05h3.84c.3,0,.64-.03,1.03-.08v.83c-.41-.05-.75-.07-1.03-.08h-3.84v.23c1.9.74,3.31,1.36,4.26,1.84l-.54.8c-.89-.66-2.13-1.3-3.71-1.92v.53c0,.33.04.69.08,1.08h-.89c.05-.4.07-.75.08-1.06v-1.29c-1.55,1.26-3.04,2.17-4.48,2.72-.14-.26-.37-.55-.7-.87,1.51-.21,2.93-.9,4.27-2.08h-2.93c-.33,0-.67.04-1.04.08v-.83c.38.04.73.07,1.04.08ZM84.5,299.08l.56-.53c.68.67,1.26,1.3,1.75,1.88l-.68.54c-.48-.68-1.02-1.32-1.63-1.89ZM88.85,300.59c.99-.81,1.68-1.55,2.06-2.23l.8.62c.06.05.08.11.06.16-.03.04-.08.07-.17.08-.21.03-.39.12-.54.3-.61.68-1.14,1.21-1.58,1.58-.21-.18-.42-.35-.64-.51Z"/>
    <path class="cls-13" d="M96.32,308.85h4.39v-1.72h-2.93c-.17,0-.52.03-1.05.08v-.8c.47.04.82.07,1.05.08h2.93v-.36c0-.27-.03-.68-.08-1.23l.94.15c.09,0,.14.03.15.05.02.03,0,.07-.06.14-.16.15-.23.48-.22,1v.26h2.79c.23,0,.58-.03,1.04-.08v.8c-.49-.05-.84-.08-1.04-.08h-2.79v1.72h4.15c.28,0,.62-.04,1.04-.08v.8c-.49-.05-.83-.08-1.04-.08h-9.27c-.26,0-.61.03-1.05.08v-.8c.43.05.78.07,1.05.08ZM99.71,302.41h-1.65c-.13,1.18-.7,2.27-1.71,3.25-.29-.23-.58-.41-.87-.54,1.09-.49,1.71-1.39,1.86-2.71h-.79c-.27,0-.62.03-1.06.08v-.8c.45.04.8.07,1.06.08h.87c.03-.59.03-1.27.03-2.03h-.32c-.24,0-.59.03-1.06.08v-.8c.47.05.83.08,1.06.08h3.65c.26,0,.61-.04,1.04-.08v.8c-.43-.04-.78-.07-1.04-.08h-.34v2.03h.79c.22,0,.57-.03,1.05-.08v.8c-.43-.04-.79-.07-1.05-.08h-.79v1.46c0,.21.03.57.08,1.08h-.88c.04-.44.07-.8.08-1.08v-1.46ZM98.11,301.77h1.6v-2.03h-1.53c0,.62-.02,1.3-.07,2.03ZM103.73,300.57v2.34c0,.21.03.57.08,1.08h-.86c.05-.49.07-.84.08-1.08v-2.45c0-.35-.04-.76-.08-1.22l.95.13c.09,0,.14.03.15.05,0,.03-.02.07-.08.13-.16.18-.24.52-.25,1.03ZM105.37,298.34l.94.13c.09,0,.14.03.15.07,0,.02-.02.06-.09.14-.14.12-.21.45-.2.99v4.32c0,.54-.11.91-.36,1.09-.25.21-.74.33-1.48.37-.07-.38-.19-.69-.37-.93.3.04.54.06.72.06.21,0,.37-.02.48-.07.21-.08.31-.29.3-.63v-4.32c0-.27-.04-.67-.08-1.22Z"/>
  </g>
  <g class="cls-16">
    <path class="cls-13" d="M44.68,326h-.72c-1.39-1.62-2.08-3.6-2.08-5.96s.7-4.47,2.11-6.08h.72c-1.43,1.66-2.15,3.68-2.15,6.07,0,2.26.71,4.25,2.12,5.97Z"/>
    <path class="cls-13" d="M46.36,323.53c1.66-.69,3.3-2.21,4.91-4.54h-3.2c-.47,0-.82.03-1.05.08v-.8c.18.05.53.08,1.05.08h3.87v-.6c-.02-.53-.06-.93-.12-1.22l1.06.15s.06.03.06.05-.02.05-.05.09c-.15.13-.23.4-.23.82v.72h3.8c.45,0,.8-.03,1.04-.08v.8c-.26-.05-.6-.08-1.04-.08h-3.33c1.38,2.03,3.13,3.38,5.25,4.06-.44.31-.75.56-.94.75-2.06-1.2-3.65-2.63-4.77-4.29v3.32h1.61c.43,0,.79-.03,1.05-.08v.8c-.27-.05-.62-.08-1.05-.08h-1.61v1.26c0,.43,0,.74.05.93h-.85c.05-.26.08-.62.08-1.08v-1.11h-1.52c-.44,0-.8.03-1.06.08v-.8c.21.05.57.08,1.06.08h1.52v-3.43c-1.25,1.74-2.78,3.33-4.61,4.77-.31-.27-.63-.48-.97-.63ZM47.84,315.37h2.14v-.32c0-.3-.02-.71-.1-1.22l1.06.15s.06.03.06.05-.02.06-.05.09c-.17.17-.26.4-.27.72v.54h3.22v-.33c0-.47-.04-.88-.11-1.24l1.06.16s.06.03.06.06c0,.02-.02.05-.05.08-.14.16-.23.42-.25.78v.49h2.31c.35,0,.7-.02,1.04-.08v.8c-.27-.05-.62-.08-1.04-.08h-2.31v.52c0,.38.01.69.06.94h-.85c.05-.35.08-.71.08-1.09v-.37h-3.22v.37c0,.48.03.84.08,1.09h-.85c.05-.29.08-.66.08-1.09v-.37h-2.14c-.44,0-.79.03-1.04.08v-.8c.31.05.66.08,1.04.08Z"/>
    <path class="cls-13" d="M60.72,314.11c.46.05.85.08,1.17.08h7.09c.32,0,.68-.03,1.08-.08-.06.38-.09.76-.08,1.14v5.41c0,.23.02.57.08,1.04h-.89c.06-.34.09-.61.08-.82h-3.56v3.23c0,.35.03.75.08,1.22h-.89c.05-.45.08-.85.08-1.21v-3.24h-3.44c0,.29.02.62.08,1.01h-.88c.06-.42.08-.82.08-1.19v-5.39c0-.43-.03-.83-.08-1.2ZM61.53,314.84v2.49h3.44v-2.49h-3.44ZM61.53,317.98v2.25h3.44v-2.25h-3.44ZM69.25,317.33v-2.49h-3.56v2.49h3.56ZM65.69,317.98v2.25h3.56v-2.25h-3.56Z"/>
    <path class="cls-13" d="M76.82,315.38h-.51v1.6h.31c.23,0,.63-.02,1.19-.08-.04.49-.07.87-.08,1.15v5.51c0,.31.03.76.08,1.34h-.84c.03-.28.05-.48.05-.59h-3.31c0,.23.02.53.05.89h-.83c.06-.54.08-.95.08-1.24v-5.9c0-.25-.03-.64-.08-1.15.52.05.92.08,1.2.08h.32v-1.6h-1.03c-.17,0-.52.03-1.03.08v-.8c.51.05.85.08,1.03.08h3.39c.22,0,.6-.03,1.13-.08v.8c-.55-.05-.93-.08-1.13-.08ZM77.04,321.79v-1.18c-.1,0-.2.01-.3.01-.74,0-1.09-.29-1.05-.86v-2.14h-.61c-.03,1.5-.25,2.61-.68,3.34-.18-.09-.41-.18-.68-.29v1.11h3.32ZM74.46,317.63h-.74v3.01c.29-.39.47-.76.56-1.13.09-.3.15-.93.18-1.88ZM73.72,323.69h3.32v-1.25h-3.32v1.25ZM75.08,316.98h.61v-1.6h-.61v1.6ZM77.04,319.97v-2.35h-.72v1.98s-.01.07-.01.1c0,.23-.01.34-.04.32s.15-.03.53-.03c.08,0,.16,0,.24-.01ZM79.26,322.35h1.54l-.04-.65c.35-.23.76-.53,1.21-.89h-2.35c-.19,0-.53.03-1.03.08v-.78c.48.05.82.08,1.03.08h2.69c.26,0,.69-.03,1.3-.08-.47.52-1.17,1.12-2.1,1.8v.44h1.52c.24,0,.62-.03,1.13-.08v.78c-.42-.04-.79-.07-1.13-.08h-1.52v1.57c0,.43-.11.71-.36.85-.2.15-.7.25-1.51.31-.05-.35-.16-.64-.34-.88.38.06.67.09.88.09.16,0,.28-.02.35-.05.19-.05.28-.24.27-.58v-1.31h-1.54c-.27,0-.64.02-1.11.08v-.78c.49.05.86.08,1.11.08ZM80.45,313.74c.62.52,1.08.95,1.37,1.3l-.42.45h1.55c.2,0,.58-.03,1.13-.08v.77c-.5-.04-.88-.06-1.13-.06h-3.75c-.21,0-.54.03-1.01.08v-.78c.4.04.73.07,1.01.08h2.05c-.45-.52-.89-.93-1.34-1.24l.53-.51ZM78.74,316.86c.63.05,1.03.08,1.22.08h2.01c.22,0,.62-.03,1.22-.08-.05.52-.08.91-.08,1.16v.34c0,.2.02.57.08,1.11-.64-.05-1.07-.08-1.3-.08h-1.94c-.24,0-.64.03-1.2.08.04-.5.07-.87.08-1.11v-.3c0-.29-.03-.69-.08-1.2ZM82.41,317.56h-2.89v1.2h2.89v-1.2Z"/>
    <path class="cls-13" d="M86.64,326h-.72c1.41-1.71,2.12-3.7,2.12-5.97,0-2.39-.71-4.41-2.14-6.07h.73c1.4,1.62,2.1,3.64,2.1,6.08s-.69,4.35-2.08,5.96Z"/>
  </g>
  <g class="cls-16">
    <path class="cls-13" d="M50.07,158.99h3.67c.12-.79.21-1.77.25-2.96h-2.81c-.22,0-.48.02-.8.08v-.83c.27.06.53.09.79.08h7.31c.24,0,.51-.02.8-.08v.83c-.27-.06-.53-.08-.78-.08h-3.75c-.03,1.13-.1,2.12-.22,2.96h4.95c.23,0,.5-.02.8-.08v.83c-.31-.06-.58-.08-.82-.08h-3.65v4.59c-.02.33.07.53.26.58.15.08.62.11,1.41.1.83.02,1.34-.07,1.52-.25.22-.14.39-.62.52-1.45.25.33.53.51.84.54-.27.88-.57,1.41-.91,1.6-.18.12-.42.2-.73.25-.28.04-.72.06-1.32.06-1.03,0-1.68-.06-1.94-.2-.3-.1-.43-.38-.41-.84v-4.99h-.65c-.45,2.6-1.98,4.72-4.58,6.36-.17-.36-.42-.64-.75-.82,2.23-.79,3.75-2.64,4.54-5.55h-3.49c-.24,0-.52.02-.84.08v-.83c.28.06.54.08.78.08Z"/>
    <path class="cls-13" d="M65.58,154.45l1.15.46c.1.04.14.08.13.1,0,.04-.09.08-.23.13-.21.07-.36.2-.47.4-.35.61-.64,1.09-.85,1.44h5.86c.41,0,.84-.03,1.27-.08-.06.39-.08.77-.08,1.16v6.64c.03.62-.09.98-.35,1.1-.19.16-.84.29-1.94.38-.09-.37-.22-.72-.41-1.04.48.05.86.07,1.15.07.23,0,.39-.02.48-.04.24-.05.35-.24.33-.57v-6.94h-8.04v7.23c0,.41.03.84.08,1.31h-.91c.05-.44.08-.88.08-1.31v-6.86c0-.33-.03-.7-.08-1.11.45.06.85.08,1.22.08h.51c.57-.86.95-1.7,1.13-2.53ZM69.73,159.55c-.05.36-.08.72-.08,1.06v1.75c0,.33.03.71.08,1.11-.39-.05-.78-.08-1.17-.08h-2.13c-.38,0-.76.03-1.13.08.06-.41.08-.78.08-1.11v-1.74c0-.32-.03-.68-.08-1.08.39.05.76.08,1.13.08h2.18c.37,0,.74-.03,1.11-.08ZM66.11,162.75h2.82v-2.48h-2.82v2.48Z"/>
    <path class="cls-13" d="M76.49,166.29h-.89c.05-.45.07-.84.08-1.17v-8.85c0-.35-.04-.74-.08-1.15.46.04.86.07,1.21.08h7.71c.34,0,.74-.03,1.2-.08-.04.43-.07.81-.08,1.13v8.62c0,.27.03.66.08,1.15h-.88c.04-.26.07-.5.08-.74h-8.51c0,.3.04.63.08,1ZM76.41,164.67h8.51v-8.82h-8.51v8.82ZM78.88,158.79l.5-.61c.18.28.51.56.99.84.44-.34.88-.77,1.31-1.31h-2.42c-.49.6-.95,1.11-1.37,1.54-.24-.23-.52-.42-.83-.57,1.09-.56,1.87-1.46,2.33-2.71l.83.27c.09.03.13.06.13.09s-.04.07-.13.12c-.12.05-.31.25-.57.61h2.3c.33,0,.73-.03,1.2-.08-.6.86-1.32,1.67-2.14,2.41,1.08.64,2.23,1.04,3.45,1.22-.31.31-.53.6-.65.87-1.09-.41-2.2-.93-3.34-1.58-.75.57-1.81,1.13-3.17,1.69-.23-.32-.46-.57-.7-.74,1.25-.3,2.33-.76,3.22-1.4-.33-.21-.64-.44-.93-.66ZM78.82,162.91l.34-.68c1.18.49,2.34,1.02,3.47,1.6l-.4.65c-1.07-.64-2.21-1.16-3.41-1.56ZM79.56,161.27l.32-.59c.82.36,1.59.74,2.31,1.13l-.34.65c-.63-.41-1.4-.8-2.3-1.19Z"/>
  </g>
  <g class="cls-16">
    <path class="cls-13" d="M271.18,160.86c2.01-.9,3.44-2.31,4.28-4.22h-3c-.25,0-.59.03-1.03.08v-.8c.4.05.74.08,1.03.08h3.22c.21-.57.33-1.19.37-1.86l1.06.21c.11.02.16.05.17.09,0,.04-.05.09-.14.16-.17.1-.29.26-.34.48-.08.33-.17.64-.26.92h4.89c.32,0,.7-.03,1.13-.08v.8c-.42-.06-.8-.09-1.13-.08h-5.1c-.23.54-.51,1.06-.84,1.57h3.82c.43,0,.88-.02,1.36-.08-.05.53-.08.98-.08,1.35v5.46c.02.51-.09.83-.32.96-.18.16-.73.28-1.66.37-.03-.38-.15-.74-.34-1.08.39.05.7.08.94.08.16,0,.28-.01.36-.04.19-.05.28-.22.27-.51v-1.63h-4.61v1.88c0,.31.03.72.08,1.21h-.91c.05-.49.08-.89.08-1.21v-5.42c-.65.7-1.47,1.39-2.46,2.06-.21-.26-.49-.52-.85-.77ZM275.23,158.86v1.46h4.61v-1.46h-4.61ZM275.23,160.97v1.48h4.61v-1.48h-4.61Z"/>
    <path class="cls-13" d="M287.89,154.45l1.15.46c.1.04.14.08.13.1,0,.04-.09.08-.23.13-.21.07-.36.2-.47.4-.35.61-.64,1.09-.85,1.44h5.86c.41,0,.84-.03,1.27-.08-.05.39-.08.77-.08,1.16v6.64c.03.62-.09.98-.35,1.1-.19.16-.84.29-1.94.38-.09-.37-.22-.72-.41-1.04.48.05.86.07,1.15.07.23,0,.39-.02.48-.04.24-.05.35-.24.33-.57v-6.94h-8.04v7.23c0,.41.03.84.08,1.31h-.91c.05-.44.08-.88.08-1.31v-6.86c0-.33-.03-.7-.08-1.11.45.06.85.08,1.22.08h.51c.57-.86.95-1.7,1.13-2.53ZM292.05,159.55c-.05.36-.08.72-.08,1.06v1.75c0,.33.03.71.08,1.11-.39-.05-.78-.08-1.17-.08h-2.13c-.38,0-.76.03-1.13.08.06-.41.08-.78.08-1.11v-1.74c0-.32-.03-.68-.08-1.08.39.05.76.08,1.13.08h2.18c.37,0,.74-.03,1.11-.08ZM288.42,162.75h2.82v-2.48h-2.82v2.48Z"/>
    <path class="cls-13" d="M298.8,166.29h-.89c.05-.45.07-.84.08-1.17v-8.85c0-.35-.04-.74-.08-1.15.46.04.86.07,1.21.08h7.71c.34,0,.74-.03,1.2-.08-.04.43-.07.81-.08,1.13v8.62c0,.27.03.66.08,1.15h-.88c.04-.26.07-.5.08-.74h-8.51c0,.3.04.63.08,1ZM298.72,164.67h8.51v-8.82h-8.51v8.82ZM301.19,158.79l.5-.61c.18.28.51.56.99.84.44-.34.88-.77,1.31-1.31h-2.42c-.49.6-.95,1.11-1.37,1.54-.25-.23-.52-.42-.83-.57,1.09-.56,1.87-1.46,2.33-2.71l.83.27c.09.03.13.06.13.09s-.04.07-.13.12c-.12.05-.31.25-.57.61h2.3c.33,0,.73-.03,1.2-.08-.6.86-1.32,1.67-2.14,2.41,1.08.64,2.23,1.04,3.45,1.22-.31.31-.53.6-.65.87-1.09-.41-2.2-.93-3.34-1.58-.75.57-1.81,1.13-3.17,1.69-.23-.32-.46-.57-.7-.74,1.25-.3,2.33-.76,3.22-1.4-.33-.21-.64-.44-.93-.66ZM301.13,162.91l.34-.68c1.18.49,2.34,1.02,3.47,1.6l-.4.65c-1.07-.64-2.21-1.16-3.41-1.56ZM301.87,161.27l.32-.59c.82.36,1.59.74,2.31,1.13l-.34.65c-.63-.41-1.4-.8-2.3-1.19Z"/>
  </g>
  <g class="cls-16">
    <path class="cls-13" d="M480.93,240.83c2.01-.9,3.44-2.3,4.28-4.22h-3c-.25,0-.59.03-1.03.08v-.8c.4.05.74.08,1.03.08h3.22c.21-.57.33-1.19.37-1.85l1.06.21c.11.02.16.05.17.09,0,.04-.05.1-.14.16-.17.1-.29.26-.34.48-.08.33-.17.64-.26.92h4.89c.32,0,.7-.03,1.13-.08v.8c-.42-.06-.79-.09-1.13-.08h-5.1c-.23.54-.51,1.06-.84,1.57h3.82c.43,0,.88-.02,1.36-.08-.06.53-.08.98-.08,1.35v5.46c.02.51-.09.83-.32.96-.18.16-.73.28-1.66.37-.03-.38-.15-.74-.34-1.08.39.05.7.08.94.08.16,0,.29-.01.36-.04.19-.05.28-.22.27-.51v-1.63h-4.61v1.88c0,.31.03.72.08,1.21h-.91c.05-.49.08-.89.08-1.21v-5.42c-.65.7-1.47,1.39-2.46,2.06-.21-.26-.49-.52-.85-.77ZM484.99,238.83v1.46h4.61v-1.46h-4.61ZM484.99,240.94v1.48h4.61v-1.48h-4.61Z"/>
    <path class="cls-13" d="M497.65,234.42l1.15.46c.1.04.14.08.13.1,0,.04-.09.08-.23.13-.21.07-.36.2-.47.4-.36.61-.64,1.09-.86,1.44h5.86c.41,0,.84-.03,1.27-.08-.05.39-.08.77-.08,1.16v6.64c.03.62-.09.98-.35,1.1-.19.17-.84.29-1.94.38-.09-.37-.22-.72-.41-1.04.48.05.86.07,1.15.07.23,0,.39-.01.47-.04.24-.05.35-.24.33-.57v-6.94h-8.04v7.23c0,.41.02.84.08,1.31h-.91c.05-.44.08-.88.08-1.31v-6.86c0-.33-.03-.7-.08-1.11.45.05.85.08,1.22.08h.51c.57-.86.95-1.7,1.13-2.53ZM501.8,239.52c-.06.36-.08.72-.08,1.06v1.75c0,.33.03.7.08,1.11-.39-.05-.78-.08-1.17-.08h-2.13c-.38,0-.75.03-1.13.08.05-.41.08-.78.08-1.11v-1.74c0-.32-.03-.68-.08-1.08.39.05.76.08,1.13.08h2.18c.37,0,.74-.03,1.12-.08ZM498.18,242.72h2.82v-2.48h-2.82v2.48Z"/>
    <path class="cls-13" d="M508.56,246.26h-.89c.05-.45.07-.84.08-1.17v-8.85c0-.35-.04-.74-.08-1.15.46.04.86.07,1.21.08h7.71c.34,0,.74-.03,1.2-.08-.04.43-.07.81-.08,1.13v8.62c0,.27.03.66.08,1.15h-.88c.04-.26.07-.5.08-.74h-8.51c0,.3.04.63.08,1ZM508.47,244.64h8.51v-8.82h-8.51v8.82ZM510.94,238.76l.5-.61c.18.28.51.56.99.84.44-.34.88-.77,1.31-1.31h-2.42c-.49.6-.95,1.11-1.37,1.54-.25-.23-.52-.42-.83-.57,1.09-.56,1.87-1.46,2.33-2.71l.83.27c.09.03.13.05.13.09s-.04.07-.13.12c-.12.05-.31.25-.57.61h2.3c.33,0,.73-.03,1.2-.08-.6.86-1.32,1.67-2.14,2.41,1.08.64,2.23,1.04,3.45,1.22-.31.31-.53.6-.65.87-1.09-.41-2.2-.93-3.34-1.58-.75.57-1.81,1.13-3.17,1.69-.23-.32-.46-.57-.7-.74,1.25-.29,2.33-.76,3.22-1.4-.33-.21-.64-.44-.93-.67ZM510.89,242.88l.34-.68c1.18.49,2.34,1.02,3.47,1.6l-.4.65c-1.07-.64-2.21-1.16-3.41-1.56ZM511.63,241.25l.32-.59c.82.36,1.59.74,2.31,1.13l-.34.65c-.63-.41-1.4-.8-2.3-1.19Z"/>
  </g>
  <g class="cls-16">
    <path class="cls-13" d="M449.92,262.24h-.72c-1.39-1.62-2.08-3.6-2.08-5.96s.7-4.47,2.11-6.08h.72c-1.43,1.66-2.15,3.68-2.15,6.07,0,2.26.71,4.25,2.12,5.97Z"/>
    <path class="cls-13" d="M455.2,254.33h-2.39c-.3,0-.61.03-.94.08v-.8c.24.05.54.08.91.08h1.89v-1.48h-1.13c-.27,0-.59.03-.94.08v-.8c.26.06.57.08.94.08h1.13v-.61c-.03-.44-.05-.78-.08-1.02l1.01.21c.11.03.17.06.17.09,0,.04-.04.1-.14.18-.17.1-.25.3-.23.6v.54h.35c.31,0,.61-.03.88-.08v.77s.07-.1.11-.17c.36-.61.62-1.1.77-1.48l.85.58c.09.06.14.11.13.15,0,.03-.05.06-.17.09-.21.06-.39.19-.53.39-.43.66-.86,1.29-1.29,1.88h.8c.29,0,.58-.03.89-.08v.77c.74-1.43,1.17-2.92,1.31-4.47l.95.23c.13.04.2.08.21.12.01.04-.03.1-.14.17-.19.12-.32.33-.39.61-.01.03-.03.09-.04.16-.13.54-.25.98-.36,1.34h2.45c.42,0,.8-.03,1.13-.08v.83c-.29-.04-.72-.07-1.3-.08-.2,2.14-.6,3.87-1.19,5.19.84,1.19,1.8,1.96,2.89,2.29-.4.2-.68.5-.85.89-1.03-.62-1.85-1.43-2.47-2.41-.65.91-1.67,1.81-3.05,2.71-.17-.32-.43-.57-.78-.74,1.54-.72,2.66-1.61,3.36-2.68-.41-.8-.79-1.86-1.14-3.17.24-.03.48-.08.71-.18.2.87.48,1.69.85,2.44.52-1.42.8-2.86.84-4.33h-1.7c-.3.84-.7,1.66-1.18,2.45-.24-.14-.54-.23-.91-.29.29-.28.54-.6.77-.96-.35-.05-.69-.08-.99-.08h-1.13c-.29.41-.6.83-.93,1.26h1.09c.32,0,.74-.03,1.26-.08-.51.69-1.01,1.27-1.51,1.74v.98c.76-.17,1.49-.39,2.19-.66-.04.16-.09.39-.14.71,0,.04-.01.08-.01.1-.11.03-.52.14-1.25.34-.46.12-.72.19-.79.21v1.68c0,.47-.12.77-.37.91-.23.15-.76.25-1.61.29-.03-.35-.13-.68-.32-.98.38.06.68.08.92.08.17,0,.3-.01.39-.04.24-.05.35-.21.34-.47v-1.28c-.89.26-1.73.55-2.53.88-.16-.35-.3-.64-.44-.87.71-.12,1.7-.37,2.97-.73v-.43c0-.39-.03-.74-.08-1.04.11-.05.21-.12.29-.2l.44-.48h-1.45c-.54.62-1.26,1.3-2.15,2.06-.2-.21-.45-.41-.75-.59.59-.34,1.22-.82,1.89-1.44-.17,0-.36.01-.57.06v-.87c.27.04.69.08,1.24.12.37-.41.71-.83,1.03-1.27ZM455.4,253.69h.3c.28-.36.58-.83.91-1.39-.44-.05-.84-.08-1.2-.08v1.47Z"/>
    <path class="cls-13" d="M467.86,250.04l.99.16c.07.02.11.05.11.09,0,.04-.02.09-.09.15-.16.09-.23.4-.23.93v3.58c0,1.73-.15,3.05-.48,3.95-.29.91-.92,1.86-1.89,2.86-.33-.24-.64-.4-.92-.48.99-.65,1.67-1.43,2.02-2.34.39-.92.58-2.25.57-4v-3.72c0-.27-.03-.67-.08-1.18ZM465.78,251.48l.96.16c.08,0,.11.03.11.05s-.03.07-.09.13c-.15.1-.22.43-.21.99v4.39c0,.22.04.56.08,1.01h-.86c.05-.36.07-.7.08-1.01v-4.59c-.02-.44-.04-.82-.08-1.13ZM475.12,251.65h-1.96v2.32h1.28c.35,0,.79-.04,1.31-.08-.03.24-.03.59-.03,1.08v3.74c.02.42-.08.69-.28.82-.18.14-.65.25-1.4.34-.03-.29-.15-.61-.37-.94.33.04.57.06.75.06.16,0,.28-.01.35-.04.18-.04.27-.19.26-.43v-3.88h-1.87v6.04c0,.25.03.69.08,1.3h-.88c.04-.49.07-.93.08-1.3v-6.04h-1.77v4.16c.01.28.04.62.08,1.01h-.86c.04-.41.07-.74.08-1.01v-3.69c0-.2-.03-.6-.08-1.2.48.05.9.07,1.25.08h1.29v-2.32h-2c-.29,0-.63.03-1.04.08v-.8c.38.05.73.07,1.04.08h4.68c.27,0,.62-.04,1.05-.08v.8c-.41-.04-.76-.07-1.05-.08Z"/>
  </g>
  <g class="cls-16">
    <path class="cls-13" d="M478.43,257.65v-.72h3.67v.72h-3.67Z"/>
  </g>
  <g class="cls-16">
    <path class="cls-13" d="M489.79,257.12c.67-.44,1.24-.87,1.7-1.3h-3.75c-.48,0-.82.03-1.04.08v-.8c.21.05.55.08,1.04.08h4.46c.52,0,.95-.03,1.29-.08-.19.2-.54.49-1.04.88-.11.09-.27.22-.51.41-.62.49-1.07.85-1.35,1.08v.3h4.06c.46,0,.81-.03,1.06-.08v.8c-.29-.05-.64-.08-1.04-.08h-4.08v2.38c0,.44-.13.74-.41.89-.26.16-.84.3-1.74.41-.05-.35-.19-.69-.42-1.03.45.07.81.11,1.08.11.17,0,.31-.02.41-.04.26-.06.38-.26.37-.59v-2.12h-4.5c-.47,0-.81.03-1.04.08v-.8c.25.06.6.08,1.04.08h4.46c0-.27-.01-.48-.04-.64ZM492.28,253.26h1.94c.49,0,.85-.03,1.08-.08-.06.27-.08.61-.08,1.02v.39c0,.45.03.77.08.97h-.89c.05-.24.08-.57.08-.99v-.68h-8.82v.77c0,.48.03.84.08,1.08h-.88c.05-.31.08-.67.08-1.08v-.47c0-.45-.03-.79-.08-1.02.28.05.65.08,1.1.08h5.5c1-1.54,1.6-2.63,1.78-3.28l.95.48c.13.07.19.11.18.13,0,.02-.07.04-.22.08-.22.08-.41.23-.54.46-.3.55-.74,1.27-1.32,2.14ZM485.75,250.88l.6-.57c.79.74,1.46,1.42,2.01,2.04l-.65.58c-.57-.74-1.22-1.42-1.96-2.05ZM489.43,249.84c.61.82,1.15,1.61,1.62,2.39l-.77.49c-.34-.76-.85-1.56-1.53-2.41l.68-.47Z"/>
    <path class="cls-13" d="M497.25,256.45c1.28-1.17,2.07-2.87,2.37-5.11l.96.23c.16.03.23.07.22.11,0,.03-.06.1-.21.2-.11.07-.21.25-.31.54-.04.12-.1.31-.18.57-.04.13-.07.23-.09.29h2.74v-1.82c0-.37-.03-.8-.08-1.29l1,.15c.12.02.18.04.19.07,0,.03-.04.08-.14.16-.13.08-.2.39-.2.91v1.82h2.88c.41,0,.81-.03,1.2-.08v.83c-.4-.05-.8-.08-1.2-.08h-2.88v2.82h2.31c.37,0,.74-.03,1.11-.08v.83c-.37-.05-.74-.08-1.11-.08h-2.31v3.12h4.02c.36,0,.74-.02,1.14-.06v.82c-.39-.05-.77-.08-1.14-.08h-8.88c-.37,0-.77.03-1.19.08v-.82c.42.04.82.06,1.19.06h4.08v-3.12h-2.24c-.41,0-.83.03-1.23.08v-.83c.49.05.9.08,1.23.08h2.24v-2.82h-2.97c-.43.98-.9,1.9-1.41,2.76-.35-.13-.72-.22-1.11-.27Z"/>
    <path class="cls-13" d="M510.4,261c2.65-.64,4.25-1.97,4.81-3.98h-3.59c-.47,0-.82.03-1.05.08v-.8c.27.04.62.07,1.05.08h3.71c.06-.64.09-1.46.1-2.48h-3.28c-.44,0-.79.03-1.05.08v-.8c.26.05.61.08,1.05.08h4.1c.99-1.15,1.7-2.21,2.13-3.19l.79.57c.13.1.19.17.18.23,0,.06-.09.1-.25.12-.15.02-.28.1-.39.24-.49.67-1.02,1.34-1.6,2.03h2.58c.37,0,.72-.03,1.05-.08v.8c-.34-.05-.69-.08-1.05-.08h-3.53c0,.43-.03,1.13-.08,2.09,0,.17-.01.3-.01.39h4.19c.44,0,.79-.03,1.04-.08v.8c-.28-.05-.62-.08-1.04-.08h-3.71c.97,1.96,2.71,3.23,5.21,3.81-.28.31-.51.62-.69.92-2.71-1.16-4.43-2.66-5.16-4.5-.47,1.92-2.07,3.46-4.8,4.62-.21-.37-.44-.66-.71-.87ZM512,250.93l.47-.65c.99.62,1.84,1.21,2.56,1.78l-.51.62c-.68-.59-1.52-1.17-2.52-1.75Z"/>
    <path class="cls-13" d="M523.48,260.47c1.16-.62,2.13-1.53,2.91-2.74l.83.5c.12.07.17.13.17.17,0,.05-.08.09-.2.11-.26.04-.46.15-.6.34-.74.87-1.53,1.59-2.37,2.18-.22-.24-.46-.43-.73-.57ZM523.68,251.12c.6.08,1.35.11,2.24.1.9-.02,1.85-.07,2.86-.16,2.2-.23,3.66-.53,4.37-.88l.51.79c.09.15.14.24.13.26,0,.03-.04.04-.09.04-.05,0-.09,0-.14-.01-.1-.03-.22-.04-.36-.04-.16,0-.35.02-.56.05-1.33.16-2.49.3-3.5.41l.22.17c.08.06.12.11.12.15,0,.01,0,.03-.02.05-.01.02-.1.04-.26.05-.22,0-.48.12-.78.37-.59.49-1.21,1-1.88,1.52,1.06-.03,2.15-.07,3.29-.13.66-.45,1.3-.98,1.91-1.6l.72.59c.04.05.06.1.06.15,0,.07-.05.13-.16.18-.25.06-.5.16-.73.31-1.36,1.05-2.99,2.06-4.91,3.03,1.67-.06,3.41-.13,5.24-.22-.35-.41-.71-.78-1.05-1.11l.72-.46c.73.81,1.42,1.6,2.08,2.38l-.67.52c-.15-.23-.34-.48-.57-.74-1.16.05-2.13.09-2.92.15v3.4c0,.46-.12.77-.4.93-.27.17-.8.28-1.6.32-.1-.34-.22-.67-.37-.98.3.05.56.08.79.08.58,0,.86-.18.84-.54v-3.17c-2.39.08-3.81.21-4.27.39l-.41-.89c1.19,0,2.81-.69,4.88-2.07-2.02.08-3.36.2-4,.37l-.33-.84c.41-.11.72-.22.94-.35.72-.43,1.51-1.07,2.39-1.89-1.07.07-2.39.14-3.95.23-.08-.32-.21-.62-.37-.91ZM530.43,258.11l.63-.57c1.12.87,2.19,1.76,3.19,2.65l-.7.6c-.89-.97-1.93-1.86-3.12-2.67Z"/>
    <path class="cls-13" d="M536.89,250.43c.5.04.91.07,1.24.08h7.46c.36,0,.77-.03,1.23-.08-.04.45-.07.82-.08,1.12v8.8c.02.05.03.11.03.16,0,.5-.79.83-2.36.98-.03-.33-.16-.66-.41-.98.49.05.86.07,1.13.07s.44-.02.56-.06c.26-.04.38-.22.36-.54v-8.82h-8.38v9.12c0,.35.04.74.08,1.18h-.86c.04-.45.07-.84.08-1.18v-8.62c0-.35-.03-.75-.08-1.22ZM539.72,255.5c-.56-.98-1.11-1.8-1.63-2.49l.58-.36c.53.75.98,1.44,1.35,2.06.21-.72.38-1.44.48-2.18l.85.26c.1.02.15.06.15.09,0,.03-.04.07-.13.14-.11.07-.21.25-.3.56-.21.68-.41,1.29-.59,1.82.18.35.5.95.96,1.8.2.37.34.64.43.8l-.72.45c-.34-.82-.67-1.56-.99-2.23-.4,1-.87,1.97-1.42,2.88-.21-.14-.51-.26-.91-.35.79-.84,1.42-1.92,1.89-3.25ZM541.53,258.9c.73-.75,1.37-1.78,1.94-3.08-.65-1.16-1.19-2.06-1.62-2.72l.7-.33c.46.86.87,1.63,1.23,2.32.36-.94.59-1.81.69-2.6l.84.36c.08.05.13.09.13.12s-.05.08-.14.13c-.14.08-.27.3-.38.67-.22.68-.46,1.36-.71,2.04.47.87.95,1.78,1.44,2.73l-.73.47c-.29-.83-.65-1.64-1.06-2.45-.41.89-.87,1.77-1.39,2.63-.36-.14-.68-.24-.94-.3Z"/>
    <path class="cls-13" d="M550.24,262.24h-.72c1.41-1.71,2.12-3.7,2.12-5.97,0-2.39-.71-4.41-2.14-6.07h.73c1.4,1.62,2.1,3.64,2.1,6.08s-.7,4.35-2.08,5.96Z"/>
  </g>
  <path class="cls-6" d="M253.51,190.04c0-3.43,2.9-6.21,6.48-6.21s6.48,2.78,6.48,6.21-2.9,6.21-6.48,6.21-6.48-2.78-6.48-6.21Z"/>
  <path class="cls-10" d="M253.51,233.27c0-3.43,2.9-6.21,6.48-6.21s6.48,2.78,6.48,6.21-2.9,6.21-6.48,6.21-6.48-2.78-6.48-6.21Z"/>
  <path class="cls-9" d="M253.51,282.98c0-3.43,2.9-6.21,6.48-6.21s6.48,2.78,6.48,6.21-2.9,6.21-6.48,6.21-6.48-2.78-6.48-6.21Z"/>
  <path class="cls-8" d="M315.11,282.98c0-3.43,2.78-6.21,6.21-6.21s6.21,2.78,6.21,6.21-2.78,6.21-6.21,6.21-6.21-2.78-6.21-6.21Z"/>
  <path class="cls-8" d="M315.11,233.27c0-3.43,2.78-6.21,6.21-6.21s6.21,2.78,6.21,6.21-2.78,6.21-6.21,6.21-6.21-2.78-6.21-6.21Z"/>
  <path class="cls-10" d="M315.11,190.04c0-3.43,2.78-6.21,6.21-6.21s6.21,2.78,6.21,6.21-2.78,6.21-6.21,6.21-6.21-2.78-6.21-6.21Z"/>
  <path class="cls-6" d="M372.38,190.04c0-3.43,2.9-6.21,6.48-6.21s6.48,2.78,6.48,6.21-2.9,6.21-6.48,6.21-6.48-2.78-6.48-6.21Z"/>
  <path class="cls-7" d="M372.38,234.08c0-3.58,2.9-6.48,6.48-6.48s6.48,2.9,6.48,6.48-2.9,6.48-6.48,6.48-6.48-2.9-6.48-6.48Z"/>
  <path class="cls-17" d="M311.9,189.69l-41.55.18v.72s41.56-.18,41.56-.18v-.72ZM311.19,192.22l4.31-2.18-4.33-2.14.02,4.32ZM271.06,188.07l-4.31,2.18,4.33,2.14-.02-4.32Z"/>
  <path class="cls-17" d="M260.62,200.12v23.43h-.72v-23.43h.72ZM258.1,200.84l2.16-4.32,2.16,4.32h-4.32ZM262.42,222.83l-2.16,4.32-2.16-4.32h4.32Z"/>
  <path class="cls-17" d="M331.41,189.68h37.69v.72h-37.69v-.72ZM332.13,192.2l-4.32-2.16,4.32-2.16v4.32ZM368.38,187.88l4.32,2.16-4.32,2.16v-4.32Z"/>
  <path class="cls-17" d="M260.62,243.35v29.8h-.72v-29.8h.72ZM258.1,244.07l2.16-4.32,2.16,4.32h-4.32ZM262.42,272.43l-2.16,4.32-2.16-4.32h4.32Z"/>
  <path class="cls-17" d="M270.35,282.62h41.55v.72h-41.55v-.72ZM271.07,285.14l-4.32-2.16,4.32-2.16v4.32ZM311.18,280.82l4.32,2.16-4.32,2.16v-4.32Z"/>
  <path class="cls-17" d="M322.22,243.35v29.8h-.72v-29.8h.72ZM319.7,244.07l2.16-4.32,2.16,4.32h-4.32ZM324.02,272.43l-2.16,4.32-2.16-4.32h4.32Z"/>
  <path class="cls-17" d="M322.22,223.77v-23.64s-.72,0-.72,0v23.64s.72,0,.72,0ZM319.7,223.05l2.16,4.32,2.16-4.32h-4.32ZM324.02,200.84l-2.16-4.32-2.16,4.32h4.32Z"/>
  <path class="cls-17" d="M331.41,233.51l37.69.63v.72s-37.7-.63-37.7-.63v-.72ZM332.09,236.04l-4.29-2.23,4.36-2.09-.07,4.32ZM368.41,232.32l4.29,2.23-4.36,2.09.07-4.32Z"/>
  <path class="cls-17" d="M379.5,200.12v24.39h-.72v-24.39h.72ZM376.98,200.84l2.16-4.32,2.16,4.32h-4.32ZM381.3,223.8l-2.16,4.32-2.16-4.32h4.32Z"/>
  <path class="cls-17" d="M311.9,233.45h-41.55v.72h41.55s0-.72,0-.72ZM311.18,235.97l4.32-2.16-4.32-2.16v4.32ZM271.07,231.64l-4.32,2.16,4.32,2.16v-4.32Z"/>
  <path class="cls-17" d="M267.8,196.57l46.41,30.37-.39.6-46.41-30.37.39-.6ZM267.02,199.08l-2.43-4.18,4.8.56-2.37,3.62ZM314.59,225.04l2.43,4.18-4.8-.56,2.37-3.62Z"/>
  <path class="cls-17" d="M329.33,227.1l42.7-30.36-.42-.59-42.7,30.36.42.59ZM328.45,224.63l-2.27,4.27,4.78-.74-2.5-3.52ZM372.49,198.63l2.27-4.27-4.78.74,2.5,3.52Z"/>
  <path class="cls-17" d="M267.65,276.89l46.75-36.27-.44-.57-46.75,36.27.44.57ZM266.67,274.46l-2.09,4.36,4.74-.94-2.65-3.42ZM314.94,242.49l2.09-4.36-4.74.94,2.65,3.42Z"/>
  <path class="cls-17" d="M329.31,196.19l42.75,31.05-.42.58-42.75-31.05.42-.58ZM328.41,198.65l-2.23-4.29,4.77.79-2.54,3.5ZM372.53,225.35l2.23,4.29-4.77-.79,2.54-3.5Z"/>
  <path class="cls-17" d="M267.79,227.21l46.43-30.57-.4-.6-46.42,30.57.4.6ZM267.01,224.71l-2.42,4.18,4.8-.57-2.38-3.61ZM314.6,198.54l2.42-4.18-4.8.57,2.38,3.61Z"/>
  <path class="cls-17" d="M267.65,240.05l46.75,36.27-.44.57-46.75-36.27.44-.57ZM266.67,242.49l-2.09-4.36,4.74.94-2.65,3.42ZM314.94,274.46l2.09,4.36-4.74-.94,2.65-3.42Z"/>
  <g class="cls-16">
    <path class="cls-13" d="M274.91,304.05c2.01-.9,3.44-2.3,4.28-4.22h-3c-.25,0-.59.03-1.03.08v-.8c.4.05.74.08,1.03.08h3.22c.21-.57.33-1.19.37-1.85l1.06.21c.11.02.16.05.17.09,0,.04-.05.1-.14.16-.17.1-.29.26-.34.48-.08.33-.17.64-.26.92h4.89c.32,0,.7-.03,1.13-.08v.8c-.42-.06-.8-.09-1.13-.08h-5.1c-.23.54-.51,1.06-.84,1.57h3.82c.43,0,.88-.02,1.36-.08-.05.53-.08.98-.08,1.35v5.46c.02.51-.09.83-.32.96-.18.16-.73.28-1.66.37-.03-.38-.15-.74-.34-1.08.39.05.7.08.94.08.16,0,.28-.01.36-.04.19-.05.28-.22.27-.51v-1.63h-4.61v1.88c0,.31.03.72.08,1.21h-.91c.05-.49.08-.89.08-1.21v-5.42c-.65.7-1.47,1.39-2.46,2.06-.21-.26-.49-.52-.85-.77ZM278.97,302.06v1.46h4.61v-1.46h-4.61ZM278.97,304.16v1.48h4.61v-1.48h-4.61Z"/>
    <path class="cls-13" d="M291.63,297.64l1.15.46c.1.04.14.08.13.1,0,.04-.09.08-.23.13-.21.07-.36.2-.47.4-.35.61-.64,1.09-.85,1.44h5.86c.41,0,.84-.03,1.27-.08-.05.39-.08.77-.08,1.16v6.64c.03.62-.09.98-.35,1.1-.19.17-.84.29-1.94.38-.09-.37-.22-.72-.41-1.04.48.05.86.07,1.15.07.23,0,.39-.01.47-.04.24-.05.35-.24.33-.57v-6.94h-8.04v7.23c0,.41.03.84.08,1.31h-.91c.05-.44.08-.88.08-1.31v-6.86c0-.33-.03-.7-.08-1.11.45.05.85.08,1.22.08h.51c.57-.86.95-1.7,1.13-2.53ZM295.78,302.74c-.06.36-.08.72-.08,1.06v1.75c0,.33.03.7.08,1.11-.39-.05-.78-.08-1.17-.08h-2.13c-.38,0-.76.03-1.13.08.06-.41.08-.78.08-1.11v-1.74c0-.32-.03-.68-.08-1.08.39.05.76.08,1.13.08h2.18c.37,0,.74-.03,1.12-.08ZM292.16,305.94h2.82v-2.48h-2.82v2.48Z"/>
    <path class="cls-13" d="M302.54,309.48h-.89c.05-.45.07-.84.08-1.17v-8.85c0-.35-.04-.74-.08-1.15.46.04.86.07,1.21.08h7.71c.34,0,.74-.03,1.2-.08-.04.43-.07.81-.08,1.13v8.62c0,.27.03.66.08,1.15h-.88c.04-.26.07-.5.08-.74h-8.51c0,.3.04.63.08,1ZM302.46,307.86h8.51v-8.82h-8.51v8.82ZM304.93,301.98l.5-.61c.18.28.51.56.99.84.44-.34.88-.77,1.31-1.31h-2.42c-.49.6-.95,1.11-1.37,1.54-.25-.23-.52-.42-.83-.57,1.09-.56,1.87-1.46,2.33-2.71l.83.27c.09.03.13.05.13.09s-.04.07-.13.12c-.12.05-.31.25-.57.61h2.3c.33,0,.73-.03,1.2-.08-.6.86-1.32,1.67-2.14,2.41,1.08.64,2.23,1.04,3.45,1.22-.31.31-.53.6-.65.87-1.09-.41-2.2-.93-3.34-1.58-.75.57-1.81,1.13-3.17,1.69-.23-.32-.46-.57-.7-.74,1.25-.29,2.33-.76,3.22-1.4-.33-.21-.64-.44-.93-.67ZM304.87,306.1l.34-.68c1.18.49,2.34,1.02,3.47,1.6l-.4.65c-1.07-.64-2.21-1.16-3.41-1.56ZM305.61,304.47l.32-.59c.82.36,1.59.74,2.31,1.13l-.34.65c-.63-.41-1.4-.8-2.3-1.19Z"/>
  </g>
  <g class="cls-16">
    <path class="cls-13" d="M314.56,305.2v-.72h3.67v.72h-3.67Z"/>
  </g>
  <g class="cls-16">
    <path class="cls-13" d="M321.45,300.25h1.41c0-1.32-.02-2.22-.05-2.69l1.01.11c.13,0,.19.04.18.11,0,.04-.07.12-.2.25-.1.08-.15.31-.15.67v.82c0,.24-.02.48-.03.73h1.46c.37,0,.73-.02,1.08-.08-.07.31-.16,2.52-.29,6.62-.02.74-.15,1.21-.4,1.42-.23.25-.75.43-1.57.52-.07-.38-.22-.72-.44-1.02.27.05.5.07.71.07.26,0,.45-.04.58-.11.23-.13.36-.43.37-.92.11-1.82.18-3.79.21-5.89h-1.72c0,3.83-.75,6.67-2.29,8.51-.21-.11-.56-.23-1.06-.37,1.72-1.28,2.58-3.99,2.58-8.14h-1.37c-.22,0-.51.02-.88.08v-.78c.34.06.63.08.85.08ZM327.46,299.38c.41.05.76.08,1.03.08h2.03c.29,0,.62-.02,1.01-.08-.06.43-.08.84-.08,1.23v6.88c0,.32.02.68.08,1.08h-.88c.05-.39.08-.74.08-1.05v-.32h-2.46v.48c0,.3.02.66.08,1.08h-.88c.05-.41.08-.76.08-1.05v-7.08c0-.35-.02-.75-.08-1.23ZM330.73,306.56v-6.48h-2.46v6.48h2.46Z"/>
    <path class="cls-13" d="M335.45,301.07h-1.05c-.3,0-.65.03-1.05.08v-.83c.39.05.74.08,1.05.08h1.1v-2.01c0-.28-.03-.61-.08-.99l.96.13c.11,0,.16.02.17.05,0,.03-.03.06-.12.11-.16.1-.23.38-.23.86v1.84h.48c.3,0,.65-.03,1.05-.08v.83c-.43-.05-.78-.08-1.04-.08h-.49v.7c.43.39.95.9,1.53,1.54.16.16.29.29.37.39l-.62.58c-.34-.5-.77-1.02-1.29-1.54v5.54c0,.41.03.8.08,1.17h-.86c.05-.47.08-.85.08-1.14v-5.43c-.43.98-.99,1.98-1.7,2.98-.21-.21-.47-.36-.79-.46,1.04-1.03,1.85-2.47,2.44-4.33ZM345.07,308.36c-.31.16-.6.41-.87.77-1.37-1.18-2.37-2.24-3-3.18-.94,1.16-2.12,2.16-3.53,3.02-.19-.34-.47-.57-.84-.7,1.56-.58,2.86-1.6,3.9-3.04-.98-1.77-1.64-3.73-1.96-5.87-.27,0-.57.02-.89.08v-.83c.28.05.63.08,1.04.08h4.14c.34,0,.66-.03.96-.08-.47,2.79-1.24,5.01-2.31,6.66.85,1.37,1.97,2.4,3.34,3.09ZM343.01,299.36h-3.47c.19,1.72.76,3.44,1.72,5.16.96-1.68,1.54-3.4,1.75-5.16Z"/>
    <path class="cls-13" d="M348.99,302.17c-.05.27-.08.64-.08,1.1v3.8c.43.17.99.45,1.7.87.35.19,1.02.31,1.99.37.33.02.68.03,1.05.03.77,0,1.65-.04,2.63-.11.44-.03.94-.08,1.49-.18.09-.02.16-.03.21-.04-.21.3-.34.65-.37,1.05h-.22c-.12,0-.27-.01-.44-.01s-.3,0-.41.01c-.93.05-1.85.07-2.77.06-.87,0-1.59-.03-2.17-.09-.5-.06-1.32-.46-2.48-1.19-.17-.1-.34-.15-.52-.15-.24,0-.49.09-.73.28-.3.21-.62.53-.98.95-.19-.29-.38-.53-.58-.7.62-.5,1.24-.87,1.85-1.13v-4.19h-.96c-.41,0-.74.03-1,.08v-.8c.26.05.6.08,1,.08h.72c.42,0,.77-.03,1.05-.08ZM349.61,300.16l-.58.58c-.62-.76-1.26-1.42-1.92-1.98l.58-.58c.67.58,1.31,1.24,1.92,1.98ZM352.49,297.5l1.22.14c.07,0,.1.04.1.08s-.04.08-.11.12c-.22.08-.32.4-.32.94,0,.73-.02,1.28-.05,1.64l2.28-.07,1.09-.09s0,.06-.01.1c-.03.25-.06.5-.08.77-.03.44-.05,1.14-.08,2.09-.03,1.13-.06,1.93-.09,2.39.02.66-.24,1.12-.78,1.39-.21.14-.69.25-1.44.32-.06-.37-.19-.72-.41-1.04.31.05.6.07.86.07.1,0,.18,0,.25,0,.46-.03.71-.26.75-.71.07-.79.12-1.97.15-3.55,0-.47.02-.82.03-1.05-.28,0-.8.02-1.56.04-.5.02-.83.03-.99.03,0,2.62-.91,4.73-2.74,6.31-.32-.22-.64-.39-.98-.52,1.82-.97,2.8-2.89,2.94-5.77-.81,0-1.58.04-2.32.12v-.84c.25.04.6.06,1.06.07.45,0,.88,0,1.3-.03.02-.38.03-.73.03-1.06,0-.58-.03-1.21-.08-1.89Z"/>
  </g>
  <g class="cls-16">
    <path class="cls-13" d="M282.81,325.46h-.72c-1.39-1.62-2.08-3.6-2.08-5.96s.7-4.47,2.11-6.08h.72c-1.43,1.66-2.15,3.68-2.15,6.07,0,2.26.71,4.25,2.12,5.97Z"/>
    <path class="cls-13" d="M284.68,318.45v-.78c.39.06.7.08.94.08h.56c.3,0,.65-.02,1.05-.08-.05.48-.08.84-.08,1.09v3.94c.54.12,1.21.37,2.01.74.54.25,1.08.41,1.62.49.54.09,1.29.14,2.27.14,1.27,0,2.34-.11,3.22-.33-.16.34-.27.68-.3,1.04-.13,0-.33,0-.6.01-.71.03-1.41.04-2.11.04-2.01.02-3.42-.22-4.25-.72-.98-.46-1.68-.68-2.09-.66-.68.04-1.24.46-1.7,1.25l-.54-.92c.58-.46,1.16-.79,1.75-1.01v-4.41h-.8c-.24,0-.56.03-.94.08ZM287.49,315.79l-.61.61c-.57-.7-1.2-1.37-1.88-2l.56-.56c.68.63,1.33,1.28,1.93,1.94ZM287.99,316.13v-.78c.49.05.88.08,1.19.08h1.37c-.41-.63-.88-1.18-1.42-1.65l.6-.43c.48.45,1,1,1.56,1.65l-.58.42h1.73c.61-.91,1.01-1.66,1.21-2.24l.84.47c.09.05.13.1.13.14,0,.05-.06.08-.15.1-.2.04-.36.14-.48.32-.15.22-.34.52-.58.89-.09.14-.16.25-.21.32h1.49c.33,0,.74-.03,1.25-.08v.78c-.49-.05-.91-.08-1.25-.08h-2.57l-.41,1.32h1.84c.3,0,.69-.02,1.2-.08-.06.49-.09.87-.08,1.17v3.34c-.01.32.01.75.08,1.31-.48-.05-.91-.08-1.28-.08h-3.27c-.35,0-.77.03-1.29.08.05-.49.08-.9.08-1.25v-3.44c0-.27-.03-.65-.08-1.13.45.05.83.08,1.14.08h.87l.41-1.32h-2.17c-.33,0-.72.03-1.17.08ZM289.7,318v1.06h4.23v-1.06h-4.23ZM289.7,319.66v.97h4.23v-.97h-4.23ZM289.7,321.23v1.18h4.23v-1.18h-4.23Z"/>
    <path class="cls-13" d="M297.95,318.58l.96.15c.12.02.19.05.2.09,0,.04-.04.1-.15.16-.15.08-.23.34-.23.79v3.41c.41-.16.73-.3.98-.43v-5.27h-.48c-.32,0-.71.03-1.18.08.04-.41.07-.77.08-1.08v-1.57c0-.27-.03-.63-.08-1.09.44.04.83.07,1.15.08h1.55c.23,0,.63-.03,1.19-.08-.04.44-.07.81-.08,1.09v1.61c0,.29.03.63.08,1.04-.49-.05-.87-.08-1.13-.08h-.4v1.87h.52c.29,0,.64-.04,1.05-.08v.8c-.44-.04-.79-.07-1.05-.08h-.52v2.49c.77-.33,1.42-.65,1.96-.97-.05.25-.08.48-.08.7,0,.07,0,.15.01.25-2.42,1.06-3.85,1.74-4.27,2.05l-.59-.89c.19-.05.38-.12.58-.2v-3.65c0-.31-.03-.71-.08-1.19ZM298.83,314.52v2.33h2.34v-2.33h-2.34ZM301.98,319.16c.92-.1,1.99-.62,3.19-1.57-.37-.42-.75-.89-1.13-1.41.21-.15.41-.3.61-.47.32.51.67.96,1.07,1.34.57-.62,1.03-1.31,1.41-2.06h-2.66c-.48.76-.97,1.45-1.48,2.05-.27-.22-.54-.38-.79-.49,1.09-.92,1.81-2.07,2.17-3.45l.98.33c.13.04.2.08.21.11,0,.04-.04.08-.16.12-.19.03-.38.27-.58.71h2.5c.46,0,.85-.02,1.17-.06-.68,1.31-1.4,2.4-2.15,3.25,1.01.84,2.05,1.34,3.13,1.51-.32.25-.55.54-.71.87-1.21-.54-2.21-1.16-3-1.84-.96.79-2.04,1.43-3.24,1.91-.15-.33-.33-.61-.53-.83ZM303.99,325.05h-.85c.04-.49.07-.88.08-1.17v-2.87c0-.34-.03-.74-.08-1.21.52.05.93.07,1.23.08h2.55c.27,0,.69-.03,1.26-.08-.05.47-.07.85-.08,1.14v2.88c0,.21.03.58.08,1.11h-.89c.05-.41.08-.74.08-.99h-3.45c0,.27.03.64.08,1.11ZM303.91,320.5v2.84h3.45v-2.84h-3.45Z"/>
    <path class="cls-13" d="M310.3,324.01c1.47-.79,2.29-2.43,2.44-4.93h-1.17c-.35,0-.68.03-.97.08v-.78c.17.05.5.08.97.08h1.17c.02-.42.04-1.12.06-2.1v-.16h-.79c-.39,0-.71.02-.98.08v-.78c.2.05.52.08.98.08h.79c0-.1,0-.25-.01-.44-.03-.91-.07-1.58-.11-2.01l.95.14c.15.02.22.04.22.08,0,.03-.06.1-.2.21-.11.1-.16.28-.16.54,0,.53,0,1.02-.01,1.48h.7c.41,0,.74-.03.98-.08v.78c-.27-.05-.59-.08-.98-.08h-.71c-.02.76-.03,1.51-.05,2.25h1.06c.46,0,.8-.03,1-.08v.78c-.25-.05-.59-.08-1-.08h-1.05c-.03.31-.06.69-.08,1.15.98.78,1.76,1.44,2.34,1.98l-.53.68c-.56-.71-1.21-1.35-1.94-1.92-.33,1.52-.97,2.68-1.93,3.47-.3-.18-.63-.33-.99-.44ZM313.79,324.4c1.71-.21,3.04-1.45,3.98-3.69.18-.38.31-1.08.37-2.09.03-.49.04-.93.04-1.32,0-.57-.03-1.05-.09-1.42l.94.1c.18.02.27.04.27.08.03.02-.03.09-.16.2-.08.1-.14.27-.17.53,0,.11-.02.31-.04.61-.08,1.13-.15,1.95-.21,2.45l.89.22c.09.03.14.05.16.08,0,.03-.03.07-.12.11-.13.06-.2.29-.21.69v2.49c-.03.33.13.51.48.54.16.03.38.03.63.03.24,0,.41-.03.53-.06.28-.04.42-.49.43-1.36.19.2.47.32.84.36-.16,1.09-.51,1.66-1.05,1.72-.26.04-.51.06-.75.06-.21,0-.54,0-1.01-.04-.53-.08-.8-.42-.83-1.02v-2.71c0-.2-.03-.49-.07-.87-.41,2.11-1.75,3.79-4.03,5.03-.13-.22-.4-.46-.83-.72ZM316.83,320.43h-.89c.05-.25.08-.59.08-1.03v-4.63c0-.46-.03-.82-.08-1.09.25.05.59.08,1.03.08h3.25c.44,0,.79-.03,1.03-.08-.05.26-.08.62-.08,1.09v4.39c0,.52.03.89.08,1.1h-.88c.05-.31.08-.68.08-1.1v-4.75h-3.7v4.97c0,.39.03.73.08,1.04Z"/>
    <path class="cls-13" d="M323.7,316.96c.64-.02.97-.03.99-.03l1.04-.12c-.09-.74-.15-1.5-.2-2.27-.03-.35-.07-.72-.12-1.13l.98.11c.13,0,.2.03.21.06,0,.03-.04.08-.13.16-.13.08-.19.3-.18.67,0,.84.03,1.61.13,2.31l2.96-.35c.23-.03.54-.1.93-.2.03.29.07.55.12.79-.12,0-.28.02-.47.03-.21,0-.39.02-.54.03l-2.91.31c.12,1.41.42,2.72.9,3.92.73-.88,1.25-1.91,1.58-3.09l.86.35c.13.06.2.11.2.15.01.04-.05.09-.18.15-.17.05-.31.19-.42.41-.6,1.19-1.17,2.09-1.7,2.72.29.7.77,1.34,1.44,1.92.15.14.28.21.39.21.14,0,.26-.12.35-.35.15-.3.23-.7.26-1.2.17.16.47.33.91.53-.14.42-.29.8-.45,1.15-.22.49-.51.73-.87.73-.25,0-.54-.13-.87-.38-.7-.54-1.25-1.21-1.66-1.98-.64.68-1.47,1.38-2.49,2.11-.28-.27-.58-.48-.92-.65,1.04-.32,2.06-1.04,3.06-2.15-.49-1.2-.86-2.69-1.09-4.46l-1.11.17s-.31.07-.89.2c-.03-.4-.07-.68-.1-.84ZM329.15,315.79c-.6-.58-1.16-1.08-1.7-1.49l.49-.54c.47.37,1.04.85,1.7,1.45l-.49.58ZM332.03,321.66h-.88c.05-.5.08-.86.08-1.08v-4.5c0-.22-.03-.63-.08-1.24l.94.16c.11.02.16.05.17.09.02.03-.01.08-.08.15-.14.16-.22.4-.23.72v4.59c0,.26.03.63.08,1.1ZM332.29,325.17c-.12-.43-.29-.79-.51-1.09.41.08.76.11,1.06.11.68,0,.99-.21.94-.65v-9.11c0-.27-.03-.67-.08-1.23l.96.15c.11.02.17.05.19.09.02.03-.02.08-.1.15-.15.14-.22.4-.22.79v9.34c.02.51-.12.84-.4,1-.26.18-.88.32-1.84.42Z"/>
    <path class="cls-13" d="M338.2,325.15h-.89c.05-.45.07-.84.08-1.17v-8.85c0-.35-.04-.74-.08-1.15.46.04.86.07,1.21.08h7.71c.34,0,.74-.03,1.2-.08-.04.43-.07.81-.08,1.13v8.62c0,.27.03.66.08,1.15h-.88c.04-.26.07-.5.08-.74h-8.51c0,.3.04.63.08,1ZM338.12,323.53h8.51v-8.82h-8.51v8.82ZM340.59,317.65l.5-.61c.18.28.51.56.99.84.44-.34.88-.77,1.31-1.31h-2.42c-.49.6-.95,1.11-1.37,1.54-.25-.23-.52-.42-.83-.57,1.09-.56,1.87-1.46,2.33-2.71l.83.27c.09.03.13.05.13.09s-.04.07-.13.12c-.12.05-.31.25-.57.61h2.3c.33,0,.73-.03,1.2-.08-.6.86-1.32,1.67-2.14,2.41,1.08.64,2.23,1.04,3.45,1.22-.31.31-.53.6-.65.87-1.09-.41-2.2-.93-3.34-1.58-.75.57-1.81,1.13-3.17,1.69-.23-.32-.46-.57-.7-.74,1.25-.29,2.33-.76,3.22-1.4-.33-.21-.64-.44-.93-.67ZM340.53,321.77l.34-.68c1.18.49,2.34,1.02,3.47,1.6l-.4.65c-1.07-.64-2.21-1.16-3.41-1.56ZM341.27,320.14l.32-.59c.82.36,1.59.74,2.31,1.13l-.34.65c-.63-.41-1.4-.8-2.3-1.19Z"/>
    <path class="cls-13" d="M350.71,325.46h-.72c1.41-1.71,2.12-3.7,2.12-5.97,0-2.39-.71-4.41-2.14-6.07h.73c1.4,1.62,2.1,3.64,2.1,6.08s-.7,4.35-2.08,5.96Z"/>
  </g>
  <g class="cls-16">
    <path class="cls-12" d="M281.31,186.81v-.57c.12-.27.28-.54.5-.8s.5-.54.87-.84c.43-.36.72-.64.86-.84.14-.2.21-.39.21-.57,0-.24-.07-.42-.2-.55-.13-.13-.32-.2-.57-.2-.47,0-.74.25-.8.76l-.82-.06c.05-.43.21-.76.49-1,.28-.24.65-.36,1.11-.36.51,0,.9.12,1.18.36.28.24.42.58.42,1.02,0,.21-.04.4-.12.58-.08.18-.2.36-.35.53s-.4.4-.75.68c-.6.48-.97.87-1.12,1.19h2.42v.68h-3.33Z"/>
    <path class="cls-12" d="M285.43,186.81v-.92h.85v.92h-.85Z"/>
    <path class="cls-12" d="M290.42,184.33c0,.83-.14,1.47-.43,1.9-.29.43-.71.65-1.28.65-1.13,0-1.69-.85-1.69-2.55,0-.59.06-1.07.19-1.45.13-.38.31-.65.55-.83.24-.18.57-.27.97-.27.57,0,1,.21,1.28.63.28.42.42,1.06.42,1.92ZM289.61,184.33c0-.46-.03-.83-.09-1.11-.06-.28-.15-.48-.28-.61s-.3-.19-.51-.19c-.33,0-.56.15-.7.44-.14.29-.2.78-.2,1.47s.07,1.15.21,1.45c.14.3.36.45.68.45s.54-.15.68-.46.21-.79.21-1.45Z"/>
  </g>
  <g class="cls-16">
    <path class="cls-12" d="M272.86,209.21c0,.47-.15.83-.44,1.08-.29.25-.71.37-1.26.37-.51,0-.91-.12-1.2-.35-.29-.23-.47-.58-.52-1.04l.82-.07c.04.27.13.47.28.6.15.13.36.2.63.2s.49-.07.64-.21c.15-.14.22-.35.22-.61,0-.24-.09-.43-.27-.57-.18-.13-.45-.2-.81-.2h-.36v-.67h.34c.32,0,.56-.07.73-.2.17-.13.25-.32.25-.57s-.06-.44-.2-.57c-.13-.13-.32-.19-.56-.19-.48,0-.75.25-.81.74l-.8-.06c.05-.42.22-.75.5-.98.29-.23.66-.35,1.12-.35.5,0,.89.11,1.16.34s.4.55.4.97c0,.3-.08.55-.25.75-.17.21-.42.34-.77.42h0c.36.05.64.18.85.38.21.21.31.47.31.79Z"/>
    <path class="cls-12" d="M273.64,210.58v-.92h.85v.92h-.85Z"/>
    <path class="cls-12" d="M278.63,208.95c0,.53-.16.95-.47,1.25-.31.3-.75.45-1.3.45-.46,0-.83-.1-1.1-.31-.27-.21-.45-.52-.52-.93l.81-.07c.05.18.1.31.17.4s.16.15.27.2c.11.05.25.07.4.07.29,0,.52-.09.67-.27.15-.18.23-.44.23-.77,0-.29-.08-.52-.23-.69-.15-.17-.36-.25-.63-.25-.15,0-.29.02-.41.07s-.24.13-.37.26h-.77l.16-2.72h2.79v.66h-2.08l-.08,1.37c.24-.2.56-.3.95-.3.46,0,.83.14,1.1.43s.4.67.4,1.16Z"/>
  </g>
  <g class="cls-16">
    <path class="cls-12" d="M346.47,187.89v-.57c.12-.27.28-.54.5-.8.21-.26.5-.54.87-.84.43-.36.72-.64.86-.84.14-.2.21-.39.21-.57,0-.24-.07-.42-.2-.55-.13-.13-.32-.2-.57-.2-.47,0-.74.25-.8.76l-.82-.06c.05-.43.21-.76.49-1,.28-.24.65-.36,1.11-.36.51,0,.9.12,1.18.36.28.24.42.58.42,1.02,0,.21-.04.4-.12.58-.08.18-.2.36-.35.53s-.4.4-.75.68c-.6.48-.97.87-1.12,1.19h2.42v.68h-3.33Z"/>
    <path class="cls-12" d="M350.59,187.89v-.92h.85v.92h-.85Z"/>
    <path class="cls-12" d="M355,186.85v1.04h-.78v-1.04h-2.2v-.67l2.04-3.25h.94v3.26h.72v.65h-.72ZM354.22,183.77l-1.5,2.42h1.5v-2.42Z"/>
  </g>
  <g class="cls-16">
    <path class="cls-12" d="M101.92,199.82c0,.35-.12.62-.35.81-.24.2-.57.29-.99.29s-.76-.07-.97-.21c-.21-.14-.34-.36-.41-.67l.7-.11c.03.16.1.28.21.35.11.07.26.11.46.11.18,0,.33-.04.44-.12.11-.08.17-.2.17-.38,0-.11-.02-.19-.07-.26-.05-.07-.12-.13-.22-.18-.1-.05-.29-.11-.57-.19-.26-.07-.45-.14-.58-.23-.13-.08-.22-.19-.29-.32-.07-.13-.1-.29-.1-.48,0-.33.1-.6.31-.78.21-.19.52-.28.92-.28.37,0,.66.07.86.21.2.14.33.35.38.63l-.7.07c-.03-.14-.08-.24-.17-.29-.09-.06-.21-.08-.36-.08-.33,0-.5.15-.5.44,0,.09.02.17.06.23.04.06.1.11.18.16.08.04.26.11.54.19.31.09.53.17.65.26s.23.2.3.33.11.3.11.5Z"/>
    <path class="cls-12" d="M102.68,196.43v-.69h.81v.69h-.81ZM102.68,200.86v-3.61h.81v3.61h-.81Z"/>
    <path class="cls-12" d="M106.93,200.86v-2.02c0-.37-.06-.63-.17-.79s-.29-.24-.54-.24c-.27,0-.47.1-.62.31s-.23.48-.23.83v1.91h-.81v-2.78c0-.28-.01-.56-.03-.83h.77c.03.35.04.58.04.7h.01c.14-.27.3-.47.48-.59.18-.12.42-.18.71-.18.4,0,.7.12.9.36.2.24.3.6.3,1.1v2.23h-.81Z"/>
    <path class="cls-12" d="M108.54,199.03c0-.6.13-1.05.4-1.37.26-.32.64-.48,1.13-.48.27,0,.5.06.71.18.2.12.36.29.46.51h.01c0-.2.02-.41.05-.62h.77c-.02.21-.03.48-.03.8v2.7c0,.41-.15.76-.45,1.05s-.73.44-1.29.44c-.92,0-1.45-.32-1.6-.97l.81-.12c.09.33.36.5.82.5.3,0,.53-.09.68-.27.16-.18.24-.39.24-.62v-.38c0-.08,0-.16.01-.23h-.01c-.12.24-.28.42-.48.54s-.45.18-.75.18c-.47,0-.83-.16-1.08-.48-.25-.32-.38-.77-.38-1.36ZM109.38,199.03c0,.83.3,1.24.91,1.24.31,0,.54-.11.7-.33.16-.22.24-.53.24-.93s-.08-.71-.24-.92c-.16-.21-.39-.32-.69-.32s-.52.1-.68.31-.24.52-.24.95Z"/>
    <path class="cls-12" d="M113.1,200.86v-5.12h.81v5.12h-.81Z"/>
    <path class="cls-12" d="M115.61,199.21c.01.37.09.65.24.85s.36.3.62.3c.18,0,.34-.04.48-.13.14-.09.27-.24.38-.45l.64.31c-.14.22-.28.39-.42.51-.14.12-.3.2-.48.26s-.4.09-.66.09c-.53,0-.93-.17-1.22-.5-.29-.33-.43-.8-.43-1.4s.15-1.07.45-1.38.71-.47,1.23-.47.91.17,1.18.5.41.81.41,1.43v.1h-2.42ZM116.41,197.74c-.24,0-.43.08-.57.25s-.22.4-.23.7h1.57c-.02-.32-.1-.56-.22-.72s-.31-.24-.56-.24Z"/>
  </g>
  <g class="cls-16">
    <path class="cls-12" d="M162.48,199.82c0,.35-.12.62-.35.81-.24.2-.57.29-.99.29s-.76-.07-.97-.21c-.21-.14-.34-.36-.41-.67l.7-.11c.03.16.1.28.21.35.11.07.26.11.46.11.18,0,.33-.04.44-.12.11-.08.17-.2.17-.38,0-.11-.02-.19-.07-.26-.05-.07-.12-.13-.22-.18-.1-.05-.29-.11-.57-.19-.26-.07-.45-.14-.58-.23-.13-.08-.22-.19-.29-.32-.07-.13-.1-.29-.1-.48,0-.33.1-.6.31-.78.21-.19.52-.28.92-.28.37,0,.66.07.86.21.2.14.33.35.38.63l-.7.07c-.03-.14-.08-.24-.17-.29-.09-.06-.21-.08-.36-.08-.33,0-.5.15-.5.44,0,.09.02.17.06.23.04.06.1.11.18.16.08.04.26.11.54.19.31.09.53.17.65.26s.23.2.3.33.11.3.11.5Z"/>
    <path class="cls-12" d="M163.23,196.43v-.69h.81v.69h-.81ZM163.23,200.86v-3.61h.81v3.61h-.81Z"/>
    <path class="cls-12" d="M167.49,200.86v-2.02c0-.37-.06-.63-.17-.79s-.29-.24-.54-.24c-.27,0-.47.1-.62.31s-.23.48-.23.83v1.91h-.81v-2.78c0-.28-.01-.56-.03-.83h.77c.03.35.04.58.04.7h.01c.14-.27.3-.47.48-.59.18-.12.42-.18.71-.18.4,0,.7.12.9.36.2.24.3.6.3,1.1v2.23h-.81Z"/>
    <path class="cls-12" d="M169.09,199.03c0-.6.13-1.05.4-1.37.26-.32.64-.48,1.13-.48.27,0,.5.06.71.18.2.12.36.29.46.51h.01c0-.2.02-.41.05-.62h.77c-.02.21-.03.48-.03.8v2.7c0,.41-.15.76-.45,1.05s-.73.44-1.29.44c-.92,0-1.45-.32-1.6-.97l.81-.12c.09.33.36.5.82.5.3,0,.53-.09.68-.27.16-.18.24-.39.24-.62v-.38c0-.08,0-.16.01-.23h-.01c-.12.24-.28.42-.48.54s-.45.18-.75.18c-.47,0-.83-.16-1.08-.48-.25-.32-.38-.77-.38-1.36ZM169.94,199.03c0,.83.3,1.24.91,1.24.31,0,.54-.11.7-.33.16-.22.24-.53.24-.93s-.08-.71-.24-.92c-.16-.21-.39-.32-.69-.32s-.52.1-.68.31-.24.52-.24.95Z"/>
    <path class="cls-12" d="M173.66,200.86v-5.12h.81v5.12h-.81Z"/>
    <path class="cls-12" d="M176.16,199.21c.01.37.09.65.24.85s.36.3.62.3c.18,0,.34-.04.48-.13.14-.09.27-.24.38-.45l.64.31c-.14.22-.28.39-.42.51-.14.12-.3.2-.48.26s-.4.09-.66.09c-.53,0-.93-.17-1.22-.5-.29-.33-.43-.8-.43-1.4s.15-1.07.45-1.38.71-.47,1.23-.47.91.17,1.18.5.41.81.41,1.43v.1h-2.42ZM176.96,197.74c-.24,0-.43.08-.57.25s-.22.4-.23.7h1.57c-.02-.32-.1-.56-.22-.72s-.31-.24-.56-.24Z"/>
  </g>
  <g class="cls-16">
    <path class="cls-12" d="M102.97,236.34c0-.58.14-1.04.41-1.38.27-.33.65-.5,1.15-.5.27,0,.49.05.68.15.18.1.34.26.46.49h.01c0-.09,0-.19-.01-.28s0-.19,0-.28v-1.51h.81v4.31c0,.25,0,.51.03.81h-.79s-.02-.13-.03-.29c0-.15-.01-.26-.01-.32h-.01c-.24.45-.62.67-1.15.67-.49,0-.87-.16-1.13-.48-.27-.32-.4-.78-.4-1.39ZM103.82,236.33c0,.86.3,1.29.9,1.29.32,0,.56-.11.72-.33.16-.22.25-.54.25-.96s-.08-.74-.24-.95c-.16-.22-.4-.33-.71-.33-.6,0-.91.42-.91,1.27Z"/>
    <path class="cls-12" d="M111.01,236.33c0,.59-.16,1.05-.49,1.38s-.79.5-1.38.5-1.02-.17-1.34-.51c-.32-.34-.49-.8-.49-1.38s.16-1.05.49-1.38c.33-.33.78-.49,1.36-.49s1.06.16,1.38.48c.31.32.47.78.47,1.39ZM110.16,236.33c0-.85-.33-1.27-.98-1.27s-1.02.42-1.02,1.27c0,.42.08.73.25.95.17.22.41.33.73.33.68,0,1.03-.43,1.03-1.28Z"/>
    <path class="cls-12" d="M112.61,234.53v2.02c0,.37.06.63.17.79.12.16.29.24.54.24.26,0,.47-.1.63-.3.15-.2.23-.48.23-.84v-1.9h.81v2.77c0,.28.01.56.03.83h-.77c-.03-.36-.04-.59-.04-.7h-.01c-.14.28-.3.47-.49.59s-.42.18-.71.18c-.4,0-.7-.12-.9-.36-.2-.24-.3-.6-.3-1.1v-2.22h.81Z"/>
    <path class="cls-12" d="M119.55,236.32c0,.6-.14,1.06-.41,1.39-.27.33-.65.49-1.15.49-.53,0-.91-.22-1.13-.65h-.01c0,.2-.01.39-.04.59h-.79c.02-.22.03-.49.03-.81v-4.31h.81v1.56c0,.09,0,.19,0,.28s0,.18-.01.27h.01c.11-.22.26-.39.45-.5s.43-.18.74-.18c.48,0,.85.16,1.11.48s.39.78.39,1.38ZM118.71,236.32c0-.85-.3-1.27-.89-1.27-.32,0-.56.11-.72.33s-.24.54-.24.96.08.72.24.94c.16.22.4.33.72.33.6,0,.9-.43.9-1.3Z"/>
    <path class="cls-12" d="M120.39,238.14v-5.12h.81v5.12h-.81Z"/>
    <path class="cls-12" d="M122.9,236.49c.01.37.09.65.24.85s.36.3.62.3c.18,0,.34-.04.48-.13.14-.09.27-.24.38-.45l.64.31c-.14.22-.28.39-.42.51-.14.12-.3.2-.48.26s-.4.09-.66.09c-.53,0-.93-.17-1.22-.5-.29-.33-.43-.8-.43-1.4s.15-1.07.45-1.38.71-.47,1.23-.47.91.17,1.18.5.41.81.41,1.43v.1h-2.42ZM123.7,235.02c-.24,0-.43.08-.57.25s-.22.4-.23.7h1.57c-.02-.32-.1-.56-.22-.72s-.31-.24-.56-.24Z"/>
  </g>
  <g class="cls-16">
    <path class="cls-12" d="M63.52,215.81c0-.58.14-1.04.41-1.38.27-.33.65-.5,1.15-.5.27,0,.49.05.68.15.18.1.34.26.46.49h.01c0-.09,0-.19-.01-.28s0-.19,0-.28v-1.51h.81v4.31c0,.25,0,.51.03.81h-.79s-.02-.13-.03-.29c0-.15-.01-.26-.01-.32h-.01c-.24.45-.62.67-1.15.67-.49,0-.87-.16-1.13-.48-.27-.32-.4-.78-.4-1.39ZM64.36,215.8c0,.86.3,1.29.9,1.29.32,0,.56-.11.72-.33.16-.22.25-.54.25-.96s-.08-.74-.24-.95c-.16-.22-.4-.33-.71-.33-.6,0-.91.42-.91,1.27Z"/>
    <path class="cls-12" d="M71.55,215.8c0,.59-.16,1.05-.49,1.38s-.79.5-1.38.5-1.02-.17-1.34-.51c-.32-.34-.49-.8-.49-1.38s.16-1.05.49-1.38c.33-.33.78-.49,1.36-.49s1.06.16,1.38.48c.31.32.47.78.47,1.39ZM70.71,215.8c0-.85-.33-1.27-.98-1.27s-1.02.42-1.02,1.27c0,.42.08.73.25.95.17.22.41.33.73.33.68,0,1.03-.43,1.03-1.28Z"/>
    <path class="cls-12" d="M73.15,214v2.02c0,.37.06.63.17.79.12.16.29.24.54.24.26,0,.47-.1.63-.3.15-.2.23-.48.23-.84v-1.9h.81v2.77c0,.28.01.56.03.83h-.77c-.03-.36-.04-.59-.04-.7h-.01c-.14.28-.3.47-.49.59s-.42.18-.71.18c-.4,0-.7-.12-.9-.36-.2-.24-.3-.6-.3-1.1v-2.22h.81Z"/>
    <path class="cls-12" d="M80.09,215.78c0,.6-.14,1.06-.41,1.39-.27.33-.65.49-1.15.49-.53,0-.91-.22-1.13-.65h-.01c0,.2-.01.39-.04.59h-.79c.02-.22.03-.49.03-.81v-4.31h.81v1.56c0,.09,0,.19,0,.28s0,.18-.01.27h.01c.11-.22.26-.39.45-.5s.43-.18.74-.18c.48,0,.85.16,1.11.48s.39.78.39,1.38ZM79.25,215.78c0-.85-.3-1.27-.89-1.27-.32,0-.56.11-.72.33s-.24.54-.24.96.08.72.24.94c.16.22.4.33.72.33.6,0,.9-.43.9-1.3Z"/>
    <path class="cls-12" d="M80.94,217.61v-5.12h.81v5.12h-.81Z"/>
    <path class="cls-12" d="M83.44,215.96c.01.37.09.65.24.85s.36.3.62.3c.18,0,.34-.04.48-.13.14-.09.27-.24.38-.45l.64.31c-.14.22-.28.39-.42.51-.14.12-.3.2-.48.26s-.4.09-.66.09c-.53,0-.93-.17-1.22-.5-.29-.33-.43-.8-.43-1.4s.15-1.07.45-1.38.71-.47,1.23-.47.91.17,1.18.5.41.81.41,1.43v.1h-2.42ZM84.24,214.49c-.24,0-.43.08-.57.25s-.22.4-.23.7h1.57c-.02-.32-.1-.56-.22-.72s-.31-.24-.56-.24Z"/>
  </g>
</svg>