<?xml version="1.0" encoding="UTF-8"?>
<svg id="_图层_1" data-name="图层 1" xmlns="http://www.w3.org/2000/svg" viewBox="0 0 394.39 312.35">
  <defs>
    <style>
      .cls-1 {
        letter-spacing: 0em;
      }

      .cls-2 {
        letter-spacing: 0em;
      }

      .cls-3 {
        letter-spacing: 0em;
      }

      .cls-4 {
        letter-spacing: 0em;
      }

      .cls-5 {
        letter-spacing: 0em;
      }

      .cls-6 {
        letter-spacing: 0em;
      }

      .cls-7 {
        letter-spacing: 0em;
      }

      .cls-8 {
        letter-spacing: 0em;
      }

      .cls-9 {
        letter-spacing: 0em;
      }

      .cls-10 {
        letter-spacing: 0em;
      }

      .cls-11 {
        letter-spacing: 0em;
      }

      .cls-12 {
        letter-spacing: 0em;
      }

      .cls-13 {
        font-family: DengXian, DengXian;
        font-size: 11.04px;
      }

      .cls-14 {
        letter-spacing: 0em;
      }

      .cls-15 {
        letter-spacing: 0em;
      }

      .cls-16 {
        letter-spacing: 0em;
      }

      .cls-17 {
        letter-spacing: 0em;
      }

      .cls-18 {
        letter-spacing: 0em;
      }
    </style>
  </defs>
  <text class="cls-13" transform="translate(8.8 21.12)"><tspan x="0" y="0">C</tspan><tspan class="cls-5" x="6.85" y="0">o</tspan><tspan class="cls-2" x="13.2" y="0">m</tspan><tspan class="cls-14" x="22.44" y="0">p</tspan><tspan class="cls-16" x="28.8" y="0">l</tspan><tspan class="cls-15" x="31.31" y="0">e</tspan><tspan class="cls-10" x="36.96" y="0">x</tspan><tspan x="41.88" y="0">:</tspan></text>
  <text class="cls-13" transform="translate(13.47 40.81)"><tspan class="cls-15" x="0" y="0">E</tspan><tspan class="cls-16" x="5.53" y="0">n</tspan><tspan class="cls-15" x="11.65" y="0">e</tspan><tspan class="cls-3" x="17.3" y="0">r</tspan><tspan class="cls-1" x="21.03" y="0">g</tspan><tspan x="27.38" y="0">y</tspan><tspan class="cls-7" x="32.55" y="0"> </tspan><tspan x="35.56" y="0">C</tspan><tspan class="cls-5" x="42.41" y="0">o</tspan><tspan class="cls-18" x="48.76" y="0">m</tspan><tspan class="cls-5" x="58" y="0">po</tspan><tspan class="cls-16" x="70.71" y="0">n</tspan><tspan class="cls-15" x="76.83" y="0">e</tspan><tspan class="cls-12" x="82.48" y="0">n</tspan><tspan x="88.6" y="0">t</tspan></text>
  <text class="cls-13" transform="translate(118.11 40.81)"><tspan class="cls-10" x="0" y="0">A</tspan><tspan class="cls-1" x="7.08" y="0">v</tspan><tspan class="cls-15" x="12.23" y="0">e</tspan><tspan class="cls-3" x="17.88" y="0">r</tspan><tspan x="21.61" y="0">a</tspan><tspan class="cls-1" x="27.14" y="0">g</tspan><tspan x="33.49" y="0">e</tspan></text>
  <text class="cls-13" transform="translate(167.19 40.81)"><tspan class="cls-6" x="0" y="0">S</tspan><tspan class="cls-15" x="5.64" y="0">D</tspan><tspan class="cls-1" x="13.21" y="0">(</tspan><tspan class="cls-5" x="16.45" y="0">P</tspan><tspan class="cls-3" x="22.56" y="0">r</tspan><tspan class="cls-14" x="26.29" y="0">op</tspan><tspan class="cls-3" x="39" y="0">.</tspan><tspan x="41.41" y="0">)</tspan></text>
  <text class="cls-13" transform="translate(234.76 40.81)"><tspan class="cls-6" x="0" y="0">S</tspan><tspan class="cls-17" x="5.64" y="0">D</tspan></text>
  <text class="cls-13" transform="translate(272.07 40.81)"><tspan class="cls-6" x="0" y="0">S</tspan><tspan class="cls-15" x="5.64" y="0">E</tspan><tspan class="cls-12" x="11.17" y="0">M</tspan><tspan class="cls-8" x="20.77" y="0">(</tspan><tspan class="cls-5" x="24" y="0">P</tspan><tspan class="cls-7" x="30.12" y="0">r</tspan><tspan class="cls-5" x="33.85" y="0">op</tspan><tspan class="cls-3" x="46.55" y="0">.</tspan><tspan x="48.96" y="0">)</tspan></text>
  <text class="cls-13" transform="translate(344.67 40.81)"><tspan class="cls-6" x="0" y="0">S</tspan><tspan class="cls-15" x="5.64" y="0">E</tspan><tspan x="11.17" y="0">M</tspan></text>
  <text class="cls-13" transform="translate(44.44 60.49)"><tspan class="cls-2" x="0" y="0">B</tspan><tspan class="cls-9" x="6.12" y="0">O</tspan><tspan x="14.52" y="0">ND</tspan></text>
  <text class="cls-13" transform="translate(122.08 60.49)"><tspan class="cls-18" x="0" y="0">908</tspan><tspan class="cls-3" x="17.32" y="0">.</tspan><tspan class="cls-18" x="19.73" y="0">2</tspan><tspan x="25.5" y="0">1</tspan></text>
  <text class="cls-13" transform="translate(176.81 60.49)"><tspan class="cls-18" x="0" y="0">23</tspan><tspan class="cls-7" x="11.54" y="0">.</tspan><tspan class="cls-2" x="13.95" y="0">1</tspan><tspan class="cls-17" x="19.73" y="0">8</tspan></text>
  <text class="cls-13" transform="translate(228.65 60.49)"><tspan class="cls-18" x="0" y="0">23</tspan><tspan class="cls-7" x="11.54" y="0">.</tspan><tspan class="cls-2" x="13.95" y="0">1</tspan><tspan class="cls-17" x="19.73" y="0">8</tspan></text>
  <text class="cls-13" transform="translate(288.41 60.49)"><tspan class="cls-18" x="0" y="0">7</tspan><tspan class="cls-3" x="5.77" y="0">.</tspan><tspan class="cls-18" x="8.18" y="0">3</tspan><tspan x="13.95" y="0">3</tspan></text>
  <text class="cls-13" transform="translate(345.29 60.49)"><tspan class="cls-18" x="0" y="0">7</tspan><tspan class="cls-3" x="5.77" y="0">.</tspan><tspan class="cls-18" x="8.18" y="0">3</tspan><tspan x="13.95" y="0">3</tspan></text>
  <text class="cls-13" transform="translate(42.89 80.18)"><tspan class="cls-10" x="0" y="0">A</tspan><tspan x="7.08" y="0">N</tspan><tspan class="cls-15" x="15.12" y="0">G</tspan><tspan class="cls-9" x="22.57" y="0">L</tspan><tspan x="27.73" y="0">E</tspan></text>
  <text class="cls-13" transform="translate(119.21 80.18)"><tspan class="cls-18" x="0" y="0">2389</tspan><tspan class="cls-3" x="23.09" y="0">.</tspan><tspan class="cls-18" x="25.5" y="0">2</tspan><tspan x="31.27" y="0">8</tspan></text>
  <text class="cls-13" transform="translate(176.81 80.18)"><tspan class="cls-18" x="0" y="0">27</tspan><tspan class="cls-7" x="11.54" y="0">.</tspan><tspan class="cls-2" x="13.95" y="0">6</tspan><tspan class="cls-17" x="19.73" y="0">3</tspan></text>
  <text class="cls-13" transform="translate(228.65 80.18)"><tspan class="cls-18" x="0" y="0">27</tspan><tspan class="cls-7" x="11.54" y="0">.</tspan><tspan class="cls-2" x="13.95" y="0">6</tspan><tspan class="cls-17" x="19.73" y="0">3</tspan></text>
  <text class="cls-13" transform="translate(288.41 80.18)"><tspan class="cls-18" x="0" y="0">8</tspan><tspan class="cls-3" x="5.77" y="0">.</tspan><tspan class="cls-18" x="8.18" y="0">7</tspan><tspan x="13.95" y="0">4</tspan></text>
  <text class="cls-13" transform="translate(345.29 80.18)"><tspan class="cls-18" x="0" y="0">8</tspan><tspan class="cls-3" x="5.77" y="0">.</tspan><tspan class="cls-18" x="8.18" y="0">7</tspan><tspan x="13.95" y="0">4</tspan></text>
  <text class="cls-13" transform="translate(43.98 99.86)"><tspan class="cls-15" x="0" y="0">D</tspan><tspan class="cls-5" x="7.57" y="0">IH</tspan><tspan class="cls-15" x="17.99" y="0">E</tspan><tspan class="cls-17" x="23.52" y="0">D</tspan></text>
  <text class="cls-13" transform="translate(119.22 99.86)"><tspan class="cls-18" x="0" y="0">3174</tspan><tspan class="cls-3" x="23.09" y="0">.</tspan><tspan class="cls-18" x="25.5" y="0">0</tspan><tspan x="31.27" y="0">8</tspan></text>
  <text class="cls-13" transform="translate(176.82 99.86)"><tspan class="cls-18" x="0" y="0">20</tspan><tspan class="cls-7" x="11.54" y="0">.</tspan><tspan class="cls-2" x="13.95" y="0">3</tspan><tspan class="cls-17" x="19.73" y="0">8</tspan></text>
  <text class="cls-13" transform="translate(228.66 99.86)"><tspan class="cls-18" x="0" y="0">20</tspan><tspan class="cls-7" x="11.54" y="0">.</tspan><tspan class="cls-2" x="13.95" y="0">3</tspan><tspan class="cls-17" x="19.73" y="0">8</tspan></text>
  <text class="cls-13" transform="translate(288.42 99.86)"><tspan class="cls-18" x="0" y="0">6</tspan><tspan class="cls-3" x="5.77" y="0">.</tspan><tspan class="cls-18" x="8.18" y="0">4</tspan><tspan x="13.95" y="0">4</tspan></text>
  <text class="cls-13" transform="translate(345.3 99.86)"><tspan class="cls-18" x="0" y="0">6</tspan><tspan class="cls-3" x="5.77" y="0">.</tspan><tspan class="cls-18" x="8.18" y="0">4</tspan><tspan x="13.95" y="0">4</tspan></text>
  <text class="cls-13" transform="translate(34.87 119.55)"><tspan class="cls-6" x="0" y="0">V</tspan><tspan class="cls-15" x="6.73" y="0">D</tspan><tspan class="cls-7" x="14.29" y="0">W</tspan><tspan class="cls-16" x="24.38" y="0">AA</tspan><tspan class="cls-9" x="38.52" y="0">L</tspan><tspan x="43.68" y="0">S</tspan></text>
  <text class="cls-13" transform="translate(116.46 119.55)"><tspan x="0" y="0">-</tspan><tspan class="cls-18" x="5.52" y="0">2401</tspan><tspan class="cls-3" x="28.61" y="0">.</tspan><tspan class="cls-18" x="31.02" y="0">3</tspan><tspan x="36.79" y="0">1</tspan></text>
  <text class="cls-13" transform="translate(176.82 119.55)"><tspan class="cls-18" x="0" y="0">36</tspan><tspan class="cls-7" x="11.54" y="0">.</tspan><tspan class="cls-2" x="13.95" y="0">7</tspan><tspan class="cls-17" x="19.73" y="0">8</tspan></text>
  <text class="cls-13" transform="translate(228.66 119.55)"><tspan class="cls-18" x="0" y="0">36</tspan><tspan class="cls-7" x="11.54" y="0">.</tspan><tspan class="cls-2" x="13.95" y="0">7</tspan><tspan class="cls-17" x="19.73" y="0">8</tspan></text>
  <text class="cls-13" transform="translate(285.54 119.55)"><tspan class="cls-18" x="0" y="0">11</tspan><tspan class="cls-7" x="11.54" y="0">.</tspan><tspan class="cls-2" x="13.95" y="0">6</tspan><tspan class="cls-17" x="19.73" y="0">3</tspan></text>
  <text class="cls-13" transform="translate(342.42 119.55)"><tspan class="cls-18" x="0" y="0">11</tspan><tspan class="cls-7" x="11.54" y="0">.</tspan><tspan class="cls-2" x="13.95" y="0">6</tspan><tspan class="cls-17" x="19.73" y="0">3</tspan></text>
  <text class="cls-13" transform="translate(51.41 139.23)"><tspan class="cls-15" x="0" y="0">EE</tspan><tspan x="11.06" y="0">L</tspan></text>
  <text class="cls-13" transform="translate(116.45 139.23)"><tspan x="0" y="0">-</tspan><tspan class="cls-18" x="5.52" y="0">19206</tspan><tspan class="cls-7" x="34.38" y="0">.</tspan><tspan x="36.79" y="0">3</tspan></text>
  <text class="cls-13" transform="translate(176.81 139.23)"><tspan class="cls-18" x="0" y="0">95</tspan><tspan class="cls-7" x="11.54" y="0">.</tspan><tspan class="cls-2" x="13.95" y="0">2</tspan><tspan class="cls-17" x="19.73" y="0">6</tspan></text>
  <text class="cls-13" transform="translate(228.65 139.23)"><tspan class="cls-18" x="0" y="0">95</tspan><tspan class="cls-7" x="11.54" y="0">.</tspan><tspan class="cls-2" x="13.95" y="0">2</tspan><tspan class="cls-17" x="19.73" y="0">6</tspan></text>
  <text class="cls-13" transform="translate(285.53 139.23)"><tspan class="cls-18" x="0" y="0">30</tspan><tspan class="cls-7" x="11.54" y="0">.</tspan><tspan class="cls-2" x="13.95" y="0">1</tspan><tspan class="cls-17" x="19.73" y="0">2</tspan></text>
  <text class="cls-13" transform="translate(342.41 139.23)"><tspan class="cls-18" x="0" y="0">30</tspan><tspan class="cls-7" x="11.54" y="0">.</tspan><tspan class="cls-2" x="13.95" y="0">1</tspan><tspan class="cls-17" x="19.73" y="0">2</tspan></text>
  <text class="cls-13" transform="translate(37.36 158.91)"><tspan class="cls-18" x="0" y="0">1</tspan><tspan x="5.77" y="0">-</tspan><tspan class="cls-2" x="11.29" y="0">4</tspan><tspan class="cls-7" x="17.06" y="0"> </tspan><tspan class="cls-6" x="20.08" y="0">V</tspan><tspan class="cls-15" x="26.8" y="0">D</tspan><tspan x="34.37" y="0">W</tspan></text>
  <text class="cls-13" transform="translate(119.2 158.91)"><tspan class="cls-18" x="0" y="0">1175</tspan><tspan class="cls-3" x="23.09" y="0">.</tspan><tspan class="cls-18" x="25.5" y="0">7</tspan><tspan x="31.27" y="0">6</tspan></text>
  <text class="cls-13" transform="translate(176.8 158.91)"><tspan class="cls-18" x="0" y="0">11</tspan><tspan class="cls-7" x="11.54" y="0">.</tspan><tspan class="cls-2" x="13.95" y="0">1</tspan><tspan class="cls-17" x="19.73" y="0">2</tspan></text>
  <text class="cls-13" transform="translate(228.64 158.91)"><tspan class="cls-18" x="0" y="0">11</tspan><tspan class="cls-7" x="11.54" y="0">.</tspan><tspan class="cls-2" x="13.95" y="0">1</tspan><tspan class="cls-17" x="19.73" y="0">2</tspan></text>
  <text class="cls-13" transform="translate(288.4 158.91)"><tspan class="cls-18" x="0" y="0">3</tspan><tspan class="cls-3" x="5.77" y="0">.</tspan><tspan class="cls-18" x="8.18" y="0">5</tspan><tspan x="13.95" y="0">2</tspan></text>
  <text class="cls-13" transform="translate(345.28 158.91)"><tspan class="cls-18" x="0" y="0">3</tspan><tspan class="cls-3" x="5.77" y="0">.</tspan><tspan class="cls-18" x="8.18" y="0">5</tspan><tspan x="13.95" y="0">2</tspan></text>
  <text class="cls-13" transform="translate(39.88 178.6)"><tspan class="cls-18" x="0" y="0">1</tspan><tspan x="5.77" y="0">-</tspan><tspan class="cls-2" x="11.29" y="0">4</tspan><tspan class="cls-7" x="17.06" y="0"> </tspan><tspan class="cls-15" x="20.08" y="0">EE</tspan><tspan class="cls-9" x="31.14" y="0">L</tspan><tspan x="36.3" y="0"> </tspan></text>
  <text class="cls-13" transform="translate(116.32 178.6)"><tspan class="cls-18" x="0" y="0">13285</tspan><tspan class="cls-7" x="28.86" y="0">.</tspan><tspan class="cls-2" x="31.27" y="0">5</tspan><tspan class="cls-17" x="37.04" y="0">2</tspan></text>
  <text class="cls-13" transform="translate(176.8 178.6)"><tspan class="cls-18" x="0" y="0">36</tspan><tspan class="cls-7" x="11.54" y="0">.</tspan><tspan class="cls-2" x="13.95" y="0">7</tspan><tspan class="cls-17" x="19.73" y="0">3</tspan></text>
  <text class="cls-13" transform="translate(228.64 178.6)"><tspan class="cls-18" x="0" y="0">36</tspan><tspan class="cls-7" x="11.54" y="0">.</tspan><tspan class="cls-2" x="13.95" y="0">7</tspan><tspan class="cls-17" x="19.73" y="0">3</tspan></text>
  <text class="cls-13" transform="translate(285.52 178.6)"><tspan class="cls-18" x="0" y="0">11</tspan><tspan class="cls-7" x="11.54" y="0">.</tspan><tspan class="cls-2" x="13.95" y="0">6</tspan><tspan class="cls-17" x="19.73" y="0">2</tspan></text>
  <text class="cls-13" transform="translate(342.4 178.6)"><tspan class="cls-18" x="0" y="0">11</tspan><tspan class="cls-7" x="11.54" y="0">.</tspan><tspan class="cls-2" x="13.95" y="0">6</tspan><tspan class="cls-17" x="19.73" y="0">2</tspan></text>
  <text class="cls-13" transform="translate(50.67 198.28)"><tspan class="cls-15" x="0" y="0">E</tspan><tspan class="cls-5" x="5.53" y="0">P</tspan><tspan x="11.64" y="0">B</tspan></text>
  <text class="cls-13" transform="translate(116.44 198.28)"><tspan x="0" y="0">-</tspan><tspan class="cls-18" x="5.52" y="0">3544</tspan><tspan class="cls-3" x="28.61" y="0">.</tspan><tspan class="cls-18" x="31.02" y="0">1</tspan><tspan x="36.79" y="0">9</tspan></text>
  <text class="cls-13" transform="translate(176.8 198.28)"><tspan class="cls-18" x="0" y="0">52</tspan><tspan class="cls-7" x="11.54" y="0">.</tspan><tspan class="cls-2" x="13.95" y="0">1</tspan><tspan class="cls-17" x="19.73" y="0">9</tspan></text>
  <text class="cls-13" transform="translate(228.64 198.28)"><tspan class="cls-18" x="0" y="0">52</tspan><tspan class="cls-7" x="11.54" y="0">.</tspan><tspan class="cls-2" x="13.95" y="0">1</tspan><tspan class="cls-17" x="19.73" y="0">9</tspan></text>
  <text class="cls-13" transform="translate(288.4 198.28)"><tspan class="cls-18" x="0" y="0">16</tspan><tspan class="cls-7" x="11.54" y="0">.</tspan><tspan x="13.95" y="0">5</tspan></text>
  <text class="cls-13" transform="translate(345.28 198.28)"><tspan class="cls-18" x="0" y="0">16</tspan><tspan class="cls-7" x="11.54" y="0">.</tspan><tspan x="13.95" y="0">5</tspan></text>
  <text class="cls-13" transform="translate(36.16 217.97)"><tspan class="cls-15" x="0" y="0">E</tspan><tspan x="5.53" y="0">N</tspan><tspan class="cls-5" x="13.57" y="0">P</tspan><tspan class="cls-9" x="19.69" y="0">O</tspan><tspan class="cls-5" x="28.08" y="0">L</tspan><tspan class="cls-10" x="33.23" y="0">A</tspan><tspan x="40.31" y="0">R</tspan></text>
  <text class="cls-13" transform="translate(124.95 217.97)"><tspan class="cls-18" x="0" y="0">78</tspan><tspan class="cls-7" x="11.54" y="0">.</tspan><tspan class="cls-2" x="13.95" y="0">5</tspan><tspan class="cls-17" x="19.73" y="0">5</tspan></text>
  <text class="cls-13" transform="translate(179.68 217.97)"><tspan class="cls-18" x="0" y="0">1</tspan><tspan class="cls-3" x="5.77" y="0">.</tspan><tspan class="cls-18" x="8.18" y="0">3</tspan><tspan x="13.95" y="0">2</tspan></text>
  <text class="cls-13" transform="translate(231.52 217.97)"><tspan class="cls-18" x="0" y="0">1</tspan><tspan class="cls-3" x="5.77" y="0">.</tspan><tspan class="cls-18" x="8.18" y="0">3</tspan><tspan x="13.95" y="0">2</tspan></text>
  <text class="cls-13" transform="translate(288.4 217.97)"><tspan class="cls-18" x="0" y="0">0</tspan><tspan class="cls-3" x="5.77" y="0">.</tspan><tspan class="cls-18" x="8.18" y="0">4</tspan><tspan x="13.95" y="0">2</tspan></text>
  <text class="cls-13" transform="translate(345.28 217.97)"><tspan class="cls-18" x="0" y="0">0</tspan><tspan class="cls-3" x="5.77" y="0">.</tspan><tspan class="cls-18" x="8.18" y="0">4</tspan><tspan x="13.95" y="0">2</tspan></text>
  <text class="cls-13" transform="translate(39.76 237.65)"><tspan class="cls-15" x="0" y="0">ED</tspan><tspan class="cls-5" x="13.1" y="0">I</tspan><tspan class="cls-11" x="15.85" y="0">S</tspan><tspan class="cls-5" x="21.49" y="0">P</tspan><tspan class="cls-15" x="27.6" y="0">E</tspan><tspan x="33.13" y="0">R</tspan></text>
  <text class="cls-13" transform="translate(134.8 237.65)"><tspan x="0" y="0">0</tspan></text>
  <text class="cls-13" transform="translate(186.64 237.65)"><tspan x="0" y="0">0</tspan></text>
  <text class="cls-13" transform="translate(238.49 237.65)"><tspan x="0" y="0">0</tspan></text>
  <text class="cls-13" transform="translate(295.36 237.65)"><tspan x="0" y="0">0</tspan></text>
  <text class="cls-13" transform="translate(352.24 237.65)"><tspan x="0" y="0">0</tspan></text>
  <text class="cls-13" transform="translate(45.76 257.29)"><tspan class="cls-15" x="0" y="0">GG</tspan><tspan class="cls-4" x="14.9" y="0">A</tspan><tspan x="21.98" y="0">S</tspan></text>
  <text class="cls-13" transform="translate(119.32 257.29)"><tspan x="0" y="0">-</tspan><tspan class="cls-18" x="5.52" y="0">674</tspan><tspan class="cls-3" x="22.84" y="0">.</tspan><tspan class="cls-18" x="25.25" y="0">7</tspan><tspan x="31.02" y="0">1</tspan></text>
  <text class="cls-13" transform="translate(173.92 257.29)"><tspan class="cls-18" x="0" y="0">116</tspan><tspan class="cls-3" x="17.32" y="0">.</tspan><tspan class="cls-18" x="19.73" y="0">6</tspan><tspan x="25.5" y="0">9</tspan></text>
  <text class="cls-13" transform="translate(228.65 257.29)"><tspan class="cls-18" x="0" y="0">73</tspan><tspan class="cls-7" x="11.54" y="0">.</tspan><tspan class="cls-2" x="13.95" y="0">8</tspan><tspan class="cls-17" x="19.73" y="0">1</tspan></text>
  <text class="cls-13" transform="translate(288.41 257.29)"><tspan class="cls-18" x="0" y="0">36</tspan><tspan class="cls-7" x="11.54" y="0">.</tspan><tspan x="13.95" y="0">9</tspan></text>
  <text class="cls-13" transform="translate(342.4 257.29)"><tspan class="cls-18" x="0" y="0">23</tspan><tspan class="cls-7" x="11.54" y="0">.</tspan><tspan class="cls-2" x="13.95" y="0">3</tspan><tspan class="cls-17" x="19.73" y="0">4</tspan></text>
  <text class="cls-13" transform="translate(42.9 276.97)"><tspan class="cls-15" x="0" y="0">G</tspan><tspan class="cls-6" x="7.45" y="0">S</tspan><tspan class="cls-9" x="13.09" y="0">OL</tspan><tspan x="26.65" y="0">V</tspan></text>
  <text class="cls-13" transform="translate(116.46 276.97)"><tspan x="0" y="0">-</tspan><tspan class="cls-18" x="5.52" y="0">3465</tspan><tspan class="cls-3" x="28.61" y="0">.</tspan><tspan class="cls-18" x="31.02" y="0">6</tspan><tspan x="36.79" y="0">4</tspan></text>
  <text class="cls-13" transform="translate(179.7 276.97)"><tspan class="cls-18" x="0" y="0">52</tspan><tspan class="cls-7" x="11.54" y="0">.</tspan><tspan x="13.95" y="0">2</tspan></text>
  <text class="cls-13" transform="translate(228.66 276.97)"><tspan class="cls-18" x="0" y="0">52</tspan><tspan class="cls-7" x="11.54" y="0">.</tspan><tspan class="cls-2" x="13.95" y="0">5</tspan><tspan class="cls-17" x="19.73" y="0">4</tspan></text>
  <text class="cls-13" transform="translate(285.54 276.97)"><tspan class="cls-18" x="0" y="0">16</tspan><tspan class="cls-7" x="11.54" y="0">.</tspan><tspan class="cls-2" x="13.95" y="0">5</tspan><tspan class="cls-17" x="19.73" y="0">1</tspan></text>
  <text class="cls-13" transform="translate(342.42 276.97)"><tspan class="cls-18" x="0" y="0">16</tspan><tspan class="cls-7" x="11.54" y="0">.</tspan><tspan class="cls-2" x="13.95" y="0">6</tspan><tspan class="cls-17" x="19.73" y="0">2</tspan></text>
  <text class="cls-13" transform="translate(43.5 296.65)"><tspan class="cls-12" x="0" y="0">T</tspan><tspan class="cls-9" x="5.76" y="0">O</tspan><tspan class="cls-16" x="14.15" y="0">T</tspan><tspan class="cls-4" x="19.91" y="0">A</tspan><tspan x="26.99" y="0">L</tspan></text>
  <text class="cls-13" transform="translate(116.46 296.65)"><tspan x="0" y="0">-</tspan><tspan class="cls-18" x="5.52" y="0">4140</tspan><tspan class="cls-3" x="28.61" y="0">.</tspan><tspan class="cls-18" x="31.02" y="0">3</tspan><tspan x="36.79" y="0">5</tspan></text>
  <text class="cls-13" transform="translate(173.94 296.65)"><tspan class="cls-18" x="0" y="0">127</tspan><tspan class="cls-3" x="17.32" y="0">.</tspan><tspan class="cls-18" x="19.73" y="0">8</tspan><tspan x="25.5" y="0">4</tspan></text>
  <text class="cls-13" transform="translate(231.54 296.65)"><tspan class="cls-18" x="0" y="0">37</tspan><tspan class="cls-7" x="11.54" y="0">.</tspan><tspan x="13.95" y="0">5</tspan></text>
  <text class="cls-13" transform="translate(285.54 296.65)"><tspan class="cls-18" x="0" y="0">40</tspan><tspan class="cls-7" x="11.54" y="0">.</tspan><tspan class="cls-2" x="13.95" y="0">4</tspan><tspan class="cls-17" x="19.73" y="0">3</tspan></text>
  <text class="cls-13" transform="translate(342.42 296.65)"><tspan class="cls-18" x="0" y="0">11</tspan><tspan class="cls-7" x="11.54" y="0">.</tspan><tspan class="cls-2" x="13.95" y="0">8</tspan><tspan class="cls-17" x="19.73" y="0">6</tspan></text>
  <rect x="6.88" y="27.24" width="373.8" height=".96"/>
  <rect x="6.88" y="46.93" width="373.8" height=".96"/>
  <rect x="6.88" y="302.76" width="373.8" height=".96"/>
</svg>