<?xml version="1.0" encoding="UTF-8"?>
<svg id="_图层_1" data-name="图层 1" xmlns="http://www.w3.org/2000/svg" viewBox="0 0 418.53 312.35">
  <defs>
    <style>
      .cls-1 {
        letter-spacing: 0em;
      }

      .cls-2 {
        letter-spacing: 0em;
      }

      .cls-3 {
        letter-spacing: 0em;
      }

      .cls-4 {
        letter-spacing: 0em;
      }

      .cls-5 {
        letter-spacing: 0em;
      }

      .cls-6 {
        letter-spacing: 0em;
      }

      .cls-7 {
        letter-spacing: 0em;
      }

      .cls-8 {
        letter-spacing: 0em;
      }

      .cls-9 {
        letter-spacing: 0em;
      }

      .cls-10 {
        letter-spacing: 0em;
      }

      .cls-11 {
        letter-spacing: 0em;
      }

      .cls-12 {
        letter-spacing: 0em;
      }

      .cls-13 {
        letter-spacing: 0em;
      }

      .cls-14 {
        letter-spacing: 0em;
      }

      .cls-15 {
        letter-spacing: 0em;
      }

      .cls-16 {
        letter-spacing: 0em;
      }

      .cls-17 {
        letter-spacing: 0em;
      }

      .cls-18 {
        letter-spacing: 0em;
      }

      .cls-19 {
        font-family: DengXian, DengXian;
        font-size: 11.04px;
      }

      .cls-20 {
        letter-spacing: 0em;
      }

      .cls-21 {
        letter-spacing: 0em;
      }

      .cls-22 {
        letter-spacing: 0em;
      }

      .cls-23 {
        letter-spacing: 0em;
      }

      .cls-24 {
        letter-spacing: 0em;
      }

      .cls-25 {
        letter-spacing: 0em;
      }

      .cls-26 {
        letter-spacing: 0em;
      }
    </style>
  </defs>
  <text class="cls-19" transform="translate(5.45 20.16)"><tspan x="0" y="0">R</tspan><tspan class="cls-21" x="6.37" y="0">e</tspan><tspan class="cls-11" x="12.02" y="0">c</tspan><tspan class="cls-21" x="17.05" y="0">e</tspan><tspan class="cls-6" x="22.69" y="0">p</tspan><tspan class="cls-21" x="29.05" y="0">t</tspan><tspan class="cls-6" x="32.54" y="0">o</tspan><tspan class="cls-4" x="38.89" y="0">r</tspan><tspan x="42.62" y="0">:</tspan></text>
  <text class="cls-19" transform="translate(27.04 39.85)"><tspan class="cls-21" x="0" y="0">E</tspan><tspan class="cls-22" x="5.53" y="0">n</tspan><tspan class="cls-21" x="11.65" y="0">e</tspan><tspan class="cls-4" x="17.3" y="0">r</tspan><tspan class="cls-1" x="21.03" y="0">g</tspan><tspan x="27.38" y="0">y</tspan><tspan class="cls-8" x="32.55" y="0"> </tspan><tspan x="35.56" y="0">C</tspan><tspan class="cls-6" x="42.41" y="0">o</tspan><tspan class="cls-26" x="48.76" y="0">m</tspan><tspan class="cls-6" x="58" y="0">po</tspan><tspan class="cls-22" x="70.71" y="0">n</tspan><tspan class="cls-21" x="76.83" y="0">e</tspan><tspan class="cls-18" x="82.48" y="0">n</tspan><tspan x="88.6" y="0">t</tspan></text>
  <text class="cls-19" transform="translate(148.61 39.85)"><tspan class="cls-24" x="0" y="0">A</tspan><tspan class="cls-10" x="7.08" y="0">v</tspan><tspan class="cls-25" x="12.23" y="0">e</tspan><tspan class="cls-3" x="17.88" y="0">r</tspan><tspan x="21.61" y="0">a</tspan><tspan class="cls-10" x="27.14" y="0">g</tspan><tspan x="33.49" y="0">e</tspan></text>
  <text class="cls-19" transform="translate(197.69 39.85)"><tspan class="cls-7" x="0" y="0">S</tspan><tspan class="cls-17" x="5.64" y="0">D</tspan><tspan class="cls-10" x="13.21" y="0">(</tspan><tspan class="cls-20" x="16.45" y="0">P</tspan><tspan class="cls-3" x="22.56" y="0">r</tspan><tspan class="cls-20" x="26.29" y="0">op</tspan><tspan class="cls-8" x="39" y="0">.</tspan><tspan x="41.41" y="0">)</tspan></text>
  <text class="cls-19" transform="translate(265.25 39.85)"><tspan class="cls-7" x="0" y="0">S</tspan><tspan x="5.64" y="0">D</tspan></text>
  <text class="cls-19" transform="translate(302.57 39.85)"><tspan class="cls-7" x="0" y="0">S</tspan><tspan class="cls-17" x="5.64" y="0">E</tspan><tspan class="cls-22" x="11.17" y="0">M</tspan><tspan class="cls-14" x="20.77" y="0">(</tspan><tspan class="cls-12" x="24" y="0">P</tspan><tspan class="cls-3" x="30.12" y="0">r</tspan><tspan class="cls-20" x="33.85" y="0">op</tspan><tspan class="cls-8" x="46.55" y="0">.</tspan><tspan x="48.96" y="0">)</tspan></text>
  <text class="cls-19" transform="translate(375.17 39.85)"><tspan class="cls-7" x="0" y="0">S</tspan><tspan class="cls-17" x="5.64" y="0">E</tspan><tspan x="11.17" y="0">M</tspan></text>
  <text class="cls-19" transform="translate(58.02 59.53)"><tspan class="cls-2" x="0" y="0">B</tspan><tspan class="cls-11" x="6.12" y="0">O</tspan><tspan x="14.52" y="0">ND</tspan></text>
  <text class="cls-19" transform="translate(152.58 59.53)"><tspan class="cls-26" x="0" y="0">898</tspan><tspan class="cls-8" x="17.32" y="0">.</tspan><tspan class="cls-26" x="19.73" y="0">9</tspan><tspan x="25.5" y="0">1</tspan></text>
  <text class="cls-19" transform="translate(207.31 59.53)"><tspan class="cls-26" x="0" y="0">23</tspan><tspan class="cls-8" x="11.54" y="0">.</tspan><tspan class="cls-26" x="13.95" y="0">2</tspan><tspan x="19.73" y="0">9</tspan></text>
  <text class="cls-19" transform="translate(259.15 59.53)"><tspan class="cls-26" x="0" y="0">23</tspan><tspan class="cls-8" x="11.54" y="0">.</tspan><tspan class="cls-26" x="13.95" y="0">2</tspan><tspan x="19.73" y="0">9</tspan></text>
  <text class="cls-19" transform="translate(318.91 59.53)"><tspan class="cls-26" x="0" y="0">7</tspan><tspan class="cls-8" x="5.77" y="0">.</tspan><tspan class="cls-26" x="8.18" y="0">3</tspan><tspan x="13.95" y="0">6</tspan></text>
  <text class="cls-19" transform="translate(375.79 59.53)"><tspan class="cls-26" x="0" y="0">7</tspan><tspan class="cls-8" x="5.77" y="0">.</tspan><tspan class="cls-26" x="8.18" y="0">3</tspan><tspan x="13.95" y="0">6</tspan></text>
  <text class="cls-19" transform="translate(56.47 79.22)"><tspan class="cls-13" x="0" y="0">A</tspan><tspan x="7.08" y="0">N</tspan><tspan class="cls-21" x="15.12" y="0">G</tspan><tspan class="cls-11" x="22.57" y="0">L</tspan><tspan x="27.73" y="0">E</tspan></text>
  <text class="cls-19" transform="translate(152.59 79.22)"><tspan class="cls-26" x="0" y="0">2358</tspan><tspan class="cls-16" x="23.09" y="0">.</tspan><tspan x="25.5" y="0">9</tspan></text>
  <text class="cls-19" transform="translate(207.32 79.22)"><tspan class="cls-26" x="0" y="0">27</tspan><tspan class="cls-8" x="11.54" y="0">.</tspan><tspan class="cls-26" x="13.95" y="0">3</tspan><tspan x="19.73" y="0">7</tspan></text>
  <text class="cls-19" transform="translate(259.16 79.22)"><tspan class="cls-26" x="0" y="0">27</tspan><tspan class="cls-8" x="11.54" y="0">.</tspan><tspan class="cls-26" x="13.95" y="0">3</tspan><tspan x="19.73" y="0">7</tspan></text>
  <text class="cls-19" transform="translate(318.92 79.22)"><tspan class="cls-26" x="0" y="0">8</tspan><tspan class="cls-8" x="5.77" y="0">.</tspan><tspan class="cls-26" x="8.18" y="0">6</tspan><tspan x="13.95" y="0">6</tspan></text>
  <text class="cls-19" transform="translate(375.8 79.22)"><tspan class="cls-26" x="0" y="0">8</tspan><tspan class="cls-8" x="5.77" y="0">.</tspan><tspan class="cls-26" x="8.18" y="0">6</tspan><tspan x="13.95" y="0">6</tspan></text>
  <text class="cls-19" transform="translate(57.56 98.9)"><tspan class="cls-21" x="0" y="0">D</tspan><tspan class="cls-20" x="7.57" y="0">IH</tspan><tspan class="cls-17" x="17.99" y="0">E</tspan><tspan class="cls-23" x="23.52" y="0">D</tspan></text>
  <text class="cls-19" transform="translate(149.72 98.9)"><tspan class="cls-26" x="0" y="0">3137</tspan><tspan class="cls-16" x="23.09" y="0">.</tspan><tspan class="cls-9" x="25.5" y="0">2</tspan><tspan x="31.27" y="0">6</tspan></text>
  <text class="cls-19" transform="translate(207.32 98.9)"><tspan class="cls-26" x="0" y="0">19</tspan><tspan class="cls-8" x="11.54" y="0">.</tspan><tspan class="cls-26" x="13.95" y="0">2</tspan><tspan x="19.73" y="0">2</tspan></text>
  <text class="cls-19" transform="translate(259.16 98.9)"><tspan class="cls-26" x="0" y="0">19</tspan><tspan class="cls-8" x="11.54" y="0">.</tspan><tspan class="cls-26" x="13.95" y="0">2</tspan><tspan x="19.73" y="0">2</tspan></text>
  <text class="cls-19" transform="translate(318.92 98.9)"><tspan class="cls-26" x="0" y="0">6</tspan><tspan class="cls-8" x="5.77" y="0">.</tspan><tspan class="cls-26" x="8.18" y="0">0</tspan><tspan x="13.95" y="0">8</tspan></text>
  <text class="cls-19" transform="translate(375.8 98.9)"><tspan class="cls-26" x="0" y="0">6</tspan><tspan class="cls-8" x="5.77" y="0">.</tspan><tspan class="cls-26" x="8.18" y="0">0</tspan><tspan x="13.95" y="0">8</tspan></text>
  <text class="cls-19" transform="translate(48.43 118.58)"><tspan class="cls-7" x="0" y="0">V</tspan><tspan class="cls-21" x="6.73" y="0">D</tspan><tspan class="cls-8" x="14.29" y="0">W</tspan><tspan class="cls-22" x="24.38" y="0">AA</tspan><tspan class="cls-11" x="38.52" y="0">L</tspan><tspan x="43.68" y="0">S</tspan></text>
  <text class="cls-19" transform="translate(146.95 118.58)"><tspan x="0" y="0">-</tspan><tspan class="cls-26" x="5.52" y="0">2343</tspan><tspan class="cls-8" x="28.61" y="0">.</tspan><tspan class="cls-26" x="31.02" y="0">1</tspan><tspan x="36.79" y="0">9</tspan></text>
  <text class="cls-19" transform="translate(207.31 118.58)"><tspan class="cls-26" x="0" y="0">35</tspan><tspan class="cls-8" x="11.54" y="0">.</tspan><tspan class="cls-26" x="13.95" y="0">0</tspan><tspan x="19.73" y="0">9</tspan></text>
  <text class="cls-19" transform="translate(259.15 118.58)"><tspan class="cls-26" x="0" y="0">35</tspan><tspan class="cls-8" x="11.54" y="0">.</tspan><tspan class="cls-26" x="13.95" y="0">0</tspan><tspan x="19.73" y="0">9</tspan></text>
  <text class="cls-19" transform="translate(318.91 118.58)"><tspan class="cls-26" x="0" y="0">11</tspan><tspan class="cls-8" x="11.54" y="0">.</tspan><tspan x="13.95" y="0">1</tspan></text>
  <text class="cls-19" transform="translate(375.79 118.58)"><tspan class="cls-26" x="0" y="0">11</tspan><tspan class="cls-8" x="11.54" y="0">.</tspan><tspan x="13.95" y="0">1</tspan></text>
  <text class="cls-19" transform="translate(64.98 138.27)"><tspan class="cls-21" x="0" y="0">EE</tspan><tspan x="11.06" y="0">L</tspan></text>
  <text class="cls-19" transform="translate(146.94 138.27)"><tspan x="0" y="0">-</tspan><tspan class="cls-26" x="5.52" y="0">19206</tspan><tspan class="cls-8" x="34.38" y="0">.</tspan><tspan x="36.79" y="0">3</tspan></text>
  <text class="cls-19" transform="translate(207.29 138.27)"><tspan class="cls-26" x="0" y="0">95</tspan><tspan class="cls-8" x="11.54" y="0">.</tspan><tspan class="cls-26" x="13.95" y="0">2</tspan><tspan x="19.73" y="0">6</tspan></text>
  <text class="cls-19" transform="translate(259.14 138.27)"><tspan class="cls-26" x="0" y="0">95</tspan><tspan class="cls-8" x="11.54" y="0">.</tspan><tspan class="cls-26" x="13.95" y="0">2</tspan><tspan x="19.73" y="0">6</tspan></text>
  <text class="cls-19" transform="translate(316.02 138.27)"><tspan class="cls-26" x="0" y="0">30</tspan><tspan class="cls-8" x="11.54" y="0">.</tspan><tspan class="cls-26" x="13.95" y="0">1</tspan><tspan x="19.73" y="0">2</tspan></text>
  <text class="cls-19" transform="translate(372.89 138.27)"><tspan class="cls-26" x="0" y="0">30</tspan><tspan class="cls-8" x="11.54" y="0">.</tspan><tspan class="cls-26" x="13.95" y="0">1</tspan><tspan x="19.73" y="0">2</tspan></text>
  <text class="cls-19" transform="translate(50.93 157.95)"><tspan class="cls-26" x="0" y="0">1</tspan><tspan x="5.77" y="0">-</tspan><tspan class="cls-2" x="11.29" y="0">4</tspan><tspan class="cls-8" x="17.06" y="0"> </tspan><tspan class="cls-7" x="20.08" y="0">V</tspan><tspan class="cls-21" x="26.8" y="0">D</tspan><tspan x="34.37" y="0">W</tspan></text>
  <text class="cls-19" transform="translate(149.7 157.95)"><tspan class="cls-26" x="0" y="0">1162</tspan><tspan class="cls-16" x="23.09" y="0">.</tspan><tspan class="cls-9" x="25.5" y="0">4</tspan><tspan x="31.27" y="0">1</tspan></text>
  <text class="cls-19" transform="translate(207.29 157.95)"><tspan class="cls-26" x="0" y="0">10</tspan><tspan class="cls-8" x="11.54" y="0">.</tspan><tspan class="cls-26" x="13.95" y="0">7</tspan><tspan x="19.73" y="0">8</tspan></text>
  <text class="cls-19" transform="translate(259.14 157.95)"><tspan class="cls-26" x="0" y="0">10</tspan><tspan class="cls-8" x="11.54" y="0">.</tspan><tspan class="cls-26" x="13.95" y="0">7</tspan><tspan x="19.73" y="0">8</tspan></text>
  <text class="cls-19" transform="translate(318.9 157.95)"><tspan class="cls-26" x="0" y="0">3</tspan><tspan class="cls-8" x="5.77" y="0">.</tspan><tspan class="cls-26" x="8.18" y="0">4</tspan><tspan x="13.95" y="0">1</tspan></text>
  <text class="cls-19" transform="translate(375.78 157.95)"><tspan class="cls-26" x="0" y="0">3</tspan><tspan class="cls-8" x="5.77" y="0">.</tspan><tspan class="cls-26" x="8.18" y="0">4</tspan><tspan x="13.95" y="0">1</tspan></text>
  <text class="cls-19" transform="translate(53.45 177.64)"><tspan class="cls-26" x="0" y="0">1</tspan><tspan x="5.77" y="0">-</tspan><tspan class="cls-2" x="11.29" y="0">4</tspan><tspan class="cls-8" x="17.06" y="0"> </tspan><tspan class="cls-21" x="20.08" y="0">EE</tspan><tspan class="cls-11" x="31.14" y="0">L</tspan><tspan x="36.3" y="0"> </tspan></text>
  <text class="cls-19" transform="translate(146.82 177.64)"><tspan class="cls-26" x="0" y="0">13285</tspan><tspan class="cls-8" x="28.86" y="0">.</tspan><tspan class="cls-26" x="31.27" y="0">5</tspan><tspan x="37.04" y="0">2</tspan></text>
  <text class="cls-19" transform="translate(207.29 177.64)"><tspan class="cls-26" x="0" y="0">36</tspan><tspan class="cls-8" x="11.54" y="0">.</tspan><tspan class="cls-26" x="13.95" y="0">7</tspan><tspan x="19.73" y="0">3</tspan></text>
  <text class="cls-19" transform="translate(259.14 177.64)"><tspan class="cls-26" x="0" y="0">36</tspan><tspan class="cls-8" x="11.54" y="0">.</tspan><tspan class="cls-26" x="13.95" y="0">7</tspan><tspan x="19.73" y="0">3</tspan></text>
  <text class="cls-19" transform="translate(316.02 177.64)"><tspan class="cls-26" x="0" y="0">11</tspan><tspan class="cls-8" x="11.54" y="0">.</tspan><tspan class="cls-26" x="13.95" y="0">6</tspan><tspan x="19.73" y="0">2</tspan></text>
  <text class="cls-19" transform="translate(372.89 177.64)"><tspan class="cls-26" x="0" y="0">11</tspan><tspan class="cls-8" x="11.54" y="0">.</tspan><tspan class="cls-26" x="13.95" y="0">6</tspan><tspan x="19.73" y="0">2</tspan></text>
  <text class="cls-19" transform="translate(64.25 197.32)"><tspan class="cls-21" x="0" y="0">E</tspan><tspan class="cls-6" x="5.53" y="0">P</tspan><tspan x="11.64" y="0">B</tspan></text>
  <text class="cls-19" transform="translate(149.81 197.32)"><tspan x="0" y="0">-</tspan><tspan class="cls-26" x="5.52" y="0">3572</tspan><tspan class="cls-8" x="28.61" y="0">.</tspan><tspan x="31.02" y="0">1</tspan></text>
  <text class="cls-19" transform="translate(207.29 197.32)"><tspan class="cls-26" x="0" y="0">52</tspan><tspan class="cls-8" x="11.54" y="0">.</tspan><tspan class="cls-26" x="13.95" y="0">2</tspan><tspan x="19.73" y="0">7</tspan></text>
  <text class="cls-19" transform="translate(259.14 197.32)"><tspan class="cls-26" x="0" y="0">52</tspan><tspan class="cls-8" x="11.54" y="0">.</tspan><tspan class="cls-26" x="13.95" y="0">2</tspan><tspan x="19.73" y="0">7</tspan></text>
  <text class="cls-19" transform="translate(316.02 197.32)"><tspan class="cls-26" x="0" y="0">16</tspan><tspan class="cls-8" x="11.54" y="0">.</tspan><tspan class="cls-26" x="13.95" y="0">5</tspan><tspan x="19.73" y="0">3</tspan></text>
  <text class="cls-19" transform="translate(372.89 197.32)"><tspan class="cls-26" x="0" y="0">16</tspan><tspan class="cls-8" x="11.54" y="0">.</tspan><tspan class="cls-26" x="13.95" y="0">5</tspan><tspan x="19.73" y="0">3</tspan></text>
  <text class="cls-19" transform="translate(49.73 217.01)"><tspan class="cls-21" x="0" y="0">E</tspan><tspan x="5.53" y="0">N</tspan><tspan class="cls-6" x="13.57" y="0">P</tspan><tspan class="cls-11" x="19.69" y="0">O</tspan><tspan class="cls-6" x="28.08" y="0">L</tspan><tspan class="cls-13" x="33.23" y="0">A</tspan><tspan x="40.31" y="0">R</tspan></text>
  <text class="cls-19" transform="translate(155.45 217.01)"><tspan class="cls-26" x="0" y="0">80</tspan><tspan class="cls-8" x="11.54" y="0">.</tspan><tspan class="cls-26" x="13.95" y="0">2</tspan><tspan x="19.73" y="0">2</tspan></text>
  <text class="cls-19" transform="translate(210.18 217.01)"><tspan class="cls-26" x="0" y="0">1</tspan><tspan class="cls-8" x="5.77" y="0">.</tspan><tspan class="cls-26" x="8.18" y="0">3</tspan><tspan x="13.95" y="0">7</tspan></text>
  <text class="cls-19" transform="translate(262.02 217.01)"><tspan class="cls-26" x="0" y="0">1</tspan><tspan class="cls-8" x="5.77" y="0">.</tspan><tspan class="cls-26" x="8.18" y="0">3</tspan><tspan x="13.95" y="0">7</tspan></text>
  <text class="cls-19" transform="translate(318.9 217.01)"><tspan class="cls-26" x="0" y="0">0</tspan><tspan class="cls-8" x="5.77" y="0">.</tspan><tspan class="cls-26" x="8.18" y="0">4</tspan><tspan x="13.95" y="0">3</tspan></text>
  <text class="cls-19" transform="translate(375.78 217.01)"><tspan class="cls-26" x="0" y="0">0</tspan><tspan class="cls-8" x="5.77" y="0">.</tspan><tspan class="cls-26" x="8.18" y="0">4</tspan><tspan x="13.95" y="0">3</tspan></text>
  <text class="cls-19" transform="translate(53.34 236.69)"><tspan class="cls-21" x="0" y="0">ED</tspan><tspan class="cls-6" x="13.1" y="0">I</tspan><tspan class="cls-15" x="15.85" y="0">S</tspan><tspan class="cls-6" x="21.49" y="0">P</tspan><tspan class="cls-21" x="27.6" y="0">E</tspan><tspan x="33.13" y="0">R</tspan></text>
  <text class="cls-19" transform="translate(165.3 236.69)"><tspan x="0" y="0">0</tspan></text>
  <text class="cls-19" transform="translate(217.14 236.69)"><tspan x="0" y="0">0</tspan></text>
  <text class="cls-19" transform="translate(268.99 236.69)"><tspan x="0" y="0">0</tspan></text>
  <text class="cls-19" transform="translate(325.86 236.69)"><tspan x="0" y="0">0</tspan></text>
  <text class="cls-19" transform="translate(382.74 236.69)"><tspan x="0" y="0">0</tspan></text>
  <text class="cls-19" transform="translate(59.35 256.32)"><tspan class="cls-21" x="0" y="0">GG</tspan><tspan class="cls-5" x="14.9" y="0">A</tspan><tspan x="21.98" y="0">S</tspan></text>
  <text class="cls-19" transform="translate(149.83 256.32)"><tspan x="0" y="0">-</tspan><tspan class="cls-26" x="5.52" y="0">706</tspan><tspan class="cls-8" x="22.84" y="0">.</tspan><tspan class="cls-26" x="25.25" y="0">4</tspan><tspan x="31.02" y="0">4</tspan></text>
  <text class="cls-19" transform="translate(207.31 256.32)"><tspan class="cls-26" x="0" y="0">115</tspan><tspan class="cls-8" x="17.32" y="0">.</tspan><tspan x="19.73" y="0">9</tspan></text>
  <text class="cls-19" transform="translate(259.16 256.32)"><tspan class="cls-26" x="0" y="0">74</tspan><tspan class="cls-8" x="11.54" y="0">.</tspan><tspan class="cls-26" x="13.95" y="0">7</tspan><tspan x="19.73" y="0">2</tspan></text>
  <text class="cls-19" transform="translate(316.04 256.32)"><tspan class="cls-26" x="0" y="0">36</tspan><tspan class="cls-8" x="11.54" y="0">.</tspan><tspan class="cls-26" x="13.95" y="0">6</tspan><tspan x="19.73" y="0">5</tspan></text>
  <text class="cls-19" transform="translate(372.91 256.32)"><tspan class="cls-26" x="0" y="0">23</tspan><tspan class="cls-8" x="11.54" y="0">.</tspan><tspan class="cls-26" x="13.95" y="0">6</tspan><tspan x="19.73" y="0">3</tspan></text>
  <text class="cls-19" transform="translate(56.47 276.01)"><tspan class="cls-21" x="0" y="0">G</tspan><tspan class="cls-7" x="7.45" y="0">S</tspan><tspan class="cls-11" x="13.09" y="0">OL</tspan><tspan x="26.65" y="0">V</tspan></text>
  <text class="cls-19" transform="translate(146.96 276.01)"><tspan x="0" y="0">-</tspan><tspan class="cls-26" x="5.52" y="0">3491</tspan><tspan class="cls-8" x="28.61" y="0">.</tspan><tspan class="cls-26" x="31.02" y="0">8</tspan><tspan x="36.79" y="0">9</tspan></text>
  <text class="cls-19" transform="translate(207.31 276.01)"><tspan class="cls-26" x="0" y="0">52</tspan><tspan class="cls-8" x="11.54" y="0">.</tspan><tspan class="cls-26" x="13.95" y="0">2</tspan><tspan x="19.73" y="0">9</tspan></text>
  <text class="cls-19" transform="translate(259.16 276.01)"><tspan class="cls-26" x="0" y="0">52</tspan><tspan class="cls-8" x="11.54" y="0">.</tspan><tspan class="cls-26" x="13.95" y="0">7</tspan><tspan x="19.73" y="0">1</tspan></text>
  <text class="cls-19" transform="translate(316.04 276.01)"><tspan class="cls-26" x="0" y="0">16</tspan><tspan class="cls-8" x="11.54" y="0">.</tspan><tspan class="cls-26" x="13.95" y="0">5</tspan><tspan x="19.73" y="0">4</tspan></text>
  <text class="cls-19" transform="translate(372.91 276.01)"><tspan class="cls-26" x="0" y="0">16</tspan><tspan class="cls-8" x="11.54" y="0">.</tspan><tspan class="cls-26" x="13.95" y="0">6</tspan><tspan x="19.73" y="0">7</tspan></text>
  <text class="cls-19" transform="translate(57.07 295.69)"><tspan class="cls-18" x="0" y="0">T</tspan><tspan class="cls-11" x="5.76" y="0">O</tspan><tspan class="cls-22" x="14.15" y="0">T</tspan><tspan class="cls-5" x="19.91" y="0">A</tspan><tspan x="26.99" y="0">L</tspan></text>
  <text class="cls-19" transform="translate(146.95 295.69)"><tspan x="0" y="0">-</tspan><tspan class="cls-26" x="5.52" y="0">4198</tspan><tspan class="cls-8" x="28.61" y="0">.</tspan><tspan class="cls-26" x="31.02" y="0">3</tspan><tspan x="36.79" y="0">3</tspan></text>
  <text class="cls-19" transform="translate(204.43 295.69)"><tspan class="cls-26" x="0" y="0">127</tspan><tspan class="cls-8" x="17.32" y="0">.</tspan><tspan class="cls-26" x="19.73" y="0">1</tspan><tspan x="25.5" y="0">5</tspan></text>
  <text class="cls-19" transform="translate(259.16 295.69)"><tspan class="cls-26" x="0" y="0">36</tspan><tspan class="cls-8" x="11.54" y="0">.</tspan><tspan class="cls-26" x="13.95" y="0">8</tspan><tspan x="19.73" y="0">1</tspan></text>
  <text class="cls-19" transform="translate(316.04 295.69)"><tspan class="cls-26" x="0" y="0">40</tspan><tspan class="cls-8" x="11.54" y="0">.</tspan><tspan class="cls-26" x="13.95" y="0">2</tspan><tspan x="19.73" y="0">1</tspan></text>
  <text class="cls-19" transform="translate(372.91 295.69)"><tspan class="cls-26" x="0" y="0">11</tspan><tspan class="cls-8" x="11.54" y="0">.</tspan><tspan class="cls-26" x="13.95" y="0">6</tspan><tspan x="19.73" y="0">4</tspan></text>
  <rect x="3.54" y="26.28" width="407.64" height=".96"/>
  <rect x="3.54" y="45.96" width="407.64" height=".96"/>
  <rect x="3.54" y="301.8" width="407.64" height=".96"/>
</svg>