<?xml version="1.0" encoding="UTF-8"?>
<svg id="_图层_1" data-name="图层 1" xmlns="http://www.w3.org/2000/svg" viewBox="0 0 418.53 309.13">
  <defs>
    <style>
      .cls-1 {
        letter-spacing: 0em;
      }

      .cls-2 {
        letter-spacing: 0em;
      }

      .cls-3 {
        letter-spacing: 0em;
      }

      .cls-4 {
        letter-spacing: 0em;
      }

      .cls-5 {
        letter-spacing: 0em;
      }

      .cls-6 {
        letter-spacing: 0em;
      }

      .cls-7 {
        letter-spacing: 0em;
      }

      .cls-8 {
        letter-spacing: 0em;
      }

      .cls-9 {
        letter-spacing: 0em;
      }

      .cls-10 {
        letter-spacing: 0em;
      }

      .cls-11 {
        letter-spacing: 0em;
      }

      .cls-12 {
        letter-spacing: 0em;
      }

      .cls-13 {
        letter-spacing: 0em;
      }

      .cls-14 {
        letter-spacing: 0em;
      }

      .cls-15 {
        letter-spacing: 0em;
      }

      .cls-16 {
        letter-spacing: 0em;
      }

      .cls-17 {
        letter-spacing: 0em;
      }

      .cls-18 {
        letter-spacing: 0em;
      }

      .cls-19 {
        letter-spacing: 0em;
      }

      .cls-20 {
        font-family: DengXian, DengXian;
        font-size: 11.04px;
      }

      .cls-21 {
        letter-spacing: 0em;
      }

      .cls-22 {
        letter-spacing: 0em;
      }

      .cls-23 {
        letter-spacing: 0em;
      }

      .cls-24 {
        letter-spacing: 0em;
      }

      .cls-25 {
        letter-spacing: 0em;
      }

      .cls-26 {
        letter-spacing: 0em;
      }

      .cls-27 {
        letter-spacing: 0em;
      }

      .cls-28 {
        letter-spacing: 0em;
      }

      .cls-29 {
        letter-spacing: 0em;
      }

      .cls-30 {
        letter-spacing: 0em;
      }

      .cls-31 {
        letter-spacing: 0em;
      }
    </style>
  </defs>
  <text class="cls-20" transform="translate(5.47 20.47)"><tspan class="cls-22" x="0" y="0">De</tspan><tspan class="cls-18" x="13.22" y="0">l</tspan><tspan class="cls-17" x="15.73" y="0">t</tspan><tspan class="cls-26" x="19.22" y="0">a</tspan><tspan class="cls-5" x="24.75" y="0"> </tspan><tspan class="cls-1" x="27.76" y="0">(</tspan><tspan x="31" y="0">C</tspan><tspan class="cls-7" x="37.84" y="0">o</tspan><tspan class="cls-3" x="44.19" y="0">m</tspan><tspan class="cls-7" x="53.44" y="0">p</tspan><tspan class="cls-18" x="59.79" y="0">l</tspan><tspan class="cls-22" x="62.31" y="0">e</tspan><tspan class="cls-13" x="67.95" y="0">x</tspan><tspan class="cls-9" x="72.87" y="0"> </tspan><tspan x="75.88" y="0">-</tspan><tspan class="cls-9" x="81.4" y="0"> </tspan><tspan x="84.42" y="0">R</tspan><tspan class="cls-22" x="90.78" y="0">e</tspan><tspan class="cls-11" x="96.43" y="0">c</tspan><tspan class="cls-17" x="101.46" y="0">e</tspan><tspan class="cls-21" x="107.11" y="0">p</tspan><tspan class="cls-29" x="113.47" y="0">t</tspan><tspan class="cls-21" x="116.96" y="0">o</tspan><tspan class="cls-9" x="123.31" y="0">r </tspan><tspan class="cls-27" x="130.05" y="0">-</tspan><tspan class="cls-4" x="135.57" y="0"> </tspan><tspan class="cls-11" x="138.58" y="0">L</tspan><tspan class="cls-24" x="143.74" y="0">i</tspan><tspan class="cls-10" x="146.25" y="0">g</tspan><tspan class="cls-2" x="152.61" y="0">a</tspan><tspan class="cls-25" x="158.14" y="0">n</tspan><tspan class="cls-19" x="164.26" y="0">d</tspan><tspan x="170.61" y="0">)</tspan></text>
  <text class="cls-20" transform="translate(27.06 40.15)"><tspan class="cls-22" x="0" y="0">E</tspan><tspan class="cls-24" x="5.53" y="0">n</tspan><tspan class="cls-22" x="11.65" y="0">e</tspan><tspan class="cls-5" x="17.3" y="0">r</tspan><tspan class="cls-1" x="21.03" y="0">g</tspan><tspan x="27.38" y="0">y</tspan><tspan class="cls-9" x="32.55" y="0"> </tspan><tspan x="35.56" y="0">C</tspan><tspan class="cls-7" x="42.41" y="0">o</tspan><tspan class="cls-31" x="48.76" y="0">m</tspan><tspan class="cls-7" x="58" y="0">po</tspan><tspan class="cls-24" x="70.71" y="0">n</tspan><tspan class="cls-22" x="76.83" y="0">e</tspan><tspan class="cls-18" x="82.48" y="0">n</tspan><tspan x="88.6" y="0">t</tspan></text>
  <text class="cls-20" transform="translate(148.62 40.15)"><tspan class="cls-28" x="0" y="0">A</tspan><tspan class="cls-10" x="7.08" y="0">v</tspan><tspan class="cls-30" x="12.23" y="0">e</tspan><tspan class="cls-4" x="17.88" y="0">r</tspan><tspan x="21.61" y="0">a</tspan><tspan class="cls-10" x="27.14" y="0">g</tspan><tspan x="33.49" y="0">e</tspan></text>
  <text class="cls-20" transform="translate(197.71 40.15)"><tspan class="cls-8" x="0" y="0">S</tspan><tspan class="cls-17" x="5.64" y="0">D</tspan><tspan class="cls-10" x="13.21" y="0">(</tspan><tspan class="cls-21" x="16.45" y="0">P</tspan><tspan class="cls-4" x="22.56" y="0">r</tspan><tspan class="cls-21" x="26.29" y="0">op</tspan><tspan class="cls-9" x="39" y="0">.</tspan><tspan x="41.41" y="0">)</tspan></text>
  <text class="cls-20" transform="translate(265.27 40.15)"><tspan class="cls-8" x="0" y="0">S</tspan><tspan x="5.64" y="0">D</tspan></text>
  <text class="cls-20" transform="translate(302.59 40.15)"><tspan class="cls-8" x="0" y="0">S</tspan><tspan class="cls-17" x="5.64" y="0">E</tspan><tspan class="cls-24" x="11.17" y="0">M</tspan><tspan class="cls-14" x="20.77" y="0">(</tspan><tspan class="cls-12" x="24" y="0">P</tspan><tspan class="cls-4" x="30.12" y="0">r</tspan><tspan class="cls-21" x="33.85" y="0">op</tspan><tspan class="cls-9" x="46.55" y="0">.</tspan><tspan x="48.96" y="0">)</tspan></text>
  <text class="cls-20" transform="translate(375.19 40.15)"><tspan class="cls-8" x="0" y="0">S</tspan><tspan class="cls-17" x="5.64" y="0">E</tspan><tspan x="11.17" y="0">M</tspan></text>
  <text class="cls-20" transform="translate(54.67 59.84)"><tspan class="cls-24" x="0" y="0">Δ</tspan><tspan class="cls-3" x="6.72" y="0">B</tspan><tspan class="cls-11" x="12.85" y="0">O</tspan><tspan x="21.24" y="0">ND</tspan></text>
  <text class="cls-20" transform="translate(165.32 59.84)"><tspan x="0" y="0">0</tspan></text>
  <text class="cls-20" transform="translate(210.2 59.84)"><tspan class="cls-31" x="0" y="0">1</tspan><tspan class="cls-9" x="5.77" y="0">.</tspan><tspan class="cls-31" x="8.18" y="0">1</tspan><tspan x="13.95" y="0">4</tspan></text>
  <text class="cls-20" transform="translate(268.99 59.84)"><tspan x="0" y="0">0</tspan></text>
  <text class="cls-20" transform="translate(318.92 59.84)"><tspan class="cls-31" x="0" y="0">0</tspan><tspan class="cls-9" x="5.77" y="0">.</tspan><tspan class="cls-31" x="8.18" y="0">3</tspan><tspan x="13.95" y="0">6</tspan></text>
  <text class="cls-20" transform="translate(382.76 59.84)"><tspan x="0" y="0">0</tspan></text>
  <text class="cls-20" transform="translate(53.13 79.52)"><tspan class="cls-23" x="0" y="0">Δ</tspan><tspan class="cls-6" x="6.71" y="0">A</tspan><tspan class="cls-16" x="13.79" y="0">N</tspan><tspan class="cls-22" x="21.83" y="0">G</tspan><tspan class="cls-11" x="29.28" y="0">L</tspan><tspan x="34.44" y="0">E</tspan></text>
  <text class="cls-20" transform="translate(165.33 79.52)"><tspan x="0" y="0">0</tspan></text>
  <text class="cls-20" transform="translate(210.21 79.52)"><tspan class="cls-31" x="0" y="0">2</tspan><tspan class="cls-9" x="5.77" y="0">.</tspan><tspan class="cls-31" x="8.18" y="0">0</tspan><tspan x="13.95" y="0">2</tspan></text>
  <text class="cls-20" transform="translate(269.01 79.52)"><tspan x="0" y="0">0</tspan></text>
  <text class="cls-20" transform="translate(318.93 79.52)"><tspan class="cls-31" x="0" y="0">0</tspan><tspan class="cls-9" x="5.77" y="0">.</tspan><tspan class="cls-31" x="8.18" y="0">6</tspan><tspan x="13.95" y="0">4</tspan></text>
  <text class="cls-20" transform="translate(382.77 79.52)"><tspan x="0" y="0">0</tspan></text>
  <text class="cls-20" transform="translate(54.21 99.2)"><tspan class="cls-23" x="0" y="0">Δ</tspan><tspan class="cls-22" x="6.71" y="0">D</tspan><tspan class="cls-21" x="14.28" y="0">IH</tspan><tspan class="cls-22" x="24.71" y="0">E</tspan><tspan x="30.24" y="0">D</tspan></text>
  <text class="cls-20" transform="translate(165.33 99.2)"><tspan x="0" y="0">0</tspan></text>
  <text class="cls-20" transform="translate(210.21 99.2)"><tspan class="cls-31" x="0" y="0">0</tspan><tspan class="cls-9" x="5.77" y="0">.</tspan><tspan class="cls-31" x="8.18" y="0">3</tspan><tspan x="13.95" y="0">6</tspan></text>
  <text class="cls-20" transform="translate(269.01 99.2)"><tspan x="0" y="0">0</tspan></text>
  <text class="cls-20" transform="translate(318.93 99.2)"><tspan class="cls-31" x="0" y="0">0</tspan><tspan class="cls-9" x="5.77" y="0">.</tspan><tspan class="cls-31" x="8.18" y="0">1</tspan><tspan x="13.95" y="0">1</tspan></text>
  <text class="cls-20" transform="translate(382.77 99.2)"><tspan x="0" y="0">0</tspan></text>
  <text class="cls-20" transform="translate(45.09 118.89)"><tspan class="cls-23" x="0" y="0">Δ</tspan><tspan class="cls-15" x="6.71" y="0">V</tspan><tspan class="cls-22" x="13.44" y="0">D</tspan><tspan class="cls-5" x="21.01" y="0">W</tspan><tspan class="cls-18" x="31.09" y="0">AA</tspan><tspan class="cls-11" x="45.23" y="0">L</tspan><tspan x="50.39" y="0">S</tspan></text>
  <text class="cls-20" transform="translate(152.73 118.89)"><tspan x="0" y="0">-</tspan><tspan class="cls-31" x="5.52" y="0">53</tspan><tspan class="cls-9" x="17.06" y="0">.</tspan><tspan class="cls-31" x="19.47" y="0">1</tspan><tspan x="25.25" y="0">8</tspan></text>
  <text class="cls-20" transform="translate(210.22 118.89)"><tspan class="cls-31" x="0" y="0">1</tspan><tspan class="cls-9" x="5.77" y="0">.</tspan><tspan class="cls-31" x="8.18" y="0">0</tspan><tspan x="13.95" y="0">4</tspan></text>
  <text class="cls-20" transform="translate(262.06 118.89)"><tspan class="cls-31" x="0" y="0">2</tspan><tspan class="cls-9" x="5.77" y="0">.</tspan><tspan class="cls-31" x="8.18" y="0">7</tspan><tspan x="13.95" y="0">8</tspan></text>
  <text class="cls-20" transform="translate(318.94 118.89)"><tspan class="cls-31" x="0" y="0">0</tspan><tspan class="cls-9" x="5.77" y="0">.</tspan><tspan class="cls-31" x="8.18" y="0">3</tspan><tspan x="13.95" y="0">3</tspan></text>
  <text class="cls-20" transform="translate(375.82 118.89)"><tspan class="cls-31" x="0" y="0">0</tspan><tspan class="cls-9" x="5.77" y="0">.</tspan><tspan class="cls-31" x="8.18" y="0">8</tspan><tspan x="13.95" y="0">8</tspan></text>
  <text class="cls-20" transform="translate(61.66 138.57)"><tspan class="cls-23" x="0" y="0">Δ</tspan><tspan class="cls-22" x="6.71" y="0">EE</tspan><tspan x="17.77" y="0">L</tspan></text>
  <text class="cls-20" transform="translate(165.34 138.57)"><tspan x="0" y="0">0</tspan></text>
  <text class="cls-20" transform="translate(217.18 138.57)"><tspan x="0" y="0">0</tspan></text>
  <text class="cls-20" transform="translate(269.03 138.57)"><tspan x="0" y="0">0</tspan></text>
  <text class="cls-20" transform="translate(325.91 138.57)"><tspan x="0" y="0">0</tspan></text>
  <text class="cls-20" transform="translate(382.78 138.57)"><tspan x="0" y="0">0</tspan></text>
  <text class="cls-20" transform="translate(61.32 158.26)"><tspan class="cls-23" x="0" y="0">Δ</tspan><tspan class="cls-31" x="6.71" y="0">1</tspan><tspan x="12.48" y="0">-4</tspan></text>
  <text class="cls-20" transform="translate(165.36 158.26)"><tspan x="0" y="0">0</tspan></text>
  <text class="cls-20" transform="translate(217.21 158.26)"><tspan x="0" y="0">1</tspan></text>
  <text class="cls-20" transform="translate(269.05 158.26)"><tspan x="0" y="0">0</tspan></text>
  <text class="cls-20" transform="translate(318.97 158.26)"><tspan class="cls-31" x="0" y="0">0</tspan><tspan class="cls-9" x="5.77" y="0">.</tspan><tspan class="cls-31" x="8.18" y="0">3</tspan><tspan x="13.95" y="0">2</tspan></text>
  <text class="cls-20" transform="translate(382.82 158.26)"><tspan x="0" y="0">0</tspan></text>
  <text class="cls-20" transform="translate(61.34 177.94)"><tspan class="cls-23" x="0" y="0">Δ</tspan><tspan class="cls-31" x="6.71" y="0">1</tspan><tspan x="12.48" y="0">-4</tspan></text>
  <text class="cls-20" transform="translate(165.38 177.94)"><tspan x="0" y="0">0</tspan></text>
  <text class="cls-20" transform="translate(217.23 177.94)"><tspan x="0" y="0">0</tspan></text>
  <text class="cls-20" transform="translate(269.07 177.94)"><tspan x="0" y="0">0</tspan></text>
  <text class="cls-20" transform="translate(325.95 177.94)"><tspan x="0" y="0">0</tspan></text>
  <text class="cls-20" transform="translate(382.83 177.94)"><tspan x="0" y="0">0</tspan></text>
  <text class="cls-20" transform="translate(60.91 197.58)"><tspan class="cls-23" x="0" y="0">Δ</tspan><tspan class="cls-22" x="6.71" y="0">E</tspan><tspan class="cls-21" x="12.24" y="0">P</tspan><tspan class="cls-16" x="18.36" y="0">B</tspan></text>
  <text class="cls-20" transform="translate(155.47 197.58)"><tspan class="cls-31" x="0" y="0">27</tspan><tspan class="cls-9" x="11.54" y="0">.</tspan><tspan class="cls-31" x="13.95" y="0">9</tspan><tspan x="19.73" y="0">1</tspan></text>
  <text class="cls-20" transform="translate(210.19 197.58)"><tspan class="cls-31" x="0" y="0">0</tspan><tspan class="cls-9" x="5.77" y="0">.</tspan><tspan class="cls-31" x="8.18" y="0">0</tspan><tspan x="13.95" y="0">9</tspan></text>
  <text class="cls-20" transform="translate(262.04 197.58)"><tspan class="cls-31" x="0" y="0">3</tspan><tspan class="cls-9" x="5.77" y="0">.</tspan><tspan class="cls-31" x="8.18" y="0">3</tspan><tspan x="13.95" y="0">7</tspan></text>
  <text class="cls-20" transform="translate(318.91 197.58)"><tspan class="cls-31" x="0" y="0">0</tspan><tspan class="cls-9" x="5.77" y="0">.</tspan><tspan class="cls-31" x="8.18" y="0">0</tspan><tspan x="13.95" y="0">3</tspan></text>
  <text class="cls-20" transform="translate(375.79 197.58)"><tspan class="cls-31" x="0" y="0">1</tspan><tspan class="cls-9" x="5.77" y="0">.</tspan><tspan class="cls-31" x="8.18" y="0">0</tspan><tspan x="13.95" y="0">6</tspan></text>
  <text class="cls-20" transform="translate(46.39 217.26)"><tspan class="cls-23" x="0" y="0">Δ</tspan><tspan class="cls-22" x="6.71" y="0">E</tspan><tspan x="12.24" y="0">N</tspan><tspan class="cls-7" x="20.29" y="0">P</tspan><tspan class="cls-11" x="26.4" y="0">O</tspan><tspan class="cls-7" x="34.79" y="0">L</tspan><tspan class="cls-6" x="39.94" y="0">A</tspan><tspan x="47.02" y="0">R</tspan></text>
  <text class="cls-20" transform="translate(155.59 217.26)"><tspan x="0" y="0">-</tspan><tspan class="cls-31" x="5.52" y="0">1</tspan><tspan class="cls-9" x="11.29" y="0">.</tspan><tspan class="cls-31" x="13.7" y="0">6</tspan><tspan x="19.47" y="0">7</tspan></text>
  <text class="cls-20" transform="translate(210.19 217.26)"><tspan class="cls-31" x="0" y="0">0</tspan><tspan class="cls-9" x="5.77" y="0">.</tspan><tspan class="cls-31" x="8.18" y="0">0</tspan><tspan x="13.95" y="0">6</tspan></text>
  <text class="cls-20" transform="translate(262.04 217.26)"><tspan class="cls-31" x="0" y="0">0</tspan><tspan class="cls-9" x="5.77" y="0">.</tspan><tspan class="cls-31" x="8.18" y="0">0</tspan><tspan x="13.95" y="0">9</tspan></text>
  <text class="cls-20" transform="translate(318.91 217.26)"><tspan class="cls-31" x="0" y="0">0</tspan><tspan class="cls-9" x="5.77" y="0">.</tspan><tspan class="cls-31" x="8.18" y="0">0</tspan><tspan x="13.95" y="0">2</tspan></text>
  <text class="cls-20" transform="translate(375.79 217.26)"><tspan class="cls-31" x="0" y="0">0</tspan><tspan class="cls-9" x="5.77" y="0">.</tspan><tspan class="cls-31" x="8.18" y="0">0</tspan><tspan x="13.95" y="0">3</tspan></text>
  <text class="cls-20" transform="translate(49.99 236.95)"><tspan class="cls-23" x="0" y="0">Δ</tspan><tspan class="cls-22" x="6.71" y="0">ED</tspan><tspan class="cls-21" x="19.81" y="0">I</tspan><tspan class="cls-8" x="22.56" y="0">S</tspan><tspan class="cls-21" x="28.2" y="0">P</tspan><tspan class="cls-17" x="34.32" y="0">E</tspan><tspan class="cls-26" x="39.85" y="0">R</tspan></text>
  <text class="cls-20" transform="translate(165.31 236.95)"><tspan x="0" y="0">0</tspan></text>
  <text class="cls-20" transform="translate(217.16 236.95)"><tspan x="0" y="0">0</tspan></text>
  <text class="cls-20" transform="translate(269 236.95)"><tspan x="0" y="0">0</tspan></text>
  <text class="cls-20" transform="translate(325.88 236.95)"><tspan x="0" y="0">0</tspan></text>
  <text class="cls-20" transform="translate(382.76 236.95)"><tspan x="0" y="0">0</tspan></text>
  <text class="cls-20" transform="translate(56 256.63)"><tspan class="cls-23" x="0" y="0">Δ</tspan><tspan class="cls-30" x="6.71" y="0">GG</tspan><tspan class="cls-13" x="21.61" y="0">A</tspan><tspan x="28.69" y="0">S</tspan></text>
  <text class="cls-20" transform="translate(152.72 256.63)"><tspan x="0" y="0">-</tspan><tspan class="cls-31" x="5.52" y="0">53</tspan><tspan class="cls-9" x="17.06" y="0">.</tspan><tspan class="cls-31" x="19.47" y="0">1</tspan><tspan x="25.25" y="0">8</tspan></text>
  <text class="cls-20" transform="translate(210.2 256.63)"><tspan class="cls-31" x="0" y="0">1</tspan><tspan class="cls-9" x="5.77" y="0">.</tspan><tspan class="cls-31" x="8.18" y="0">0</tspan><tspan x="13.95" y="0">4</tspan></text>
  <text class="cls-20" transform="translate(262.05 256.63)"><tspan class="cls-31" x="0" y="0">2</tspan><tspan class="cls-9" x="5.77" y="0">.</tspan><tspan class="cls-31" x="8.18" y="0">7</tspan><tspan x="13.95" y="0">8</tspan></text>
  <text class="cls-20" transform="translate(318.92 256.63)"><tspan class="cls-31" x="0" y="0">0</tspan><tspan class="cls-9" x="5.77" y="0">.</tspan><tspan class="cls-31" x="8.18" y="0">3</tspan><tspan x="13.95" y="0">3</tspan></text>
  <text class="cls-20" transform="translate(375.8 256.63)"><tspan class="cls-31" x="0" y="0">0</tspan><tspan class="cls-9" x="5.77" y="0">.</tspan><tspan class="cls-31" x="8.18" y="0">8</tspan><tspan x="13.95" y="0">8</tspan></text>
  <text class="cls-20" transform="translate(53.12 276.31)"><tspan class="cls-23" x="0" y="0">Δ</tspan><tspan class="cls-30" x="6.71" y="0">G</tspan><tspan class="cls-8" x="14.16" y="0">S</tspan><tspan class="cls-11" x="19.8" y="0">OL</tspan><tspan x="33.36" y="0">V</tspan></text>
  <text class="cls-20" transform="translate(155.49 276.31)"><tspan class="cls-31" x="0" y="0">26</tspan><tspan class="cls-9" x="11.54" y="0">.</tspan><tspan class="cls-31" x="13.95" y="0">2</tspan><tspan x="19.73" y="0">5</tspan></text>
  <text class="cls-20" transform="translate(213.08 276.31)"><tspan class="cls-31" x="0" y="0">0</tspan><tspan class="cls-9" x="5.77" y="0">.</tspan><tspan x="8.18" y="0">1</tspan></text>
  <text class="cls-20" transform="translate(262.05 276.31)"><tspan class="cls-31" x="0" y="0">3</tspan><tspan class="cls-9" x="5.77" y="0">.</tspan><tspan class="cls-31" x="8.18" y="0">3</tspan><tspan x="13.95" y="0">8</tspan></text>
  <text class="cls-20" transform="translate(318.92 276.31)"><tspan class="cls-31" x="0" y="0">0</tspan><tspan class="cls-9" x="5.77" y="0">.</tspan><tspan class="cls-31" x="8.18" y="0">0</tspan><tspan x="13.95" y="0">3</tspan></text>
  <text class="cls-20" transform="translate(375.8 276.31)"><tspan class="cls-31" x="0" y="0">1</tspan><tspan class="cls-9" x="5.77" y="0">.</tspan><tspan class="cls-31" x="8.18" y="0">0</tspan><tspan x="13.95" y="0">7</tspan></text>
  <text class="cls-20" transform="translate(53.72 296)"><tspan class="cls-24" x="0" y="0">ΔT</tspan><tspan class="cls-11" x="12.48" y="0">O</tspan><tspan class="cls-24" x="20.88" y="0">T</tspan><tspan class="cls-6" x="26.63" y="0">A</tspan><tspan x="33.71" y="0">L</tspan></text>
  <text class="cls-20" transform="translate(152.72 296)"><tspan x="0" y="0">-</tspan><tspan class="cls-31" x="5.52" y="0">26</tspan><tspan class="cls-9" x="17.06" y="0">.</tspan><tspan class="cls-31" x="19.47" y="0">9</tspan><tspan x="25.25" y="0">3</tspan></text>
  <text class="cls-20" transform="translate(210.2 296)"><tspan class="cls-31" x="0" y="0">1</tspan><tspan class="cls-9" x="5.77" y="0">.</tspan><tspan class="cls-31" x="8.18" y="0">0</tspan><tspan x="13.95" y="0">4</tspan></text>
  <text class="cls-20" transform="translate(262.05 296)"><tspan class="cls-31" x="0" y="0">4</tspan><tspan class="cls-9" x="5.77" y="0">.</tspan><tspan class="cls-31" x="8.18" y="0">0</tspan><tspan x="13.95" y="0">7</tspan></text>
  <text class="cls-20" transform="translate(318.92 296)"><tspan class="cls-31" x="0" y="0">0</tspan><tspan class="cls-9" x="5.77" y="0">.</tspan><tspan class="cls-31" x="8.18" y="0">3</tspan><tspan x="13.95" y="0">3</tspan></text>
  <text class="cls-20" transform="translate(375.8 296)"><tspan class="cls-31" x="0" y="0">1</tspan><tspan class="cls-9" x="5.77" y="0">.</tspan><tspan class="cls-31" x="8.18" y="0">2</tspan><tspan x="13.95" y="0">9</tspan></text>
  <rect x="3.54" y="26.58" width="407.64" height=".96"/>
  <rect x="3.54" y="46.26" width="407.64" height=".96"/>
  <rect x="3.54" y="302.1" width="407.64" height=".96"/>
</svg>