<svg width="809" height="645" xmlns="http://www.w3.org/2000/svg" xmlns:xlink="http://www.w3.org/1999/xlink" overflow="hidden"><g transform="translate(-103 -25)"><rect x="421.5" y="28.5001" width="189" height="640" stroke="#000000" stroke-width="1.33333" stroke-miterlimit="8" fill="none"/><path d="M0 0.333333-0.514983 0.333333-0.18165 0-0.18165 14.2825-0.514983 13.9492 225.304 13.9492 225.304 14.6159-0.848316 14.6159-0.848316-0.333333 0-0.333333ZM223.971 10.2825 231.971 14.2825 223.971 18.2825Z" fill="#4472C4" transform="matrix(-1 1.22465e-16 1.22465e-16 1 757.471 454.5)"/><path d="M798 312 801 312 801 302 807 302 807 312 810 312 804 318Z" fill="#A5A5A5" fill-rule="evenodd"/><rect x="104.5" y="74.5001" width="172" height="45" stroke="#5B9BD5" stroke-width="1.33333" stroke-miterlimit="8" fill="#DEEBF7"/><text font-family="DengXian,DengXian_MSFontService,sans-serif" font-weight="400" font-size="24" transform="translate(141.81 104)">分配内存</text><rect x="104.5" y="220.5" width="172" height="46" stroke="#5B9BD5" stroke-width="1.33333" stroke-miterlimit="8" fill="#DEEBF7"/><text font-family="DengXian,DengXian_MSFontService,sans-serif" font-weight="400" font-size="24" transform="translate(119.81 251)">CPU</text><text font-family="DengXian,DengXian_MSFontService,sans-serif" font-weight="400" font-size="24" transform="translate(163.81 251)">遍历计算</text><rect x="104.5" y="166.5" width="172" height="27" stroke="#FFC000" stroke-width="1.33333" stroke-miterlimit="8" fill="#FFE699"/><text font-family="DengXian,DengXian_MSFontService,sans-serif" font-weight="400" font-size="24" transform="translate(160.727 187)">time1</text><rect x="104.5" y="293.5" width="172" height="27" stroke="#FFC000" stroke-width="1.33333" stroke-miterlimit="8" fill="#FFE699"/><text font-family="DengXian,DengXian_MSFontService,sans-serif" font-weight="400" font-size="24" transform="translate(160.727 314)">time2</text><rect x="449.5" y="147.5" width="140" height="46" stroke="#5B9BD5" stroke-width="1.33333" stroke-miterlimit="8" fill="#DEEBF7"/><text font-family="DengXian,DengXian_MSFontService,sans-serif" font-weight="400" font-size="24" transform="translate(471.145 178)">分配显存</text><rect x="449.5" y="211.5" width="140" height="46" stroke="#5B9BD5" stroke-width="1.33333" stroke-miterlimit="8" fill="#DEEBF7"/><text font-family="DengXian,DengXian_MSFontService,sans-serif" font-weight="400" font-size="24" transform="translate(471.145 242)">拷贝数据</text><rect x="449.5" y="275.5" width="140" height="45" stroke="#5B9BD5" stroke-width="1.33333" stroke-miterlimit="8" fill="#DEEBF7"/><text font-family="DengXian,DengXian_MSFontService,sans-serif" font-weight="400" font-size="24" transform="translate(473.395 305)">设置</text><text font-family="DengXian,DengXian_MSFontService,sans-serif" font-weight="400" font-size="24" transform="translate(521.395 305)">Grid</text><rect x="449.5" y="338.5" width="140" height="45" stroke="#5B9BD5" stroke-width="1.33333" stroke-miterlimit="8" fill="#DEEBF7"/><text font-family="DengXian,DengXian_MSFontService,sans-serif" font-weight="400" font-size="24" transform="translate(459.145 368)">执行核函数</text><rect x="449.5" y="411.5" width="140" height="45" stroke="#5B9BD5" stroke-width="1.33333" stroke-miterlimit="8" fill="#DEEBF7"/><text font-family="DengXian,DengXian_MSFontService,sans-serif" font-weight="400" font-size="24" transform="translate(473.145 441)">CPU</text><text font-family="DengXian,DengXian_MSFontService,sans-serif" font-weight="400" font-size="24" transform="translate(517.145 441)">阻塞</text><rect x="449.5" y="474.5" width="140" height="45" stroke="#5B9BD5" stroke-width="1.33333" stroke-miterlimit="8" fill="#DEEBF7"/><text font-family="DengXian,DengXian_MSFontService,sans-serif" font-weight="400" font-size="24" transform="translate(471.145 504)">拷贝数据</text><rect x="449.5" y="536.5" width="140" height="46" stroke="#5B9BD5" stroke-width="1.33333" stroke-miterlimit="8" fill="#DEEBF7"/><text font-family="DengXian,DengXian_MSFontService,sans-serif" font-weight="400" font-size="24" transform="translate(471.145 567)">释放显存</text><rect x="104.5" y="601.5" width="172" height="45" stroke="#5B9BD5" stroke-width="1.33333" stroke-miterlimit="8" fill="#DEEBF7"/><text font-family="DengXian,DengXian_MSFontService,sans-serif" font-weight="400" font-size="24" transform="translate(141.81 631)">释放内存</text><path d="M184 155 187 155 187 128 193 128 193 155 196 155 190 161Z" fill="#A5A5A5" fill-rule="evenodd"/><path d="M184 211 187 211 187 195 193 195 193 211 196 211 190 217Z" fill="#A5A5A5" fill-rule="evenodd"/><path d="M184 285 187 285 187 269 193 269 193 285 196 285 190 291Z" fill="#A5A5A5" fill-rule="evenodd"/><path d="M513 138 516 138 516 128 522 128 522 138 525 138 519 144Z" fill="#A5A5A5" fill-rule="evenodd"/><path d="M513 205 516 205 516 195 522 195 522 205 525 205 519 211Z" fill="#A5A5A5" fill-rule="evenodd"/><path d="M513 268 516 268 516 258 522 258 522 268 525 268 519 274Z" fill="#A5A5A5" fill-rule="evenodd"/><path d="M513 333 516 333 516 323 522 323 522 333 525 333 519 339Z" fill="#A5A5A5" fill-rule="evenodd"/><path d="M513 402 516 402 516 392 522 392 522 402 525 402 519 408Z" fill="#A5A5A5" fill-rule="evenodd"/><path d="M513 468 516 468 516 458 522 458 522 468 525 468 519 474Z" fill="#A5A5A5" fill-rule="evenodd"/><path d="M513 531 516 531 516 521 522 521 522 531 525 531 519 537Z" fill="#A5A5A5" fill-rule="evenodd"/><path d="M513 595 516 595 516 585 522 585 522 595 525 595 519 601Z" fill="#A5A5A5" fill-rule="evenodd"/><path d="M184 589.998 187.001 589.998 187.001 331 193.003 331 193.003 589.998 196.003 589.998 190.002 596Z" fill="#A5A5A5" fill-rule="evenodd"/><rect x="710.5" y="211.5" width="189" height="46" stroke="#5B9BD5" stroke-width="1.33333" stroke-miterlimit="8" fill="#DEEBF7"/><text font-family="DengXian,DengXian_MSFontService,sans-serif" font-weight="400" font-size="24" transform="translate(756.376 242)">显存空间</text><path d="M589.5 234.167 703.584 234.167 703.584 234.833 589.5 234.833ZM702.251 230.5 710.251 234.5 702.251 238.5Z" fill="#4472C4"/><rect x="710.5" y="474.5" width="189" height="45" stroke="#5B9BD5" stroke-width="1.33333" stroke-miterlimit="8" fill="#DEEBF7"/><text font-family="DengXian,DengXian_MSFontService,sans-serif" font-weight="400" font-size="24" transform="translate(756.376 504)">显存空间</text><rect x="710.5" y="365.5" width="189" height="45" stroke="#5B9BD5" stroke-width="1.33333" stroke-miterlimit="8" fill="#DEEBF7"/><text font-family="DengXian,DengXian_MSFontService,sans-serif" font-weight="400" font-size="24" transform="translate(744.376 395)">核函数计算</text><rect x="710.5" y="274.5" width="189" height="27" stroke="#FFC000" stroke-width="1.33333" stroke-miterlimit="8" fill="#FFE699"/><text font-family="DengXian,DengXian_MSFontService,sans-serif" font-weight="400" font-size="21" transform="translate(740.376 295)">创建事件对象</text><rect x="710.5" y="318.5" width="189" height="27" stroke="#FFC000" stroke-width="1.33333" stroke-miterlimit="8" fill="#FFE699"/><text font-family="DengXian,DengXian_MSFontService,sans-serif" font-weight="400" font-size="21" transform="translate(720.292 339)">记录当前时间</text><text font-family="DengXian,DengXian_MSFontService,sans-serif" font-weight="400" font-size="21" transform="translate(848.292 339)">start</text><rect x="710.5" y="427.5" width="189" height="27" stroke="#FFC000" stroke-width="1.33333" stroke-miterlimit="8" fill="#FFE699"/><text font-family="DengXian,DengXian_MSFontService,sans-serif" font-weight="400" font-size="21" transform="translate(722.875 448)">记录当前时间</text><text font-family="DengXian,DengXian_MSFontService,sans-serif" font-weight="400" font-size="21" transform="translate(850.875 448)">end</text><path d="M798 268 801 268 801 258 807 258 807 268 810 268 804 274Z" fill="#A5A5A5" fill-rule="evenodd"/><path d="M798 465 801 465 801 455 807 455 807 465 810 465 804 471Z" fill="#A5A5A5" fill-rule="evenodd"/><path d="M798 421 801 421 801 411 807 411 807 421 810 421 804 427Z" fill="#A5A5A5" fill-rule="evenodd"/><path d="M798 358 801 358 801 348 807 348 807 358 810 358 804 364Z" fill="#A5A5A5" fill-rule="evenodd"/><text font-family="DengXian,DengXian_MSFontService,sans-serif" font-weight="400" font-size="14" transform="translate(621.843 464)">取消阻塞</text><text font-family="DengXian,DengXian_MSFontService,sans-serif" font-weight="400" font-size="14" transform="translate(623.591 535)">GPU</text><text font-family="DengXian,DengXian_MSFontService,sans-serif" font-weight="400" font-size="14" transform="translate(650.091 535)">-</text><text font-family="DengXian,DengXian_MSFontService,sans-serif" font-weight="400" font-size="14" transform="translate(657.091 535)">&gt;CPU</text><text font-family="DengXian,DengXian_MSFontService,sans-serif" font-weight="400" font-size="14" transform="translate(616.208 229)">CPU</text><text font-family="DengXian,DengXian_MSFontService,sans-serif" font-weight="400" font-size="14" transform="translate(641.875 229)">-</text><text font-family="DengXian,DengXian_MSFontService,sans-serif" font-weight="400" font-size="14" transform="translate(648.875 229)">&gt;GPU</text><path d="M589.5 361.167 618.209 361.167 618.209 388.307 617.875 387.973 703.584 387.973 703.584 388.64 617.542 388.64 617.542 361.5 617.875 361.833 589.5 361.833ZM702.251 384.307 710.251 388.307 702.251 392.307Z" fill="#4472C4"/><text font-family="DengXian,DengXian_MSFontService,sans-serif" font-weight="400" font-size="14" transform="translate(621.843 378)">启动计算</text><path d="M589.5 170.167 805.286 170.167 805.286 204.811 804.619 204.811 804.619 170.5 804.953 170.833 589.5 170.833ZM808.953 203.477 804.953 211.477 800.953 203.477Z" fill="#4472C4"/><text font-family="DengXian,DengXian_MSFontService,sans-serif" font-weight="400" font-size="14" transform="translate(613.16 161)">开辟显存空间</text><rect x="432.5" y="74.5001" width="172" height="45" stroke="#5B9BD5" stroke-width="1.33333" stroke-miterlimit="8" fill="#DEEBF7"/><text font-family="DengXian,DengXian_MSFontService,sans-serif" font-weight="400" font-size="24" transform="translate(469.542 104)">分配内存</text><rect x="432.5" y="601.5" width="172" height="45" stroke="#5B9BD5" stroke-width="1.33333" stroke-miterlimit="8" fill="#DEEBF7"/><text font-family="DengXian,DengXian_MSFontService,sans-serif" font-weight="400" font-size="24" transform="translate(469.542 631)">释放内存</text><path d="M350.5 54.5001 350.5 660.962" stroke="#000000" stroke-width="1.33333" stroke-miterlimit="8" fill="none" fill-rule="evenodd"/><text font-family="DengXian,DengXian_MSFontService,sans-serif" font-weight="400" font-size="24" transform="translate(125.033 56)">CPU</text><text font-family="DengXian,DengXian_MSFontService,sans-serif" font-weight="400" font-size="24" transform="translate(169.033 56)">计算</text><text font-family="DengXian,DengXian_MSFontService,sans-serif" font-weight="400" font-size="24" transform="translate(217.033 56)">流程</text><text font-family="DengXian,DengXian_MSFontService,sans-serif" font-weight="400" font-size="24" transform="translate(620.093 56)">GPU</text><text font-family="DengXian,DengXian_MSFontService,sans-serif" font-weight="400" font-size="24" transform="translate(665.426 56)">计算</text><text font-family="DengXian,DengXian_MSFontService,sans-serif" font-weight="400" font-size="24" transform="translate(713.426 56)">流程</text><text font-family="DengXian,DengXian_MSFontService,sans-serif" font-weight="400" font-size="24" transform="translate(728.692 150)">Device</text><text font-family="DengXian,DengXian_MSFontService,sans-serif" font-weight="400" font-size="24" transform="translate(797.192 150)">：</text><text font-family="DengXian,DengXian_MSFontService,sans-serif" font-weight="400" font-size="24" transform="translate(821.192 150)">GPU</text><text font-family="DengXian,DengXian_MSFontService,sans-serif" font-weight="400" font-size="24" transform="translate(454.485 55)">Host</text><text font-family="DengXian,DengXian_MSFontService,sans-serif" font-weight="400" font-size="24" transform="translate(502.485 55)">：</text><text font-family="DengXian,DengXian_MSFontService,sans-serif" font-weight="400" font-size="24" transform="translate(526.485 55)">C</text><text font-family="DengXian,DengXian_MSFontService,sans-serif" font-weight="400" font-size="24" transform="translate(541.318 55)">PU</text><rect x="700.5" y="123.5" width="210" height="413" stroke="#000000" stroke-width="1.33333" stroke-miterlimit="8" fill="none"/><path d="M0 0.333333-24 0.333333-23.6667 0-23.6667 188.676-24 188.343 23.0483 188.343 23.0483 208.786 22.3816 208.786 22.3816 188.676 22.715 189.009-24.3334 189.009-24.3334-0.333333 0-0.333333ZM26.715 207.452 22.715 215.452 18.715 207.452Z" fill="#4472C4" transform="matrix(-6.12323e-17 -1 -1 6.12323e-17 804.953 519.215)"/></g></svg>