<svg width="643" height="661" xmlns="http://www.w3.org/2000/svg" xmlns:xlink="http://www.w3.org/1999/xlink" overflow="hidden"><g transform="translate(-24 -29)"><rect x="70.5001" y="375.75" width="66.75" height="66.75" fill="#C5E0B4"/><path d="M137.25 375.75 159.5 353.5 159.5 420.25 137.25 442.5Z" fill="#9EB491" fill-rule="evenodd"/><path d="M70.5001 375.75 92.7501 353.5 159.5 353.5 137.25 375.75Z" fill="#D0E6C3" fill-rule="evenodd"/><path d="M70.5001 375.75 92.7501 353.5 159.5 353.5 159.5 420.25 137.25 442.5 70.5001 442.5ZM70.5001 375.75 137.25 375.75 159.5 353.5M137.25 375.75 137.25 442.5" stroke="#70AD47" stroke-width="1.33333" stroke-miterlimit="8" fill="none" fill-rule="evenodd"/><rect x="135.5" y="375.75" width="66.75" height="66.75" fill="#C5E0B4"/><path d="M202.25 375.75 224.5 353.5 224.5 420.25 202.25 442.5Z" fill="#9EB491" fill-rule="evenodd"/><path d="M135.5 375.75 157.75 353.5 224.5 353.5 202.25 375.75Z" fill="#D0E6C3" fill-rule="evenodd"/><path d="M135.5 375.75 157.75 353.5 224.5 353.5 224.5 420.25 202.25 442.5 135.5 442.5ZM135.5 375.75 202.25 375.75 224.5 353.5M202.25 375.75 202.25 442.5" stroke="#70AD47" stroke-width="1.33333" stroke-miterlimit="8" fill="none" fill-rule="evenodd"/><rect x="201.5" y="375.75" width="66.75" height="66.75" fill="#C5E0B4"/><path d="M268.25 375.75 290.5 353.5 290.5 420.25 268.25 442.5Z" fill="#9EB491" fill-rule="evenodd"/><path d="M201.5 375.75 223.75 353.5 290.5 353.5 268.25 375.75Z" fill="#D0E6C3" fill-rule="evenodd"/><path d="M201.5 375.75 223.75 353.5 290.5 353.5 290.5 420.25 268.25 442.5 201.5 442.5ZM201.5 375.75 268.25 375.75 290.5 353.5M268.25 375.75 268.25 442.5" stroke="#70AD47" stroke-width="1.33333" stroke-miterlimit="8" fill="none" fill-rule="evenodd"/><rect x="70.5001" y="307.75" width="66.75" height="66.75" fill="#C5E0B4"/><path d="M137.25 307.75 159.5 285.5 159.5 352.25 137.25 374.5Z" fill="#9EB491" fill-rule="evenodd"/><path d="M70.5001 307.75 92.7501 285.5 159.5 285.5 137.25 307.75Z" fill="#D0E6C3" fill-rule="evenodd"/><path d="M70.5001 307.75 92.7501 285.5 159.5 285.5 159.5 352.25 137.25 374.5 70.5001 374.5ZM70.5001 307.75 137.25 307.75 159.5 285.5M137.25 307.75 137.25 374.5" stroke="#70AD47" stroke-width="1.33333" stroke-miterlimit="8" fill="none" fill-rule="evenodd"/><rect x="135.5" y="307.75" width="66.75" height="66.75" fill="#C5E0B4"/><path d="M202.25 307.75 224.5 285.5 224.5 352.25 202.25 374.5Z" fill="#9EB491" fill-rule="evenodd"/><path d="M135.5 307.75 157.75 285.5 224.5 285.5 202.25 307.75Z" fill="#D0E6C3" fill-rule="evenodd"/><path d="M135.5 307.75 157.75 285.5 224.5 285.5 224.5 352.25 202.25 374.5 135.5 374.5ZM135.5 307.75 202.25 307.75 224.5 285.5M202.25 307.75 202.25 374.5" stroke="#70AD47" stroke-width="1.33333" stroke-miterlimit="8" fill="none" fill-rule="evenodd"/><rect x="201.5" y="307.75" width="66.75" height="66.75" fill="#C5E0B4"/><path d="M268.25 307.75 290.5 285.5 290.5 352.25 268.25 374.5Z" fill="#9EB491" fill-rule="evenodd"/><path d="M201.5 307.75 223.75 285.5 290.5 285.5 268.25 307.75Z" fill="#D0E6C3" fill-rule="evenodd"/><path d="M201.5 307.75 223.75 285.5 290.5 285.5 290.5 352.25 268.25 374.5 201.5 374.5ZM201.5 307.75 268.25 307.75 290.5 285.5M268.25 307.75 268.25 374.5" stroke="#70AD47" stroke-width="1.33333" stroke-miterlimit="8" fill="none" fill-rule="evenodd"/><rect x="70.5001" y="240.75" width="66.75" height="66.75" fill="#E2F0D9"/><path d="M137.25 240.75 159.5 218.5 159.5 285.25 137.25 307.5Z" fill="#B6C1AE" fill-rule="evenodd"/><path d="M70.5001 240.75 92.7501 218.5 159.5 218.5 137.25 240.75Z" fill="#E8F3E0" fill-rule="evenodd"/><path d="M70.5001 240.75 92.7501 218.5 159.5 218.5 159.5 285.25 137.25 307.5 70.5001 307.5ZM70.5001 240.75 137.25 240.75 159.5 218.5M137.25 240.75 137.25 307.5" stroke="#70AD47" stroke-width="1.33333" stroke-miterlimit="8" fill="none" fill-rule="evenodd"/><rect x="135.5" y="240.75" width="66.75" height="66.75" fill="#C5E0B4"/><path d="M202.25 240.75 224.5 218.5 224.5 285.25 202.25 307.5Z" fill="#9EB491" fill-rule="evenodd"/><path d="M135.5 240.75 157.75 218.5 224.5 218.5 202.25 240.75Z" fill="#D0E6C3" fill-rule="evenodd"/><path d="M135.5 240.75 157.75 218.5 224.5 218.5 224.5 285.25 202.25 307.5 135.5 307.5ZM135.5 240.75 202.25 240.75 224.5 218.5M202.25 240.75 202.25 307.5" stroke="#70AD47" stroke-width="1.33333" stroke-miterlimit="8" fill="none" fill-rule="evenodd"/><rect x="201.5" y="240.75" width="66.75" height="66.75" fill="#385723"/><path d="M268.25 240.75 290.5 218.5 290.5 285.25 268.25 307.5Z" fill="#2D461C" fill-rule="evenodd"/><path d="M201.5 240.75 223.75 218.5 290.5 218.5 268.25 240.75Z" fill="#5F784E" fill-rule="evenodd"/><path d="M201.5 240.75 223.75 218.5 290.5 218.5 290.5 285.25 268.25 307.5 201.5 307.5ZM201.5 240.75 268.25 240.75 290.5 218.5M268.25 240.75 268.25 307.5" stroke="#70AD47" stroke-width="1.33333" stroke-miterlimit="8" fill="none" fill-rule="evenodd"/><rect x="47.5001" y="398.75" width="66.75" height="66.75" fill="#C5E0B4"/><path d="M114.25 398.75 136.5 376.5 136.5 443.25 114.25 465.5Z" fill="#9EB491" fill-rule="evenodd"/><path d="M47.5001 398.75 69.7501 376.5 136.5 376.5 114.25 398.75Z" fill="#D0E6C3" fill-rule="evenodd"/><path d="M47.5001 398.75 69.7501 376.5 136.5 376.5 136.5 443.25 114.25 465.5 47.5001 465.5ZM47.5001 398.75 114.25 398.75 136.5 376.5M114.25 398.75 114.25 465.5" stroke="#70AD47" stroke-width="1.33333" stroke-miterlimit="8" fill="none" fill-rule="evenodd"/><rect x="113.5" y="398.75" width="66.75" height="66.75" fill="#C5E0B4"/><path d="M180.25 398.75 202.5 376.5 202.5 443.25 180.25 465.5Z" fill="#9EB491" fill-rule="evenodd"/><path d="M113.5 398.75 135.75 376.5 202.5 376.5 180.25 398.75Z" fill="#D0E6C3" fill-rule="evenodd"/><path d="M113.5 398.75 135.75 376.5 202.5 376.5 202.5 443.25 180.25 465.5 113.5 465.5ZM113.5 398.75 180.25 398.75 202.5 376.5M180.25 398.75 180.25 465.5" stroke="#70AD47" stroke-width="1.33333" stroke-miterlimit="8" fill="none" fill-rule="evenodd"/><rect x="178.5" y="398.75" width="67.75" height="66.75" fill="#C5E0B4"/><path d="M246.25 398.75 268.5 376.5 268.5 443.25 246.25 465.5Z" fill="#9EB491" fill-rule="evenodd"/><path d="M178.5 398.75 200.75 376.5 268.5 376.5 246.25 398.75Z" fill="#D0E6C3" fill-rule="evenodd"/><path d="M178.5 398.75 200.75 376.5 268.5 376.5 268.5 443.25 246.25 465.5 178.5 465.5ZM178.5 398.75 246.25 398.75 268.5 376.5M246.25 398.75 246.25 465.5" stroke="#70AD47" stroke-width="1.33333" stroke-miterlimit="8" fill="none" fill-rule="evenodd"/><rect x="47.5001" y="330.75" width="66.75" height="66.75" fill="#C5E0B4"/><path d="M114.25 330.75 136.5 308.5 136.5 375.25 114.25 397.5Z" fill="#9EB491" fill-rule="evenodd"/><path d="M47.5001 330.75 69.7501 308.5 136.5 308.5 114.25 330.75Z" fill="#D0E6C3" fill-rule="evenodd"/><path d="M47.5001 330.75 69.7501 308.5 136.5 308.5 136.5 375.25 114.25 397.5 47.5001 397.5ZM47.5001 330.75 114.25 330.75 136.5 308.5M114.25 330.75 114.25 397.5" stroke="#70AD47" stroke-width="1.33333" stroke-miterlimit="8" fill="none" fill-rule="evenodd"/><rect x="113.5" y="330.75" width="66.75" height="66.75" fill="#C5E0B4"/><path d="M180.25 330.75 202.5 308.5 202.5 375.25 180.25 397.5Z" fill="#9EB491" fill-rule="evenodd"/><path d="M113.5 330.75 135.75 308.5 202.5 308.5 180.25 330.75Z" fill="#D0E6C3" fill-rule="evenodd"/><path d="M113.5 330.75 135.75 308.5 202.5 308.5 202.5 375.25 180.25 397.5 113.5 397.5ZM113.5 330.75 180.25 330.75 202.5 308.5M180.25 330.75 180.25 397.5" stroke="#70AD47" stroke-width="1.33333" stroke-miterlimit="8" fill="none" fill-rule="evenodd"/><rect x="178.5" y="330.75" width="67.75" height="66.75" fill="#C5E0B4"/><path d="M246.25 330.75 268.5 308.5 268.5 375.25 246.25 397.5Z" fill="#9EB491" fill-rule="evenodd"/><path d="M178.5 330.75 200.75 308.5 268.5 308.5 246.25 330.75Z" fill="#D0E6C3" fill-rule="evenodd"/><path d="M178.5 330.75 200.75 308.5 268.5 308.5 268.5 375.25 246.25 397.5 178.5 397.5ZM178.5 330.75 246.25 330.75 268.5 308.5M246.25 330.75 246.25 397.5" stroke="#70AD47" stroke-width="1.33333" stroke-miterlimit="8" fill="none" fill-rule="evenodd"/><rect x="47.5001" y="263.75" width="66.75" height="66.75" fill="#C5E0B4"/><path d="M114.25 263.75 136.5 241.5 136.5 308.25 114.25 330.5Z" fill="#9EB491" fill-rule="evenodd"/><path d="M47.5001 263.75 69.7501 241.5 136.5 241.5 114.25 263.75Z" fill="#D0E6C3" fill-rule="evenodd"/><path d="M47.5001 263.75 69.7501 241.5 136.5 241.5 136.5 308.25 114.25 330.5 47.5001 330.5ZM47.5001 263.75 114.25 263.75 136.5 241.5M114.25 263.75 114.25 330.5" stroke="#70AD47" stroke-width="1.33333" stroke-miterlimit="8" fill="none" fill-rule="evenodd"/><rect x="113.5" y="263.75" width="66.75" height="66.75" fill="#C5E0B4"/><path d="M180.25 263.75 202.5 241.5 202.5 308.25 180.25 330.5Z" fill="#9EB491" fill-rule="evenodd"/><path d="M113.5 263.75 135.75 241.5 202.5 241.5 180.25 263.75Z" fill="#D0E6C3" fill-rule="evenodd"/><path d="M113.5 263.75 135.75 241.5 202.5 241.5 202.5 308.25 180.25 330.5 113.5 330.5ZM113.5 263.75 180.25 263.75 202.5 241.5M180.25 263.75 180.25 330.5" stroke="#70AD47" stroke-width="1.33333" stroke-miterlimit="8" fill="none" fill-rule="evenodd"/><rect x="178.5" y="263.75" width="67.75" height="66.75" fill="#548235"/><path d="M246.25 263.75 268.5 241.5 268.5 308.25 246.25 330.5Z" fill="#44692B" fill-rule="evenodd"/><path d="M178.5 263.75 200.75 241.5 268.5 241.5 246.25 263.75Z" fill="#769B5D" fill-rule="evenodd"/><path d="M178.5 263.75 200.75 241.5 268.5 241.5 268.5 308.25 246.25 330.5 178.5 330.5ZM178.5 263.75 246.25 263.75 268.5 241.5M246.25 263.75 246.25 330.5" stroke="#70AD47" stroke-width="1.33333" stroke-miterlimit="8" fill="none" fill-rule="evenodd"/><rect x="25.5001" y="419.75" width="66.75" height="66.75" fill="#C5E0B4"/><path d="M92.25 419.75 114.5 397.5 114.5 464.25 92.25 486.5Z" fill="#9EB491" fill-rule="evenodd"/><path d="M25.5001 419.75 47.7501 397.5 114.5 397.5 92.25 419.75Z" fill="#D0E6C3" fill-rule="evenodd"/><path d="M25.5001 419.75 47.7501 397.5 114.5 397.5 114.5 464.25 92.25 486.5 25.5001 486.5ZM25.5001 419.75 92.25 419.75 114.5 397.5M92.25 419.75 92.25 486.5" stroke="#70AD47" stroke-width="1.33333" stroke-miterlimit="8" fill="none" fill-rule="evenodd"/><rect x="91.5001" y="419.75" width="66.75" height="66.75" fill="#C5E0B4"/><path d="M158.25 419.75 180.5 397.5 180.5 464.25 158.25 486.5Z" fill="#9EB491" fill-rule="evenodd"/><path d="M91.5001 419.75 113.75 397.5 180.5 397.5 158.25 419.75Z" fill="#D0E6C3" fill-rule="evenodd"/><path d="M91.5001 419.75 113.75 397.5 180.5 397.5 180.5 464.25 158.25 486.5 91.5001 486.5ZM91.5001 419.75 158.25 419.75 180.5 397.5M158.25 419.75 158.25 486.5" stroke="#70AD47" stroke-width="1.33333" stroke-miterlimit="8" fill="none" fill-rule="evenodd"/><rect x="156.5" y="419.75" width="66.75" height="66.75" fill="#C5E0B4"/><path d="M223.25 419.75 245.5 397.5 245.5 464.25 223.25 486.5Z" fill="#9EB491" fill-rule="evenodd"/><path d="M156.5 419.75 178.75 397.5 245.5 397.5 223.25 419.75Z" fill="#D0E6C3" fill-rule="evenodd"/><path d="M156.5 419.75 178.75 397.5 245.5 397.5 245.5 464.25 223.25 486.5 156.5 486.5ZM156.5 419.75 223.25 419.75 245.5 397.5M223.25 419.75 223.25 486.5" stroke="#70AD47" stroke-width="1.33333" stroke-miterlimit="8" fill="none" fill-rule="evenodd"/><rect x="25.5001" y="352.75" width="66.75" height="66.75" fill="#C5E0B4"/><path d="M92.25 352.75 114.5 330.5 114.5 397.25 92.25 419.5Z" fill="#9EB491" fill-rule="evenodd"/><path d="M25.5001 352.75 47.7501 330.5 114.5 330.5 92.25 352.75Z" fill="#D0E6C3" fill-rule="evenodd"/><path d="M25.5001 352.75 47.7501 330.5 114.5 330.5 114.5 397.25 92.25 419.5 25.5001 419.5ZM25.5001 352.75 92.25 352.75 114.5 330.5M92.25 352.75 92.25 419.5" stroke="#70AD47" stroke-width="1.33333" stroke-miterlimit="8" fill="none" fill-rule="evenodd"/><rect x="91.5001" y="352.75" width="66.75" height="66.75" fill="#C5E0B4"/><path d="M158.25 352.75 180.5 330.5 180.5 397.25 158.25 419.5Z" fill="#9EB491" fill-rule="evenodd"/><path d="M91.5001 352.75 113.75 330.5 180.5 330.5 158.25 352.75Z" fill="#D0E6C3" fill-rule="evenodd"/><path d="M91.5001 352.75 113.75 330.5 180.5 330.5 180.5 397.25 158.25 419.5 91.5001 419.5ZM91.5001 352.75 158.25 352.75 180.5 330.5M158.25 352.75 158.25 419.5" stroke="#70AD47" stroke-width="1.33333" stroke-miterlimit="8" fill="none" fill-rule="evenodd"/><rect x="156.5" y="352.75" width="66.75" height="66.75" fill="#C5E0B4"/><path d="M223.25 352.75 245.5 330.5 245.5 397.25 223.25 419.5Z" fill="#9EB491" fill-rule="evenodd"/><path d="M156.5 352.75 178.75 330.5 245.5 330.5 223.25 352.75Z" fill="#D0E6C3" fill-rule="evenodd"/><path d="M156.5 352.75 178.75 330.5 245.5 330.5 245.5 397.25 223.25 419.5 156.5 419.5ZM156.5 352.75 223.25 352.75 245.5 330.5M223.25 352.75 223.25 419.5" stroke="#70AD47" stroke-width="1.33333" stroke-miterlimit="8" fill="none" fill-rule="evenodd"/><rect x="25.5001" y="284.75" width="66.75" height="67.75" fill="#C5E0B4"/><path d="M92.2501 284.75 114.5 262.5 114.5 330.25 92.2501 352.5Z" fill="#9EB491" fill-rule="evenodd"/><path d="M25.5001 284.75 47.7501 262.5 114.5 262.5 92.2501 284.75Z" fill="#D0E6C3" fill-rule="evenodd"/><path d="M25.5001 284.75 47.7501 262.5 114.5 262.5 114.5 330.25 92.2501 352.5 25.5001 352.5ZM25.5001 284.75 92.2501 284.75 114.5 262.5M92.2501 284.75 92.2501 352.5" stroke="#70AD47" stroke-width="1.33333" stroke-miterlimit="8" fill="none" fill-rule="evenodd"/><rect x="91.5001" y="284.75" width="66.75" height="67.75" fill="#C5E0B4"/><path d="M158.25 284.75 180.5 262.5 180.5 330.25 158.25 352.5Z" fill="#9EB491" fill-rule="evenodd"/><path d="M91.5001 284.75 113.75 262.5 180.5 262.5 158.25 284.75Z" fill="#D0E6C3" fill-rule="evenodd"/><path d="M91.5001 284.75 113.75 262.5 180.5 262.5 180.5 330.25 158.25 352.5 91.5001 352.5ZM91.5001 284.75 158.25 284.75 180.5 262.5M158.25 284.75 158.25 352.5" stroke="#70AD47" stroke-width="1.33333" stroke-miterlimit="8" fill="none" fill-rule="evenodd"/><rect x="156.5" y="284.75" width="66.75" height="67.75" fill="#00B050"/><path d="M223.25 284.75 245.5 262.5 245.5 330.25 223.25 352.5Z" fill="#008D40" fill-rule="evenodd"/><path d="M156.5 284.75 178.75 262.5 245.5 262.5 223.25 284.75Z" fill="#32BF72" fill-rule="evenodd"/><path d="M156.5 284.75 178.75 262.5 245.5 262.5 245.5 330.25 223.25 352.5 156.5 352.5ZM156.5 284.75 223.25 284.75 245.5 262.5M223.25 284.75 223.25 352.5" stroke="#70AD47" stroke-width="1.33333" stroke-miterlimit="8" fill="none" fill-rule="evenodd"/><rect x="390.5" y="121" width="38.5" height="37.5" fill="#FFE699"/><path d="M429 121 441.5 108.5 441.5 146 429 158.5Z" fill="#CDB97B" fill-rule="evenodd"/><path d="M390.5 121 403 108.5 441.5 108.5 429 121Z" fill="#FFEBAD" fill-rule="evenodd"/><path d="M390.5 121 403 108.5 441.5 108.5 441.5 146 429 158.5 390.5 158.5ZM390.5 121 429 121 441.5 108.5M429 121 429 158.5" stroke="#FFC000" stroke-width="1.33333" stroke-miterlimit="8" fill="none" fill-rule="evenodd"/><rect x="427.5" y="121" width="38.5" height="37.5" fill="#FFE699"/><path d="M466 121 478.5 108.5 478.5 146 466 158.5Z" fill="#CDB97B" fill-rule="evenodd"/><path d="M427.5 121 440 108.5 478.5 108.5 466 121Z" fill="#FFEBAD" fill-rule="evenodd"/><path d="M427.5 121 440 108.5 478.5 108.5 478.5 146 466 158.5 427.5 158.5ZM427.5 121 466 121 478.5 108.5M466 121 466 158.5" stroke="#FFC000" stroke-width="1.33333" stroke-miterlimit="8" fill="none" fill-rule="evenodd"/><rect x="465.5" y="121" width="38.5" height="37.5" fill="#FFE699"/><path d="M504 121 516.5 108.5 516.5 146 504 158.5Z" fill="#CDB97B" fill-rule="evenodd"/><path d="M465.5 121 478 108.5 516.5 108.5 504 121Z" fill="#FFEBAD" fill-rule="evenodd"/><path d="M465.5 121 478 108.5 516.5 108.5 516.5 146 504 158.5 465.5 158.5ZM465.5 121 504 121 516.5 108.5M504 121 504 158.5" stroke="#FFC000" stroke-width="1.33333" stroke-miterlimit="8" fill="none" fill-rule="evenodd"/><rect x="390.5" y="82.2501" width="38.25" height="38.25" fill="#FFE699"/><path d="M428.75 82.2501 441.5 69.5001 441.5 107.75 428.75 120.5Z" fill="#CDB97B" fill-rule="evenodd"/><path d="M390.5 82.2501 403.25 69.5001 441.5 69.5001 428.75 82.2501Z" fill="#FFEBAD" fill-rule="evenodd"/><path d="M390.5 82.2501 403.25 69.5001 441.5 69.5001 441.5 107.75 428.75 120.5 390.5 120.5ZM390.5 82.2501 428.75 82.2501 441.5 69.5001M428.75 82.2501 428.75 120.5" stroke="#FFC000" stroke-width="1.33333" stroke-miterlimit="8" fill="none" fill-rule="evenodd"/><rect x="427.5" y="82.2501" width="38.25" height="38.25" fill="#FFE699"/><path d="M465.75 82.2501 478.5 69.5001 478.5 107.75 465.75 120.5Z" fill="#CDB97B" fill-rule="evenodd"/><path d="M427.5 82.2501 440.25 69.5001 478.5 69.5001 465.75 82.2501Z" fill="#FFEBAD" fill-rule="evenodd"/><path d="M427.5 82.2501 440.25 69.5001 478.5 69.5001 478.5 107.75 465.75 120.5 427.5 120.5ZM427.5 82.2501 465.75 82.2501 478.5 69.5001M465.75 82.2501 465.75 120.5" stroke="#FFC000" stroke-width="1.33333" stroke-miterlimit="8" fill="none" fill-rule="evenodd"/><rect x="465.5" y="82.2501" width="38.25" height="38.25" fill="#FFE699"/><path d="M503.75 82.2501 516.5 69.5001 516.5 107.75 503.75 120.5Z" fill="#CDB97B" fill-rule="evenodd"/><path d="M465.5 82.2501 478.25 69.5001 516.5 69.5001 503.75 82.2501Z" fill="#FFEBAD" fill-rule="evenodd"/><path d="M465.5 82.2501 478.25 69.5001 516.5 69.5001 516.5 107.75 503.75 120.5 465.5 120.5ZM465.5 82.2501 503.75 82.2501 516.5 69.5001M503.75 82.2501 503.75 120.5" stroke="#FFC000" stroke-width="1.33333" stroke-miterlimit="8" fill="none" fill-rule="evenodd"/><rect x="390.5" y="43.2501" width="38.25" height="38.25" fill="#FFE699"/><path d="M428.75 43.2501 441.5 30.5001 441.5 68.75 428.75 81.5Z" fill="#CDB97B" fill-rule="evenodd"/><path d="M390.5 43.2501 403.25 30.5001 441.5 30.5001 428.75 43.2501Z" fill="#FFEBAD" fill-rule="evenodd"/><path d="M390.5 43.2501 403.25 30.5001 441.5 30.5001 441.5 68.75 428.75 81.5 390.5 81.5ZM390.5 43.2501 428.75 43.2501 441.5 30.5001M428.75 43.2501 428.75 81.5" stroke="#FFC000" stroke-width="1.33333" stroke-miterlimit="8" fill="none" fill-rule="evenodd"/><rect x="427.5" y="43.2501" width="38.25" height="38.25" fill="#FFE699"/><path d="M465.75 43.2501 478.5 30.5001 478.5 68.75 465.75 81.5Z" fill="#CDB97B" fill-rule="evenodd"/><path d="M427.5 43.2501 440.25 30.5001 478.5 30.5001 465.75 43.2501Z" fill="#FFEBAD" fill-rule="evenodd"/><path d="M427.5 43.2501 440.25 30.5001 478.5 30.5001 478.5 68.75 465.75 81.5 427.5 81.5ZM427.5 43.2501 465.75 43.2501 478.5 30.5001M465.75 43.2501 465.75 81.5" stroke="#FFC000" stroke-width="1.33333" stroke-miterlimit="8" fill="none" fill-rule="evenodd"/><rect x="465.5" y="43.2501" width="38.25" height="38.25" fill="#FFE699"/><path d="M503.75 43.2501 516.5 30.5001 516.5 68.75 503.75 81.5Z" fill="#CDB97B" fill-rule="evenodd"/><path d="M465.5 43.2501 478.25 30.5001 516.5 30.5001 503.75 43.2501Z" fill="#FFEBAD" fill-rule="evenodd"/><path d="M465.5 43.2501 478.25 30.5001 516.5 30.5001 516.5 68.75 503.75 81.5 465.5 81.5ZM465.5 43.2501 503.75 43.2501 516.5 30.5001M503.75 43.2501 503.75 81.5" stroke="#FFC000" stroke-width="1.33333" stroke-miterlimit="8" fill="none" fill-rule="evenodd"/><rect x="377.5" y="134" width="38.5" height="37.5" fill="#FFE699"/><path d="M416 134 428.5 121.5 428.5 159 416 171.5Z" fill="#CDB97B" fill-rule="evenodd"/><path d="M377.5 134 390 121.5 428.5 121.5 416 134Z" fill="#FFEBAD" fill-rule="evenodd"/><path d="M377.5 134 390 121.5 428.5 121.5 428.5 159 416 171.5 377.5 171.5ZM377.5 134 416 134 428.5 121.5M416 134 416 171.5" stroke="#FFC000" stroke-width="1.33333" stroke-miterlimit="8" fill="none" fill-rule="evenodd"/><rect x="415.5" y="134" width="37.5" height="37.5" fill="#FFE699"/><path d="M453 134 465.5 121.5 465.5 159 453 171.5Z" fill="#CDB97B" fill-rule="evenodd"/><path d="M415.5 134 428 121.5 465.5 121.5 453 134Z" fill="#FFEBAD" fill-rule="evenodd"/><path d="M415.5 134 428 121.5 465.5 121.5 465.5 159 453 171.5 415.5 171.5ZM415.5 134 453 134 465.5 121.5M453 134 453 171.5" stroke="#FFC000" stroke-width="1.33333" stroke-miterlimit="8" fill="none" fill-rule="evenodd"/><rect x="452.5" y="134" width="38.5" height="37.5" fill="#FFE699"/><path d="M491 134 503.5 121.5 503.5 159 491 171.5Z" fill="#CDB97B" fill-rule="evenodd"/><path d="M452.5 134 465 121.5 503.5 121.5 491 134Z" fill="#FFEBAD" fill-rule="evenodd"/><path d="M452.5 134 465 121.5 503.5 121.5 503.5 159 491 171.5 452.5 171.5ZM452.5 134 491 134 503.5 121.5M491 134 491 171.5" stroke="#FFC000" stroke-width="1.33333" stroke-miterlimit="8" fill="none" fill-rule="evenodd"/><rect x="377.5" y="95.2501" width="38.25" height="38.25" fill="#FFE699"/><path d="M415.75 95.2501 428.5 82.5001 428.5 120.75 415.75 133.5Z" fill="#CDB97B" fill-rule="evenodd"/><path d="M377.5 95.2501 390.25 82.5001 428.5 82.5001 415.75 95.2501Z" fill="#FFEBAD" fill-rule="evenodd"/><path d="M377.5 95.2501 390.25 82.5001 428.5 82.5001 428.5 120.75 415.75 133.5 377.5 133.5ZM377.5 95.2501 415.75 95.2501 428.5 82.5001M415.75 95.2501 415.75 133.5" stroke="#FFC000" stroke-width="1.33333" stroke-miterlimit="8" fill="none" fill-rule="evenodd"/><rect x="415.5" y="95.0001" width="37.5" height="38.5" fill="#FFE699"/><path d="M453 95.0001 465.5 82.5001 465.5 121 453 133.5Z" fill="#CDB97B" fill-rule="evenodd"/><path d="M415.5 95.0001 428 82.5001 465.5 82.5001 453 95.0001Z" fill="#FFEBAD" fill-rule="evenodd"/><path d="M415.5 95.0001 428 82.5001 465.5 82.5001 465.5 121 453 133.5 415.5 133.5ZM415.5 95.0001 453 95.0001 465.5 82.5001M453 95.0001 453 133.5" stroke="#FFC000" stroke-width="1.33333" stroke-miterlimit="8" fill="none" fill-rule="evenodd"/><rect x="452.5" y="95.2501" width="38.25" height="38.25" fill="#FFE699"/><path d="M490.75 95.2501 503.5 82.5001 503.5 120.75 490.75 133.5Z" fill="#CDB97B" fill-rule="evenodd"/><path d="M452.5 95.2501 465.25 82.5001 503.5 82.5001 490.75 95.2501Z" fill="#FFEBAD" fill-rule="evenodd"/><path d="M452.5 95.2501 465.25 82.5001 503.5 82.5001 503.5 120.75 490.75 133.5 452.5 133.5ZM452.5 95.2501 490.75 95.2501 503.5 82.5001M490.75 95.2501 490.75 133.5" stroke="#FFC000" stroke-width="1.33333" stroke-miterlimit="8" fill="none" fill-rule="evenodd"/><rect x="377.5" y="57.0001" width="38.5" height="37.5" fill="#FFE699"/><path d="M416 57.0001 428.5 44.5001 428.5 82.0001 416 94.5001Z" fill="#CDB97B" fill-rule="evenodd"/><path d="M377.5 57.0001 390 44.5001 428.5 44.5001 416 57.0001Z" fill="#FFEBAD" fill-rule="evenodd"/><path d="M377.5 57.0001 390 44.5001 428.5 44.5001 428.5 82.0001 416 94.5001 377.5 94.5001ZM377.5 57.0001 416 57.0001 428.5 44.5001M416 57.0001 416 94.5001" stroke="#FFC000" stroke-width="1.33333" stroke-miterlimit="8" fill="none" fill-rule="evenodd"/><rect x="415.5" y="57.0001" width="37.5" height="37.5" fill="#FFE699"/><path d="M453 57.0001 465.5 44.5001 465.5 82.0001 453 94.5Z" fill="#CDB97B" fill-rule="evenodd"/><path d="M415.5 57.0001 428 44.5001 465.5 44.5001 453 57.0001Z" fill="#FFEBAD" fill-rule="evenodd"/><path d="M415.5 57.0001 428 44.5001 465.5 44.5001 465.5 82.0001 453 94.5 415.5 94.5ZM415.5 57.0001 453 57.0001 465.5 44.5001M453 57.0001 453 94.5" stroke="#FFC000" stroke-width="1.33333" stroke-miterlimit="8" fill="none" fill-rule="evenodd"/><rect x="452.5" y="57.0001" width="38.5" height="37.5" fill="#FFE699"/><path d="M491 57.0001 503.5 44.5001 503.5 82.0001 491 94.5001Z" fill="#CDB97B" fill-rule="evenodd"/><path d="M452.5 57.0001 465 44.5001 503.5 44.5001 491 57.0001Z" fill="#FFEBAD" fill-rule="evenodd"/><path d="M452.5 57.0001 465 44.5001 503.5 44.5001 503.5 82.0001 491 94.5001 452.5 94.5001ZM452.5 57.0001 491 57.0001 503.5 44.5001M491 57.0001 491 94.5001" stroke="#FFC000" stroke-width="1.33333" stroke-miterlimit="8" fill="none" fill-rule="evenodd"/><rect x="364.5" y="146.25" width="38.25" height="38.25" fill="#FFE699"/><path d="M402.75 146.25 415.5 133.5 415.5 171.75 402.75 184.5Z" fill="#CDB97B" fill-rule="evenodd"/><path d="M364.5 146.25 377.25 133.5 415.5 133.5 402.75 146.25Z" fill="#FFEBAD" fill-rule="evenodd"/><path d="M364.5 146.25 377.25 133.5 415.5 133.5 415.5 171.75 402.75 184.5 364.5 184.5ZM364.5 146.25 402.75 146.25 415.5 133.5M402.75 146.25 402.75 184.5" stroke="#FFC000" stroke-width="1.33333" stroke-miterlimit="8" fill="none" fill-rule="evenodd"/><rect x="402.5" y="146.25" width="38.25" height="38.25" fill="#FFE699"/><path d="M440.75 146.25 453.5 133.5 453.5 171.75 440.75 184.5Z" fill="#CDB97B" fill-rule="evenodd"/><path d="M402.5 146.25 415.25 133.5 453.5 133.5 440.75 146.25Z" fill="#FFEBAD" fill-rule="evenodd"/><path d="M402.5 146.25 415.25 133.5 453.5 133.5 453.5 171.75 440.75 184.5 402.5 184.5ZM402.5 146.25 440.75 146.25 453.5 133.5M440.75 146.25 440.75 184.5" stroke="#FFC000" stroke-width="1.33333" stroke-miterlimit="8" fill="none" fill-rule="evenodd"/><rect x="439.5" y="146.25" width="38.25" height="38.25" fill="#FFE699"/><path d="M477.75 146.25 490.5 133.5 490.5 171.75 477.75 184.5Z" fill="#CDB97B" fill-rule="evenodd"/><path d="M439.5 146.25 452.25 133.5 490.5 133.5 477.75 146.25Z" fill="#FFEBAD" fill-rule="evenodd"/><path d="M439.5 146.25 452.25 133.5 490.5 133.5 490.5 171.75 477.75 184.5 439.5 184.5ZM439.5 146.25 477.75 146.25 490.5 133.5M477.75 146.25 477.75 184.5" stroke="#FFC000" stroke-width="1.33333" stroke-miterlimit="8" fill="none" fill-rule="evenodd"/><rect x="364.5" y="107.25" width="38.25" height="38.25" fill="#FFE699"/><path d="M402.75 107.25 415.5 94.5001 415.5 132.75 402.75 145.5Z" fill="#CDB97B" fill-rule="evenodd"/><path d="M364.5 107.25 377.25 94.5001 415.5 94.5001 402.75 107.25Z" fill="#FFEBAD" fill-rule="evenodd"/><path d="M364.5 107.25 377.25 94.5001 415.5 94.5001 415.5 132.75 402.75 145.5 364.5 145.5ZM364.5 107.25 402.75 107.25 415.5 94.5001M402.75 107.25 402.75 145.5" stroke="#FFC000" stroke-width="1.33333" stroke-miterlimit="8" fill="none" fill-rule="evenodd"/><rect x="402.5" y="107.25" width="38.25" height="38.25" fill="#FFE699"/><path d="M440.75 107.25 453.5 94.5001 453.5 132.75 440.75 145.5Z" fill="#CDB97B" fill-rule="evenodd"/><path d="M402.5 107.25 415.25 94.5001 453.5 94.5001 440.75 107.25Z" fill="#FFEBAD" fill-rule="evenodd"/><path d="M402.5 107.25 415.25 94.5001 453.5 94.5001 453.5 132.75 440.75 145.5 402.5 145.5ZM402.5 107.25 440.75 107.25 453.5 94.5001M440.75 107.25 440.75 145.5" stroke="#FFC000" stroke-width="1.33333" stroke-miterlimit="8" fill="none" fill-rule="evenodd"/><rect x="439.5" y="107.25" width="38.25" height="38.25" fill="#FFE699"/><path d="M477.75 107.25 490.5 94.5001 490.5 132.75 477.75 145.5Z" fill="#CDB97B" fill-rule="evenodd"/><path d="M439.5 107.25 452.25 94.5001 490.5 94.5001 477.75 107.25Z" fill="#FFEBAD" fill-rule="evenodd"/><path d="M439.5 107.25 452.25 94.5001 490.5 94.5001 490.5 132.75 477.75 145.5 439.5 145.5ZM439.5 107.25 477.75 107.25 490.5 94.5001M477.75 107.25 477.75 145.5" stroke="#FFC000" stroke-width="1.33333" stroke-miterlimit="8" fill="none" fill-rule="evenodd"/><rect x="364.5" y="69.2501" width="38.25" height="38.25" fill="#FFE699"/><path d="M402.75 69.2501 415.5 56.5001 415.5 94.75 402.75 107.5Z" fill="#CDB97B" fill-rule="evenodd"/><path d="M364.5 69.2501 377.25 56.5001 415.5 56.5001 402.75 69.2501Z" fill="#FFEBAD" fill-rule="evenodd"/><path d="M364.5 69.2501 377.25 56.5001 415.5 56.5001 415.5 94.75 402.75 107.5 364.5 107.5ZM364.5 69.2501 402.75 69.2501 415.5 56.5001M402.75 69.2501 402.75 107.5" stroke="#FFC000" stroke-width="1.33333" stroke-miterlimit="8" fill="none" fill-rule="evenodd"/><rect x="402.5" y="69.2501" width="38.25" height="38.25" fill="#FFE699"/><path d="M440.75 69.2501 453.5 56.5001 453.5 94.75 440.75 107.5Z" fill="#CDB97B" fill-rule="evenodd"/><path d="M402.5 69.2501 415.25 56.5001 453.5 56.5001 440.75 69.2501Z" fill="#FFEBAD" fill-rule="evenodd"/><path d="M402.5 69.2501 415.25 56.5001 453.5 56.5001 453.5 94.75 440.75 107.5 402.5 107.5ZM402.5 69.2501 440.75 69.2501 453.5 56.5001M440.75 69.2501 440.75 107.5" stroke="#FFC000" stroke-width="1.33333" stroke-miterlimit="8" fill="none" fill-rule="evenodd"/><rect x="439.5" y="69.2501" width="38.25" height="38.25" fill="#FFE699"/><path d="M477.75 69.2501 490.5 56.5001 490.5 94.75 477.75 107.5Z" fill="#CDB97B" fill-rule="evenodd"/><path d="M439.5 69.2501 452.25 56.5001 490.5 56.5001 477.75 69.2501Z" fill="#FFEBAD" fill-rule="evenodd"/><path d="M439.5 69.2501 452.25 56.5001 490.5 56.5001 490.5 94.75 477.75 107.5 439.5 107.5ZM439.5 69.2501 477.75 69.2501 490.5 56.5001M477.75 69.2501 477.75 107.5" stroke="#FFC000" stroke-width="1.33333" stroke-miterlimit="8" fill="none" fill-rule="evenodd"/><rect x="390.5" y="337.25" width="38.25" height="38.25" fill="#FFE699"/><path d="M428.75 337.25 441.5 324.5 441.5 362.75 428.75 375.5Z" fill="#CDB97B" fill-rule="evenodd"/><path d="M390.5 337.25 403.25 324.5 441.5 324.5 428.75 337.25Z" fill="#FFEBAD" fill-rule="evenodd"/><path d="M390.5 337.25 403.25 324.5 441.5 324.5 441.5 362.75 428.75 375.5 390.5 375.5ZM390.5 337.25 428.75 337.25 441.5 324.5M428.75 337.25 428.75 375.5" stroke="#FFC000" stroke-width="1.33333" stroke-miterlimit="8" fill="none" fill-rule="evenodd"/><rect x="427.5" y="337.25" width="38.25" height="38.25" fill="#FFE699"/><path d="M465.75 337.25 478.5 324.5 478.5 362.75 465.75 375.5Z" fill="#CDB97B" fill-rule="evenodd"/><path d="M427.5 337.25 440.25 324.5 478.5 324.5 465.75 337.25Z" fill="#FFEBAD" fill-rule="evenodd"/><path d="M427.5 337.25 440.25 324.5 478.5 324.5 478.5 362.75 465.75 375.5 427.5 375.5ZM427.5 337.25 465.75 337.25 478.5 324.5M465.75 337.25 465.75 375.5" stroke="#FFC000" stroke-width="1.33333" stroke-miterlimit="8" fill="none" fill-rule="evenodd"/><rect x="465.5" y="337.25" width="38.25" height="38.25" fill="#FFE699"/><path d="M503.75 337.25 516.5 324.5 516.5 362.75 503.75 375.5Z" fill="#CDB97B" fill-rule="evenodd"/><path d="M465.5 337.25 478.25 324.5 516.5 324.5 503.75 337.25Z" fill="#FFEBAD" fill-rule="evenodd"/><path d="M465.5 337.25 478.25 324.5 516.5 324.5 516.5 362.75 503.75 375.5 465.5 375.5ZM465.5 337.25 503.75 337.25 516.5 324.5M503.75 337.25 503.75 375.5" stroke="#FFC000" stroke-width="1.33333" stroke-miterlimit="8" fill="none" fill-rule="evenodd"/><rect x="390.5" y="299" width="38.5" height="37.5" fill="#FFE699"/><path d="M429 299 441.5 286.5 441.5 324 429 336.5Z" fill="#CDB97B" fill-rule="evenodd"/><path d="M390.5 299 403 286.5 441.5 286.5 429 299Z" fill="#FFEBAD" fill-rule="evenodd"/><path d="M390.5 299 403 286.5 441.5 286.5 441.5 324 429 336.5 390.5 336.5ZM390.5 299 429 299 441.5 286.5M429 299 429 336.5" stroke="#FFC000" stroke-width="1.33333" stroke-miterlimit="8" fill="none" fill-rule="evenodd"/><rect x="427.5" y="299" width="38.5" height="37.5" fill="#FFE699"/><path d="M466 299 478.5 286.5 478.5 324 466 336.5Z" fill="#CDB97B" fill-rule="evenodd"/><path d="M427.5 299 440 286.5 478.5 286.5 466 299Z" fill="#FFEBAD" fill-rule="evenodd"/><path d="M427.5 299 440 286.5 478.5 286.5 478.5 324 466 336.5 427.5 336.5ZM427.5 299 466 299 478.5 286.5M466 299 466 336.5" stroke="#FFC000" stroke-width="1.33333" stroke-miterlimit="8" fill="none" fill-rule="evenodd"/><rect x="465.5" y="299" width="38.5" height="37.5" fill="#FFE699"/><path d="M504 299 516.5 286.5 516.5 324 504 336.5Z" fill="#CDB97B" fill-rule="evenodd"/><path d="M465.5 299 478 286.5 516.5 286.5 504 299Z" fill="#FFEBAD" fill-rule="evenodd"/><path d="M465.5 299 478 286.5 516.5 286.5 516.5 324 504 336.5 465.5 336.5ZM465.5 299 504 299 516.5 286.5M504 299 504 336.5" stroke="#FFC000" stroke-width="1.33333" stroke-miterlimit="8" fill="none" fill-rule="evenodd"/><rect x="390.5" y="260.25" width="38.25" height="38.25" fill="#FFE699"/><path d="M428.75 260.25 441.5 247.5 441.5 285.75 428.75 298.5Z" fill="#CDB97B" fill-rule="evenodd"/><path d="M390.5 260.25 403.25 247.5 441.5 247.5 428.75 260.25Z" fill="#FFEBAD" fill-rule="evenodd"/><path d="M390.5 260.25 403.25 247.5 441.5 247.5 441.5 285.75 428.75 298.5 390.5 298.5ZM390.5 260.25 428.75 260.25 441.5 247.5M428.75 260.25 428.75 298.5" stroke="#FFC000" stroke-width="1.33333" stroke-miterlimit="8" fill="none" fill-rule="evenodd"/><rect x="427.5" y="260.25" width="38.25" height="38.25" fill="#FFE699"/><path d="M465.75 260.25 478.5 247.5 478.5 285.75 465.75 298.5Z" fill="#CDB97B" fill-rule="evenodd"/><path d="M427.5 260.25 440.25 247.5 478.5 247.5 465.75 260.25Z" fill="#FFEBAD" fill-rule="evenodd"/><path d="M427.5 260.25 440.25 247.5 478.5 247.5 478.5 285.75 465.75 298.5 427.5 298.5ZM427.5 260.25 465.75 260.25 478.5 247.5M465.75 260.25 465.75 298.5" stroke="#FFC000" stroke-width="1.33333" stroke-miterlimit="8" fill="none" fill-rule="evenodd"/><rect x="465.5" y="260.25" width="38.25" height="38.25" fill="#FFE699"/><path d="M503.75 260.25 516.5 247.5 516.5 285.75 503.75 298.5Z" fill="#CDB97B" fill-rule="evenodd"/><path d="M465.5 260.25 478.25 247.5 516.5 247.5 503.75 260.25Z" fill="#FFEBAD" fill-rule="evenodd"/><path d="M465.5 260.25 478.25 247.5 516.5 247.5 516.5 285.75 503.75 298.5 465.5 298.5ZM465.5 260.25 503.75 260.25 516.5 247.5M503.75 260.25 503.75 298.5" stroke="#FFC000" stroke-width="1.33333" stroke-miterlimit="8" fill="none" fill-rule="evenodd"/><rect x="377.5" y="350.25" width="38.25" height="38.25" fill="#FFE699"/><path d="M415.75 350.25 428.5 337.5 428.5 375.75 415.75 388.5Z" fill="#CDB97B" fill-rule="evenodd"/><path d="M377.5 350.25 390.25 337.5 428.5 337.5 415.75 350.25Z" fill="#FFEBAD" fill-rule="evenodd"/><path d="M377.5 350.25 390.25 337.5 428.5 337.5 428.5 375.75 415.75 388.5 377.5 388.5ZM377.5 350.25 415.75 350.25 428.5 337.5M415.75 350.25 415.75 388.5" stroke="#FFC000" stroke-width="1.33333" stroke-miterlimit="8" fill="none" fill-rule="evenodd"/><rect x="415.5" y="350" width="37.5" height="38.5" fill="#FFE699"/><path d="M453 350 465.5 337.5 465.5 376 453 388.5Z" fill="#CDB97B" fill-rule="evenodd"/><path d="M415.5 350 428 337.5 465.5 337.5 453 350Z" fill="#FFEBAD" fill-rule="evenodd"/><path d="M415.5 350 428 337.5 465.5 337.5 465.5 376 453 388.5 415.5 388.5ZM415.5 350 453 350 465.5 337.5M453 350 453 388.5" stroke="#FFC000" stroke-width="1.33333" stroke-miterlimit="8" fill="none" fill-rule="evenodd"/><rect x="452.5" y="350.25" width="38.25" height="38.25" fill="#FFE699"/><path d="M490.75 350.25 503.5 337.5 503.5 375.75 490.75 388.5Z" fill="#CDB97B" fill-rule="evenodd"/><path d="M452.5 350.25 465.25 337.5 503.5 337.5 490.75 350.25Z" fill="#FFEBAD" fill-rule="evenodd"/><path d="M452.5 350.25 465.25 337.5 503.5 337.5 503.5 375.75 490.75 388.5 452.5 388.5ZM452.5 350.25 490.75 350.25 503.5 337.5M490.75 350.25 490.75 388.5" stroke="#FFC000" stroke-width="1.33333" stroke-miterlimit="8" fill="none" fill-rule="evenodd"/><rect x="377.5" y="312" width="38.5" height="37.5" fill="#FFE699"/><path d="M416 312 428.5 299.5 428.5 337 416 349.5Z" fill="#CDB97B" fill-rule="evenodd"/><path d="M377.5 312 390 299.5 428.5 299.5 416 312Z" fill="#FFEBAD" fill-rule="evenodd"/><path d="M377.5 312 390 299.5 428.5 299.5 428.5 337 416 349.5 377.5 349.5ZM377.5 312 416 312 428.5 299.5M416 312 416 349.5" stroke="#FFC000" stroke-width="1.33333" stroke-miterlimit="8" fill="none" fill-rule="evenodd"/><rect x="415.5" y="312" width="37.5" height="37.5" fill="#FFE699"/><path d="M453 312 465.5 299.5 465.5 337 453 349.5Z" fill="#CDB97B" fill-rule="evenodd"/><path d="M415.5 312 428 299.5 465.5 299.5 453 312Z" fill="#FFEBAD" fill-rule="evenodd"/><path d="M415.5 312 428 299.5 465.5 299.5 465.5 337 453 349.5 415.5 349.5ZM415.5 312 453 312 465.5 299.5M453 312 453 349.5" stroke="#FFC000" stroke-width="1.33333" stroke-miterlimit="8" fill="none" fill-rule="evenodd"/><rect x="452.5" y="312" width="38.5" height="37.5" fill="#FFE699"/><path d="M491 312 503.5 299.5 503.5 337 491 349.5Z" fill="#CDB97B" fill-rule="evenodd"/><path d="M452.5 312 465 299.5 503.5 299.5 491 312Z" fill="#FFEBAD" fill-rule="evenodd"/><path d="M452.5 312 465 299.5 503.5 299.5 503.5 337 491 349.5 452.5 349.5ZM452.5 312 491 312 503.5 299.5M491 312 491 349.5" stroke="#FFC000" stroke-width="1.33333" stroke-miterlimit="8" fill="none" fill-rule="evenodd"/><rect x="377.5" y="273.25" width="38.25" height="38.25" fill="#FFE699"/><path d="M415.75 273.25 428.5 260.5 428.5 298.75 415.75 311.5Z" fill="#CDB97B" fill-rule="evenodd"/><path d="M377.5 273.25 390.25 260.5 428.5 260.5 415.75 273.25Z" fill="#FFEBAD" fill-rule="evenodd"/><path d="M377.5 273.25 390.25 260.5 428.5 260.5 428.5 298.75 415.75 311.5 377.5 311.5ZM377.5 273.25 415.75 273.25 428.5 260.5M415.75 273.25 415.75 311.5" stroke="#FFC000" stroke-width="1.33333" stroke-miterlimit="8" fill="none" fill-rule="evenodd"/><rect x="415.5" y="273" width="37.5" height="38.5" fill="#FFE699"/><path d="M453 273 465.5 260.5 465.5 299 453 311.5Z" fill="#CDB97B" fill-rule="evenodd"/><path d="M415.5 273 428 260.5 465.5 260.5 453 273Z" fill="#FFEBAD" fill-rule="evenodd"/><path d="M415.5 273 428 260.5 465.5 260.5 465.5 299 453 311.5 415.5 311.5ZM415.5 273 453 273 465.5 260.5M453 273 453 311.5" stroke="#FFC000" stroke-width="1.33333" stroke-miterlimit="8" fill="none" fill-rule="evenodd"/><rect x="452.5" y="273.25" width="38.25" height="38.25" fill="#FFE699"/><path d="M490.75 273.25 503.5 260.5 503.5 298.75 490.75 311.5Z" fill="#CDB97B" fill-rule="evenodd"/><path d="M452.5 273.25 465.25 260.5 503.5 260.5 490.75 273.25Z" fill="#FFEBAD" fill-rule="evenodd"/><path d="M452.5 273.25 465.25 260.5 503.5 260.5 503.5 298.75 490.75 311.5 452.5 311.5ZM452.5 273.25 490.75 273.25 503.5 260.5M490.75 273.25 490.75 311.5" stroke="#FFC000" stroke-width="1.33333" stroke-miterlimit="8" fill="none" fill-rule="evenodd"/><rect x="364.5" y="362.25" width="38.25" height="38.25" fill="#FFE699"/><path d="M402.75 362.25 415.5 349.5 415.5 387.75 402.75 400.5Z" fill="#CDB97B" fill-rule="evenodd"/><path d="M364.5 362.25 377.25 349.5 415.5 349.5 402.75 362.25Z" fill="#FFEBAD" fill-rule="evenodd"/><path d="M364.5 362.25 377.25 349.5 415.5 349.5 415.5 387.75 402.75 400.5 364.5 400.5ZM364.5 362.25 402.75 362.25 415.5 349.5M402.75 362.25 402.75 400.5" stroke="#FFC000" stroke-width="1.33333" stroke-miterlimit="8" fill="none" fill-rule="evenodd"/><rect x="402.5" y="362.25" width="38.25" height="38.25" fill="#FFE699"/><path d="M440.75 362.25 453.5 349.5 453.5 387.75 440.75 400.5Z" fill="#CDB97B" fill-rule="evenodd"/><path d="M402.5 362.25 415.25 349.5 453.5 349.5 440.75 362.25Z" fill="#FFEBAD" fill-rule="evenodd"/><path d="M402.5 362.25 415.25 349.5 453.5 349.5 453.5 387.75 440.75 400.5 402.5 400.5ZM402.5 362.25 440.75 362.25 453.5 349.5M440.75 362.25 440.75 400.5" stroke="#FFC000" stroke-width="1.33333" stroke-miterlimit="8" fill="none" fill-rule="evenodd"/><rect x="439.5" y="362.25" width="38.25" height="38.25" fill="#FFE699"/><path d="M477.75 362.25 490.5 349.5 490.5 387.75 477.75 400.5Z" fill="#CDB97B" fill-rule="evenodd"/><path d="M439.5 362.25 452.25 349.5 490.5 349.5 477.75 362.25Z" fill="#FFEBAD" fill-rule="evenodd"/><path d="M439.5 362.25 452.25 349.5 490.5 349.5 490.5 387.75 477.75 400.5 439.5 400.5ZM439.5 362.25 477.75 362.25 490.5 349.5M477.75 362.25 477.75 400.5" stroke="#FFC000" stroke-width="1.33333" stroke-miterlimit="8" fill="none" fill-rule="evenodd"/><rect x="364.5" y="324.25" width="38.25" height="38.25" fill="#FFE699"/><path d="M402.75 324.25 415.5 311.5 415.5 349.75 402.75 362.5Z" fill="#CDB97B" fill-rule="evenodd"/><path d="M364.5 324.25 377.25 311.5 415.5 311.5 402.75 324.25Z" fill="#FFEBAD" fill-rule="evenodd"/><path d="M364.5 324.25 377.25 311.5 415.5 311.5 415.5 349.75 402.75 362.5 364.5 362.5ZM364.5 324.25 402.75 324.25 415.5 311.5M402.75 324.25 402.75 362.5" stroke="#FFC000" stroke-width="1.33333" stroke-miterlimit="8" fill="none" fill-rule="evenodd"/><rect x="402.5" y="324.25" width="38.25" height="38.25" fill="#FFE699"/><path d="M440.75 324.25 453.5 311.5 453.5 349.75 440.75 362.5Z" fill="#CDB97B" fill-rule="evenodd"/><path d="M402.5 324.25 415.25 311.5 453.5 311.5 440.75 324.25Z" fill="#FFEBAD" fill-rule="evenodd"/><path d="M402.5 324.25 415.25 311.5 453.5 311.5 453.5 349.75 440.75 362.5 402.5 362.5ZM402.5 324.25 440.75 324.25 453.5 311.5M440.75 324.25 440.75 362.5" stroke="#FFC000" stroke-width="1.33333" stroke-miterlimit="8" fill="none" fill-rule="evenodd"/><rect x="439.5" y="324.25" width="38.25" height="38.25" fill="#FFE699"/><path d="M477.75 324.25 490.5 311.5 490.5 349.75 477.75 362.5Z" fill="#CDB97B" fill-rule="evenodd"/><path d="M439.5 324.25 452.25 311.5 490.5 311.5 477.75 324.25Z" fill="#FFEBAD" fill-rule="evenodd"/><path d="M439.5 324.25 452.25 311.5 490.5 311.5 490.5 349.75 477.75 362.5 439.5 362.5ZM439.5 324.25 477.75 324.25 490.5 311.5M477.75 324.25 477.75 362.5" stroke="#FFC000" stroke-width="1.33333" stroke-miterlimit="8" fill="none" fill-rule="evenodd"/><rect x="364.5" y="285.25" width="38.25" height="38.25" fill="#FFE699"/><path d="M402.75 285.25 415.5 272.5 415.5 310.75 402.75 323.5Z" fill="#CDB97B" fill-rule="evenodd"/><path d="M364.5 285.25 377.25 272.5 415.5 272.5 402.75 285.25Z" fill="#FFEBAD" fill-rule="evenodd"/><path d="M364.5 285.25 377.25 272.5 415.5 272.5 415.5 310.75 402.75 323.5 364.5 323.5ZM364.5 285.25 402.75 285.25 415.5 272.5M402.75 285.25 402.75 323.5" stroke="#FFC000" stroke-width="1.33333" stroke-miterlimit="8" fill="none" fill-rule="evenodd"/><rect x="402.5" y="285.25" width="38.25" height="38.25" fill="#FFE699"/><path d="M440.75 285.25 453.5 272.5 453.5 310.75 440.75 323.5Z" fill="#CDB97B" fill-rule="evenodd"/><path d="M402.5 285.25 415.25 272.5 453.5 272.5 440.75 285.25Z" fill="#FFEBAD" fill-rule="evenodd"/><path d="M402.5 285.25 415.25 272.5 453.5 272.5 453.5 310.75 440.75 323.5 402.5 323.5ZM402.5 285.25 440.75 285.25 453.5 272.5M440.75 285.25 440.75 323.5" stroke="#FFC000" stroke-width="1.33333" stroke-miterlimit="8" fill="none" fill-rule="evenodd"/><rect x="439.5" y="285.25" width="38.25" height="38.25" fill="#FFE699"/><path d="M477.75 285.25 490.5 272.5 490.5 310.75 477.75 323.5Z" fill="#CDB97B" fill-rule="evenodd"/><path d="M439.5 285.25 452.25 272.5 490.5 272.5 477.75 285.25Z" fill="#FFEBAD" fill-rule="evenodd"/><path d="M439.5 285.25 452.25 272.5 490.5 272.5 490.5 310.75 477.75 323.5 439.5 323.5ZM439.5 285.25 477.75 285.25 490.5 272.5M477.75 285.25 477.75 323.5" stroke="#FFC000" stroke-width="1.33333" stroke-miterlimit="8" fill="none" fill-rule="evenodd"/><rect x="390.5" y="554" width="38.5" height="37.5" fill="#FFE699"/><path d="M429 554 441.5 541.5 441.5 579 429 591.5Z" fill="#CDB97B" fill-rule="evenodd"/><path d="M390.5 554 403 541.5 441.5 541.5 429 554Z" fill="#FFEBAD" fill-rule="evenodd"/><path d="M390.5 554 403 541.5 441.5 541.5 441.5 579 429 591.5 390.5 591.5ZM390.5 554 429 554 441.5 541.5M429 554 429 591.5" stroke="#FFC000" stroke-width="1.33333" stroke-miterlimit="8" fill="none" fill-rule="evenodd"/><rect x="427.5" y="554" width="38.5" height="37.5" fill="#FFE699"/><path d="M466 554 478.5 541.5 478.5 579 466 591.5Z" fill="#CDB97B" fill-rule="evenodd"/><path d="M427.5 554 440 541.5 478.5 541.5 466 554Z" fill="#FFEBAD" fill-rule="evenodd"/><path d="M427.5 554 440 541.5 478.5 541.5 478.5 579 466 591.5 427.5 591.5ZM427.5 554 466 554 478.5 541.5M466 554 466 591.5" stroke="#FFC000" stroke-width="1.33333" stroke-miterlimit="8" fill="none" fill-rule="evenodd"/><rect x="465.5" y="554" width="38.5" height="37.5" fill="#FFE699"/><path d="M504 554 516.5 541.5 516.5 579 504 591.5Z" fill="#CDB97B" fill-rule="evenodd"/><path d="M465.5 554 478 541.5 516.5 541.5 504 554Z" fill="#FFEBAD" fill-rule="evenodd"/><path d="M465.5 554 478 541.5 516.5 541.5 516.5 579 504 591.5 465.5 591.5ZM465.5 554 504 554 516.5 541.5M504 554 504 591.5" stroke="#FFC000" stroke-width="1.33333" stroke-miterlimit="8" fill="none" fill-rule="evenodd"/><rect x="390.5" y="515.25" width="38.25" height="38.25" fill="#FFE699"/><path d="M428.75 515.25 441.5 502.5 441.5 540.75 428.75 553.5Z" fill="#CDB97B" fill-rule="evenodd"/><path d="M390.5 515.25 403.25 502.5 441.5 502.5 428.75 515.25Z" fill="#FFEBAD" fill-rule="evenodd"/><path d="M390.5 515.25 403.25 502.5 441.5 502.5 441.5 540.75 428.75 553.5 390.5 553.5ZM390.5 515.25 428.75 515.25 441.5 502.5M428.75 515.25 428.75 553.5" stroke="#FFC000" stroke-width="1.33333" stroke-miterlimit="8" fill="none" fill-rule="evenodd"/><rect x="427.5" y="515.25" width="38.25" height="38.25" fill="#FFE699"/><path d="M465.75 515.25 478.5 502.5 478.5 540.75 465.75 553.5Z" fill="#CDB97B" fill-rule="evenodd"/><path d="M427.5 515.25 440.25 502.5 478.5 502.5 465.75 515.25Z" fill="#FFEBAD" fill-rule="evenodd"/><path d="M427.5 515.25 440.25 502.5 478.5 502.5 478.5 540.75 465.75 553.5 427.5 553.5ZM427.5 515.25 465.75 515.25 478.5 502.5M465.75 515.25 465.75 553.5" stroke="#FFC000" stroke-width="1.33333" stroke-miterlimit="8" fill="none" fill-rule="evenodd"/><rect x="465.5" y="515.25" width="38.25" height="38.25" fill="#FFE699"/><path d="M503.75 515.25 516.5 502.5 516.5 540.75 503.75 553.5Z" fill="#CDB97B" fill-rule="evenodd"/><path d="M465.5 515.25 478.25 502.5 516.5 502.5 503.75 515.25Z" fill="#FFEBAD" fill-rule="evenodd"/><path d="M465.5 515.25 478.25 502.5 516.5 502.5 516.5 540.75 503.75 553.5 465.5 553.5ZM465.5 515.25 503.75 515.25 516.5 502.5M503.75 515.25 503.75 553.5" stroke="#FFC000" stroke-width="1.33333" stroke-miterlimit="8" fill="none" fill-rule="evenodd"/><rect x="390.5" y="477" width="38.5" height="37.5" fill="#FFE699"/><path d="M429 477 441.5 464.5 441.5 502 429 514.5Z" fill="#CDB97B" fill-rule="evenodd"/><path d="M390.5 477 403 464.5 441.5 464.5 429 477Z" fill="#FFEBAD" fill-rule="evenodd"/><path d="M390.5 477 403 464.5 441.5 464.5 441.5 502 429 514.5 390.5 514.5ZM390.5 477 429 477 441.5 464.5M429 477 429 514.5" stroke="#FFC000" stroke-width="1.33333" stroke-miterlimit="8" fill="none" fill-rule="evenodd"/><rect x="427.5" y="477" width="38.5" height="37.5" fill="#FFE699"/><path d="M466 477 478.5 464.5 478.5 502 466 514.5Z" fill="#CDB97B" fill-rule="evenodd"/><path d="M427.5 477 440 464.5 478.5 464.5 466 477Z" fill="#FFEBAD" fill-rule="evenodd"/><path d="M427.5 477 440 464.5 478.5 464.5 478.5 502 466 514.5 427.5 514.5ZM427.5 477 466 477 478.5 464.5M466 477 466 514.5" stroke="#FFC000" stroke-width="1.33333" stroke-miterlimit="8" fill="none" fill-rule="evenodd"/><rect x="465.5" y="477" width="38.5" height="37.5" fill="#FFE699"/><path d="M504 477 516.5 464.5 516.5 502 504 514.5Z" fill="#CDB97B" fill-rule="evenodd"/><path d="M465.5 477 478 464.5 516.5 464.5 504 477Z" fill="#FFEBAD" fill-rule="evenodd"/><path d="M465.5 477 478 464.5 516.5 464.5 516.5 502 504 514.5 465.5 514.5ZM465.5 477 504 477 516.5 464.5M504 477 504 514.5" stroke="#FFC000" stroke-width="1.33333" stroke-miterlimit="8" fill="none" fill-rule="evenodd"/><rect x="377.5" y="567.25" width="38.25" height="38.25" fill="#FFE699"/><path d="M415.75 567.25 428.5 554.5 428.5 592.75 415.75 605.5Z" fill="#CDB97B" fill-rule="evenodd"/><path d="M377.5 567.25 390.25 554.5 428.5 554.5 415.75 567.25Z" fill="#FFEBAD" fill-rule="evenodd"/><path d="M377.5 567.25 390.25 554.5 428.5 554.5 428.5 592.75 415.75 605.5 377.5 605.5ZM377.5 567.25 415.75 567.25 428.5 554.5M415.75 567.25 415.75 605.5" stroke="#FFC000" stroke-width="1.33333" stroke-miterlimit="8" fill="none" fill-rule="evenodd"/><rect x="415.5" y="567" width="37.5" height="38.5" fill="#FFE699"/><path d="M453 567 465.5 554.5 465.5 593 453 605.5Z" fill="#CDB97B" fill-rule="evenodd"/><path d="M415.5 567 428 554.5 465.5 554.5 453 567Z" fill="#FFEBAD" fill-rule="evenodd"/><path d="M415.5 567 428 554.5 465.5 554.5 465.5 593 453 605.5 415.5 605.5ZM415.5 567 453 567 465.5 554.5M453 567 453 605.5" stroke="#FFC000" stroke-width="1.33333" stroke-miterlimit="8" fill="none" fill-rule="evenodd"/><rect x="452.5" y="567.25" width="38.25" height="38.25" fill="#FFE699"/><path d="M490.75 567.25 503.5 554.5 503.5 592.75 490.75 605.5Z" fill="#CDB97B" fill-rule="evenodd"/><path d="M452.5 567.25 465.25 554.5 503.5 554.5 490.75 567.25Z" fill="#FFEBAD" fill-rule="evenodd"/><path d="M452.5 567.25 465.25 554.5 503.5 554.5 503.5 592.75 490.75 605.5 452.5 605.5ZM452.5 567.25 490.75 567.25 503.5 554.5M490.75 567.25 490.75 605.5" stroke="#FFC000" stroke-width="1.33333" stroke-miterlimit="8" fill="none" fill-rule="evenodd"/><rect x="377.5" y="528.25" width="38.25" height="38.25" fill="#FFE699"/><path d="M415.75 528.25 428.5 515.5 428.5 553.75 415.75 566.5Z" fill="#CDB97B" fill-rule="evenodd"/><path d="M377.5 528.25 390.25 515.5 428.5 515.5 415.75 528.25Z" fill="#FFEBAD" fill-rule="evenodd"/><path d="M377.5 528.25 390.25 515.5 428.5 515.5 428.5 553.75 415.75 566.5 377.5 566.5ZM377.5 528.25 415.75 528.25 428.5 515.5M415.75 528.25 415.75 566.5" stroke="#FFC000" stroke-width="1.33333" stroke-miterlimit="8" fill="none" fill-rule="evenodd"/><rect x="415.5" y="528" width="37.5" height="38.5" fill="#FFE699"/><path d="M453 528 465.5 515.5 465.5 554 453 566.5Z" fill="#CDB97B" fill-rule="evenodd"/><path d="M415.5 528 428 515.5 465.5 515.5 453 528Z" fill="#FFEBAD" fill-rule="evenodd"/><path d="M415.5 528 428 515.5 465.5 515.5 465.5 554 453 566.5 415.5 566.5ZM415.5 528 453 528 465.5 515.5M453 528 453 566.5" stroke="#FFC000" stroke-width="1.33333" stroke-miterlimit="8" fill="none" fill-rule="evenodd"/><rect x="452.5" y="528.25" width="38.25" height="38.25" fill="#FFE699"/><path d="M490.75 528.25 503.5 515.5 503.5 553.75 490.75 566.5Z" fill="#CDB97B" fill-rule="evenodd"/><path d="M452.5 528.25 465.25 515.5 503.5 515.5 490.75 528.25Z" fill="#FFEBAD" fill-rule="evenodd"/><path d="M452.5 528.25 465.25 515.5 503.5 515.5 503.5 553.75 490.75 566.5 452.5 566.5ZM452.5 528.25 490.75 528.25 503.5 515.5M490.75 528.25 490.75 566.5" stroke="#FFC000" stroke-width="1.33333" stroke-miterlimit="8" fill="none" fill-rule="evenodd"/><rect x="377.5" y="490" width="38.5" height="37.5" fill="#FFE699"/><path d="M416 490 428.5 477.5 428.5 515 416 527.5Z" fill="#CDB97B" fill-rule="evenodd"/><path d="M377.5 490 390 477.5 428.5 477.5 416 490Z" fill="#FFEBAD" fill-rule="evenodd"/><path d="M377.5 490 390 477.5 428.5 477.5 428.5 515 416 527.5 377.5 527.5ZM377.5 490 416 490 428.5 477.5M416 490 416 527.5" stroke="#FFC000" stroke-width="1.33333" stroke-miterlimit="8" fill="none" fill-rule="evenodd"/><rect x="415.5" y="490" width="37.5" height="37.5" fill="#FFE699"/><path d="M453 490 465.5 477.5 465.5 515 453 527.5Z" fill="#CDB97B" fill-rule="evenodd"/><path d="M415.5 490 428 477.5 465.5 477.5 453 490Z" fill="#FFEBAD" fill-rule="evenodd"/><path d="M415.5 490 428 477.5 465.5 477.5 465.5 515 453 527.5 415.5 527.5ZM415.5 490 453 490 465.5 477.5M453 490 453 527.5" stroke="#FFC000" stroke-width="1.33333" stroke-miterlimit="8" fill="none" fill-rule="evenodd"/><rect x="452.5" y="490" width="38.5" height="37.5" fill="#FFE699"/><path d="M491 490 503.5 477.5 503.5 515 491 527.5Z" fill="#CDB97B" fill-rule="evenodd"/><path d="M452.5 490 465 477.5 503.5 477.5 491 490Z" fill="#FFEBAD" fill-rule="evenodd"/><path d="M452.5 490 465 477.5 503.5 477.5 503.5 515 491 527.5 452.5 527.5ZM452.5 490 491 490 503.5 477.5M491 490 491 527.5" stroke="#FFC000" stroke-width="1.33333" stroke-miterlimit="8" fill="none" fill-rule="evenodd"/><rect x="364.5" y="579.25" width="38.25" height="38.25" fill="#FFE699"/><path d="M402.75 579.25 415.5 566.5 415.5 604.75 402.75 617.5Z" fill="#CDB97B" fill-rule="evenodd"/><path d="M364.5 579.25 377.25 566.5 415.5 566.5 402.75 579.25Z" fill="#FFEBAD" fill-rule="evenodd"/><path d="M364.5 579.25 377.25 566.5 415.5 566.5 415.5 604.75 402.75 617.5 364.5 617.5ZM364.5 579.25 402.75 579.25 415.5 566.5M402.75 579.25 402.75 617.5" stroke="#FFC000" stroke-width="1.33333" stroke-miterlimit="8" fill="none" fill-rule="evenodd"/><rect x="402.5" y="579.25" width="38.25" height="38.25" fill="#FFE699"/><path d="M440.75 579.25 453.5 566.5 453.5 604.75 440.75 617.5Z" fill="#CDB97B" fill-rule="evenodd"/><path d="M402.5 579.25 415.25 566.5 453.5 566.5 440.75 579.25Z" fill="#FFEBAD" fill-rule="evenodd"/><path d="M402.5 579.25 415.25 566.5 453.5 566.5 453.5 604.75 440.75 617.5 402.5 617.5ZM402.5 579.25 440.75 579.25 453.5 566.5M440.75 579.25 440.75 617.5" stroke="#FFC000" stroke-width="1.33333" stroke-miterlimit="8" fill="none" fill-rule="evenodd"/><rect x="439.5" y="579.25" width="38.25" height="38.25" fill="#FFE699"/><path d="M477.75 579.25 490.5 566.5 490.5 604.75 477.75 617.5Z" fill="#CDB97B" fill-rule="evenodd"/><path d="M439.5 579.25 452.25 566.5 490.5 566.5 477.75 579.25Z" fill="#FFEBAD" fill-rule="evenodd"/><path d="M439.5 579.25 452.25 566.5 490.5 566.5 490.5 604.75 477.75 617.5 439.5 617.5ZM439.5 579.25 477.75 579.25 490.5 566.5M477.75 579.25 477.75 617.5" stroke="#FFC000" stroke-width="1.33333" stroke-miterlimit="8" fill="none" fill-rule="evenodd"/><rect x="364.5" y="540.25" width="38.25" height="38.25" fill="#FFE699"/><path d="M402.75 540.25 415.5 527.5 415.5 565.75 402.75 578.5Z" fill="#CDB97B" fill-rule="evenodd"/><path d="M364.5 540.25 377.25 527.5 415.5 527.5 402.75 540.25Z" fill="#FFEBAD" fill-rule="evenodd"/><path d="M364.5 540.25 377.25 527.5 415.5 527.5 415.5 565.75 402.75 578.5 364.5 578.5ZM364.5 540.25 402.75 540.25 415.5 527.5M402.75 540.25 402.75 578.5" stroke="#FFC000" stroke-width="1.33333" stroke-miterlimit="8" fill="none" fill-rule="evenodd"/><rect x="402.5" y="540.25" width="38.25" height="38.25" fill="#FFE699"/><path d="M440.75 540.25 453.5 527.5 453.5 565.75 440.75 578.5Z" fill="#CDB97B" fill-rule="evenodd"/><path d="M402.5 540.25 415.25 527.5 453.5 527.5 440.75 540.25Z" fill="#FFEBAD" fill-rule="evenodd"/><path d="M402.5 540.25 415.25 527.5 453.5 527.5 453.5 565.75 440.75 578.5 402.5 578.5ZM402.5 540.25 440.75 540.25 453.5 527.5M440.75 540.25 440.75 578.5" stroke="#FFC000" stroke-width="1.33333" stroke-miterlimit="8" fill="none" fill-rule="evenodd"/><rect x="439.5" y="540.25" width="38.25" height="38.25" fill="#FFE699"/><path d="M477.75 540.25 490.5 527.5 490.5 565.75 477.75 578.5Z" fill="#CDB97B" fill-rule="evenodd"/><path d="M439.5 540.25 452.25 527.5 490.5 527.5 477.75 540.25Z" fill="#FFEBAD" fill-rule="evenodd"/><path d="M439.5 540.25 452.25 527.5 490.5 527.5 490.5 565.75 477.75 578.5 439.5 578.5ZM439.5 540.25 477.75 540.25 490.5 527.5M477.75 540.25 477.75 578.5" stroke="#FFC000" stroke-width="1.33333" stroke-miterlimit="8" fill="none" fill-rule="evenodd"/><rect x="364.5" y="502.25" width="38.25" height="38.25" fill="#FFE699"/><path d="M402.75 502.25 415.5 489.5 415.5 527.75 402.75 540.5Z" fill="#CDB97B" fill-rule="evenodd"/><path d="M364.5 502.25 377.25 489.5 415.5 489.5 402.75 502.25Z" fill="#FFEBAD" fill-rule="evenodd"/><path d="M364.5 502.25 377.25 489.5 415.5 489.5 415.5 527.75 402.75 540.5 364.5 540.5ZM364.5 502.25 402.75 502.25 415.5 489.5M402.75 502.25 402.75 540.5" stroke="#FFC000" stroke-width="1.33333" stroke-miterlimit="8" fill="none" fill-rule="evenodd"/><rect x="402.5" y="502.25" width="38.25" height="38.25" fill="#FFE699"/><path d="M440.75 502.25 453.5 489.5 453.5 527.75 440.75 540.5Z" fill="#CDB97B" fill-rule="evenodd"/><path d="M402.5 502.25 415.25 489.5 453.5 489.5 440.75 502.25Z" fill="#FFEBAD" fill-rule="evenodd"/><path d="M402.5 502.25 415.25 489.5 453.5 489.5 453.5 527.75 440.75 540.5 402.5 540.5ZM402.5 502.25 440.75 502.25 453.5 489.5M440.75 502.25 440.75 540.5" stroke="#FFC000" stroke-width="1.33333" stroke-miterlimit="8" fill="none" fill-rule="evenodd"/><rect x="439.5" y="502.25" width="38.25" height="38.25" fill="#FFE699"/><path d="M477.75 502.25 490.5 489.5 490.5 527.75 477.75 540.5Z" fill="#CDB97B" fill-rule="evenodd"/><path d="M439.5 502.25 452.25 489.5 490.5 489.5 477.75 502.25Z" fill="#FFEBAD" fill-rule="evenodd"/><path d="M439.5 502.25 452.25 489.5 490.5 489.5 490.5 527.75 477.75 540.5 439.5 540.5ZM439.5 502.25 477.75 502.25 490.5 489.5M477.75 502.25 477.75 540.5" stroke="#FFC000" stroke-width="1.33333" stroke-miterlimit="8" fill="none" fill-rule="evenodd"/><path d="M0.518163-0.419465 81.3234 99.3988 80.2871 100.238-0.518163 0.419465ZM83.0754 96.2652 85 105 76.8574 101.299Z" transform="matrix(1 0 0 -1 269.5 228.5)"/><path d="M244.882 253.954 349.421 327.131 348.656 328.223 244.118 255.046ZM350.24 323.635 354.5 331.5 345.652 330.189Z"/><path d="M201.038 305.106 351.096 509.73 350.02 510.519 199.962 305.894ZM352.995 506.683 354.5 515.5 346.544 511.414Z"/><path d="M516.552 49.8354 591.305 55.6467 591.202 56.976 516.448 51.1647ZM590.234 52.22 597.9 56.828 589.614 60.196Z"/><path d="M503.82 62.9149 608.299 119.954 607.66 121.124 503.181 64.0852ZM608.726 116.389 613.831 123.733 604.892 123.411Z"/><path d="M516.633 265.847 591.5 281.075 591.234 282.381 516.367 267.153ZM590.858 277.542 597.9 283.057 589.263 285.382Z"/><path d="M493.829 271.92 591.782 327.542 591.124 328.701 493.171 273.08ZM592.269 323.985 597.25 331.413 588.318 330.941Z"/><path d="M516.543 482.835 591.29 487.68 591.204 489.011 516.457 484.165ZM590.176 484.267 597.9 488.776 589.658 492.251Z"/><path d="M489.81 487.91 586.109 538.526 585.489 539.706 489.19 489.09ZM586.48 534.955 591.7 542.218 582.758 542.036Z"/><text font-family="DengXian,DengXian_MSFontService,sans-serif" font-weight="700" font-size="32" transform="translate(397.75 236)"></text><text font-family="DengXian,DengXian_MSFontService,sans-serif" font-weight="700" font-size="32" transform="translate(397.75 452)"></text><text font-family="DengXian,DengXian_MSFontService,sans-serif" font-weight="400" font-size="24" transform="translate(78.6 668)">Grid</text><text font-family="DengXian,DengXian_MSFontService,sans-serif" font-weight="400" font-size="24" transform="translate(395.058 668)">Block</text><text font-family="DengXian,DengXian_MSFontService,sans-serif" font-weight="400" font-size="24" transform="translate(580.232 668)">Thread</text><path d="M622.879 35.5001C620.064 41.9193 617.25 48.3386 617.518 53.5626 617.786 58.7865 624.219 61.3542 624.487 66.8438 624.755 72.3334 620.824 84.5522 619.126 86.5001" stroke="#172C51" stroke-width="3" stroke-miterlimit="8" fill="none" fill-rule="evenodd"/><path d="M622.879 96.5001C620.064 102.919 617.25 109.339 617.518 114.563 617.786 119.787 624.219 122.354 624.487 127.844 624.755 133.333 620.824 145.552 619.126 147.5" stroke="#172C51" stroke-width="3" stroke-miterlimit="8" fill="none" fill-rule="evenodd"/><path d="M622.879 157.5C620.064 163.919 617.25 170.339 617.518 175.563 617.786 180.787 624.219 183.354 624.487 188.844 624.755 194.333 620.824 206.552 619.126 208.5" stroke="#172C51" stroke-width="3" stroke-miterlimit="8" fill="none" fill-rule="evenodd"/><path d="M618.879 244.5C616.064 250.919 613.25 257.339 613.518 262.563 613.786 267.787 620.219 270.354 620.487 275.844 620.755 281.333 616.824 293.552 615.126 295.5" stroke="#172C51" stroke-width="3" stroke-miterlimit="8" fill="none" fill-rule="evenodd"/><path d="M618.879 305.5C616.064 311.919 613.25 318.339 613.518 323.563 613.786 328.787 620.219 331.354 620.487 336.844 620.755 342.333 616.824 354.552 615.126 356.5" stroke="#172C51" stroke-width="3" stroke-miterlimit="8" fill="none" fill-rule="evenodd"/><path d="M618.879 366.5C616.064 372.919 613.25 379.339 613.518 384.563 613.786 389.787 620.219 392.354 620.487 397.844 620.755 403.333 616.824 415.552 615.126 417.5" stroke="#172C51" stroke-width="3" stroke-miterlimit="8" fill="none" fill-rule="evenodd"/><path d="M618.879 456.5C616.064 462.919 613.25 469.339 613.518 474.563 613.786 479.787 620.219 482.354 620.487 487.844 620.755 493.333 616.824 505.552 615.126 507.5" stroke="#172C51" stroke-width="3" stroke-miterlimit="8" fill="none" fill-rule="evenodd"/><path d="M618.879 517.5C616.064 523.919 613.25 530.339 613.518 535.563 613.786 540.787 620.219 543.354 620.487 548.844 620.755 554.333 616.824 566.552 615.126 568.5" stroke="#172C51" stroke-width="3" stroke-miterlimit="8" fill="none" fill-rule="evenodd"/><path d="M618.879 578.5C616.064 584.919 613.25 591.339 613.518 596.563 613.786 601.787 620.219 604.354 620.487 609.844 620.755 615.333 616.824 627.552 615.126 629.5" stroke="#172C51" stroke-width="3" stroke-miterlimit="8" fill="none" fill-rule="evenodd"/><path d="M490.959 75.0167 609.171 187.325 608.252 188.291 490.041 75.9834ZM610.5 183.99 613.545 192.4 604.99 189.79Z"/><path d="M477.859 303.938 601.181 382.625 600.464 383.749 477.141 305.062ZM601.85 379.098 606.443 386.773 597.547 385.842Z"/><path d="M477.868 520.944 586.052 592.588 585.316 593.7 477.132 522.056ZM586.781 589.073 591.243 596.825 582.364 595.743Z"/></g></svg>