<svg width="1565" height="895" xmlns="http://www.w3.org/2000/svg" xmlns:xlink="http://www.w3.org/1999/xlink" overflow="hidden"><g transform="translate(35 94)"><rect x="-35" y="-93" width="1564" height="893" fill="#767171"/><rect x="161" y="306" width="1182" height="44" fill="#74B3DE"/><text fill="#FFFFFF" font-family="DengXian,DengXian_MSFontService,sans-serif" font-weight="400" font-size="24" transform="translate(705.069 336)">L2 Cache</text><rect x="87" y="656" width="1323" height="43" stroke="#D9D9D9" stroke-width="2" stroke-miterlimit="8" fill="#A6A6A6"/><text fill="#FFFFFF" font-family="DengXian,DengXian_MSFontService,sans-serif" font-weight="400" font-size="24" transform="translate(660.747 685)">High</text><text fill="#FFFFFF" font-family="DengXian,DengXian_MSFontService,sans-serif" font-weight="400" font-size="24" transform="translate(709.747 685)">-</text><text fill="#FFFFFF" font-family="DengXian,DengXian_MSFontService,sans-serif" font-weight="400" font-size="24" transform="translate(721.747 685)">Speed Hub</text><rect x="87" y="-41" width="1323" height="35" stroke="#D9D9D9" stroke-width="2" stroke-miterlimit="8" fill="#F6913F"/><text fill="#FFFFFF" font-family="DengXian,DengXian_MSFontService,sans-serif" font-weight="400" font-size="21" transform="translate(661.58 -16)">GigaThread</text><text fill="#FFFFFF" font-family="DengXian,DengXian_MSFontService,sans-serif" font-weight="400" font-size="21" transform="translate(773.58 -16)">Engine</text><rect x="87" y="-81" width="1323" height="36" stroke="#D9D9D9" stroke-width="2" stroke-miterlimit="8" fill="#404040"/><text fill="#FFFFFF" font-family="DengXian,DengXian_MSFontService,sans-serif" font-weight="400" font-size="21" transform="translate(613.247 -56)">PCI Express 3.0 Host</text><text fill="#FFFFFF" font-family="DengXian,DengXian_MSFontService,sans-serif" font-weight="400" font-size="21" transform="translate(804.08 -56)">Inrerface</text><rect x="-15" y="6" width="63" height="317" stroke="#D9D9D9" stroke-width="2" stroke-miterlimit="8" fill="#404040"/><text fill="#FFFFFF" font-family="DengXian,DengXian_MSFontService,sans-serif" font-weight="400" font-size="24" transform="matrix(-1.83697e-16 -1 1 -1.83697e-16 23.9474 304)">High Bandwidth</text><text fill="#FFFFFF" font-family="DengXian,DengXian_MSFontService,sans-serif" font-weight="400" font-size="24" transform="matrix(-1.83697e-16 -1 1 -1.83697e-16 23.9474 133)">Momory</text><text fill="#FFFFFF" font-family="DengXian,DengXian_MSFontService,sans-serif" font-weight="400" font-size="24" transform="matrix(-1.83697e-16 -1 1 -1.83697e-16 23.9474 38)">2</text><rect x="87.0001" y="-1.00005" width="60" height="161" stroke="#D9D9D9" stroke-width="2" stroke-miterlimit="8" fill="#404040"/><text fill="#FFFFFF" font-family="DengXian,DengXian_MSFontService,sans-serif" font-weight="400" font-size="16" transform="matrix(-1.83697e-16 -1 1 -1.83697e-16 122.254 145)">Memory Controller</text><rect x="87" y="163" width="60" height="160" stroke="#D9D9D9" stroke-width="2" stroke-miterlimit="8" fill="#404040"/><text fill="#FFFFFF" font-family="DengXian,DengXian_MSFontService,sans-serif" font-weight="400" font-size="16" transform="matrix(-1.83697e-16 -1 1 -1.83697e-16 122.254 308)">Memory Controller</text><rect x="87.0001" y="326" width="60" height="161" stroke="#D9D9D9" stroke-width="2" stroke-miterlimit="8" fill="#404040"/><text fill="#FFFFFF" font-family="DengXian,DengXian_MSFontService,sans-serif" font-weight="400" font-size="16" transform="matrix(-1.83697e-16 -1 1 -1.83697e-16 122.254 472)">Memory Controller</text><rect x="87.0001" y="489" width="60" height="161" stroke="#D9D9D9" stroke-width="2" stroke-miterlimit="8" fill="#404040"/><text fill="#FFFFFF" font-family="DengXian,DengXian_MSFontService,sans-serif" font-weight="400" font-size="16" transform="matrix(-1.83697e-16 -1 1 -1.83697e-16 122.254 635)">Memory Controller</text><rect x="-14.9999" y="328" width="63" height="318" stroke="#D9D9D9" stroke-width="2" stroke-miterlimit="8" fill="#404040"/><text fill="#FFFFFF" font-family="DengXian,DengXian_MSFontService,sans-serif" font-weight="400" font-size="24" transform="matrix(-1.83697e-16 -1 1 -1.83697e-16 23.9474 626)">High Bandwidth</text><text fill="#FFFFFF" font-family="DengXian,DengXian_MSFontService,sans-serif" font-weight="400" font-size="24" transform="matrix(-1.83697e-16 -1 1 -1.83697e-16 23.9474 455)">Momory</text><text fill="#FFFFFF" font-family="DengXian,DengXian_MSFontService,sans-serif" font-weight="400" font-size="24" transform="matrix(-1.83697e-16 -1 1 -1.83697e-16 23.9474 360)">2</text><rect x="1351" y="-1" width="59" height="161" stroke="#D9D9D9" stroke-width="2" stroke-miterlimit="8" fill="#404040"/><text fill="#FFFFFF" font-family="DengXian,DengXian_MSFontService,sans-serif" font-weight="400" font-size="16" transform="matrix(6.12323e-17 1 -1 6.12323e-17 1375.07 15)">Memory Controller</text><rect x="1351" y="163" width="59" height="160" stroke="#D9D9D9" stroke-width="2" stroke-miterlimit="8" fill="#404040"/><text fill="#FFFFFF" font-family="DengXian,DengXian_MSFontService,sans-serif" font-weight="400" font-size="16" transform="matrix(6.12323e-17 1 -1 6.12323e-17 1375.07 178)">Memory Controller</text><rect x="1351" y="326" width="59" height="161" stroke="#D9D9D9" stroke-width="2" stroke-miterlimit="8" fill="#404040"/><text fill="#FFFFFF" font-family="DengXian,DengXian_MSFontService,sans-serif" font-weight="400" font-size="16" transform="matrix(6.12323e-17 1 -1 6.12323e-17 1375.07 341)">Memory Controller</text><rect x="1351" y="489" width="59" height="161" stroke="#D9D9D9" stroke-width="2" stroke-miterlimit="8" fill="#404040"/><text fill="#FFFFFF" font-family="DengXian,DengXian_MSFontService,sans-serif" font-weight="400" font-size="16" transform="matrix(6.12323e-17 1 -1 6.12323e-17 1375.07 504)">Memory Controller</text><path d="M48 82 57.1951 70 57.1951 74.98 77.8049 74.98 77.8049 70 87 82 77.8049 94 77.8049 89.02 57.1951 89.02 57.1951 94Z" fill="#D9D9D9" fill-rule="evenodd"/><path d="M48 245 57.1951 233 57.1951 237.98 77.8049 237.98 77.8049 233 87 245 77.8049 257 77.8049 252.02 57.1951 252.02 57.1951 257Z" fill="#D9D9D9" fill-rule="evenodd"/><path d="M48 413 57.1951 401 57.1951 405.98 77.8049 405.98 77.8049 401 87 413 77.8049 425 77.8049 420.02 57.1951 420.02 57.1951 425Z" fill="#D9D9D9" fill-rule="evenodd"/><path d="M48 573 57.1951 561 57.1951 565.98 77.8049 565.98 77.8049 561 87 573 77.8049 585 77.8049 580.02 57.1951 580.02 57.1951 585Z" fill="#D9D9D9" fill-rule="evenodd"/><path d="M1410 82 1419.2 70 1419.2 74.98 1439.8 74.98 1439.8 70 1449 82 1439.8 94 1439.8 89.02 1419.2 89.02 1419.2 94Z" fill="#D9D9D9" fill-rule="evenodd"/><path d="M1410 245 1419.2 233 1419.2 237.98 1439.8 237.98 1439.8 233 1449 245 1439.8 257 1439.8 252.02 1419.2 252.02 1419.2 257Z" fill="#D9D9D9" fill-rule="evenodd"/><path d="M1410 419.5 1418.81 408 1418.81 412.773 1440.19 412.773 1440.19 408 1449 419.5 1440.19 431 1440.19 426.227 1418.81 426.227 1418.81 431Z" fill="#D9D9D9" fill-rule="evenodd"/><path d="M1410 579.5 1418.81 568 1418.81 572.773 1440.19 572.773 1440.19 568 1449 579.5 1440.19 591 1440.19 586.227 1418.81 586.227 1418.81 591Z" fill="#D9D9D9" fill-rule="evenodd"/><rect x="1449" y="5.99995" width="64" height="317" stroke="#D9D9D9" stroke-width="2" stroke-miterlimit="8" fill="#404040"/><text fill="#FFFFFF" font-family="DengXian,DengXian_MSFontService,sans-serif" font-weight="400" font-size="24" transform="matrix(6.12323e-17 1 -1 6.12323e-17 1473.38 26)">High Bandwidth</text><text fill="#FFFFFF" font-family="DengXian,DengXian_MSFontService,sans-serif" font-weight="400" font-size="24" transform="matrix(6.12323e-17 1 -1 6.12323e-17 1473.38 197)">Momory</text><text fill="#FFFFFF" font-family="DengXian,DengXian_MSFontService,sans-serif" font-weight="400" font-size="24" transform="matrix(6.12323e-17 1 -1 6.12323e-17 1473.38 291)">2</text><rect x="1449" y="328" width="64" height="318" stroke="#D9D9D9" stroke-width="2" stroke-miterlimit="8" fill="#404040"/><text fill="#FFFFFF" font-family="DengXian,DengXian_MSFontService,sans-serif" font-weight="400" font-size="24" transform="matrix(6.12323e-17 1 -1 6.12323e-17 1473.38 348)">High Bandwidth</text><text fill="#FFFFFF" font-family="DengXian,DengXian_MSFontService,sans-serif" font-weight="400" font-size="24" transform="matrix(6.12323e-17 1 -1 6.12323e-17 1473.38 519)">Momory</text><text fill="#FFFFFF" font-family="DengXian,DengXian_MSFontService,sans-serif" font-weight="400" font-size="24" transform="matrix(6.12323e-17 1 -1 6.12323e-17 1473.38 613)">2</text><path d="M245 699 257 708.195 252.02 708.195 252.02 728.805 257 728.805 245 738 233 728.805 237.98 728.805 237.98 708.195 233 708.195Z" fill="#D9D9D9" fill-rule="evenodd"/><rect x="87" y="738" width="314" height="44" stroke="#D9D9D9" stroke-width="2" stroke-miterlimit="8" fill="#03CC02"/><text fill="#FFFFFF" font-family="DengXian,DengXian_MSFontService,sans-serif" font-weight="400" font-size="27" transform="translate(203.458 769)">NVLink</text><rect x="423" y="738" width="315" height="44" stroke="#D9D9D9" stroke-width="2" stroke-miterlimit="8" fill="#03CC02"/><text fill="#FFFFFF" font-family="DengXian,DengXian_MSFontService,sans-serif" font-weight="400" font-size="27" transform="translate(539.817 769)">NVLink</text><rect x="760" y="738" width="314" height="44" stroke="#D9D9D9" stroke-width="2" stroke-miterlimit="8" fill="#03CC02"/><text fill="#FFFFFF" font-family="DengXian,DengXian_MSFontService,sans-serif" font-weight="400" font-size="27" transform="translate(876.176 769)">NVLink</text><rect x="1096" y="738" width="314" height="44" stroke="#D9D9D9" stroke-width="2" stroke-miterlimit="8" fill="#03CC02"/><text fill="#FFFFFF" font-family="DengXian,DengXian_MSFontService,sans-serif" font-weight="400" font-size="27" transform="translate(1212.54 769)">NVLink</text><path d="M580.5 699 592 707.812 587.227 707.812 587.227 729.188 592 729.188 580.5 738 569 729.188 573.773 729.188 573.773 707.812 569 707.812Z" fill="#D9D9D9" fill-rule="evenodd"/><path d="M917 699 929 708.195 924.02 708.195 924.02 728.805 929 728.805 917 738 905 728.805 909.98 728.805 909.98 708.195 905 708.195Z" fill="#D9D9D9" fill-rule="evenodd"/><path d="M1253 699 1265 708.195 1260.02 708.195 1260.02 728.805 1265 728.805 1253 738 1241 728.805 1245.98 728.805 1245.98 708.195 1241 708.195Z" fill="#D9D9D9" fill-rule="evenodd"/><path d="M161.5 10.1838C161.5 8.14933 163.149 6.50005 165.184 6.50005L547.816 6.50005C549.851 6.50005 551.5 8.14933 551.5 10.1838L551.5 283.816C551.5 285.851 549.851 287.5 547.816 287.5L165.184 287.5C163.149 287.5 161.5 285.851 161.5 283.816Z" stroke="#172C51" stroke-width="3" stroke-miterlimit="8" fill="none" fill-rule="evenodd"/><text fill="#FFFFFF" font-family="DengXian,DengXian_MSFontService,sans-serif" font-weight="700" font-size="21" transform="translate(170.974 31)">GPC</text><rect x="175" y="65" width="60" height="105" stroke="#D9D9D9" stroke-width="2" stroke-miterlimit="8" fill="#548235"/><text fill="#FFFFFF" font-family="DengXian,DengXian_MSFontService,sans-serif" font-weight="400" font-size="24" transform="translate(188.563 125)">SM</text><rect x="175" y="45" width="60" height="18" stroke="#D9D9D9" stroke-width="2" stroke-miterlimit="8" fill="#3F3F41"/><text fill="#FFFFFF" font-family="DengXian,DengXian_MSFontService,sans-serif" font-weight="400" font-size="19" transform="translate(189.396 60)">TPC</text><rect x="175" y="174" width="60" height="105" stroke="#D9D9D9" stroke-width="2" stroke-miterlimit="8" fill="#548235"/><text fill="#FFFFFF" font-family="DengXian,DengXian_MSFontService,sans-serif" font-weight="400" font-size="24" transform="translate(188.563 234)">SM</text><path d="M170.5 42.4179C170.5 41.911 170.911 41.5001 171.418 41.5001L239.582 41.5001C240.089 41.5001 240.5 41.911 240.5 42.4179L240.5 282.582C240.5 283.089 240.089 283.5 239.582 283.5L171.418 283.5C170.911 283.5 170.5 283.089 170.5 282.582Z" stroke="#172C51" stroke-width="3" stroke-miterlimit="8" fill="none" fill-rule="evenodd"/><rect x="250" y="65" width="60" height="105" stroke="#D9D9D9" stroke-width="2" stroke-miterlimit="8" fill="#548235"/><text fill="#FFFFFF" font-family="DengXian,DengXian_MSFontService,sans-serif" font-weight="400" font-size="24" transform="translate(263.567 125)">SM</text><rect x="250" y="45" width="60" height="18" stroke="#D9D9D9" stroke-width="2" stroke-miterlimit="8" fill="#3F3F41"/><text fill="#FFFFFF" font-family="DengXian,DengXian_MSFontService,sans-serif" font-weight="400" font-size="19" transform="translate(264.401 60)">TPC</text><rect x="250" y="174" width="60" height="105" stroke="#D9D9D9" stroke-width="2" stroke-miterlimit="8" fill="#548235"/><text fill="#FFFFFF" font-family="DengXian,DengXian_MSFontService,sans-serif" font-weight="400" font-size="24" transform="translate(263.567 234)">SM</text><path d="M245.5 42.4179C245.5 41.911 245.911 41.5001 246.418 41.5001L314.582 41.5001C315.089 41.5001 315.5 41.911 315.5 42.4179L315.5 282.582C315.5 283.089 315.089 283.5 314.582 283.5L246.418 283.5C245.911 283.5 245.5 283.089 245.5 282.582Z" stroke="#172C51" stroke-width="3" stroke-miterlimit="8" fill="none" fill-rule="evenodd"/><rect x="325" y="65" width="60" height="105" stroke="#D9D9D9" stroke-width="2" stroke-miterlimit="8" fill="#548235"/><text fill="#FFFFFF" font-family="DengXian,DengXian_MSFontService,sans-serif" font-weight="400" font-size="24" transform="translate(338.572 125)">SM</text><rect x="325" y="45" width="60" height="18" stroke="#D9D9D9" stroke-width="2" stroke-miterlimit="8" fill="#3F3F41"/><text fill="#FFFFFF" font-family="DengXian,DengXian_MSFontService,sans-serif" font-weight="400" font-size="19" transform="translate(339.405 60)">TPC</text><rect x="325" y="174" width="60" height="105" stroke="#D9D9D9" stroke-width="2" stroke-miterlimit="8" fill="#548235"/><text fill="#FFFFFF" font-family="DengXian,DengXian_MSFontService,sans-serif" font-weight="400" font-size="24" transform="translate(338.572 234)">SM</text><path d="M320.5 42.4179C320.5 41.911 320.911 41.5001 321.418 41.5001L389.582 41.5001C390.089 41.5001 390.5 41.911 390.5 42.4179L390.5 282.582C390.5 283.089 390.089 283.5 389.582 283.5L321.418 283.5C320.911 283.5 320.5 283.089 320.5 282.582Z" stroke="#172C51" stroke-width="3" stroke-miterlimit="8" fill="none" fill-rule="evenodd"/><rect x="400" y="65" width="60" height="105" stroke="#D9D9D9" stroke-width="2" stroke-miterlimit="8" fill="#548235"/><text fill="#FFFFFF" font-family="DengXian,DengXian_MSFontService,sans-serif" font-weight="400" font-size="24" transform="translate(413.577 125)">SM</text><rect x="400" y="45" width="60" height="18" stroke="#D9D9D9" stroke-width="2" stroke-miterlimit="8" fill="#3F3F41"/><text fill="#FFFFFF" font-family="DengXian,DengXian_MSFontService,sans-serif" font-weight="400" font-size="19" transform="translate(414.41 60)">TPC</text><rect x="400" y="174" width="60" height="105" stroke="#D9D9D9" stroke-width="2" stroke-miterlimit="8" fill="#548235"/><text fill="#FFFFFF" font-family="DengXian,DengXian_MSFontService,sans-serif" font-weight="400" font-size="24" transform="translate(413.577 234)">SM</text><path d="M395.5 42.4179C395.5 41.911 395.911 41.5001 396.418 41.5001L464.582 41.5001C465.089 41.5001 465.5 41.911 465.5 42.4179L465.5 282.582C465.5 283.089 465.089 283.5 464.582 283.5L396.418 283.5C395.911 283.5 395.5 283.089 395.5 282.582Z" stroke="#172C51" stroke-width="3" stroke-miterlimit="8" fill="none" fill-rule="evenodd"/><rect x="475" y="65" width="60" height="105" stroke="#D9D9D9" stroke-width="2" stroke-miterlimit="8" fill="#548235"/><text fill="#FFFFFF" font-family="DengXian,DengXian_MSFontService,sans-serif" font-weight="400" font-size="24" transform="translate(488.581 125)">SM</text><rect x="475" y="45" width="60" height="18" stroke="#D9D9D9" stroke-width="2" stroke-miterlimit="8" fill="#3F3F41"/><text fill="#FFFFFF" font-family="DengXian,DengXian_MSFontService,sans-serif" font-weight="400" font-size="19" transform="translate(489.415 60)">TPC</text><rect x="475" y="174" width="60" height="105" stroke="#D9D9D9" stroke-width="2" stroke-miterlimit="8" fill="#548235"/><text fill="#FFFFFF" font-family="DengXian,DengXian_MSFontService,sans-serif" font-weight="400" font-size="24" transform="translate(488.581 234)">SM</text><path d="M470.5 42.4179C470.5 41.911 470.911 41.5001 471.418 41.5001L539.582 41.5001C540.089 41.5001 540.5 41.911 540.5 42.4179L540.5 282.582C540.5 283.089 540.089 283.5 539.582 283.5L471.418 283.5C470.911 283.5 470.5 283.089 470.5 282.582Z" stroke="#172C51" stroke-width="3" stroke-miterlimit="8" fill="none" fill-rule="evenodd"/><path d="M556.5 10.1839C556.5 8.14935 558.149 6.50005 560.184 6.50005L943.816 6.50005C945.851 6.50005 947.5 8.14935 947.5 10.1839L947.5 283.816C947.5 285.851 945.851 287.5 943.816 287.5L560.184 287.5C558.149 287.5 556.5 285.851 556.5 283.816Z" stroke="#172C51" stroke-width="3" stroke-miterlimit="8" fill="none" fill-rule="evenodd"/><text fill="#FFFFFF" font-family="DengXian,DengXian_MSFontService,sans-serif" font-weight="700" font-size="21" transform="translate(566.59 31)">GPC</text><rect x="571" y="65" width="60" height="105" stroke="#D9D9D9" stroke-width="2" stroke-miterlimit="8" fill="#548235"/><text fill="#FFFFFF" font-family="DengXian,DengXian_MSFontService,sans-serif" font-weight="400" font-size="24" transform="translate(584.179 125)">SM</text><rect x="571" y="45" width="60" height="18" stroke="#D9D9D9" stroke-width="2" stroke-miterlimit="8" fill="#3F3F41"/><text fill="#FFFFFF" font-family="DengXian,DengXian_MSFontService,sans-serif" font-weight="400" font-size="19" transform="translate(585.013 60)">TPC</text><rect x="571" y="174" width="60" height="105" stroke="#D9D9D9" stroke-width="2" stroke-miterlimit="8" fill="#548235"/><text fill="#FFFFFF" font-family="DengXian,DengXian_MSFontService,sans-serif" font-weight="400" font-size="24" transform="translate(584.179 234)">SM</text><path d="M565.5 42.4308C565.5 41.9168 565.917 41.5001 566.431 41.5001L635.569 41.5001C636.083 41.5001 636.5 41.9168 636.5 42.4308L636.5 282.569C636.5 283.083 636.083 283.5 635.569 283.5L566.431 283.5C565.917 283.5 565.5 283.083 565.5 282.569Z" stroke="#172C51" stroke-width="3" stroke-miterlimit="8" fill="none" fill-rule="evenodd"/><rect x="646" y="65" width="60" height="105" stroke="#D9D9D9" stroke-width="2" stroke-miterlimit="8" fill="#548235"/><text fill="#FFFFFF" font-family="DengXian,DengXian_MSFontService,sans-serif" font-weight="400" font-size="24" transform="translate(659.184 125)">SM</text><rect x="646" y="45" width="60" height="18" stroke="#D9D9D9" stroke-width="2" stroke-miterlimit="8" fill="#3F3F41"/><text fill="#FFFFFF" font-family="DengXian,DengXian_MSFontService,sans-serif" font-weight="400" font-size="19" transform="translate(660.017 60)">TPC</text><rect x="646" y="174" width="60" height="105" stroke="#D9D9D9" stroke-width="2" stroke-miterlimit="8" fill="#548235"/><text fill="#FFFFFF" font-family="DengXian,DengXian_MSFontService,sans-serif" font-weight="400" font-size="24" transform="translate(659.184 234)">SM</text><path d="M640.5 42.4308C640.5 41.9168 640.917 41.5001 641.431 41.5001L710.569 41.5001C711.083 41.5001 711.5 41.9168 711.5 42.4308L711.5 282.569C711.5 283.083 711.083 283.5 710.569 283.5L641.431 283.5C640.917 283.5 640.5 283.083 640.5 282.569Z" stroke="#172C51" stroke-width="3" stroke-miterlimit="8" fill="none" fill-rule="evenodd"/><rect x="721" y="65" width="60" height="105" stroke="#D9D9D9" stroke-width="2" stroke-miterlimit="8" fill="#548235"/><text fill="#FFFFFF" font-family="DengXian,DengXian_MSFontService,sans-serif" font-weight="400" font-size="24" transform="translate(734.189 125)">SM</text><rect x="721" y="45" width="60" height="18" stroke="#D9D9D9" stroke-width="2" stroke-miterlimit="8" fill="#3F3F41"/><text fill="#FFFFFF" font-family="DengXian,DengXian_MSFontService,sans-serif" font-weight="400" font-size="19" transform="translate(735.022 60)">TPC</text><rect x="721" y="174" width="60" height="105" stroke="#D9D9D9" stroke-width="2" stroke-miterlimit="8" fill="#548235"/><text fill="#FFFFFF" font-family="DengXian,DengXian_MSFontService,sans-serif" font-weight="400" font-size="24" transform="translate(734.189 234)">SM</text><path d="M715.5 42.4308C715.5 41.9168 715.917 41.5001 716.431 41.5001L785.569 41.5001C786.083 41.5001 786.5 41.9168 786.5 42.4308L786.5 282.569C786.5 283.083 786.083 283.5 785.569 283.5L716.431 283.5C715.917 283.5 715.5 283.083 715.5 282.569Z" stroke="#172C51" stroke-width="3" stroke-miterlimit="8" fill="none" fill-rule="evenodd"/><rect x="796" y="65" width="60" height="105" stroke="#D9D9D9" stroke-width="2" stroke-miterlimit="8" fill="#548235"/><text fill="#FFFFFF" font-family="DengXian,DengXian_MSFontService,sans-serif" font-weight="400" font-size="24" transform="translate(809.193 125)">SM</text><rect x="796" y="45" width="60" height="18" stroke="#D9D9D9" stroke-width="2" stroke-miterlimit="8" fill="#3F3F41"/><text fill="#FFFFFF" font-family="DengXian,DengXian_MSFontService,sans-serif" font-weight="400" font-size="19" transform="translate(810.027 60)">TPC</text><rect x="796" y="174" width="60" height="105" stroke="#D9D9D9" stroke-width="2" stroke-miterlimit="8" fill="#548235"/><text fill="#FFFFFF" font-family="DengXian,DengXian_MSFontService,sans-serif" font-weight="400" font-size="24" transform="translate(809.193 234)">SM</text><path d="M790.5 42.4308C790.5 41.9168 790.917 41.5001 791.431 41.5001L860.569 41.5001C861.083 41.5001 861.5 41.9168 861.5 42.4308L861.5 282.569C861.5 283.083 861.083 283.5 860.569 283.5L791.431 283.5C790.917 283.5 790.5 283.083 790.5 282.569Z" stroke="#172C51" stroke-width="3" stroke-miterlimit="8" fill="none" fill-rule="evenodd"/><rect x="871" y="65" width="60" height="105" stroke="#D9D9D9" stroke-width="2" stroke-miterlimit="8" fill="#548235"/><text fill="#FFFFFF" font-family="DengXian,DengXian_MSFontService,sans-serif" font-weight="400" font-size="24" transform="translate(884.198 125)">SM</text><rect x="871" y="45" width="60" height="18" stroke="#D9D9D9" stroke-width="2" stroke-miterlimit="8" fill="#3F3F41"/><text fill="#FFFFFF" font-family="DengXian,DengXian_MSFontService,sans-serif" font-weight="400" font-size="19" transform="translate(885.031 60)">TPC</text><rect x="871" y="174" width="60" height="105" stroke="#D9D9D9" stroke-width="2" stroke-miterlimit="8" fill="#548235"/><text fill="#FFFFFF" font-family="DengXian,DengXian_MSFontService,sans-serif" font-weight="400" font-size="24" transform="translate(884.198 234)">SM</text><path d="M865.5 42.4308C865.5 41.9168 865.917 41.5001 866.431 41.5001L935.569 41.5001C936.083 41.5001 936.5 41.9168 936.5 42.4308L936.5 282.569C936.5 283.083 936.083 283.5 935.569 283.5L866.431 283.5C865.917 283.5 865.5 283.083 865.5 282.569Z" stroke="#172C51" stroke-width="3" stroke-miterlimit="8" fill="none" fill-rule="evenodd"/><path d="M953.5 10.1838C953.5 8.14933 955.149 6.50005 957.184 6.50005L1339.82 6.50005C1341.85 6.50005 1343.5 8.14933 1343.5 10.1838L1343.5 283.816C1343.5 285.851 1341.85 287.5 1339.82 287.5L957.184 287.5C955.149 287.5 953.5 285.851 953.5 283.816Z" stroke="#172C51" stroke-width="3" stroke-miterlimit="8" fill="none" fill-rule="evenodd"/><text fill="#FFFFFF" font-family="DengXian,DengXian_MSFontService,sans-serif" font-weight="700" font-size="21" transform="translate(962.783 31)">GPC</text><rect x="967" y="65" width="60" height="105" stroke="#D9D9D9" stroke-width="2" stroke-miterlimit="8" fill="#548235"/><text fill="#FFFFFF" font-family="DengXian,DengXian_MSFontService,sans-serif" font-weight="400" font-size="24" transform="translate(980.372 125)">SM</text><rect x="967" y="45" width="60" height="18" stroke="#D9D9D9" stroke-width="2" stroke-miterlimit="8" fill="#3F3F41"/><text fill="#FFFFFF" font-family="DengXian,DengXian_MSFontService,sans-serif" font-weight="400" font-size="19" transform="translate(981.205 60)">TPC</text><rect x="967" y="174" width="60" height="105" stroke="#D9D9D9" stroke-width="2" stroke-miterlimit="8" fill="#548235"/><text fill="#FFFFFF" font-family="DengXian,DengXian_MSFontService,sans-serif" font-weight="400" font-size="24" transform="translate(980.372 234)">SM</text><path d="M961.5 42.4308C961.5 41.9168 961.917 41.5001 962.431 41.5001L1031.57 41.5001C1032.08 41.5001 1032.5 41.9168 1032.5 42.4308L1032.5 282.569C1032.5 283.083 1032.08 283.5 1031.57 283.5L962.431 283.5C961.917 283.5 961.5 283.083 961.5 282.569Z" stroke="#172C51" stroke-width="3" stroke-miterlimit="8" fill="none" fill-rule="evenodd"/><rect x="1042" y="65" width="60" height="105" stroke="#D9D9D9" stroke-width="2" stroke-miterlimit="8" fill="#548235"/><text fill="#FFFFFF" font-family="DengXian,DengXian_MSFontService,sans-serif" font-weight="400" font-size="24" transform="translate(1055.38 125)">SM</text><rect x="1042" y="45" width="60" height="18" stroke="#D9D9D9" stroke-width="2" stroke-miterlimit="8" fill="#3F3F41"/><text fill="#FFFFFF" font-family="DengXian,DengXian_MSFontService,sans-serif" font-weight="400" font-size="19" transform="translate(1056.21 60)">TPC</text><rect x="1042" y="174" width="60" height="105" stroke="#D9D9D9" stroke-width="2" stroke-miterlimit="8" fill="#548235"/><text fill="#FFFFFF" font-family="DengXian,DengXian_MSFontService,sans-serif" font-weight="400" font-size="24" transform="translate(1055.38 234)">SM</text><path d="M1036.5 42.4308C1036.5 41.9168 1036.92 41.5001 1037.43 41.5001L1106.57 41.5001C1107.08 41.5001 1107.5 41.9168 1107.5 42.4308L1107.5 282.569C1107.5 283.083 1107.08 283.5 1106.57 283.5L1037.43 283.5C1036.92 283.5 1036.5 283.083 1036.5 282.569Z" stroke="#172C51" stroke-width="3" stroke-miterlimit="8" fill="none" fill-rule="evenodd"/><rect x="1117" y="65" width="60" height="105" stroke="#D9D9D9" stroke-width="2" stroke-miterlimit="8" fill="#548235"/><text fill="#FFFFFF" font-family="DengXian,DengXian_MSFontService,sans-serif" font-weight="400" font-size="24" transform="translate(1130.38 125)">SM</text><rect x="1117" y="45" width="60" height="18" stroke="#D9D9D9" stroke-width="2" stroke-miterlimit="8" fill="#3F3F41"/><text fill="#FFFFFF" font-family="DengXian,DengXian_MSFontService,sans-serif" font-weight="400" font-size="19" transform="translate(1131.21 60)">TPC</text><rect x="1117" y="174" width="60" height="105" stroke="#D9D9D9" stroke-width="2" stroke-miterlimit="8" fill="#548235"/><text fill="#FFFFFF" font-family="DengXian,DengXian_MSFontService,sans-serif" font-weight="400" font-size="24" transform="translate(1130.38 234)">SM</text><path d="M1111.5 42.4308C1111.5 41.9168 1111.92 41.5001 1112.43 41.5001L1181.57 41.5001C1182.08 41.5001 1182.5 41.9168 1182.5 42.4308L1182.5 282.569C1182.5 283.083 1182.08 283.5 1181.57 283.5L1112.43 283.5C1111.92 283.5 1111.5 283.083 1111.5 282.569Z" stroke="#172C51" stroke-width="3" stroke-miterlimit="8" fill="none" fill-rule="evenodd"/><rect x="1192" y="65" width="60" height="105" stroke="#D9D9D9" stroke-width="2" stroke-miterlimit="8" fill="#548235"/><text fill="#FFFFFF" font-family="DengXian,DengXian_MSFontService,sans-serif" font-weight="400" font-size="24" transform="translate(1205.39 125)">SM</text><rect x="1192" y="45" width="60" height="18" stroke="#D9D9D9" stroke-width="2" stroke-miterlimit="8" fill="#3F3F41"/><text fill="#FFFFFF" font-family="DengXian,DengXian_MSFontService,sans-serif" font-weight="400" font-size="19" transform="translate(1206.22 60)">TPC</text><rect x="1192" y="174" width="60" height="105" stroke="#D9D9D9" stroke-width="2" stroke-miterlimit="8" fill="#548235"/><text fill="#FFFFFF" font-family="DengXian,DengXian_MSFontService,sans-serif" font-weight="400" font-size="24" transform="translate(1205.39 234)">SM</text><path d="M1186.5 42.4308C1186.5 41.9168 1186.92 41.5001 1187.43 41.5001L1256.57 41.5001C1257.08 41.5001 1257.5 41.9168 1257.5 42.4308L1257.5 282.569C1257.5 283.083 1257.08 283.5 1256.57 283.5L1187.43 283.5C1186.92 283.5 1186.5 283.083 1186.5 282.569Z" stroke="#172C51" stroke-width="3" stroke-miterlimit="8" fill="none" fill-rule="evenodd"/><rect x="1267" y="65" width="60" height="105" stroke="#D9D9D9" stroke-width="2" stroke-miterlimit="8" fill="#548235"/><text fill="#FFFFFF" font-family="DengXian,DengXian_MSFontService,sans-serif" font-weight="400" font-size="24" transform="translate(1280.39 125)">SM</text><rect x="1267" y="45" width="60" height="18" stroke="#D9D9D9" stroke-width="2" stroke-miterlimit="8" fill="#3F3F41"/><text fill="#FFFFFF" font-family="DengXian,DengXian_MSFontService,sans-serif" font-weight="400" font-size="19" transform="translate(1281.22 60)">TPC</text><rect x="1267" y="174" width="60" height="105" stroke="#D9D9D9" stroke-width="2" stroke-miterlimit="8" fill="#548235"/><text fill="#FFFFFF" font-family="DengXian,DengXian_MSFontService,sans-serif" font-weight="400" font-size="24" transform="translate(1280.39 234)">SM</text><path d="M1261.5 42.4308C1261.5 41.9168 1261.92 41.5001 1262.43 41.5001L1331.57 41.5001C1332.08 41.5001 1332.5 41.9168 1332.5 42.4308L1332.5 282.569C1332.5 283.083 1332.08 283.5 1331.57 283.5L1262.43 283.5C1261.92 283.5 1261.5 283.083 1261.5 282.569Z" stroke="#172C51" stroke-width="3" stroke-miterlimit="8" fill="none" fill-rule="evenodd"/><path d="M161.5 367.184C161.5 365.149 163.149 363.5 165.184 363.5L547.816 363.5C549.851 363.5 551.5 365.149 551.5 367.184L551.5 640.816C551.5 642.851 549.851 644.5 547.816 644.5L165.184 644.5C163.149 644.5 161.5 642.851 161.5 640.816Z" stroke="#172C51" stroke-width="3" stroke-miterlimit="8" fill="none" fill-rule="evenodd"/><text fill="#FFFFFF" font-family="DengXian,DengXian_MSFontService,sans-serif" font-weight="700" font-size="21" transform="translate(170.974 388)">GPC</text><rect x="175" y="423" width="60" height="105" stroke="#D9D9D9" stroke-width="2" stroke-miterlimit="8" fill="#548235"/><text fill="#FFFFFF" font-family="DengXian,DengXian_MSFontService,sans-serif" font-weight="400" font-size="24" transform="translate(188.563 483)">SM</text><rect x="175" y="402" width="60" height="18" stroke="#D9D9D9" stroke-width="2" stroke-miterlimit="8" fill="#3F3F41"/><text fill="#FFFFFF" font-family="DengXian,DengXian_MSFontService,sans-serif" font-weight="400" font-size="19" transform="translate(189.396 417)">TPC</text><rect x="175" y="532" width="60" height="104" stroke="#D9D9D9" stroke-width="2" stroke-miterlimit="8" fill="#548235"/><text fill="#FFFFFF" font-family="DengXian,DengXian_MSFontService,sans-serif" font-weight="400" font-size="24" transform="translate(188.563 592)">SM</text><path d="M170.5 400.418C170.5 399.911 170.911 399.5 171.418 399.5L239.582 399.5C240.089 399.5 240.5 399.911 240.5 400.418L240.5 640.582C240.5 641.089 240.089 641.5 239.582 641.5L171.418 641.5C170.911 641.5 170.5 641.089 170.5 640.582Z" stroke="#172C51" stroke-width="3" stroke-miterlimit="8" fill="none" fill-rule="evenodd"/><rect x="250" y="423" width="60" height="105" stroke="#D9D9D9" stroke-width="2" stroke-miterlimit="8" fill="#548235"/><text fill="#FFFFFF" font-family="DengXian,DengXian_MSFontService,sans-serif" font-weight="400" font-size="24" transform="translate(263.567 483)">SM</text><rect x="250" y="402" width="60" height="18" stroke="#D9D9D9" stroke-width="2" stroke-miterlimit="8" fill="#3F3F41"/><text fill="#FFFFFF" font-family="DengXian,DengXian_MSFontService,sans-serif" font-weight="400" font-size="19" transform="translate(264.401 417)">TPC</text><rect x="250" y="532" width="60" height="104" stroke="#D9D9D9" stroke-width="2" stroke-miterlimit="8" fill="#548235"/><text fill="#FFFFFF" font-family="DengXian,DengXian_MSFontService,sans-serif" font-weight="400" font-size="24" transform="translate(263.567 592)">SM</text><path d="M245.5 400.418C245.5 399.911 245.911 399.5 246.418 399.5L314.582 399.5C315.089 399.5 315.5 399.911 315.5 400.418L315.5 640.582C315.5 641.089 315.089 641.5 314.582 641.5L246.418 641.5C245.911 641.5 245.5 641.089 245.5 640.582Z" stroke="#172C51" stroke-width="3" stroke-miterlimit="8" fill="none" fill-rule="evenodd"/><rect x="325" y="423" width="60" height="105" stroke="#D9D9D9" stroke-width="2" stroke-miterlimit="8" fill="#548235"/><text fill="#FFFFFF" font-family="DengXian,DengXian_MSFontService,sans-serif" font-weight="400" font-size="24" transform="translate(338.572 483)">SM</text><rect x="325" y="402" width="60" height="18" stroke="#D9D9D9" stroke-width="2" stroke-miterlimit="8" fill="#3F3F41"/><text fill="#FFFFFF" font-family="DengXian,DengXian_MSFontService,sans-serif" font-weight="400" font-size="19" transform="translate(339.405 417)">TPC</text><rect x="325" y="532" width="60" height="104" stroke="#D9D9D9" stroke-width="2" stroke-miterlimit="8" fill="#548235"/><text fill="#FFFFFF" font-family="DengXian,DengXian_MSFontService,sans-serif" font-weight="400" font-size="24" transform="translate(338.572 592)">SM</text><path d="M320.5 400.418C320.5 399.911 320.911 399.5 321.418 399.5L389.582 399.5C390.089 399.5 390.5 399.911 390.5 400.418L390.5 640.582C390.5 641.089 390.089 641.5 389.582 641.5L321.418 641.5C320.911 641.5 320.5 641.089 320.5 640.582Z" stroke="#172C51" stroke-width="3" stroke-miterlimit="8" fill="none" fill-rule="evenodd"/><rect x="400" y="423" width="60" height="105" stroke="#D9D9D9" stroke-width="2" stroke-miterlimit="8" fill="#548235"/><text fill="#FFFFFF" font-family="DengXian,DengXian_MSFontService,sans-serif" font-weight="400" font-size="24" transform="translate(413.577 483)">SM</text><rect x="400" y="402" width="60" height="18" stroke="#D9D9D9" stroke-width="2" stroke-miterlimit="8" fill="#3F3F41"/><text fill="#FFFFFF" font-family="DengXian,DengXian_MSFontService,sans-serif" font-weight="400" font-size="19" transform="translate(414.41 417)">TPC</text><rect x="400" y="532" width="60" height="104" stroke="#D9D9D9" stroke-width="2" stroke-miterlimit="8" fill="#548235"/><text fill="#FFFFFF" font-family="DengXian,DengXian_MSFontService,sans-serif" font-weight="400" font-size="24" transform="translate(413.577 592)">SM</text><path d="M395.5 400.418C395.5 399.911 395.911 399.5 396.418 399.5L464.582 399.5C465.089 399.5 465.5 399.911 465.5 400.418L465.5 640.582C465.5 641.089 465.089 641.5 464.582 641.5L396.418 641.5C395.911 641.5 395.5 641.089 395.5 640.582Z" stroke="#172C51" stroke-width="3" stroke-miterlimit="8" fill="none" fill-rule="evenodd"/><rect x="475" y="423" width="60" height="105" stroke="#D9D9D9" stroke-width="2" stroke-miterlimit="8" fill="#548235"/><text fill="#FFFFFF" font-family="DengXian,DengXian_MSFontService,sans-serif" font-weight="400" font-size="24" transform="translate(488.581 483)">SM</text><rect x="475" y="402" width="60" height="18" stroke="#D9D9D9" stroke-width="2" stroke-miterlimit="8" fill="#3F3F41"/><text fill="#FFFFFF" font-family="DengXian,DengXian_MSFontService,sans-serif" font-weight="400" font-size="19" transform="translate(489.415 417)">TPC</text><rect x="475" y="532" width="60" height="104" stroke="#D9D9D9" stroke-width="2" stroke-miterlimit="8" fill="#548235"/><text fill="#FFFFFF" font-family="DengXian,DengXian_MSFontService,sans-serif" font-weight="400" font-size="24" transform="translate(488.581 592)">SM</text><path d="M470.5 400.418C470.5 399.911 470.911 399.5 471.418 399.5L539.582 399.5C540.089 399.5 540.5 399.911 540.5 400.418L540.5 640.582C540.5 641.089 540.089 641.5 539.582 641.5L471.418 641.5C470.911 641.5 470.5 641.089 470.5 640.582Z" stroke="#172C51" stroke-width="3" stroke-miterlimit="8" fill="none" fill-rule="evenodd"/><path d="M556.5 367.184C556.5 365.149 558.149 363.5 560.184 363.5L943.816 363.5C945.851 363.5 947.5 365.149 947.5 367.184L947.5 640.816C947.5 642.851 945.851 644.5 943.816 644.5L560.184 644.5C558.149 644.5 556.5 642.851 556.5 640.816Z" stroke="#172C51" stroke-width="3" stroke-miterlimit="8" fill="none" fill-rule="evenodd"/><text fill="#FFFFFF" font-family="DengXian,DengXian_MSFontService,sans-serif" font-weight="700" font-size="21" transform="translate(566.591 388)">GPC</text><rect x="571" y="423" width="60" height="105" stroke="#D9D9D9" stroke-width="2" stroke-miterlimit="8" fill="#548235"/><text fill="#FFFFFF" font-family="DengXian,DengXian_MSFontService,sans-serif" font-weight="400" font-size="24" transform="translate(584.179 483)">SM</text><rect x="571" y="402" width="60" height="18" stroke="#D9D9D9" stroke-width="2" stroke-miterlimit="8" fill="#3F3F41"/><text fill="#FFFFFF" font-family="DengXian,DengXian_MSFontService,sans-serif" font-weight="400" font-size="19" transform="translate(585.013 417)">TPC</text><rect x="571" y="532" width="60" height="104" stroke="#D9D9D9" stroke-width="2" stroke-miterlimit="8" fill="#548235"/><text fill="#FFFFFF" font-family="DengXian,DengXian_MSFontService,sans-serif" font-weight="400" font-size="24" transform="translate(584.179 592)">SM</text><path d="M565.5 400.431C565.5 399.917 565.917 399.5 566.431 399.5L635.569 399.5C636.083 399.5 636.5 399.917 636.5 400.431L636.5 640.569C636.5 641.083 636.083 641.5 635.569 641.5L566.431 641.5C565.917 641.5 565.5 641.083 565.5 640.569Z" stroke="#172C51" stroke-width="3" stroke-miterlimit="8" fill="none" fill-rule="evenodd"/><rect x="646" y="423" width="60" height="105" stroke="#D9D9D9" stroke-width="2" stroke-miterlimit="8" fill="#548235"/><text fill="#FFFFFF" font-family="DengXian,DengXian_MSFontService,sans-serif" font-weight="400" font-size="24" transform="translate(659.184 483)">SM</text><rect x="646" y="402" width="60" height="18" stroke="#D9D9D9" stroke-width="2" stroke-miterlimit="8" fill="#3F3F41"/><text fill="#FFFFFF" font-family="DengXian,DengXian_MSFontService,sans-serif" font-weight="400" font-size="19" transform="translate(660.017 417)">TPC</text><rect x="646" y="532" width="60" height="104" stroke="#D9D9D9" stroke-width="2" stroke-miterlimit="8" fill="#548235"/><text fill="#FFFFFF" font-family="DengXian,DengXian_MSFontService,sans-serif" font-weight="400" font-size="24" transform="translate(659.184 592)">SM</text><path d="M640.5 400.431C640.5 399.917 640.917 399.5 641.431 399.5L710.569 399.5C711.083 399.5 711.5 399.917 711.5 400.431L711.5 640.569C711.5 641.083 711.083 641.5 710.569 641.5L641.431 641.5C640.917 641.5 640.5 641.083 640.5 640.569Z" stroke="#172C51" stroke-width="3" stroke-miterlimit="8" fill="none" fill-rule="evenodd"/><rect x="721" y="423" width="60" height="105" stroke="#D9D9D9" stroke-width="2" stroke-miterlimit="8" fill="#548235"/><text fill="#FFFFFF" font-family="DengXian,DengXian_MSFontService,sans-serif" font-weight="400" font-size="24" transform="translate(734.189 483)">SM</text><rect x="721" y="402" width="60" height="18" stroke="#D9D9D9" stroke-width="2" stroke-miterlimit="8" fill="#3F3F41"/><text fill="#FFFFFF" font-family="DengXian,DengXian_MSFontService,sans-serif" font-weight="400" font-size="19" transform="translate(735.022 417)">TPC</text><rect x="721" y="532" width="60" height="104" stroke="#D9D9D9" stroke-width="2" stroke-miterlimit="8" fill="#548235"/><text fill="#FFFFFF" font-family="DengXian,DengXian_MSFontService,sans-serif" font-weight="400" font-size="24" transform="translate(734.189 592)">SM</text><path d="M715.5 400.431C715.5 399.917 715.917 399.5 716.431 399.5L785.569 399.5C786.083 399.5 786.5 399.917 786.5 400.431L786.5 640.569C786.5 641.083 786.083 641.5 785.569 641.5L716.431 641.5C715.917 641.5 715.5 641.083 715.5 640.569Z" stroke="#172C51" stroke-width="3" stroke-miterlimit="8" fill="none" fill-rule="evenodd"/><rect x="796" y="423" width="60" height="105" stroke="#D9D9D9" stroke-width="2" stroke-miterlimit="8" fill="#548235"/><text fill="#FFFFFF" font-family="DengXian,DengXian_MSFontService,sans-serif" font-weight="400" font-size="24" transform="translate(809.193 483)">SM</text><rect x="796" y="402" width="60" height="18" stroke="#D9D9D9" stroke-width="2" stroke-miterlimit="8" fill="#3F3F41"/><text fill="#FFFFFF" font-family="DengXian,DengXian_MSFontService,sans-serif" font-weight="400" font-size="19" transform="translate(810.027 417)">TPC</text><rect x="796" y="532" width="60" height="104" stroke="#D9D9D9" stroke-width="2" stroke-miterlimit="8" fill="#548235"/><text fill="#FFFFFF" font-family="DengXian,DengXian_MSFontService,sans-serif" font-weight="400" font-size="24" transform="translate(809.193 592)">SM</text><path d="M790.5 400.431C790.5 399.917 790.917 399.5 791.431 399.5L860.569 399.5C861.083 399.5 861.5 399.917 861.5 400.431L861.5 640.569C861.5 641.083 861.083 641.5 860.569 641.5L791.431 641.5C790.917 641.5 790.5 641.083 790.5 640.569Z" stroke="#172C51" stroke-width="3" stroke-miterlimit="8" fill="none" fill-rule="evenodd"/><rect x="871" y="423" width="60" height="105" stroke="#D9D9D9" stroke-width="2" stroke-miterlimit="8" fill="#548235"/><text fill="#FFFFFF" font-family="DengXian,DengXian_MSFontService,sans-serif" font-weight="400" font-size="24" transform="translate(884.198 483)">SM</text><rect x="871" y="402" width="60" height="18" stroke="#D9D9D9" stroke-width="2" stroke-miterlimit="8" fill="#3F3F41"/><text fill="#FFFFFF" font-family="DengXian,DengXian_MSFontService,sans-serif" font-weight="400" font-size="19" transform="translate(885.031 417)">TPC</text><rect x="871" y="532" width="60" height="104" stroke="#D9D9D9" stroke-width="2" stroke-miterlimit="8" fill="#548235"/><text fill="#FFFFFF" font-family="DengXian,DengXian_MSFontService,sans-serif" font-weight="400" font-size="24" transform="translate(884.198 592)">SM</text><path d="M865.5 400.431C865.5 399.917 865.917 399.5 866.431 399.5L935.569 399.5C936.083 399.5 936.5 399.917 936.5 400.431L936.5 640.569C936.5 641.083 936.083 641.5 935.569 641.5L866.431 641.5C865.917 641.5 865.5 641.083 865.5 640.569Z" stroke="#172C51" stroke-width="3" stroke-miterlimit="8" fill="none" fill-rule="evenodd"/><path d="M953.5 367.184C953.5 365.149 955.149 363.5 957.184 363.5L1339.82 363.5C1341.85 363.5 1343.5 365.149 1343.5 367.184L1343.5 640.816C1343.5 642.851 1341.85 644.5 1339.82 644.5L957.184 644.5C955.149 644.5 953.5 642.851 953.5 640.816Z" stroke="#172C51" stroke-width="3" stroke-miterlimit="8" fill="none" fill-rule="evenodd"/><text fill="#FFFFFF" font-family="DengXian,DengXian_MSFontService,sans-serif" font-weight="700" font-size="21" transform="translate(962.783 388)">GPC</text><rect x="967" y="423" width="60" height="105" stroke="#D9D9D9" stroke-width="2" stroke-miterlimit="8" fill="#548235"/><text fill="#FFFFFF" font-family="DengXian,DengXian_MSFontService,sans-serif" font-weight="400" font-size="24" transform="translate(980.372 483)">SM</text><rect x="967" y="402" width="60" height="18" stroke="#D9D9D9" stroke-width="2" stroke-miterlimit="8" fill="#3F3F41"/><text fill="#FFFFFF" font-family="DengXian,DengXian_MSFontService,sans-serif" font-weight="400" font-size="19" transform="translate(981.205 417)">TPC</text><rect x="967" y="532" width="60" height="104" stroke="#D9D9D9" stroke-width="2" stroke-miterlimit="8" fill="#548235"/><text fill="#FFFFFF" font-family="DengXian,DengXian_MSFontService,sans-serif" font-weight="400" font-size="24" transform="translate(980.372 592)">SM</text><path d="M961.5 400.431C961.5 399.917 961.917 399.5 962.431 399.5L1031.57 399.5C1032.08 399.5 1032.5 399.917 1032.5 400.431L1032.5 640.569C1032.5 641.083 1032.08 641.5 1031.57 641.5L962.431 641.5C961.917 641.5 961.5 641.083 961.5 640.569Z" stroke="#172C51" stroke-width="3" stroke-miterlimit="8" fill="none" fill-rule="evenodd"/><rect x="1042" y="423" width="60" height="105" stroke="#D9D9D9" stroke-width="2" stroke-miterlimit="8" fill="#548235"/><text fill="#FFFFFF" font-family="DengXian,DengXian_MSFontService,sans-serif" font-weight="400" font-size="24" transform="translate(1055.38 483)">SM</text><rect x="1042" y="402" width="60" height="18" stroke="#D9D9D9" stroke-width="2" stroke-miterlimit="8" fill="#3F3F41"/><text fill="#FFFFFF" font-family="DengXian,DengXian_MSFontService,sans-serif" font-weight="400" font-size="19" transform="translate(1056.21 417)">TPC</text><rect x="1042" y="532" width="60" height="104" stroke="#D9D9D9" stroke-width="2" stroke-miterlimit="8" fill="#548235"/><text fill="#FFFFFF" font-family="DengXian,DengXian_MSFontService,sans-serif" font-weight="400" font-size="24" transform="translate(1055.38 592)">SM</text><path d="M1036.5 400.431C1036.5 399.917 1036.92 399.5 1037.43 399.5L1106.57 399.5C1107.08 399.5 1107.5 399.917 1107.5 400.431L1107.5 640.569C1107.5 641.083 1107.08 641.5 1106.57 641.5L1037.43 641.5C1036.92 641.5 1036.5 641.083 1036.5 640.569Z" stroke="#172C51" stroke-width="3" stroke-miterlimit="8" fill="none" fill-rule="evenodd"/><rect x="1117" y="423" width="60" height="105" stroke="#D9D9D9" stroke-width="2" stroke-miterlimit="8" fill="#548235"/><text fill="#FFFFFF" font-family="DengXian,DengXian_MSFontService,sans-serif" font-weight="400" font-size="24" transform="translate(1130.38 483)">SM</text><rect x="1117" y="402" width="60" height="18" stroke="#D9D9D9" stroke-width="2" stroke-miterlimit="8" fill="#3F3F41"/><text fill="#FFFFFF" font-family="DengXian,DengXian_MSFontService,sans-serif" font-weight="400" font-size="19" transform="translate(1131.21 417)">TPC</text><rect x="1117" y="532" width="60" height="104" stroke="#D9D9D9" stroke-width="2" stroke-miterlimit="8" fill="#548235"/><text fill="#FFFFFF" font-family="DengXian,DengXian_MSFontService,sans-serif" font-weight="400" font-size="24" transform="translate(1130.38 592)">SM</text><path d="M1111.5 400.431C1111.5 399.917 1111.92 399.5 1112.43 399.5L1181.57 399.5C1182.08 399.5 1182.5 399.917 1182.5 400.431L1182.5 640.569C1182.5 641.083 1182.08 641.5 1181.57 641.5L1112.43 641.5C1111.92 641.5 1111.5 641.083 1111.5 640.569Z" stroke="#172C51" stroke-width="3" stroke-miterlimit="8" fill="none" fill-rule="evenodd"/><rect x="1192" y="423" width="60" height="105" stroke="#D9D9D9" stroke-width="2" stroke-miterlimit="8" fill="#548235"/><text fill="#FFFFFF" font-family="DengXian,DengXian_MSFontService,sans-serif" font-weight="400" font-size="24" transform="translate(1205.39 483)">SM</text><rect x="1192" y="402" width="60" height="18" stroke="#D9D9D9" stroke-width="2" stroke-miterlimit="8" fill="#3F3F41"/><text fill="#FFFFFF" font-family="DengXian,DengXian_MSFontService,sans-serif" font-weight="400" font-size="19" transform="translate(1206.22 417)">TPC</text><rect x="1192" y="532" width="60" height="104" stroke="#D9D9D9" stroke-width="2" stroke-miterlimit="8" fill="#548235"/><text fill="#FFFFFF" font-family="DengXian,DengXian_MSFontService,sans-serif" font-weight="400" font-size="24" transform="translate(1205.39 592)">SM</text><path d="M1186.5 400.431C1186.5 399.917 1186.92 399.5 1187.43 399.5L1256.57 399.5C1257.08 399.5 1257.5 399.917 1257.5 400.431L1257.5 640.569C1257.5 641.083 1257.08 641.5 1256.57 641.5L1187.43 641.5C1186.92 641.5 1186.5 641.083 1186.5 640.569Z" stroke="#172C51" stroke-width="3" stroke-miterlimit="8" fill="none" fill-rule="evenodd"/><rect x="1267" y="423" width="60" height="105" stroke="#D9D9D9" stroke-width="2" stroke-miterlimit="8" fill="#548235"/><text fill="#FFFFFF" font-family="DengXian,DengXian_MSFontService,sans-serif" font-weight="400" font-size="24" transform="translate(1280.39 483)">SM</text><rect x="1267" y="402" width="60" height="18" stroke="#D9D9D9" stroke-width="2" stroke-miterlimit="8" fill="#3F3F41"/><text fill="#FFFFFF" font-family="DengXian,DengXian_MSFontService,sans-serif" font-weight="400" font-size="19" transform="translate(1281.22 417)">TPC</text><rect x="1267" y="532" width="60" height="104" stroke="#D9D9D9" stroke-width="2" stroke-miterlimit="8" fill="#548235"/><text fill="#FFFFFF" font-family="DengXian,DengXian_MSFontService,sans-serif" font-weight="400" font-size="24" transform="translate(1280.39 592)">SM</text><path d="M1261.5 400.431C1261.5 399.917 1261.92 399.5 1262.43 399.5L1331.57 399.5C1332.08 399.5 1332.5 399.917 1332.5 400.431L1332.5 640.569C1332.5 641.083 1332.08 641.5 1331.57 641.5L1262.43 641.5C1261.92 641.5 1261.5 641.083 1261.5 640.569Z" stroke="#172C51" stroke-width="3" stroke-miterlimit="8" fill="none" fill-rule="evenodd"/></g></svg>