<svg width="952" height="774" xmlns="http://www.w3.org/2000/svg" xmlns:xlink="http://www.w3.org/1999/xlink" overflow="hidden"><g transform="translate(-87 -22)"><rect x="694.5" y="457.5" width="344" height="338" stroke="#5B9BD5" stroke-width="1.33333" stroke-miterlimit="8" fill="#DEEBF7"/><rect x="92.5001" y="457.5" width="344" height="338" stroke="#5B9BD5" stroke-width="1.33333" stroke-miterlimit="8" fill="#DEEBF7"/><path d="M351.5 624 357.75 624 357.75 579.5 370.25 579.5 370.25 624 376.5 624 364 636.5Z" stroke="#E7E6E6" stroke-width="1.33333" stroke-miterlimit="8" fill="#AFABAB" fill-rule="evenodd"/><path d="M188.5 624 194.75 624 194.75 579.5 207.25 579.5 207.25 624 213.5 624 201 636.5Z" stroke="#E7E6E6" stroke-width="1.33333" stroke-miterlimit="8" fill="#AFABAB" fill-rule="evenodd"/><rect x="173.5" y="514.5" width="62" height="61" stroke="#172C51" stroke-width="1.33333" stroke-miterlimit="8" stroke-dasharray="5.33333 4" fill="none"/><rect x="351.5" y="28.5001" width="489" height="130" stroke="#70AD47" stroke-width="1.33333" stroke-miterlimit="8" fill="#C5E0B4"/><rect x="361.5" y="61.5001" width="85" height="40" stroke="#FFC000" stroke-width="1.33333" stroke-miterlimit="8" fill="#FFE699"/><text font-family="DengXian,DengXian_MSFontService,sans-serif" font-weight="400" font-size="24" transform="translate(376.157 89)">Block</text><rect x="456.5" y="61.5001" width="85" height="40" stroke="#FFC000" stroke-width="1.33333" stroke-miterlimit="8" fill="#FFE699"/><text font-family="DengXian,DengXian_MSFontService,sans-serif" font-weight="400" font-size="24" transform="translate(471.412 89)">Block</text><rect x="551.5" y="61.5001" width="86" height="40" stroke="#FFC000" stroke-width="1.33333" stroke-miterlimit="8" fill="#FFE699"/><text font-family="DengXian,DengXian_MSFontService,sans-serif" font-weight="400" font-size="24" transform="translate(566.667 89)">Block</text><rect x="643.5" y="61.5001" width="86" height="40" stroke="#FFC000" stroke-width="1.33333" stroke-miterlimit="8" fill="#FFE699"/><text font-family="DengXian,DengXian_MSFontService,sans-serif" font-weight="400" font-size="24" transform="translate(658.667 89)">Block</text><rect x="361.5" y="105.5" width="85" height="40" stroke="#FFC000" stroke-width="1.33333" stroke-miterlimit="8" fill="#FFE699"/><text font-family="DengXian,DengXian_MSFontService,sans-serif" font-weight="400" font-size="24" transform="translate(376.157 133)">Block</text><rect x="456.5" y="105.5" width="85" height="40" stroke="#FFC000" stroke-width="1.33333" stroke-miterlimit="8" fill="#FFE699"/><text font-family="DengXian,DengXian_MSFontService,sans-serif" font-weight="400" font-size="24" transform="translate(471.412 133)">Block</text><rect x="551.5" y="105.5" width="86" height="40" stroke="#FFC000" stroke-width="1.33333" stroke-miterlimit="8" fill="#FFE699"/><text font-family="DengXian,DengXian_MSFontService,sans-serif" font-weight="400" font-size="24" transform="translate(566.667 133)">Block</text><rect x="643.5" y="105.5" width="86" height="40" stroke="#FFC000" stroke-width="1.33333" stroke-miterlimit="8" fill="#FFE699"/><text font-family="DengXian,DengXian_MSFontService,sans-serif" font-weight="400" font-size="24" transform="translate(658.667 133)">Block</text><rect x="739.5" y="61.5001" width="85" height="40" stroke="#FFC000" stroke-width="1.33333" stroke-miterlimit="8" fill="#FFE699"/><text font-family="DengXian,DengXian_MSFontService,sans-serif" font-weight="400" font-size="24" transform="translate(753.922 89)">Block</text><rect x="739.5" y="105.5" width="85" height="40" stroke="#FFC000" stroke-width="1.33333" stroke-miterlimit="8" fill="#FFE699"/><text font-family="DengXian,DengXian_MSFontService,sans-serif" font-weight="400" font-size="24" transform="translate(753.922 133)">Block</text><rect x="216.5" y="457.5" width="85" height="39" stroke="#FFC000" stroke-width="1.33333" stroke-miterlimit="8" fill="#FFE699"/><text font-family="DengXian,DengXian_MSFontService,sans-serif" font-weight="400" font-size="24" transform="translate(231.495 484)">Block</text><rect x="182.5" y="522.5" width="18" height="19" stroke="#ED7D31" stroke-width="1.33333" stroke-miterlimit="8" fill="#F8CBAD"/><rect x="210.5" y="522.5" width="19" height="19" stroke="#ED7D31" stroke-width="1.33333" stroke-miterlimit="8" fill="#F8CBAD"/><rect x="251.5" y="522.5" width="19" height="19" stroke="#ED7D31" stroke-width="1.33333" stroke-miterlimit="8" fill="#F8CBAD"/><rect x="278.5" y="522.5" width="19" height="19" stroke="#ED7D31" stroke-width="1.33333" stroke-miterlimit="8" fill="#F8CBAD"/><rect x="305.5" y="522.5" width="19" height="19" stroke="#ED7D31" stroke-width="1.33333" stroke-miterlimit="8" fill="#F8CBAD"/><rect x="182.5" y="550.5" width="18" height="19" stroke="#ED7D31" stroke-width="1.33333" stroke-miterlimit="8" fill="#F8CBAD"/><rect x="210.5" y="550.5" width="19" height="19" stroke="#ED7D31" stroke-width="1.33333" stroke-miterlimit="8" fill="#F8CBAD"/><rect x="251.5" y="550.5" width="19" height="19" stroke="#ED7D31" stroke-width="1.33333" stroke-miterlimit="8" fill="#F8CBAD"/><rect x="278.5" y="550.5" width="19" height="19" stroke="#ED7D31" stroke-width="1.33333" stroke-miterlimit="8" fill="#F8CBAD"/><rect x="305.5" y="550.5" width="19" height="19" stroke="#ED7D31" stroke-width="1.33333" stroke-miterlimit="8" fill="#F8CBAD"/><rect x="348.5" y="522.5" width="19" height="19" stroke="#44546A" stroke-width="1.33333" stroke-miterlimit="8" fill="#D0CECE"/><rect x="348.5" y="550.5" width="19" height="19" stroke="#44546A" stroke-width="1.33333" stroke-miterlimit="8" fill="#D0CECE"/><rect x="123.5" y="647.5" width="57" height="57" stroke="#70AD47" stroke-width="1.33333" stroke-miterlimit="8" fill="#548235"/><text fill="#FFFFFF" font-family="DengXian,DengXian_MSFontService,sans-serif" font-weight="400" font-size="19" transform="translate(133.68 669)">core</text><rect x="141.5" y="679.5" width="19" height="19" stroke="#ED7D31" stroke-width="1.33333" stroke-miterlimit="8" fill="#F8CBAD"/><rect x="213.5" y="647.5" width="57" height="57" stroke="#70AD47" stroke-width="1.33333" stroke-miterlimit="8" fill="#548235"/><text fill="#FFFFFF" font-family="DengXian,DengXian_MSFontService,sans-serif" font-weight="400" font-size="19" transform="translate(223.851 669)">core</text><rect x="232.5" y="679.5" width="19" height="19" stroke="#ED7D31" stroke-width="1.33333" stroke-miterlimit="8" fill="#F8CBAD"/><rect x="213.5" y="720.5" width="57" height="56" stroke="#70AD47" stroke-width="1.33333" stroke-miterlimit="8" fill="#548235"/><text fill="#FFFFFF" font-family="DengXian,DengXian_MSFontService,sans-serif" font-weight="400" font-size="19" transform="translate(223.851 741)">core</text><rect x="232.5" y="751.5" width="19" height="19" stroke="#ED7D31" stroke-width="1.33333" stroke-miterlimit="8" fill="#F8CBAD"/><rect x="123.5" y="720.5" width="57" height="56" stroke="#70AD47" stroke-width="1.33333" stroke-miterlimit="8" fill="#548235"/><text fill="#FFFFFF" font-family="DengXian,DengXian_MSFontService,sans-serif" font-weight="400" font-size="19" transform="translate(133.68 741)">core</text><rect x="141.5" y="751.5" width="19" height="19" stroke="#ED7D31" stroke-width="1.33333" stroke-miterlimit="8" fill="#F8CBAD"/><rect x="335.5" y="648.5" width="57" height="57" stroke="#70AD47" stroke-width="1.33333" stroke-miterlimit="8" fill="#548235"/><text fill="#FFFFFF" font-family="DengXian,DengXian_MSFontService,sans-serif" font-weight="400" font-size="19" transform="translate(347.74 670)">SFU</text><rect x="335.5" y="721.5" width="57" height="57" stroke="#70AD47" stroke-width="1.33333" stroke-miterlimit="8" fill="#548235"/><text fill="#FFFFFF" font-family="DengXian,DengXian_MSFontService,sans-serif" font-weight="400" font-size="19" transform="translate(347.74 743)">SFU</text><rect x="354.5" y="680.5" width="19" height="19" stroke="#44546A" stroke-width="1.33333" stroke-miterlimit="8" fill="#D0CECE"/><rect x="354.5" y="753.5" width="19" height="18" stroke="#44546A" stroke-width="1.33333" stroke-miterlimit="8" fill="#D0CECE"/><path d="M0.615856-0.255275 33.1415 78.2135 31.9098 78.724-0.615856 0.255275ZM35.7103 75.7054 35.0784 84.6273 28.32 78.7687Z" transform="matrix(-1 0 0 1 404.578 145.5)"/><path d="M0.648761-0.153472 19.1337 77.9863 17.8362 78.2932-0.648761 0.153472ZM22.0705 75.9213 20.0196 84.6273 14.2854 77.763Z" transform="matrix(-1 0 0 1 500.52 145.5)"/><path d="M0.666192-0.0251609 3.6108 77.9402 2.27842 77.9905-0.666192 0.0251609ZM6.89144 76.482 3.19622 84.6273-1.10286 76.784Z" transform="matrix(-1 0 0 1 594.696 145.5)"/><path d="M687.155 145.377 701.79 223.452 700.479 223.698 685.845 145.623ZM704.82 221.527 702.363 230.127 696.957 223.001Z"/><path d="M782.095 145.2 821.724 223.874 820.533 224.473 780.905 145.8ZM824.101 221.183 824.127 230.127 816.956 224.782Z"/><rect x="136.5" y="587.5" width="118" height="27" stroke="#000000" stroke-width="1.33333" stroke-miterlimit="8" fill="#EDEDED"/><text font-family="DengXian,DengXian_MSFontService,sans-serif" font-weight="400" font-size="24" transform="translate(166.923 608)">Warp</text><rect x="299.5" y="587.5" width="118" height="27" stroke="#000000" stroke-width="1.33333" stroke-miterlimit="8" fill="#EDEDED"/><text font-family="DengXian,DengXian_MSFontService,sans-serif" font-weight="400" font-size="24" transform="translate(330.204 608)">Warp</text><text font-family="DengXian,DengXian_MSFontService,sans-serif" font-weight="400" font-size="24" transform="translate(363.718 52)">Grid</text><rect x="321.5" y="230.5" width="95" height="130" stroke="#5B9BD5" stroke-width="1.33333" stroke-miterlimit="8" fill="#DEEBF7"/><rect x="326.5" y="315.5" width="85" height="40" stroke="#FFC000" stroke-width="1.33333" stroke-miterlimit="8" fill="#FFE699"/><text font-family="DengXian,DengXian_MSFontService,sans-serif" font-weight="400" font-size="24" transform="translate(341.353 342)">Block</text><rect x="326.5" y="262.5" width="85" height="39" stroke="#FFC000" stroke-width="1.33333" stroke-miterlimit="8" fill="#FFE699"/><text font-family="DengXian,DengXian_MSFontService,sans-serif" font-weight="400" font-size="24" transform="translate(341.353 289)">Block</text><text font-family="DengXian,DengXian_MSFontService,sans-serif" font-weight="400" font-size="24" transform="translate(330.685 252)">SM</text><rect x="216.5" y="392.5" width="85" height="40" stroke="#FFC000" stroke-width="1.33333" stroke-miterlimit="8" fill="#FFE699"/><text font-family="DengXian,DengXian_MSFontService,sans-serif" font-weight="400" font-size="24" transform="translate(231.495 419)">Block</text><rect x="432.5" y="230.5" width="95" height="130" stroke="#5B9BD5" stroke-width="1.33333" stroke-miterlimit="8" fill="#DEEBF7"/><rect x="437.5" y="315.5" width="85" height="40" stroke="#FFC000" stroke-width="1.33333" stroke-miterlimit="8" fill="#FFE699"/><text font-family="DengXian,DengXian_MSFontService,sans-serif" font-weight="400" font-size="24" transform="translate(452.412 342)">Block</text><rect x="437.5" y="262.5" width="85" height="39" stroke="#FFC000" stroke-width="1.33333" stroke-miterlimit="8" fill="#FFE699"/><text font-family="DengXian,DengXian_MSFontService,sans-serif" font-weight="400" font-size="24" transform="translate(452.412 289)">Block</text><text font-family="DengXian,DengXian_MSFontService,sans-serif" font-weight="400" font-size="24" transform="translate(441.744 252)">SM</text><rect x="543.5" y="230.5" width="95" height="130" stroke="#5B9BD5" stroke-width="1.33333" stroke-miterlimit="8" fill="#DEEBF7"/><rect x="548.5" y="315.5" width="85" height="40" stroke="#FFC000" stroke-width="1.33333" stroke-miterlimit="8" fill="#FFE699"/><text font-family="DengXian,DengXian_MSFontService,sans-serif" font-weight="400" font-size="24" transform="translate(563.47 342)">Block</text><rect x="548.5" y="262.5" width="85" height="39" stroke="#FFC000" stroke-width="1.33333" stroke-miterlimit="8" fill="#FFE699"/><text font-family="DengXian,DengXian_MSFontService,sans-serif" font-weight="400" font-size="24" transform="translate(563.47 289)">Block</text><text font-family="DengXian,DengXian_MSFontService,sans-serif" font-weight="400" font-size="24" transform="translate(551.994 252)">SM</text><rect x="654.5" y="230.5" width="95" height="130" stroke="#5B9BD5" stroke-width="1.33333" stroke-miterlimit="8" fill="#DEEBF7"/><rect x="659.5" y="315.5" width="85" height="40" stroke="#FFC000" stroke-width="1.33333" stroke-miterlimit="8" fill="#FFE699"/><text font-family="DengXian,DengXian_MSFontService,sans-serif" font-weight="400" font-size="24" transform="translate(674.529 342)">Block</text><rect x="659.5" y="262.5" width="85" height="39" stroke="#FFC000" stroke-width="1.33333" stroke-miterlimit="8" fill="#FFE699"/><text font-family="DengXian,DengXian_MSFontService,sans-serif" font-weight="400" font-size="24" transform="translate(674.529 289)">Block</text><text font-family="DengXian,DengXian_MSFontService,sans-serif" font-weight="400" font-size="24" transform="translate(665.002 252)">SM</text><rect x="776.5" y="230.5" width="96" height="130" stroke="#5B9BD5" stroke-width="1.33333" stroke-miterlimit="8" fill="#DEEBF7"/><rect x="781.5" y="315.5" width="86" height="40" stroke="#FFC000" stroke-width="1.33333" stroke-miterlimit="8" fill="#FFE699"/><text font-family="DengXian,DengXian_MSFontService,sans-serif" font-weight="400" font-size="24" transform="translate(796.549 342)">Block</text><rect x="781.5" y="262.5" width="86" height="39" stroke="#FFC000" stroke-width="1.33333" stroke-miterlimit="8" fill="#FFE699"/><text font-family="DengXian,DengXian_MSFontService,sans-serif" font-weight="400" font-size="24" transform="translate(796.549 289)">Block</text><text font-family="DengXian,DengXian_MSFontService,sans-serif" font-weight="400" font-size="24" transform="translate(785.73 252)">SM</text><rect x="342.5" y="514.5" width="31" height="61" stroke="#172C51" stroke-width="1.33333" stroke-miterlimit="8" stroke-dasharray="5.33333 4" fill="none"/><path d="M0 0 43.0844 37.5293" stroke="#000000" stroke-width="1.33333" stroke-miterlimit="8" fill="none" fill-rule="evenodd" transform="matrix(-1 0 0 1 216.584 477.5)"/><path d="M301.5 477.5 375.833 515.029" stroke="#000000" stroke-width="1.33333" stroke-miterlimit="8" fill="none" fill-rule="evenodd"/><rect x="340.5" y="177.5" width="512" height="28" stroke="#000000" stroke-width="1.33333" stroke-miterlimit="8" fill="#EDEDED"/><text font-family="DengXian,DengXian_MSFontService,sans-serif" font-weight="400" font-size="24" transform="translate(539.657 198)">GPC</text><text font-family="DengXian,DengXian_MSFontService,sans-serif" font-weight="400" font-size="24" transform="translate(583.823 198)">-</text><text font-family="DengXian,DengXian_MSFontService,sans-serif" font-weight="400" font-size="24" transform="translate(595.823 198)">&gt;TPC</text><path d="M953.5 623.5 960 623.5 960 579.5 973 579.5 973 623.5 979.5 623.5 966.5 636.5Z" stroke="#E7E6E6" stroke-width="1.33333" stroke-miterlimit="8" fill="#AFABAB" fill-rule="evenodd"/><path d="M782.5 623.5 789 623.5 789 579.5 802 579.5 802 623.5 808.5 623.5 795.5 636.5Z" stroke="#E7E6E6" stroke-width="1.33333" stroke-miterlimit="8" fill="#AFABAB" fill-rule="evenodd"/><rect x="776.5" y="514.5" width="40" height="61" stroke="#172C51" stroke-width="1.33333" stroke-miterlimit="8" stroke-dasharray="5.33333 4" fill="none"/><rect x="819.5" y="457.5" width="85" height="39" stroke="#FFC000" stroke-width="1.33333" stroke-miterlimit="8" fill="#FFE699"/><text font-family="DengXian,DengXian_MSFontService,sans-serif" font-weight="400" font-size="24" transform="translate(834.251 484)">Block</text><rect x="784.5" y="522.5" width="19" height="19" stroke="#ED7D31" stroke-width="1.33333" stroke-miterlimit="8" fill="#F8CBAD"/><rect x="784.5" y="550.5" width="19" height="19" stroke="#ED7D31" stroke-width="1.33333" stroke-miterlimit="8" fill="#F8CBAD"/><rect x="951.5" y="522.5" width="19" height="19" stroke="#44546A" stroke-width="1.33333" stroke-miterlimit="8" fill="#D0CECE"/><rect x="951.5" y="550.5" width="19" height="19" stroke="#44546A" stroke-width="1.33333" stroke-miterlimit="8" fill="#D0CECE"/><rect x="726.5" y="647.5" width="56" height="57" stroke="#70AD47" stroke-width="1.33333" stroke-miterlimit="8" fill="#548235"/><text fill="#FFFFFF" font-family="DengXian,DengXian_MSFontService,sans-serif" font-weight="400" font-size="19" transform="translate(736.437 669)">core</text><rect x="744.5" y="679.5" width="19" height="19" stroke="#ED7D31" stroke-width="1.33333" stroke-miterlimit="8" fill="#F8CBAD"/><rect x="816.5" y="647.5" width="57" height="57" stroke="#70AD47" stroke-width="1.33333" stroke-miterlimit="8" fill="#548235"/><text fill="#FFFFFF" font-family="DengXian,DengXian_MSFontService,sans-serif" font-weight="400" font-size="19" transform="translate(826.608 669)">core</text><rect x="816.5" y="720.5" width="57" height="56" stroke="#70AD47" stroke-width="1.33333" stroke-miterlimit="8" fill="#548235"/><text fill="#FFFFFF" font-family="DengXian,DengXian_MSFontService,sans-serif" font-weight="400" font-size="19" transform="translate(826.608 741)">core</text><rect x="726.5" y="720.5" width="56" height="56" stroke="#70AD47" stroke-width="1.33333" stroke-miterlimit="8" fill="#548235"/><text fill="#FFFFFF" font-family="DengXian,DengXian_MSFontService,sans-serif" font-weight="400" font-size="19" transform="translate(736.437 741)">core</text><rect x="744.5" y="751.5" width="19" height="19" stroke="#ED7D31" stroke-width="1.33333" stroke-miterlimit="8" fill="#F8CBAD"/><rect x="938.5" y="648.5" width="56" height="57" stroke="#70AD47" stroke-width="1.33333" stroke-miterlimit="8" fill="#548235"/><text fill="#FFFFFF" font-family="DengXian,DengXian_MSFontService,sans-serif" font-weight="400" font-size="19" transform="translate(950.497 670)">SFU</text><rect x="938.5" y="721.5" width="56" height="57" stroke="#70AD47" stroke-width="1.33333" stroke-miterlimit="8" fill="#548235"/><text fill="#FFFFFF" font-family="DengXian,DengXian_MSFontService,sans-serif" font-weight="400" font-size="19" transform="translate(950.497 743)">SFU</text><rect x="957.5" y="680.5" width="18" height="19" stroke="#44546A" stroke-width="1.33333" stroke-miterlimit="8" fill="#D0CECE"/><rect x="957.5" y="753.5" width="18" height="18" stroke="#44546A" stroke-width="1.33333" stroke-miterlimit="8" fill="#D0CECE"/><rect x="738.5" y="587.5" width="119" height="27" stroke="#000000" stroke-width="1.33333" stroke-miterlimit="8" fill="#EDEDED"/><text font-family="DengXian,DengXian_MSFontService,sans-serif" font-weight="400" font-size="24" transform="translate(769.68 608)">Warp</text><rect x="902.5" y="587.5" width="118" height="27" stroke="#000000" stroke-width="1.33333" stroke-miterlimit="8" fill="#EDEDED"/><text font-family="DengXian,DengXian_MSFontService,sans-serif" font-weight="400" font-size="24" transform="translate(932.961 608)">Warp</text><rect x="819.5" y="392.5" width="85" height="40" stroke="#FFC000" stroke-width="1.33333" stroke-miterlimit="8" fill="#FFE699"/><text font-family="DengXian,DengXian_MSFontService,sans-serif" font-weight="400" font-size="24" transform="translate(834.251 419)">Block</text><text font-family="DengXian,DengXian_MSFontService,sans-serif" font-weight="400" font-size="19" transform="translate(837.834 450)">等待</text><text font-family="DengXian,DengXian_MSFontService,sans-serif" font-weight="400" font-size="19" transform="translate(880.334 450)">…</text><rect x="945.5" y="514.5" width="31" height="61" stroke="#172C51" stroke-width="1.33333" stroke-miterlimit="8" stroke-dasharray="5.33333 4" fill="none"/><path d="M0 0 43.0844 37.5293" stroke="#000000" stroke-width="1.33333" stroke-miterlimit="8" fill="none" fill-rule="evenodd" transform="matrix(-1 0 0 1 819.584 477.5)"/><path d="M904.5 477.5 978.833 515.029" stroke="#000000" stroke-width="1.33333" stroke-miterlimit="8" fill="none" fill-rule="evenodd"/><rect x="915.5" y="522.5" width="19" height="19" stroke="#44546A" stroke-width="1.33333" stroke-miterlimit="8" fill="#D0CECE"/><rect x="915.5" y="550.5" width="19" height="19" stroke="#44546A" stroke-width="1.33333" stroke-miterlimit="8" fill="#D0CECE"/><rect x="885.5" y="522.5" width="19" height="19" stroke="#44546A" stroke-width="1.33333" stroke-miterlimit="8" fill="#D0CECE"/><rect x="885.5" y="550.5" width="19" height="19" stroke="#44546A" stroke-width="1.33333" stroke-miterlimit="8" fill="#D0CECE"/><text font-family="DengXian,DengXian_MSFontService,sans-serif" font-weight="400" font-size="19" transform="translate(825.325 693)">空闲</text><text font-family="DengXian,DengXian_MSFontService,sans-serif" font-weight="400" font-size="19" transform="translate(825.325 766)">空闲</text><path d="M0.186019-0.640188 103.642 29.421 103.27 30.7014-0.186019 0.640188ZM103.292 25.8481 109.858 31.9215 101.06 33.5304Z" transform="matrix(-1 0 0 1 369.358 360.5)"/><path d="M824.931 359.991 857.545 387.605 856.683 388.622 824.069 361.009ZM858.681 384.199 862.202 392.422 853.512 390.305Z"/><path d="M481.167 360.5 481.167 410.369 479.833 410.369 479.833 360.5ZM484.5 409.035 480.5 417.035 476.5 409.035Z"/><path d="M592.167 360.5 592.167 410.369 590.833 410.369 590.833 360.5ZM595.5 409.035 591.5 417.035 587.5 409.035Z"/><path d="M702.167 360.5 702.167 410.369 700.833 410.369 700.833 360.5ZM705.5 409.035 701.5 417.035 697.5 409.035Z"/><text font-family="DengXian,DengXian_MSFontService,sans-serif" font-weight="700" font-size="24" transform="translate(459.076 445)">……</text><text font-family="DengXian,DengXian_MSFontService,sans-serif" font-weight="700" font-size="24" transform="translate(579.343 445)">……</text><text font-family="DengXian,DengXian_MSFontService,sans-serif" font-weight="700" font-size="24" transform="translate(682.078 445)">……</text><text font-family="DengXian,DengXian_MSFontService,sans-serif" font-weight="400" font-size="19" transform="translate(232.129 450)">等待</text><text font-family="DengXian,DengXian_MSFontService,sans-serif" font-weight="400" font-size="19" transform="translate(274.629 450)">…</text><text font-family="DengXian,DengXian_MSFontService,sans-serif" font-weight="400" font-size="24" transform="translate(711.463 485)">SM</text><text font-family="DengXian,DengXian_MSFontService,sans-serif" font-weight="400" font-size="24" transform="translate(101.919 485)">SM</text><text font-family="DengXian,DengXian_MSFontService,sans-serif" font-weight="400" font-size="24" transform="translate(509.365 551)">拆分线程</text><path d="M622 541.25 748.5 541.25 748.5 538 755 544.5 748.5 551 748.5 547.75 622 547.75Z" fill="#A5A5A5" fill-rule="evenodd"/><path d="M502 549.25 389.5 549.25 389.5 553 382 545.5 389.5 538 389.5 541.75 502 541.75Z" fill="#A5A5A5" fill-rule="evenodd"/><text font-family="DengXian,DengXian_MSFontService,sans-serif" font-weight="400" font-size="24" transform="translate(509.365 603)">线程调度</text><path d="M622 594.25 722.5 594.25 722.5 591 729 597.5 722.5 604 722.5 600.75 622 600.75Z" fill="#A5A5A5" fill-rule="evenodd"/><path d="M502 601.5 432 601.5 432 605 425 598 432 591 432 594.5 502 594.5Z" fill="#A5A5A5" fill-rule="evenodd"/><text font-family="DengXian,DengXian_MSFontService,sans-serif" font-weight="400" font-size="24" transform="translate(509.365 703)">线程</text><text font-family="DengXian,DengXian_MSFontService,sans-serif" font-weight="400" font-size="24" transform="translate(557.365 703)">执行</text><path d="M622 694.25 712.5 694.25 712.5 691 719 697.5 712.5 704 712.5 700.75 622 700.75Z" fill="#A5A5A5" fill-rule="evenodd"/><path d="M502 701.5 417 701.5 417 705 410 698 417 691 417 694.5 502 694.5Z" fill="#A5A5A5" fill-rule="evenodd"/><text font-family="DengXian,DengXian_MSFontService,sans-serif" font-weight="400" font-size="24" transform="translate(864.048 187)">Block</text><text font-family="DengXian,DengXian_MSFontService,sans-serif" font-weight="400" font-size="24" transform="translate(918.715 187)">分配</text><text font-family="DengXian,DengXian_MSFontService,sans-serif" font-weight="400" font-size="24" transform="translate(843.382 216)">（动态分配）</text></g></svg>