<?xml version="1.0" encoding="UTF-8"?>
<svg id="_图层_1" data-name="图层 1" xmlns="http://www.w3.org/2000/svg" viewBox="0 0 791.25 150">
  <defs>
    <style>
      .cls-1 {
        fill: #fbe3d6;
      }

      .cls-2, .cls-3 {
        stroke: #042433;
      }

      .cls-2, .cls-3, .cls-4 {
        fill: none;
        stroke-miterlimit: 10;
      }

      .cls-2, .cls-4 {
        stroke-width: 1.5px;
      }

      .cls-3 {
        stroke-width: .25px;
      }

      .cls-5 {
        fill: #156082;
      }

      .cls-6 {
        fill: #c1e5f5;
      }

      .cls-7 {
        fill: #dceaf7;
      }

      .cls-4 {
        stroke: #156082;
      }

      .cls-8 {
        fill: #f2f2f2;
      }

      .cls-9 {
        fill: #d1d1d1;
      }
    </style>
  </defs>
  <path class="cls-5" d="M421.59,20.63l6.44,1.87-5.36,4.03-1.08-5.9ZM408.75,38.88l.03-.79.08-.82.15-.81.19-.8.23-.8.29-.8.71-1.52.87-1.48,1.03-1.42,1.17-1.33,1.29-1.24,1.41-1.14,1.5-1.04,1.59-.9,1.68-.79,1.95-.52.39,1.45-1.88.5.12-.04-1.6.74.05-.03-1.53.88.05-.03-1.45,1,.05-.04-1.36,1.1.05-.04-1.24,1.2.04-.05-1.13,1.29.05-.06-.99,1.36.04-.06-.84,1.42.03-.07-.67,1.46.02-.05-.27.74v-.04s-.21.75-.21.75v-.04s-.17.76-.17.76v-.04s-.13.76-.13.76v-.05s-.06.76-.06.76v-.04l-.03.77-1.5-.06Z"/>
  <path class="cls-5" d="M626.34,20.63l6.44,1.87-5.36,4.03-1.08-5.9ZM613.5,38.88l.03-.79.08-.82.15-.81.19-.8.23-.8.29-.8.71-1.52.87-1.48,1.03-1.42,1.17-1.33,1.29-1.24,1.41-1.14,1.5-1.04,1.59-.9,1.68-.79,1.95-.52.39,1.45-1.88.5.12-.04-1.6.74.05-.03-1.53.88.05-.03-1.45,1,.05-.04-1.36,1.1.05-.04-1.24,1.2.04-.05-1.13,1.29.05-.06-.99,1.36.04-.06-.84,1.42.03-.07-.67,1.46.02-.05-.27.74v-.04s-.21.75-.21.75v-.04s-.17.76-.17.76v-.04s-.13.76-.13.76v-.05s-.06.76-.06.76v-.04l-.03.77-1.5-.06Z"/>
  <circle class="cls-1" cx="93" cy="22.5" r="21.75"/>
  <circle class="cls-2" cx="93" cy="22.5" r="21.75"/>
  <path d="M81.18,14.68h1.51l3.1,5.05,3.14-5.05h1.5l-3.86,6.27,4.11,6.67h-1.51l-3.37-5.43-3.37,5.43h-1.51l4.13-6.67-3.86-6.27Z"/>
  <path d="M93.02,32.37l.09-.4c.11-.03.2-.05.28-.07.08-.02.15-.05.2-.08.06-.03.11-.08.15-.14.04-.06.08-.14.12-.23.04-.1.08-.23.12-.39.04-.16.09-.35.14-.59l1.33-5.97h-.91c-.15,0-.27,0-.37.01-.1,0-.19.03-.28.07-.08.04-.16.09-.23.16s-.15.16-.22.27c-.08.11-.16.26-.25.42-.09.17-.19.37-.31.6h-.71l.5-2.23h7.2l-.53,2.33h-.69v-.38c0-.07,0-.15,0-.24,0-.09-.02-.18-.03-.27-.01-.09-.03-.17-.05-.25-.02-.08-.04-.14-.06-.19-.03-.06-.06-.11-.1-.15-.03-.04-.07-.07-.13-.09-.05-.02-.11-.04-.18-.05-.07,0-.16-.01-.27-.01h-1.06l-1.36,6.02c-.05.2-.08.38-.1.52-.02.14-.03.27-.03.39,0,.09.02.16.04.23.02.06.06.12.12.16.06.04.13.08.23.1.1.02.22.04.38.05l-.09.4h-2.92Z"/>
  <circle class="cls-1" cx="314.25" cy="22.5" r="21.75"/>
  <circle class="cls-2" cx="314.25" cy="22.5" r="21.75"/>
  <path d="M304.83,14.68h1.51l3.1,5.05,3.14-5.05h1.5l-3.86,6.27,4.11,6.67h-1.51l-3.37-5.43-3.37,5.43h-1.51l4.13-6.67-3.86-6.27Z"/>
  <path d="M317.52,30.42c0,.24.03.39.09.43s.23.07.49.07h.55v.78c-.38.06-.68.09-.89.09-.41,0-.7-.1-.89-.3-.19-.2-.28-.51-.28-.93v-5.41h-1.27v-.78h1.27v-2.77h.93v2.77h1.46v.78h-1.46v5.26Z"/>
  <circle class="cls-1" cx="504" cy="22.5" r="21.75"/>
  <circle class="cls-2" cx="504" cy="22.5" r="21.75"/>
  <path d="M485.98,14.68h1.51l3.1,5.05,3.14-5.05h1.5l-3.86,6.27,4.11,6.67h-1.51l-3.37-5.43-3.37,5.43h-1.51l4.13-6.67-3.86-6.27Z"/>
  <path d="M498.65,30.42c0,.24.03.39.09.43s.23.07.49.07h.55v.78c-.38.06-.68.09-.89.09-.41,0-.7-.1-.89-.3-.19-.2-.28-.51-.28-.93v-5.41h-1.27v-.78h1.27v-2.77h.93v2.77h1.46v.78h-1.46v5.26Z"/>
  <path d="M501.79,26.24h6.68v.91h-6.68v-.91Z"/>
  <path d="M513.03,21.85h1.91v9.71h-.96v-8.76h-1.53l.58-.95Z"/>
  <circle class="cls-1" cx="768.75" cy="22.5" r="21.75"/>
  <circle class="cls-2" cx="768.75" cy="22.5" r="21.75"/>
  <path d="M758.41,14.68h1.51l3.1,5.05,3.14-5.05h1.5l-3.86,6.27,4.11,6.67h-1.51l-3.37-5.43-3.37,5.43h-1.51l4.13-6.67-3.86-6.27Z"/>
  <path d="M772.02,31.8c-1.05,0-1.85-.43-2.41-1.29-.56-.86-.85-2.13-.85-3.81s.28-2.95.85-3.81c.56-.86,1.36-1.29,2.4-1.29s1.86.44,2.47,1.32c.61.88.91,2.14.91,3.78s-.31,2.9-.92,3.78c-.61.88-1.43,1.32-2.45,1.32ZM772.05,22.52c-.75,0-1.33.36-1.75,1.08s-.62,1.76-.62,3.12c0,2.8.79,4.19,2.37,4.19.77,0,1.36-.37,1.79-1.1.43-.73.64-1.77.64-3.12s-.22-2.38-.66-3.1c-.44-.72-1.03-1.08-1.77-1.08Z"/>
  <rect class="cls-7" x="71.25" y="120" width="140.25" height="29.25"/>
  <rect class="cls-2" x="71.25" y="120" width="140.25" height="29.25"/>
  <g>
    <path d="M109.33,133.48c-.84,0-1.52.01-2.04.04-.52.02-.93.06-1.23.11v-1.14c.3.06.74.1,1.33.13.59.02,1.41.04,2.45.04s1.82-.01,2.48-.04c.65-.02,1.12-.07,1.4-.13l-1.48,3.1-.99-.42.92-1.69h-1.78v6.69c0,.37-.03.68-.1.93s-.2.45-.4.61-.48.29-.85.37c-.37.08-.86.15-1.47.2,0-.49-.17-.96-.52-1.39.87.18,1.46.2,1.78.06.32-.14.49-.46.49-.96v-6.51ZM111.19,128.18h-1.64c-.4,0-.74,0-1.04,0-.29,0-.56.01-.79.02-.23,0-.45.02-.65.04-.2.02-.39.03-.59.04v-1.04c.17.02.34.04.5.05s.37.02.59.03c.23,0,.5.01.82.02.32,0,.71,0,1.16,0,.84,0,1.49-.01,1.96-.04.46-.03.84-.06,1.13-.1v1.06c-.14.07-.27.15-.39.22-.11.08-.26.21-.43.41-.17.19-.39.46-.64.8-.25.34-.58.81-.99,1.4.19.13.37.26.54.4.17.13.34.26.5.4l-.74.76c-.35-.36-.75-.71-1.2-1.04-.45-.33-1.01-.7-1.69-1.11l.52-.74c.23.13.45.26.67.4s.43.26.63.4l1.75-2.38ZM118.29,133.57c-.1.02-.17.12-.22.28-.05.16-.07.33-.05.51.02.66.02,1.22-.02,1.69-.04.46-.08.94-.13,1.43-.06.62-.19,1.18-.38,1.68-.19.49-.48.95-.87,1.37-.38.42-.88.81-1.49,1.17s-1.36.71-2.26,1.06c0-.3-.06-.54-.18-.72-.12-.18-.32-.37-.61-.56.75-.16,1.4-.34,1.96-.55.56-.21,1.03-.48,1.42-.8s.69-.72.92-1.2c.23-.47.39-1.05.49-1.74.04-.22.06-.5.06-.86,0-.35,0-.74,0-1.15,0-.41-.02-.82-.04-1.23-.02-.41-.04-.78-.08-1.11.24.08.5.15.79.21.29.05.5.08.63.08s.2.06.21.19c0,.13-.04.21-.15.24ZM117.3,128.45c-1.03,0-1.87,0-2.52.03s-1.15.06-1.5.12v-1.15c.36.06.87.1,1.54.12.67.02,1.57.03,2.71.03,1.02,0,1.93,0,2.73-.03.8-.02,1.38-.06,1.74-.12v1.15c-.31-.05-.79-.08-1.42-.1-.64-.02-1.36-.03-2.18-.04-.13.34-.28.71-.43,1.12-.16.41-.34.88-.54,1.41.5,0,.94,0,1.32,0,.37,0,.71-.01,1-.03.29-.01.56-.02.79-.04.23-.01.45-.02.66-.04-.01.2-.02.39-.03.55,0,.16,0,.32,0,.49v4.5c0,.43,0,.84,0,1.22,0,.38.02.75.03,1.13h-1.12v-6.92h-4.85v7.17h-1.12c.02-.38.04-.76.04-1.14,0-.37,0-.78,0-1.23v-3.59c0-.49,0-.91-.02-1.25-.01-.34-.03-.65-.05-.93.23.05.51.08.84.09s.8.02,1.42.02c.23-.42.42-.84.58-1.26.16-.42.28-.84.38-1.26ZM121.79,142.54c-.18-.24-.37-.47-.58-.68s-.44-.43-.72-.66c-.28-.23-.6-.47-.97-.74-.37-.26-.82-.58-1.35-.94l.54-.81c.4.24.78.49,1.15.76.37.26.73.53,1.06.78.34.26.65.51.93.76.28.25.53.48.75.69l-.81.83Z"/>
    <path d="M128.42,136.2c-.1.25-.24.59-.42,1-.19.41-.4.89-.65,1.41-.25.53-.52,1.11-.82,1.73-.3.62-.62,1.27-.96,1.95-.2-.21-.41-.36-.62-.47-.21-.11-.43-.19-.66-.25.31-.41.62-.86.92-1.36s.59-1.01.86-1.54c.27-.53.52-1.07.74-1.63.22-.56.41-1.11.57-1.65.13.23.29.41.46.53s.37.22.59.28ZM127.37,133.6c-.2-.19-.44-.4-.7-.61-.26-.22-.53-.43-.8-.64-.27-.21-.54-.41-.8-.59-.26-.19-.5-.34-.7-.46l.69-.81c.38.28.72.52,1.02.73.29.21.56.4.8.58.24.17.46.34.66.5s.4.31.6.47l-.76.85ZM128.13,129.13c-.22-.23-.43-.44-.63-.63-.2-.19-.41-.37-.63-.53s-.45-.32-.69-.46c-.25-.14-.51-.29-.8-.43l.69-.87c.52.34,1,.67,1.46.99s.91.66,1.37,1.01l-.76.92ZM132.89,130.88c-.1.07-.15.23-.17.46s-.03.61-.04,1.13c-.01.43-.02.81-.03,1.12,0,.31-.02.6-.04.87s-.04.52-.05.77c-.02.25-.04.53-.08.86-.07.72-.18,1.36-.32,1.93-.14.56-.35,1.09-.62,1.58s-.61.96-1.03,1.43-.92.96-1.52,1.48c-.17-.21-.35-.37-.54-.49-.19-.12-.44-.22-.74-.31.7-.43,1.27-.85,1.73-1.25s.82-.82,1.1-1.26.49-.92.63-1.44c.14-.52.25-1.12.31-1.79.05-.54.08-1.08.11-1.6.02-.53.04-1.04.04-1.53s0-.96-.03-1.41c-.02-.44-.05-.85-.1-1.21.22.13.44.22.68.25s.44.04.6.02c.12-.01.2.02.25.11.05.08,0,.19-.13.31ZM134.03,137.39v-9.07h-3.6v9.25h-1.14c.05-.38.08-.8.11-1.25.02-.45.04-.93.04-1.43v-4.69c0-.67-.01-1.25-.04-1.72-.02-.47-.05-.85-.09-1.13.17.04.33.07.48.1s.32.05.52.06c.2.01.44.02.72.03.28,0,.64,0,1.07,0,.41,0,.77,0,1.07,0,.31,0,.58-.02.81-.04.23-.02.44-.04.63-.06.19-.02.37-.05.55-.09-.04.26-.06.61-.08,1.05s-.03,1.03-.03,1.8v4.65c0,.2,0,.42,0,.66,0,.23.02.47.04.7s.03.45.04.66c.01.2.03.38.05.52h-1.17ZM135.22,141.15c-.14-.22-.3-.43-.46-.65-.16-.22-.35-.45-.55-.69-.2-.25-.44-.51-.71-.78-.27-.28-.57-.58-.91-.9l.6-.76c.65.54,1.21,1.04,1.68,1.51s.92.96,1.35,1.48l-.99.79ZM136.28,138.34c.06-.45.1-.9.13-1.35.02-.46.04-.91.04-1.35v-4.78c0-.2,0-.42-.02-.66-.01-.23-.03-.46-.04-.68-.02-.22-.04-.44-.06-.64-.02-.2-.05-.38-.07-.52.25.06.46.1.63.11s.36,0,.58-.02c.11-.01.17.01.18.07.01.06-.03.14-.13.23-.05.05-.08.12-.08.22,0,.1,0,.2,0,.31v6.34c0,.42,0,.85.03,1.3.02.45.05.92.1,1.42h-1.26ZM140.19,126.59c-.07.06-.12.12-.14.19-.02.07-.04.17-.04.32v13.97c0,.3-.03.55-.09.74s-.2.35-.41.47c-.21.12-.53.22-.95.3-.42.08-.99.16-1.71.24-.04-.23-.09-.43-.16-.6-.07-.17-.21-.42-.41-.75.6.04,1.08.05,1.43.04.35,0,.62-.04.8-.09.18-.05.3-.13.35-.23.05-.1.08-.23.08-.39v-11.92c0-.59-.01-1.13-.04-1.61-.02-.49-.06-.87-.11-1.16.24.05.44.08.61.09.17.01.38.01.63,0,.17-.01.27.03.3.12.03.09-.02.18-.15.28Z"/>
    <path d="M157.24,127.2c-.02.18-.04.37-.06.57s-.03.42-.04.65c0,.23-.01.5-.02.79,0,.29,0,.63,0,1v10.06c0,.46-.03.82-.1,1.1-.07.28-.21.5-.42.66s-.53.28-.96.36c-.42.08-.98.14-1.68.19,0-.29-.03-.54-.09-.74s-.19-.43-.38-.68c.55.04.99.05,1.32.04.33-.01.58-.06.76-.15.17-.09.29-.23.33-.42.05-.19.07-.43.07-.75v-11.5h-11.14v14.08h-1.37c.05-.32.09-.62.12-.88.03-.26.05-.52.07-.77.02-.25.03-.51.04-.78,0-.27,0-.57,0-.89v-8.92c0-.38,0-.72,0-1.01,0-.29-.01-.55-.02-.78,0-.23-.02-.45-.04-.64s-.04-.38-.06-.56c.32.04.68.07,1.07.09.39.02.85.04,1.38.06.53.02,1.14.03,1.85.04.7,0,1.53,0,2.48,0,1.11,0,2.04,0,2.8,0,.76,0,1.41-.02,1.94-.04.53-.02.96-.04,1.29-.06.33-.02.62-.05.86-.09ZM147.92,133.33c.46-1.38.79-2.8,1.01-4.25.4.25.8.38,1.21.38.1,0,.16.04.18.12.02.08-.03.17-.16.26-.06.04-.11.1-.16.19-.05.09-.13.3-.24.62s-.27.8-.47,1.43-.47,1.5-.82,2.62c.31.77.6,1.51.86,2.24s.5,1.37.7,1.95l-1.08.49c-.13-.5-.29-1.03-.46-1.58-.17-.55-.36-1.11-.57-1.69-.25.59-.54,1.21-.87,1.86-.33.65-.64,1.21-.93,1.69-.35-.26-.75-.44-1.19-.52.48-.6.93-1.27,1.34-2.02.41-.74.8-1.54,1.14-2.4-.35-.91-.71-1.79-1.08-2.62-.37-.83-.73-1.55-1.08-2.15l.96-.5c.25.54.53,1.14.82,1.81.29.67.59,1.36.89,2.08ZM153.1,132.86c.43-1.23.79-2.45,1.06-3.68.42.24.79.38,1.12.42.13.02.21.07.23.13.02.07-.04.14-.17.23-.06.04-.13.13-.22.29s-.19.4-.32.72c-.13.33-.28.74-.47,1.25-.19.51-.41,1.13-.66,1.87.41.89.78,1.75,1.13,2.59.34.84.62,1.57.82,2.19l-.99.43c-.23-.69-.46-1.34-.7-1.96-.24-.62-.49-1.24-.76-1.86-.12.29-.26.61-.41.96s-.32.7-.49,1.05c-.17.35-.34.7-.51,1.04-.17.35-.34.67-.5.96-.17-.14-.34-.26-.52-.34s-.37-.15-.56-.2c.44-.62.87-1.34,1.29-2.15s.8-1.67,1.14-2.59c-.31-.71-.64-1.41-.99-2.1-.35-.69-.72-1.38-1.1-2.06l.87-.54c.55.97,1.12,2.1,1.71,3.37Z"/>
    <path d="M161.86,132.84c-.23.02-.46.06-.69.11s-.44.11-.6.18c-.01-.22-.06-.45-.14-.69s-.18-.45-.29-.6c.18-.04.38-.16.59-.37.21-.21.44-.53.68-.96s.5-.97.78-1.64.59-1.48.91-2.44c.42.29.84.48,1.24.58.18.04.28.1.29.19.01.09-.07.17-.25.22-.1.04-.2.1-.3.19s-.24.29-.42.59-.43.75-.74,1.34-.73,1.39-1.24,2.4l2.54-.13c.3-.54.53-.99.7-1.35.17-.36.29-.66.36-.9.19.17.39.32.6.47.21.14.4.26.57.34.13.07.19.15.19.23s-.09.13-.26.15c-.04.01-.08.04-.13.07-.05.04-.12.12-.22.24-.1.13-.23.31-.41.56-.17.25-.4.58-.68,1-.28.42-.62.94-1.03,1.57-.41.62-.9,1.38-1.48,2.27l3.41-.58c-.1.35-.11.68-.05.99l-3.15.49c-.77.11-1.33.25-1.68.41-.05-.43-.17-.82-.38-1.17.34-.1.62-.24.84-.44.22-.2.44-.45.64-.77.67-1.06,1.22-1.95,1.64-2.69l-1.84.13ZM166.49,139.71c-1.41.28-2.61.54-3.6.78s-1.74.44-2.22.61c-.04-.25-.09-.49-.17-.7-.08-.22-.2-.44-.35-.69,1.02-.05,2.02-.16,3.01-.32.99-.17,2.05-.41,3.21-.72-.01.31.03.66.13,1.04ZM168.31,130.54c-.17.29-.35.57-.56.86-.2.28-.44.58-.72.89-.11-.14-.23-.27-.37-.38s-.32-.21-.55-.31c.32-.28.64-.61.96-1.01.31-.4.6-.83.86-1.3s.49-.97.69-1.5c.2-.54.37-1.08.49-1.63.24.13.45.23.63.29.18.06.37.1.56.11.13,0,.2.04.22.12.01.08-.05.17-.18.26-.2.12-.52.61-.94,1.46,1.01,0,1.85,0,2.53,0s1.24-.01,1.69-.02c.44,0,.79-.01,1.03-.03.24-.01.41-.03.52-.05-.17.42-.37.85-.61,1.28-.24.43-.5.86-.78,1.27-.28.41-.58.81-.88,1.18-.31.37-.61.71-.91,1.01.72.5,1.47.93,2.25,1.27s1.57.6,2.36.77c-.17.16-.32.35-.44.57-.13.22-.22.45-.28.69-1.07-.48-1.98-.93-2.72-1.34-.75-.41-1.41-.83-1.98-1.25-.59.48-1.28.93-2.06,1.35-.79.42-1.71.83-2.77,1.23-.1-.24-.19-.43-.29-.57-.1-.14-.25-.29-.45-.44,1.03-.28,1.93-.6,2.7-.98.77-.38,1.45-.8,2.05-1.25-.38-.36-.74-.74-1.07-1.15-.33-.41-.65-.87-.96-1.37ZM168.78,142.61h-1.15c.02-.2.04-.43.05-.68.01-.25.02-.57.02-.96v-3.23c0-.46,0-.79-.02-1.01-.01-.22-.03-.43-.05-.63.3.02.75.04,1.33.06.59.02,1.32.03,2.18.03s1.54,0,2.07-.03c.53-.02.95-.04,1.26-.06-.02.19-.04.41-.04.64,0,.23,0,.57,0,1v2.94c0,.7.02,1.24.05,1.64h-1.15v-.97h-4.54v1.26ZM168.98,129.28c-.04.06-.07.12-.1.19-.03.07-.06.13-.1.19.32.54.68,1.04,1.08,1.49.4.45.82.87,1.28,1.25.48-.43.92-.91,1.32-1.43.4-.52.74-1.08,1.02-1.69h-4.51ZM173.32,137.06h-4.54v3.37h4.54v-3.37Z"/>
  </g>
  <path class="cls-5" d="M286.36,19.5l6,3-6,3v-6ZM123.75,21.75h163.61v1.5H123.75v-1.5Z"/>
  <path class="cls-5" d="M101.25,114.3l-3,6-3-6h6ZM99,72v43.3h-1.5v-43.3h1.5Z"/>
  <polygon points="95.91 54.34 95.91 65.72 94.74 65.72 94.74 54.34 90.88 54.34 90.88 53.32 99.85 53.32 99.85 54.34 95.91 54.34"/>
  <path class="cls-5" d="M195.75,74.25l-3-6-3,6h6ZM193.5,78.2v-4.95h-1.5v4.95h1.5ZM193.5,88.7v-6h-1.5v6h1.5ZM193.5,99.2v-6h-1.5v6h1.5ZM193.5,109.7v-6h-1.5v6h1.5ZM193.5,120.2v-6h-1.5v6h1.5Z"/>
  <rect class="cls-9" x="153.75" y="39" width="78" height="29.25"/>
  <rect class="cls-2" x="153.75" y="39" width="78" height="29.25"/>
  <path d="M173.81,60.43l-7.4-11.02c.05.95.08,1.71.08,2.29v8.73h-1.11v-12.4h1.38l7.46,11.1c-.06-.83-.1-1.65-.1-2.47v-8.63h1.13v12.4h-1.44ZM186.69,55.95c0,1.46-.38,2.6-1.14,3.42-.76.83-1.83,1.24-3.2,1.24s-2.36-.42-3.12-1.25c-.76-.84-1.14-1.97-1.14-3.41s.38-2.6,1.14-3.42c.76-.82,1.81-1.23,3.17-1.23s2.46.4,3.19,1.19c.73.8,1.1,1.95,1.1,3.45ZM185.52,55.95c0-1.23-.26-2.16-.77-2.79-.52-.62-1.28-.94-2.31-.94s-1.83.32-2.36.96c-.54.64-.81,1.56-.81,2.76s.27,2.11.8,2.76c.53.65,1.29.98,2.27.98,1.06,0,1.85-.32,2.39-.95.53-.63.8-1.56.8-2.79ZM188.44,49v-1.36h1.12v1.36h-1.12ZM188.44,60.43v-8.96h1.12v8.96h-1.12ZM198.26,57.96c0,.84-.28,1.5-.83,1.96-.55.46-1.33.69-2.34.69-.94,0-1.68-.17-2.21-.5-.53-.33-.89-.88-1.08-1.66l1.03-.18c.12.49.36.85.71,1.1.35.25.86.37,1.54.37,1.38,0,2.08-.56,2.08-1.68,0-.32-.06-.57-.19-.77-.13-.2-.3-.36-.52-.49-.22-.13-.48-.23-.78-.32-.3-.08-.63-.17-.98-.27-.65-.16-1.13-.34-1.46-.54-.33-.2-.58-.46-.75-.76-.18-.31-.26-.68-.26-1.12,0-.79.24-1.41.73-1.84.49-.43,1.2-.65,2.15-.65.86,0,1.52.16,1.99.48.47.32.79.82.95,1.51l-1.06.12c-.1-.44-.3-.76-.6-.95-.3-.19-.73-.29-1.29-.29-.6,0-1.05.13-1.35.39-.3.26-.44.63-.44,1.1,0,.31.06.55.17.73.11.18.28.34.51.46.23.13.74.3,1.55.51.79.22,1.35.43,1.68.64.33.21.59.47.77.77.18.31.28.7.28,1.17ZM200.99,56.13c0,1.12.25,1.99.74,2.62.5.62,1.19.94,2.07.94.59,0,1.1-.12,1.53-.37.43-.24.79-.65,1.1-1.23l.89.48c-.41.73-.9,1.26-1.48,1.57-.58.31-1.26.47-2.07.47-1.27,0-2.25-.4-2.93-1.21-.68-.81-1.02-1.98-1.02-3.51,0-.98.16-1.81.48-2.5.32-.69.78-1.21,1.37-1.56.59-.35,1.28-.53,2.06-.53,1.22,0,2.15.39,2.8,1.17.65.78.97,1.9.97,3.36v.3h-6.52ZM206.35,55.26c-.11-2.02-.99-3.04-2.64-3.04-.82,0-1.46.26-1.93.77-.46.51-.72,1.27-.77,2.27h5.33Z"/>
  <polygon points="217.98 49.05 217.98 60.43 216.81 60.43 216.81 49.05 212.95 49.05 212.95 48.03 221.92 48.03 221.92 49.05 217.98 49.05"/>
  <path class="cls-5" d="M467.12,19.5l6,3-6,3v-6ZM339,21.75h129.12v1.5h-129.12v-1.5Z"/>
  <path class="cls-5" d="M316.5,114.3l-3,6-3-6h6ZM314.25,72v43.3h-1.5v-43.3h1.5Z"/>
  <path d="M311.16,65.66c-.51.13-1.05.2-1.63.2-.65,0-1.15-.17-1.48-.52-.34-.35-.51-.86-.51-1.53v-6.13h-1.32v-.92h1.34l.3-2.07h.81v2.07h2.39v.92h-2.39v5.92c0,.42.08.75.26.99.17.23.48.35.92.35.38,0,.82-.05,1.32-.16v.87h0Z"/>
  <path class="cls-5" d="M411,71.25l-3-6-3,6h6ZM408.75,74.69v-4.44h-1.5v4.44h1.5ZM408.75,85.19v-6h-1.5v6h1.5ZM408.75,95.69v-6h-1.5v6h1.5ZM408.75,106.19v-6h-1.5v6h1.5ZM408.75,116.69v-6h-1.5v6h1.5ZM408.75,127.19v-6h-1.5v6h1.5ZM408.75,137.69v-6h-1.5v6h1.5ZM408.75,148.19v-6h-1.5v6h1.5Z"/>
  <rect class="cls-9" x="368.25" y="36" width="78.75" height="29.25"/>
  <rect class="cls-2" x="368.25" y="36" width="78.75" height="29.25"/>
  <path d="M390.74,57.7l-7.4-11.02c.05.95.08,1.71.08,2.29v8.73h-1.11v-12.4h1.38l7.46,11.1c-.06-.83-.1-1.65-.1-2.47v-8.63h1.13v12.4h-1.44ZM403.62,53.22c0,1.46-.38,2.6-1.14,3.42-.76.83-1.83,1.24-3.2,1.24s-2.36-.42-3.12-1.25c-.76-.84-1.14-1.97-1.14-3.41s.38-2.6,1.14-3.42c.76-.82,1.81-1.23,3.17-1.23s2.46.4,3.19,1.19c.73.8,1.1,1.95,1.1,3.45ZM402.45,53.22c0-1.23-.26-2.16-.77-2.79-.52-.62-1.29-.94-2.31-.94s-1.83.32-2.36.96c-.54.64-.81,1.56-.81,2.76s.27,2.11.8,2.76c.53.65,1.29.98,2.27.98,1.06,0,1.85-.32,2.39-.95.53-.63.8-1.56.8-2.79ZM405.37,46.27v-1.36h1.12v1.36h-1.12ZM405.37,57.7v-8.96h1.12v8.96h-1.12ZM415.19,55.23c0,.84-.28,1.5-.83,1.96-.55.46-1.33.69-2.34.69-.94,0-1.68-.17-2.21-.5-.53-.33-.89-.88-1.08-1.66l1.03-.18c.12.49.36.85.71,1.1.35.25.86.37,1.54.37,1.38,0,2.08-.56,2.08-1.68,0-.32-.06-.57-.19-.77-.13-.2-.3-.36-.52-.49-.22-.13-.48-.23-.78-.32-.3-.08-.63-.17-.98-.27-.65-.16-1.13-.34-1.46-.54-.33-.2-.58-.46-.75-.76-.18-.31-.26-.68-.26-1.12,0-.79.24-1.41.73-1.84.49-.43,1.2-.65,2.15-.65.86,0,1.52.16,1.99.48.47.32.79.82.95,1.51l-1.06.12c-.1-.44-.3-.76-.6-.95-.3-.19-.73-.29-1.29-.29-.6,0-1.05.13-1.35.39-.3.26-.44.63-.44,1.1,0,.31.06.55.17.73.11.18.28.34.51.46.23.13.74.3,1.55.51.79.22,1.35.43,1.68.64.33.21.59.47.77.77.18.31.28.7.28,1.17ZM417.92,53.4c0,1.12.25,1.99.74,2.62.5.62,1.19.94,2.07.94.59,0,1.1-.12,1.53-.37.43-.24.79-.65,1.1-1.23l.89.48c-.41.73-.9,1.26-1.48,1.57-.58.31-1.26.47-2.07.47-1.27,0-2.25-.4-2.93-1.21-.68-.81-1.02-1.98-1.02-3.51,0-.98.16-1.81.48-2.5.32-.69.78-1.21,1.37-1.56s1.28-.53,2.06-.53c1.22,0,2.15.39,2.8,1.17.65.78.97,1.9.97,3.36v.3h-6.52ZM423.28,52.53c-.11-2.02-.99-3.04-2.64-3.04-.82,0-1.46.26-1.93.77-.46.51-.72,1.27-.77,2.27h5.33Z"/>
  <path d="M435.04,57.64c-.51.13-1.05.2-1.63.2-.65,0-1.15-.17-1.48-.52-.34-.35-.51-.86-.51-1.53v-6.13h-1.32v-.92h1.34l.3-2.07h.81v2.07h2.39v.92h-2.39v5.92c0,.42.08.75.26.99.17.23.48.35.92.35.38,0,.82-.05,1.32-.16v.87h0Z"/>
  <path class="cls-5" d="M682.19,19.5l6,3-6,3v-6ZM533.25,21.75h149.94v1.5h-149.94v-1.5Z"/>
  <path class="cls-5" d="M510.75,114.3l-3,6-3-6h6ZM508.5,72v43.3h-1.5v-43.3h1.5Z"/>
  <path d="M505.82,65.66c-.51.13-1.05.2-1.63.2-.65,0-1.15-.17-1.48-.52-.34-.35-.51-.86-.51-1.53v-6.13h-1.32v-.92h1.34l.3-2.07h.81v2.07h2.39v.92h-2.39v5.92c0,.42.08.75.26.99.17.23.48.35.92.35.38,0,.82-.05,1.32-.16v.87h0Z"/>
  <rect x="508.17" y="60.73" width="5.1" height="1"/>
  <polygon points="516.58 65.72 516.58 64.78 519.75 64.78 519.75 54.48 516.92 56.36 516.92 55.35 519.88 53.32 520.85 53.32 520.85 64.78 523.55 64.78 523.55 65.72 516.58 65.72"/>
  <path class="cls-5" d="M609.79,70.52l2.96-6.02,3.04,5.98-6,.04ZM612.07,73.94l-.03-4.43,1.5-.02.03,4.44h-1.5ZM612.14,84.44l-.04-6h1.5s.04,5.99.04,5.99h-1.5ZM612.22,94.94l-.04-6h1.5s.04,5.99.04,5.99h-1.5ZM612.3,105.44l-.05-6h1.5s.05,5.99.05,5.99h-1.5ZM612.37,115.94l-.04-6h1.5s.04,5.99.04,5.99h-1.5ZM612.45,126.44l-.04-6h1.5s.04,5.99.04,5.99h-1.5ZM612.52,136.94l-.04-6h1.5s.04,5.99.04,5.99h-1.5ZM612.6,147.44l-.04-6h1.5s.04,5.99.04,5.99h-1.5Z"/>
  <rect class="cls-9" x="563.25" y="35.25" width="99" height="29.25"/>
  <rect class="cls-2" x="563.25" y="35.25" width="99" height="29.25"/>
  <path d="M586.36,56.78l-7.4-11.02c.05.95.08,1.71.08,2.29v8.73h-1.11v-12.4h1.38l7.46,11.1c-.06-.83-.1-1.65-.1-2.47v-8.63h1.13v12.4h-1.44ZM599.24,52.3c0,1.46-.38,2.6-1.14,3.42-.76.83-1.83,1.24-3.2,1.24s-2.36-.42-3.12-1.25c-.76-.84-1.14-1.97-1.14-3.41s.38-2.6,1.14-3.42c.76-.82,1.81-1.23,3.17-1.23s2.46.4,3.19,1.19c.73.8,1.1,1.95,1.1,3.45ZM598.07,52.3c0-1.23-.26-2.16-.77-2.79-.52-.62-1.28-.94-2.31-.94s-1.83.32-2.36.96c-.54.64-.81,1.56-.81,2.76s.27,2.11.8,2.76c.53.65,1.29.98,2.27.98,1.06,0,1.85-.32,2.39-.95.53-.63.8-1.56.8-2.79ZM600.99,45.35v-1.36h1.12v1.36h-1.12ZM600.99,56.78v-8.96h1.12v8.96h-1.12ZM610.81,54.31c0,.84-.28,1.5-.83,1.96-.55.46-1.33.69-2.34.69-.94,0-1.68-.17-2.21-.5-.53-.33-.89-.88-1.08-1.66l1.03-.18c.12.49.36.85.71,1.1.35.25.86.37,1.54.37,1.38,0,2.08-.56,2.08-1.68,0-.32-.06-.57-.19-.77-.13-.2-.3-.36-.52-.49-.22-.13-.48-.23-.78-.32-.3-.08-.63-.17-.98-.27-.65-.16-1.13-.34-1.46-.54-.33-.2-.58-.46-.75-.76-.18-.31-.26-.68-.26-1.12,0-.79.24-1.41.73-1.84.49-.43,1.2-.65,2.15-.65.86,0,1.52.16,1.99.48.47.32.79.82.95,1.51l-1.06.12c-.1-.44-.3-.76-.6-.95-.3-.19-.73-.29-1.29-.29-.6,0-1.05.13-1.35.39-.3.26-.44.63-.44,1.1,0,.31.06.55.17.73.11.18.28.34.51.46.23.13.74.3,1.55.51.79.22,1.35.43,1.68.64.33.21.59.47.77.77s.28.7.28,1.17ZM613.54,52.48c0,1.12.25,1.99.74,2.62.5.62,1.19.94,2.07.94.59,0,1.1-.12,1.53-.37.43-.24.79-.65,1.1-1.23l.89.48c-.41.73-.9,1.26-1.48,1.57-.58.31-1.26.47-2.07.47-1.27,0-2.25-.4-2.93-1.21-.68-.81-1.02-1.98-1.02-3.51,0-.98.16-1.81.48-2.5.32-.69.78-1.21,1.37-1.56.59-.35,1.28-.53,2.06-.53,1.22,0,2.15.39,2.8,1.17.65.78.97,1.9.97,3.36v.3h-6.52ZM618.9,51.61c-.11-2.02-.99-3.04-2.64-3.04-.82,0-1.46.26-1.93.77-.46.51-.72,1.27-.77,2.27h5.33Z"/>
  <path d="M630.67,56.72c-.51.13-1.05.2-1.63.2-.65,0-1.15-.17-1.48-.52-.34-.35-.51-.86-.51-1.53v-6.13h-1.32v-.92h1.34l.3-2.07h.81v2.07h2.39v.92h-2.39v5.92c0,.42.08.75.26.99.17.23.48.35.92.35.38,0,.82-.05,1.32-.16v.87h0Z"/>
  <rect x="633.05" y="51.79" width="5.1" height="1"/>
  <polygon points="641.46 56.78 641.46 55.84 644.63 55.84 644.63 45.54 641.8 47.42 641.8 46.41 644.76 44.38 645.73 44.38 645.73 55.84 648.43 55.84 648.43 56.78 641.46 56.78"/>
  <path class="cls-5" d="M730.47,19.5l6,3-6,3v-6ZM691.5,21.75h39.97v1.5h-39.97v-1.5Z"/>
  <rect class="cls-7" x="298.5" y="120" width="140.25" height="29.25"/>
  <rect class="cls-2" x="298.5" y="120" width="140.25" height="29.25"/>
  <g>
    <path d="M336.82,133.48c-.84,0-1.52.01-2.04.04-.52.02-.93.06-1.23.11v-1.14c.3.06.74.1,1.33.13.59.02,1.41.04,2.45.04s1.82-.01,2.48-.04c.65-.02,1.12-.07,1.4-.13l-1.48,3.1-.99-.42.92-1.69h-1.78v6.69c0,.37-.03.68-.1.93s-.2.45-.4.61-.48.29-.85.37c-.37.08-.86.15-1.47.2,0-.49-.17-.96-.52-1.39.87.18,1.46.2,1.78.06.32-.14.49-.46.49-.96v-6.51ZM338.68,128.18h-1.64c-.4,0-.74,0-1.04,0-.29,0-.56.01-.79.02-.23,0-.45.02-.65.04-.2.02-.39.03-.59.04v-1.04c.17.02.34.04.5.05s.37.02.59.03c.23,0,.5.01.82.02.32,0,.71,0,1.16,0,.84,0,1.49-.01,1.96-.04.46-.03.84-.06,1.13-.1v1.06c-.14.07-.27.15-.39.22-.11.08-.26.21-.43.41-.17.19-.39.46-.64.8-.25.34-.58.81-.99,1.4.19.13.37.26.54.4.17.13.34.26.5.4l-.74.76c-.35-.36-.75-.71-1.2-1.04-.45-.33-1.01-.7-1.69-1.11l.52-.74c.23.13.45.26.67.4s.43.26.63.4l1.75-2.38ZM345.78,133.57c-.1.02-.17.12-.22.28-.05.16-.07.33-.05.51.02.66.02,1.22-.02,1.69-.04.46-.08.94-.13,1.43-.06.62-.19,1.18-.38,1.68-.19.49-.48.95-.87,1.37-.38.42-.88.81-1.49,1.17s-1.36.71-2.26,1.06c0-.3-.06-.54-.18-.72-.12-.18-.32-.37-.61-.56.75-.16,1.4-.34,1.96-.55.56-.21,1.03-.48,1.42-.8s.69-.72.92-1.2c.23-.47.39-1.05.49-1.74.04-.22.06-.5.06-.86,0-.35,0-.74,0-1.15,0-.41-.02-.82-.04-1.23-.02-.41-.04-.78-.08-1.11.24.08.5.15.79.21.29.05.5.08.63.08s.2.06.21.19c0,.13-.04.21-.15.24ZM344.79,128.45c-1.03,0-1.87,0-2.52.03s-1.15.06-1.5.12v-1.15c.36.06.87.1,1.54.12.67.02,1.57.03,2.71.03,1.02,0,1.93,0,2.73-.03.8-.02,1.38-.06,1.74-.12v1.15c-.31-.05-.79-.08-1.42-.1-.64-.02-1.36-.03-2.18-.04-.13.34-.28.71-.43,1.12-.16.41-.34.88-.54,1.41.5,0,.94,0,1.32,0,.37,0,.71-.01,1-.03.29-.01.56-.02.79-.04.23-.01.45-.02.66-.04-.01.2-.02.39-.03.55,0,.16,0,.32,0,.49v4.5c0,.43,0,.84,0,1.22,0,.38.02.75.03,1.13h-1.12v-6.92h-4.85v7.17h-1.12c.02-.38.04-.76.04-1.14,0-.37,0-.78,0-1.23v-3.59c0-.49,0-.91-.02-1.25-.01-.34-.03-.65-.05-.93.23.05.51.08.84.09s.8.02,1.42.02c.23-.42.42-.84.58-1.26.16-.42.28-.84.38-1.26ZM349.28,142.54c-.18-.24-.37-.47-.58-.68s-.44-.43-.72-.66c-.28-.23-.6-.47-.97-.74-.37-.26-.82-.58-1.35-.94l.54-.81c.4.24.78.49,1.15.76.37.26.73.53,1.06.78.34.26.65.51.93.76.28.25.53.48.75.69l-.81.83Z"/>
    <path d="M355.91,136.2c-.1.25-.24.59-.42,1-.19.41-.4.89-.65,1.41-.25.53-.52,1.11-.82,1.73-.3.62-.62,1.27-.96,1.95-.2-.21-.41-.36-.62-.47-.21-.11-.43-.19-.66-.25.31-.41.62-.86.92-1.36s.59-1.01.86-1.54c.27-.53.52-1.07.74-1.63.22-.56.41-1.11.57-1.65.13.23.29.41.46.53s.37.22.59.28ZM354.86,133.6c-.2-.19-.44-.4-.7-.61-.26-.22-.53-.43-.8-.64-.27-.21-.54-.41-.8-.59-.26-.19-.5-.34-.7-.46l.69-.81c.38.28.72.52,1.02.73.29.21.56.4.8.58.24.17.46.34.66.5s.4.31.6.47l-.76.85ZM355.62,129.13c-.22-.23-.43-.44-.63-.63-.2-.19-.41-.37-.63-.53s-.45-.32-.69-.46c-.25-.14-.51-.29-.8-.43l.69-.87c.52.34,1,.67,1.46.99s.91.66,1.37,1.01l-.76.92ZM360.38,130.88c-.1.07-.15.23-.17.46s-.03.61-.04,1.13c-.01.43-.02.81-.03,1.12,0,.31-.02.6-.04.87s-.04.52-.05.77c-.02.25-.04.53-.08.86-.07.72-.18,1.36-.32,1.93-.14.56-.35,1.09-.62,1.58s-.61.96-1.03,1.43-.92.96-1.52,1.48c-.17-.21-.35-.37-.54-.49-.19-.12-.44-.22-.74-.31.7-.43,1.27-.85,1.73-1.25s.82-.82,1.1-1.26.49-.92.63-1.44c.14-.52.25-1.12.31-1.79.05-.54.08-1.08.11-1.6.02-.53.04-1.04.04-1.53s0-.96-.03-1.41c-.02-.44-.05-.85-.1-1.21.22.13.44.22.68.25s.44.04.6.02c.12-.01.2.02.25.11.05.08,0,.19-.13.31ZM361.52,137.39v-9.07h-3.6v9.25h-1.14c.05-.38.08-.8.11-1.25.02-.45.04-.93.04-1.43v-4.69c0-.67-.01-1.25-.04-1.72-.02-.47-.05-.85-.09-1.13.17.04.33.07.48.1s.32.05.52.06c.2.01.44.02.72.03.28,0,.64,0,1.07,0,.41,0,.77,0,1.07,0,.31,0,.58-.02.81-.04.23-.02.44-.04.63-.06.19-.02.37-.05.55-.09-.04.26-.06.61-.08,1.05s-.03,1.03-.03,1.8v4.65c0,.2,0,.42,0,.66,0,.23.02.47.04.7s.03.45.04.66c.01.2.03.38.05.52h-1.17ZM362.71,141.15c-.14-.22-.3-.43-.46-.65-.16-.22-.35-.45-.55-.69-.2-.25-.44-.51-.71-.78-.27-.28-.57-.58-.91-.9l.6-.76c.65.54,1.21,1.04,1.68,1.51s.92.96,1.35,1.48l-.99.79ZM363.77,138.34c.06-.45.1-.9.13-1.35.02-.46.04-.91.04-1.35v-4.78c0-.2,0-.42-.02-.66-.01-.23-.03-.46-.04-.68-.02-.22-.04-.44-.06-.64-.02-.2-.05-.38-.07-.52.25.06.46.1.63.11s.36,0,.58-.02c.11-.01.17.01.18.07.01.06-.03.14-.13.23-.05.05-.08.12-.08.22,0,.1,0,.2,0,.31v6.34c0,.42,0,.85.03,1.3.02.45.05.92.1,1.42h-1.26ZM367.68,126.59c-.07.06-.12.12-.14.19-.02.07-.04.17-.04.32v13.97c0,.3-.03.55-.09.74s-.2.35-.41.47c-.21.12-.53.22-.95.3-.42.08-.99.16-1.71.24-.04-.23-.09-.43-.16-.6-.07-.17-.21-.42-.41-.75.6.04,1.08.05,1.43.04.35,0,.62-.04.8-.09.18-.05.3-.13.35-.23.05-.1.08-.23.08-.39v-11.92c0-.59-.01-1.13-.04-1.61-.02-.49-.06-.87-.11-1.16.24.05.44.08.61.09.17.01.38.01.63,0,.17-.01.27.03.3.12.03.09-.02.18-.15.28Z"/>
    <path d="M384.73,127.2c-.02.18-.04.37-.06.57s-.03.42-.04.65c0,.23-.01.5-.02.79,0,.29,0,.63,0,1v10.06c0,.46-.03.82-.1,1.1-.07.28-.21.5-.42.66s-.53.28-.96.36c-.42.08-.98.14-1.68.19,0-.29-.03-.54-.09-.74s-.19-.43-.38-.68c.55.04.99.05,1.32.04.33-.01.58-.06.76-.15.17-.09.29-.23.33-.42.05-.19.07-.43.07-.75v-11.5h-11.14v14.08h-1.37c.05-.32.09-.62.12-.88.03-.26.05-.52.07-.77.02-.25.03-.51.04-.78,0-.27,0-.57,0-.89v-8.92c0-.38,0-.72,0-1.01,0-.29-.01-.55-.02-.78,0-.23-.02-.45-.04-.64s-.04-.38-.06-.56c.32.04.68.07,1.07.09.39.02.85.04,1.38.06.53.02,1.14.03,1.85.04.7,0,1.53,0,2.48,0,1.11,0,2.04,0,2.8,0,.76,0,1.41-.02,1.94-.04.53-.02.96-.04,1.29-.06.33-.02.62-.05.86-.09ZM375.41,133.33c.46-1.38.79-2.8,1.01-4.25.4.25.8.38,1.21.38.1,0,.16.04.18.12.02.08-.03.17-.16.26-.06.04-.11.1-.16.19-.05.09-.13.3-.24.62s-.27.8-.47,1.43-.47,1.5-.82,2.62c.31.77.6,1.51.86,2.24s.5,1.37.7,1.95l-1.08.49c-.13-.5-.29-1.03-.46-1.58-.17-.55-.36-1.11-.57-1.69-.25.59-.54,1.21-.87,1.86-.33.65-.64,1.21-.93,1.69-.35-.26-.75-.44-1.19-.52.48-.6.93-1.27,1.34-2.02.41-.74.8-1.54,1.14-2.4-.35-.91-.71-1.79-1.08-2.62-.37-.83-.73-1.55-1.08-2.15l.96-.5c.25.54.53,1.14.82,1.81.29.67.59,1.36.89,2.08ZM380.59,132.86c.43-1.23.79-2.45,1.06-3.68.42.24.79.38,1.12.42.13.02.21.07.23.13.02.07-.04.14-.17.23-.06.04-.13.13-.22.29s-.19.4-.32.72c-.13.33-.28.74-.47,1.25-.19.51-.41,1.13-.66,1.87.41.89.78,1.75,1.13,2.59.34.84.62,1.57.82,2.19l-.99.43c-.23-.69-.46-1.34-.7-1.96-.24-.62-.49-1.24-.76-1.86-.12.29-.26.61-.41.96s-.32.7-.49,1.05c-.17.35-.34.7-.51,1.04-.17.35-.34.67-.5.96-.17-.14-.34-.26-.52-.34s-.37-.15-.56-.2c.44-.62.87-1.34,1.29-2.15s.8-1.67,1.14-2.59c-.31-.71-.64-1.41-.99-2.1-.35-.69-.72-1.38-1.1-2.06l.87-.54c.55.97,1.12,2.1,1.71,3.37Z"/>
    <path d="M389.35,132.84c-.23.02-.46.06-.69.11s-.44.11-.6.18c-.01-.22-.06-.45-.14-.69s-.18-.45-.29-.6c.18-.04.38-.16.59-.37.21-.21.44-.53.68-.96s.5-.97.78-1.64.59-1.48.91-2.44c.42.29.84.48,1.24.58.18.04.28.1.29.19.01.09-.07.17-.25.22-.1.04-.2.1-.3.19s-.24.29-.42.59-.43.75-.74,1.34-.73,1.39-1.24,2.4l2.54-.13c.3-.54.53-.99.7-1.35.17-.36.29-.66.36-.9.19.17.39.32.6.47.21.14.4.26.57.34.13.07.19.15.19.23s-.09.13-.26.15c-.04.01-.08.04-.13.07-.05.04-.12.12-.22.24-.1.13-.23.31-.41.56-.17.25-.4.58-.68,1-.28.42-.62.94-1.03,1.57-.41.62-.9,1.38-1.48,2.27l3.41-.58c-.1.35-.11.68-.05.99l-3.15.49c-.77.11-1.33.25-1.68.41-.05-.43-.17-.82-.38-1.17.34-.1.62-.24.84-.44.22-.2.44-.45.64-.77.67-1.06,1.22-1.95,1.64-2.69l-1.84.13ZM393.98,139.71c-1.41.28-2.61.54-3.6.78s-1.74.44-2.22.61c-.04-.25-.09-.49-.17-.7-.08-.22-.2-.44-.35-.69,1.02-.05,2.02-.16,3.01-.32.99-.17,2.05-.41,3.21-.72-.01.31.03.66.13,1.04ZM395.8,130.54c-.17.29-.35.57-.56.86-.2.28-.44.58-.72.89-.11-.14-.23-.27-.37-.38s-.32-.21-.55-.31c.32-.28.64-.61.96-1.01.31-.4.6-.83.86-1.3s.49-.97.69-1.5c.2-.54.37-1.08.49-1.63.24.13.45.23.63.29.18.06.37.1.56.11.13,0,.2.04.22.12.01.08-.05.17-.18.26-.2.12-.52.61-.94,1.46,1.01,0,1.85,0,2.53,0s1.24-.01,1.69-.02c.44,0,.79-.01,1.03-.03.24-.01.41-.03.52-.05-.17.42-.37.85-.61,1.28-.24.43-.5.86-.78,1.27-.28.41-.58.81-.88,1.18-.31.37-.61.71-.91,1.01.72.5,1.47.93,2.25,1.27s1.57.6,2.36.77c-.17.16-.32.35-.44.57-.13.22-.22.45-.28.69-1.07-.48-1.98-.93-2.72-1.34-.75-.41-1.41-.83-1.98-1.25-.59.48-1.28.93-2.06,1.35-.79.42-1.71.83-2.77,1.23-.1-.24-.19-.43-.29-.57-.1-.14-.25-.29-.45-.44,1.03-.28,1.93-.6,2.7-.98.77-.38,1.45-.8,2.05-1.25-.38-.36-.74-.74-1.07-1.15-.33-.41-.65-.87-.96-1.37ZM396.27,142.61h-1.15c.02-.2.04-.43.05-.68.01-.25.02-.57.02-.96v-3.23c0-.46,0-.79-.02-1.01-.01-.22-.03-.43-.05-.63.3.02.75.04,1.33.06.59.02,1.32.03,2.18.03s1.54,0,2.07-.03c.53-.02.95-.04,1.26-.06-.02.19-.04.41-.04.64,0,.23,0,.57,0,1v2.94c0,.7.02,1.24.05,1.64h-1.15v-.97h-4.54v1.26ZM396.47,129.28c-.04.06-.07.12-.1.19-.03.07-.06.13-.1.19.32.54.68,1.04,1.08,1.49.4.45.82.87,1.28,1.25.48-.43.92-.91,1.32-1.43.4-.52.74-1.08,1.02-1.69h-4.51ZM400.81,137.06h-4.54v3.37h4.54v-3.37Z"/>
  </g>
  <rect class="cls-7" x="492.75" y="120" width="140.25" height="29.25"/>
  <rect class="cls-2" x="492.75" y="120" width="140.25" height="29.25"/>
  <g>
    <path d="M531.38,133.48c-.84,0-1.52.01-2.04.04s-.93.06-1.23.11v-1.14c.3.06.75.1,1.33.13.59.02,1.41.04,2.45.04s1.82-.01,2.48-.04c.65-.02,1.12-.07,1.4-.13l-1.48,3.1-.99-.42.92-1.69h-1.78v6.69c0,.37-.03.68-.1.93s-.2.45-.4.61-.48.29-.85.37c-.37.08-.86.15-1.47.2,0-.49-.17-.96-.52-1.39.87.18,1.46.2,1.78.06.32-.14.49-.46.49-.96v-6.51ZM533.24,128.18h-1.64c-.4,0-.74,0-1.04,0-.29,0-.56.01-.79.02-.23,0-.45.02-.65.04-.2.02-.39.03-.59.04v-1.04c.17.02.34.04.5.05s.37.02.59.03.5.01.82.02c.32,0,.71,0,1.16,0,.84,0,1.49-.01,1.96-.04.46-.03.84-.06,1.13-.1v1.06c-.14.07-.27.15-.39.22-.11.08-.26.21-.43.41-.17.19-.39.46-.64.8-.25.34-.58.81-.99,1.4.19.13.37.26.54.4.17.13.34.26.5.4l-.74.76c-.35-.36-.75-.71-1.2-1.04-.45-.33-1.01-.7-1.69-1.11l.52-.74c.23.13.45.26.67.4.22.13.43.26.63.4l1.75-2.38ZM540.34,133.57c-.1.02-.17.12-.22.28-.05.16-.07.33-.05.51.02.66.02,1.22-.02,1.69-.04.46-.08.94-.13,1.43-.06.62-.19,1.18-.38,1.68-.19.49-.48.95-.87,1.37s-.88.81-1.49,1.17-1.36.71-2.26,1.06c0-.3-.06-.54-.18-.72-.12-.18-.32-.37-.61-.56.74-.16,1.4-.34,1.96-.55s1.03-.48,1.42-.8.69-.72.92-1.2c.23-.47.39-1.05.49-1.74.04-.22.06-.5.06-.86,0-.35,0-.74,0-1.15,0-.41-.02-.82-.04-1.23-.02-.41-.05-.78-.08-1.11.24.08.5.15.79.21.29.05.5.08.63.08s.2.06.21.19-.04.21-.15.24ZM539.35,128.45c-1.03,0-1.88,0-2.52.03-.65.02-1.15.06-1.5.12v-1.15c.36.06.87.1,1.54.12.67.02,1.57.03,2.71.03,1.02,0,1.93,0,2.73-.03.8-.02,1.38-.06,1.74-.12v1.15c-.31-.05-.79-.08-1.42-.1-.64-.02-1.36-.03-2.18-.04-.13.34-.28.71-.43,1.12s-.34.88-.54,1.41c.5,0,.94,0,1.32,0,.37,0,.71-.01,1-.03.29-.01.56-.02.79-.04.23-.01.45-.02.66-.04-.01.2-.02.39-.03.55,0,.16,0,.32,0,.49v4.5c0,.43,0,.84,0,1.22s.01.75.03,1.13h-1.12v-6.92h-4.85v7.17h-1.12c.02-.38.04-.76.04-1.14,0-.37,0-.78,0-1.23v-3.59c0-.49,0-.91-.02-1.25-.01-.34-.03-.65-.05-.93.23.05.51.08.84.09.33.01.8.02,1.42.02.23-.42.42-.84.58-1.26.16-.42.28-.84.38-1.26ZM543.84,142.54c-.18-.24-.37-.47-.58-.68s-.44-.43-.72-.66-.6-.47-.97-.74c-.37-.26-.82-.58-1.35-.94l.54-.81c.4.24.78.49,1.15.76.37.26.73.53,1.06.78.34.26.65.51.93.76.28.25.53.48.75.69l-.81.83Z"/>
    <path d="M550.49,136.2c-.1.25-.24.59-.42,1-.19.41-.4.89-.65,1.41-.25.53-.52,1.11-.82,1.73-.3.62-.62,1.27-.96,1.95-.21-.21-.41-.36-.62-.47s-.43-.19-.66-.25c.31-.41.62-.86.92-1.36.3-.5.58-1.01.86-1.54.27-.53.52-1.07.74-1.63.22-.56.41-1.11.57-1.65.13.23.29.41.46.53s.37.22.59.28ZM549.44,133.6c-.21-.19-.44-.4-.7-.61-.26-.22-.53-.43-.8-.64-.27-.21-.54-.41-.8-.59-.26-.19-.5-.34-.7-.46l.68-.81c.38.28.72.52,1.02.73.29.21.56.4.8.58.24.17.46.34.66.5s.4.31.6.47l-.76.85ZM550.2,129.13c-.22-.23-.43-.44-.63-.63-.21-.19-.42-.37-.63-.53-.22-.16-.45-.32-.69-.46-.25-.14-.51-.29-.8-.43l.68-.87c.52.34,1,.67,1.46.99s.91.66,1.37,1.01l-.76.92ZM554.96,130.88c-.1.07-.15.23-.17.46-.02.23-.03.61-.04,1.13-.01.43-.02.81-.03,1.12s-.02.6-.04.87c-.02.26-.04.52-.05.77-.02.25-.04.53-.08.86-.07.72-.18,1.36-.32,1.93-.14.56-.35,1.09-.62,1.58s-.61.96-1.03,1.43c-.42.47-.92.96-1.52,1.48-.17-.21-.35-.37-.54-.49-.19-.12-.44-.22-.74-.31.7-.43,1.27-.85,1.73-1.25.46-.4.82-.82,1.1-1.26.28-.44.49-.92.63-1.44.14-.52.25-1.12.31-1.79.05-.54.08-1.08.11-1.6.02-.53.04-1.04.04-1.53s0-.96-.03-1.41c-.02-.44-.05-.85-.1-1.21.22.13.44.22.68.25s.44.04.6.02c.12-.01.2.02.25.11.05.08,0,.19-.13.31ZM556.09,137.39v-9.07h-3.6v9.25h-1.14c.05-.38.08-.8.11-1.25.02-.45.04-.93.04-1.43v-4.69c0-.67-.01-1.25-.04-1.72-.02-.47-.05-.85-.09-1.13.17.04.33.07.48.1.15.03.32.05.52.06.2.01.44.02.72.03.28,0,.64,0,1.07,0,.41,0,.77,0,1.07,0,.31,0,.58-.02.81-.04.23-.02.44-.04.63-.06s.37-.05.55-.09c-.04.26-.06.61-.08,1.05-.02.43-.03,1.03-.03,1.8v4.65c0,.2,0,.42,0,.66,0,.23.02.47.04.7.02.23.03.45.04.66.01.2.03.38.05.52h-1.17ZM557.28,141.15c-.14-.22-.3-.43-.46-.65-.16-.22-.35-.45-.55-.69s-.44-.51-.71-.78-.57-.58-.91-.9l.59-.76c.65.54,1.21,1.04,1.68,1.51.47.47.92.96,1.35,1.48l-.99.79ZM558.35,138.34c.06-.45.1-.9.13-1.35.02-.46.04-.91.04-1.35v-4.78c0-.2,0-.42-.02-.66s-.03-.46-.04-.68c-.02-.22-.04-.44-.06-.64-.02-.2-.05-.38-.07-.52.25.06.46.1.63.11.17.01.36,0,.58-.02.11-.01.17.01.18.07.01.06-.03.14-.13.23-.05.05-.08.12-.08.22,0,.1,0,.2,0,.31v6.34c0,.42,0,.85.03,1.3.02.45.05.92.1,1.42h-1.26ZM562.26,126.59c-.07.06-.12.12-.14.19-.02.07-.04.17-.04.32v13.97c0,.3-.03.55-.09.74-.06.19-.2.35-.41.47-.21.12-.53.22-.95.3-.42.08-.99.16-1.71.24-.04-.23-.09-.43-.16-.6-.07-.17-.21-.42-.41-.75.6.04,1.08.05,1.43.04s.62-.04.8-.09c.18-.05.3-.13.35-.23.05-.1.08-.23.08-.39v-11.92c0-.59-.01-1.13-.04-1.61-.02-.49-.06-.87-.11-1.16.24.05.44.08.61.09.17.01.38.01.63,0,.17-.01.27.03.3.12.03.09-.02.18-.15.28Z"/>
    <path d="M579.33,127.2c-.02.18-.05.37-.06.57s-.03.42-.04.65-.01.5-.02.79c0,.29,0,.63,0,1v10.06c0,.46-.03.82-.1,1.1-.07.28-.21.5-.42.66-.22.16-.54.28-.96.36-.42.08-.98.14-1.68.19,0-.29-.03-.54-.09-.74-.06-.2-.19-.43-.38-.68.55.04.99.05,1.33.04.33-.01.58-.06.76-.15.17-.09.29-.23.33-.42.05-.19.07-.43.07-.75v-11.5h-11.14v14.08h-1.37c.05-.32.09-.62.12-.88.03-.26.05-.52.07-.77.02-.25.03-.51.04-.78,0-.27,0-.57,0-.89v-8.92c0-.38,0-.72,0-1.01,0-.29-.01-.55-.02-.78s-.02-.45-.04-.64c-.02-.19-.04-.38-.06-.56.32.04.68.07,1.07.09.39.02.85.04,1.38.06.53.02,1.14.03,1.85.04s1.53,0,2.48,0c1.11,0,2.04,0,2.8,0,.76,0,1.41-.02,1.94-.04.53-.02.96-.04,1.29-.06.33-.02.62-.05.86-.09ZM570.01,133.33c.46-1.38.79-2.8,1.01-4.25.4.25.8.38,1.21.38.1,0,.16.04.18.12.02.08-.03.17-.16.26-.06.04-.11.1-.16.19-.05.09-.13.3-.24.62s-.27.8-.47,1.43-.47,1.5-.82,2.62c.31.77.6,1.51.87,2.24.26.72.5,1.37.7,1.95l-1.08.49c-.13-.5-.29-1.03-.46-1.58-.17-.55-.36-1.11-.57-1.69-.25.59-.54,1.21-.87,1.86-.33.65-.64,1.21-.93,1.69-.35-.26-.75-.44-1.19-.52.48-.6.93-1.27,1.34-2.02.42-.74.8-1.54,1.14-2.4-.35-.91-.71-1.79-1.08-2.62-.37-.83-.73-1.55-1.08-2.15l.96-.5c.25.54.53,1.14.82,1.81.29.67.59,1.36.89,2.08ZM575.18,132.86c.43-1.23.79-2.45,1.06-3.68.42.24.79.38,1.12.42.13.02.21.07.22.13.02.07-.04.14-.17.23-.06.04-.13.13-.22.29-.08.16-.19.4-.32.72-.13.33-.28.74-.47,1.25-.19.51-.41,1.13-.66,1.87.41.89.78,1.75,1.13,2.59.34.84.62,1.57.82,2.19l-.99.43c-.23-.69-.46-1.34-.7-1.96s-.49-1.24-.76-1.86c-.12.29-.26.61-.41.96-.16.35-.32.7-.49,1.05s-.34.7-.51,1.04-.34.67-.5.96c-.17-.14-.34-.26-.52-.34-.18-.08-.37-.15-.56-.2.44-.62.87-1.34,1.29-2.15.41-.81.8-1.67,1.14-2.59-.31-.71-.64-1.41-.99-2.1-.35-.69-.71-1.38-1.1-2.06l.87-.54c.55.97,1.12,2.1,1.71,3.37Z"/>
    <path d="M583.96,132.84c-.23.02-.46.06-.69.11s-.44.11-.6.18c-.01-.22-.06-.45-.14-.69s-.18-.45-.29-.6c.18-.04.38-.16.59-.37.21-.21.43-.53.68-.96.24-.43.5-.97.78-1.64.28-.67.58-1.48.91-2.44.42.29.83.48,1.24.58.18.04.28.1.29.19.01.09-.07.17-.25.22-.1.04-.2.1-.3.19-.1.09-.24.29-.42.59-.18.31-.43.75-.74,1.34s-.73,1.39-1.24,2.4l2.54-.13c.3-.54.53-.99.7-1.35.17-.36.29-.66.36-.9.19.17.39.32.6.47.21.14.4.26.57.34.13.07.2.15.19.23,0,.08-.09.13-.26.15-.04.01-.08.04-.13.07-.05.04-.12.12-.22.24-.1.13-.23.31-.41.56-.17.25-.4.58-.68,1-.28.42-.62.94-1.03,1.57-.41.62-.9,1.38-1.48,2.27l3.41-.58c-.1.35-.11.68-.05.99l-3.15.49c-.77.11-1.33.25-1.68.41-.05-.43-.17-.82-.38-1.17.34-.1.62-.24.84-.44.22-.2.44-.45.64-.77.67-1.06,1.22-1.95,1.64-2.69l-1.84.13ZM588.59,139.71c-1.41.28-2.61.54-3.6.78-1,.24-1.74.44-2.22.61-.04-.25-.09-.49-.17-.7-.08-.22-.2-.44-.35-.69,1.02-.05,2.02-.16,3.01-.32.98-.17,2.05-.41,3.21-.72-.01.31.03.66.13,1.04ZM590.41,130.54c-.17.29-.35.57-.56.86s-.44.58-.72.89c-.11-.14-.23-.27-.37-.38-.14-.11-.32-.21-.55-.31.32-.28.64-.61.96-1.01s.6-.83.86-1.3c.26-.47.49-.97.69-1.5.2-.54.37-1.08.49-1.63.24.13.45.23.63.29.18.06.37.1.56.11.13,0,.2.04.22.12s-.05.17-.18.26c-.21.12-.52.61-.94,1.46,1.01,0,1.85,0,2.53,0s1.24-.01,1.69-.02c.44,0,.79-.01,1.03-.03.24-.01.42-.03.52-.05-.17.42-.37.85-.61,1.28-.24.43-.5.86-.78,1.27-.28.41-.58.81-.88,1.18-.31.37-.61.71-.91,1.01.72.5,1.47.93,2.25,1.27.78.34,1.57.6,2.36.77-.17.16-.32.35-.44.57s-.22.45-.28.69c-1.07-.48-1.98-.93-2.72-1.34-.75-.41-1.41-.83-1.98-1.25-.59.48-1.28.93-2.06,1.35s-1.71.83-2.77,1.23c-.1-.24-.19-.43-.29-.57-.1-.14-.25-.29-.45-.44,1.03-.28,1.93-.6,2.7-.98.77-.38,1.45-.8,2.05-1.25-.38-.36-.74-.74-1.07-1.15-.33-.41-.65-.87-.96-1.37ZM590.88,142.61h-1.15c.02-.2.04-.43.05-.68.01-.25.02-.57.02-.96v-3.23c0-.46,0-.79-.02-1.01-.01-.22-.03-.43-.05-.63.3.02.75.04,1.33.06.59.02,1.32.03,2.18.03s1.54,0,2.07-.03c.53-.02.95-.04,1.26-.06-.02.19-.04.41-.04.64,0,.23,0,.57,0,1v2.94c0,.7.02,1.24.05,1.64h-1.15v-.97h-4.54v1.26ZM591.08,129.28c-.04.06-.07.12-.1.19-.03.07-.06.13-.1.19.33.54.69,1.04,1.08,1.49.4.45.82.87,1.28,1.25.48-.43.92-.91,1.33-1.43.4-.52.74-1.08,1.02-1.69h-4.51ZM595.42,137.06h-4.54v3.37h4.54v-3.37Z"/>
  </g>
  <path class="cls-5" d="M204.84,20.63l6.44,1.87-5.36,4.03-1.08-5.9ZM192,38.88l.03-.79.08-.82.15-.81.19-.8.23-.8.29-.8.71-1.52.87-1.48,1.03-1.42,1.17-1.33,1.29-1.24,1.41-1.14,1.5-1.04,1.59-.9,1.68-.79,1.95-.52.39,1.45-1.88.5.12-.04-1.6.74.05-.03-1.53.88.05-.03-1.45,1,.05-.04-1.36,1.1.05-.04-1.24,1.2.04-.05-1.13,1.29.05-.06-.99,1.36.04-.06-.84,1.42.03-.07-.67,1.46.02-.05-.27.74v-.04s-.21.75-.21.75v-.04s-.17.76-.17.76v-.04s-.13.76-.13.76v-.05s-.06.76-.06.76v-.04l-.03.77-1.5-.06Z"/>
  <rect class="cls-6" x=".75" y="76.5" width="66.75" height="23.25"/>
  <rect class="cls-4" x=".75" y="76.5" width="66.75" height="23.25"/>
  <path d="M13.98,92.01v-10.25h.23l6.81,7.85v-7.85h1.01v10.25h-.23l-6.77-7.75v7.75h-1.06Z"/>
  <path d="M25.52,80.89h1.14c-.49.99-.86,2.11-1.12,3.35-.26,1.25-.39,2.5-.39,3.77,0,2.48.39,4.67,1.17,6.55h-1.08c-.75-1.85-1.13-3.99-1.13-6.42,0-2.64.47-5.05,1.41-7.25Z"/>
  <path d="M31.9,92.27c-1.1,0-1.95-.45-2.55-1.36-.6-.91-.89-2.25-.89-4.02s.3-3.11.89-4.02c.59-.91,1.44-1.36,2.53-1.36s1.96.46,2.6,1.39c.64.93.96,2.26.96,3.99s-.32,3.06-.97,3.99c-.65.93-1.51,1.39-2.58,1.39ZM31.93,82.48c-.79,0-1.4.38-1.84,1.14-.44.76-.66,1.86-.66,3.3,0,2.95.83,4.43,2.5,4.43.81,0,1.44-.39,1.89-1.16.45-.78.68-1.87.68-3.29s-.23-2.51-.7-3.27-1.09-1.14-1.87-1.14Z"/>
  <path d="M37.81,90.13l.94.44-1.41,2.64-.7-.3,1.17-2.78Z"/>
  <path d="M41.27,81.76h2.01v10.25h-1.01v-9.25h-1.61l.61-1Z"/>
  <path d="M48.37,80.89c.94,2.2,1.41,4.62,1.41,7.25,0,2.44-.38,4.58-1.13,6.42h-1.08c.78-1.88,1.17-4.07,1.17-6.55,0-1.27-.13-2.52-.39-3.77s-.64-2.37-1.12-3.35h1.14Z"/>
  <rect class="cls-9" x="11.62" y="1.13" width="9" height="9"/>
  <rect class="cls-3" x="11.62" y="1.13" width="9" height="9"/>
  <rect class="cls-8" x="20.62" y="1.13" width="9" height="9"/>
  <rect class="cls-3" x="20.62" y="1.13" width="9" height="9"/>
  <rect class="cls-9" x="29.62" y="1.13" width="9" height="9"/>
  <rect class="cls-3" x="29.62" y="1.13" width="9" height="9"/>
  <rect class="cls-8" x="38.62" y="1.13" width="9" height="9"/>
  <rect class="cls-3" x="38.62" y="1.13" width="9" height="9"/>
  <rect class="cls-9" x="47.62" y="1.13" width="9" height="9"/>
  <rect class="cls-3" x="47.62" y="1.13" width="9" height="9"/>
  <rect class="cls-8" x="11.62" y="10.13" width="9" height="9"/>
  <rect class="cls-3" x="11.62" y="10.13" width="9" height="9"/>
  <rect class="cls-9" x="20.62" y="10.13" width="9" height="9"/>
  <rect class="cls-3" x="20.62" y="10.13" width="9" height="9"/>
  <rect class="cls-8" x="29.62" y="10.13" width="9" height="9"/>
  <rect class="cls-3" x="29.62" y="10.13" width="9" height="9"/>
  <rect class="cls-9" x="38.62" y="10.13" width="9" height="9"/>
  <rect class="cls-3" x="38.62" y="10.13" width="9" height="9"/>
  <rect class="cls-8" x="47.62" y="10.13" width="9" height="9"/>
  <rect class="cls-3" x="47.62" y="10.13" width="9" height="9"/>
  <rect class="cls-9" x="11.62" y="18.38" width="9" height="9"/>
  <rect class="cls-3" x="11.62" y="18.38" width="9" height="9"/>
  <rect class="cls-8" x="20.62" y="18.38" width="9" height="9"/>
  <rect class="cls-3" x="20.62" y="18.38" width="9" height="9"/>
  <rect class="cls-9" x="29.62" y="18.38" width="9" height="9"/>
  <rect class="cls-3" x="29.62" y="18.38" width="9" height="9"/>
  <rect class="cls-8" x="38.62" y="18.38" width="9" height="9"/>
  <rect class="cls-3" x="38.62" y="18.38" width="9" height="9"/>
  <rect class="cls-9" x="47.62" y="18.38" width="9" height="9"/>
  <rect class="cls-3" x="47.62" y="18.38" width="9" height="9"/>
  <rect class="cls-8" x="11.62" y="27.38" width="9" height="9"/>
  <rect class="cls-3" x="11.62" y="27.38" width="9" height="9"/>
  <rect class="cls-9" x="20.62" y="27.38" width="9" height="9"/>
  <rect class="cls-3" x="20.62" y="27.38" width="9" height="9"/>
  <rect class="cls-8" x="29.62" y="27.38" width="9" height="9"/>
  <rect class="cls-3" x="29.62" y="27.38" width="9" height="9"/>
  <rect class="cls-9" x="38.62" y="27.38" width="9" height="9"/>
  <rect class="cls-3" x="38.62" y="27.38" width="9" height="9"/>
  <rect class="cls-8" x="47.62" y="27.38" width="9" height="9"/>
  <rect class="cls-3" x="47.62" y="27.38" width="9" height="9"/>
  <rect class="cls-9" x="11.62" y="35.63" width="9" height="9"/>
  <rect class="cls-3" x="11.62" y="35.63" width="9" height="9"/>
  <rect class="cls-8" x="20.62" y="35.63" width="9" height="9"/>
  <rect class="cls-3" x="20.62" y="35.63" width="9" height="9"/>
  <rect class="cls-9" x="29.62" y="35.63" width="9" height="9"/>
  <rect class="cls-3" x="29.62" y="35.63" width="9" height="9"/>
  <rect class="cls-8" x="38.62" y="35.63" width="9" height="9"/>
  <rect class="cls-3" x="38.62" y="35.63" width="9" height="9"/>
  <rect class="cls-9" x="47.62" y="35.63" width="9" height="9"/>
  <rect class="cls-3" x="47.62" y="35.63" width="9" height="9"/>
  <path class="cls-5" d="M31.19,50.66l2.93-6.04,3.07,5.97-6,.07ZM33.98,76.29l-.3-26.66h1s.3,26.64.3,26.64l-1,.02Z"/>
  <g>
    <path d="M10.55,116.2c-.49.03-.88.11-1.17.24-.06-.16-.12-.3-.19-.41-.07-.11-.16-.23-.27-.34.22-.14.45-.38.69-.7s.48-.69.71-1.11c.23-.41.44-.85.64-1.32.2-.47.35-.92.46-1.36.33.22.63.38.9.49.13.05.2.11.21.19,0,.08-.05.14-.19.19-.05.02-.11.08-.19.17-.08.09-.19.27-.34.51-.15.25-.35.59-.6,1.03-.25.44-.57,1.01-.96,1.73l1.91-.09c.21-.35.37-.66.49-.92.11-.26.21-.55.3-.86.15.1.3.19.46.28.15.09.28.16.39.22.11.06.17.12.16.19s-.05.11-.14.13c-.03,0-.06.01-.09.04s-.08.09-.15.18-.16.23-.29.41c-.12.19-.29.44-.5.76s-.47.73-.79,1.22-.7,1.08-1.15,1.78c.25-.02.48-.04.69-.06.21-.02.42-.04.64-.06.22-.02.45-.05.71-.08.25-.03.55-.07.89-.11-.02.14-.03.26-.04.34,0,.08,0,.21,0,.38l-2.34.23c-.34.04-.67.08-.98.14-.31.05-.55.12-.72.19-.02-.29-.13-.58-.34-.84.18-.09.35-.19.51-.32.16-.13.33-.3.51-.52.18-.22.38-.49.6-.82.22-.33.47-.73.76-1.21l-1.21.09ZM14.17,121.03c-.03.14-.04.27-.04.38s.02.25.07.41c-.52.11-1.03.23-1.52.34-.49.11-.95.22-1.38.33-.43.11-.81.2-1.16.29-.34.09-.63.17-.86.24,0-.17,0-.33-.04-.49-.04-.16-.12-.34-.24-.56.78-.04,1.62-.13,2.51-.29s1.78-.37,2.66-.64ZM17.16,114.6c-.63,0-1.19.02-1.7.04s-.94.04-1.3.09v-.91c.72.07,1.72.11,3,.13v-.53c0-.47,0-.85-.03-1.16-.02-.31-.05-.56-.09-.76.25.05.46.08.65.09.19.01.37.02.56.02.24,0,.27.1.09.3-.12.14-.21.3-.26.49-.05.18-.07.36-.07.54v1.01c.59,0,1.14,0,1.64-.03.5-.02.96-.05,1.36-.1v.91c-.2-.03-.4-.05-.61-.06-.2-.01-.43-.03-.66-.04-.24,0-.5-.02-.78-.02s-.6,0-.95,0v4.33l1.78-.11v-1.57c0-.46,0-.8-.02-1.03s-.03-.39-.05-.5c.19.04.35.06.47.08s.29.02.49.02c.12,0,.19.03.21.09.02.06-.02.13-.11.21-.1.09-.14.25-.14.5v2.06c0,.37,0,.68,0,.91s.02.48.04.71h-.88v-.84l-1.78.13v2.28c0,.23.01.41.04.56s.08.26.17.34c.09.08.22.14.4.17.18.03.42.04.72.04.33,0,.61-.02.82-.06.21-.04.39-.11.52-.23s.23-.28.29-.5c.06-.22.11-.51.15-.88.13.17.27.31.42.41.15.1.31.19.49.27-.12.39-.25.7-.37.92-.12.22-.28.39-.48.51-.2.12-.44.2-.75.24-.3.04-.7.06-1.18.06-.46,0-.82-.02-1.1-.06-.28-.04-.49-.11-.64-.21-.15-.1-.25-.24-.29-.41-.05-.17-.07-.39-.07-.64v-2.77l-1.03.07c-.31.02-.61.05-.89.11-.28.05-.5.11-.66.16,0-.08.02-.17.03-.24,0-.08.02-.16.03-.24,0-.08.01-.18.01-.29v-2.58c0-.15,0-.28-.01-.38,0-.1-.02-.19-.03-.26,0-.07-.02-.14-.03-.21.15.04.32.07.51.08.19.02.35.02.47,0,.06,0,.09.02.11.08.02.06,0,.13-.06.19-.07.08-.11.14-.13.19-.02.05-.03.14-.03.25v2.48l1.7-.1v-4.37Z"/>
    <path d="M24.35,121.64h-.91c.04-.48.06-.95.08-1.43.01-.48.02-.85.02-1.13v-4.67c0-.29,0-.63,0-1.01s-.02-.7-.04-.96c.14.02.36.04.65.05.29.01.65.02,1.08.02s.77,0,1.03-.02c.26-.01.47-.03.64-.05-.02.12-.03.27-.04.43,0,.16-.02.33-.02.51,0,.18,0,.36-.01.54,0,.18,0,.35,0,.5v4.45c0,.36,0,.74.03,1.13.02.39.04.81.07,1.26h-.89v-1.24h-1.67v1.61ZM26.02,113.19h-1.67v6.15h1.67v-6.15ZM32.49,120.17c.26.37.52.7.78.99.27.29.55.54.84.76s.6.41.93.58c.32.17.67.31,1.04.43-.19.14-.34.28-.46.42-.11.14-.21.3-.3.49-.42-.25-.79-.49-1.11-.74-.32-.24-.62-.51-.89-.79-.27-.29-.53-.6-.77-.94s-.49-.74-.74-1.2h-.19v3.05c0,.16,0,.34.03.54s.05.4.1.6h-1.01c.03-.17.05-.36.07-.58s.03-.4.03-.56v-3.05h-.1c-.32.45-.62.83-.89,1.16-.27.33-.54.63-.82.9-.28.27-.56.53-.86.76-.29.24-.63.49-1,.76-.2-.29-.49-.54-.86-.73.61-.22,1.23-.57,1.87-1.06.64-.49,1.22-1.08,1.76-1.8-.54,0-1.03.02-1.46.03-.43,0-.84.02-1.23.04v-.79c.48.04.99.06,1.55.08.56.01,1.23.02,2.02.02,0-.3-.02-.56-.03-.78,0-.21-.02-.37-.04-.46.39.09.71.11.96.09.13-.03.21,0,.24.06.03.07-.02.15-.16.24-.07.05-.11.12-.14.22-.02.1-.04.19-.04.26v.37c.87,0,1.65,0,2.36-.02.7-.01,1.29-.04,1.77-.08v.79c-.39-.02-.85-.03-1.39-.04-.54,0-1.16-.02-1.88-.03ZM30.89,118.19c-.19-.02-.43-.03-.73-.04-.29,0-.64-.01-1.03-.01s-.7,0-.96.01c-.26,0-.49.02-.68.04.03-.22.04-.43.05-.65,0-.21,0-.47,0-.76,0-.27,0-.52-.01-.75,0-.23-.02-.45-.04-.64.19.02.42.04.68.06.26.02.58.03.96.03.75,0,1.34-.03,1.76-.09-.02.19-.03.4-.04.63,0,.23-.01.48-.01.76s0,.54.01.78c0,.23.02.45.04.63ZM30.12,116.06h-1.86v1.43h1.86v-1.43ZM34.1,114.69c-.3-.02-.71-.03-1.21-.04-.5,0-1,0-1.51,0s-.98,0-1.46,0c-.48,0-.89.02-1.24.04.02-.14.03-.34.04-.6,0-.26.01-.56.01-.9s0-.64-.01-.88c0-.25-.02-.46-.04-.63.33.04.74.06,1.23.07s.97.01,1.46.01,1.01,0,1.51-.02c.5-.01.91-.04,1.21-.06-.06.34-.09.85-.09,1.51,0,.34,0,.64.02.9.01.26.04.46.06.6ZM33.2,112.39h-3.65v1.64h3.65v-1.64ZM35.23,118.19c-.2-.02-.44-.04-.73-.05-.29-.01-.62-.02-1.01-.02s-.75,0-1.06.01c-.3,0-.56.03-.77.06.03-.22.05-.44.06-.66,0-.22.01-.47.01-.75s0-.52-.02-.76c-.01-.24-.03-.45-.05-.63.1,0,.23.02.39.04s.31.03.49.04c.17,0,.34.02.51.02.17,0,.32,0,.45,0,.39,0,.73-.01,1.01-.04.28-.02.53-.04.74-.06-.03.19-.05.4-.06.63,0,.23-.01.48-.01.76s0,.51.01.74c0,.23.03.45.06.67ZM34.4,116.08h-1.96v1.4h1.96v-1.4Z"/>
    <path d="M48.23,120.43c-.11-.02-.25-.04-.42-.05-.17-.01-.37-.02-.62-.03-.25,0-.55,0-.9-.01-.35,0-.77,0-1.26,0h-5.6c-.03.45-.07.85-.14,1.2-.06.35-.16.69-.29,1-.13.31-.29.63-.49.94-.2.31-.44.63-.73.98-.14-.13-.27-.23-.38-.3s-.27-.14-.48-.21c.37-.32.66-.62.88-.9.21-.28.38-.57.49-.88s.19-.65.24-1.03c.04-.38.07-.83.09-1.36,0-.29.01-.55.01-.79s0-.48,0-.72-.02-.48-.04-.72c-.02-.24-.05-.5-.08-.78.27.04.8.07,1.61.09.8.02,1.95.04,3.45.04.72,0,1.35,0,1.88,0,.53,0,.98-.01,1.34-.02.37,0,.66-.02.89-.04.23-.02.41-.04.54-.06-.03.23-.05.48-.06.75-.01.27-.02.58-.02.92,0,.42,0,.81.03,1.18.02.37.04.65.06.83ZM43,113.61c-.79,0-1.47,0-2.03,0-.57,0-1.07.01-1.51.03-.44.01-.84.03-1.21.04-.36.01-.73.04-1.1.06v-.94c.37.03.74.05,1.11.06.37.01.78.03,1.23.04.45.01.96.02,1.53.03.57,0,1.23,0,1.98,0,0-.85-.02-1.39-.07-1.63.2.04.39.06.56.08.17.01.34.02.5.02.11,0,.18.02.19.07.01.05-.02.09-.11.13-.06.02-.11.07-.15.16-.04.09-.06.18-.06.28v.89c1.27,0,2.35-.01,3.26-.04.91-.02,1.72-.06,2.43-.11v.94c-.71-.05-1.52-.08-2.43-.11-.91-.02-2-.04-3.26-.04v1.5c1.05,0,1.96-.01,2.74-.04.78-.02,1.45-.06,2-.11v.88c-.63-.05-1.35-.08-2.18-.11-.82-.02-1.81-.04-2.96-.04s-2.14.01-2.97.04c-.83.02-1.56.06-2.18.11v-.88c.58.05,1.25.08,2.01.11.76.02,1.65.04,2.69.04v-1.5ZM39.48,117.49v2.17h3.47v-2.17h-3.47ZM47.35,119.66v-2.17h-3.54v2.17h3.54Z"/>
  </g>
</svg>