<?xml version="1.0" encoding="UTF-8"?>
<svg id="_图层_1" data-name="图层 1" xmlns="http://www.w3.org/2000/svg" viewBox="0 0 394.39 309.13">
  <defs>
    <style>
      .cls-1 {
        letter-spacing: 0em;
      }

      .cls-2 {
        letter-spacing: 0em;
      }

      .cls-3 {
        letter-spacing: 0em;
      }

      .cls-4 {
        letter-spacing: 0em;
      }

      .cls-5 {
        letter-spacing: 0em;
      }

      .cls-6 {
        letter-spacing: 0em;
      }

      .cls-7 {
        letter-spacing: 0em;
      }

      .cls-8 {
        letter-spacing: 0em;
      }

      .cls-9 {
        letter-spacing: 0em;
      }

      .cls-10 {
        letter-spacing: 0em;
      }

      .cls-11 {
        letter-spacing: 0em;
      }

      .cls-12 {
        letter-spacing: 0em;
      }

      .cls-13 {
        letter-spacing: 0em;
      }

      .cls-14 {
        font-family: DengXian, DengXian;
        font-size: 11.04px;
      }

      .cls-15 {
        letter-spacing: 0em;
      }

      .cls-16 {
        letter-spacing: 0em;
      }

      .cls-17 {
        letter-spacing: 0em;
      }

      .cls-18 {
        letter-spacing: 0em;
      }

      .cls-19 {
        letter-spacing: 0em;
      }
    </style>
  </defs>
  <text class="cls-14" transform="translate(8.82 21.43)"><tspan class="cls-9" x="0" y="0">L</tspan><tspan class="cls-13" x="5.16" y="0">i</tspan><tspan class="cls-8" x="7.67" y="0">g</tspan><tspan x="14.02" y="0">a</tspan><tspan class="cls-13" x="19.55" y="0">n</tspan><tspan class="cls-8" x="25.67" y="0">d</tspan><tspan x="32.02" y="0">:</tspan></text>
  <text class="cls-14" transform="translate(13.49 41.11)"><tspan class="cls-16" x="0" y="0">E</tspan><tspan class="cls-17" x="5.53" y="0">n</tspan><tspan class="cls-16" x="11.65" y="0">e</tspan><tspan class="cls-3" x="17.3" y="0">r</tspan><tspan class="cls-1" x="21.03" y="0">g</tspan><tspan x="27.38" y="0">y</tspan><tspan class="cls-7" x="32.55" y="0"> </tspan><tspan x="35.56" y="0">C</tspan><tspan class="cls-5" x="42.41" y="0">o</tspan><tspan class="cls-19" x="48.76" y="0">m</tspan><tspan class="cls-5" x="58" y="0">po</tspan><tspan class="cls-17" x="70.71" y="0">n</tspan><tspan class="cls-16" x="76.83" y="0">e</tspan><tspan class="cls-13" x="82.48" y="0">n</tspan><tspan x="88.6" y="0">t</tspan></text>
  <text class="cls-14" transform="translate(118.13 41.11)"><tspan class="cls-10" x="0" y="0">A</tspan><tspan class="cls-1" x="7.08" y="0">v</tspan><tspan class="cls-16" x="12.23" y="0">e</tspan><tspan class="cls-3" x="17.88" y="0">r</tspan><tspan x="21.61" y="0">a</tspan><tspan class="cls-1" x="27.14" y="0">g</tspan><tspan x="33.49" y="0">e</tspan></text>
  <text class="cls-14" transform="translate(167.21 41.11)"><tspan class="cls-6" x="0" y="0">S</tspan><tspan class="cls-16" x="5.64" y="0">D</tspan><tspan class="cls-1" x="13.21" y="0">(</tspan><tspan class="cls-5" x="16.45" y="0">P</tspan><tspan class="cls-3" x="22.56" y="0">r</tspan><tspan class="cls-15" x="26.29" y="0">op</tspan><tspan class="cls-3" x="39" y="0">.</tspan><tspan x="41.41" y="0">)</tspan></text>
  <text class="cls-14" transform="translate(234.77 41.11)"><tspan class="cls-6" x="0" y="0">S</tspan><tspan class="cls-18" x="5.64" y="0">D</tspan></text>
  <text class="cls-14" transform="translate(272.09 41.11)"><tspan class="cls-6" x="0" y="0">S</tspan><tspan class="cls-16" x="5.64" y="0">E</tspan><tspan class="cls-13" x="11.17" y="0">M</tspan><tspan class="cls-8" x="20.77" y="0">(</tspan><tspan class="cls-5" x="24" y="0">P</tspan><tspan class="cls-7" x="30.12" y="0">r</tspan><tspan class="cls-5" x="33.85" y="0">op</tspan><tspan class="cls-3" x="46.55" y="0">.</tspan><tspan x="48.96" y="0">)</tspan></text>
  <text class="cls-14" transform="translate(344.69 41.11)"><tspan class="cls-6" x="0" y="0">S</tspan><tspan class="cls-16" x="5.64" y="0">E</tspan><tspan x="11.17" y="0">M</tspan></text>
  <text class="cls-14" transform="translate(44.46 60.8)"><tspan class="cls-2" x="0" y="0">B</tspan><tspan class="cls-9" x="6.12" y="0">O</tspan><tspan x="14.52" y="0">ND</tspan></text>
  <text class="cls-14" transform="translate(130.73 60.8)"><tspan class="cls-19" x="0" y="0">9</tspan><tspan class="cls-3" x="5.77" y="0">.</tspan><tspan x="8.18" y="0">3</tspan></text>
  <text class="cls-14" transform="translate(179.7 60.8)"><tspan class="cls-19" x="0" y="0">1</tspan><tspan class="cls-3" x="5.77" y="0">.</tspan><tspan class="cls-19" x="8.18" y="0">2</tspan><tspan x="13.95" y="0">5</tspan></text>
  <text class="cls-14" transform="translate(231.54 60.8)"><tspan class="cls-19" x="0" y="0">1</tspan><tspan class="cls-3" x="5.77" y="0">.</tspan><tspan class="cls-19" x="8.18" y="0">2</tspan><tspan x="13.95" y="0">5</tspan></text>
  <text class="cls-14" transform="translate(288.42 60.8)"><tspan class="cls-19" x="0" y="0">0</tspan><tspan class="cls-3" x="5.77" y="0">.</tspan><tspan class="cls-19" x="8.18" y="0">3</tspan><tspan x="13.95" y="0">9</tspan></text>
  <text class="cls-14" transform="translate(345.3 60.8)"><tspan class="cls-19" x="0" y="0">0</tspan><tspan class="cls-3" x="5.77" y="0">.</tspan><tspan class="cls-19" x="8.18" y="0">3</tspan><tspan x="13.95" y="0">9</tspan></text>
  <text class="cls-14" transform="translate(42.91 80.48)"><tspan class="cls-10" x="0" y="0">A</tspan><tspan x="7.08" y="0">N</tspan><tspan class="cls-16" x="15.12" y="0">G</tspan><tspan class="cls-9" x="22.57" y="0">L</tspan><tspan x="27.73" y="0">E</tspan></text>
  <text class="cls-14" transform="translate(124.99 80.48)"><tspan class="cls-19" x="0" y="0">30</tspan><tspan class="cls-7" x="11.54" y="0">.</tspan><tspan class="cls-2" x="13.95" y="0">3</tspan><tspan class="cls-18" x="19.73" y="0">8</tspan></text>
  <text class="cls-14" transform="translate(179.72 80.48)"><tspan class="cls-19" x="0" y="0">2</tspan><tspan class="cls-3" x="5.77" y="0">.</tspan><tspan class="cls-19" x="8.18" y="0">2</tspan><tspan x="13.95" y="0">9</tspan></text>
  <text class="cls-14" transform="translate(231.56 80.48)"><tspan class="cls-19" x="0" y="0">2</tspan><tspan class="cls-3" x="5.77" y="0">.</tspan><tspan class="cls-19" x="8.18" y="0">2</tspan><tspan x="13.95" y="0">9</tspan></text>
  <text class="cls-14" transform="translate(288.44 80.48)"><tspan class="cls-19" x="0" y="0">0</tspan><tspan class="cls-3" x="5.77" y="0">.</tspan><tspan class="cls-19" x="8.18" y="0">7</tspan><tspan x="13.95" y="0">2</tspan></text>
  <text class="cls-14" transform="translate(345.32 80.48)"><tspan class="cls-19" x="0" y="0">0</tspan><tspan class="cls-3" x="5.77" y="0">.</tspan><tspan class="cls-19" x="8.18" y="0">7</tspan><tspan x="13.95" y="0">2</tspan></text>
  <text class="cls-14" transform="translate(43.99 100.17)"><tspan class="cls-16" x="0" y="0">D</tspan><tspan class="cls-15" x="7.57" y="0">IH</tspan><tspan class="cls-12" x="17.99" y="0">E</tspan><tspan class="cls-18" x="23.52" y="0">D</tspan></text>
  <text class="cls-14" transform="translate(124.99 100.17)"><tspan class="cls-19" x="0" y="0">36</tspan><tspan class="cls-7" x="11.54" y="0">.</tspan><tspan class="cls-2" x="13.95" y="0">8</tspan><tspan class="cls-18" x="19.73" y="0">2</tspan></text>
  <text class="cls-14" transform="translate(179.72 100.17)"><tspan class="cls-19" x="0" y="0">1</tspan><tspan class="cls-3" x="5.77" y="0">.</tspan><tspan class="cls-19" x="8.18" y="0">5</tspan><tspan x="13.95" y="0">2</tspan></text>
  <text class="cls-14" transform="translate(231.56 100.17)"><tspan class="cls-19" x="0" y="0">1</tspan><tspan class="cls-3" x="5.77" y="0">.</tspan><tspan class="cls-19" x="8.18" y="0">5</tspan><tspan x="13.95" y="0">2</tspan></text>
  <text class="cls-14" transform="translate(288.44 100.17)"><tspan class="cls-19" x="0" y="0">0</tspan><tspan class="cls-3" x="5.77" y="0">.</tspan><tspan class="cls-19" x="8.18" y="0">4</tspan><tspan x="13.95" y="0">8</tspan></text>
  <text class="cls-14" transform="translate(345.32 100.17)"><tspan class="cls-19" x="0" y="0">0</tspan><tspan class="cls-3" x="5.77" y="0">.</tspan><tspan class="cls-19" x="8.18" y="0">4</tspan><tspan x="13.95" y="0">8</tspan></text>
  <text class="cls-14" transform="translate(34.87 119.85)"><tspan class="cls-6" x="0" y="0">V</tspan><tspan class="cls-16" x="6.73" y="0">D</tspan><tspan class="cls-7" x="14.29" y="0">W</tspan><tspan class="cls-17" x="24.38" y="0">AA</tspan><tspan class="cls-9" x="38.52" y="0">L</tspan><tspan x="43.68" y="0">S</tspan></text>
  <text class="cls-14" transform="translate(125.11 119.85)"><tspan x="0" y="0">-</tspan><tspan class="cls-19" x="5.52" y="0">4</tspan><tspan class="cls-3" x="11.29" y="0">.</tspan><tspan class="cls-19" x="13.7" y="0">9</tspan><tspan x="19.47" y="0">4</tspan></text>
  <text class="cls-14" transform="translate(179.72 119.85)"><tspan class="cls-19" x="0" y="0">0</tspan><tspan class="cls-3" x="5.77" y="0">.</tspan><tspan class="cls-19" x="8.18" y="0">6</tspan><tspan x="13.95" y="0">5</tspan></text>
  <text class="cls-14" transform="translate(231.56 119.85)"><tspan class="cls-19" x="0" y="0">0</tspan><tspan class="cls-3" x="5.77" y="0">.</tspan><tspan class="cls-19" x="8.18" y="0">6</tspan><tspan x="13.95" y="0">5</tspan></text>
  <text class="cls-14" transform="translate(288.44 119.85)"><tspan class="cls-19" x="0" y="0">0</tspan><tspan class="cls-3" x="5.77" y="0">.</tspan><tspan class="cls-19" x="8.18" y="0">2</tspan><tspan x="13.95" y="0">1</tspan></text>
  <text class="cls-14" transform="translate(345.32 119.85)"><tspan class="cls-19" x="0" y="0">0</tspan><tspan class="cls-3" x="5.77" y="0">.</tspan><tspan class="cls-19" x="8.18" y="0">2</tspan><tspan x="13.95" y="0">1</tspan></text>
  <text class="cls-14" transform="translate(51.44 139.53)"><tspan class="cls-16" x="0" y="0">EE</tspan><tspan x="11.06" y="0">L</tspan></text>
  <text class="cls-14" transform="translate(134.84 139.53)"><tspan x="0" y="0">0</tspan></text>
  <text class="cls-14" transform="translate(186.68 139.53)"><tspan x="0" y="0">0</tspan></text>
  <text class="cls-14" transform="translate(238.53 139.53)"><tspan x="0" y="0">0</tspan></text>
  <text class="cls-14" transform="translate(295.41 139.53)"><tspan x="0" y="0">0</tspan></text>
  <text class="cls-14" transform="translate(352.28 139.53)"><tspan x="0" y="0">0</tspan></text>
  <text class="cls-14" transform="translate(37.41 159.22)"><tspan class="cls-19" x="0" y="0">1</tspan><tspan x="5.77" y="0">-</tspan><tspan class="cls-2" x="11.29" y="0">4</tspan><tspan class="cls-7" x="17.06" y="0"> </tspan><tspan class="cls-6" x="20.08" y="0">V</tspan><tspan class="cls-16" x="26.8" y="0">D</tspan><tspan x="34.37" y="0">W</tspan></text>
  <text class="cls-14" transform="translate(125.02 159.22)"><tspan class="cls-19" x="0" y="0">13</tspan><tspan class="cls-7" x="11.54" y="0">.</tspan><tspan class="cls-2" x="13.95" y="0">3</tspan><tspan class="cls-18" x="19.73" y="0">5</tspan></text>
  <text class="cls-14" transform="translate(179.74 159.22)"><tspan class="cls-19" x="0" y="0">1</tspan><tspan class="cls-3" x="5.77" y="0">.</tspan><tspan class="cls-19" x="8.18" y="0">3</tspan><tspan x="13.95" y="0">3</tspan></text>
  <text class="cls-14" transform="translate(231.58 159.22)"><tspan class="cls-19" x="0" y="0">1</tspan><tspan class="cls-3" x="5.77" y="0">.</tspan><tspan class="cls-19" x="8.18" y="0">3</tspan><tspan x="13.95" y="0">3</tspan></text>
  <text class="cls-14" transform="translate(288.46 159.22)"><tspan class="cls-19" x="0" y="0">0</tspan><tspan class="cls-3" x="5.77" y="0">.</tspan><tspan class="cls-19" x="8.18" y="0">4</tspan><tspan x="13.95" y="0">2</tspan></text>
  <text class="cls-14" transform="translate(345.34 159.22)"><tspan class="cls-19" x="0" y="0">0</tspan><tspan class="cls-3" x="5.77" y="0">.</tspan><tspan class="cls-19" x="8.18" y="0">4</tspan><tspan x="13.95" y="0">2</tspan></text>
  <text class="cls-14" transform="translate(39.96 178.9)"><tspan class="cls-19" x="0" y="0">1</tspan><tspan x="5.77" y="0">-</tspan><tspan class="cls-2" x="11.29" y="0">4</tspan><tspan class="cls-7" x="17.06" y="0"> </tspan><tspan class="cls-16" x="20.08" y="0">EE</tspan><tspan class="cls-9" x="31.14" y="0">L</tspan><tspan x="36.3" y="0"> </tspan></text>
  <text class="cls-14" transform="translate(134.89 178.9)"><tspan x="0" y="0">0</tspan></text>
  <text class="cls-14" transform="translate(186.73 178.9)"><tspan x="0" y="0">0</tspan></text>
  <text class="cls-14" transform="translate(238.57 178.9)"><tspan x="0" y="0">0</tspan></text>
  <text class="cls-14" transform="translate(295.45 178.9)"><tspan x="0" y="0">0</tspan></text>
  <text class="cls-14" transform="translate(352.33 178.9)"><tspan x="0" y="0">0</tspan></text>
  <text class="cls-14" transform="translate(50.68 198.54)"><tspan class="cls-16" x="0" y="0">E</tspan><tspan class="cls-5" x="5.53" y="0">P</tspan><tspan x="11.64" y="0">B</tspan></text>
  <text class="cls-14" transform="translate(134.8 198.54)"><tspan x="0" y="0">0</tspan></text>
  <text class="cls-14" transform="translate(186.65 198.54)"><tspan x="0" y="0">0</tspan></text>
  <text class="cls-14" transform="translate(238.49 198.54)"><tspan x="0" y="0">0</tspan></text>
  <text class="cls-14" transform="translate(295.37 198.54)"><tspan x="0" y="0">0</tspan></text>
  <text class="cls-14" transform="translate(352.25 198.54)"><tspan x="0" y="0">0</tspan></text>
  <text class="cls-14" transform="translate(36.17 218.22)"><tspan class="cls-16" x="0" y="0">E</tspan><tspan x="5.53" y="0">N</tspan><tspan class="cls-5" x="13.57" y="0">P</tspan><tspan class="cls-9" x="19.69" y="0">O</tspan><tspan class="cls-5" x="28.08" y="0">L</tspan><tspan class="cls-10" x="33.23" y="0">A</tspan><tspan x="40.31" y="0">R</tspan></text>
  <text class="cls-14" transform="translate(134.81 218.22)"><tspan x="0" y="0">0</tspan></text>
  <text class="cls-14" transform="translate(186.66 218.22)"><tspan x="0" y="0">0</tspan></text>
  <text class="cls-14" transform="translate(238.5 218.22)"><tspan x="0" y="0">0</tspan></text>
  <text class="cls-14" transform="translate(295.38 218.22)"><tspan x="0" y="0">0</tspan></text>
  <text class="cls-14" transform="translate(352.26 218.22)"><tspan x="0" y="0">0</tspan></text>
  <text class="cls-14" transform="translate(39.77 237.91)"><tspan class="cls-16" x="0" y="0">ED</tspan><tspan class="cls-5" x="13.1" y="0">I</tspan><tspan class="cls-11" x="15.85" y="0">S</tspan><tspan class="cls-5" x="21.49" y="0">P</tspan><tspan class="cls-16" x="27.6" y="0">E</tspan><tspan x="33.13" y="0">R</tspan></text>
  <text class="cls-14" transform="translate(134.81 237.91)"><tspan x="0" y="0">0</tspan></text>
  <text class="cls-14" transform="translate(186.66 237.91)"><tspan x="0" y="0">0</tspan></text>
  <text class="cls-14" transform="translate(238.5 237.91)"><tspan x="0" y="0">0</tspan></text>
  <text class="cls-14" transform="translate(295.38 237.91)"><tspan x="0" y="0">0</tspan></text>
  <text class="cls-14" transform="translate(352.26 237.91)"><tspan x="0" y="0">0</tspan></text>
  <text class="cls-14" transform="translate(45.78 257.59)"><tspan class="cls-16" x="0" y="0">GG</tspan><tspan class="cls-4" x="14.9" y="0">A</tspan><tspan x="21.98" y="0">S</tspan></text>
  <text class="cls-14" transform="translate(124.98 257.59)"><tspan class="cls-19" x="0" y="0">84</tspan><tspan class="cls-7" x="11.54" y="0">.</tspan><tspan class="cls-2" x="13.95" y="0">9</tspan><tspan class="cls-18" x="19.73" y="0">1</tspan></text>
  <text class="cls-14" transform="translate(179.7 257.59)"><tspan class="cls-19" x="0" y="0">3</tspan><tspan class="cls-3" x="5.77" y="0">.</tspan><tspan class="cls-19" x="8.18" y="0">3</tspan><tspan x="13.95" y="0">6</tspan></text>
  <text class="cls-14" transform="translate(231.55 257.59)"><tspan class="cls-19" x="0" y="0">4</tspan><tspan class="cls-3" x="5.77" y="0">.</tspan><tspan class="cls-19" x="8.18" y="0">8</tspan><tspan x="13.95" y="0">1</tspan></text>
  <text class="cls-14" transform="translate(288.43 257.59)"><tspan class="cls-19" x="0" y="0">1</tspan><tspan class="cls-3" x="5.77" y="0">.</tspan><tspan class="cls-19" x="8.18" y="0">0</tspan><tspan x="13.95" y="0">6</tspan></text>
  <text class="cls-14" transform="translate(345.3 257.59)"><tspan class="cls-19" x="0" y="0">1</tspan><tspan class="cls-3" x="5.77" y="0">.</tspan><tspan class="cls-19" x="8.18" y="0">5</tspan><tspan x="13.95" y="0">2</tspan></text>
  <text class="cls-14" transform="translate(42.91 277.28)"><tspan class="cls-16" x="0" y="0">G</tspan><tspan class="cls-6" x="7.45" y="0">S</tspan><tspan class="cls-9" x="13.09" y="0">OL</tspan><tspan x="26.65" y="0">V</tspan></text>
  <text class="cls-14" transform="translate(134.83 277.28)"><tspan x="0" y="0">0</tspan></text>
  <text class="cls-14" transform="translate(186.67 277.28)"><tspan x="0" y="0">0</tspan></text>
  <text class="cls-14" transform="translate(238.51 277.28)"><tspan x="0" y="0">0</tspan></text>
  <text class="cls-14" transform="translate(295.39 277.28)"><tspan x="0" y="0">0</tspan></text>
  <text class="cls-14" transform="translate(352.27 277.28)"><tspan x="0" y="0">0</tspan></text>
  <text class="cls-14" transform="translate(43.5 296.96)"><tspan class="cls-13" x="0" y="0">T</tspan><tspan class="cls-9" x="5.76" y="0">O</tspan><tspan class="cls-17" x="14.15" y="0">T</tspan><tspan class="cls-4" x="19.91" y="0">A</tspan><tspan x="26.99" y="0">L</tspan></text>
  <text class="cls-14" transform="translate(124.98 296.96)"><tspan class="cls-19" x="0" y="0">84</tspan><tspan class="cls-7" x="11.54" y="0">.</tspan><tspan class="cls-2" x="13.95" y="0">9</tspan><tspan class="cls-18" x="19.73" y="0">1</tspan></text>
  <text class="cls-14" transform="translate(179.7 296.96)"><tspan class="cls-19" x="0" y="0">3</tspan><tspan class="cls-3" x="5.77" y="0">.</tspan><tspan class="cls-19" x="8.18" y="0">3</tspan><tspan x="13.95" y="0">6</tspan></text>
  <text class="cls-14" transform="translate(231.55 296.96)"><tspan class="cls-19" x="0" y="0">4</tspan><tspan class="cls-3" x="5.77" y="0">.</tspan><tspan class="cls-19" x="8.18" y="0">8</tspan><tspan x="13.95" y="0">1</tspan></text>
  <text class="cls-14" transform="translate(288.43 296.96)"><tspan class="cls-19" x="0" y="0">1</tspan><tspan class="cls-3" x="5.77" y="0">.</tspan><tspan class="cls-19" x="8.18" y="0">0</tspan><tspan x="13.95" y="0">6</tspan></text>
  <text class="cls-14" transform="translate(345.3 296.96)"><tspan class="cls-19" x="0" y="0">1</tspan><tspan class="cls-3" x="5.77" y="0">.</tspan><tspan class="cls-19" x="8.18" y="0">5</tspan><tspan x="13.95" y="0">2</tspan></text>
  <rect x="6.88" y="27.54" width="373.8" height=".96"/>
  <rect x="6.88" y="47.22" width="373.8" height=".96"/>
  <rect x="6.88" y="303.06" width="373.8" height=".96"/>
</svg>