<?xml version="1.0" encoding="UTF-8"?>
<svg id="_图层_1" data-name="图层 1" xmlns="http://www.w3.org/2000/svg" xmlns:xlink="http://www.w3.org/1999/xlink" viewBox="0 0 837.39 222.26">
  <defs>
    <style>
      .cls-1 {
        clip-path: url(#clippath-51);
      }

      .cls-2 {
        clip-path: url(#clippath-34);
      }

      .cls-3 {
        clip-path: url(#clippath-38);
      }

      .cls-4 {
        clip-path: url(#clippath-21);
      }

      .cls-5 {
        clip-path: url(#clippath-6);
      }

      .cls-6 {
        clip-path: url(#clippath-7);
      }

      .cls-7 {
        clip-path: url(#clippath-17);
      }

      .cls-8 {
        fill: #9abddf;
      }

      .cls-8, .cls-9, .cls-10, .cls-11, .cls-12, .cls-13, .cls-14 {
        fill-rule: evenodd;
      }

      .cls-15 {
        clip-path: url(#clippath-31);
      }

      .cls-16 {
        stroke: #e37933;
      }

      .cls-16, .cls-17, .cls-18, .cls-19, .cls-20, .cls-21, .cls-22, .cls-23, .cls-24, .cls-25, .cls-26, .cls-27 {
        fill: none;
      }

      .cls-16, .cls-17, .cls-19, .cls-20, .cls-21, .cls-22, .cls-24, .cls-25, .cls-26, .cls-27 {
        stroke-miterlimit: 8;
      }

      .cls-16, .cls-27 {
        stroke-width: 3px;
      }

      .cls-28 {
        clip-path: url(#clippath-15);
      }

      .cls-29 {
        clip-path: url(#clippath-33);
      }

      .cls-30 {
        clip-path: url(#clippath-61);
      }

      .cls-31 {
        clip-path: url(#clippath-18);
      }

      .cls-32 {
        clip-path: url(#clippath-47);
      }

      .cls-33 {
        clip-path: url(#clippath-4);
      }

      .cls-34 {
        clip-path: url(#clippath-71);
      }

      .cls-35 {
        clip-path: url(#clippath-22);
      }

      .cls-36 {
        clip-path: url(#clippath-23);
      }

      .cls-37 {
        clip-path: url(#clippath-54);
      }

      .cls-38 {
        clip-path: url(#clippath-66);
      }

      .cls-17 {
        stroke-dasharray: 9.83 9.83 4.91 9.83;
      }

      .cls-17, .cls-19, .cls-20, .cls-21, .cls-22, .cls-25, .cls-26 {
        stroke: #406cb4;
      }

      .cls-17, .cls-19, .cls-20, .cls-21, .cls-22, .cls-26 {
        stroke-width: 2.25px;
      }

      .cls-9 {
        fill: #e37933;
      }

      .cls-39 {
        clip-path: url(#clippath-9);
      }

      .cls-40 {
        letter-spacing: 0em;
      }

      .cls-41 {
        clip-path: url(#clippath-70);
      }

      .cls-42 {
        clip-path: url(#clippath-10);
      }

      .cls-43 {
        clip-path: url(#clippath-42);
      }

      .cls-44 {
        clip-path: url(#clippath-59);
      }

      .cls-45 {
        clip-path: url(#clippath-43);
      }

      .cls-46 {
        clip-path: url(#clippath-64);
      }

      .cls-47 {
        clip-path: url(#clippath-25);
      }

      .cls-48 {
        clip-path: url(#clippath-27);
      }

      .cls-10 {
        fill: #c1dbb1;
      }

      .cls-49 {
        clip-path: url(#clippath-60);
      }

      .cls-50 {
        clip-path: url(#clippath-11);
      }

      .cls-51 {
        clip-path: url(#clippath-57);
      }

      .cls-19 {
        stroke-dasharray: 9.83 4.91 9.83 9.83 4.91 9.83;
      }

      .cls-20 {
        stroke-dasharray: 10.75 10.75 5.38 10.75;
      }

      .cls-52 {
        clip-path: url(#clippath-36);
      }

      .cls-53 {
        clip-path: url(#clippath-35);
      }

      .cls-54 {
        clip-path: url(#clippath-48);
      }

      .cls-55 {
        clip-path: url(#clippath-28);
      }

      .cls-11, .cls-56 {
        fill: #040000;
      }

      .cls-57 {
        clip-path: url(#clippath-1);
      }

      .cls-58 {
        clip-path: url(#clippath-56);
      }

      .cls-59 {
        letter-spacing: 0em;
      }

      .cls-12 {
        fill: #fcefca;
      }

      .cls-60 {
        clip-path: url(#clippath-45);
      }

      .cls-61 {
        clip-path: url(#clippath-46);
      }

      .cls-62 {
        clip-path: url(#clippath-40);
      }

      .cls-63 {
        clip-path: url(#clippath-5);
      }

      .cls-64 {
        clip-path: url(#clippath-20);
      }

      .cls-65 {
        clip-path: url(#clippath-8);
      }

      .cls-13 {
        fill: #f5ba1a;
      }

      .cls-66 {
        clip-path: url(#clippath-52);
      }

      .cls-22 {
        stroke-dasharray: 10.51 10.51 5.25 10.51;
      }

      .cls-67 {
        fill: #fff;
      }

      .cls-67, .cls-56 {
        font-family: DengXian, DengXian;
        font-size: 18px;
      }

      .cls-68 {
        clip-path: url(#clippath-41);
      }

      .cls-69 {
        clip-path: url(#clippath-67);
      }

      .cls-70 {
        clip-path: url(#clippath-3);
      }

      .cls-71 {
        clip-path: url(#clippath-26);
      }

      .cls-72 {
        clip-path: url(#clippath-12);
      }

      .cls-73 {
        clip-path: url(#clippath-50);
      }

      .cls-74 {
        clip-path: url(#clippath-14);
      }

      .cls-23 {
        clip-rule: evenodd;
      }

      .cls-75 {
        clip-path: url(#clippath-30);
      }

      .cls-76 {
        clip-path: url(#clippath-19);
      }

      .cls-77 {
        clip-path: url(#clippath-32);
      }

      .cls-78 {
        clip-path: url(#clippath-55);
      }

      .cls-24 {
        stroke: #142b4f;
      }

      .cls-79 {
        clip-path: url(#clippath-53);
      }

      .cls-80 {
        clip-path: url(#clippath-39);
      }

      .cls-25 {
        stroke-width: 6px;
      }

      .cls-81 {
        clip-path: url(#clippath-16);
      }

      .cls-82 {
        clip-path: url(#clippath-2);
      }

      .cls-83 {
        clip-path: url(#clippath-29);
      }

      .cls-26 {
        stroke-dasharray: 10.51 5.25 10.51 10.51 5.25 10.51;
      }

      .cls-84 {
        clip-path: url(#clippath-49);
      }

      .cls-85 {
        clip-path: url(#clippath-37);
      }

      .cls-86 {
        clip-path: url(#clippath-58);
      }

      .cls-87 {
        clip-path: url(#clippath-13);
      }

      .cls-14 {
        fill: #406cb4;
      }

      .cls-27 {
        stroke: #f5ba1a;
      }

      .cls-88 {
        clip-path: url(#clippath-63);
      }

      .cls-89 {
        clip-path: url(#clippath-24);
      }

      .cls-90 {
        clip-path: url(#clippath);
      }

      .cls-91 {
        clip-path: url(#clippath-68);
      }

      .cls-92 {
        clip-path: url(#clippath-65);
      }

      .cls-93 {
        clip-path: url(#clippath-44);
      }

      .cls-94 {
        fill: #d8e1f1;
      }

      .cls-95 {
        clip-path: url(#clippath-62);
      }

      .cls-96 {
        clip-path: url(#clippath-69);
      }
    </style>
    <clipPath id="clippath">
      <polygon class="cls-23" points="5.49 217.92 449.85 217.92 449.85 59.04 5.49 59.04 5.49 217.92 5.49 217.92"/>
    </clipPath>
    <clipPath id="clippath-1">
      <rect class="cls-18" x="5.49" y="59.04" width="444.36" height="158.88"/>
    </clipPath>
    <clipPath id="clippath-2">
      <polygon class="cls-23" points="5.49 217.92 449.85 217.92 449.85 59.04 5.49 59.04 5.49 217.92 5.49 217.92"/>
    </clipPath>
    <clipPath id="clippath-3">
      <polygon class="cls-23" points="5.49 217.92 449.85 217.92 449.85 59.04 5.49 59.04 5.49 217.92 5.49 217.92"/>
    </clipPath>
    <clipPath id="clippath-4">
      <polygon class="cls-23" points="5.49 217.92 449.85 217.92 449.85 59.04 5.49 59.04 5.49 217.92 5.49 217.92"/>
    </clipPath>
    <clipPath id="clippath-5">
      <rect class="cls-18" x="5.49" y="59.04" width="444.36" height="158.88"/>
    </clipPath>
    <clipPath id="clippath-6">
      <polygon class="cls-23" points="5.49 217.92 449.85 217.92 449.85 59.04 5.49 59.04 5.49 217.92 5.49 217.92"/>
    </clipPath>
    <clipPath id="clippath-7">
      <rect class="cls-18" x="5.49" y="59.04" width="444.36" height="158.88"/>
    </clipPath>
    <clipPath id="clippath-8">
      <polygon class="cls-23" points="5.49 217.92 449.85 217.92 449.85 59.04 5.49 59.04 5.49 217.92 5.49 217.92"/>
    </clipPath>
    <clipPath id="clippath-9">
      <polygon class="cls-23" points="5.49 217.92 449.85 217.92 449.85 59.04 5.49 59.04 5.49 217.92 5.49 217.92"/>
    </clipPath>
    <clipPath id="clippath-10">
      <polygon class="cls-23" points="5.49 217.92 449.85 217.92 449.85 59.04 5.49 59.04 5.49 217.92 5.49 217.92"/>
    </clipPath>
    <clipPath id="clippath-11">
      <polygon class="cls-23" points="5.49 217.92 449.85 217.92 449.85 59.04 5.49 59.04 5.49 217.92 5.49 217.92"/>
    </clipPath>
    <clipPath id="clippath-12">
      <polygon class="cls-23" points="5.49 217.92 449.85 217.92 449.85 59.04 5.49 59.04 5.49 217.92 5.49 217.92"/>
    </clipPath>
    <clipPath id="clippath-13">
      <polygon class="cls-23" points="5.49 217.92 449.85 217.92 449.85 59.04 5.49 59.04 5.49 217.92 5.49 217.92"/>
    </clipPath>
    <clipPath id="clippath-14">
      <polygon class="cls-23" points="5.49 217.92 449.85 217.92 449.85 59.04 5.49 59.04 5.49 217.92 5.49 217.92"/>
    </clipPath>
    <clipPath id="clippath-15">
      <polygon class="cls-23" points="5.49 217.92 449.85 217.92 449.85 59.04 5.49 59.04 5.49 217.92 5.49 217.92"/>
    </clipPath>
    <clipPath id="clippath-16">
      <polygon class="cls-23" points="5.49 217.92 449.85 217.92 449.85 59.04 5.49 59.04 5.49 217.92 5.49 217.92"/>
    </clipPath>
    <clipPath id="clippath-17">
      <polygon class="cls-23" points="5.49 217.92 449.85 217.92 449.85 59.04 5.49 59.04 5.49 217.92 5.49 217.92"/>
    </clipPath>
    <clipPath id="clippath-18">
      <polygon class="cls-23" points="5.49 217.92 449.85 217.92 449.85 59.04 5.49 59.04 5.49 217.92 5.49 217.92"/>
    </clipPath>
    <clipPath id="clippath-19">
      <polygon class="cls-23" points="5.49 217.92 449.85 217.92 449.85 59.04 5.49 59.04 5.49 217.92 5.49 217.92"/>
    </clipPath>
    <clipPath id="clippath-20">
      <polygon class="cls-23" points="5.49 217.92 449.85 217.92 449.85 59.04 5.49 59.04 5.49 217.92 5.49 217.92"/>
    </clipPath>
    <clipPath id="clippath-21">
      <polygon class="cls-23" points="5.49 217.92 449.85 217.92 449.85 59.04 5.49 59.04 5.49 217.92 5.49 217.92"/>
    </clipPath>
    <clipPath id="clippath-22">
      <polygon class="cls-23" points="5.49 217.92 449.85 217.92 449.85 59.04 5.49 59.04 5.49 217.92 5.49 217.92"/>
    </clipPath>
    <clipPath id="clippath-23">
      <polygon class="cls-23" points="5.49 217.92 449.85 217.92 449.85 59.04 5.49 59.04 5.49 217.92 5.49 217.92"/>
    </clipPath>
    <clipPath id="clippath-24">
      <polygon class="cls-23" points="5.49 217.92 449.85 217.92 449.85 59.04 5.49 59.04 5.49 217.92 5.49 217.92"/>
    </clipPath>
    <clipPath id="clippath-25">
      <polygon class="cls-23" points="5.49 217.92 449.85 217.92 449.85 59.04 5.49 59.04 5.49 217.92 5.49 217.92"/>
    </clipPath>
    <clipPath id="clippath-26">
      <rect class="cls-18" x="5.49" y="59.04" width="444.36" height="158.88"/>
    </clipPath>
    <clipPath id="clippath-27">
      <polygon class="cls-23" points="5.49 217.92 449.85 217.92 449.85 59.04 5.49 59.04 5.49 217.92 5.49 217.92"/>
    </clipPath>
    <clipPath id="clippath-28">
      <polygon class="cls-23" points="5.49 217.92 449.85 217.92 449.85 59.04 5.49 59.04 5.49 217.92 5.49 217.92"/>
    </clipPath>
    <clipPath id="clippath-29">
      <rect class="cls-18" x="5.49" y="59.04" width="444.36" height="158.88"/>
    </clipPath>
    <clipPath id="clippath-30">
      <polygon class="cls-23" points="5.49 217.92 449.85 217.92 449.85 59.04 5.49 59.04 5.49 217.92 5.49 217.92"/>
    </clipPath>
    <clipPath id="clippath-31">
      <polygon class="cls-23" points="5.49 217.92 449.85 217.92 449.85 59.04 5.49 59.04 5.49 217.92 5.49 217.92"/>
    </clipPath>
    <clipPath id="clippath-32">
      <polygon class="cls-23" points="5.49 217.92 449.85 217.92 449.85 59.04 5.49 59.04 5.49 217.92 5.49 217.92"/>
    </clipPath>
    <clipPath id="clippath-33">
      <polygon class="cls-23" points="175.46 156.75 231.26 156.75 231.26 60.51 175.46 60.51 175.46 156.75 175.46 156.75"/>
    </clipPath>
    <clipPath id="clippath-34">
      <polygon class="cls-23" points="441.91 175 832.51 175 832.51 74.56 441.91 74.56 441.91 175 441.91 175"/>
    </clipPath>
    <clipPath id="clippath-35">
      <rect class="cls-18" x="441.91" y="74.56" width="390.6" height="100.44"/>
    </clipPath>
    <clipPath id="clippath-36">
      <polygon class="cls-23" points="441.91 175 832.51 175 832.51 74.56 441.91 74.56 441.91 175 441.91 175"/>
    </clipPath>
    <clipPath id="clippath-37">
      <polygon class="cls-23" points="441.91 175 832.51 175 832.51 74.56 441.91 74.56 441.91 175 441.91 175"/>
    </clipPath>
    <clipPath id="clippath-38">
      <rect class="cls-18" x="441.91" y="74.56" width="390.6" height="100.44"/>
    </clipPath>
    <clipPath id="clippath-39">
      <polygon class="cls-23" points="441.91 175 832.51 175 832.51 74.56 441.91 74.56 441.91 175 441.91 175"/>
    </clipPath>
    <clipPath id="clippath-40">
      <rect class="cls-18" x="441.91" y="74.56" width="390.6" height="100.44"/>
    </clipPath>
    <clipPath id="clippath-41">
      <polygon class="cls-23" points="441.91 175 832.51 175 832.51 74.56 441.91 74.56 441.91 175 441.91 175"/>
    </clipPath>
    <clipPath id="clippath-42">
      <polygon class="cls-23" points="441.91 175 832.51 175 832.51 74.56 441.91 74.56 441.91 175 441.91 175"/>
    </clipPath>
    <clipPath id="clippath-43">
      <polygon class="cls-23" points="441.91 175 832.51 175 832.51 74.56 441.91 74.56 441.91 175 441.91 175"/>
    </clipPath>
    <clipPath id="clippath-44">
      <polygon class="cls-23" points="441.91 175 832.51 175 832.51 74.56 441.91 74.56 441.91 175 441.91 175"/>
    </clipPath>
    <clipPath id="clippath-45">
      <polygon class="cls-23" points="441.91 175 832.51 175 832.51 74.56 441.91 74.56 441.91 175 441.91 175"/>
    </clipPath>
    <clipPath id="clippath-46">
      <polygon class="cls-23" points="441.91 175 832.51 175 832.51 74.56 441.91 74.56 441.91 175 441.91 175"/>
    </clipPath>
    <clipPath id="clippath-47">
      <polygon class="cls-23" points="441.91 175 832.51 175 832.51 74.56 441.91 74.56 441.91 175 441.91 175"/>
    </clipPath>
    <clipPath id="clippath-48">
      <polygon class="cls-23" points="441.91 175 832.51 175 832.51 74.56 441.91 74.56 441.91 175 441.91 175"/>
    </clipPath>
    <clipPath id="clippath-49">
      <polygon class="cls-23" points="441.91 175 832.51 175 832.51 74.56 441.91 74.56 441.91 175 441.91 175"/>
    </clipPath>
    <clipPath id="clippath-50">
      <polygon class="cls-23" points="441.91 175 832.51 175 832.51 74.56 441.91 74.56 441.91 175 441.91 175"/>
    </clipPath>
    <clipPath id="clippath-51">
      <polygon class="cls-23" points="441.91 175 832.51 175 832.51 74.56 441.91 74.56 441.91 175 441.91 175"/>
    </clipPath>
    <clipPath id="clippath-52">
      <polygon class="cls-23" points="441.91 175 832.51 175 832.51 74.56 441.91 74.56 441.91 175 441.91 175"/>
    </clipPath>
    <clipPath id="clippath-53">
      <polygon class="cls-23" points="441.91 175 832.51 175 832.51 74.56 441.91 74.56 441.91 175 441.91 175"/>
    </clipPath>
    <clipPath id="clippath-54">
      <polygon class="cls-23" points="441.91 175 832.51 175 832.51 74.56 441.91 74.56 441.91 175 441.91 175"/>
    </clipPath>
    <clipPath id="clippath-55">
      <polygon class="cls-23" points="441.91 175 832.51 175 832.51 74.56 441.91 74.56 441.91 175 441.91 175"/>
    </clipPath>
    <clipPath id="clippath-56">
      <polygon class="cls-23" points="441.91 175 832.51 175 832.51 74.56 441.91 74.56 441.91 175 441.91 175"/>
    </clipPath>
    <clipPath id="clippath-57">
      <polygon class="cls-23" points="441.91 175 832.51 175 832.51 74.56 441.91 74.56 441.91 175 441.91 175"/>
    </clipPath>
    <clipPath id="clippath-58">
      <polygon class="cls-23" points="441.91 175 832.51 175 832.51 74.56 441.91 74.56 441.91 175 441.91 175"/>
    </clipPath>
    <clipPath id="clippath-59">
      <polygon class="cls-23" points="441.91 175 832.51 175 832.51 74.56 441.91 74.56 441.91 175 441.91 175"/>
    </clipPath>
    <clipPath id="clippath-60">
      <polygon class="cls-23" points="441.91 175 832.51 175 832.51 74.56 441.91 74.56 441.91 175 441.91 175"/>
    </clipPath>
    <clipPath id="clippath-61">
      <polygon class="cls-23" points="441.91 175 832.51 175 832.51 74.56 441.91 74.56 441.91 175 441.91 175"/>
    </clipPath>
    <clipPath id="clippath-62">
      <rect class="cls-18" x="346.42" y="15.61" width="217.08" height="37.92"/>
    </clipPath>
    <clipPath id="clippath-63">
      <polygon class="cls-23" points="346.42 53.53 563.5 53.53 563.5 15.61 346.42 15.61 346.42 53.53 346.42 53.53"/>
    </clipPath>
    <clipPath id="clippath-64">
      <rect class="cls-18" x="346.42" y="15.61" width="217.08" height="37.92"/>
    </clipPath>
    <clipPath id="clippath-65">
      <polygon class="cls-23" points="346.42 53.53 563.5 53.53 563.5 15.61 346.42 15.61 346.42 53.53 346.42 53.53"/>
    </clipPath>
    <clipPath id="clippath-66">
      <rect class="cls-18" x="346.42" y="15.61" width="217.08" height="37.92"/>
    </clipPath>
    <clipPath id="clippath-67">
      <polygon class="cls-23" points="346.42 53.53 563.5 53.53 563.5 15.61 346.42 15.61 346.42 53.53 346.42 53.53"/>
    </clipPath>
    <clipPath id="clippath-68">
      <rect class="cls-18" x="346.42" y="15.61" width="217.08" height="37.92"/>
    </clipPath>
    <clipPath id="clippath-69">
      <polygon class="cls-23" points="346.42 53.53 563.5 53.53 563.5 15.61 346.42 15.61 346.42 53.53 346.42 53.53"/>
    </clipPath>
    <clipPath id="clippath-70">
      <rect class="cls-18" x="346.42" y="15.61" width="217.08" height="37.92"/>
    </clipPath>
    <clipPath id="clippath-71">
      <rect class="cls-18" x="295.42" y="107.04" width="51" height="37.92"/>
    </clipPath>
  </defs>
  <g>
    <polygon class="cls-14" points="118.65 64.8 174.33 87.29 174.33 141.43 118.65 163.92 118.65 64.8 118.65 64.8"/>
    <polygon class="cls-24" points="118.65 64.8 174.33 87.29 174.33 141.43 118.65 163.92 118.65 64.8 118.65 64.8"/>
    <g class="cls-90">
      <g class="cls-57">
        <text class="cls-67" transform="translate(136.28 87.27) rotate(90)"><tspan x="0" y="0">编码器</tspan></text>
      </g>
      <g class="cls-82">
        <line class="cls-25" x1="66.57" y1="115.08" x2="103.61" y2="115.08"/>
        <polygon class="cls-14" points="100.61 106.08 118.61 115.08 100.61 124.08 100.61 106.08 100.61 106.08"/>
        <g class="cls-70">
          <rect class="cls-94" x="6.45" y="85.44" width="56.28" height="56.4" rx="9.38" ry="9.38"/>
          <g class="cls-33">
            <g class="cls-63">
              <text class="cls-56" transform="translate(16.34 108.63)"><tspan x="0" y="0">输入</tspan></text>
            </g>
            <g class="cls-5">
              <g class="cls-6">
                <text class="cls-56" transform="translate(16.34 130.23)"><tspan x="0" y="0">数据</tspan></text>
              </g>
              <g class="cls-65">
                <polygon class="cls-10" points="214.65 62.88 299.97 62.88 299.97 100.2 214.65 100.2 214.65 62.88 214.65 62.88"/>
                <polygon class="cls-24" points="214.65 62.88 299.97 62.88 299.97 100.2 214.65 100.2 214.65 62.88 214.65 62.88"/>
                <g class="cls-39">
                  <path class="cls-11" d="M251.83,78.95h2.5l-1.1,4.75c-.09.4-.17.78-.24,1.12s-.1.63-.1.86c0,.26.05.45.15.59s.27.2.5.2c.31,0,.63-.15.96-.44s.62-.63.86-1.02.42-.82.52-1.31l1.05-4.76h2.54l-1.42,5.98c-.09.37-.13.7-.13,1,0,.19.03.34.1.45s.18.16.33.16.35-.07.54-.22.43-.37.7-.67l.63.63c-.54.54-1.04.94-1.49,1.17s-.91.36-1.38.36c-.51,0-.91-.13-1.2-.4s-.44-.63-.44-1.08c0-.19.02-.33.05-.42l-.12-.02c-.5.62-.97,1.07-1.41,1.37s-.87.45-1.29.45c-.45,0-.82-.13-1.12-.39l-.07.03c-.06.67-.1,1.34-.1,2.02,0,.35,0,.67.03.94l-.18.89h-1.92l-.45-.6c.09-.29.22-.74.38-1.35s.29-1.15.39-1.61l1.92-8.68Z"/>
                  <g class="cls-42">
                    <polygon class="cls-10" points="214.65 119.28 299.97 119.28 299.97 156.6 214.65 156.6 214.65 119.28 214.65 119.28"/>
                    <polygon class="cls-24" points="214.65 119.28 299.97 119.28 299.97 156.6 214.65 156.6 214.65 119.28 214.65 119.28"/>
                    <g class="cls-50">
                      <path class="cls-11" d="M248.51,144.44c-.3.22-.52.46-.67.71s-.22.53-.22.85c0,.53.21.92.63,1.16s1.06.37,1.92.37c.53,0,.98-.07,1.36-.21s.67-.34.87-.61.3-.57.3-.92c0-.16-.02-.32-.06-.48s-.12-.29-.23-.42-.28-.22-.49-.29-.49-.11-.83-.11h-1.31c-.47,0-.89-.02-1.26-.05h0ZM240.83,136.44c-.71,0-1.25.31-1.63.92s-.57,1.49-.57,2.63c0,1.21.19,2.13.58,2.78s.93.97,1.65.97c.39,0,.73-.1,1-.29s.5-.45.67-.77.3-.7.37-1.12.11-.87.11-1.33c0-.86-.1-1.58-.29-2.14s-.45-.99-.78-1.25-.7-.4-1.12-.4h0ZM250,136.41c-.56,0-.98.18-1.27.55s-.44.9-.44,1.6c0,.73.15,1.3.45,1.7s.73.6,1.29.6c.3,0,.55-.06.76-.17s.38-.27.51-.47.23-.43.29-.69.09-.53.09-.82c0-.52-.07-.95-.22-1.29s-.35-.6-.6-.76-.54-.24-.87-.24h0ZM250.02,135.74c.42,0,.84.05,1.26.15h3.11v.89l-1.63-.06-.08.1c.18.18.33.43.43.74s.16.65.16,1.02c0,.96-.29,1.69-.88,2.21s-1.43.78-2.51.78c-.49,0-.91-.06-1.26-.18-.45.34-.67.67-.67,1,0,.22.04.38.13.49s.23.19.42.24.49.07.89.07h2.11c.62,0,1.13.1,1.52.29s.67.45.84.78.25.7.25,1.14c0,.55-.16,1.04-.47,1.47s-.77.77-1.37,1.01-1.29.36-2.09.36c-.59,0-1.13-.04-1.62-.11s-.91-.19-1.26-.36-.62-.39-.81-.66-.29-.61-.29-1.02c0-.37.12-.7.37-1.01s.59-.57,1.05-.8c-.28-.11-.49-.28-.65-.49s-.24-.47-.24-.76c0-.33.09-.64.28-.92s.52-.6.99-.95c-.42-.25-.74-.58-.96-1s-.33-.9-.33-1.44c0-.5.08-.94.25-1.31s.4-.68.69-.92.65-.42,1.05-.54.84-.18,1.31-.18h0ZM240.87,135.74c1.25,0,2.2.36,2.85,1.09s.97,1.78.97,3.14c0,.97-.16,1.79-.48,2.46s-.78,1.17-1.37,1.5-1.29.5-2.1.5c-1.22,0-2.15-.36-2.79-1.08s-.96-1.78-.96-3.19c0-.97.17-1.78.51-2.45s.8-1.16,1.38-1.49,1.25-.49,2-.49h0ZM233.8,131.72h.53v10.38c0,.5.02.85.07,1.05s.14.35.27.45.35.19.65.27v.43h-3.49v-.43c.29-.08.5-.16.61-.24s.2-.18.25-.29.08-.27.11-.47.03-.45.03-.77v-7.36c0-.56,0-.96-.01-1.18s-.03-.41-.07-.57-.09-.28-.16-.36-.16-.16-.27-.21-.32-.11-.62-.16v-.46l2.12-.09h0Z"/>
                      <g class="cls-72">
                        <path class="cls-11" d="M265,137.3c-.67.08-1.28.33-1.81.73s-.94.93-1.23,1.57-.44,1.35-.44,2.11c0,.63.1,1.08.29,1.37s.51.43.95.43.84-.22,1.21-.65.66-1.01.88-1.74.33-1.44.33-2.14c0-.74-.06-1.31-.18-1.7h0ZM266.18,135.58h3.52l-.37,1.63h-2.58v.04c.26.32.45.67.58,1.05s.19.79.19,1.21c0,.86-.22,1.69-.66,2.5s-1.01,1.41-1.71,1.81-1.52.61-2.44.61c-1.09,0-1.94-.29-2.54-.86s-.9-1.37-.9-2.39c0-.71.12-1.37.35-1.98s.56-1.15.97-1.62.88-.85,1.4-1.15,1.11-.51,1.78-.65,1.47-.21,2.4-.21h0Z"/>
                        <g class="cls-87">
                          <path class="cls-11" d="M273.81,128.8c.63,0,1.15.08,1.55.25.4.17.69.4.87.69s.27.63.27,1.02c0,.34-.06.66-.19.95-.13.29-.35.63-.66,1s-.84.91-1.58,1.6c-.23.21-.5.5-.82.85-.32.35-.57.65-.75.9v.06h2.29c.28,0,.49-.02.63-.06.14-.04.25-.11.33-.21s.15-.25.2-.45h.74l-.15,2.31h-5.9v-.43c.33-.76,1.01-1.74,2.03-2.94.46-.55.82-.99,1.06-1.35.24-.35.42-.69.54-1,.12-.31.18-.64.18-.97,0-.47-.11-.84-.32-1.11-.21-.27-.5-.4-.86-.4-.7,0-1.15.5-1.35,1.51h-1.16v-1.52c.7-.28,1.27-.47,1.7-.56s.88-.14,1.36-.14h0Z"/>
                          <g class="cls-74">
                            <polygon class="cls-10" points="214.65 180.24 299.97 180.24 299.97 217.44 214.65 217.44 214.65 180.24 214.65 180.24"/>
                            <polygon class="cls-24" points="214.65 180.24 299.97 180.24 299.97 217.44 214.65 217.44 214.65 180.24 214.65 180.24"/>
                            <g class="cls-28">
                              <path class="cls-11" d="M220.89,197.14c-.6,0-1.09.24-1.45.73s-.57,1.17-.64,2.07h3.84c-.04-.63-.11-1.15-.24-1.55s-.31-.71-.55-.92-.57-.32-.97-.32h0ZM220.97,196.44c.59,0,1.1.09,1.51.28s.75.44,1,.77.44.74.58,1.23.22,1.14.23,1.94h-5.54v.16c0,.69.08,1.27.23,1.74s.41.84.76,1.11.82.4,1.38.4c.48,0,.91-.09,1.3-.27s.77-.47,1.15-.87l.54.57c-.38.39-.72.7-1.03.92s-.66.4-1.03.52-.79.19-1.24.19c-1.21,0-2.12-.36-2.73-1.09s-.92-1.79-.92-3.2c0-.87.16-1.64.47-2.31s.76-1.18,1.34-1.55,1.25-.54,2-.54h0Z"/>
                              <g class="cls-81">
                                <path class="cls-11" d="M229.04,198.31c.7,0,1.54.31,2.51.92s1.71.92,2.21.92.91-.13,1.25-.4.67-.67,1.01-1.23l.7.47c-.25.52-.65,1.05-1.2,1.58s-1.21.8-1.99.8-1.61-.31-2.57-.92-1.7-.92-2.21-.92c-.43,0-.8.13-1.12.4s-.61.66-.85,1.18l-.69-.39c.3-.69.69-1.27,1.19-1.73s1.08-.69,1.75-.69h0Z"/>
                                <g class="cls-7">
                                  <path class="cls-11" d="M238.87,193h2.75l4.34,7.24c.21.35.39.66.53.92s.29.56.44.89h.11c-.03-.36-.06-1.07-.08-2.13s-.04-2.02-.04-2.88v-1.85c0-.4-.01-.7-.04-.89s-.07-.33-.13-.43-.15-.18-.25-.24-.3-.13-.57-.21v-.43h3.16v.43c-.26.07-.45.13-.56.19s-.2.13-.26.23-.12.23-.15.42-.05.5-.05.92v9.85h-1.1l-4.9-8.21c-.3-.51-.52-.88-.65-1.12s-.25-.47-.36-.69h-.15c.04.45.07,1.27.09,2.45s.03,2.36.03,3.53v1.79c0,.39.01.68.04.86s.07.33.13.43.15.19.27.26.31.14.58.21v.43h-3.21v-.43c.36-.09.61-.2.73-.31s.2-.28.24-.49.06-.53.06-.97v-7.6c0-.4-.01-.7-.04-.88s-.08-.33-.15-.43-.16-.18-.27-.25-.3-.13-.57-.21v-.43Z"/>
                                  <g class="cls-31">
                                    <path class="cls-11" d="M256.98,192.29l.24.68c-1.37.45-2.39,1.33-3.05,2.64s-.99,2.95-.99,4.94.33,3.74.99,5.07,1.67,2.22,3.02,2.67l-.21.68c-1.72-.45-3.03-1.42-3.95-2.91s-1.37-3.3-1.37-5.42.46-3.92,1.38-5.42,2.23-2.47,3.94-2.92h0Z"/>
                                    <g class="cls-76">
                                      <path class="cls-11" d="M263.02,193.84c-.42,0-.74.18-.98.55s-.41.91-.52,1.63-.16,1.67-.16,2.83c0,1.29.06,2.31.17,3.08s.29,1.32.54,1.68.57.54.98.54c.22,0,.42-.05.58-.16s.32-.28.45-.51.24-.54.34-.92.16-.86.2-1.43.06-1.21.06-1.91c0-1.05-.04-1.93-.12-2.65s-.19-1.27-.34-1.65-.32-.66-.52-.83-.43-.25-.69-.25h0ZM263.08,192.85c1.44,0,2.52.49,3.23,1.47s1.06,2.48,1.06,4.5-.38,3.64-1.13,4.71-1.86,1.6-3.32,1.6-2.51-.5-3.19-1.5-1.03-2.51-1.03-4.53.38-3.58,1.15-4.65,1.85-1.6,3.23-1.6h0Z"/>
                                      <g class="cls-64">
                                        <path class="cls-11" d="M269.62,202.95h1.54c.08.41.12.81.12,1.21s-.07.79-.21,1.12-.36.68-.67,1.02-.73.71-1.27,1.11l-.47-.54c.3-.28.52-.53.65-.76s.23-.48.29-.77.09-.65.09-1.08-.02-.88-.06-1.32h0Z"/>
                                        <g class="cls-4">
                                          <path class="cls-11" d="M281.19,192.85h1.12c-.04.56-.05,1.34-.05,2.34v7.35c0,.34.02.6.06.77s.11.31.2.42.24.19.42.25.41.11.69.14.64.05,1.09.07v.8h-7.58v-.8c.65-.03,1.11-.07,1.39-.12s.49-.12.64-.22.25-.24.32-.42.1-.48.1-.89v-6.35c0-.24-.05-.41-.14-.52s-.22-.16-.37-.16c-.15,0-.35.07-.62.2s-.7.41-1.31.83l-.54-.93,4.59-2.75h0Z"/>
                                          <g class="cls-35">
                                            <path class="cls-11" d="M286.54,192.29c1.71.45,3.02,1.43,3.94,2.92s1.38,3.3,1.38,5.42-.46,3.93-1.37,5.42-2.23,2.46-3.95,2.91l-.21-.68c1.35-.45,2.36-1.34,3.02-2.67s.99-3.02.99-5.07-.33-3.63-.98-4.94-1.67-2.19-3.05-2.64l.24-.68Z"/>
                                            <g class="cls-36">
                                              <polyline class="cls-27" points="300.03 137.94 337.28 137.94 337.28 198.87 301.03 198.87"/>
                                              <g class="cls-89">
                                                <path class="cls-14" d="M325.89,168.48c0-6.49,5.27-11.76,11.76-11.76s11.76,5.27,11.76,11.76-5.27,11.76-11.76,11.76-11.76-5.27-11.76-11.76h0Z"/>
                                                <path class="cls-24" d="M325.89,168.48c0-6.49,5.27-11.76,11.76-11.76s11.76,5.27,11.76,11.76-5.27,11.76-11.76,11.76-11.76-5.27-11.76-11.76h0Z"/>
                                                <g class="cls-47">
                                                  <g class="cls-71">
                                                    <text class="cls-67" transform="translate(333.7 174.49)"><tspan x="0" y="0">x</tspan></text>
                                                  </g>
                                                  <g class="cls-48">
                                                    <path class="cls-14" d="M387.33,123.96c0-6.49,5.27-11.76,11.76-11.76s11.76,5.27,11.76,11.76-5.27,11.76-11.76,11.76-11.76-5.27-11.76-11.76h0Z"/>
                                                    <path class="cls-24" d="M387.33,123.96c0-6.49,5.27-11.76,11.76-11.76s11.76,5.27,11.76,11.76-5.27,11.76-11.76,11.76-11.76-5.27-11.76-11.76h0Z"/>
                                                    <g class="cls-55">
                                                      <g class="cls-83">
                                                        <text class="cls-67" transform="translate(393.09 129.92)"><tspan x="0" y="0">+</tspan></text>
                                                      </g>
                                                      <g class="cls-75">
                                                        <polyline class="cls-27" points="300.03 81.66 399.16 81.66 399.16 112.27"/>
                                                        <g class="cls-15">
                                                          <polyline class="cls-27" points="349.47 168.58 399.16 168.58 399.16 135.78"/>
                                                          <g class="cls-77">
                                                            <line class="cls-27" x1="410.91" y1="124.02" x2="433.21" y2="124.02"/>
                                                            <polygon class="cls-13" points="431.71 119.52 440.71 124.02 431.71 128.52 431.71 119.52 431.71 119.52"/>
                                                            <polygon class="cls-18" points="5.49 217.92 449.85 217.92 449.85 59.04 5.49 59.04 5.49 217.92 5.49 217.92"/>
                                                          </g>
                                                        </g>
                                                      </g>
                                                    </g>
                                                  </g>
                                                </g>
                                              </g>
                                            </g>
                                          </g>
                                        </g>
                                      </g>
                                    </g>
                                  </g>
                                </g>
                              </g>
                            </g>
                          </g>
                        </g>
                      </g>
                    </g>
                  </g>
                </g>
              </g>
            </g>
          </g>
        </g>
      </g>
    </g>
  </g>
  <g>
    <line class="cls-25" x1="177.26" y1="101.68" x2="197.78" y2="87.26"/>
    <polygon class="cls-14" points="200.5 96.35 210.05 78.63 190.15 81.62 200.5 96.35 200.5 96.35"/>
    <g class="cls-29">
      <line class="cls-25" x1="177.26" y1="120.75" x2="199.64" y2="131.9"/>
      <polygon class="cls-14" points="200.97 122.5 213.07 138.58 192.94 138.62 200.97 122.5 200.97 122.5"/>
    </g>
  </g>
  <g>
    <polygon class="cls-8" points="714.43 75.28 658.75 97.76 658.75 151.79 714.43 174.28 714.43 75.28 714.43 75.28"/>
    <polygon class="cls-24" points="714.43 75.28 658.75 97.76 658.75 151.79 714.43 174.28 714.43 75.28 714.43 75.28"/>
    <g class="cls-2">
      <g class="cls-53">
        <text class="cls-67" transform="translate(696.79 151.86) rotate(-90)"><tspan x="0" y="0">解码器</tspan></text>
      </g>
      <g class="cls-52">
        <rect class="cls-94" x="775.75" y="98.68" width="56.28" height="56.28" rx="9.38" ry="9.38"/>
        <g class="cls-85">
          <g class="cls-3">
            <text class="cls-56" transform="translate(785.67 121.8)"><tspan x="0" y="0">输出</tspan></text>
          </g>
          <g class="cls-80">
            <g class="cls-62">
              <text class="cls-56" transform="translate(785.67 143.39)"><tspan x="0" y="0">数据</tspan></text>
            </g>
            <g class="cls-68">
              <polygon class="cls-12" points="442.39 88.24 613.87 88.24 613.87 160 442.39 160 442.39 88.24 442.39 88.24"/>
              <polygon class="cls-24" points="442.39 88.24 613.87 88.24 613.87 160 442.39 160 442.39 88.24 442.39 88.24"/>
              <g class="cls-43">
                <path class="cls-11" d="M471.75,101.59h6.66v.44l-4.81,7.25h2.31c.3,0,.53-.02.69-.07s.28-.12.4-.22.22-.27.33-.49.23-.57.38-1.05h.76v2.55h-6.77v-.43l4.82-7.26h-2.38c-.29,0-.52.05-.69.16s-.33.28-.48.53-.3.58-.44.99h-.76v-2.39h0Z"/>
                <g class="cls-45">
                  <path class="cls-11" d="M485.38,106.09h10.83v1.17h-10.83v-1.17h0ZM485.38,102.44h10.83v1.17h-10.83v-1.17h0Z"/>
                  <g class="cls-93">
                    <path class="cls-11" d="M505.28,101.59h1.48l-1.08,4.79c-.09.39-.16.72-.21,1.01s-.07.54-.07.78c0,.3.08.54.24.69s.39.24.69.24c.35,0,.72-.18,1.13-.55s.77-.83,1.09-1.39.53-1.05.62-1.48l.87-4.09h1.52l-1.25,5.56c-.13.6-.2,1.04-.2,1.3,0,.23.04.4.11.51s.2.16.36.16c.13,0,.3-.05.49-.16s.4-.29.64-.55l.49.49c-.33.32-.62.57-.87.75s-.49.3-.7.37-.44.11-.69.11c-.38,0-.68-.11-.89-.34s-.32-.54-.32-.94c0-.33.08-.68.23-1.05l-.1-.05c-.54.81-1.05,1.4-1.51,1.76s-.94.55-1.43.55c-.25,0-.47-.04-.67-.12s-.41-.23-.63-.45c-.07.35-.13.82-.19,1.42s-.08,1.13-.08,1.6c0,.18,0,.32.02.42l-.12.59h-1.14l-.43-.53c.26-.97.51-1.97.74-3l1.86-8.4Z"/>
                    <g class="cls-60">
                      <polygon class="cls-11" points="523.05 99.2 524.29 99.2 524.29 104.26 529.08 104.26 529.08 105.43 524.29 105.43 524.29 110.49 523.05 110.49 523.05 105.43 518.26 105.43 518.26 104.26 523.05 104.26 523.05 99.2 523.05 99.2"/>
                      <g class="cls-61">
                        <path class="cls-11" d="M540.72,102.78c-.79.02-1.49.25-2.11.68s-1.1,1.01-1.45,1.74-.51,1.53-.51,2.42c0,.46.07.82.22,1.1s.34.47.56.58.46.16.72.16c.59,0,1.1-.19,1.54-.58s.78-.98,1.05-1.77.4-1.56.4-2.3c0-.8-.14-1.48-.42-2.02h0ZM542.07,101.59h2.79l-.26,1.16h-2.87l-.02.07c.33.4.57.8.72,1.2s.22.85.22,1.33c0,.87-.19,1.68-.56,2.43s-.9,1.33-1.57,1.74-1.44.62-2.29.62c-.97,0-1.7-.26-2.21-.78s-.76-1.25-.76-2.2c0-.65.1-1.27.29-1.85s.49-1.12.87-1.61.82-.89,1.31-1.19,1.07-.53,1.74-.69,1.54-.23,2.6-.23h0Z"/>
                        <g class="cls-32">
                          <path class="cls-11" d="M558.29,103.71c.31,0,.57.11.77.32s.3.49.3.83-.1.61-.3.82-.46.32-.77.32-.57-.11-.77-.32-.3-.48-.3-.82.1-.62.3-.83.46-.32.77-.32h0ZM558.28,98.42c-1.13,0-2.18.27-3.15.8s-1.72,1.3-2.27,2.29-.82,2.1-.82,3.34.27,2.3.81,3.29,1.3,1.76,2.27,2.31,2.03.83,3.16.83c1.2,0,2.28-.28,3.25-.83s1.71-1.33,2.25-2.32.8-2.09.8-3.28-.27-2.37-.82-3.35-1.3-1.75-2.26-2.28-2.03-.8-3.21-.8h0ZM558.29,97.29c1.39,0,2.66.32,3.82.95s2.07,1.53,2.73,2.69.99,2.46.99,3.92-.32,2.71-.96,3.86-1.54,2.06-2.71,2.71-2.45.98-3.87.98-2.68-.32-3.85-.97-2.07-1.55-2.71-2.71-.97-2.45-.97-3.88.33-2.73.99-3.89,1.57-2.06,2.72-2.7,2.43-.96,3.81-.96h0Z"/>
                          <g class="cls-54">
                            <path class="cls-11" d="M576.84,102.13c-.59,0-1.16.3-1.71.9s-.97,1.41-1.26,2.43c.83,0,1.54-.08,2.13-.22s1.05-.37,1.36-.69.47-.74.47-1.27c0-.36-.08-.64-.25-.84s-.41-.3-.74-.3h0ZM577.15,101.44c.71,0,1.24.14,1.6.43s.53.74.53,1.34c0,1-.47,1.74-1.4,2.24s-2.32.75-4.16.75c-.07.35-.11.73-.11,1.14,0,.62.12,1.06.36,1.34s.63.42,1.18.42,1.03-.12,1.46-.35.9-.59,1.38-1.08l.54.57c-.57.63-1.14,1.1-1.73,1.42s-1.26.47-2.03.47c-.85,0-1.51-.26-1.97-.78s-.7-1.24-.7-2.17c0-.63.11-1.3.34-2.02s.57-1.36,1.02-1.93,1-1.01,1.64-1.33,1.32-.47,2.04-.47h0Z"/>
                            <g class="cls-84">
                              <path class="cls-11" d="M463.92,135.9c-.79.02-1.49.25-2.11.68s-1.1,1.01-1.45,1.74-.51,1.53-.51,2.42c0,.46.07.82.22,1.1s.34.47.56.58.46.16.72.16c.59,0,1.1-.19,1.54-.58s.78-.98,1.05-1.77.4-1.56.4-2.3c0-.8-.14-1.48-.42-2.02h0ZM465.27,134.71h2.79l-.26,1.16h-2.87l-.02.07c.33.4.57.8.72,1.2s.22.85.22,1.33c0,.87-.19,1.68-.56,2.43s-.9,1.33-1.57,1.74-1.44.62-2.29.62c-.97,0-1.7-.26-2.21-.78s-.76-1.25-.76-2.2c0-.65.1-1.27.29-1.85s.49-1.12.87-1.61.82-.89,1.31-1.19,1.07-.53,1.74-.69,1.54-.23,2.6-.23h0Z"/>
                              <g class="cls-73">
                                <path class="cls-11" d="M474.94,139.21h10.83v1.17h-10.83v-1.17h0ZM474.94,135.56h10.83v1.17h-10.83v-1.17h0Z"/>
                                <g class="cls-1">
                                  <path class="cls-11" d="M515.06,135.62c-.33,0-.61.05-.85.15-.24.1-.47.27-.71.5-.23.23-.4.45-.5.66s-.15.44-.15.69v2.32c0,.56.04,1,.11,1.3s.19.55.37.74c.18.19.39.33.63.43s.56.14.96.14c.71,0,1.24-.29,1.6-.88.36-.59.54-1.46.54-2.61,0-2.3-.67-3.45-2.01-3.45h0ZM496.75,135.25c-.6,0-1.09.24-1.45.73s-.57,1.17-.64,2.07h3.84c-.04-.63-.11-1.15-.24-1.55s-.31-.71-.55-.92-.57-.32-.97-.32h0ZM501.24,134.71h3.45v.43c-.46.07-.69.25-.69.54,0,.13.03.27.09.4s.16.28.29.45l1.07,1.5,1.14-1.45c.12-.16.22-.31.3-.46.08-.15.11-.3.11-.46,0-.13-.05-.25-.15-.33-.1-.09-.25-.15-.47-.19v-.43h2.87v.43c-.22.06-.45.19-.68.38s-.51.49-.85.91l-1.82,2.23,2,2.7c.29.39.54.68.77.89s.46.35.69.44v.43h-3.53v-.43c.49-.06.73-.24.73-.54,0-.12-.02-.24-.06-.35s-.12-.24-.23-.39l-1.27-1.78-1.35,1.76c-.1.13-.18.25-.23.36-.06.11-.08.23-.08.36,0,.16.05.29.16.39.11.1.28.17.51.19v.43h-2.94v-.43c.19-.07.37-.16.52-.26s.31-.24.47-.41.37-.41.64-.73l1.83-2.27-1.87-2.57c-.26-.35-.46-.61-.62-.76s-.29-.28-.42-.36-.26-.14-.39-.18v-.43ZM515.72,134.57c.97,0,1.71.36,2.23,1.09s.78,1.78.78,3.18c0,.97-.15,1.78-.44,2.44-.29.66-.72,1.15-1.28,1.49s-1.23.5-2,.5c-.43,0-.83-.04-1.18-.11s-.67-.17-.97-.29v1.85c0,.38.01.67.04.85s.07.34.14.44.16.2.29.27c.13.07.33.13.61.19v.43h-3.59v-.43c.21-.06.38-.12.51-.18s.23-.15.3-.27.12-.28.14-.49.04-.48.04-.82v-7.54c0-.42,0-.72-.02-.9s-.04-.33-.07-.44-.09-.21-.15-.29c-.07-.08-.16-.14-.27-.19s-.3-.11-.57-.16v-.47l2.07-.08h.54l-.11,1.43.13.04c.36-.37.65-.64.86-.8s.43-.31.65-.42c.23-.11.44-.19.65-.24.21-.05.43-.07.66-.07h0ZM496.84,134.56c.59,0,1.1.09,1.51.28s.75.44,1,.77.44.74.58,1.23.22,1.14.23,1.94h-5.54v.16c0,.69.08,1.27.23,1.74s.41.84.76,1.11.82.4,1.38.4c.48,0,.91-.09,1.3-.27s.77-.47,1.15-.87l.54.57c-.38.39-.72.7-1.03.92s-.66.4-1.03.52-.79.19-1.24.19c-1.21,0-2.12-.36-2.73-1.09s-.92-1.79-.92-3.2c0-.87.16-1.64.47-2.31s.76-1.18,1.34-1.55,1.25-.54,2-.54h0Z"/>
                                  <g class="cls-66">
                                    <path class="cls-11" d="M526.49,130.41l.24.68c-1.37.45-2.39,1.33-3.05,2.64s-.99,2.95-.99,4.94.33,3.74.99,5.07,1.67,2.22,3.02,2.67l-.21.68c-1.72-.45-3.03-1.42-3.95-2.91s-1.37-3.3-1.37-5.42.46-3.92,1.38-5.42,2.23-2.47,3.94-2.92h0Z"/>
                                    <g class="cls-79">
                                      <path class="cls-11" d="M532.82,117.29h.48c-.04.56-.05,1.34-.05,2.34v7.51c0,.34.02.6.06.77s.11.31.2.42.24.19.42.25.41.11.69.14.64.05,1.09.07v.64h-6.5v-.64c.65-.03,1.11-.07,1.39-.12s.49-.12.64-.22.25-.24.32-.42.1-.48.1-.89v-7.13c0-.23-.04-.41-.12-.51s-.2-.16-.36-.16c-.19,0-.45.1-.8.29s-.77.46-1.28.8l-.39-.68,4.11-2.45h0Z"/>
                                      <g class="cls-37">
                                        <path class="cls-11" d="M532.2,142.97c1.09,0,1.91.24,2.47.72s.83,1.17.83,2.08c0,.31-.03.6-.09.86s-.16.52-.29.77-.31.53-.53.82-.47.59-.74.89-.74.8-1.4,1.51c-1.11,1.18-1.93,2.21-2.45,3.08h3.31c.29,0,.52-.02.69-.05s.32-.09.42-.18.19-.19.25-.32.14-.34.23-.61h.75l-.15,2.57h-7.23v-.42c.25-.62.59-1.25,1.02-1.89s1.03-1.4,1.82-2.28c.68-.75,1.17-1.32,1.47-1.71.33-.42.57-.79.73-1.09s.28-.6.35-.87.11-.55.11-.82c0-.44-.07-.83-.21-1.16s-.36-.6-.65-.8-.65-.29-1.09-.29c-1.1,0-1.83.61-2.21,1.83h-1.06v-1.69c.71-.33,1.37-.58,1.99-.73s1.17-.22,1.67-.22h0Z"/>
                                        <g class="cls-78">
                                          <polygon class="cls-11" points="527.15 137.35 537.11 137.35 537.11 138.55 527.15 138.55 527.15 137.35 527.15 137.35"/>
                                          <g class="cls-58">
                                            <path class="cls-11" d="M557.48,143.25c-.3.22-.52.46-.67.71s-.22.53-.22.85c0,.53.21.92.63,1.16s1.06.37,1.92.37c.53,0,.98-.07,1.36-.21s.67-.34.87-.61c.2-.26.3-.57.3-.92,0-.16-.02-.32-.06-.48-.04-.16-.12-.29-.23-.42s-.28-.22-.49-.29-.49-.11-.83-.11h-1.31c-.47,0-.89-.02-1.26-.05h0ZM549.81,135.25c-.71,0-1.25.31-1.63.92s-.57,1.49-.57,2.63c0,1.21.19,2.13.58,2.78s.93.97,1.65.97c.39,0,.73-.1,1-.29s.5-.45.67-.77.3-.7.37-1.12.11-.87.11-1.33c0-.86-.1-1.58-.29-2.14s-.45-.99-.78-1.25-.7-.4-1.12-.4h0ZM558.98,135.23c-.56,0-.98.18-1.27.55s-.44.9-.44,1.6c0,.73.15,1.3.45,1.7s.73.6,1.29.6c.3,0,.55-.06.76-.17s.38-.27.51-.47.23-.43.29-.69.09-.53.09-.82c0-.52-.07-.95-.22-1.29-.15-.35-.35-.6-.6-.76-.25-.16-.54-.24-.87-.24h0ZM558.99,134.56c.42,0,.84.05,1.26.15h3.11v.89l-1.63-.06-.08.1c.18.18.33.43.43.74s.16.65.16,1.02c0,.96-.29,1.69-.88,2.21s-1.43.78-2.51.78c-.49,0-.91-.06-1.26-.18-.45.34-.67.67-.67,1,0,.22.04.38.13.49s.23.19.42.24.49.07.89.07h2.11c.62,0,1.13.1,1.52.29.39.19.67.45.84.78s.25.7.25,1.14c0,.55-.16,1.04-.47,1.47s-.77.77-1.37,1.01-1.29.36-2.09.36c-.59,0-1.13-.04-1.62-.11s-.91-.19-1.26-.36c-.35-.17-.62-.39-.81-.66s-.29-.61-.29-1.02c0-.37.12-.7.37-1.01s.59-.57,1.05-.8c-.28-.11-.49-.28-.65-.49s-.24-.47-.24-.76c0-.33.09-.64.28-.92.19-.28.52-.6.99-.95-.42-.25-.74-.58-.96-1-.22-.42-.33-.9-.33-1.44,0-.5.08-.94.25-1.31.17-.37.4-.68.69-.92s.65-.42,1.05-.54.84-.18,1.31-.18h0ZM549.84,134.56c1.25,0,2.2.36,2.85,1.09s.97,1.78.97,3.14c0,.97-.16,1.79-.48,2.46s-.78,1.17-1.37,1.5-1.29.5-2.1.5c-1.22,0-2.15-.36-2.79-1.08s-.96-1.78-.96-3.19c0-.97.17-1.78.51-2.45s.8-1.16,1.38-1.49,1.25-.49,2-.49h0ZM542.78,130.53h.53v10.38c0,.5.02.85.07,1.05s.14.35.27.45.35.19.65.27v.43h-3.49v-.43c.29-.08.5-.16.61-.24s.2-.18.25-.29.08-.27.11-.47.03-.45.03-.77v-7.36c0-.56,0-.96-.01-1.18s-.03-.41-.07-.57-.09-.28-.16-.36-.16-.16-.27-.21-.32-.11-.62-.16v-.46l2.12-.09h0Z"/>
                                            <g class="cls-51">
                                              <path class="cls-11" d="M572.64,135.9c-.79.02-1.49.25-2.11.68s-1.1,1.01-1.45,1.74-.51,1.53-.51,2.42c0,.46.07.82.22,1.1s.34.47.56.58.46.16.72.16c.59,0,1.1-.19,1.54-.58s.78-.98,1.05-1.77.4-1.56.4-2.3c0-.8-.14-1.48-.42-2.02h0ZM573.99,134.71h2.79l-.26,1.16h-2.87l-.02.07c.33.4.57.8.72,1.2s.22.85.22,1.33c0,.87-.19,1.68-.56,2.43s-.9,1.33-1.57,1.74-1.44.62-2.29.62c-.97,0-1.7-.26-2.21-.78s-.76-1.25-.76-2.2c0-.65.1-1.27.29-1.85s.49-1.12.87-1.61.82-.89,1.31-1.19,1.07-.53,1.74-.69,1.54-.23,2.6-.23h0Z"/>
                                              <g class="cls-86">
                                                <path class="cls-11" d="M581.87,128.16c.45,0,.83.05,1.14.15.32.1.57.24.77.41.2.17.34.38.43.62.09.24.13.5.13.78,0,.17-.01.32-.04.47-.02.14-.06.29-.12.43-.06.14-.13.28-.23.42-.09.14-.21.29-.35.45-.11.14-.25.3-.42.48s-.36.37-.56.58-.42.42-.64.64c-.22.22-.44.44-.65.66-.21.22-.4.43-.58.64-.18.21-.32.4-.43.57h2.38c.2,0,.36,0,.48-.02.12-.02.22-.05.3-.1s.15-.13.2-.24c.06-.11.12-.25.19-.44h.6c-.02.31-.04.61-.06.92s-.04.62-.06.92h-5.46v-.34c.1-.23.22-.46.36-.69s.29-.45.46-.69.37-.47.59-.72.46-.5.73-.77c.4-.4.73-.75.99-1.03.25-.29.45-.54.6-.76.15-.22.25-.43.3-.62.05-.19.08-.39.08-.61s-.03-.42-.09-.61c-.06-.18-.15-.34-.27-.47s-.26-.23-.44-.3c-.18-.07-.38-.11-.62-.11-.4,0-.73.11-1.01.33s-.48.53-.63.94h-.84v-1.26c.55-.23,1.06-.39,1.52-.5.46-.1.88-.15,1.25-.15h0Z"/>
                                                <g class="cls-44">
                                                  <path class="cls-11" d="M587,130.41c1.71.45,3.02,1.43,3.94,2.92s1.38,3.3,1.38,5.42-.46,3.93-1.37,5.42-2.23,2.46-3.95,2.91l-.21-.68c1.35-.45,2.36-1.34,3.02-2.67s.99-3.02.99-5.07-.33-3.63-.98-4.94-1.67-2.19-3.05-2.64l.24-.68Z"/>
                                                  <g class="cls-49">
                                                    <line class="cls-16" x1="613.93" y1="124.18" x2="653.09" y2="124.75"/>
                                                    <polygon class="cls-9" points="651.66 120.23 660.59 124.86 651.53 129.23 651.66 120.23 651.66 120.23"/>
                                                    <g class="cls-30">
                                                      <line class="cls-16" x1="723.13" y1="124.18" x2="762.29" y2="124.75"/>
                                                      <polygon class="cls-9" points="760.86 120.23 769.79 124.86 760.73 129.23 760.86 120.23 760.86 120.23"/>
                                                    </g>
                                                  </g>
                                                </g>
                                              </g>
                                            </g>
                                          </g>
                                        </g>
                                      </g>
                                    </g>
                                  </g>
                                </g>
                              </g>
                            </g>
                          </g>
                        </g>
                      </g>
                    </g>
                  </g>
                </g>
              </g>
            </g>
          </g>
        </g>
      </g>
    </g>
  </g>
  <g>
    <g>
      <polyline class="cls-21" points="738.55 117.5 738.54 117.5 738.54 112.5"/>
      <line class="cls-22" x1="738.54" y1="107.24" x2="738.54" y2="75.73"/>
      <line class="cls-26" x1="738.54" y1="70.47" x2="738.54" y2="23.2"/>
      <polyline class="cls-21" points="738.54 17.94 738.54 12.94 733.54 12.94"/>
      <line class="cls-17" x1="728.62" y1="12.94" x2="699.14" y2="12.94"/>
      <line class="cls-19" x1="694.22" y1="12.94" x2="158.55" y2="12.94"/>
      <polyline class="cls-21" points="153.64 12.94 148.64 12.94 148.64 17.94"/>
      <line class="cls-20" x1="148.64" y1="23.32" x2="148.64" y2="55.58"/>
      <line class="cls-21" x1="148.64" y1="60.95" x2="148.64" y2="65.95"/>
    </g>
    <polygon class="cls-14" points="152.01 64.83 148.64 71.58 145.26 64.83 152.01 64.83 152.01 64.83"/>
  </g>
  <g>
    <g class="cls-95">
      <text class="cls-56" transform="translate(357.33 37.86)"><tspan x="0" y="0">重构</tspan></text>
    </g>
    <g class="cls-88">
      <g class="cls-46">
        <text class="cls-56" transform="translate(393.33 37.86)"><tspan x="0" y="0">损失</tspan></text>
      </g>
      <g class="cls-92">
        <g class="cls-38">
          <text class="cls-56" transform="translate(429.33 37.86)"><tspan x="0" y="0">+ </tspan></text>
        </g>
        <g class="cls-69">
          <g class="cls-91">
            <text class="cls-56" transform="translate(446.25 37.86)"><tspan x="0" y="0">K</tspan><tspan class="cls-59" x="9.96" y="0">L</tspan><tspan x="18.35" y="0"> </tspan></text>
          </g>
          <g class="cls-96">
            <g class="cls-41">
              <text class="cls-56" transform="translate(469.41 37.86)"><tspan x="0" y="0">散度损失</tspan></text>
            </g>
          </g>
        </g>
      </g>
    </g>
  </g>
  <g class="cls-34">
    <text class="cls-56" transform="translate(306.29 129.27)"><tspan class="cls-40" x="0" y="0">EX</tspan><tspan x="19.35" y="0">P</tspan></text>
  </g>
  <g>
    <path class="cls-11" d="M357.65,182.45c-.79.02-1.49.25-2.11.68s-1.1,1.01-1.45,1.74-.51,1.53-.51,2.42c0,.46.07.82.22,1.1s.34.47.56.58.46.16.72.16c.59,0,1.1-.19,1.54-.58.43-.39.78-.98,1.05-1.77s.4-1.56.4-2.3c0-.8-.14-1.48-.42-2.02h0ZM359,181.27h2.79l-.26,1.16h-2.87l-.02.07c.33.4.57.8.72,1.2s.22.85.22,1.33c0,.87-.19,1.68-.56,2.43s-.9,1.33-1.57,1.74-1.44.62-2.29.62c-.97,0-1.7-.26-2.21-.78s-.76-1.25-.76-2.2c0-.65.1-1.27.29-1.85s.49-1.12.87-1.61.82-.89,1.31-1.19,1.07-.53,1.74-.69c.67-.15,1.54-.23,2.6-.23h0Z"/>
    <path class="cls-11" d="M375.22,183.39c.31,0,.57.11.77.32s.3.49.3.83-.1.61-.3.82-.46.32-.77.32-.57-.11-.77-.32-.3-.48-.3-.82.1-.62.3-.83.46-.32.77-.32h0ZM375.21,178.09c-1.13,0-2.18.27-3.15.8-.97.54-1.72,1.3-2.27,2.29s-.82,2.1-.82,3.34.27,2.3.81,3.29,1.3,1.76,2.27,2.31c.98.55,2.03.83,3.16.83,1.2,0,2.28-.28,3.25-.83s1.71-1.33,2.25-2.32.8-2.09.8-3.28-.27-2.37-.82-3.35-1.3-1.75-2.26-2.28-2.03-.8-3.21-.8h0ZM375.23,176.97c1.39,0,2.66.32,3.82.95s2.07,1.53,2.73,2.69.99,2.46.99,3.92-.32,2.71-.96,3.86-1.54,2.06-2.71,2.71-2.45.98-3.87.98-2.68-.32-3.85-.97-2.07-1.55-2.71-2.71-.97-2.45-.97-3.88.33-2.73.99-3.89,1.57-2.06,2.72-2.7,2.43-.96,3.81-.96h0Z"/>
    <path class="cls-11" d="M393.77,181.81c-.59,0-1.16.3-1.71.9s-.97,1.41-1.26,2.43c.83,0,1.54-.08,2.13-.22s1.05-.37,1.36-.69.47-.74.47-1.27c0-.36-.08-.64-.25-.84s-.41-.3-.74-.3h0ZM394.09,181.12c.71,0,1.24.14,1.6.43s.53.74.53,1.34c0,1-.47,1.74-1.4,2.24s-2.32.75-4.16.75c-.07.35-.11.73-.11,1.14,0,.62.12,1.06.36,1.34s.63.42,1.18.42,1.03-.12,1.46-.35.9-.59,1.38-1.08l.54.57c-.57.63-1.14,1.1-1.73,1.42s-1.26.47-2.03.47c-.85,0-1.51-.26-1.97-.78s-.7-1.24-.7-2.17c0-.63.11-1.3.34-2.02s.57-1.36,1.02-1.93,1-1.01,1.64-1.33,1.32-.47,2.04-.47h0Z"/>
  </g>
</svg>