<?xml version="1.0" encoding="UTF-8"?>
<svg id="_图层_1" data-name="图层 1" xmlns="http://www.w3.org/2000/svg" viewBox="0 0 470.52 361.57">
  <defs>
    <style>
      .cls-1 {
        fill: #dbe8f5;
        stroke: #165d7e;
      }

      .cls-1, .cls-2, .cls-3, .cls-4, .cls-5, .cls-6, .cls-7, .cls-8, .cls-9, .cls-10 {
        stroke-miterlimit: 8;
        stroke-width: .67px;
      }

      .cls-2 {
        fill: #c0e0c1;
      }

      .cls-2, .cls-6, .cls-7 {
        stroke: #1e6935;
      }

      .cls-3 {
        fill: #d29bc4;
      }

      .cls-3, .cls-5, .cls-9 {
        stroke: #952d8a;
      }

      .cls-11 {
        font-size: 11.96px;
      }

      .cls-11, .cls-12, .cls-13 {
        fill: #040000;
      }

      .cls-11, .cls-13 {
        font-family: DengXian, DengXian;
        isolation: isolate;
      }

      .cls-4 {
        fill: #f1c3ab;
      }

      .cls-4, .cls-8 {
        stroke: #de6f35;
      }

      .cls-12, .cls-14 {
        fill-rule: evenodd;
      }

      .cls-13 {
        font-size: 13.95px;
      }

      .cls-15 {
        fill: #165d7e;
      }

      .cls-5 {
        fill: #bb70ab;
      }

      .cls-6 {
        fill: #5fb85b;
      }

      .cls-7 {
        fill: #89c78a;
      }

      .cls-8 {
        fill: #f9e1d5;
      }

      .cls-9 {
        fill: #ebcde2;
      }

      .cls-10 {
        fill: #f5b6b7;
        stroke: #bf1a20;
      }

      .cls-14 {
        fill: #747474;
      }
    </style>
  </defs>
  <rect class="cls-1" x="58.64" y="122.84" width="17.19" height="15.7"/>
  <rect class="cls-1" x="75.84" y="122.84" width="17.19" height="15.7"/>
  <rect class="cls-1" x="58.64" y="138.53" width="17.19" height="16.45"/>
  <rect class="cls-1" x="75.84" y="138.53" width="17.19" height="16.45"/>
  <rect class="cls-1" x="58.64" y="106.39" width="17.19" height="16.45"/>
  <rect class="cls-1" x="75.84" y="106.39" width="17.19" height="16.45"/>
  <rect class="cls-1" x="92.28" y="122.84" width="17.19" height="15.7"/>
  <rect class="cls-1" x="109.48" y="122.84" width="17.94" height="15.7"/>
  <rect class="cls-1" x="92.28" y="138.53" width="17.19" height="16.45"/>
  <rect class="cls-1" x="109.48" y="138.53" width="17.94" height="16.45"/>
  <rect class="cls-1" x="92.28" y="106.39" width="17.19" height="16.45"/>
  <rect class="cls-1" x="109.48" y="106.39" width="17.94" height="16.45"/>
  <rect class="cls-1" x="126.67" y="122.84" width="17.19" height="15.7"/>
  <rect class="cls-1" x="143.86" y="122.84" width="17.19" height="15.7"/>
  <rect class="cls-1" x="126.67" y="138.53" width="17.19" height="16.45"/>
  <rect class="cls-1" x="143.86" y="138.53" width="17.19" height="16.45"/>
  <rect class="cls-1" x="126.67" y="106.39" width="17.19" height="16.45"/>
  <rect class="cls-1" x="143.86" y="106.39" width="17.19" height="16.45"/>
  <text class="cls-13" transform="translate(4.9 133.68)"><tspan x="0" y="0">(N, D)</tspan></text>
  <rect class="cls-10" x="58.64" y="287.29" width="17.19" height="15.7"/>
  <rect class="cls-10" x="75.84" y="287.29" width="17.19" height="15.7"/>
  <rect class="cls-10" x="58.64" y="270.85" width="17.19" height="16.45"/>
  <rect class="cls-10" x="75.84" y="270.85" width="17.19" height="16.45"/>
  <rect class="cls-10" x="92.28" y="287.29" width="17.19" height="15.7"/>
  <rect class="cls-10" x="109.48" y="287.29" width="17.19" height="15.7"/>
  <rect class="cls-10" x="92.28" y="270.85" width="17.19" height="16.45"/>
  <rect class="cls-10" x="109.48" y="270.85" width="17.19" height="16.45"/>
  <rect class="cls-10" x="126.67" y="287.29" width="17.19" height="15.7"/>
  <rect class="cls-10" x="143.86" y="287.29" width="17.19" height="15.7"/>
  <rect class="cls-10" x="126.67" y="270.85" width="17.19" height="16.45"/>
  <rect class="cls-10" x="143.86" y="270.85" width="17.19" height="16.45"/>
  <text class="cls-13" transform="translate(4.9 262.25)"><tspan x="0" y="0">(</tspan></text>
  <text class="cls-13" transform="translate(9.01 262.25)"><tspan x="0" y="0">n</tspan></text>
  <text class="cls-13" transform="translate(16.74 262.25)"><tspan x="0" y="0">,</tspan></text>
  <text class="cls-13" transform="translate(23.71 262.25)"><tspan x="0" y="0">D)</tspan></text>
  <text class="cls-11" transform="translate(41.46 117.98)"><tspan x="0" y="0">我</tspan></text>
  <text class="cls-11" transform="translate(41.46 133.68)"><tspan x="0" y="0">爱</tspan></text>
  <text class="cls-11" transform="translate(41.46 150.87)"><tspan x="0" y="0">你</tspan></text>
  <text class="cls-11" transform="translate(29.82 281.69)"><tspan x="0" y="0">I</tspan></text>
  <text class="cls-11" transform="translate(29.82 297.39)"><tspan x="0" y="0">l</tspan></text>
  <text class="cls-11" transform="translate(32.44 297.39)"><tspan x="0" y="0">ove</tspan></text>
  <rect class="cls-8" x="208.9" y="265.62" width="15.7" height="15.7"/>
  <rect class="cls-8" x="224.6" y="265.62" width="14.95" height="15.7"/>
  <rect class="cls-8" x="239.55" y="265.62" width="15.7" height="15.7"/>
  <rect class="cls-8" x="255.25" y="265.62" width="14.95" height="15.7"/>
  <rect class="cls-8" x="270.2" y="265.62" width="15.7" height="15.7"/>
  <rect class="cls-8" x="208.9" y="250.67" width="15.7" height="14.95"/>
  <rect class="cls-8" x="224.6" y="250.67" width="14.95" height="14.95"/>
  <rect class="cls-8" x="239.55" y="250.67" width="15.7" height="14.95"/>
  <rect class="cls-8" x="255.25" y="250.67" width="14.95" height="14.95"/>
  <rect class="cls-8" x="270.2" y="250.67" width="15.7" height="14.95"/>
  <rect class="cls-8" x="208.9" y="297.01" width="15.7" height="15.7"/>
  <rect class="cls-8" x="224.6" y="297.01" width="14.95" height="15.7"/>
  <rect class="cls-8" x="239.55" y="297.01" width="15.7" height="15.7"/>
  <rect class="cls-8" x="255.25" y="297.01" width="14.95" height="15.7"/>
  <rect class="cls-8" x="270.2" y="297.01" width="15.7" height="15.7"/>
  <rect class="cls-8" x="208.9" y="281.31" width="15.7" height="15.7"/>
  <rect class="cls-8" x="224.6" y="281.31" width="14.95" height="15.7"/>
  <rect class="cls-8" x="239.55" y="281.31" width="15.7" height="15.7"/>
  <rect class="cls-8" x="255.25" y="281.31" width="14.95" height="15.7"/>
  <rect class="cls-8" x="270.2" y="281.31" width="15.7" height="15.7"/>
  <rect class="cls-8" x="208.9" y="312.71" width="15.7" height="14.95"/>
  <rect class="cls-8" x="224.6" y="312.71" width="14.95" height="14.95"/>
  <rect class="cls-8" x="239.55" y="312.71" width="15.7" height="14.95"/>
  <rect class="cls-8" x="255.25" y="312.71" width="14.95" height="14.95"/>
  <rect class="cls-8" x="270.2" y="312.71" width="15.7" height="14.95"/>
  <rect class="cls-2" x="208.9" y="43.6" width="15.7" height="15.7"/>
  <rect class="cls-2" x="224.6" y="43.6" width="14.95" height="15.7"/>
  <rect class="cls-2" x="239.55" y="43.6" width="15.7" height="15.7"/>
  <rect class="cls-2" x="255.25" y="43.6" width="14.95" height="15.7"/>
  <rect class="cls-2" x="270.2" y="43.6" width="15.7" height="15.7"/>
  <rect class="cls-2" x="208.9" y="27.9" width="15.7" height="15.7"/>
  <rect class="cls-2" x="224.6" y="27.9" width="14.95" height="15.7"/>
  <rect class="cls-2" x="239.55" y="27.9" width="15.7" height="15.7"/>
  <rect class="cls-2" x="255.25" y="27.9" width="14.95" height="15.7"/>
  <rect class="cls-2" x="270.2" y="27.9" width="15.7" height="15.7"/>
  <rect class="cls-2" x="208.9" y="74.25" width="15.7" height="15.7"/>
  <rect class="cls-2" x="224.6" y="74.25" width="14.95" height="15.7"/>
  <rect class="cls-2" x="239.55" y="74.25" width="15.7" height="15.7"/>
  <rect class="cls-2" x="255.25" y="74.25" width="14.95" height="15.7"/>
  <rect class="cls-2" x="270.2" y="74.25" width="15.7" height="15.7"/>
  <rect class="cls-2" x="208.9" y="59.3" width="15.7" height="14.95"/>
  <rect class="cls-2" x="224.6" y="59.3" width="14.95" height="14.95"/>
  <rect class="cls-2" x="239.55" y="59.3" width="15.7" height="14.95"/>
  <rect class="cls-2" x="255.25" y="59.3" width="14.95" height="14.95"/>
  <rect class="cls-2" x="270.2" y="59.3" width="15.7" height="14.95"/>
  <rect class="cls-2" x="208.9" y="89.95" width="15.7" height="15.7"/>
  <rect class="cls-2" x="224.6" y="89.95" width="14.95" height="15.7"/>
  <rect class="cls-2" x="239.55" y="89.95" width="15.7" height="15.7"/>
  <rect class="cls-2" x="255.25" y="89.95" width="14.95" height="15.7"/>
  <rect class="cls-2" x="270.2" y="89.95" width="15.7" height="15.7"/>
  <rect class="cls-9" x="208.9" y="152.74" width="15.7" height="15.7"/>
  <rect class="cls-9" x="224.6" y="152.74" width="14.95" height="15.7"/>
  <rect class="cls-9" x="239.55" y="152.74" width="15.7" height="15.7"/>
  <rect class="cls-9" x="255.25" y="152.74" width="14.95" height="15.7"/>
  <rect class="cls-9" x="270.2" y="152.74" width="15.7" height="15.7"/>
  <rect class="cls-9" x="208.9" y="137.04" width="15.7" height="15.7"/>
  <rect class="cls-9" x="224.6" y="137.04" width="14.95" height="15.7"/>
  <rect class="cls-9" x="239.55" y="137.04" width="15.7" height="15.7"/>
  <rect class="cls-9" x="255.25" y="137.04" width="14.95" height="15.7"/>
  <rect class="cls-9" x="270.2" y="137.04" width="15.7" height="15.7"/>
  <rect class="cls-9" x="208.9" y="183.39" width="15.7" height="15.7"/>
  <rect class="cls-9" x="224.6" y="183.39" width="14.95" height="15.7"/>
  <rect class="cls-9" x="239.55" y="183.39" width="15.7" height="15.7"/>
  <rect class="cls-9" x="255.25" y="183.39" width="14.95" height="15.7"/>
  <rect class="cls-9" x="270.2" y="183.39" width="15.7" height="15.7"/>
  <rect class="cls-9" x="208.9" y="168.44" width="15.7" height="14.95"/>
  <rect class="cls-9" x="224.6" y="168.44" width="14.95" height="14.95"/>
  <rect class="cls-9" x="239.55" y="168.44" width="15.7" height="14.95"/>
  <rect class="cls-9" x="255.25" y="168.44" width="14.95" height="14.95"/>
  <rect class="cls-9" x="270.2" y="168.44" width="15.7" height="14.95"/>
  <rect class="cls-9" x="208.9" y="199.09" width="15.7" height="15.7"/>
  <rect class="cls-9" x="224.6" y="199.09" width="14.95" height="15.7"/>
  <rect class="cls-9" x="239.55" y="199.09" width="15.7" height="15.7"/>
  <rect class="cls-9" x="255.25" y="199.09" width="14.95" height="15.7"/>
  <rect class="cls-9" x="270.2" y="199.09" width="15.7" height="15.7"/>
  <text class="cls-13" transform="translate(229.64 17.06)"><tspan x="0" y="0">(</tspan></text>
  <text class="cls-13" transform="translate(233.75 17.06)"><tspan x="0" y="0">D</tspan></text>
  <text class="cls-13" transform="translate(243.34 17.06)"><tspan x="0" y="0">,</tspan></text>
  <text class="cls-13" transform="translate(250.32 17.06)"><tspan x="0" y="0">D)</tspan></text>
  <path class="cls-15" d="M155.94,102.55l42.87-36.82-.97-1.13-42.87,36.82.97,1.13ZM199.51,68.08l2.59-6.16-6.48,1.63,3.9,4.54Z"/>
  <path class="cls-15" d="M155.73,162.14l42.04,17.24-.57,1.38-42.04-17.25.57-1.38ZM197.7,176.93l4.4,5.04-6.67.5,2.27-5.53Z"/>
  <path class="cls-15" d="M165.17,286.17h32.09v1.5h-32.09v-1.5ZM196.27,283.93l5.98,2.99-5.98,2.99v-5.98Z"/>
  <rect class="cls-4" x="328.5" y="298.51" width="15.7" height="15.7"/>
  <rect class="cls-4" x="344.2" y="298.51" width="15.7" height="15.7"/>
  <rect class="cls-4" x="359.9" y="298.51" width="14.95" height="15.7"/>
  <rect class="cls-4" x="374.85" y="298.51" width="15.7" height="15.7"/>
  <rect class="cls-4" x="390.55" y="298.51" width="14.95" height="15.7"/>
  <rect class="cls-4" x="405.5" y="298.51" width="15.7" height="15.7"/>
  <rect class="cls-8" x="328.5" y="283.56" width="15.7" height="15.7"/>
  <rect class="cls-8" x="344.2" y="283.56" width="15.7" height="15.7"/>
  <rect class="cls-8" x="359.9" y="283.56" width="14.95" height="15.7"/>
  <rect class="cls-8" x="374.85" y="283.56" width="15.7" height="15.7"/>
  <rect class="cls-8" x="390.55" y="283.56" width="14.95" height="15.7"/>
  <rect class="cls-8" x="405.5" y="283.56" width="15.7" height="15.7"/>
  <rect class="cls-7" x="327.01" y="55.56" width="15.7" height="15.7"/>
  <rect class="cls-7" x="341.96" y="55.56" width="15.7" height="15.7"/>
  <rect class="cls-7" x="357.66" y="55.56" width="15.7" height="15.7"/>
  <rect class="cls-7" x="372.61" y="55.56" width="15.7" height="15.7"/>
  <rect class="cls-7" x="388.31" y="55.56" width="15.7" height="15.7"/>
  <rect class="cls-7" x="403.26" y="55.56" width="15.7" height="15.7"/>
  <rect class="cls-2" x="327.01" y="39.86" width="15.7" height="15.7"/>
  <rect class="cls-2" x="341.96" y="39.86" width="15.7" height="15.7"/>
  <rect class="cls-2" x="357.66" y="39.86" width="15.7" height="15.7"/>
  <rect class="cls-2" x="372.61" y="39.86" width="15.7" height="15.7"/>
  <rect class="cls-2" x="388.31" y="39.86" width="15.7" height="15.7"/>
  <rect class="cls-2" x="403.26" y="39.86" width="15.7" height="15.7"/>
  <rect class="cls-6" x="327.01" y="70.51" width="15.7" height="15.7"/>
  <rect class="cls-6" x="341.96" y="70.51" width="15.7" height="15.7"/>
  <rect class="cls-6" x="357.66" y="70.51" width="15.7" height="15.7"/>
  <rect class="cls-6" x="372.61" y="70.51" width="15.7" height="15.7"/>
  <rect class="cls-6" x="388.31" y="70.51" width="15.7" height="15.7"/>
  <rect class="cls-6" x="403.26" y="70.51" width="15.7" height="15.7"/>
  <rect class="cls-3" x="327.01" y="148.25" width="14.95" height="14.95"/>
  <rect class="cls-3" x="341.96" y="148.25" width="15.7" height="14.95"/>
  <rect class="cls-3" x="357.66" y="148.25" width="14.95" height="14.95"/>
  <rect class="cls-3" x="372.61" y="148.25" width="15.7" height="14.95"/>
  <rect class="cls-3" x="388.31" y="148.25" width="14.95" height="14.95"/>
  <rect class="cls-3" x="403.26" y="148.25" width="15.7" height="14.95"/>
  <rect class="cls-5" x="327.01" y="162.46" width="14.95" height="15.7"/>
  <rect class="cls-5" x="341.96" y="162.46" width="15.7" height="15.7"/>
  <rect class="cls-5" x="357.66" y="162.46" width="14.95" height="15.7"/>
  <rect class="cls-5" x="372.61" y="162.46" width="15.7" height="15.7"/>
  <rect class="cls-5" x="388.31" y="162.46" width="14.95" height="15.7"/>
  <rect class="cls-5" x="403.26" y="162.46" width="15.7" height="15.7"/>
  <rect class="cls-9" x="327.01" y="133.3" width="14.95" height="15.7"/>
  <rect class="cls-9" x="341.96" y="133.3" width="15.7" height="15.7"/>
  <rect class="cls-9" x="357.66" y="133.3" width="14.95" height="15.7"/>
  <rect class="cls-9" x="372.61" y="133.3" width="15.7" height="15.7"/>
  <rect class="cls-9" x="388.31" y="133.3" width="14.95" height="15.7"/>
  <rect class="cls-9" x="403.26" y="133.3" width="15.7" height="15.7"/>
  <text class="cls-13" transform="translate(354.15 30.52)"><tspan x="0" y="0">(N, D)</tspan></text>
  <path class="cls-14" d="M290.83,289.76h25.27v5.8h-25.27v-5.8ZM290.83,298.46h25.27v5.8h-25.27v-5.8Z"/>
  <path class="cls-14" d="M290.83,58.62h25.27v5.63h-25.27v-5.63ZM290.83,67.06h25.27v5.63h-25.27v-5.63Z"/>
  <path class="cls-14" d="M290.83,146.23h25.27v5.8h-25.27v-5.8ZM290.83,154.94h25.27v5.8h-25.27v-5.8Z"/>
  <text class="cls-13" transform="translate(354.15 274.21)"><tspan x="0" y="0">(</tspan></text>
  <text class="cls-13" transform="translate(358.26 274.21)"><tspan x="0" y="0">n</tspan></text>
  <text class="cls-13" transform="translate(365.98 274.21)"><tspan x="0" y="0">,</tspan></text>
  <text class="cls-13" transform="translate(372.96 274.21)"><tspan x="0" y="0">D)</tspan></text>
  <path class="cls-12" d="M235.25,334.51h3.59l-.09.42c-.26.02-.46.09-.61.23s-.25.32-.31.55-.09.56-.09.99v.29c0,.1,0,.21,0,.32l.08,3.37c0,.25,0,.86,0,1.83v1.8s.08,0,.08,0l4.76-9.8h1.3v5.74c0,.95-.03,2.3-.08,4.06h.09l3.49-6.74c.13-.25.27-.55.42-.89s.22-.64.22-.88c0-.48-.29-.77-.86-.86l.09-.42h3.52l-.09.42c-.26.03-.52.18-.76.43s-.56.75-.96,1.49l-5.18,9.52h-1.33v-6.3c0-1.02.03-2.09.08-3.19h-.09l-4.61,9.5h-1.35l-.4-9.58c-.02-.48-.07-.84-.15-1.09s-.18-.44-.31-.55-.32-.19-.56-.22l.09-.42Z"/>
  <path class="cls-12" d="M251.63,344.09c-.25,0-.48.05-.69.16-.21.11-.41.25-.58.44-.18.19-.33.4-.47.65-.14.25-.26.51-.35.79-.09.28-.17.57-.21.86s-.07.58-.07.86c0,.45.06.79.19,1.01s.34.33.62.33c.2,0,.41-.07.65-.21.23-.14.46-.33.68-.58.22-.25.42-.55.6-.9.18-.35.32-.74.41-1.17.05-.23.1-.46.14-.69s.06-.44.06-.62c0-.34-.08-.58-.23-.73-.15-.14-.4-.21-.74-.21h0ZM251.52,343.46c.32,0,.61.04.86.12.25.08.49.18.7.32l.6-.44.51.13c-.28,1.25-.55,2.49-.82,3.71-.27,1.23-.53,2.38-.76,3.46-.08.29-.12.53-.12.71,0,.16.06.27.18.33.12.07.32.11.61.14l-.09.42h-2.17c.18-.69.34-1.33.5-1.92.15-.59.32-1.23.5-1.92l-.1-.03c-.21.27-.42.51-.62.7-.2.19-.4.35-.59.48-.19.12-.38.21-.57.27-.19.06-.38.09-.58.09-.5,0-.89-.18-1.16-.54s-.41-.88-.41-1.57c0-.41.04-.8.13-1.18.09-.38.21-.73.37-1.06.16-.33.35-.63.57-.9.22-.27.46-.5.72-.7.26-.19.54-.34.83-.45s.6-.16.92-.16h0Z"/>
  <path class="cls-12" d="M234.42,115.49h3.59l-.09.42c-.26.02-.46.09-.61.23s-.25.32-.31.55-.09.56-.09.99v.29c0,.1,0,.21,0,.32l.08,3.37c0,.25,0,.86,0,1.83v1.8s.08,0,.08,0l4.76-9.8h1.3v5.74c0,.95-.03,2.3-.08,4.06h.09l3.49-6.74c.13-.25.27-.55.42-.89s.22-.64.22-.88c0-.48-.29-.77-.86-.86l.09-.42h3.52l-.09.42c-.26.03-.52.18-.76.43s-.56.75-.96,1.49l-5.18,9.52h-1.33v-6.3c0-1.02.03-2.09.08-3.19h-.09l-4.61,9.5h-1.35l-.4-9.58c-.02-.48-.07-.84-.15-1.09s-.18-.44-.31-.55-.32-.19-.56-.22l.09-.42Z"/>
  <path class="cls-12" d="M251.18,122.27h.45l-1.11,4.91h.18c.16,0,.33-.03.52-.1.19-.07.37-.15.55-.26s.36-.23.53-.36c.17-.13.32-.27.45-.41.13-.14.23-.27.31-.39.08-.12.11-.23.11-.31,0-.1-.03-.18-.1-.25-.07-.06-.19-.11-.37-.13l.08-.4h2.27l.16.39c-.27.23-.52.44-.76.63-.24.19-.48.38-.72.56-.23.18-.47.35-.7.53-.23.17-.47.35-.72.54.1.32.2.65.31.98.11.33.21.66.32.98.05.17.1.32.14.45.04.12.09.23.14.3.05.08.11.14.16.17.06.04.13.06.21.06.06,0,.12-.01.18-.03s.13-.06.21-.11c.08-.05.17-.13.27-.22.1-.09.21-.21.34-.36l.43.41c-.2.2-.38.38-.55.52-.17.15-.33.27-.49.36s-.3.16-.45.21c-.14.04-.29.07-.44.07-.27,0-.48-.07-.64-.2-.16-.13-.3-.32-.41-.57-.11-.25-.22-.54-.31-.89s-.21-.74-.33-1.17c-.03-.1-.06-.18-.09-.24-.03-.06-.06-.11-.1-.14s-.09-.05-.16-.06-.14-.01-.24-.01h-.4l-.69,3.17h-1.21l1.53-6.78c.05-.22.09-.4.11-.53s.03-.24.03-.34c0-.08-.01-.15-.04-.21-.03-.06-.07-.11-.14-.14-.06-.04-.15-.06-.25-.08-.11-.02-.24-.03-.39-.03l.09-.43,1.74-.08h0Z"/>
  <path class="cls-12" d="M235.48,223.39h3.59l-.09.42c-.26.02-.46.09-.61.23s-.25.32-.31.55-.09.56-.09.99v.29c0,.1,0,.21,0,.32l.08,3.37c0,.25,0,.86,0,1.83v1.8s.08,0,.08,0l4.76-9.8h1.3v5.74c0,.95-.03,2.3-.08,4.06h.09l3.49-6.74c.13-.25.27-.55.42-.89s.22-.64.22-.88c0-.48-.29-.77-.86-.86l.09-.42h3.52l-.09.42c-.26.03-.52.18-.76.43s-.56.75-.96,1.49l-5.18,9.52h-1.33v-6.3c0-1.02.03-2.09.08-3.19h-.09l-4.61,9.5h-1.35l-.4-9.58c-.02-.48-.07-.84-.15-1.09s-.18-.44-.31-.55-.32-.19-.56-.22l.09-.42Z"/>
  <path class="cls-12" d="M249.82,232.34c.18,0,.33.04.44.11.11.07.2.17.27.28s.11.24.13.38c.02.14.03.28.03.41,0,.08,0,.19-.03.32l-.4,2.29c-.04.22-.07.43-.09.64-.03.21-.04.4-.04.56s.01.29.03.39c.02.1.04.15.06.15.13,0,.31-.05.52-.16.21-.11.43-.25.67-.44s.47-.41.7-.67c.23-.26.44-.54.63-.84.19-.3.34-.62.45-.95.12-.33.17-.66.17-1,0-.2-.04-.34-.11-.43s-.17-.13-.3-.13c-.13,0-.28.06-.43.19s-.31.3-.47.5l-.37-.37c.1-.16.22-.32.36-.47.14-.15.29-.28.44-.39.16-.11.32-.2.48-.27.17-.07.33-.1.49-.1.33,0,.57.1.72.31.15.21.22.49.22.84,0,.2-.04.43-.11.69-.07.26-.18.54-.31.83-.13.29-.29.59-.48.89-.19.31-.39.6-.62.89-.23.29-.47.56-.72.81-.25.25-.52.48-.8.67-.28.19-.56.34-.84.45-.28.11-.57.17-.85.17-.15,0-.28-.03-.38-.09-.1-.06-.18-.15-.23-.26-.05-.11-.09-.24-.11-.39-.02-.15-.03-.32-.03-.5,0-.24.01-.5.04-.77s.07-.55.11-.83c.22-1.35.33-2.14.33-2.36,0-.16,0-.26-.05-.32-.04-.06-.11-.09-.19-.09-.08,0-.17.02-.27.07-.09.05-.19.11-.29.18-.1.07-.19.15-.28.23-.09.08-.18.16-.26.23l-.35-.42c.14-.15.29-.29.45-.44s.33-.28.5-.4c.18-.12.36-.22.56-.29.19-.07.39-.11.59-.11h0Z"/>
  <path class="cls-12" d="M431.72,286.81c-.62,0-1.2.22-1.74.66s-1.01,1.07-1.41,1.89-.72,1.72-.94,2.7-.34,1.85-.34,2.6c0,1.77.65,2.66,1.94,2.66.8,0,1.53-.37,2.2-1.12s1.2-1.77,1.61-3.09.61-2.54.61-3.69c0-.86-.16-1.51-.47-1.96s-.8-.68-1.46-.68h0ZM431.81,286.05c1.11,0,1.96.32,2.56.96s.9,1.57.9,2.79c0,.8-.13,1.7-.38,2.7s-.6,1.87-1.04,2.63-.95,1.37-1.54,1.84-1.22.79-1.9.96c.13.42.26.76.37,1.04s.23.49.33.66.21.3.31.38.21.14.31.17.22.04.36.04c.22,0,.44-.06.66-.19s.47-.34.75-.65l.45.48c-.46.5-.89.85-1.28,1.06s-.8.31-1.22.31c-.48,0-.87-.11-1.17-.32s-.56-.55-.78-1.02-.43-1.07-.64-1.83c-1.04-.06-1.83-.4-2.38-1.03s-.82-1.52-.82-2.67c0-.86.14-1.83.43-2.92s.71-2.04,1.26-2.87,1.2-1.46,1.96-1.89,1.59-.64,2.48-.64h0Z"/>
  <path class="cls-12" d="M448.52,295.76c-.23,0-.46.06-.69.17-.23.11-.44.27-.64.48-.2.21-.38.46-.55.76-.16.3-.3.63-.41.99.53,0,.99-.05,1.38-.13.39-.08.7-.19.95-.33.25-.14.43-.3.54-.49s.17-.4.17-.63c0-.26-.07-.47-.2-.61-.13-.15-.32-.22-.57-.22h0ZM440.25,295.76c-.25,0-.48.05-.69.16-.21.11-.41.25-.58.44-.18.19-.33.4-.47.65-.14.25-.26.51-.35.79-.09.28-.17.57-.21.86-.05.29-.07.58-.07.86,0,.45.06.79.19,1.01s.34.33.62.33c.19,0,.41-.07.64-.2.24-.13.46-.32.69-.57.22-.25.42-.55.61-.9.19-.35.32-.75.42-1.19.05-.23.09-.45.13-.68.04-.23.06-.44.06-.63,0-.34-.08-.58-.23-.73-.15-.14-.4-.21-.74-.21h0ZM455.75,295.14c.31,0,.59.02.86.05s.54.09.82.16l-.35,1.55h-.75c0-.22-.02-.4-.05-.55-.03-.15-.07-.26-.13-.34s-.14-.14-.24-.18c-.1-.04-.22-.06-.36-.06-.23,0-.45.05-.65.15-.21.1-.4.24-.58.42s-.34.39-.49.63-.27.5-.38.78c-.11.28-.19.57-.24.87-.06.3-.09.6-.09.9,0,.45.09.79.27,1.02s.44.35.8.35c.2,0,.38-.02.55-.05.17-.04.33-.1.49-.18s.33-.19.5-.33.36-.31.57-.51c.08.08.16.17.23.25.07.08.15.17.23.25-.45.47-.91.82-1.36,1.05-.45.23-.94.34-1.47.34-.65,0-1.15-.19-1.5-.57s-.52-.93-.52-1.63c0-.4.04-.78.13-1.15.09-.37.22-.71.38-1.04.17-.32.37-.62.6-.88s.49-.49.78-.69c.29-.19.6-.34.93-.45.33-.11.68-.16,1.05-.16h0ZM448.79,295.14c.54,0,.95.12,1.23.35.28.24.42.57.42,1,0,1.52-1.44,2.29-4.33,2.29-.02.11-.04.23-.05.36-.01.13-.02.27-.02.42,0,.46.09.79.28,1s.48.32.87.32c.21,0,.4-.02.59-.07.19-.04.37-.11.55-.21s.36-.21.54-.36c.18-.15.37-.32.57-.52l.47.51c-.49.48-.98.85-1.46,1.09s-1.01.37-1.57.37c-.33,0-.62-.05-.87-.15-.25-.1-.47-.24-.64-.43-.17-.19-.31-.42-.4-.69-.09-.27-.14-.58-.14-.92,0-.24.02-.49.06-.75s.11-.52.2-.78c.09-.26.2-.51.33-.76.13-.25.28-.48.46-.69.35-.44.78-.78,1.28-1.03s1.04-.37,1.63-.37h0ZM443.03,292.97h.32l-1.47,6.44c-.06.25-.1.45-.12.59s-.03.28-.03.4c0,.16.03.28.1.35.07.07.16.11.28.11.08,0,.15-.01.22-.04s.15-.08.24-.14.18-.14.28-.24c.1-.1.22-.22.35-.36.07.07.14.14.21.21.07.07.14.14.21.21-.21.21-.4.4-.57.55-.17.15-.34.28-.5.38-.16.1-.32.17-.48.21s-.32.07-.49.07c-.3,0-.54-.1-.71-.29-.17-.2-.25-.46-.25-.81,0-.19.03-.37.09-.54l-.09-.04c-.21.3-.42.55-.63.76s-.4.38-.6.52-.4.24-.6.3-.41.09-.63.09c-.5,0-.89-.18-1.16-.54s-.41-.88-.41-1.57c0-.41.04-.8.13-1.18.09-.38.21-.73.37-1.06.16-.33.35-.63.57-.9.22-.27.46-.5.72-.7.26-.19.54-.34.83-.45s.6-.16.92-.16c.28,0,.53.03.76.08s.45.16.66.33c.07-.27.13-.49.17-.68.04-.19.08-.36.1-.52.03-.16.04-.29.04-.39,0-.09-.01-.16-.03-.22-.02-.06-.06-.11-.12-.15-.06-.04-.14-.07-.25-.08-.11-.02-.24-.03-.41-.04l.08-.43,1.88-.08h0Z"/>
  <path class="cls-12" d="M427.26,56.95h3.44l-.09.42c-.22.05-.37.1-.47.15s-.18.14-.25.26-.15.29-.23.54-.18.64-.3,1.19l-.61,2.75h.28c.24,0,.46-.04.66-.12s.43-.23.69-.44.68-.6,1.26-1.17.99-1,1.23-1.3.42-.55.53-.77.17-.41.17-.59c0-.14-.06-.26-.17-.35s-.28-.14-.49-.16l.09-.42h3.69l-.09.42c-.23.03-.49.15-.78.36s-.73.6-1.33,1.19l-3.34,3.25,1.83,4.41c.19.45.35.78.47.98s.27.36.44.48.38.2.64.24l-.09.42h-3.32l.09-.42c.31-.03.46-.17.46-.41,0-.15-.03-.33-.09-.53s-.14-.4-.22-.62l-1.12-2.74c-.13-.33-.25-.56-.34-.69s-.2-.22-.31-.28-.28-.08-.51-.08h-.48l-.71,3.25c-.07.34-.12.62-.15.81s-.03.37-.03.53c0,.26.06.44.19.55s.35.17.65.19l-.09.42h-3.44l.09-.42c.22-.03.38-.09.49-.17s.2-.19.28-.32.14-.31.21-.5.16-.58.28-1.15l1.46-6.63c.13-.57.19-1.04.19-1.39,0-.27-.07-.46-.2-.56s-.35-.17-.64-.19l.09-.42Z"/>
  <path class="cls-12" d="M439.21,66.53c-.23,0-.43.05-.62.14-.18.09-.34.22-.48.39-.14.17-.25.38-.33.63s-.14.53-.17.85h2.93c-.04-.69-.17-1.19-.38-1.52-.21-.33-.53-.49-.96-.49h0ZM454.64,65.91c.21,0,.4,0,.58.02.18.01.35.03.52.06.16.03.32.06.48.09.16.04.31.07.46.12v1.44h-.93c-.1-.39-.25-.67-.44-.84-.19-.17-.45-.26-.79-.26-.24,0-.47.06-.67.17s-.37.28-.51.5c-.14.22-.25.49-.33.81s-.12.69-.12,1.11.03.75.09,1.06c.06.31.16.57.29.78s.31.37.52.48c.21.11.47.16.77.16.32,0,.61-.07.89-.2.28-.13.57-.35.87-.65.06.08.13.17.21.24.07.08.14.16.21.24-.21.23-.42.42-.62.57-.2.16-.4.28-.6.38s-.41.17-.62.21c-.21.04-.45.06-.69.06-.86,0-1.53-.28-1.99-.83-.46-.56-.69-1.36-.69-2.42,0-.49.07-.94.22-1.35.15-.41.36-.75.63-1.05.27-.29.6-.52.98-.68s.8-.24,1.26-.24h0ZM447.5,65.91c.31,0,.58.04.82.12.23.08.43.21.58.39.16.18.27.41.35.69.08.28.12.62.12,1.02v2.61c0,.25,0,.44,0,.57,0,.13.03.24.08.31.05.07.12.13.23.17s.26.09.46.15v.4h-2.78v-.4c.17-.06.31-.11.41-.14.1-.04.17-.09.22-.16.05-.07.08-.17.1-.3.01-.13.02-.32.02-.57v-1.76c0-.45-.02-.82-.06-1.11-.04-.29-.1-.52-.19-.69-.09-.17-.21-.28-.36-.35-.15-.07-.33-.1-.55-.1-.19,0-.37.05-.56.14-.19.09-.36.21-.51.34s-.27.29-.37.45c-.09.16-.14.31-.14.45v2.58c0,.26,0,.45.02.59s.05.24.1.31.13.13.23.16c.1.04.25.08.43.14v.4h-2.77v-.4c.17-.06.3-.11.4-.14.1-.03.17-.09.22-.15.05-.07.08-.17.1-.31.01-.13.02-.33.02-.59v-2.97c0-.15,0-.27,0-.38s-.01-.19-.02-.26c0-.1-.02-.19-.04-.26-.02-.07-.06-.13-.12-.18-.06-.05-.14-.1-.24-.14s-.24-.07-.41-.11v-.43l1.65-.07h.45c-.01.18-.03.36-.04.53-.02.17-.03.35-.04.53.01,0,.03.01.04.01s.03,0,.04.01c.21-.21.4-.39.58-.53.18-.15.36-.26.52-.36s.34-.16.5-.2c.17-.04.34-.06.51-.06h0ZM439.28,65.91c.45,0,.83.07,1.16.21.32.14.59.33.79.56.1.12.19.25.27.4.08.15.15.33.21.53.06.2.1.43.13.69.03.26.05.55.06.88h-4.33v.06c0,.8.15,1.39.45,1.79.3.4.77.59,1.41.59.17,0,.34-.02.5-.05.16-.04.31-.09.47-.17.16-.08.31-.17.47-.29.16-.12.32-.26.5-.43l.44.52c-.24.23-.46.43-.67.59-.21.16-.42.29-.63.39-.21.1-.43.17-.64.22-.22.05-.45.07-.69.07-.96,0-1.68-.27-2.17-.82s-.73-1.36-.73-2.43c0-.49.07-.94.21-1.35.14-.41.35-.75.61-1.05.27-.29.58-.52.95-.68s.78-.24,1.24-.24h0Z"/>
  <path class="cls-12" d="M425.42,149.57h3.56l-.09.42c-.25.03-.45.1-.59.22s-.24.29-.3.5-.09.5-.09.87c0,.09,0,.34.03.77l.24,6.3v.69h.09l3.73-6.73c.22-.4.38-.74.49-1.02s.16-.54.16-.75c0-.48-.29-.77-.86-.86l.09-.42h3.52l-.09.42c-.15.02-.3.08-.44.18s-.3.25-.47.47-.45.65-.81,1.28l-5.51,9.54h-1.15l-.58-9.6c-.02-.37-.06-.69-.12-.96s-.15-.48-.28-.62-.33-.24-.62-.28l.09-.42Z"/>
  <path class="cls-12" d="M435.94,159.15c-.23,0-.46.06-.69.17-.23.11-.44.27-.64.48-.2.21-.38.46-.55.76-.16.3-.3.63-.41.99.53,0,.99-.05,1.38-.13.39-.08.7-.19.95-.33.25-.14.43-.3.54-.49s.17-.4.17-.63c0-.26-.07-.47-.2-.61-.13-.15-.32-.22-.57-.22h0ZM451.52,158.52c.31,0,.59.02.86.05s.54.09.82.16l-.35,1.55h-.75c0-.22-.02-.4-.05-.55-.03-.15-.07-.26-.13-.34s-.14-.14-.24-.18c-.1-.04-.22-.06-.36-.06-.23,0-.45.05-.65.15-.21.1-.4.24-.58.42-.18.18-.34.39-.49.63-.15.24-.27.5-.38.78-.11.28-.19.57-.24.87-.06.3-.09.6-.09.9,0,.45.09.79.27,1.02.18.23.44.35.8.35.2,0,.38-.02.55-.05.17-.04.33-.1.49-.18s.33-.19.5-.33c.17-.14.36-.31.57-.51.08.08.16.17.23.25s.15.17.23.25c-.45.47-.91.82-1.36,1.05-.45.23-.94.34-1.47.34-.65,0-1.15-.19-1.5-.57s-.52-.93-.52-1.63c0-.4.04-.78.13-1.15.09-.37.22-.71.38-1.04.17-.32.37-.62.6-.88.23-.27.49-.49.78-.69s.6-.34.93-.45c.33-.11.68-.16,1.05-.16h0ZM440.8,158.52c.31,0,.55.1.72.31.17.2.26.47.26.81,0,.08,0,.17-.02.27-.01.09-.04.18-.08.27l.09.03c.41-.56.81-.98,1.21-1.26.4-.28.81-.42,1.23-.42.45,0,.78.12,1,.36.22.24.33.58.33,1.01,0,.13-.02.31-.06.54-.04.23-.09.48-.15.76-.06.27-.12.55-.19.84-.07.29-.13.55-.19.8-.06.24-.11.45-.15.63-.04.17-.06.28-.06.32,0,.16.03.28.09.35.06.07.15.11.28.11.08,0,.16-.01.24-.04.08-.03.16-.08.24-.14s.18-.14.28-.24c.1-.1.21-.22.34-.36l.44.42c-.21.21-.4.39-.57.54-.17.15-.34.28-.5.38-.16.1-.32.17-.48.22-.16.05-.33.07-.51.07-.15,0-.29-.03-.42-.09-.13-.06-.24-.14-.33-.24s-.16-.23-.21-.37c-.05-.14-.08-.3-.08-.46s.02-.37.05-.59c.04-.23.09-.47.16-.74.08-.27.15-.54.21-.79.07-.25.12-.48.17-.69.05-.21.09-.4.11-.57.03-.17.04-.3.04-.41,0-.26-.05-.45-.15-.57-.1-.12-.26-.18-.48-.18-.13,0-.26.03-.41.1-.15.07-.29.16-.44.27s-.29.25-.43.41c-.14.16-.27.33-.39.51s-.22.37-.31.56c-.09.2-.16.39-.2.58l-.71,3.17h-1.24l.95-4.12c.05-.22.09-.41.12-.59s.04-.31.04-.42c0-.31-.12-.46-.37-.46-.08,0-.15.02-.23.05-.08.03-.16.08-.25.14-.09.06-.18.14-.28.24-.1.1-.21.21-.34.34l-.44-.41c.21-.21.4-.4.58-.55.17-.15.34-.28.5-.38.16-.1.31-.17.47-.22.16-.05.32-.07.49-.07h0ZM436.21,158.52c.54,0,.95.12,1.23.35.28.24.42.57.42,1,0,1.52-1.44,2.29-4.33,2.29-.02.11-.04.23-.05.36s-.02.27-.02.42c0,.46.09.79.28,1s.48.32.87.32c.21,0,.4-.02.59-.07.19-.04.37-.11.55-.21s.36-.21.54-.36c.18-.15.37-.32.57-.52l.47.51c-.49.48-.98.85-1.46,1.09-.49.24-1.01.37-1.57.37-.33,0-.62-.05-.87-.15-.25-.1-.47-.24-.64-.43s-.31-.42-.4-.69c-.09-.27-.14-.58-.14-.92,0-.24.02-.49.06-.75s.11-.52.2-.78c.09-.26.2-.51.33-.76.13-.25.28-.48.46-.69.35-.44.78-.78,1.28-1.03.5-.25,1.04-.37,1.63-.37h0Z"/>
</svg>