<?xml version="1.0" encoding="UTF-8"?>
<svg id="_图层_1" data-name="图层 1" xmlns="http://www.w3.org/2000/svg" xmlns:xlink="http://www.w3.org/1999/xlink" viewBox="0 0 488.35 183.13">
  <defs>
    <style>
      .cls-1, .cls-2 {
        fill: #040000;
      }

      .cls-3 {
        fill: #bb70ab;
      }

      .cls-3, .cls-4, .cls-5, .cls-6, .cls-7, .cls-8, .cls-9, .cls-10, .cls-11, .cls-12, .cls-13, .cls-14 {
        stroke-miterlimit: 8;
      }

      .cls-3, .cls-5, .cls-6, .cls-8, .cls-9, .cls-10, .cls-11, .cls-12, .cls-13, .cls-14 {
        stroke-width: .67px;
      }

      .cls-3, .cls-11, .cls-13 {
        stroke: #952d8a;
      }

      .cls-4 {
        fill: url(#_未命名的渐变_3);
      }

      .cls-4, .cls-7 {
        stroke: #022332;
      }

      .cls-5 {
        fill: #c8e8f4;
        stroke: #1d95c7;
      }

      .cls-2, .cls-6 {
        fill-rule: evenodd;
      }

      .cls-6 {
        fill: #aeaeae;
        stroke: #040000;
      }

      .cls-7 {
        fill: url(#_未命名的渐变_3-2);
      }

      .cls-15 {
        isolation: isolate;
      }

      .cls-16 {
        fill: #165d7e;
      }

      .cls-8 {
        fill: #f3a6a7;
      }

      .cls-8, .cls-10, .cls-12, .cls-14 {
        stroke: #165d7e;
      }

      .cls-9 {
        fill: #bf1a20;
        stroke: #bf1a20;
      }

      .cls-10 {
        fill: #c12623;
      }

      .cls-11 {
        fill: #ebcde2;
      }

      .cls-12 {
        fill: #f8c9c9;
      }

      .cls-13 {
        fill: #d29bc4;
      }

      .cls-14 {
        fill: #eda6a6;
      }

      .cls-17 {
        fill: #de6f35;
      }
    </style>
    <linearGradient id="_未命名的渐变_3" data-name="未命名的渐变 3" x1="118.2" y1="-3587.71" x2="45.09" y2="-3587.71" gradientTransform="translate(0 -3476.59) scale(1 -1)" gradientUnits="userSpaceOnUse">
      <stop offset="0" stop-color="#f8c9c9"/>
      <stop offset="0" stop-color="#f8c8c8"/>
      <stop offset="0" stop-color="#f8c8c8"/>
      <stop offset=".01" stop-color="#f8c8c8"/>
      <stop offset=".02" stop-color="#f8c8c8"/>
      <stop offset=".02" stop-color="#f8c8c8"/>
      <stop offset=".03" stop-color="#f8c8c8"/>
      <stop offset=".03" stop-color="#f8c8c8"/>
      <stop offset=".04" stop-color="#f8c8c8"/>
      <stop offset=".04" stop-color="#f8c8c8"/>
      <stop offset=".05" stop-color="#f8c8c8"/>
      <stop offset=".05" stop-color="#f8c8c8"/>
      <stop offset=".06" stop-color="#f7c7c7"/>
      <stop offset=".06" stop-color="#f7c7c7"/>
      <stop offset=".07" stop-color="#f7c7c7"/>
      <stop offset=".07" stop-color="#f7c7c7"/>
      <stop offset=".08" stop-color="#f7c7c7"/>
      <stop offset=".08" stop-color="#f7c7c7"/>
      <stop offset=".09" stop-color="#f7c6c6"/>
      <stop offset=".09" stop-color="#f7c6c6"/>
      <stop offset=".1" stop-color="#f7c6c6"/>
      <stop offset=".1" stop-color="#f7c6c6"/>
      <stop offset=".11" stop-color="#f7c4c5"/>
      <stop offset=".11" stop-color="#f7c4c5"/>
      <stop offset=".12" stop-color="#f7c4c5"/>
      <stop offset=".12" stop-color="#f7c4c4"/>
      <stop offset=".13" stop-color="#f7c4c4"/>
      <stop offset=".13" stop-color="#f7c4c4"/>
      <stop offset=".14" stop-color="#f7c4c4"/>
      <stop offset=".14" stop-color="#f7c3c3"/>
      <stop offset=".15" stop-color="#f7c3c3"/>
      <stop offset=".15" stop-color="#f7c2c1"/>
      <stop offset=".16" stop-color="#f7c2c1"/>
      <stop offset=".16" stop-color="#f7c2c1"/>
      <stop offset=".17" stop-color="#f7c1c1"/>
      <stop offset=".17" stop-color="#f7c1c1"/>
      <stop offset=".18" stop-color="#f7c1c1"/>
      <stop offset=".18" stop-color="#f7c0c0"/>
      <stop offset=".19" stop-color="#f7c0c0"/>
      <stop offset=".19" stop-color="#f6bfbe"/>
      <stop offset=".2" stop-color="#f6bfbe"/>
      <stop offset=".2" stop-color="#f6bebe"/>
      <stop offset=".21" stop-color="#f6bebe"/>
      <stop offset=".21" stop-color="#f6bdbd"/>
      <stop offset=".22" stop-color="#f6bdbd"/>
      <stop offset=".22" stop-color="#f6bcbc"/>
      <stop offset=".23" stop-color="#f6bcbc"/>
      <stop offset=".23" stop-color="#f6bbbb"/>
      <stop offset=".24" stop-color="#f6bbbb"/>
      <stop offset=".24" stop-color="#f5baba"/>
      <stop offset=".25" stop-color="#f5baba"/>
      <stop offset=".25" stop-color="#f5b9b9"/>
      <stop offset=".26" stop-color="#f5b9b9"/>
      <stop offset=".26" stop-color="#f4b8b8"/>
      <stop offset=".27" stop-color="#f4b8b7"/>
      <stop offset=".27" stop-color="#f4b8b7"/>
      <stop offset=".28" stop-color="#f4b6b5"/>
      <stop offset=".28" stop-color="#f4b6b5"/>
      <stop offset=".29" stop-color="#f4b5b5"/>
      <stop offset=".29" stop-color="#f3b4b4"/>
      <stop offset=".3" stop-color="#f3b4b4"/>
      <stop offset=".3" stop-color="#f3b3b3"/>
      <stop offset=".31" stop-color="#f3b1b1"/>
      <stop offset=".31" stop-color="#f3b1b1"/>
      <stop offset=".32" stop-color="#f2b1b0"/>
      <stop offset=".32" stop-color="#f2b0af"/>
      <stop offset=".33" stop-color="#f2b0af"/>
      <stop offset=".33" stop-color="#f1afaf"/>
      <stop offset=".33" stop-color="#f1aeae"/>
      <stop offset=".34" stop-color="#f1aeae"/>
      <stop offset=".34" stop-color="#f1adad"/>
      <stop offset=".35" stop-color="#f0acac"/>
      <stop offset=".35" stop-color="#f0abab"/>
      <stop offset=".36" stop-color="#f0abab"/>
      <stop offset=".36" stop-color="#f0aaaa"/>
      <stop offset=".37" stop-color="#f0a9a9"/>
      <stop offset=".37" stop-color="#eea8a8"/>
      <stop offset=".38" stop-color="#eea7a7"/>
      <stop offset=".38" stop-color="#eea7a7"/>
      <stop offset=".39" stop-color="#eea6a6"/>
      <stop offset=".39" stop-color="#eea5a5"/>
      <stop offset=".4" stop-color="#eea4a4"/>
      <stop offset=".4" stop-color="#eda2a2"/>
      <stop offset=".41" stop-color="#eda1a2"/>
      <stop offset=".41" stop-color="#eda0a1"/>
      <stop offset=".42" stop-color="#eda0a1"/>
      <stop offset=".42" stop-color="#ec9f9f"/>
      <stop offset=".43" stop-color="#ec9e9e"/>
      <stop offset=".43" stop-color="#eb9d9e"/>
      <stop offset=".44" stop-color="#eb9c9d"/>
      <stop offset=".44" stop-color="#ea9b9b"/>
      <stop offset=".45" stop-color="#ea9a9a"/>
      <stop offset=".45" stop-color="#e99999"/>
      <stop offset=".46" stop-color="#e99898"/>
      <stop offset=".46" stop-color="#e99897"/>
      <stop offset=".47" stop-color="#e89696"/>
      <stop offset=".47" stop-color="#e89494"/>
      <stop offset=".48" stop-color="#e99494"/>
      <stop offset=".48" stop-color="#e79393"/>
      <stop offset=".49" stop-color="#e89292"/>
      <stop offset=".49" stop-color="#e89191"/>
      <stop offset=".5" stop-color="#e89090"/>
      <stop offset=".5" stop-color="#e68f8f"/>
      <stop offset=".51" stop-color="#e78e8e"/>
      <stop offset=".51" stop-color="#e78d8d"/>
      <stop offset=".52" stop-color="#e78c8c"/>
      <stop offset=".52" stop-color="#e58b8b"/>
      <stop offset=".53" stop-color="#e58a8a"/>
      <stop offset=".53" stop-color="#e58889"/>
      <stop offset=".54" stop-color="#e58888"/>
      <stop offset=".54" stop-color="#e48787"/>
      <stop offset=".55" stop-color="#e48686"/>
      <stop offset=".55" stop-color="#e48585"/>
      <stop offset=".56" stop-color="#e38383"/>
      <stop offset=".56" stop-color="#e38282"/>
      <stop offset=".57" stop-color="#e28181"/>
      <stop offset=".57" stop-color="#e28080"/>
      <stop offset=".58" stop-color="#e17f7f"/>
      <stop offset=".58" stop-color="#e17e7e"/>
      <stop offset=".59" stop-color="#e17d7d"/>
      <stop offset=".59" stop-color="#e07b7b"/>
      <stop offset=".6" stop-color="#e07a7a"/>
      <stop offset=".6" stop-color="#e07979"/>
      <stop offset=".61" stop-color="#e07978"/>
      <stop offset=".61" stop-color="#df7877"/>
      <stop offset=".62" stop-color="#df7675"/>
      <stop offset=".62" stop-color="#df7574"/>
      <stop offset=".63" stop-color="#de7474"/>
      <stop offset=".63" stop-color="#de7373"/>
      <stop offset=".64" stop-color="#de7171"/>
      <stop offset=".64" stop-color="#dd7070"/>
      <stop offset=".65" stop-color="#dd6f6f"/>
      <stop offset=".65" stop-color="#dd6e6d"/>
      <stop offset=".66" stop-color="#dc6d6c"/>
      <stop offset=".66" stop-color="#dc6b6b"/>
      <stop offset=".67" stop-color="#dc6a6a"/>
      <stop offset=".67" stop-color="#db6968"/>
      <stop offset=".67" stop-color="#da6867"/>
      <stop offset=".68" stop-color="#da6766"/>
      <stop offset=".68" stop-color="#d96564"/>
      <stop offset=".69" stop-color="#d96463"/>
      <stop offset=".69" stop-color="#d96261"/>
      <stop offset=".7" stop-color="#d86160"/>
      <stop offset=".7" stop-color="#d8605f"/>
      <stop offset=".71" stop-color="#d85f5d"/>
      <stop offset=".71" stop-color="#d75e5c"/>
      <stop offset=".72" stop-color="#d75d5c"/>
      <stop offset=".72" stop-color="#d75b5a"/>
      <stop offset=".73" stop-color="#d75a59"/>
      <stop offset=".73" stop-color="#d75757"/>
      <stop offset=".74" stop-color="#d75756"/>
      <stop offset=".74" stop-color="#d55554"/>
      <stop offset=".75" stop-color="#d55453"/>
      <stop offset=".75" stop-color="#d45251"/>
      <stop offset=".76" stop-color="#d45250"/>
      <stop offset=".76" stop-color="#d4504e"/>
      <stop offset=".77" stop-color="#d34f4e"/>
      <stop offset=".77" stop-color="#d34d4c"/>
      <stop offset=".78" stop-color="#d34c4b"/>
      <stop offset=".78" stop-color="#d24a49"/>
      <stop offset=".79" stop-color="#d34a48"/>
      <stop offset=".79" stop-color="#d14746"/>
      <stop offset=".8" stop-color="#d14644"/>
      <stop offset=".8" stop-color="#d14543"/>
      <stop offset=".81" stop-color="#d04442"/>
      <stop offset=".81" stop-color="#d04240"/>
      <stop offset=".82" stop-color="#d0423f"/>
      <stop offset=".82" stop-color="#cf403d"/>
      <stop offset=".83" stop-color="#cf3e3b"/>
      <stop offset=".83" stop-color="#ce3d3a"/>
      <stop offset=".84" stop-color="#ce3b39"/>
      <stop offset=".84" stop-color="#ce3a38"/>
      <stop offset=".85" stop-color="#cd3736"/>
      <stop offset=".85" stop-color="#cd3534"/>
      <stop offset=".86" stop-color="#cc3433"/>
      <stop offset=".86" stop-color="#cc3332"/>
      <stop offset=".87" stop-color="#cb3230"/>
      <stop offset=".87" stop-color="#cb312f"/>
      <stop offset=".88" stop-color="#cb2f2c"/>
      <stop offset=".88" stop-color="#ca2d2a"/>
      <stop offset=".89" stop-color="#ca2d2a"/>
      <stop offset=".89" stop-color="#c92a27"/>
      <stop offset=".9" stop-color="#c92826"/>
      <stop offset=".9" stop-color="#c92825"/>
      <stop offset=".91" stop-color="#c82623"/>
      <stop offset=".91" stop-color="#c82522"/>
      <stop offset=".92" stop-color="#c72221"/>
      <stop offset=".92" stop-color="#c72220"/>
      <stop offset=".93" stop-color="#c6211f"/>
      <stop offset=".93" stop-color="#c61f1e"/>
      <stop offset=".94" stop-color="#c51f1e"/>
      <stop offset=".94" stop-color="#c51e1e"/>
      <stop offset=".95" stop-color="#c41e1f"/>
      <stop offset=".95" stop-color="#c31d1f"/>
      <stop offset=".96" stop-color="#c31b1f"/>
      <stop offset=".96" stop-color="#c31c1f"/>
      <stop offset=".97" stop-color="#c2191f"/>
      <stop offset=".97" stop-color="#c2191f"/>
      <stop offset=".98" stop-color="#c11920"/>
      <stop offset=".98" stop-color="#c11920"/>
      <stop offset=".99" stop-color="#c11920"/>
      <stop offset=".99" stop-color="#bf1a20"/>
      <stop offset="1" stop-color="#bf1a20"/>
      <stop offset="1" stop-color="#bf1a20"/>
    </linearGradient>
    <linearGradient id="_未命名的渐变_3-2" data-name="未命名的渐变 3" x1="294.92" x2="221.82" xlink:href="#_未命名的渐变_3"/>
  </defs>
  <rect class="cls-12" x="44.72" y="70.62" width="33.16" height="30.9"/>
  <rect class="cls-9" x="77.88" y="70.62" width="33.16" height="30.9"/>
  <rect class="cls-14" x="110.28" y="70.62" width="33.16" height="30.9"/>
  <rect class="cls-10" x="44.72" y="39.72" width="33.16" height="30.9"/>
  <rect class="cls-8" x="77.88" y="39.72" width="33.16" height="30.9"/>
  <rect class="cls-12" x="110.28" y="39.72" width="33.16" height="30.9"/>
  <rect class="cls-4" x="45.09" y="108.3" width="73.1" height="5.65"/>
  <g class="cls-15">
    <path class="cls-1" d="M45.8,123.15h1.43v-3.98l-1.3.83v-.75l1.35-.9h.84v4.8h1.22v.73h-3.55v-.73Z"/>
  </g>
  <g class="cls-15">
    <path class="cls-1" d="M117.09,120.35c0,.93-.16,1.64-.48,2.12-.32.48-.8.73-1.43.73-1.26,0-1.89-.95-1.89-2.85,0-.66.07-1.19.21-1.61.14-.42.35-.73.62-.93.27-.2.63-.3,1.08-.3.64,0,1.12.23,1.42.7s.46,1.18.46,2.15ZM116.18,120.35c0-.52-.03-.93-.1-1.24s-.17-.54-.31-.68c-.14-.14-.33-.22-.57-.22-.37,0-.62.16-.78.49-.15.33-.23.87-.23,1.64s.08,1.28.23,1.62.41.51.76.51.6-.17.76-.51.24-.88.24-1.61Z"/>
  </g>
  <rect class="cls-12" x="221.82" y="70.62" width="33.16" height="30.9"/>
  <g class="cls-15">
    <path class="cls-1" d="M234.11,85.76c0,1.04-.18,1.84-.54,2.38-.36.54-.9.82-1.61.82-1.42,0-2.12-1.07-2.12-3.2,0-.74.08-1.34.24-1.82.16-.47.39-.82.7-1.05.31-.23.71-.34,1.22-.34.72,0,1.26.26,1.6.79.35.52.52,1.33.52,2.42ZM233.09,85.76c0-.58-.04-1.04-.11-1.39-.07-.35-.19-.6-.35-.76-.16-.16-.37-.24-.64-.24-.41,0-.7.18-.87.55-.17.37-.26.98-.26,1.85s.09,1.44.26,1.82c.17.38.46.57.85.57s.67-.19.85-.58c.18-.39.27-.99.27-1.81Z"/>
    <path class="cls-1" d="M235.04,88.87v-1.16h1.06v1.16h-1.06Z"/>
    <path class="cls-1" d="M237.07,88.87v-.71c.15-.34.36-.68.63-1.01.27-.33.63-.68,1.09-1.06.54-.45.9-.8,1.08-1.05.17-.25.26-.49.26-.72,0-.3-.08-.53-.25-.7s-.41-.25-.71-.25c-.59,0-.92.32-1.01.95l-1.02-.07c.06-.54.27-.95.62-1.25.35-.3.81-.45,1.39-.45.64,0,1.13.15,1.49.45s.53.73.53,1.28c0,.26-.05.5-.15.73s-.25.45-.44.67c-.19.22-.5.5-.94.85-.75.6-1.22,1.09-1.41,1.49h3.03v.85h-4.19Z"/>
    <path class="cls-1" d="M246.32,86.82c0,.67-.2,1.19-.59,1.57-.39.38-.94.57-1.63.57-.58,0-1.04-.13-1.38-.4-.34-.26-.56-.65-.65-1.17l1.02-.09c.06.23.13.39.22.5s.2.19.34.25c.14.06.31.09.51.09.37,0,.65-.11.84-.33.19-.22.29-.55.29-.97,0-.37-.09-.66-.28-.87s-.45-.32-.79-.32c-.19,0-.36.03-.51.09-.15.06-.3.17-.46.32h-.97l.2-3.42h3.51v.83h-2.61l-.11,1.72c.3-.25.7-.37,1.19-.37.58,0,1.04.18,1.38.53.34.36.51.84.51,1.46Z"/>
  </g>
  <rect class="cls-9" x="254.98" y="70.62" width="32.78" height="30.9"/>
  <g class="cls-15">
    <path class="cls-1" d="M267.22,85.76c0,1.04-.18,1.84-.54,2.38-.36.54-.9.82-1.61.82-1.42,0-2.12-1.07-2.12-3.2,0-.74.08-1.34.24-1.82.16-.47.39-.82.7-1.05.31-.23.71-.34,1.22-.34.72,0,1.26.26,1.6.79.35.52.52,1.33.52,2.42ZM266.19,85.76c0-.58-.04-1.04-.11-1.39-.07-.35-.19-.6-.35-.76-.16-.16-.37-.24-.64-.24-.41,0-.7.18-.87.55-.17.37-.26.98-.26,1.85s.09,1.44.26,1.82c.17.38.46.57.85.57s.67-.19.85-.58c.18-.39.27-.99.27-1.81Z"/>
    <path class="cls-1" d="M268.14,88.87v-1.16h1.06v1.16h-1.06Z"/>
    <path class="cls-1" d="M273.68,87.57v1.3h-.98v-1.3h-2.76v-.83l2.57-4.08h1.17v4.1h.91v.82h-.91ZM272.7,83.71l-1.88,3.04h1.88v-3.04Z"/>
  </g>
  <g class="cls-15">
    <path class="cls-1" d="M279.45,86.82c0,.67-.2,1.19-.59,1.57-.39.38-.94.57-1.63.57-.58,0-1.04-.13-1.38-.4-.34-.26-.56-.65-.65-1.17l1.02-.09c.06.23.13.39.22.5s.2.19.34.25c.14.06.31.09.51.09.37,0,.65-.11.84-.33.19-.22.29-.55.29-.97,0-.37-.09-.66-.28-.87s-.45-.32-.79-.32c-.19,0-.36.03-.51.09-.15.06-.3.17-.46.32h-.97l.2-3.42h3.51v.83h-2.61l-.11,1.72c.3-.25.7-.37,1.19-.37.58,0,1.04.18,1.38.53.34.36.51.84.51,1.46Z"/>
  </g>
  <rect class="cls-14" x="287.39" y="70.62" width="33.16" height="30.9"/>
  <g class="cls-15">
    <path class="cls-1" d="M299.73,85.76c0,1.04-.18,1.84-.54,2.38-.36.54-.9.82-1.61.82-1.42,0-2.12-1.07-2.12-3.2,0-.74.08-1.34.24-1.82.16-.47.39-.82.7-1.05.31-.23.71-.34,1.22-.34.72,0,1.26.26,1.6.79.35.52.52,1.33.52,2.42ZM298.71,85.76c0-.58-.04-1.04-.11-1.39-.07-.35-.19-.6-.35-.76-.16-.16-.37-.24-.64-.24-.41,0-.7.18-.87.55-.17.37-.26.98-.26,1.85s.09,1.44.26,1.82c.17.38.46.57.85.57s.67-.19.85-.58c.18-.39.27-.99.27-1.81Z"/>
    <path class="cls-1" d="M300.66,88.87v-1.16h1.06v1.16h-1.06Z"/>
    <path class="cls-1" d="M306.88,87.15c0,.59-.18,1.04-.55,1.35-.37.31-.89.47-1.58.47-.64,0-1.14-.15-1.51-.44s-.59-.72-.66-1.3l1.03-.09c.05.34.16.59.35.76s.45.25.79.25.62-.09.8-.27.28-.44.28-.77c0-.31-.12-.54-.34-.71-.23-.17-.57-.25-1.01-.25h-.46v-.84h.43c.4,0,.7-.08.91-.25s.32-.4.32-.71-.08-.56-.25-.71c-.16-.16-.4-.24-.7-.24-.61,0-.95.31-1.02.92l-1.01-.08c.06-.53.27-.94.63-1.23.36-.29.83-.44,1.4-.44.63,0,1.11.14,1.45.43.34.29.51.69.51,1.22,0,.37-.11.69-.32.95-.21.26-.53.43-.97.52v.02c.45.05.81.2,1.07.46.26.26.39.59.39.99Z"/>
    <path class="cls-1" d="M311.95,85.76c0,1.04-.18,1.84-.54,2.38-.36.54-.9.82-1.61.82-1.42,0-2.12-1.07-2.12-3.2,0-.74.08-1.34.24-1.82.16-.47.39-.82.7-1.05.31-.23.71-.34,1.22-.34.72,0,1.26.26,1.6.79.35.52.52,1.33.52,2.42ZM310.93,85.76c0-.58-.04-1.04-.11-1.39-.07-.35-.19-.6-.35-.76-.16-.16-.37-.24-.64-.24-.41,0-.7.18-.87.55-.17.37-.26.98-.26,1.85s.09,1.44.26,1.82c.17.38.46.57.85.57s.67-.19.85-.58c.18-.39.27-.99.27-1.81Z"/>
  </g>
  <rect class="cls-10" x="221.82" y="39.72" width="33.16" height="30.9"/>
  <g class="cls-15">
    <path class="cls-1" d="M234.11,55.24c0,1.04-.18,1.84-.54,2.38-.36.54-.9.82-1.61.82-1.42,0-2.12-1.07-2.12-3.2,0-.74.08-1.34.24-1.82.16-.47.39-.82.7-1.05.31-.23.71-.34,1.22-.34.72,0,1.26.26,1.6.79.35.52.52,1.33.52,2.42ZM233.09,55.24c0-.58-.04-1.04-.11-1.39-.07-.35-.19-.6-.35-.76-.16-.16-.37-.24-.64-.24-.41,0-.7.18-.87.55-.17.37-.26.98-.26,1.85s.09,1.44.26,1.82c.17.38.46.57.85.57s.67-.19.85-.58c.18-.39.27-.99.27-1.81Z"/>
    <path class="cls-1" d="M235.04,58.35v-1.16h1.06v1.16h-1.06Z"/>
    <path class="cls-1" d="M241.3,56.3c0,.67-.2,1.19-.59,1.57-.39.38-.94.57-1.63.57-.58,0-1.04-.13-1.38-.4-.34-.26-.56-.65-.65-1.17l1.02-.09c.06.23.13.39.22.5s.2.19.34.25c.14.06.31.09.51.09.37,0,.65-.11.84-.33.19-.22.29-.55.29-.97,0-.37-.09-.66-.28-.87s-.45-.32-.79-.32c-.19,0-.36.03-.51.09-.15.06-.3.17-.46.32h-.97l.2-3.42h3.51v.83h-2.61l-.11,1.72c.3-.25.7-.37,1.19-.37.58,0,1.04.18,1.38.53.34.36.51.84.51,1.46Z"/>
    <path class="cls-1" d="M246.33,55.24c0,1.04-.18,1.84-.54,2.38-.36.54-.9.82-1.61.82-1.42,0-2.12-1.07-2.12-3.2,0-.74.08-1.34.24-1.82.16-.47.39-.82.7-1.05.31-.23.71-.34,1.22-.34.72,0,1.26.26,1.6.79.35.52.52,1.33.52,2.42ZM245.31,55.24c0-.58-.04-1.04-.11-1.39-.07-.35-.19-.6-.35-.76-.16-.16-.37-.24-.64-.24-.41,0-.7.18-.87.55-.17.37-.26.98-.26,1.85s.09,1.44.26,1.82c.17.38.46.57.85.57s.67-.19.85-.58c.18-.39.27-.99.27-1.81Z"/>
  </g>
  <rect class="cls-8" x="254.98" y="39.72" width="32.78" height="30.9"/>
  <g class="cls-15">
    <path class="cls-1" d="M267.22,55.24c0,1.04-.18,1.84-.54,2.38-.36.54-.9.82-1.61.82-1.42,0-2.12-1.07-2.12-3.2,0-.74.08-1.34.24-1.82.16-.47.39-.82.7-1.05.31-.23.71-.34,1.22-.34.72,0,1.26.26,1.6.79.35.52.52,1.33.52,2.42ZM266.19,55.24c0-.58-.04-1.04-.11-1.39-.07-.35-.19-.6-.35-.76-.16-.16-.37-.24-.64-.24-.41,0-.7.18-.87.55-.17.37-.26.98-.26,1.85s.09,1.44.26,1.82c.17.38.46.57.85.57s.67-.19.85-.58c.18-.39.27-.99.27-1.81Z"/>
    <path class="cls-1" d="M268.14,58.35v-1.16h1.06v1.16h-1.06Z"/>
    <path class="cls-1" d="M270.18,58.35v-.71c.15-.34.36-.68.63-1.01.27-.33.63-.68,1.09-1.06.54-.45.9-.8,1.08-1.05.17-.25.26-.49.26-.72,0-.3-.08-.53-.25-.7s-.41-.25-.71-.25c-.59,0-.92.32-1.01.95l-1.02-.07c.06-.54.27-.95.62-1.25.35-.3.81-.45,1.39-.45.64,0,1.13.15,1.49.45s.53.73.53,1.28c0,.26-.05.5-.15.73s-.25.45-.44.67c-.19.22-.5.5-.94.85-.75.6-1.22,1.09-1.41,1.49h3.03v.85h-4.19Z"/>
    <path class="cls-1" d="M279.37,52.94c-.55.86-.96,1.57-1.23,2.13-.27.56-.47,1.11-.61,1.64s-.21,1.08-.21,1.63h-1.05c0-.78.16-1.59.48-2.42.32-.83.88-1.81,1.67-2.95h-3.17v-.85h4.13v.82Z"/>
  </g>
  <rect class="cls-12" x="287.39" y="39.72" width="33.16" height="30.9"/>
  <g class="cls-15">
    <path class="cls-1" d="M299.73,55.24c0,1.04-.18,1.84-.54,2.38-.36.54-.9.82-1.61.82-1.42,0-2.12-1.07-2.12-3.2,0-.74.08-1.34.24-1.82.16-.47.39-.82.7-1.05.31-.23.71-.34,1.22-.34.72,0,1.26.26,1.6.79.35.52.52,1.33.52,2.42ZM298.71,55.24c0-.58-.04-1.04-.11-1.39-.07-.35-.19-.6-.35-.76-.16-.16-.37-.24-.64-.24-.41,0-.7.18-.87.55-.17.37-.26.98-.26,1.85s.09,1.44.26,1.82c.17.38.46.57.85.57s.67-.19.85-.58c.18-.39.27-.99.27-1.81Z"/>
    <path class="cls-1" d="M300.66,58.35v-1.16h1.06v1.16h-1.06Z"/>
    <path class="cls-1" d="M302.69,58.35v-.71c.15-.34.36-.68.63-1.01.27-.33.63-.68,1.09-1.06.54-.45.9-.8,1.08-1.05.17-.25.26-.49.26-.72,0-.3-.08-.53-.25-.7s-.41-.25-.71-.25c-.59,0-.92.32-1.01.95l-1.02-.07c.06-.54.27-.95.62-1.25.35-.3.81-.45,1.39-.45.64,0,1.13.15,1.49.45s.53.73.53,1.28c0,.26-.05.5-.15.73s-.25.45-.44.67c-.19.22-.5.5-.94.85-.75.6-1.22,1.09-1.41,1.49h3.03v.85h-4.19Z"/>
    <path class="cls-1" d="M311.9,56.63c0,.59-.18,1.04-.55,1.35-.37.31-.89.47-1.58.47-.64,0-1.14-.15-1.51-.44s-.59-.72-.66-1.3l1.03-.09c.05.34.16.59.35.76s.45.25.79.25.62-.09.8-.27.28-.44.28-.77c0-.31-.12-.54-.34-.71-.23-.17-.57-.25-1.01-.25h-.46v-.84h.43c.4,0,.7-.08.91-.25s.32-.4.32-.71-.08-.56-.25-.71c-.16-.16-.4-.24-.7-.24-.61,0-.95.31-1.02.92l-1.01-.08c.06-.53.27-.94.63-1.23.36-.29.83-.44,1.4-.44.63,0,1.11.14,1.45.43.34.29.51.69.51,1.22,0,.37-.11.69-.32.95-.21.26-.53.43-.97.52v.02c.45.05.81.2,1.07.46.26.26.39.59.39.99Z"/>
  </g>
  <rect class="cls-7" x="221.82" y="108.3" width="73.1" height="5.65"/>
  <g class="cls-15">
    <path class="cls-1" d="M222.74,123.15h1.43v-3.98l-1.3.83v-.75l1.35-.9h.84v4.8h1.22v.73h-3.55v-.73Z"/>
  </g>
  <g class="cls-15">
    <path class="cls-1" d="M294.03,120.35c0,.93-.16,1.64-.48,2.12-.32.48-.8.73-1.43.73-1.26,0-1.89-.95-1.89-2.85,0-.66.07-1.19.21-1.61.14-.42.35-.73.62-.93.27-.2.63-.3,1.08-.3.64,0,1.12.23,1.42.7s.46,1.18.46,2.15ZM293.12,120.35c0-.52-.03-.93-.1-1.24s-.17-.54-.31-.68c-.14-.14-.33-.22-.57-.22-.37,0-.62.16-.78.49-.15.33-.23.87-.23,1.64s.08,1.28.23,1.62.41.51.76.51.6-.17.76-.51.24-.88.24-1.61Z"/>
  </g>
  <path class="cls-16" d="M146.65,77.97h68.49v.75h-68.49v-.75ZM214.64,76.84l3.01,1.51-3.01,1.51v-3.01Z"/>
  <rect class="cls-13" x="352.95" y="67.23" width="7.91" height="7.91"/>
  <g class="cls-15">
    <path class="cls-1" d="M355.36,73.34v-.37h1.24v-4.02l-1.11.73v-.39l1.15-.79h.38v4.47h1.05v.37h-2.72Z"/>
  </g>
  <rect class="cls-13" x="360.49" y="67.23" width="7.91" height="7.91"/>
  <rect class="cls-13" x="368.4" y="67.23" width="7.91" height="7.91"/>
  <rect class="cls-13" x="375.94" y="67.23" width="7.91" height="7.91"/>
  <rect class="cls-13" x="383.85" y="67.23" width="7.91" height="7.91"/>
  <rect class="cls-13" x="391.39" y="67.23" width="7.91" height="7.91"/>
  <rect class="cls-3" x="352.95" y="84.18" width="7.91" height="7.91"/>
  <g class="cls-15">
    <path class="cls-1" d="M355.36,90.3v-.37h1.24v-4.02l-1.11.73v-.39l1.15-.79h.38v4.47h1.05v.37h-2.72Z"/>
  </g>
  <rect class="cls-3" x="360.49" y="84.18" width="7.91" height="7.91"/>
  <rect class="cls-3" x="368.4" y="84.18" width="7.91" height="7.91"/>
  <rect class="cls-3" x="375.94" y="84.18" width="7.91" height="7.91"/>
  <rect class="cls-3" x="383.85" y="84.18" width="7.91" height="7.91"/>
  <rect class="cls-3" x="391.39" y="84.18" width="7.91" height="7.91"/>
  <rect class="cls-11" x="360.49" y="51.02" width="7.91" height="7.54"/>
  <rect class="cls-11" x="368.4" y="51.02" width="7.91" height="7.54"/>
  <rect class="cls-11" x="375.94" y="51.02" width="7.91" height="7.54"/>
  <rect class="cls-11" x="383.85" y="51.02" width="7.91" height="7.54"/>
  <rect class="cls-11" x="391.39" y="51.02" width="7.91" height="7.54"/>
  <rect class="cls-11" x="353.33" y="51.02" width="7.54" height="7.54"/>
  <g class="cls-15">
    <path class="cls-1" d="M355.54,57.14v-.37h1.24v-4.02l-1.11.73v-.39l1.15-.79h.38v4.47h1.05v.37h-2.72Z"/>
  </g>
  <path class="cls-17" d="M320.56,55.04l1.53.09,1.52.28,1.5.45,1.46.61,1.41.75,1.36.89,2.47,2.12,2.09,2.51.87,1.37.74,1.43.6,1.48.44,1.52.27,1.54.09,1.55.09,1.54h0s.27,1.51.27,1.51h0s.44,1.49.44,1.49h0s.59,1.46.59,1.46h0s.74,1.41.74,1.41h0s.87,1.35.87,1.35h0s2.08,2.48,2.08,2.48v-.02s2.45,2.11,2.45,2.11h-.01s1.34.87,1.34.87h0s1.4.74,1.4.74h-.01s1.45.6,1.45.6h-.01s1.49.44,1.49.44h-.02s.54.06.54.06l-.03.25-.55-.07-1.5-.45-1.46-.61-1.41-.75-1.36-.89-2.47-2.12-2.09-2.51-.87-1.37-.74-1.43-.6-1.48-.44-1.52-.27-1.54-.09-1.55-.09-1.54h0s-.27-1.52-.27-1.52h0s-.44-1.49-.44-1.49h0s-.59-1.46-.59-1.46h0s-.74-1.41-.74-1.41h0s-.87-1.35-.87-1.35h0s-2.08-2.48-2.08-2.48l.02.02-2.46-2.11h.01s-1.34-.87-1.34-.87h0s-1.4-.74-1.4-.74h.01s-1.45-.6-1.45-.6h.01s-1.49-.44-1.49-.44h.01s-1.51-.27-1.51-.27h.01s-1.52-.09-1.52-.09l.02-.25ZM350.25,86.24l2.81,1.86-3.17,1.13.36-2.99Z"/>
  <path class="cls-17" d="M271.68,39.75l.18-.85-.02.04.54-.84-.02.02.87-.83h-.02s1.17-.79,1.17-.79h-.01s1.45-.77,1.45-.77h0s1.71-.74,1.71-.74h0s1.95-.7,1.95-.7h0s2.16-.66,2.16-.66h0s2.34-.61,2.34-.61h0s2.51-.55,2.51-.55h0s5.42-.89,5.42-.89h0s5.79-.57,5.79-.57h0s5.98-.2,5.98-.2h0s3,.12,3,.12h0s2.98.34,2.98.34h0s2.93.55,2.93.55h0s2.86.74,2.86.74h0s2.77.92,2.77.92h0s2.65,1.08,2.65,1.08h0s2.51,1.23,2.51,1.23h0s2.34,1.36,2.34,1.36h0s2.16,1.48,2.16,1.48h0s1.95,1.58,1.95,1.58h0s1.71,1.67,1.71,1.67h0s1.45,1.74,1.45,1.74h0s1.17,1.8,1.17,1.8v-.02s.86,1.85.86,1.85v-.02s.53,1.88.53,1.88v-.02s.18,1.9.18,1.9h0s.1,1.9.1,1.9l.29,1.9.47,1.86.64,1.82.79,1.76.94,1.69,2.24,3.08,1.28,1.37,1.37,1.24,1.45,1.09,1.52.92,1.57.75,1.61.55.77.12.04-.25-.76-.12h.02s-1.59-.54-1.59-.54h.01s-1.56-.73-1.56-.73h.01s-1.51-.91-1.51-.91h.01s-1.44-1.07-1.44-1.07h0s-1.36-1.22-1.36-1.22h0s-1.28-1.36-1.28-1.36h0s-2.23-3.06-2.23-3.06h0s-.93-1.66-.93-1.66h0s-.79-1.74-.79-1.74h0s-.64-1.8-.64-1.8h0s-.47-1.84-.47-1.84h0s-.29-1.87-.29-1.87h0s-.1-1.89-.1-1.89l-.19-1.91-.54-1.9-.87-1.87-1.18-1.82-1.46-1.76-1.72-1.68-1.95-1.59-2.17-1.49-2.35-1.37-2.52-1.23-2.66-1.08-2.78-.92-2.87-.74-2.94-.55-2.99-.34-3.01-.12-5.99.2-5.8.57-5.43.89-2.51.55-2.35.61-2.16.66-1.95.71-1.72.75-1.46.79-1.18.82-.88.84-.56.87-.19.87.25.05ZM349.95,72.32l3.19-1.09-2.79-1.89-.4,2.99Z"/>
  <path class="cls-17" d="M238.53,39.73l.07-1.39h0s.21-1.38.21-1.38v.02s.82-2.77.82-2.77v.02s1.32-2.72,1.32-2.72v.02s1.78-2.66,1.78-2.66h0s2.22-2.56,2.22-2.56h0s2.62-2.45,2.62-2.45h0s2.98-2.32,2.98-2.32h0s3.3-2.17,3.3-2.17h0s3.59-2,3.59-2h0s3.84-1.8,3.84-1.8h0s4.05-1.58,4.05-1.58h0s4.23-1.35,4.23-1.35h0s4.38-1.08,4.38-1.08h0s4.49-.8,4.49-.8h0s4.56-.5,4.56-.5h0s4.59-.17,4.59-.17h0s4.59.13,4.59.13h0s4.56.37,4.56.37h0s4.49.6,4.49.6h0s4.38.82,4.38.82h0s4.23,1.01,4.23,1.01h0s4.05,1.19,4.05,1.19h0s3.84,1.36,3.84,1.36h0s3.59,1.51,3.59,1.51h0s3.3,1.64,3.3,1.64h0s2.98,1.75,2.98,1.75h0s2.62,1.85,2.62,1.85h0s2.22,1.93,2.22,1.93h-.01s1.79,1.99,1.79,1.99v-.02s1.31,2.05,1.31,2.05v-.02s.81,2.08.81,2.08v-.02s.2,1.05.2,1.05v-.02s.07,1.05.07,1.05h0s.1,2.1.1,2.1l.28,2.09.45,2.06.61,2.01.76,1.94.9,1.86,2.15,3.41,1.23,1.52,1.32,1.37,1.39,1.2,1.46,1.02,1.51.83,1.55.61.66.12.04-.25-.64-.11h.02s-1.53-.6-1.53-.6h.01s-1.49-.81-1.49-.81h.01s-1.45-1.01-1.45-1.01h0s-1.38-1.19-1.38-1.19h0s-1.31-1.35-1.31-1.35h0s-1.22-1.5-1.22-1.5h0s-2.14-3.38-2.14-3.38h0s-.89-1.84-.89-1.84h0s-.76-1.93-.76-1.93h0s-.61-1.99-.61-1.99h0s-.45-2.04-.45-2.04h0s-.28-2.07-.28-2.07h0s-.1-2.09-.1-2.09l-.07-1.06-.21-1.07-.83-2.11-1.34-2.07-1.8-2.01-2.23-1.94-2.63-1.86-2.98-1.76-3.31-1.64-3.59-1.51-3.85-1.36-4.06-1.2-4.24-1.02-4.38-.82-4.49-.61-4.56-.38-4.6-.13-4.6.17-4.57.5-4.49.8-4.39,1.09-4.24,1.35-4.06,1.59-3.85,1.81-3.59,2.01-3.31,2.18-2.98,2.34-2.63,2.47-2.23,2.58-1.8,2.67-1.33,2.74-.83,2.78-.21,1.41-.07,1.4h.25ZM350.05,55.83l3.21-1.02-2.74-1.96-.47,2.98Z"/>
  <path class="cls-6" d="M406.84,70.81h8.67v-1.7l3.39,3.39-3.39,3.39v-1.7h-8.67v-3.39Z"/>
  <rect class="cls-5" x="430.2" y="80.42" width="7.91" height="7.91"/>
  <rect class="cls-5" x="438.11" y="80.42" width="7.54" height="7.91"/>
  <rect class="cls-5" x="445.65" y="80.42" width="7.91" height="7.91"/>
  <rect class="cls-5" x="453.56" y="80.42" width="7.54" height="7.91"/>
  <rect class="cls-5" x="461.1" y="80.42" width="7.91" height="7.91"/>
  <rect class="cls-5" x="469.01" y="80.42" width="7.54" height="7.91"/>
  <rect class="cls-5" x="424.55" y="62.33" width="11.3" height="11.3"/>
  <g class="cls-15">
    <path class="cls-1" d="M428.82,70.33v-.37h1.24v-4.02l-1.11.73v-.39l1.15-.79h.38v4.47h1.05v.37h-2.72Z"/>
  </g>
  <rect class="cls-5" x="438.11" y="68.36" width="7.54" height="7.54"/>
  <rect class="cls-5" x="445.65" y="68.36" width="7.91" height="7.54"/>
  <rect class="cls-5" x="453.56" y="68.36" width="7.54" height="7.54"/>
  <rect class="cls-5" x="461.1" y="68.36" width="7.91" height="7.54"/>
  <rect class="cls-5" x="469.01" y="68.36" width="7.54" height="7.54"/>
  <g>
    <path class="cls-2" d="M157.94,64.15c-.34,0-.64.14-.9.43s-.46.7-.6,1.23c-.15.53-.22,1-.22,1.38,0,.36.08.63.23.8s.38.26.68.26c.32,0,.61-.15.86-.44s.45-.7.59-1.22.22-.98.22-1.38c0-.36-.07-.62-.21-.8s-.35-.27-.65-.27h0ZM181.51,64.14c-.34,0-.65.14-.92.41s-.48.64-.63,1.1-.23.92-.23,1.38c0,.34.05.6.14.77s.25.26.47.26.43-.09.64-.28.43-.46.65-.8.38-.75.47-1.21l.04-.21c.03-.14.05-.25.06-.35s.01-.21.01-.32c0-.25-.05-.44-.16-.56s-.29-.18-.55-.18h0ZM158.04,63.75c.53,0,.93.14,1.21.43s.42.7.42,1.24c0,.38-.07.79-.2,1.23s-.32.8-.55,1.1-.51.52-.83.67-.7.23-1.11.23c-.51,0-.91-.14-1.19-.43-.28-.29-.42-.7-.42-1.24,0-.26.04-.57.12-.92.1-.47.27-.88.52-1.23.24-.35.54-.62.89-.8s.74-.28,1.16-.28h0ZM152.9,63.75c.31,0,.59.02.84.05s.5.1.76.19l-.22,1.04h-.4c-.04-.29-.13-.52-.29-.67-.16-.15-.4-.23-.74-.23-.26,0-.47.07-.63.2-.16.13-.24.31-.24.53,0,.12.02.22.06.31s.12.19.25.3c.13.11.32.24.58.4.21.13.37.24.5.34.13.1.22.21.3.31.07.1.13.21.16.32.03.11.05.25.05.41,0,.29-.08.55-.24.76-.16.21-.37.37-.64.47-.27.1-.58.15-.92.15-.27,0-.54-.02-.81-.06-.26-.04-.56-.11-.88-.21l.24-1.08h.39c.01.32.1.56.27.72.17.16.43.24.79.24.31,0,.56-.07.74-.21.18-.14.26-.34.26-.6,0-.15-.02-.28-.07-.38-.05-.11-.13-.21-.24-.31-.11-.1-.29-.22-.53-.37-.26-.16-.46-.3-.6-.42s-.25-.26-.32-.41c-.07-.15-.11-.32-.11-.51,0-.26.07-.49.21-.69.14-.2.34-.35.6-.45.26-.11.56-.16.91-.16h0ZM185.97,63.75c.1,0,.19.01.27.03s.15.06.21.11.11.11.16.19.09.18.13.31.08.29.12.49.07.39.1.6h.05c.32-.45.56-.77.72-.98s.3-.36.41-.46.22-.17.32-.21.24-.06.41-.06c.16,0,.28.02.38.06l-.2.9h-.35c-.02-.14-.08-.21-.17-.21-.03,0-.06,0-.09.01s-.07.03-.12.06-.12.1-.21.19-.2.21-.31.35-.23.28-.36.44l-.34.42c.06.32.12.59.17.82s.1.42.14.58.08.27.11.36.07.16.1.2.07.08.11.09.08.03.13.03c.09,0,.18-.03.26-.1s.21-.23.36-.47l.32.21c-.23.34-.44.59-.63.73s-.41.21-.67.21c-.14,0-.26-.03-.36-.08s-.18-.13-.26-.25-.14-.29-.19-.52c-.1-.42-.17-.75-.19-.97h-.05c-.35.49-.61.85-.78,1.06s-.31.37-.42.48-.22.17-.32.22-.24.06-.41.06c-.16,0-.28-.02-.38-.06l.2-.9h.35c.02.14.08.21.17.21.05,0,.09-.01.15-.04s.12-.08.22-.18.23-.24.4-.44.41-.5.73-.91c-.05-.26-.1-.51-.15-.75s-.11-.47-.16-.67-.1-.34-.14-.41-.08-.11-.12-.13-.09-.04-.16-.04c-.07,0-.13.02-.19.05s-.12.09-.18.16-.15.2-.26.36l-.32-.21c.21-.31.41-.55.6-.7s.42-.23.68-.23h0ZM181.41,63.75c.21,0,.42.02.6.07s.38.13.58.26l.46-.33.32.08-.73,3.14c-.07.31-.11.56-.11.73,0,.13.02.23.06.29s.11.09.2.09c.1,0,.2-.04.32-.12s.27-.24.48-.46l.28.28c-.3.32-.55.54-.76.68s-.44.2-.68.2c-.2,0-.37-.07-.49-.2s-.18-.32-.18-.54c0-.18.04-.37.11-.58l-.06-.02c-.32.46-.62.8-.9,1.02s-.58.32-.9.32c-.36,0-.64-.14-.84-.41s-.3-.66-.3-1.15c0-.57.11-1.11.33-1.64s.53-.94.92-1.24.82-.45,1.3-.45h0ZM171.38,63.75c.21,0,.37.07.49.21s.18.32.18.54c0,.18-.04.37-.11.58l.06.02c.3-.45.61-.79.91-1.01s.6-.33.91-.33.56.09.72.27.25.44.25.78v.07s0,.05,0,.07c.28-.4.57-.7.85-.9s.58-.29.88-.29.54.09.7.26.25.42.25.74c0,.21-.05.5-.14.89l-.32,1.3c-.09.36-.13.61-.13.76,0,.13.02.23.06.29s.11.09.2.09c.1,0,.2-.04.32-.12s.27-.24.48-.46l.28.28c-.28.3-.53.52-.74.66s-.45.21-.72.21c-.21,0-.39-.08-.52-.23s-.19-.35-.19-.59c0-.21.05-.53.16-.95l.22-.86c.08-.31.13-.54.16-.69s.04-.27.04-.36c0-.23-.04-.39-.11-.49s-.2-.15-.37-.15c-.14,0-.29.05-.45.16s-.33.27-.5.49-.32.44-.43.65-.2.47-.26.78l-.45,2.16h-.86l.57-2.52c.07-.31.12-.53.14-.68s.04-.27.04-.38c0-.24-.04-.41-.13-.51s-.22-.15-.39-.15c-.13,0-.27.05-.43.16s-.33.27-.51.5-.32.45-.43.66-.19.47-.26.77l-.47,2.14h-.86l.72-3.14c.07-.32.11-.56.11-.73,0-.13-.02-.23-.06-.29s-.11-.09-.2-.09c-.1,0-.21.04-.32.13s-.27.24-.47.46l-.28-.28c.29-.3.54-.53.75-.67s.44-.21.69-.21h0ZM167.7,62.61h.68l-.27,1.22h1.51l-.11.5h-1.51l-.44,1.92c-.09.37-.14.64-.16.8-.02.16-.03.29-.03.39,0,.41.17.61.51.61.15,0,.3-.06.46-.17.16-.11.36-.3.58-.57l.29.3c-.29.35-.56.6-.83.77-.27.17-.54.25-.83.25-.69,0-1.04-.35-1.04-1.05,0-.22.03-.45.08-.7l.58-2.57h-.83l.07-.34c.19,0,.34-.02.44-.04.1-.03.18-.06.25-.11.07-.05.13-.11.19-.2.06-.09.11-.2.16-.33.05-.13.13-.37.24-.7h0ZM164.88,61.46c.32,0,.6.03.84.08l-.19.84h-.44c-.05-.19-.11-.32-.18-.41-.07-.08-.18-.12-.33-.12-.19,0-.35.05-.48.16-.13.1-.24.26-.33.46s-.18.48-.26.83l-.12.54h1.27l-.11.5h-1.28l-.92,4.32c-.15.72-.38,1.25-.7,1.6-.31.35-.71.53-1.18.53-.14,0-.25,0-.33-.02l.08-.44s.11.01.23.01c.15,0,.28-.04.38-.11.11-.08.2-.21.29-.4.09-.19.17-.45.25-.78l1.06-4.71h-.84l.07-.34c.22-.01.38-.03.48-.05s.17-.06.23-.1.1-.11.14-.18.09-.21.15-.41c.17-.59.44-1.04.81-1.34.36-.3.83-.45,1.39-.45h0Z"/>
    <path class="cls-2" d="M193.65,61.41l.13.38c-.77.25-1.34.75-1.72,1.49s-.56,1.66-.56,2.78.19,2.11.56,2.86.94,1.25,1.7,1.51l-.12.38c-.97-.25-1.71-.8-2.22-1.64s-.77-1.86-.77-3.05.26-2.21.78-3.05c.52-.84,1.26-1.39,2.22-1.65h0Z"/>
    <path class="cls-2" d="M198.1,54.46c-.36,0-.69.13-1,.38s-.58.62-.81,1.09-.41.99-.54,1.56-.19,1.06-.19,1.5c0,1.02.37,1.53,1.11,1.53.46,0,.88-.21,1.26-.64s.69-1.02.93-1.78.35-1.46.35-2.12c0-.49-.09-.87-.27-1.13s-.46-.39-.84-.39h0ZM201.39,54.1h2.09v.24c-.15.04-.25.07-.31.11s-.12.08-.15.14c-.04.05-.07.14-.08.25s-.03.28-.03.51v1.82s.14,0,.14,0c.13,0,.24-.02.34-.06s.22-.11.35-.22.33-.31.59-.61c.32-.35.53-.61.65-.77.15-.19.24-.35.29-.48.04-.1.06-.19.06-.28,0-.13-.04-.23-.11-.29s-.18-.1-.31-.11v-.24h2.16v.24c-.11.02-.21.06-.31.12s-.21.14-.31.24-.26.27-.47.5l-1.66,1.87,1.8,2.62c.19.28.34.47.45.58s.21.19.31.24.2.09.32.1v.24h-2.18v-.24c.12,0,.21-.03.27-.07s.08-.09.08-.16c0-.06-.02-.13-.06-.22s-.1-.19-.18-.3l-1.15-1.72c-.14-.2-.23-.34-.3-.41s-.13-.11-.2-.15-.17-.05-.29-.05h-.26v2.08c0,.22,0,.38.02.49s.04.18.07.24c.03.06.09.11.15.15s.18.08.33.12v.24h-2.09v-.24c.2-.05.34-.11.41-.18s.11-.16.14-.27.03-.3.03-.54v-4.28c0-.23,0-.39-.02-.5-.02-.1-.04-.18-.08-.24s-.09-.1-.15-.14-.17-.07-.32-.12v-.24ZM198.16,54.02c.64,0,1.13.18,1.47.55s.52.9.52,1.6c0,.46-.07.98-.22,1.55s-.35,1.08-.6,1.51-.55.79-.88,1.06-.7.45-1.09.55c.08.24.15.44.21.6s.13.28.19.38.12.17.18.22.12.08.18.1.13.02.21.02c.13,0,.25-.04.38-.11s.27-.2.43-.38l.26.28c-.26.29-.51.49-.74.61s-.46.18-.7.18c-.27,0-.5-.06-.67-.18s-.32-.32-.45-.58-.25-.62-.37-1.05c-.6-.03-1.05-.23-1.37-.59s-.47-.87-.47-1.54c0-.5.08-1.05.25-1.68s.41-1.17.72-1.65.69-.84,1.13-1.08.91-.37,1.43-.37h0Z"/>
    <path class="cls-2" d="M208.06,52.43h3.96l-.29,1.28h-.38v-.21s0-.08,0-.13c0-.05,0-.1-.02-.15,0-.05-.02-.1-.03-.14,0-.04-.02-.08-.03-.1-.02-.03-.03-.06-.05-.08-.02-.02-.04-.04-.07-.05-.03-.01-.06-.02-.1-.03-.04,0-.09,0-.15,0h-.58l-.75,3.31c-.03.11-.05.21-.06.29-.01.08-.02.15-.02.21,0,.05,0,.09.02.13s.03.06.07.09c.03.02.07.04.13.05.05.01.12.02.21.03l-.05.22h-1.61l.05-.22c.06-.01.11-.03.16-.04.04-.01.08-.03.11-.04.03-.02.06-.04.08-.07.02-.03.05-.07.07-.13.02-.05.04-.13.07-.21.02-.09.05-.19.08-.32l.73-3.28h-.5c-.08,0-.15,0-.2,0-.06,0-.11.02-.15.04-.05.02-.09.05-.13.09s-.08.09-.12.15-.09.14-.14.23c-.05.09-.11.2-.17.33h-.39l.27-1.23h0Z"/>
    <polygon class="cls-2" points="202.99 67.88 204.26 67.88 204.26 67.89 209.85 67.89 209.85 68.57 203.7 68.57 203.7 68.54 203.36 68.54 200.7 77.65 200.22 77.65 198.17 73.24 197.33 73.61 197.17 73.24 198.8 72.49 200.55 76.34 202.99 67.88 202.99 67.88"/>
    <path class="cls-2" d="M206.86,72.53c-.34,0-.64.14-.91.41s-.48.64-.63,1.1-.23.92-.23,1.38c0,.34.05.6.14.77s.25.26.47.26c.1,0,.21-.02.31-.07s.22-.12.33-.22.23-.22.34-.36.21-.28.3-.43.18-.31.26-.51.15-.43.2-.71l.04-.21c.05-.24.07-.46.07-.67,0-.26-.05-.44-.16-.56s-.29-.18-.54-.18h0ZM208.94,69.87h.29l-1.23,5.48c-.07.32-.11.57-.11.73,0,.13.02.23.06.29s.11.09.2.09c.1,0,.2-.04.32-.12s.27-.24.48-.46l.28.28c-.3.32-.56.55-.77.68s-.43.2-.67.2c-.2,0-.37-.07-.49-.2s-.18-.32-.18-.54c0-.18.04-.37.11-.58l-.06-.02c-.32.46-.62.8-.9,1.02s-.58.32-.9.32c-.36,0-.64-.14-.84-.41s-.3-.66-.3-1.15c0-.57.11-1.11.33-1.64s.53-.94.92-1.24.82-.45,1.3-.45c.2,0,.39.02.56.06s.34.11.52.22l.26-1.14c.03-.11.05-.23.07-.36s.03-.25.03-.35-.02-.17-.05-.23-.09-.09-.16-.11-.19-.04-.36-.05l.06-.26,1.24-.04h0Z"/>
    <polygon class="cls-2" points="193.96 65.32 203.39 65.32 212.82 65.32 212.82 66 203.39 66 193.96 66 193.96 65.32 193.96 65.32"/>
    <path class="cls-2" d="M213.15,61.41c.96.25,1.7.8,2.22,1.65.52.84.78,1.86.78,3.05s-.26,2.21-.77,3.05c-.52.84-1.26,1.39-2.22,1.64l-.12-.38c.76-.25,1.33-.76,1.7-1.51s.56-1.7.56-2.86-.18-2.04-.55-2.78-.94-1.23-1.72-1.49l.13-.38Z"/>
  </g>
  <g>
    <path class="cls-2" d="M32.55,14.29h1.88v.22c-.13.03-.23.07-.28.1s-.1.07-.14.12-.06.12-.08.22-.02.25-.02.46v1.64s.13,0,.13,0c.11,0,.22-.02.31-.05s.2-.1.32-.2.29-.28.53-.55c.29-.32.48-.55.59-.69.13-.17.22-.31.26-.43.04-.09.05-.17.05-.25,0-.12-.03-.21-.1-.26s-.16-.09-.28-.1v-.22h1.95v.22c-.1.02-.19.06-.28.11s-.19.12-.28.21-.24.24-.43.45l-1.5,1.69,1.63,2.37c.17.25.31.43.41.53s.19.17.28.22.18.08.29.09v.22h-1.97v-.22c.11,0,.19-.03.24-.06s.08-.08.08-.15c0-.05-.02-.12-.05-.19s-.09-.17-.16-.28l-1.04-1.55c-.12-.18-.21-.31-.27-.37s-.12-.1-.18-.13-.15-.04-.26-.04h-.24v1.87c0,.2,0,.35.02.44s.04.17.07.22.08.1.14.13.16.07.3.11v.22h-1.88v-.22c.18-.05.31-.1.37-.16s.1-.14.12-.25.03-.27.03-.49v-3.87c0-.21,0-.36-.02-.45s-.04-.17-.07-.22-.08-.09-.14-.13-.15-.07-.29-.11v-.22Z"/>
    <path class="cls-2" d="M40.45,19.26c-.12,0-.24.03-.36.09s-.23.14-.33.25c-.1.11-.2.24-.28.39-.09.15-.16.33-.21.52.28,0,.52-.02.72-.07.2-.04.36-.1.49-.17.13-.07.22-.16.28-.26s.09-.21.09-.32c0-.14-.03-.24-.1-.32-.07-.08-.17-.11-.3-.11h0ZM48.54,18.94c.16,0,.31,0,.44.03.14.02.28.04.42.08l-.18.8h-.39c0-.11-.01-.21-.02-.28-.01-.08-.04-.13-.07-.18-.03-.04-.07-.07-.12-.09-.05-.02-.11-.03-.19-.03-.12,0-.23.03-.34.08-.11.05-.21.13-.3.22s-.18.2-.25.33c-.08.12-.14.26-.2.4s-.1.29-.13.45c-.03.16-.04.31-.04.47,0,.23.05.41.14.53s.23.18.41.18c.1,0,.2,0,.29-.03.09-.02.17-.05.26-.09.08-.04.17-.1.26-.17.09-.07.19-.16.29-.26.04.04.08.09.12.13.04.04.08.09.12.13-.24.24-.47.43-.71.55-.24.12-.49.18-.76.18-.34,0-.6-.1-.78-.3s-.27-.48-.27-.85c0-.21.02-.4.07-.6s.11-.37.2-.54c.09-.17.19-.32.31-.46.12-.14.25-.26.4-.36.15-.1.31-.18.48-.23s.35-.08.54-.08h0ZM42.97,18.94c.16,0,.29.05.38.16.09.11.13.25.13.42,0,.04,0,.09-.01.14,0,.05-.02.09-.04.14l.05.02c.21-.29.42-.51.63-.65.21-.14.42-.22.64-.22.23,0,.4.06.52.19.11.12.17.3.17.52,0,.07,0,.16-.03.28s-.04.25-.08.39-.06.29-.1.44c-.03.15-.07.29-.1.41-.03.13-.06.24-.08.32-.02.09-.03.15-.03.17,0,.08.02.14.05.18.03.04.08.06.15.06.04,0,.08,0,.12-.02.04-.02.08-.04.13-.07s.09-.07.14-.13.11-.11.18-.19l.23.22c-.11.11-.21.2-.3.28-.09.08-.18.14-.26.2s-.17.09-.25.11-.17.04-.27.04c-.08,0-.15-.02-.22-.05s-.12-.07-.17-.13c-.05-.05-.09-.12-.11-.19-.03-.07-.04-.15-.04-.24s0-.19.03-.31c.02-.12.05-.25.08-.39.04-.14.08-.28.11-.41.03-.13.06-.25.09-.36.03-.11.04-.21.06-.3.01-.09.02-.16.02-.21,0-.14-.03-.24-.08-.3-.05-.06-.13-.1-.25-.1-.07,0-.14.02-.21.05-.08.03-.15.08-.23.14s-.15.13-.22.21-.14.17-.2.26-.12.19-.16.29c-.05.1-.08.2-.1.3l-.37,1.65h-.64l.49-2.14c.03-.11.05-.22.06-.3s.02-.16.02-.22c0-.16-.06-.24-.19-.24-.04,0-.08,0-.12.02-.04.02-.08.04-.13.07-.04.03-.09.07-.15.12-.05.05-.11.11-.18.18l-.23-.21c.11-.11.21-.21.3-.29.09-.08.18-.15.26-.2.08-.05.16-.09.24-.11.08-.02.17-.04.26-.04h0ZM40.59,18.94c.28,0,.49.06.64.18.15.12.22.3.22.52,0,.79-.75,1.19-2.25,1.19-.01.06-.02.12-.03.19s0,.14,0,.22c0,.24.05.41.15.52s.25.16.45.16c.11,0,.21-.01.3-.03s.19-.06.28-.11.19-.11.28-.19c.09-.08.19-.17.3-.27l.25.27c-.25.25-.51.44-.76.57-.25.13-.52.19-.81.19-.17,0-.32-.03-.45-.08-.13-.05-.24-.13-.33-.22s-.16-.22-.21-.36c-.05-.14-.07-.3-.07-.48,0-.12.01-.25.03-.39s.06-.27.1-.4c.05-.13.1-.27.17-.39.07-.13.15-.25.24-.36.18-.23.4-.41.66-.53s.54-.19.85-.19h0Z"/>
    <path class="cls-2" d="M38.58,12.78h3.58l-.27,1.16h-.34v-.19s0-.07,0-.12c0-.04,0-.09-.01-.13,0-.04-.01-.09-.02-.12,0-.04-.02-.07-.03-.09-.02-.03-.03-.06-.05-.08-.02-.02-.04-.04-.06-.05-.03-.01-.06-.02-.09-.02-.03,0-.08,0-.13,0h-.53l-.68,2.99c-.02.1-.04.19-.05.26,0,.07-.01.13-.01.19,0,.04,0,.08.02.11s.03.06.06.08c.03.02.07.04.11.05.05.01.11.02.19.02l-.05.2h-1.45l.04-.2c.05-.01.1-.02.14-.03.04,0,.07-.02.1-.04s.05-.04.07-.07c.02-.03.04-.07.06-.12.02-.05.04-.11.06-.19.02-.08.04-.18.07-.29l.66-2.96h-.45c-.07,0-.13,0-.18,0-.05,0-.1.02-.14.03-.04.02-.08.04-.12.08s-.07.08-.11.13-.08.13-.12.21-.1.18-.16.3h-.35l.25-1.11h0Z"/>
    <path class="cls-2" d="M59.11,14h.26l-.88,3.9h.14c.22,0,.47-.1.75-.29s.5-.38.67-.54.25-.33.25-.48c0-.15-.1-.23-.3-.25l.05-.22h1.45l.08.22c-.25.22-.51.44-.79.66l-1.11.86.44,1.61c.04.14.07.24.1.3s.06.11.1.14.09.04.15.04c.08,0,.17-.04.28-.13s.23-.2.37-.36l.25.25c-.27.28-.49.48-.67.59s-.35.17-.51.17c-.2,0-.36-.06-.48-.17s-.21-.31-.28-.57l-.3-1.16c-.03-.12-.06-.2-.09-.24s-.06-.07-.1-.09-.11-.02-.21-.02h-.31l-.47,2.19h-.77l1.15-5.11c.04-.17.07-.31.08-.4s.02-.18.02-.26c0-.13-.04-.21-.11-.26s-.21-.08-.41-.08l.05-.23,1.13-.04h0Z"/>
    <path class="cls-2" d="M63.88,18.06h.2c0,.12,0,.23,0,.32,0,.1,0,.19,0,.28,0,.09,0,.18,0,.27v2.49c0,.07,0,.13,0,.18,0,.05.01.09.02.12,0,.03.02.06.04.09s.04.04.06.06c.03.03.06.05.1.06s.1.03.17.04c.07,0,.15.02.24.02s.21,0,.34.01v.29h-2.6v-.29c.13,0,.24,0,.33-.01.09,0,.17-.01.23-.02.06,0,.11-.02.15-.03.04-.01.07-.03.1-.04.03-.02.06-.04.08-.06.02-.02.04-.05.05-.09.01-.04.02-.08.03-.13,0-.05.01-.11.01-.19v-2.35c0-.09-.02-.15-.05-.18s-.08-.05-.14-.05c-.07,0-.17.04-.3.1-.13.07-.31.17-.52.31-.03-.05-.05-.1-.08-.15-.02-.05-.05-.1-.08-.15.27-.15.54-.3.81-.44s.54-.29.81-.44h0Z"/>
    <path class="cls-2" d="M91.63,14h.26l-.88,3.9h.14c.22,0,.47-.1.75-.29s.5-.38.67-.54.25-.33.25-.48c0-.15-.1-.23-.3-.25l.05-.22h1.45l.08.22c-.25.22-.51.44-.79.66l-1.11.86.44,1.61c.04.14.07.24.1.3s.06.11.1.14.09.04.15.04c.08,0,.17-.04.28-.13s.23-.2.37-.36l.25.25c-.27.28-.49.48-.67.59s-.35.17-.51.17c-.2,0-.36-.06-.48-.17s-.21-.31-.28-.57l-.3-1.16c-.03-.12-.06-.2-.09-.24s-.06-.07-.1-.09-.11-.02-.21-.02h-.31l-.47,2.19h-.77l1.15-5.11c.04-.17.07-.31.08-.4s.02-.18.02-.26c0-.13-.04-.21-.11-.26s-.21-.08-.41-.08l.05-.23,1.13-.04h0Z"/>
    <path class="cls-2" d="M96.33,18.04c.23,0,.42.03.58.08.16.05.29.12.39.21.1.09.17.19.22.31.04.12.07.25.07.4,0,.09,0,.16-.02.24s-.03.15-.06.22c-.03.07-.07.14-.12.21-.05.07-.11.15-.18.23-.05.07-.13.15-.21.24-.09.09-.18.19-.29.3-.1.1-.21.21-.33.33-.11.11-.22.23-.33.34-.11.11-.21.22-.3.32-.09.1-.16.2-.22.29h1.21c.1,0,.18,0,.25-.01.06,0,.11-.02.15-.05.04-.03.07-.07.1-.12.03-.05.06-.13.1-.22h.3c-.01.16-.02.31-.03.47,0,.16-.02.31-.03.47h-2.78v-.17c.05-.12.11-.23.18-.35s.15-.23.24-.35.19-.24.3-.37.24-.26.37-.39c.21-.21.37-.38.5-.53.13-.15.23-.27.3-.39.07-.11.13-.22.15-.31s.04-.2.04-.31-.02-.21-.05-.31c-.03-.09-.08-.17-.14-.24s-.13-.12-.22-.15c-.09-.04-.2-.06-.31-.06-.2,0-.37.06-.51.17-.14.11-.24.27-.32.48h-.43v-.64c.28-.12.54-.2.77-.25s.45-.08.63-.08h0Z"/>
    <path class="cls-2" d="M125.53,14h.26l-.88,3.9h.14c.22,0,.47-.1.75-.29s.5-.38.67-.54.25-.33.25-.48c0-.15-.1-.23-.3-.25l.05-.22h1.45l.08.22c-.25.22-.51.44-.79.66l-1.11.86.44,1.61c.04.14.07.24.1.3s.06.11.1.14.09.04.15.04c.08,0,.17-.04.28-.13s.23-.2.37-.36l.25.25c-.27.28-.49.48-.67.59s-.35.17-.51.17c-.2,0-.36-.06-.48-.17s-.21-.31-.28-.57l-.3-1.16c-.03-.12-.06-.2-.09-.24s-.06-.07-.1-.09-.11-.02-.21-.02h-.31l-.47,2.19h-.77l1.15-5.11c.04-.17.07-.31.08-.4s.02-.18.02-.26c0-.13-.04-.21-.11-.26s-.21-.08-.41-.08l.05-.23,1.13-.04h0Z"/>
    <path class="cls-2" d="M130.22,18.04c.17,0,.34.02.49.06.15.04.28.09.4.17.11.08.2.17.26.28.06.11.09.24.09.39,0,.14-.02.26-.06.37-.04.11-.1.2-.18.29s-.18.17-.3.24-.26.14-.41.2v.04c.15.03.28.07.41.13s.24.13.33.22c.1.09.17.19.22.31.05.12.08.24.08.38,0,.17-.03.34-.1.49s-.16.28-.3.39-.29.19-.49.26c-.19.06-.42.09-.68.09-.2,0-.41-.02-.62-.06-.21-.04-.41-.09-.6-.16v-.71h.42c.03.11.08.2.12.28.05.08.1.14.17.19s.14.08.22.11c.08.02.18.03.29.03.28,0,.5-.07.64-.2.15-.13.22-.34.22-.61,0-.29-.1-.51-.29-.66-.19-.15-.47-.22-.85-.22h-.29v-.31c.23-.01.43-.04.6-.1.17-.05.31-.12.42-.21.11-.09.19-.18.25-.3.05-.11.08-.24.08-.36,0-.21-.06-.38-.19-.5-.12-.12-.3-.18-.54-.18-.2,0-.37.05-.5.16-.13.11-.24.27-.31.49h-.42v-.65c.26-.11.5-.19.73-.25.23-.06.45-.08.66-.08h0Z"/>
    <path class="cls-1" d="M59.52,29.45v-1.19c-.31.05-.74.11-1.27.18-.13-.26-.25-.45-.37-.57.19.02.37.03.56.03.77,0,1.58-.17,2.43-.51l.3.44s.05.08.05.1c0,0,0,.02-.01.02s-.02.01-.05.01-.06,0-.09,0c-.04,0-.08-.01-.12-.01-.04,0-.07,0-.1.01-.29.08-.58.15-.87.21v1.28h1.8c-.08-1.11-.13-1.92-.16-2.44l.73.17c.05.01.08.03.08.05,0,.02-.02.04-.06.07-.12.1-.19.28-.19.54,0,.61.03,1.15.07,1.61h1.99c.13,0,.29-.01.5-.05v.5c-.23-.04-.4-.06-.51-.05h-1.95c.07.83.21,1.54.42,2.13.4-.55.67-1.16.82-1.82l.6.34s.07.05.06.06c0,.02-.03.05-.1.08-.11.06-.2.16-.27.32-.24.51-.54,1.02-.9,1.53.36.84.75,1.31,1.17,1.4.19.03.31-.24.36-.81.16.12.33.21.5.28-.2.76-.43,1.14-.71,1.14-.03,0-.05,0-.06,0-.53-.05-1.07-.58-1.6-1.58-.49.49-1.05.97-1.71,1.42-.19-.13-.39-.24-.63-.32.77-.29,1.48-.83,2.12-1.6-.26-.53-.45-1.39-.56-2.57h-1.83v1.47c.51-.18.93-.36,1.27-.54v.52c-.51.19-.94.35-1.27.49v1.9c.01.33-.08.54-.26.64-.17.11-.55.18-1.14.21,0-.21-.05-.42-.15-.63.33.05.56.08.71.08.09,0,.15,0,.19-.02.13-.03.19-.15.18-.38v-1.61c-.65.22-1.14.44-1.48.64l-.37-.54c.62-.12,1.23-.32,1.84-.58v-1.64h-1.28c-.16,0-.37.01-.63.05v-.5c.23.04.43.05.62.05h1.29ZM62.64,27.8l.35-.32c.41.34.83.72,1.26,1.15l-.37.37c-.44-.49-.85-.89-1.24-1.21Z"/>
    <path class="cls-1" d="M90.38,33.33c1.15-.56,2.03-1.46,2.62-2.71h-1.18c-.17,0-.4.02-.67.05v-.5c.34.03.57.05.68.05h1.32c.1-.26.18-.55.23-.88l.58.15c.08.02.12.04.12.08,0,.03-.02.06-.09.09-.07.03-.12.09-.15.17-.05.12-.11.25-.17.4h2.31c.2,0,.45-.02.76-.05v.5c-.29-.03-.55-.05-.76-.05h-2.47c-.13.25-.25.5-.37.72h2.34c.2,0,.48-.02.84-.05-.36.55-.82,1.08-1.39,1.57.75.28,1.58.42,2.5.42-.19.15-.31.33-.36.54-.98-.16-1.81-.39-2.49-.67-.56.36-1.34.68-2.34.96-.11-.17-.25-.34-.41-.51.89-.07,1.65-.29,2.29-.67-.42-.23-.79-.48-1.11-.77l.31-.27c.31.28.69.53,1.16.75.32-.25.64-.56.96-.92h-2.54c-.55.76-1.23,1.42-2.06,1.99-.11-.15-.27-.28-.47-.41ZM90.63,28.76c.28.03.52.05.71.05h.93c-.18-.26-.41-.52-.68-.79l.33-.29c.28.28.52.54.72.78l-.33.29h1.81c-.24-.35-.51-.65-.8-.9l.33-.31c.31.29.59.59.84.89l-.33.32h.95c.43-.58.72-1.05.87-1.39l.57.26s.07.04.07.06c-.01.02-.04.04-.09.06-.15.03-.26.11-.34.22-.21.26-.42.52-.63.79h1.01c.17,0,.37-.02.6-.05-.03.3-.05.52-.05.66v.19c0,.1,0,.25.05.46h-.54c.03-.18.05-.34.05-.47v-.39h-5.57v.4c0,.11.02.28.05.5h-.54c.03-.21.05-.38.05-.5v-.23c0-.17-.02-.38-.05-.63ZM96.27,26.65l.36.44s.04.06.04.08c0,0,0,0,0,.01,0,.02-.04.02-.1.02-.16,0-.41.02-.75.06-1.39.17-2.9.3-4.52.38-.07-.21-.14-.39-.23-.55.35.04.76.06,1.22.06.49,0,1.03-.02,1.63-.07,1.09-.1,1.88-.25,2.36-.44Z"/>
    <path class="cls-1" d="M123.94,29.51c.83-.7,1.42-1.81,1.8-3.33l.59.23c.09.04.13.06.12.08.01.02-.02.04-.09.08-.09.04-.17.17-.25.37-.17.42-.31.75-.42.98v5c0,.24.02.51.05.8h-.55c.03-.28.05-.55.05-.8v-4.1c-.24.41-.46.74-.63.99-.19-.11-.41-.21-.66-.3ZM126.06,32.44c.64-.49,1.13-1.29,1.48-2.4l.63.3c.05.03.07.06.07.08,0,.03-.05.05-.11.06-.1.04-.2.16-.3.35-.28.63-.67,1.29-1.15,1.95-.19-.13-.39-.25-.62-.34ZM127.77,26.07l.68.19c.07.02.09.04.09.05,0,.02-.03.04-.09.09-.09.04-.16.15-.22.33-.1.3-.22.62-.36.95h2.66c.24,0,.48-.02.73-.05-.11.47-.3,1.03-.56,1.67-.21-.05-.41-.08-.62-.09.2-.34.37-.71.48-1.11h-2.88c-.28.56-.58,1.07-.92,1.51-.21-.1-.44-.17-.69-.21.88-.74,1.45-1.84,1.71-3.31ZM127.81,33.7c-.02-.24-.08-.48-.16-.71.32.08.56.12.73.12.06,0,.11,0,.14-.02.13-.03.19-.16.18-.4v-3.14c0-.23-.02-.5-.05-.8l.61.08c.06,0,.09.02.09.03,0,.02-.02.04-.06.09-.09.07-.13.27-.13.59v3.3c.01.38-.06.6-.21.67-.13.1-.51.16-1.13.17ZM130.1,30.12c.53.7,1.01,1.39,1.46,2.09l-.49.37c-.44-.77-.92-1.48-1.43-2.12l.46-.33Z"/>
    <path class="cls-2" d="M16.53,33.68c-.32,0-.62.11-.9.34s-.52.56-.73.98-.37.89-.49,1.4-.17.96-.17,1.35c0,.92.34,1.38,1.01,1.38.41,0,.79-.19,1.14-.58s.62-.92.84-1.6.32-1.32.32-1.91c0-.44-.08-.78-.25-1.02s-.42-.35-.76-.35h0ZM16.58,33.29c.58,0,1.02.17,1.33.5s.47.82.47,1.45c0,.42-.07.88-.2,1.4s-.31.97-.54,1.37-.5.71-.8.95-.63.41-.99.5c.07.22.13.4.19.54s.12.26.17.34.11.15.16.2.11.07.16.09.12.02.19.02c.11,0,.23-.03.34-.1s.25-.18.39-.34l.23.25c-.24.26-.46.44-.67.55s-.42.16-.63.16c-.25,0-.45-.06-.61-.17s-.29-.29-.41-.53-.23-.56-.33-.95c-.54-.03-.95-.21-1.23-.54s-.42-.79-.42-1.39c0-.45.08-.95.23-1.52s.37-1.06.65-1.49.62-.76,1.02-.98.83-.33,1.29-.33h0Z"/>
    <path class="cls-2" d="M25.26,38.34c-.12,0-.24.03-.36.09-.12.06-.23.14-.33.25-.1.11-.2.24-.28.39-.09.15-.16.33-.21.52.28,0,.52-.02.72-.07.2-.04.36-.1.49-.17.13-.07.22-.16.28-.26s.09-.21.09-.32c0-.14-.03-.24-.1-.32-.07-.08-.17-.11-.3-.11h0ZM20.96,38.34c-.13,0-.25.03-.36.08-.11.06-.21.13-.3.23-.09.1-.17.21-.25.34-.07.13-.13.26-.18.41s-.09.29-.11.45c-.03.15-.04.3-.04.44,0,.24.03.41.1.53.07.11.17.17.32.17.1,0,.21-.03.33-.1.12-.07.24-.17.36-.29.11-.13.22-.28.32-.47.1-.18.17-.39.22-.62.02-.12.05-.24.07-.35s.03-.23.03-.32c0-.18-.04-.3-.12-.38-.08-.07-.21-.11-.38-.11h0ZM29.01,38.01c.16,0,.31,0,.44.03.14.02.28.04.42.08l-.18.8h-.39c0-.11-.01-.21-.02-.28-.01-.08-.04-.13-.07-.18s-.07-.07-.12-.09-.11-.03-.19-.03c-.12,0-.23.03-.34.08-.11.05-.21.13-.3.22-.09.09-.18.2-.25.33-.08.12-.14.26-.2.4-.05.14-.1.29-.13.45-.03.16-.04.31-.04.47,0,.23.05.41.14.53s.23.18.41.18c.1,0,.2,0,.29-.03.09-.02.17-.05.26-.09s.17-.1.26-.17c.09-.07.19-.16.29-.26.04.04.08.09.12.13s.08.09.12.13c-.24.24-.47.43-.71.55-.24.12-.49.18-.76.18-.34,0-.6-.1-.78-.3s-.27-.48-.27-.85c0-.21.02-.4.07-.6.05-.19.11-.37.2-.54.09-.17.19-.32.31-.46.12-.14.25-.26.4-.36.15-.1.31-.18.48-.23.17-.05.35-.08.54-.08h0ZM25.4,38.01c.28,0,.49.06.64.18.15.12.22.3.22.52,0,.79-.75,1.19-2.25,1.19-.01.06-.02.12-.03.19s0,.14,0,.22c0,.24.05.41.15.52.1.11.25.16.45.16.11,0,.21-.01.3-.03.1-.02.19-.06.28-.11s.19-.11.28-.19c.09-.08.19-.17.3-.27l.25.27c-.25.25-.51.44-.76.57-.25.13-.52.19-.81.19-.17,0-.32-.03-.45-.08-.13-.05-.24-.13-.33-.22-.09-.1-.16-.22-.21-.36-.05-.14-.07-.3-.07-.48,0-.12.01-.25.03-.39s.06-.27.1-.4c.05-.13.1-.27.17-.39.07-.13.15-.25.24-.36.18-.23.4-.41.66-.53s.54-.19.85-.19h0ZM22.4,36.88h.17l-.76,3.34c-.03.13-.05.23-.06.31,0,.08-.01.15-.01.21,0,.08.02.14.05.18.03.04.08.06.15.06.04,0,.08,0,.12-.02.04-.02.08-.04.12-.07.04-.03.09-.07.15-.13.05-.05.11-.11.18-.19.03.04.07.07.11.11.04.04.07.07.11.11-.11.11-.21.21-.3.29s-.18.15-.26.2c-.08.05-.17.09-.25.11-.08.02-.17.03-.25.03-.16,0-.28-.05-.37-.15s-.13-.24-.13-.42c0-.1.02-.19.05-.28l-.05-.02c-.11.16-.22.29-.32.4-.1.11-.21.2-.31.27-.1.07-.21.12-.31.16-.1.03-.21.05-.33.05-.26,0-.46-.09-.6-.28s-.21-.46-.21-.81c0-.21.02-.42.07-.61.04-.2.11-.38.19-.55.08-.17.18-.33.29-.47.11-.14.24-.26.37-.36.14-.1.28-.18.43-.23.15-.06.31-.08.48-.08.14,0,.28.01.4.04.12.03.24.09.34.17.04-.14.07-.26.09-.35.02-.1.04-.19.05-.27s.02-.15.02-.2c0-.05,0-.08-.02-.11-.01-.03-.03-.06-.06-.08s-.07-.03-.13-.04c-.06,0-.13-.02-.21-.02l.04-.22.98-.04h0Z"/>
    <path class="cls-2" d="M16.87,60.88c-.3,0-.58.12-.82.37s-.43.58-.57.99-.21.83-.21,1.25c0,.31.04.54.13.7s.23.23.43.23c.09,0,.19-.02.28-.06s.19-.11.3-.19.2-.2.3-.33.19-.26.28-.39.16-.28.23-.46.13-.39.18-.64l.04-.19c.04-.21.07-.42.07-.61,0-.23-.05-.4-.15-.51s-.26-.16-.49-.16h0ZM16.78,60.53c.18,0,.36.02.53.06s.34.12.52.23l.41-.3.29.07-1.14,5.08c-.05.23-.08.4-.08.51,0,.13.03.22.1.28s.2.09.4.11l-.04.22h-1.4l.77-2.93-.06-.03c-.26.36-.52.63-.78.82s-.53.28-.78.28c-.33,0-.58-.12-.76-.37s-.27-.59-.27-1.04c0-.51.1-1.01.3-1.48s.48-.85.83-1.12.74-.41,1.18-.41h0Z"/>
    <path class="cls-2" d="M20.8,62.55h.2c0,.12,0,.23,0,.32,0,.1,0,.19,0,.28s0,.18,0,.27v2.49c0,.07,0,.13,0,.18,0,.05.01.09.02.12,0,.03.02.06.04.09s.04.04.06.06c.03.03.06.05.1.06s.1.03.17.04.15.02.24.02c.1,0,.21,0,.34.01v.29h-2.6v-.29c.13,0,.24,0,.33-.01.09,0,.17-.01.23-.02.06,0,.11-.02.15-.03.04-.01.07-.03.1-.04.03-.02.06-.04.08-.06.02-.02.04-.05.05-.09.01-.04.02-.08.03-.13,0-.05.01-.11.01-.19v-2.35c0-.09-.02-.15-.05-.18s-.08-.05-.14-.05c-.07,0-.17.04-.3.1-.13.07-.31.17-.52.31-.03-.05-.05-.1-.08-.15-.02-.05-.05-.1-.08-.15.27-.15.54-.3.81-.44s.54-.29.81-.44h0Z"/>
    <path class="cls-2" d="M16.74,89.7c-.3,0-.58.12-.82.37s-.43.58-.57.99-.21.83-.21,1.25c0,.31.04.54.13.7s.23.23.43.23c.09,0,.19-.02.28-.06s.19-.11.3-.19.2-.2.3-.33.19-.26.28-.39.16-.28.23-.46.13-.39.18-.64l.04-.19c.04-.21.07-.42.07-.61,0-.23-.05-.4-.15-.51s-.26-.16-.49-.16h0ZM16.66,89.35c.18,0,.36.02.53.06s.34.12.52.23l.41-.3.29.07-1.14,5.08c-.05.23-.08.4-.08.51,0,.13.03.22.1.28s.2.09.4.11l-.04.22h-1.4l.77-2.93-.06-.03c-.26.36-.52.63-.78.82s-.53.28-.78.28c-.33,0-.58-.12-.76-.37s-.27-.59-.27-1.04c0-.51.1-1.01.3-1.48s.48-.85.83-1.12.74-.41,1.18-.41h0Z"/>
    <path class="cls-2" d="M20.61,91.34c.23,0,.42.03.58.08s.29.12.39.21c.1.09.17.19.22.31.04.12.07.25.07.4,0,.09,0,.16-.02.24-.01.07-.03.15-.06.22-.03.07-.07.14-.12.21-.05.07-.11.15-.18.23-.05.07-.13.15-.21.24-.09.09-.18.19-.29.3-.1.1-.21.21-.33.33-.11.11-.22.23-.33.34-.11.11-.21.22-.3.32-.09.1-.16.2-.22.29h1.21c.1,0,.18,0,.25-.01s.11-.02.15-.05c.04-.03.07-.07.1-.12.03-.05.06-.13.1-.22h.3c-.01.16-.02.31-.03.47,0,.16-.02.31-.03.47h-2.78v-.17c.05-.12.11-.23.18-.35.07-.11.15-.23.24-.35s.19-.24.3-.37.24-.26.37-.39c.21-.21.37-.38.5-.53s.23-.27.3-.39c.07-.11.13-.22.15-.31s.04-.2.04-.31-.02-.21-.05-.31c-.03-.09-.08-.17-.14-.24-.06-.07-.13-.12-.22-.15-.09-.04-.2-.06-.31-.06-.2,0-.37.06-.51.17-.14.11-.24.27-.32.48h-.43v-.64c.28-.12.54-.2.77-.25s.45-.08.63-.08h0Z"/>
    <path class="cls-1" d="M29.27,64.78v-5.59h.53v5.59h-.53Z"/>
    <g>
      <path class="cls-1" d="M29.19,93.59v-5.77h.5v5.77h-.5Z"/>
      <path class="cls-1" d="M34.62,91.57c0,.66-.17,1.17-.51,1.54-.34.37-.82.56-1.44.56s-1.06-.19-1.4-.57c-.34-.38-.51-.89-.51-1.54s.17-1.17.51-1.54c.34-.37.82-.55,1.43-.55s1.11.18,1.44.54c.33.36.49.88.49,1.56ZM34.1,91.57c0-.55-.12-.97-.35-1.25-.23-.28-.58-.42-1.04-.42s-.82.14-1.07.43c-.24.29-.36.7-.36,1.25s.12.95.36,1.24.58.44,1.02.44c.48,0,.83-.14,1.07-.43.24-.29.36-.7.36-1.26Z"/>
      <path class="cls-1" d="M37.17,93.59h-.59l-1.55-4.04h.54l1.03,2.81c.14.39.23.67.27.83.04-.14.09-.28.14-.41.05-.14.1-.27.15-.41l1.07-2.81h.53l-1.59,4.04Z"/>
    </g>
    <path class="cls-1" d="M39.71,91.65c0,.5.11.9.33,1.18.22.28.53.42.93.42.27,0,.5-.05.69-.17.19-.11.36-.29.5-.55l.4.22c-.18.33-.41.57-.67.71-.26.14-.57.21-.93.21-.57,0-1.01-.18-1.32-.55-.31-.37-.46-.89-.46-1.58,0-.44.07-.82.22-1.13.15-.31.35-.54.62-.7s.58-.24.93-.24c.55,0,.97.18,1.26.53s.44.86.44,1.51v.13h-2.94ZM40.94,89.89c-.37,0-.66.12-.87.35s-.32.57-.34,1.02h2.4c-.05-.91-.44-1.37-1.19-1.37Z"/>
  </g>
  <path class="cls-2" d="M365.24,98.84h2.19l-.06.26c-.16.02-.28.06-.36.14s-.15.18-.18.31-.05.31-.05.53c0,.05,0,.21.02.48l.15,3.88v.42h.05l2.29-4.14c.13-.24.23-.45.3-.63s.1-.33.1-.46c0-.3-.18-.47-.53-.53l.06-.26h2.17l-.06.26c-.1.01-.19.05-.27.11s-.18.16-.29.29-.27.4-.5.79l-3.39,5.87h-.7l-.35-5.91c-.01-.23-.04-.43-.08-.59s-.1-.29-.17-.38-.21-.15-.38-.17l.06-.26Z"/>
  <path class="cls-2" d="M371.71,104.74c-.14,0-.28.03-.42.1-.14.07-.27.17-.39.3-.12.13-.23.28-.34.47-.1.18-.19.39-.25.61.33,0,.61-.03.85-.08.24-.05.43-.12.58-.2.15-.09.26-.19.33-.3.07-.12.11-.24.11-.38,0-.16-.04-.29-.12-.38-.08-.09-.2-.14-.35-.14h0ZM381.29,104.35c.19,0,.36.01.53.03s.33.05.5.1l-.22.95h-.46c0-.13-.01-.25-.03-.34s-.04-.16-.08-.21-.09-.09-.15-.11-.14-.03-.22-.04c-.14,0-.27.03-.4.09-.13.06-.25.15-.36.26-.11.11-.21.24-.3.39-.09.15-.17.31-.23.48-.06.17-.11.35-.15.53-.03.19-.05.37-.05.55,0,.27.05.48.16.63.11.14.27.22.49.22.12,0,.23-.01.34-.03.1-.02.2-.06.3-.11s.2-.12.3-.2c.1-.08.22-.19.35-.31.05.05.1.1.14.15s.09.1.14.15c-.28.29-.56.51-.84.65-.28.14-.58.21-.9.21-.4,0-.71-.12-.92-.35s-.32-.57-.32-1c0-.24.03-.48.08-.7.05-.23.13-.44.23-.64s.22-.38.37-.54c.14-.16.3-.3.48-.42.18-.12.37-.21.57-.27.2-.06.42-.1.64-.1h0ZM374.7,104.35c.19,0,.34.06.44.19s.16.29.16.5c0,.05,0,.11-.01.16,0,.06-.03.11-.05.16l.05.02c.25-.34.5-.6.74-.77s.5-.26.76-.26c.27,0,.48.07.62.22.14.15.2.35.2.62,0,.08-.01.19-.03.33s-.05.3-.09.47-.08.34-.12.52c-.04.18-.08.34-.12.49s-.07.28-.09.38c-.02.11-.03.17-.03.2,0,.1.02.17.05.21.04.04.09.07.17.07.05,0,.1,0,.15-.03.05-.02.1-.05.15-.09s.11-.09.17-.15c.06-.06.13-.13.21-.22l.27.26c-.13.13-.24.24-.35.33-.11.09-.21.17-.31.23-.1.06-.2.11-.3.14-.1.03-.2.04-.31.04-.09,0-.18-.02-.26-.05-.08-.04-.15-.09-.2-.15-.06-.06-.1-.14-.13-.23s-.05-.18-.05-.29.01-.22.03-.36c.02-.14.06-.29.1-.46.05-.17.09-.33.13-.48.04-.15.08-.3.1-.43.03-.13.05-.25.07-.35.02-.1.03-.19.03-.25,0-.16-.03-.28-.09-.35-.06-.08-.16-.11-.29-.11-.08,0-.16.02-.25.06-.09.04-.18.1-.27.17-.09.07-.18.16-.27.25-.09.1-.17.2-.24.31-.07.11-.14.23-.19.35-.06.12-.1.24-.12.36l-.44,1.95h-.76l.58-2.53c.03-.13.06-.26.07-.36s.02-.19.02-.26c0-.19-.08-.28-.23-.28-.05,0-.09,0-.14.03-.05.02-.1.05-.15.09-.05.04-.11.09-.17.15-.06.06-.13.13-.21.21l-.27-.25c.13-.13.25-.25.36-.34.11-.09.21-.17.31-.23.1-.06.19-.11.29-.13.1-.03.2-.04.3-.04h0ZM371.88,104.35c.33,0,.58.07.76.22.17.15.26.35.26.62,0,.94-.89,1.41-2.66,1.41-.01.07-.02.14-.03.22,0,.08-.01.17-.01.26,0,.28.06.49.17.62.12.13.29.19.54.19.13,0,.25-.01.36-.04.11-.03.23-.07.34-.13s.22-.13.33-.22c.11-.09.23-.2.35-.32l.29.31c-.3.3-.6.52-.9.67s-.62.23-.97.23c-.2,0-.38-.03-.54-.09-.16-.06-.29-.15-.4-.27s-.19-.26-.24-.43c-.06-.17-.08-.36-.08-.57,0-.15.01-.3.04-.46s.07-.32.12-.48c.05-.16.12-.31.2-.47.08-.15.17-.29.28-.43.22-.27.48-.48.79-.63s.64-.23,1-.23h0Z"/>
  <path class="cls-2" d="M462.51,98.73c-.36,0-.7.18-1.03.54s-.58.85-.76,1.46c.5,0,.93-.05,1.28-.14s.63-.22.82-.41.29-.44.29-.77c0-.22-.05-.38-.15-.51s-.25-.18-.45-.18h0ZM467.42,98.32c.33,0,.63.02.9.06s.54.11.81.2l-.24,1.11h-.43c-.04-.31-.14-.55-.31-.72s-.43-.24-.79-.24c-.28,0-.5.07-.68.21s-.26.33-.26.56c0,.13.02.24.07.34s.13.2.27.32.34.26.62.43c.22.13.4.26.53.37s.24.22.32.33.13.23.17.35.05.27.05.44c0,.31-.08.58-.25.81s-.4.39-.68.5-.62.16-.98.16c-.29,0-.58-.02-.86-.07s-.6-.12-.94-.23l.25-1.15h.41c.01.34.11.59.29.77s.46.26.84.26c.34,0,.6-.08.79-.23s.28-.36.28-.64c0-.16-.03-.3-.08-.41s-.14-.23-.26-.33-.31-.24-.57-.4c-.28-.17-.49-.32-.64-.45s-.27-.28-.35-.44-.12-.34-.12-.54c0-.28.08-.52.23-.73s.36-.37.64-.48.6-.17.97-.17h0ZM462.71,98.32c.43,0,.75.09.96.26s.32.44.32.81c0,.6-.28,1.05-.84,1.35s-1.4.45-2.51.45c-.04.21-.06.44-.06.69,0,.37.07.64.22.81s.38.25.71.25.62-.07.88-.21.54-.36.83-.65l.33.34c-.34.38-.69.66-1.04.85s-.76.29-1.23.29c-.51,0-.91-.16-1.19-.47s-.42-.75-.42-1.31c0-.38.07-.78.2-1.22s.34-.82.62-1.17.61-.61.99-.8.79-.28,1.23-.28h0ZM455.98,96.71c-.19,0-.38,0-.59.02l-.68,3.07h.62c.51,0,.92-.07,1.21-.21s.53-.36.7-.68.26-.65.26-1.02c0-.15-.01-.29-.04-.41s-.07-.22-.11-.29-.1-.15-.17-.21-.16-.11-.26-.16-.23-.08-.37-.1-.33-.03-.57-.03h0ZM453.86,96.24h2.36c.37,0,.68.02.92.07s.44.11.61.2.31.2.42.34.2.3.25.47.08.36.08.56c0,.54-.17,1.01-.5,1.39s-.82.67-1.47.87v.06c.17.13.31.28.41.46s.19.42.25.74l.12.61c.04.19.08.37.13.52s.11.28.18.37.15.16.23.21.21.08.38.11l-.05.26h-1.47c-.11-.31-.21-.69-.3-1.12l-.23-1.12c-.04-.19-.09-.36-.14-.49s-.12-.23-.2-.31-.16-.12-.26-.14-.22-.03-.37-.03h-.6l-.37,1.68c-.03.14-.05.25-.07.33s-.02.17-.03.26-.01.17-.01.24c0,.11.02.2.05.26s.09.11.16.14.19.05.37.06l-.06.26h-2.18l.06-.26c.13-.02.23-.06.3-.1s.12-.11.17-.2.09-.19.13-.31.1-.36.17-.71l.9-4.08c.08-.35.12-.63.12-.84,0-.17-.04-.29-.12-.36s-.21-.11-.4-.12l.06-.26Z"/>
  <g>
    <path class="cls-2" d="M323.61,133.07c-.31,0-.61.16-.9.47s-.51.74-.66,1.27c.43,0,.81-.04,1.12-.12.31-.08.55-.2.71-.36s.25-.39.25-.67c0-.19-.04-.33-.13-.44s-.22-.16-.39-.16h0ZM327.88,132.71c.29,0,.55.02.78.05s.47.09.7.18l-.21.97h-.37c-.03-.27-.12-.48-.27-.62s-.38-.21-.69-.21c-.24,0-.44.06-.59.19s-.23.29-.23.49c0,.11.02.21.06.29s.12.18.23.28.3.23.54.37c.19.12.35.22.47.32s.21.19.28.29.12.2.15.3.05.23.05.39c0,.27-.07.51-.22.7s-.34.34-.59.44-.54.14-.86.14c-.26,0-.51-.02-.75-.06s-.52-.1-.82-.2l.22-1.01h.36c.01.3.1.52.25.67s.4.23.73.23c.29,0,.52-.07.68-.2s.25-.32.25-.56c0-.14-.02-.26-.07-.36s-.12-.2-.23-.29-.27-.21-.5-.35c-.24-.14-.43-.28-.56-.39s-.23-.24-.3-.38-.1-.29-.1-.47c0-.24.07-.46.2-.64s.32-.32.56-.42.53-.15.85-.15h0ZM323.78,132.71c.37,0,.65.08.84.23.19.15.28.39.28.71,0,.52-.25.91-.74,1.18-.49.26-1.22.39-2.18.39-.04.18-.06.38-.06.6,0,.32.06.56.19.7.13.15.33.22.62.22s.54-.06.77-.18.47-.31.73-.57l.29.3c-.3.33-.6.58-.91.74s-.66.25-1.07.25c-.45,0-.79-.14-1.04-.41s-.37-.65-.37-1.14c0-.33.06-.68.18-1.06.12-.38.3-.71.54-1.01s.53-.53.86-.7c.34-.16.69-.25,1.07-.25h0ZM317.93,131.3c-.16,0-.34,0-.52.02l-.59,2.67h.54c.45,0,.8-.06,1.06-.18s.46-.32.61-.59.23-.57.23-.89c0-.13-.01-.25-.04-.35s-.06-.19-.1-.26-.09-.13-.15-.18-.14-.1-.23-.14-.2-.07-.32-.08-.29-.03-.5-.03h0ZM316.08,130.9h2.05c.33,0,.59.02.8.06s.38.1.53.17.27.18.37.3.17.26.22.41.07.31.07.49c0,.47-.14.88-.43,1.21s-.71.58-1.28.76v.05c.15.11.27.24.36.4s.16.37.22.64l.11.53c.03.17.07.32.12.46s.09.24.15.32.13.14.2.18.19.07.33.1l-.05.23h-1.28c-.1-.27-.19-.6-.26-.98l-.2-.98c-.03-.17-.07-.31-.12-.43s-.1-.2-.17-.27-.14-.1-.23-.12-.19-.03-.32-.03h-.53l-.32,1.46c-.03.12-.05.22-.06.29s-.02.15-.03.22-.01.15-.01.21c0,.1.02.17.05.22s.08.09.14.12.17.04.32.06l-.05.23h-1.9l.05-.23c.12-.02.2-.05.26-.09s.11-.1.15-.17c.04-.07.08-.16.11-.27s.08-.31.15-.62l.78-3.55c.07-.31.1-.55.1-.73,0-.15-.04-.26-.11-.31s-.19-.09-.35-.1l.05-.23Z"/>
    <path class="cls-2" d="M331.49,134.79h.21c0,.12,0,.24-.01.33,0,.1,0,.19,0,.29s0,.18,0,.27v2.57c0,.07,0,.13,0,.18,0,.05.01.09.02.13s.02.06.04.09c.02.02.04.05.06.06.03.03.06.05.11.06.05.01.1.03.17.04.07.01.15.02.25.02.1,0,.22,0,.35.01v.29h-2.68v-.29c.13,0,.25,0,.34-.02.09,0,.17-.01.24-.02.07-.01.12-.02.16-.03.04-.01.07-.03.1-.05.03-.02.06-.04.08-.07.02-.02.04-.05.05-.09.01-.04.02-.08.03-.13,0-.05.01-.12.01-.19v-2.42c0-.09-.02-.15-.05-.19-.03-.04-.08-.05-.15-.05-.07,0-.17.04-.31.11-.14.07-.32.18-.53.32-.03-.05-.06-.1-.08-.16-.02-.05-.05-.1-.08-.16.28-.15.56-.31.83-.46.27-.15.55-.3.83-.45h0Z"/>
    <path class="cls-2" d="M333.69,138.36h.59c.03.16.05.31.05.47s-.03.3-.08.43c-.05.13-.14.26-.26.39s-.28.27-.49.43l-.18-.21c.11-.11.2-.21.25-.29.05-.09.09-.19.11-.3.02-.11.03-.25.03-.42s0-.34-.02-.51h0Z"/>
    <path class="cls-2" d="M336.97,134.79h.21c0,.12,0,.24-.01.33,0,.1,0,.19,0,.29,0,.09,0,.18,0,.27v2.57c0,.07,0,.13,0,.18s.01.09.02.13.02.06.04.09c.02.02.04.05.06.06.03.03.06.05.11.06.05.01.1.03.17.04.07.01.15.02.25.02.1,0,.22,0,.35.01v.29h-2.68v-.29c.13,0,.25,0,.34-.02.09,0,.17-.01.24-.02.07-.01.12-.02.16-.03.04-.01.07-.03.1-.05.03-.02.06-.04.08-.07.02-.02.04-.05.05-.09.01-.04.02-.08.03-.13,0-.05.01-.12.01-.19v-2.42c0-.09-.02-.15-.05-.19-.03-.04-.08-.05-.15-.05-.07,0-.17.04-.31.11-.14.07-.32.18-.53.32-.03-.05-.06-.1-.08-.16-.02-.05-.05-.1-.08-.16.28-.15.56-.31.83-.46.27-.15.55-.3.83-.45h0Z"/>
    <path class="cls-2" d="M342.36,135.15h5.68v.61h-5.68v-.61h0ZM342.36,133.23h5.68v.61h-5.68v-.61h0Z"/>
    <path class="cls-2" d="M354.33,133.07c-.32,0-.6.13-.85.38s-.45.6-.59,1.03-.21.86-.21,1.28c0,.32.04.56.13.72s.23.24.44.24.4-.09.6-.26.4-.43.6-.75.35-.7.44-1.12l.04-.2c.03-.13.05-.24.06-.33s.01-.19.01-.3c0-.24-.05-.41-.15-.52s-.27-.17-.52-.17h0ZM354.24,132.71c.2,0,.39.02.56.07s.35.12.54.24l.42-.3.3.07-.68,2.92c-.07.29-.1.52-.1.68,0,.12.02.21.06.27s.1.08.19.08c.09,0,.19-.04.3-.11s.25-.22.44-.43l.26.26c-.28.3-.51.5-.71.63s-.41.19-.63.19c-.19,0-.34-.06-.46-.19s-.17-.29-.17-.5c0-.17.04-.35.11-.54l-.06-.02c-.3.43-.57.75-.84.95s-.54.3-.84.3c-.34,0-.6-.13-.79-.38s-.28-.61-.28-1.07c0-.53.1-1.04.31-1.52s.49-.87.86-1.15.77-.42,1.21-.42h0Z"/>
    <path class="cls-2" d="M358.76,134.79h.21c0,.12,0,.24-.01.33,0,.1,0,.19,0,.29,0,.09,0,.18,0,.27v2.57c0,.07,0,.13,0,.18,0,.05.01.09.02.13.01.03.02.06.04.09.02.02.04.05.06.06.03.03.06.05.11.06.05.01.1.03.17.04.07.01.15.02.25.02s.22,0,.35.01v.29h-2.68v-.29c.13,0,.25,0,.34-.02.09,0,.17-.01.24-.02.07-.01.12-.02.16-.03.04-.01.07-.03.1-.05.03-.02.06-.04.08-.07.02-.02.04-.05.05-.09.01-.04.02-.08.03-.13,0-.05.01-.12.01-.19v-2.42c0-.09-.02-.15-.05-.19-.03-.04-.08-.05-.15-.05-.07,0-.17.04-.31.11-.14.07-.32.18-.53.32-.03-.05-.06-.1-.08-.16-.02-.05-.05-.1-.08-.16.28-.15.56-.31.83-.46s.55-.3.83-.45h0Z"/>
    <path class="cls-2" d="M360.96,138.36h.59c.03.16.05.31.05.47s-.03.3-.08.43c-.05.13-.14.26-.26.39s-.28.27-.49.43l-.18-.21c.11-.11.2-.21.25-.29.05-.09.09-.19.11-.3.02-.11.03-.25.03-.42s0-.34-.02-.51h0Z"/>
    <path class="cls-2" d="M364.17,134.79h.21c0,.12,0,.24-.01.33,0,.1,0,.19,0,.29,0,.09,0,.18,0,.27v2.57c0,.07,0,.13,0,.18,0,.05.01.09.02.13.01.03.02.06.04.09.02.02.04.05.06.06.03.03.06.05.11.06.05.01.1.03.17.04.07.01.15.02.25.02s.22,0,.35.01v.29h-2.68v-.29c.13,0,.25,0,.34-.02.09,0,.17-.01.24-.02.07-.01.12-.02.16-.03.04-.01.07-.03.1-.05.03-.02.06-.04.08-.07.02-.02.04-.05.05-.09.01-.04.02-.08.03-.13,0-.05.01-.12.01-.19v-2.42c0-.09-.02-.15-.05-.19-.03-.04-.08-.05-.15-.05-.07,0-.17.04-.31.11-.14.07-.32.18-.53.32-.03-.05-.06-.1-.08-.16-.02-.05-.05-.1-.08-.16.28-.15.56-.31.83-.46s.55-.3.83-.45h0Z"/>
    <polygon class="cls-2" points="369.03 133.5 370.05 133.5 370.05 134.62 369.03 134.62 369.03 133.5 369.03 133.5"/>
    <path class="cls-2" d="M377.15,132.69c.22,0,.38.06.48.17s.15.27.15.46c0,.15-.03.32-.08.51s-.13.39-.22.6-.21.43-.34.65-.28.44-.44.65-.33.41-.51.59-.37.35-.56.49-.39.25-.59.33-.4.12-.6.12c-.09,0-.16-.02-.22-.07s-.11-.11-.15-.19-.06-.18-.08-.29-.02-.23-.02-.36c0-.18.01-.36.03-.56s.05-.4.08-.6l.19-1.28c.01-.07.02-.14.03-.21s.01-.11.01-.15c0-.1-.02-.17-.05-.24s-.08-.09-.16-.09c-.06,0-.12.02-.19.05s-.14.08-.21.14-.14.11-.2.18-.12.12-.18.18l-.22-.26c.1-.1.2-.2.3-.29s.22-.18.34-.26.25-.14.38-.19.27-.07.41-.07c.12,0,.21.02.29.06s.13.09.17.15.07.13.09.21.02.15.02.22c0,.04,0,.08,0,.12s0,.08-.01.11l-.26,1.67c-.03.18-.05.35-.07.51s-.03.32-.03.44,0,.23.02.31.04.12.09.12c.1,0,.23-.04.38-.12s.32-.19.48-.34.34-.31.51-.51.32-.41.46-.63.25-.47.33-.72.13-.51.13-.76c0-.11-.02-.2-.07-.26s-.12-.09-.22-.09c-.13,0-.25.05-.36.15s-.22.23-.34.39l-.26-.24c.07-.11.16-.22.26-.32s.21-.19.32-.27.23-.14.35-.18.24-.07.35-.07h0Z"/>
    <path class="cls-2" d="M379.97,134.79h.21c0,.12,0,.24-.01.33,0,.1,0,.19,0,.29,0,.09,0,.18,0,.27v2.57c0,.07,0,.13,0,.18s.01.09.02.13.02.06.04.09c.02.02.04.05.06.06.03.03.06.05.11.06.05.01.1.03.17.04.07.01.15.02.25.02.1,0,.22,0,.35.01v.29h-2.68v-.29c.13,0,.25,0,.34-.02.09,0,.17-.01.24-.02.07-.01.12-.02.16-.03.04-.01.07-.03.1-.05.03-.02.06-.04.08-.07.02-.02.04-.05.05-.09.01-.04.02-.08.03-.13,0-.05.01-.12.01-.19v-2.42c0-.09-.02-.15-.05-.19-.03-.04-.08-.05-.15-.05-.07,0-.17.04-.31.11-.14.07-.32.18-.53.32-.03-.05-.06-.1-.08-.16-.02-.05-.05-.1-.08-.16.28-.15.56-.31.83-.46.27-.15.55-.3.83-.45h0Z"/>
    <path class="cls-2" d="M382.11,138.36h.59c.03.16.05.31.05.47s-.03.3-.08.43c-.05.13-.14.26-.26.39s-.28.27-.49.43l-.18-.21c.11-.11.2-.21.25-.29.05-.09.09-.19.11-.3.02-.11.03-.25.03-.42s0-.34-.02-.51h0Z"/>
    <path class="cls-2" d="M385.39,134.79h.21c0,.12,0,.24-.01.33,0,.1,0,.19,0,.29,0,.09,0,.18,0,.27v2.57c0,.07,0,.13,0,.18s.01.09.02.13.02.06.04.09c.02.02.04.05.06.06.03.03.06.05.11.06.05.01.1.03.17.04.07.01.15.02.25.02.1,0,.22,0,.35.01v.29h-2.68v-.29c.13,0,.25,0,.34-.02.09,0,.17-.01.24-.02.07-.01.12-.02.16-.03.04-.01.07-.03.1-.05.03-.02.06-.04.08-.07.02-.02.04-.05.05-.09.01-.04.02-.08.03-.13,0-.05.01-.12.01-.19v-2.42c0-.09-.02-.15-.05-.19-.03-.04-.08-.05-.15-.05-.07,0-.17.04-.31.11-.14.07-.32.18-.53.32-.03-.05-.06-.1-.08-.16-.02-.05-.05-.1-.08-.16.28-.15.56-.31.83-.46.27-.15.55-.3.83-.45h0Z"/>
    <polygon class="cls-2" points="392.73 131.53 393.38 131.53 393.38 134.19 395.9 134.19 395.9 134.8 393.38 134.8 393.38 137.46 392.73 137.46 392.73 134.8 390.21 134.8 390.21 134.19 392.73 134.19 392.73 131.53 392.73 131.53"/>
    <path class="cls-2" d="M401.67,133.07c-.32,0-.6.13-.85.38s-.45.6-.59,1.03-.21.86-.21,1.28c0,.32.04.56.13.72s.23.24.44.24.4-.09.6-.26.4-.43.6-.75.35-.7.44-1.12l.04-.2c.03-.13.05-.24.06-.33s.01-.19.01-.3c0-.24-.05-.41-.15-.52s-.27-.17-.52-.17h0ZM401.58,132.71c.2,0,.39.02.56.07s.35.12.54.24l.42-.3.3.07-.68,2.92c-.07.29-.1.52-.1.68,0,.12.02.21.06.27s.1.08.19.08c.09,0,.19-.04.3-.11s.25-.22.44-.43l.26.26c-.28.3-.51.5-.71.63s-.41.19-.63.19c-.19,0-.34-.06-.46-.19s-.17-.29-.17-.5c0-.17.04-.35.11-.54l-.06-.02c-.3.43-.57.75-.84.95s-.54.3-.84.3c-.34,0-.6-.13-.79-.38s-.28-.61-.28-1.07c0-.53.1-1.04.31-1.52s.49-.87.86-1.15.77-.42,1.21-.42h0Z"/>
    <path class="cls-2" d="M406.1,134.79h.21c0,.12,0,.24-.01.33,0,.1,0,.19,0,.29,0,.09,0,.18,0,.27v2.57c0,.07,0,.13,0,.18s.01.09.02.13.02.06.04.09c.02.02.04.05.06.06.03.03.06.05.11.06.05.01.1.03.17.04.07.01.15.02.25.02.1,0,.22,0,.35.01v.29h-2.68v-.29c.13,0,.25,0,.34-.02.09,0,.17-.01.24-.02.07-.01.12-.02.16-.03.04-.01.07-.03.1-.05.03-.02.06-.04.08-.07.02-.02.04-.05.05-.09.01-.04.02-.08.03-.13,0-.05.01-.12.01-.19v-2.42c0-.09-.02-.15-.05-.19-.03-.04-.08-.05-.15-.05-.07,0-.17.04-.31.11-.14.07-.32.18-.53.32-.03-.05-.06-.1-.08-.16-.02-.05-.05-.1-.08-.16.28-.15.56-.31.83-.46.27-.15.55-.3.83-.45h0Z"/>
    <path class="cls-2" d="M408.3,138.36h.59c.03.16.05.31.05.47s-.03.3-.08.43c-.05.13-.14.26-.26.39s-.28.27-.49.43l-.18-.21c.11-.11.2-.21.25-.29.05-.09.09-.19.11-.3.02-.11.03-.25.03-.42s0-.34-.02-.51h0Z"/>
    <path class="cls-2" d="M411.25,134.76c.23,0,.43.03.6.08.17.05.3.12.4.21.1.09.18.2.22.32.05.13.07.26.07.41,0,.09,0,.17-.02.25-.01.08-.03.15-.06.22-.03.07-.07.15-.12.22-.05.07-.11.15-.19.24-.06.07-.13.16-.22.25s-.19.2-.3.3-.22.22-.34.34c-.12.12-.23.23-.34.35-.11.11-.21.23-.3.33-.09.11-.17.21-.23.3h1.25c.11,0,.19,0,.25-.01.06,0,.12-.03.16-.05s.08-.07.11-.12c.03-.06.06-.13.1-.23h.31c-.01.16-.02.32-.03.48s-.02.32-.03.48h-2.86v-.18c.05-.12.12-.24.19-.36s.15-.24.24-.36.19-.25.31-.38.24-.26.38-.4c.21-.21.38-.39.52-.54.13-.15.24-.28.31-.4.08-.12.13-.23.16-.32.03-.1.04-.21.04-.32s-.02-.22-.05-.32c-.03-.1-.08-.18-.14-.25s-.14-.12-.23-.16c-.09-.04-.2-.06-.32-.06-.21,0-.39.06-.53.17s-.25.28-.33.5h-.44v-.66c.29-.12.55-.21.8-.26.24-.05.46-.08.65-.08h0Z"/>
    <polygon class="cls-2" points="416.37 133.5 417.4 133.5 417.4 134.62 416.37 134.62 416.37 133.5 416.37 133.5"/>
    <path class="cls-2" d="M424.49,132.69c.22,0,.38.06.48.17s.15.27.15.46c0,.15-.03.32-.08.51s-.13.39-.22.6-.21.43-.34.65-.28.44-.44.65-.33.41-.51.59-.37.35-.56.49-.39.25-.59.33-.4.12-.6.12c-.09,0-.16-.02-.22-.07s-.11-.11-.15-.19-.06-.18-.08-.29-.02-.23-.02-.36c0-.18.01-.36.03-.56s.05-.4.08-.6l.19-1.28c.01-.07.02-.14.03-.21s.01-.11.01-.15c0-.1-.02-.17-.05-.24s-.08-.09-.16-.09c-.06,0-.12.02-.19.05s-.14.08-.21.14-.14.11-.2.18-.12.12-.18.18l-.22-.26c.1-.1.2-.2.3-.29s.22-.18.34-.26.25-.14.38-.19.27-.07.41-.07c.12,0,.21.02.29.06s.13.09.17.15.07.13.09.21.02.15.02.22c0,.04,0,.08,0,.12s0,.08-.01.11l-.26,1.67c-.03.18-.05.35-.07.51s-.03.32-.03.44,0,.23.02.31.04.12.09.12c.1,0,.23-.04.38-.12s.32-.19.48-.34.34-.31.51-.51.32-.41.46-.63.25-.47.33-.72.13-.51.13-.76c0-.11-.02-.2-.07-.26s-.12-.09-.22-.09c-.13,0-.25.05-.36.15s-.22.23-.34.39l-.26-.24c.07-.11.16-.22.26-.32s.21-.19.32-.27.23-.14.35-.18.24-.07.35-.07h0Z"/>
    <path class="cls-2" d="M427.24,134.76c.23,0,.43.03.6.08.17.05.3.12.4.21.1.09.18.2.22.32.05.13.07.26.07.41,0,.09,0,.17-.02.25-.01.08-.03.15-.06.22-.03.07-.07.15-.12.22-.05.07-.11.15-.19.24-.06.07-.13.16-.22.25s-.19.2-.3.3-.22.22-.34.34c-.12.12-.23.23-.34.35-.11.11-.21.23-.3.33-.09.11-.17.21-.23.3h1.25c.11,0,.19,0,.25-.01.06,0,.12-.03.16-.05s.08-.07.11-.12c.03-.06.06-.13.1-.23h.31c-.01.16-.02.32-.03.48s-.02.32-.03.48h-2.86v-.18c.05-.12.12-.24.19-.36s.15-.24.24-.36.19-.25.31-.38.24-.26.38-.4c.21-.21.38-.39.52-.54.13-.15.24-.28.31-.4.08-.12.13-.23.16-.32.03-.1.04-.21.04-.32s-.02-.22-.05-.32c-.03-.1-.08-.18-.14-.25s-.14-.12-.23-.16c-.09-.04-.2-.06-.32-.06-.21,0-.39.06-.53.17s-.25.28-.33.5h-.44v-.66c.29-.12.55-.21.8-.26.24-.05.46-.08.65-.08h0Z"/>
    <path class="cls-2" d="M429.71,138.36h.59c.03.16.05.31.05.47s-.03.3-.08.43c-.05.13-.14.26-.26.39s-.28.27-.49.43l-.18-.21c.11-.11.2-.21.25-.29.05-.09.09-.19.11-.3.02-.11.03-.25.03-.42s0-.34-.02-.51h0Z"/>
    <path class="cls-2" d="M432.99,134.79h.21c0,.12,0,.24-.01.33,0,.1,0,.19,0,.29,0,.09,0,.18,0,.27v2.57c0,.07,0,.13,0,.18s.01.09.02.13.02.06.04.09c.02.02.04.05.06.06.03.03.06.05.11.06.05.01.1.03.17.04.07.01.15.02.25.02.1,0,.22,0,.35.01v.29h-2.68v-.29c.13,0,.25,0,.34-.02.09,0,.17-.01.24-.02.07-.01.12-.02.16-.03.04-.01.07-.03.1-.05.03-.02.06-.04.08-.07.02-.02.04-.05.05-.09.01-.04.02-.08.03-.13,0-.05.01-.12.01-.19v-2.42c0-.09-.02-.15-.05-.19-.03-.04-.08-.05-.15-.05-.07,0-.17.04-.31.11-.14.07-.32.18-.53.32-.03-.05-.06-.1-.08-.16-.02-.05-.05-.1-.08-.16.28-.15.56-.31.83-.46.27-.15.55-.3.83-.45h0Z"/>
    <polygon class="cls-2" points="440.32 131.53 440.98 131.53 440.98 134.19 443.49 134.19 443.49 134.8 440.98 134.8 440.98 137.46 440.32 137.46 440.32 134.8 437.81 134.8 437.81 134.19 440.32 134.19 440.32 131.53 440.32 131.53"/>
    <path class="cls-2" d="M449.27,133.07c-.32,0-.6.13-.85.38s-.45.6-.59,1.03-.21.86-.21,1.28c0,.32.04.56.13.72s.23.24.44.24.4-.09.6-.26.4-.43.6-.75.35-.7.44-1.12l.04-.2c.03-.13.05-.24.06-.33s.01-.19.01-.3c0-.24-.05-.41-.15-.52s-.27-.17-.52-.17h0ZM449.18,132.71c.2,0,.39.02.56.07s.35.12.54.24l.42-.3.3.07-.68,2.92c-.07.29-.1.52-.1.68,0,.12.02.21.06.27s.1.08.19.08c.09,0,.19-.04.3-.11s.25-.22.44-.43l.26.26c-.28.3-.51.5-.71.63s-.41.19-.63.19c-.19,0-.34-.06-.46-.19s-.17-.29-.17-.5c0-.17.04-.35.11-.54l-.06-.02c-.3.43-.57.75-.84.95s-.54.3-.84.3c-.34,0-.6-.13-.79-.38s-.28-.61-.28-1.07c0-.53.1-1.04.31-1.52s.49-.87.86-1.15.77-.42,1.21-.42h0Z"/>
    <path class="cls-2" d="M453.64,134.79h.21c0,.12,0,.24-.01.33,0,.1,0,.19,0,.29,0,.09,0,.18,0,.27v2.57c0,.07,0,.13,0,.18,0,.05.01.09.02.13.01.03.02.06.04.09.02.02.04.05.06.06.03.03.06.05.11.06.05.01.1.03.17.04.07.01.15.02.25.02s.22,0,.35.01v.29h-2.68v-.29c.13,0,.25,0,.34-.02.09,0,.17-.01.24-.02.07-.01.12-.02.16-.03.04-.01.07-.03.1-.05.03-.02.06-.04.08-.07.02-.02.04-.05.05-.09.01-.04.02-.08.03-.13,0-.05.01-.12.01-.19v-2.42c0-.09-.02-.15-.05-.19-.03-.04-.08-.05-.15-.05-.07,0-.17.04-.31.11-.14.07-.32.18-.53.32-.03-.05-.06-.1-.08-.16-.02-.05-.05-.1-.08-.16.28-.15.56-.31.83-.46s.55-.3.83-.45h0Z"/>
    <path class="cls-2" d="M455.84,138.36h.59c.03.16.05.31.05.47s-.03.3-.08.43c-.05.13-.14.26-.26.39s-.28.27-.49.43l-.18-.21c.11-.11.2-.21.25-.29.05-.09.09-.19.11-.3.02-.11.03-.25.03-.42s0-.34-.02-.51h0Z"/>
    <path class="cls-2" d="M458.84,134.76c.18,0,.35.02.51.06.16.04.29.1.41.17.11.08.2.17.27.29.06.12.1.25.1.4,0,.14-.02.27-.06.38-.04.11-.1.21-.19.3s-.19.17-.31.25-.26.14-.42.21v.04c.15.03.29.07.42.13.13.06.25.14.34.23.1.09.18.2.23.32s.08.25.08.4c0,.18-.03.35-.1.5s-.17.29-.3.4-.3.2-.5.26c-.2.06-.43.09-.7.09-.21,0-.42-.02-.64-.06-.22-.04-.42-.1-.62-.16v-.73h.44c.04.11.08.21.13.29.05.08.11.15.17.2.07.05.14.09.23.11s.19.03.3.03c.29,0,.51-.07.66-.21.15-.14.22-.35.22-.63,0-.3-.1-.53-.3-.68-.2-.15-.49-.23-.88-.23h-.3v-.32c.24-.01.44-.04.61-.1.17-.06.32-.13.43-.21.11-.09.2-.19.26-.31s.08-.24.08-.38c0-.22-.06-.39-.19-.51-.13-.13-.31-.19-.56-.19-.21,0-.38.06-.52.17s-.25.28-.32.5h-.43v-.67c.27-.11.52-.2.75-.26.24-.06.46-.09.68-.09h0Z"/>
    <polygon class="cls-2" points="463.91 133.5 464.93 133.5 464.93 134.62 463.91 134.62 463.91 133.5 463.91 133.5"/>
    <path class="cls-2" d="M472.09,132.69c.22,0,.38.06.48.17s.15.27.15.46c0,.15-.03.32-.08.51s-.13.39-.22.6-.21.43-.34.65-.28.44-.44.65-.33.41-.51.59-.37.35-.56.49-.39.25-.59.33-.4.12-.6.12c-.09,0-.16-.02-.22-.07s-.11-.11-.15-.19-.06-.18-.08-.29-.02-.23-.02-.36c0-.18.01-.36.03-.56s.05-.4.08-.6l.19-1.28c.01-.07.02-.14.03-.21s.01-.11.01-.15c0-.1-.02-.17-.05-.24s-.08-.09-.16-.09c-.06,0-.12.02-.19.05s-.14.08-.21.14-.14.11-.2.18-.12.12-.18.18l-.22-.26c.1-.1.2-.2.3-.29s.22-.18.34-.26.25-.14.38-.19.27-.07.41-.07c.12,0,.21.02.29.06s.13.09.17.15.07.13.09.21.02.15.02.22c0,.04,0,.08,0,.12s0,.08-.01.11l-.26,1.67c-.03.18-.05.35-.07.51s-.03.32-.03.44,0,.23.02.31.04.12.09.12c.1,0,.23-.04.38-.12s.32-.19.48-.34.34-.31.51-.51.32-.41.46-.63.25-.47.33-.72.13-.51.13-.76c0-.11-.02-.2-.07-.26s-.12-.09-.22-.09c-.13,0-.25.05-.36.15s-.22.23-.34.39l-.26-.24c.07-.11.16-.22.26-.32s.21-.19.32-.27.23-.14.35-.18.24-.07.35-.07h0Z"/>
    <path class="cls-2" d="M474.83,134.76c.18,0,.35.02.51.06.16.04.29.1.41.17.11.08.2.17.27.29.06.12.1.25.1.4,0,.14-.02.27-.06.38-.04.11-.1.21-.19.3s-.19.17-.31.25-.26.14-.42.21v.04c.15.03.29.07.42.13.13.06.25.14.34.23.1.09.18.2.23.32s.08.25.08.4c0,.18-.03.35-.1.5s-.17.29-.3.4-.3.2-.5.26c-.2.06-.43.09-.7.09-.21,0-.42-.02-.64-.06-.22-.04-.42-.1-.62-.16v-.73h.44c.04.11.08.21.13.29.05.08.11.15.17.2.07.05.14.09.23.11s.19.03.3.03c.29,0,.51-.07.66-.21.15-.14.22-.35.22-.63,0-.3-.1-.53-.3-.68-.2-.15-.49-.23-.88-.23h-.3v-.32c.24-.01.44-.04.61-.1.17-.06.32-.13.43-.21.11-.09.2-.19.26-.31s.08-.24.08-.38c0-.22-.06-.39-.19-.51-.13-.13-.31-.19-.56-.19-.21,0-.38.06-.52.17s-.25.28-.32.5h-.43v-.67c.27-.11.52-.2.75-.26.24-.06.46-.09.68-.09h0Z"/>
    <path class="cls-2" d="M477.24,138.36h.59c.03.16.05.31.05.47s-.03.3-.08.43c-.05.13-.14.26-.26.39s-.28.27-.49.43l-.18-.21c.11-.11.2-.21.25-.29.05-.09.09-.19.11-.3.02-.11.03-.25.03-.42s0-.34-.02-.51h0Z"/>
    <path class="cls-2" d="M480.52,134.79h.21c0,.12,0,.24-.01.33,0,.1,0,.19,0,.29,0,.09,0,.18,0,.27v2.57c0,.07,0,.13,0,.18,0,.05.01.09.02.13.01.03.02.06.04.09.02.02.04.05.06.06.03.03.06.05.11.06.05.01.1.03.17.04.07.01.15.02.25.02s.22,0,.35.01v.29h-2.68v-.29c.13,0,.25,0,.34-.02.09,0,.17-.01.24-.02.07-.01.12-.02.16-.03.04-.01.07-.03.1-.05.03-.02.06-.04.08-.07.02-.02.04-.05.05-.09.01-.04.02-.08.03-.13,0-.05.01-.12.01-.19v-2.42c0-.09-.02-.15-.05-.19-.03-.04-.08-.05-.15-.05-.07,0-.17.04-.31.11-.14.07-.32.18-.53.32-.03-.05-.06-.1-.08-.16-.02-.05-.05-.1-.08-.16.28-.15.56-.31.83-.46s.55-.3.83-.45h0Z"/>
    <path class="cls-2" d="M323.61,155.12c-.31,0-.61.16-.9.47s-.51.74-.66,1.27c.43,0,.81-.04,1.12-.12.31-.08.55-.2.71-.36s.25-.39.25-.67c0-.19-.04-.33-.13-.44s-.22-.16-.39-.16h0ZM327.88,154.76c.29,0,.55.02.78.05s.47.09.7.18l-.21.97h-.37c-.03-.27-.12-.48-.27-.62s-.38-.21-.69-.21c-.24,0-.44.06-.59.19s-.23.29-.23.49c0,.11.02.21.06.29s.12.18.23.28.3.23.54.37c.19.12.35.22.47.32s.21.19.28.29.12.2.15.3.05.23.05.39c0,.27-.07.51-.22.7s-.34.34-.59.44-.54.14-.86.14c-.26,0-.51-.02-.75-.06s-.52-.1-.82-.2l.22-1.01h.36c.01.3.1.52.25.67s.4.23.73.23c.29,0,.52-.07.68-.2s.25-.32.25-.56c0-.14-.02-.26-.07-.36s-.12-.2-.23-.29-.27-.21-.5-.35c-.24-.14-.43-.28-.56-.39s-.23-.24-.3-.38-.1-.29-.1-.47c0-.24.07-.46.2-.64s.32-.32.56-.42.53-.15.85-.15h0ZM323.78,154.75c.37,0,.65.08.84.23.19.15.28.39.28.71,0,.52-.25.91-.74,1.18-.49.26-1.22.39-2.18.39-.04.18-.06.38-.06.6,0,.32.06.56.19.7.13.15.33.22.62.22s.54-.06.77-.18.47-.31.73-.57l.29.3c-.3.33-.6.58-.91.74s-.66.25-1.07.25c-.45,0-.79-.14-1.04-.41s-.37-.65-.37-1.14c0-.33.06-.68.18-1.06.12-.38.3-.71.54-1.01s.53-.53.86-.7c.34-.16.69-.25,1.07-.25h0ZM317.93,153.35c-.16,0-.34,0-.52.02l-.59,2.67h.54c.45,0,.8-.06,1.06-.18s.46-.32.61-.59.23-.57.23-.89c0-.13-.01-.25-.04-.35s-.06-.19-.1-.26-.09-.13-.15-.18-.14-.1-.23-.14-.2-.07-.32-.08-.29-.03-.5-.03h0ZM316.08,152.95h2.05c.33,0,.59.02.8.06s.38.1.53.17.27.18.37.3.17.26.22.41.07.31.07.49c0,.47-.14.88-.43,1.21s-.71.58-1.28.76v.05c.15.11.27.24.36.4s.16.37.22.64l.11.53c.03.17.07.32.12.46s.09.24.15.32.13.14.2.18.19.07.33.1l-.05.23h-1.28c-.1-.27-.19-.6-.26-.98l-.2-.98c-.03-.17-.07-.31-.12-.43s-.1-.2-.17-.27-.14-.1-.23-.12-.19-.03-.32-.03h-.53l-.32,1.46c-.03.12-.05.22-.06.29s-.02.15-.03.22-.01.15-.01.21c0,.1.02.17.05.22s.08.09.14.12.17.04.32.06l-.05.23h-1.9l.05-.23c.12-.02.2-.05.26-.09s.11-.1.15-.17c.04-.07.08-.16.11-.27s.08-.31.15-.62l.78-3.55c.07-.31.1-.55.1-.73,0-.15-.04-.26-.11-.31s-.19-.09-.35-.1l.05-.23Z"/>
    <path class="cls-2" d="M331.42,156.81c.23,0,.43.03.6.08.17.05.3.12.4.21.1.09.18.2.22.32.05.13.07.26.07.41,0,.09,0,.17-.02.25-.01.08-.03.15-.06.22-.03.07-.07.15-.12.22-.05.07-.11.15-.19.24-.06.07-.13.16-.22.25-.09.09-.19.2-.3.3-.11.11-.22.22-.34.34-.12.12-.23.23-.34.35-.11.11-.21.23-.3.33-.09.11-.17.21-.23.3h1.25c.11,0,.19,0,.25-.01.06,0,.12-.03.16-.05s.08-.07.11-.12c.03-.06.06-.13.1-.23h.31c-.01.16-.02.32-.03.48s-.02.32-.03.48h-2.86v-.18c.05-.12.12-.24.19-.36s.15-.24.24-.36.19-.25.31-.38.24-.26.38-.4c.21-.21.38-.39.52-.54.13-.15.24-.28.31-.4.08-.12.13-.23.16-.32.03-.1.04-.21.04-.32s-.02-.22-.05-.32c-.03-.1-.08-.18-.14-.25s-.14-.12-.23-.16c-.09-.04-.2-.06-.32-.06-.21,0-.39.06-.53.17s-.25.28-.33.5h-.44v-.66c.29-.12.55-.21.8-.26.24-.05.46-.08.65-.08h0Z"/>
    <path class="cls-2" d="M333.88,160.41h.59c.03.16.05.31.05.47s-.03.3-.08.43c-.05.13-.14.26-.26.39s-.28.27-.49.43l-.18-.21c.11-.11.2-.21.25-.29.05-.09.09-.19.11-.3.02-.11.03-.25.03-.42s0-.34-.02-.51h0Z"/>
    <path class="cls-2" d="M337.16,156.84h.21c0,.12,0,.24-.01.33,0,.1,0,.19,0,.29,0,.09,0,.18,0,.27v2.57c0,.07,0,.13,0,.18s.01.09.02.13.02.06.04.09c.02.02.04.05.06.06.03.03.06.05.11.06.05.01.1.03.17.04.07.01.15.02.25.02.1,0,.22,0,.35.01v.29h-2.68v-.29c.13,0,.25,0,.34-.02.09,0,.17-.01.24-.02.07-.01.12-.02.16-.03.04-.01.07-.03.1-.05.03-.02.06-.04.08-.07.02-.02.04-.05.05-.09.01-.04.02-.08.03-.13,0-.05.01-.12.01-.19v-2.42c0-.09-.02-.15-.05-.19-.03-.04-.08-.05-.15-.05-.07,0-.17.04-.31.11-.14.07-.32.18-.53.32-.03-.05-.06-.1-.08-.16-.02-.05-.05-.1-.08-.16.28-.15.56-.31.83-.46.27-.15.55-.3.83-.45h0Z"/>
    <path class="cls-2" d="M342.55,157.19h5.68v.61h-5.68v-.61h0ZM342.55,155.28h5.68v.61h-5.68v-.61h0Z"/>
    <path class="cls-2" d="M354.58,155.12c-.32,0-.6.13-.85.38s-.45.6-.59,1.03-.21.86-.21,1.28c0,.32.04.56.13.72s.23.24.44.24.4-.09.6-.26.4-.43.6-.75.35-.7.44-1.12l.04-.2c.03-.13.05-.24.06-.33s.01-.19.01-.3c0-.24-.05-.41-.15-.52s-.27-.17-.52-.17h0ZM354.49,154.75c.2,0,.39.02.56.07s.35.12.54.24l.42-.3.3.07-.68,2.92c-.07.29-.1.52-.1.68,0,.12.02.21.06.27s.1.08.19.08c.09,0,.19-.04.3-.11s.25-.22.44-.43l.26.26c-.28.3-.51.5-.71.63s-.41.19-.63.19c-.19,0-.34-.06-.46-.19s-.17-.29-.17-.5c0-.17.04-.35.11-.54l-.06-.02c-.3.43-.57.75-.84.95s-.54.3-.84.3c-.34,0-.6-.13-.79-.38s-.28-.61-.28-1.07c0-.53.1-1.04.31-1.52s.49-.87.86-1.15.77-.42,1.21-.42h0Z"/>
    <path class="cls-2" d="M358.93,156.81c.23,0,.43.03.6.08.17.05.3.12.4.21s.18.2.22.32c.05.13.07.26.07.41,0,.09,0,.17-.02.25-.01.08-.03.15-.06.22s-.07.15-.12.22c-.05.07-.11.15-.19.24-.06.07-.13.16-.22.25s-.19.2-.3.3-.22.22-.34.34c-.12.12-.23.23-.34.35-.11.11-.21.23-.3.33-.09.11-.17.21-.23.3h1.25c.11,0,.19,0,.25-.01.06,0,.12-.03.16-.05s.08-.07.11-.12c.03-.06.06-.13.1-.23h.31c-.01.16-.02.32-.03.48s-.02.32-.03.48h-2.86v-.18c.05-.12.12-.24.19-.36.07-.12.15-.24.24-.36s.19-.25.31-.38.24-.26.38-.4c.21-.21.38-.39.52-.54.13-.15.24-.28.31-.4s.13-.23.16-.32c.03-.1.04-.21.04-.32s-.02-.22-.05-.32c-.03-.1-.08-.18-.14-.25-.06-.07-.14-.12-.23-.16-.09-.04-.2-.06-.32-.06-.21,0-.39.06-.53.17-.14.11-.25.28-.33.5h-.44v-.66c.29-.12.55-.21.8-.26.24-.05.46-.08.65-.08h0Z"/>
    <path class="cls-2" d="M361.33,160.41h.59c.03.16.05.31.05.47s-.03.3-.08.43c-.05.13-.14.26-.26.39s-.28.27-.49.43l-.18-.21c.11-.11.2-.21.25-.29.05-.09.09-.19.11-.3.02-.11.03-.25.03-.42s0-.34-.02-.51h0Z"/>
    <path class="cls-2" d="M364.61,156.84h.21c0,.12,0,.24-.01.33,0,.1,0,.19,0,.29,0,.09,0,.18,0,.27v2.57c0,.07,0,.13,0,.18,0,.05.01.09.02.13.01.03.02.06.04.09.02.02.04.05.06.06.03.03.06.05.11.06.05.01.1.03.17.04.07.01.15.02.25.02s.22,0,.35.01v.29h-2.68v-.29c.13,0,.25,0,.34-.02.09,0,.17-.01.24-.02.07-.01.12-.02.16-.03.04-.01.07-.03.1-.05.03-.02.06-.04.08-.07.02-.02.04-.05.05-.09.01-.04.02-.08.03-.13,0-.05.01-.12.01-.19v-2.42c0-.09-.02-.15-.05-.19-.03-.04-.08-.05-.15-.05-.07,0-.17.04-.31.11-.14.07-.32.18-.53.32-.03-.05-.06-.1-.08-.16-.02-.05-.05-.1-.08-.16.28-.15.56-.31.83-.46s.55-.3.83-.45h0Z"/>
    <polygon class="cls-2" points="369.41 155.55 370.43 155.55 370.43 156.67 369.41 156.67 369.41 155.55 369.41 155.55"/>
    <path class="cls-2" d="M377.59,154.74c.22,0,.38.06.48.17s.15.27.15.46c0,.15-.03.32-.08.51s-.13.39-.22.6-.21.43-.34.65-.28.44-.44.65-.33.41-.51.59-.37.35-.56.49-.39.25-.59.33-.4.12-.6.12c-.09,0-.16-.02-.22-.07s-.11-.11-.15-.19-.06-.18-.08-.29-.02-.23-.02-.36c0-.18.01-.36.03-.56s.05-.4.08-.6l.19-1.28c.01-.07.02-.14.03-.21s.01-.11.01-.15c0-.1-.02-.17-.05-.24s-.08-.09-.16-.09c-.06,0-.12.02-.19.05s-.14.08-.21.14-.14.11-.2.18-.12.12-.18.18l-.22-.26c.1-.1.2-.2.3-.29s.22-.18.34-.26.25-.14.38-.19.27-.07.41-.07c.12,0,.21.02.29.06s.13.09.17.15.07.13.09.21.02.15.02.22c0,.04,0,.08,0,.12s0,.08-.01.11l-.26,1.67c-.03.18-.05.35-.07.51s-.03.32-.03.44,0,.23.02.31.04.12.09.12c.1,0,.23-.04.38-.12s.32-.19.48-.34.34-.31.51-.51.32-.41.46-.63.25-.47.33-.72.13-.51.13-.76c0-.11-.02-.2-.07-.26s-.12-.09-.22-.09c-.13,0-.25.05-.36.15s-.22.23-.34.39l-.26-.24c.07-.11.16-.22.26-.32s.21-.19.32-.27.23-.14.35-.18.24-.07.35-.07h0Z"/>
    <path class="cls-2" d="M380.41,156.84h.21c0,.12,0,.24-.01.33,0,.1,0,.19,0,.29,0,.09,0,.18,0,.27v2.57c0,.07,0,.13,0,.18s.01.09.02.13.02.06.04.09c.02.02.04.05.06.06.03.03.06.05.11.06.05.01.1.03.17.04.07.01.15.02.25.02.1,0,.22,0,.35.01v.29h-2.68v-.29c.13,0,.25,0,.34-.02.09,0,.17-.01.24-.02.07-.01.12-.02.16-.03.04-.01.07-.03.1-.05.03-.02.06-.04.08-.07.02-.02.04-.05.05-.09.01-.04.02-.08.03-.13,0-.05.01-.12.01-.19v-2.42c0-.09-.02-.15-.05-.19-.03-.04-.08-.05-.15-.05-.07,0-.17.04-.31.11-.14.07-.32.18-.53.32-.03-.05-.06-.1-.08-.16-.02-.05-.05-.1-.08-.16.28-.15.56-.31.83-.46.27-.15.55-.3.83-.45h0Z"/>
    <path class="cls-2" d="M382.55,160.41h.59c.03.16.05.31.05.47s-.03.3-.08.43c-.05.13-.14.26-.26.39s-.28.27-.49.43l-.18-.21c.11-.11.2-.21.25-.29.05-.09.09-.19.11-.3.02-.11.03-.25.03-.42s0-.34-.02-.51h0Z"/>
    <path class="cls-2" d="M385.83,156.84h.21c0,.12,0,.24-.01.33,0,.1,0,.19,0,.29,0,.09,0,.18,0,.27v2.57c0,.07,0,.13,0,.18s.01.09.02.13.02.06.04.09c.02.02.04.05.06.06.03.03.06.05.11.06.05.01.1.03.17.04.07.01.15.02.25.02.1,0,.22,0,.35.01v.29h-2.68v-.29c.13,0,.25,0,.34-.02.09,0,.17-.01.24-.02.07-.01.12-.02.16-.03.04-.01.07-.03.1-.05.03-.02.06-.04.08-.07.02-.02.04-.05.05-.09.01-.04.02-.08.03-.13,0-.05.01-.12.01-.19v-2.42c0-.09-.02-.15-.05-.19-.03-.04-.08-.05-.15-.05-.07,0-.17.04-.31.11-.14.07-.32.18-.53.32-.03-.05-.06-.1-.08-.16-.02-.05-.05-.1-.08-.16.28-.15.56-.31.83-.46.27-.15.55-.3.83-.45h0Z"/>
    <polygon class="cls-2" points="393.17 153.58 393.82 153.58 393.82 156.23 396.34 156.23 396.34 156.85 393.82 156.85 393.82 159.5 393.17 159.5 393.17 156.85 390.65 156.85 390.65 156.23 393.17 156.23 393.17 153.58 393.17 153.58"/>
    <path class="cls-2" d="M402.12,155.12c-.32,0-.6.13-.85.38s-.45.6-.59,1.03-.21.86-.21,1.28c0,.32.04.56.13.72s.23.24.44.24.4-.09.6-.26.4-.43.6-.75.35-.7.44-1.12l.04-.2c.03-.13.05-.24.06-.33s.01-.19.01-.3c0-.24-.05-.41-.15-.52s-.27-.17-.52-.17h0ZM402.02,154.75c.2,0,.39.02.56.07s.35.12.54.24l.42-.3.3.07-.68,2.92c-.07.29-.1.52-.1.68,0,.12.02.21.06.27s.1.08.19.08c.09,0,.19-.04.3-.11s.25-.22.44-.43l.26.26c-.28.3-.51.5-.71.63s-.41.19-.63.19c-.19,0-.34-.06-.46-.19s-.17-.29-.17-.5c0-.17.04-.35.11-.54l-.06-.02c-.3.43-.57.75-.84.95s-.54.3-.84.3c-.34,0-.6-.13-.79-.38s-.28-.61-.28-1.07c0-.53.1-1.04.31-1.52s.49-.87.86-1.15.77-.42,1.21-.42h0Z"/>
    <path class="cls-2" d="M406.47,156.81c.23,0,.43.03.6.08.17.05.3.12.4.21.1.09.18.2.22.32.05.13.07.26.07.41,0,.09,0,.17-.02.25-.01.08-.03.15-.06.22-.03.07-.07.15-.12.22-.05.07-.11.15-.19.24-.06.07-.13.16-.22.25s-.19.2-.3.3-.22.22-.34.34c-.12.12-.23.23-.34.35-.11.11-.21.23-.3.33-.09.11-.17.21-.23.3h1.25c.11,0,.19,0,.25-.01.06,0,.12-.03.16-.05s.08-.07.11-.12c.03-.06.06-.13.1-.23h.31c-.01.16-.02.32-.03.48s-.02.32-.03.48h-2.86v-.18c.05-.12.12-.24.19-.36s.15-.24.24-.36.19-.25.31-.38.24-.26.38-.4c.21-.21.38-.39.52-.54.13-.15.24-.28.31-.4.08-.12.13-.23.16-.32.03-.1.04-.21.04-.32s-.02-.22-.05-.32c-.03-.1-.08-.18-.14-.25s-.14-.12-.23-.16c-.09-.04-.2-.06-.32-.06-.21,0-.39.06-.53.17s-.25.28-.33.5h-.44v-.66c.29-.12.55-.21.8-.26.24-.05.46-.08.65-.08h0Z"/>
    <path class="cls-2" d="M408.93,160.41h.59c.03.16.05.31.05.47s-.03.3-.08.43c-.05.13-.14.26-.26.39s-.28.27-.49.43l-.18-.21c.11-.11.2-.21.25-.29.05-.09.09-.19.11-.3.02-.11.03-.25.03-.42s0-.34-.02-.51h0Z"/>
    <path class="cls-2" d="M411.94,156.81c.23,0,.43.03.6.08.17.05.3.12.4.21.1.09.18.2.22.32.05.13.07.26.07.41,0,.09,0,.17-.02.25-.01.08-.03.15-.06.22-.03.07-.07.15-.12.22-.05.07-.11.15-.19.24-.06.07-.13.16-.22.25s-.19.2-.3.3-.22.22-.34.34c-.12.12-.23.23-.34.35-.11.11-.21.23-.3.33-.09.11-.17.21-.23.3h1.25c.11,0,.19,0,.25-.01.06,0,.12-.03.16-.05s.08-.07.11-.12c.03-.06.06-.13.1-.23h.31c-.01.16-.02.32-.03.48s-.02.32-.03.48h-2.86v-.18c.05-.12.12-.24.19-.36s.15-.24.24-.36.19-.25.31-.38.24-.26.38-.4c.21-.21.38-.39.52-.54.13-.15.24-.28.31-.4.08-.12.13-.23.16-.32.03-.1.04-.21.04-.32s-.02-.22-.05-.32c-.03-.1-.08-.18-.14-.25s-.14-.12-.23-.16c-.09-.04-.2-.06-.32-.06-.21,0-.39.06-.53.17s-.25.28-.33.5h-.44v-.66c.29-.12.55-.21.8-.26.24-.05.46-.08.65-.08h0Z"/>
    <polygon class="cls-2" points="417 155.55 418.03 155.55 418.03 156.67 417 156.67 417 155.55 417 155.55"/>
    <path class="cls-2" d="M425.18,154.74c.22,0,.38.06.48.17s.15.27.15.46c0,.15-.03.32-.08.51s-.13.39-.22.6-.21.43-.34.65-.28.44-.44.65-.33.41-.51.59-.37.35-.56.49-.39.25-.59.33-.4.12-.6.12c-.09,0-.16-.02-.22-.07s-.11-.11-.15-.19-.06-.18-.08-.29-.02-.23-.02-.36c0-.18.01-.36.03-.56s.05-.4.08-.6l.19-1.28c.01-.07.02-.14.03-.21s.01-.11.01-.15c0-.1-.02-.17-.05-.24s-.08-.09-.16-.09c-.06,0-.12.02-.19.05s-.14.08-.21.14-.14.11-.2.18-.12.12-.18.18l-.22-.26c.1-.1.2-.2.3-.29s.22-.18.34-.26.25-.14.38-.19.27-.07.41-.07c.12,0,.21.02.29.06s.13.09.17.15.07.13.09.21.02.15.02.22c0,.04,0,.08,0,.12s0,.08-.01.11l-.26,1.67c-.03.18-.05.35-.07.51s-.03.32-.03.44,0,.23.02.31.04.12.09.12c.1,0,.23-.04.38-.12s.32-.19.48-.34.34-.31.51-.51.32-.41.46-.63.25-.47.33-.72.13-.51.13-.76c0-.11-.02-.2-.07-.26s-.12-.09-.22-.09c-.13,0-.25.05-.36.15s-.22.23-.34.39l-.26-.24c.07-.11.16-.22.26-.32s.21-.19.32-.27.23-.14.35-.18.24-.07.35-.07h0Z"/>
    <path class="cls-2" d="M427.94,156.81c.23,0,.43.03.6.08.17.05.3.12.4.21.1.09.18.2.22.32.05.13.07.26.07.41,0,.09,0,.17-.02.25-.01.08-.03.15-.06.22-.03.07-.07.15-.12.22-.05.07-.11.15-.19.24-.06.07-.13.16-.22.25s-.19.2-.3.3-.22.22-.34.34c-.12.12-.23.23-.34.35-.11.11-.21.23-.3.33-.09.11-.17.21-.23.3h1.25c.11,0,.19,0,.25-.01.06,0,.12-.03.16-.05s.08-.07.11-.12c.03-.06.06-.13.1-.23h.31c-.01.16-.02.32-.03.48s-.02.32-.03.48h-2.86v-.18c.05-.12.12-.24.19-.36s.15-.24.24-.36.19-.25.31-.38.24-.26.38-.4c.21-.21.38-.39.52-.54.13-.15.24-.28.31-.4.08-.12.13-.23.16-.32.03-.1.04-.21.04-.32s-.02-.22-.05-.32c-.03-.1-.08-.18-.14-.25s-.14-.12-.23-.16c-.09-.04-.2-.06-.32-.06-.21,0-.39.06-.53.17s-.25.28-.33.5h-.44v-.66c.29-.12.55-.21.8-.26.24-.05.46-.08.65-.08h0Z"/>
    <path class="cls-2" d="M430.34,160.41h.59c.03.16.05.31.05.47s-.03.3-.08.43c-.05.13-.14.26-.26.39s-.28.27-.49.43l-.18-.21c.11-.11.2-.21.25-.29.05-.09.09-.19.11-.3.02-.11.03-.25.03-.42s0-.34-.02-.51h0Z"/>
    <path class="cls-2" d="M433.61,156.84h.21c0,.12,0,.24-.01.33,0,.1,0,.19,0,.29,0,.09,0,.18,0,.27v2.57c0,.07,0,.13,0,.18s.01.09.02.13.02.06.04.09c.02.02.04.05.06.06.03.03.06.05.11.06.05.01.1.03.17.04.07.01.15.02.25.02.1,0,.22,0,.35.01v.29h-2.68v-.29c.13,0,.25,0,.34-.02.09,0,.17-.01.24-.02.07-.01.12-.02.16-.03.04-.01.07-.03.1-.05.03-.02.06-.04.08-.07.02-.02.04-.05.05-.09.01-.04.02-.08.03-.13,0-.05.01-.12.01-.19v-2.42c0-.09-.02-.15-.05-.19-.03-.04-.08-.05-.15-.05-.07,0-.17.04-.31.11-.14.07-.32.18-.53.32-.03-.05-.06-.1-.08-.16-.02-.05-.05-.1-.08-.16.28-.15.56-.31.83-.46.27-.15.55-.3.83-.45h0Z"/>
    <polygon class="cls-2" points="440.95 153.58 441.61 153.58 441.61 156.23 444.12 156.23 444.12 156.85 441.61 156.85 441.61 159.5 440.95 159.5 440.95 156.85 438.44 156.85 438.44 156.23 440.95 156.23 440.95 153.58 440.95 153.58"/>
    <path class="cls-2" d="M449.9,155.12c-.32,0-.6.13-.85.38s-.45.6-.59,1.03-.21.86-.21,1.28c0,.32.04.56.13.72s.23.24.44.24.4-.09.6-.26.4-.43.6-.75.35-.7.44-1.12l.04-.2c.03-.13.05-.24.06-.33s.01-.19.01-.3c0-.24-.05-.41-.15-.52s-.27-.17-.52-.17h0ZM449.81,154.75c.2,0,.39.02.56.07s.35.12.54.24l.42-.3.3.07-.68,2.92c-.07.29-.1.52-.1.68,0,.12.02.21.06.27s.1.08.19.08c.09,0,.19-.04.3-.11s.25-.22.44-.43l.26.26c-.28.3-.51.5-.71.63s-.41.19-.63.19c-.19,0-.34-.06-.46-.19s-.17-.29-.17-.5c0-.17.04-.35.11-.54l-.06-.02c-.3.43-.57.75-.84.95s-.54.3-.84.3c-.34,0-.6-.13-.79-.38s-.28-.61-.28-1.07c0-.53.1-1.04.31-1.52s.49-.87.86-1.15.77-.42,1.21-.42h0Z"/>
    <path class="cls-2" d="M454.33,156.84h.21c0,.12,0,.24-.01.33,0,.1,0,.19,0,.29,0,.09,0,.18,0,.27v2.57c0,.07,0,.13,0,.18,0,.05.01.09.02.13.01.03.02.06.04.09.02.02.04.05.06.06.03.03.06.05.11.06.05.01.1.03.17.04.07.01.15.02.25.02s.22,0,.35.01v.29h-2.68v-.29c.13,0,.25,0,.34-.02.09,0,.17-.01.24-.02.07-.01.12-.02.16-.03.04-.01.07-.03.1-.05.03-.02.06-.04.08-.07.02-.02.04-.05.05-.09.01-.04.02-.08.03-.13,0-.05.01-.12.01-.19v-2.42c0-.09-.02-.15-.05-.19-.03-.04-.08-.05-.15-.05-.07,0-.17.04-.31.11-.14.07-.32.18-.53.32-.03-.05-.06-.1-.08-.16-.02-.05-.05-.1-.08-.16.28-.15.56-.31.83-.46s.55-.3.83-.45h0Z"/>
    <path class="cls-2" d="M456.47,160.41h.59c.03.16.05.31.05.47s-.03.3-.08.43c-.05.13-.14.26-.26.39s-.28.27-.49.43l-.18-.21c.11-.11.2-.21.25-.29.05-.09.09-.19.11-.3.02-.11.03-.25.03-.42s0-.34-.02-.51h0Z"/>
    <path class="cls-2" d="M459.47,156.81c.18,0,.35.02.51.06.16.04.29.1.41.17.11.08.2.17.27.29.06.12.1.25.1.4,0,.14-.02.27-.06.38-.04.11-.1.21-.19.3s-.19.17-.31.25-.26.14-.42.21v.04c.15.03.29.07.42.13.13.06.25.14.34.23.1.09.18.2.23.32s.08.25.08.4c0,.18-.03.35-.1.5s-.17.29-.3.4-.3.2-.5.26c-.2.06-.43.09-.7.09-.21,0-.42-.02-.64-.06-.22-.04-.42-.1-.62-.16v-.73h.44c.04.11.08.21.13.29.05.08.11.15.17.2.07.05.14.09.23.11s.19.03.3.03c.29,0,.51-.07.66-.21.15-.14.22-.35.22-.63,0-.3-.1-.53-.3-.68-.2-.15-.49-.23-.88-.23h-.3v-.32c.24-.01.44-.04.61-.1.17-.06.32-.13.43-.21.11-.09.2-.19.26-.31s.08-.24.08-.38c0-.22-.06-.39-.19-.51-.13-.13-.31-.19-.56-.19-.21,0-.38.06-.52.17s-.25.28-.32.5h-.43v-.67c.27-.11.52-.2.75-.26.24-.06.46-.09.68-.09h0Z"/>
    <polygon class="cls-2" points="464.54 155.55 465.56 155.55 465.56 156.67 464.54 156.67 464.54 155.55 464.54 155.55"/>
    <path class="cls-2" d="M472.72,154.74c.22,0,.38.06.48.17s.15.27.15.46c0,.15-.03.32-.08.51s-.13.39-.22.6-.21.43-.34.65-.28.44-.44.65-.33.41-.51.59-.37.35-.56.49-.39.25-.59.33-.4.12-.6.12c-.09,0-.16-.02-.22-.07s-.11-.11-.15-.19-.06-.18-.08-.29-.02-.23-.02-.36c0-.18.01-.36.03-.56s.05-.4.08-.6l.19-1.28c.01-.07.02-.14.03-.21s.01-.11.01-.15c0-.1-.02-.17-.05-.24s-.08-.09-.16-.09c-.06,0-.12.02-.19.05s-.14.08-.21.14-.14.11-.2.18-.12.12-.18.18l-.22-.26c.1-.1.2-.2.3-.29s.22-.18.34-.26.25-.14.38-.19.27-.07.41-.07c.12,0,.21.02.29.06s.13.09.17.15.07.13.09.21.02.15.02.22c0,.04,0,.08,0,.12s0,.08-.01.11l-.26,1.67c-.03.18-.05.35-.07.51s-.03.32-.03.44,0,.23.02.31.04.12.09.12c.1,0,.23-.04.38-.12s.32-.19.48-.34.34-.31.51-.51.32-.41.46-.63.25-.47.33-.72.13-.51.13-.76c0-.11-.02-.2-.07-.26s-.12-.09-.22-.09c-.13,0-.25.05-.36.15s-.22.23-.34.39l-.26-.24c.07-.11.16-.22.26-.32s.21-.19.32-.27.23-.14.35-.18.24-.07.35-.07h0Z"/>
    <path class="cls-2" d="M475.46,156.81c.18,0,.35.02.51.06.16.04.29.1.41.17.11.08.2.17.27.29.06.12.1.25.1.4,0,.14-.02.27-.06.38-.04.11-.1.21-.19.3s-.19.17-.31.25-.26.14-.42.21v.04c.15.03.29.07.42.13.13.06.25.14.34.23.1.09.18.2.23.32s.08.25.08.4c0,.18-.03.35-.1.5s-.17.29-.3.4-.3.2-.5.26c-.2.06-.43.09-.7.09-.21,0-.42-.02-.64-.06-.22-.04-.42-.1-.62-.16v-.73h.44c.04.11.08.21.13.29.05.08.11.15.17.2.07.05.14.09.23.11s.19.03.3.03c.29,0,.51-.07.66-.21.15-.14.22-.35.22-.63,0-.3-.1-.53-.3-.68-.2-.15-.49-.23-.88-.23h-.3v-.32c.24-.01.44-.04.61-.1.17-.06.32-.13.43-.21.11-.09.2-.19.26-.31s.08-.24.08-.38c0-.22-.06-.39-.19-.51-.13-.13-.31-.19-.56-.19-.21,0-.38.06-.52.17s-.25.28-.32.5h-.43v-.67c.27-.11.52-.2.75-.26.24-.06.46-.09.68-.09h0Z"/>
    <path class="cls-2" d="M477.87,160.41h.59c.03.16.05.31.05.47s-.03.3-.08.43c-.05.13-.14.26-.26.39s-.28.27-.49.43l-.18-.21c.11-.11.2-.21.25-.29.05-.09.09-.19.11-.3.02-.11.03-.25.03-.42s0-.34-.02-.51h0Z"/>
    <path class="cls-2" d="M481.15,156.84h.21c0,.12,0,.24-.01.33,0,.1,0,.19,0,.29,0,.09,0,.18,0,.27v2.57c0,.07,0,.13,0,.18,0,.05.01.09.02.13.01.03.02.06.04.09.02.02.04.05.06.06.03.03.06.05.11.06.05.01.1.03.17.04.07.01.15.02.25.02s.22,0,.35.01v.29h-2.68v-.29c.13,0,.25,0,.34-.02.09,0,.17-.01.24-.02.07-.01.12-.02.16-.03.04-.01.07-.03.1-.05.03-.02.06-.04.08-.07.02-.02.04-.05.05-.09.01-.04.02-.08.03-.13,0-.05.01-.12.01-.19v-2.42c0-.09-.02-.15-.05-.19-.03-.04-.08-.05-.15-.05-.07,0-.17.04-.31.11-.14.07-.32.18-.53.32-.03-.05-.06-.1-.08-.16-.02-.05-.05-.1-.08-.16.28-.15.56-.31.83-.46s.55-.3.83-.45h0Z"/>
  </g>
</svg>