<?xml version="1.0" encoding="UTF-8"?>
<svg id="_图层_1" data-name="图层 1" xmlns="http://www.w3.org/2000/svg" viewBox="0 0 714.01 505.96">
  <defs>
    <style>
      .cls-1 {
        fill: #c0e0c1;
      }

      .cls-1, .cls-2, .cls-3, .cls-4, .cls-5, .cls-6, .cls-7, .cls-8, .cls-9, .cls-10 {
        stroke-miterlimit: 8;
      }

      .cls-1, .cls-2, .cls-3, .cls-5, .cls-6, .cls-7, .cls-8, .cls-9, .cls-10 {
        stroke-width: .67px;
      }

      .cls-1, .cls-7, .cls-8 {
        stroke: #1e6935;
      }

      .cls-11, .cls-12 {
        fill: #040000;
      }

      .cls-2 {
        fill: #d29bc4;
      }

      .cls-2, .cls-5, .cls-10 {
        stroke: #952d8a;
      }

      .cls-13 {
        fill: #c0bfbf;
      }

      .cls-13, .cls-12, .cls-14, .cls-15, .cls-16, .cls-17 {
        fill-rule: evenodd;
      }

      .cls-3 {
        fill: #f1c3ab;
      }

      .cls-3, .cls-6, .cls-9 {
        stroke: #de6f35;
      }

      .cls-4 {
        stroke: #022332;
        stroke-width: .5px;
      }

      .cls-4, .cls-18 {
        fill: none;
      }

      .cls-14 {
        fill: #f2f2f2;
      }

      .cls-19 {
        fill: #165d7e;
      }

      .cls-5 {
        fill: #bb70ab;
      }

      .cls-18 {
        stroke: #1a94c6;
        stroke-linejoin: round;
        stroke-width: .75px;
      }

      .cls-6 {
        fill: #eba682;
      }

      .cls-7 {
        fill: #5fb85b;
      }

      .cls-8 {
        fill: #89c78a;
      }

      .cls-9 {
        fill: #f9e1d5;
      }

      .cls-10 {
        fill: #ebcde2;
      }

      .cls-15 {
        fill: #bee1f0;
      }

      .cls-16 {
        fill: #747474;
      }

      .cls-17 {
        fill: #d9d9d9;
      }
    </style>
  </defs>
  <path class="cls-16" d="M376.17,125.41h33.81v7.76h-33.81v-7.76ZM376.17,137.05h33.81v7.76h-33.81v-7.76Z"/>
  <path class="cls-16" d="M376.17,271.41h33.81v7.76h-33.81v-7.76ZM376.17,283.05h33.81v7.76h-33.81v-7.76Z"/>
  <path class="cls-16" d="M376.17,418.2h33.81v7.53h-33.81v-7.53ZM376.17,429.49h33.81v7.53h-33.81v-7.53Z"/>
  <rect class="cls-9" x="240.57" y="104.11" width="21" height="21"/>
  <rect class="cls-9" x="260.57" y="104.11" width="21" height="21"/>
  <rect class="cls-9" x="281.57" y="104.11" width="21" height="21"/>
  <rect class="cls-9" x="301.57" y="104.11" width="21" height="21"/>
  <rect class="cls-9" x="322.57" y="104.11" width="21" height="21"/>
  <rect class="cls-9" x="240.57" y="83.11" width="21" height="21"/>
  <rect class="cls-9" x="260.57" y="83.11" width="21" height="21"/>
  <rect class="cls-9" x="281.57" y="83.11" width="21" height="21"/>
  <rect class="cls-9" x="301.57" y="83.11" width="21" height="21"/>
  <rect class="cls-9" x="322.57" y="83.11" width="21" height="21"/>
  <rect class="cls-9" x="240.57" y="146.11" width="21" height="20"/>
  <rect class="cls-9" x="260.57" y="146.11" width="21" height="20"/>
  <rect class="cls-9" x="281.57" y="146.11" width="21" height="20"/>
  <rect class="cls-9" x="301.57" y="146.11" width="21" height="20"/>
  <rect class="cls-9" x="322.57" y="146.11" width="21" height="20"/>
  <rect class="cls-9" x="240.57" y="125.11" width="21" height="21"/>
  <rect class="cls-9" x="260.57" y="125.11" width="21" height="21"/>
  <rect class="cls-9" x="281.57" y="125.11" width="21" height="21"/>
  <rect class="cls-9" x="301.57" y="125.11" width="21" height="21"/>
  <rect class="cls-9" x="322.57" y="125.11" width="21" height="21"/>
  <rect class="cls-9" x="240.57" y="166.11" width="21" height="21"/>
  <rect class="cls-9" x="260.57" y="166.11" width="21" height="21"/>
  <rect class="cls-9" x="281.57" y="166.11" width="21" height="21"/>
  <rect class="cls-9" x="301.57" y="166.11" width="21" height="21"/>
  <rect class="cls-9" x="322.57" y="166.11" width="21" height="21"/>
  <rect class="cls-9" x="342.57" y="104.11" width="21" height="21"/>
  <rect class="cls-9" x="342.57" y="83.11" width="21" height="21"/>
  <rect class="cls-9" x="342.57" y="146.11" width="21" height="20"/>
  <rect class="cls-9" x="342.57" y="125.11" width="21" height="21"/>
  <rect class="cls-9" x="342.57" y="166.11" width="21" height="21"/>
  <rect class="cls-1" x="240.57" y="250.11" width="21" height="21"/>
  <rect class="cls-1" x="260.57" y="250.11" width="21" height="21"/>
  <rect class="cls-1" x="281.57" y="250.11" width="21" height="21"/>
  <rect class="cls-1" x="301.57" y="250.11" width="21" height="21"/>
  <rect class="cls-1" x="322.57" y="250.11" width="21" height="21"/>
  <rect class="cls-1" x="240.57" y="230.11" width="21" height="20"/>
  <rect class="cls-1" x="260.57" y="230.11" width="21" height="20"/>
  <rect class="cls-1" x="281.57" y="230.11" width="21" height="20"/>
  <rect class="cls-1" x="301.57" y="230.11" width="21" height="20"/>
  <rect class="cls-1" x="322.57" y="230.11" width="21" height="20"/>
  <rect class="cls-1" x="240.57" y="292.11" width="21" height="21"/>
  <rect class="cls-1" x="260.57" y="292.11" width="21" height="21"/>
  <rect class="cls-1" x="281.57" y="292.11" width="21" height="21"/>
  <rect class="cls-1" x="301.57" y="292.11" width="21" height="21"/>
  <rect class="cls-1" x="322.57" y="292.11" width="21" height="21"/>
  <rect class="cls-1" x="240.57" y="271.11" width="21" height="21"/>
  <rect class="cls-1" x="260.57" y="271.11" width="21" height="21"/>
  <rect class="cls-1" x="281.57" y="271.11" width="21" height="21"/>
  <rect class="cls-1" x="301.57" y="271.11" width="21" height="21"/>
  <rect class="cls-1" x="322.57" y="271.11" width="21" height="21"/>
  <rect class="cls-1" x="240.57" y="313.11" width="21" height="20"/>
  <rect class="cls-1" x="260.57" y="313.11" width="21" height="20"/>
  <rect class="cls-1" x="281.57" y="313.11" width="21" height="20"/>
  <rect class="cls-1" x="301.57" y="313.11" width="21" height="20"/>
  <rect class="cls-1" x="322.57" y="313.11" width="21" height="20"/>
  <rect class="cls-1" x="342.57" y="250.11" width="21" height="21"/>
  <rect class="cls-1" x="342.57" y="230.11" width="21" height="20"/>
  <rect class="cls-1" x="342.57" y="292.11" width="21" height="21"/>
  <rect class="cls-1" x="342.57" y="271.11" width="21" height="21"/>
  <rect class="cls-1" x="342.57" y="313.11" width="21" height="20"/>
  <rect class="cls-10" x="240.57" y="397.11" width="21" height="21"/>
  <rect class="cls-10" x="260.57" y="397.11" width="21" height="21"/>
  <rect class="cls-10" x="281.57" y="397.11" width="21" height="21"/>
  <rect class="cls-10" x="301.57" y="397.11" width="21" height="21"/>
  <rect class="cls-10" x="322.57" y="397.11" width="21" height="21"/>
  <rect class="cls-10" x="240.57" y="376.11" width="21" height="21"/>
  <rect class="cls-10" x="260.57" y="376.11" width="21" height="21"/>
  <rect class="cls-10" x="281.57" y="376.11" width="21" height="21"/>
  <rect class="cls-10" x="301.57" y="376.11" width="21" height="21"/>
  <rect class="cls-10" x="322.57" y="376.11" width="21" height="21"/>
  <rect class="cls-10" x="240.57" y="438.11" width="21" height="21"/>
  <rect class="cls-10" x="260.57" y="438.11" width="21" height="21"/>
  <rect class="cls-10" x="281.57" y="438.11" width="21" height="21"/>
  <rect class="cls-10" x="301.57" y="438.11" width="21" height="21"/>
  <rect class="cls-10" x="322.57" y="438.11" width="21" height="21"/>
  <rect class="cls-10" x="240.57" y="418.11" width="21" height="20"/>
  <rect class="cls-10" x="260.57" y="418.11" width="21" height="20"/>
  <rect class="cls-10" x="281.57" y="418.11" width="21" height="20"/>
  <rect class="cls-10" x="301.57" y="418.11" width="21" height="20"/>
  <rect class="cls-10" x="322.57" y="418.11" width="21" height="20"/>
  <rect class="cls-10" x="240.57" y="459.11" width="21" height="21"/>
  <rect class="cls-10" x="260.57" y="459.11" width="21" height="21"/>
  <rect class="cls-10" x="281.57" y="459.11" width="21" height="21"/>
  <rect class="cls-10" x="301.57" y="459.11" width="21" height="21"/>
  <rect class="cls-10" x="322.57" y="459.11" width="21" height="21"/>
  <rect class="cls-10" x="342.57" y="397.11" width="21" height="21"/>
  <rect class="cls-10" x="342.57" y="376.11" width="21" height="21"/>
  <rect class="cls-10" x="342.57" y="438.11" width="21" height="21"/>
  <rect class="cls-10" x="342.57" y="418.11" width="21" height="20"/>
  <rect class="cls-10" x="342.57" y="459.11" width="21" height="21"/>
  <path class="cls-19" d="M158.79,223l67.74-68.93-1.43-1.4-67.74,68.93,1.43,1.4ZM227.73,157.12l2.75-8.51-8.46,2.9,5.71,5.61Z"/>
  <path class="cls-19" d="M180.07,280.61h42.99v2h-42.99v-2ZM221.73,277.61l8,4-8,4v-8Z"/>
  <path class="cls-19" d="M158.76,353.88l67.6,64.63-1.38,1.45-67.59-64.63,1.38-1.45ZM227.47,415.43l3.02,8.42-8.55-2.64,5.53-5.78Z"/>
  <path class="cls-11" d="M284.96,69.6c0-1.26.17-2.36.51-3.29.34-.93.92-1.94,1.72-3.03h.82c-.81,1.1-1.39,2.12-1.74,3.06-.35.94-.52,2.04-.52,3.27s.17,2.32.52,3.27c.35.94.93,1.97,1.74,3.08h-.82c-.79-1.06-1.35-2.06-1.71-3.01-.35-.95-.53-2.06-.53-3.35Z"/>
  <path class="cls-11" d="M293.15,73.38c-1.25,0-2.22-.45-2.93-1.34s-1.06-2.12-1.06-3.67.36-2.76,1.08-3.63c.72-.87,1.72-1.3,3-1.3.82,0,1.51.17,2.07.49.56.33,1,.85,1.31,1.58l-.85.36c-.23-.58-.56-1-.98-1.26-.42-.26-.94-.38-1.55-.38-1.01,0-1.78.37-2.33,1.1-.55.74-.82,1.75-.82,3.04s.27,2.35.82,3.11c.55.75,1.3,1.13,2.27,1.13.68,0,1.24-.16,1.68-.49.44-.33.77-.78.98-1.34l.8.37c-.64,1.49-1.81,2.24-3.5,2.24Z"/>
  <path class="cls-11" d="M299.13,72.95c0,.41-.03.75-.1,1.04s-.17.57-.33.85h-.62c.34-.55.51-1.08.51-1.59h-.45v-1.19h.99v.89Z"/>
  <path class="cls-11" d="M312.91,68.31c0,1.01-.19,1.88-.57,2.63-.38.75-.91,1.32-1.61,1.71-.7.39-1.5.59-2.42.59h-3v-9.66h2.67c1.6,0,2.83.4,3.66,1.21.84.8,1.26,1.98,1.26,3.52ZM311.98,68.31c0-2.63-1.34-3.94-4.02-3.94h-1.72v8.1h1.97c1.18,0,2.1-.37,2.77-1.09.67-.73,1-1.75,1-3.06Z"/>
  <path class="cls-11" d="M317.05,69.62c0,1.23-.17,2.32-.51,3.26-.34.94-.92,1.96-1.73,3.08h-.81c.81-1.1,1.39-2.12,1.74-3.06.35-.94.52-2.03.52-3.27s-.17-2.31-.52-3.26-.93-1.97-1.74-3.08h.81c.8,1.08,1.38,2.1,1.72,3.04.34.94.52,2.04.52,3.3Z"/>
  <path class="cls-11" d="M499.48,92.3c0,1.01-.19,1.88-.57,2.63-.38.75-.91,1.32-1.61,1.71-.7.39-1.5.59-2.42.59h-3v-9.66h2.67c1.6,0,2.83.4,3.66,1.21.84.8,1.26,1.98,1.26,3.52ZM498.55,92.3c0-2.63-1.34-3.94-4.02-3.94h-1.72v8.1h1.97c1.18,0,2.1-.37,2.77-1.09.67-.73,1-1.75,1-3.06Z"/>
  <path class="cls-11" d="M503.62,93.61c0,1.23-.17,2.32-.51,3.26-.34.94-.92,1.96-1.73,3.08h-.81c.81-1.1,1.39-2.12,1.74-3.06.35-.94.52-2.03.52-3.27s-.17-2.31-.52-3.26-.93-1.97-1.74-3.08h.81c.8,1.08,1.38,2.1,1.72,3.04.34.94.52,2.04.52,3.3Z"/>
  <path class="cls-12" d="M291.38,190.89h3.67l-.1.43c-.26.02-.47.1-.62.23s-.25.33-.31.56-.09.57-.09,1.01v.3c0,.11,0,.21,0,.33l.08,3.44c0,.25,0,.88,0,1.87v1.84s.08,0,.08,0l4.86-10h1.33v5.86c0,.97-.03,2.35-.08,4.14h.09l3.56-6.88c.13-.26.28-.56.43-.91s.22-.65.22-.9c0-.49-.29-.79-.88-.88l.1-.43h3.59l-.1.43c-.27.04-.53.18-.77.44s-.57.77-.98,1.52l-5.28,9.71h-1.35v-6.43c0-1.04.03-2.13.08-3.26h-.09l-4.7,9.69h-1.38l-.41-9.77c-.02-.49-.07-.86-.15-1.12s-.19-.45-.32-.56-.33-.19-.57-.23l.1-.43Z"/>
  <path class="cls-12" d="M308.11,200.66c-.25,0-.49.05-.71.16-.22.11-.42.26-.6.45-.18.19-.34.41-.48.66-.14.25-.26.52-.36.81-.1.29-.17.58-.22.88-.05.3-.07.59-.07.87,0,.46.07.81.2,1.03s.34.34.63.34c.2,0,.42-.07.66-.21.24-.14.47-.34.7-.59.23-.25.43-.56.62-.92.18-.36.32-.76.42-1.2.06-.23.1-.47.14-.7.04-.23.06-.45.06-.63,0-.35-.08-.6-.24-.74-.16-.15-.41-.22-.75-.22h0ZM307.99,200.03c.33,0,.62.04.88.12.26.08.5.19.72.33l.61-.44.52.14c-.28,1.28-.56,2.54-.84,3.79-.28,1.25-.54,2.43-.78,3.53-.08.3-.12.54-.12.72,0,.16.06.27.18.34.12.07.33.11.62.14l-.09.43h-2.21c.18-.7.35-1.36.51-1.96.16-.6.33-1.26.51-1.96l-.1-.03c-.21.28-.42.52-.63.72-.2.2-.4.36-.6.49-.2.13-.39.22-.59.28-.2.06-.39.09-.59.09-.51,0-.91-.18-1.19-.55s-.42-.9-.42-1.6c0-.42.04-.82.13-1.2.09-.38.21-.75.37-1.08.16-.34.35-.64.58-.92.22-.28.47-.51.73-.71.27-.2.55-.35.85-.46s.61-.16.93-.16h0Z"/>
  <path class="cls-12" d="M290.45,338.27h3.67l-.1.43c-.26.02-.47.1-.62.23s-.25.33-.31.56-.09.57-.09,1.01v.3c0,.11,0,.21,0,.33l.08,3.44c0,.25,0,.88,0,1.87v1.84s.08,0,.08,0l4.86-10h1.33v5.86c0,.97-.03,2.35-.08,4.14h.09l3.56-6.88c.13-.26.28-.56.43-.91s.22-.65.22-.9c0-.49-.29-.79-.88-.88l.1-.43h3.59l-.1.43c-.27.04-.53.18-.77.44s-.57.77-.98,1.52l-5.28,9.71h-1.35v-6.43c0-1.04.03-2.13.08-3.26h-.09l-4.7,9.69h-1.38l-.41-9.77c-.02-.49-.07-.86-.15-1.12s-.19-.45-.32-.56-.33-.19-.57-.23l.1-.43Z"/>
  <path class="cls-12" d="M307.55,345.19h.46l-1.13,5.01h.18c.16,0,.34-.03.53-.1.19-.07.38-.16.56-.27.19-.11.37-.23.54-.37s.32-.28.45-.42.24-.27.31-.4c.08-.12.12-.23.12-.32,0-.1-.03-.19-.1-.25-.07-.06-.19-.11-.37-.13l.08-.41h2.32l.16.4c-.27.23-.53.45-.78.64-.25.2-.49.39-.73.57s-.48.36-.72.54c-.24.18-.48.36-.73.55.1.33.21.66.32,1,.11.34.21.67.32,1,.05.18.1.33.15.45s.09.23.15.31.11.14.17.18c.06.04.13.06.22.06.06,0,.12-.01.19-.03s.14-.06.22-.12c.08-.06.17-.13.27-.23.1-.1.22-.22.34-.36l.44.42c-.2.21-.39.38-.56.53-.17.15-.34.27-.5.37-.16.1-.31.17-.45.21-.15.05-.29.07-.44.07-.27,0-.49-.07-.65-.2-.17-.14-.31-.33-.42-.58-.12-.25-.22-.56-.32-.91s-.21-.75-.34-1.19c-.03-.1-.06-.19-.09-.25-.03-.06-.06-.11-.11-.14s-.1-.05-.16-.06-.15-.01-.24-.01h-.41l-.71,3.24h-1.24l1.56-6.92c.05-.23.09-.41.11-.54s.03-.25.03-.35c0-.08-.01-.15-.04-.21-.03-.06-.07-.11-.14-.15s-.15-.06-.26-.08-.24-.03-.4-.03l.1-.44,1.77-.08h0Z"/>
  <path class="cls-12" d="M291.4,484.57h3.67l-.1.43c-.26.02-.47.1-.62.23s-.25.33-.31.56-.09.57-.09,1.01v.3c0,.11,0,.21,0,.33l.08,3.44c0,.25,0,.88,0,1.87v1.84s.08,0,.08,0l4.86-10h1.33v5.86c0,.97-.03,2.35-.08,4.14h.09l3.56-6.88c.13-.26.28-.56.43-.91s.22-.65.22-.9c0-.49-.29-.79-.88-.88l.1-.43h3.59l-.1.43c-.27.04-.53.18-.77.44s-.57.77-.98,1.52l-5.28,9.71h-1.35v-6.43c0-1.04.03-2.13.08-3.26h-.09l-4.7,9.69h-1.38l-.41-9.77c-.02-.49-.07-.86-.15-1.12s-.19-.45-.32-.56-.33-.19-.57-.23l.1-.43Z"/>
  <path class="cls-12" d="M306.03,493.71c.18,0,.33.04.45.11.11.07.2.17.27.29.07.12.11.25.14.39.02.14.04.28.04.42,0,.08,0,.19-.03.33l-.41,2.33c-.04.22-.07.44-.1.66-.03.21-.04.4-.04.57s.01.3.03.4c.02.1.04.15.06.15.14,0,.31-.05.53-.16s.44-.26.68-.45.48-.42.72-.68c.24-.26.45-.55.64-.85.19-.31.34-.63.46-.97.12-.34.18-.68.18-1.02,0-.2-.04-.35-.11-.44s-.18-.14-.31-.14c-.14,0-.28.07-.44.2-.15.13-.32.3-.48.51l-.38-.38c.1-.17.23-.33.37-.48s.29-.29.45-.4.32-.21.49-.28c.17-.07.34-.1.5-.1.34,0,.58.11.73.32.15.21.23.5.23.85,0,.21-.04.44-.11.71-.08.27-.18.55-.32.84-.14.3-.3.6-.49.91-.19.31-.4.61-.63.91-.23.29-.47.57-.73.83-.26.26-.53.49-.81.68s-.57.35-.86.46c-.29.11-.58.17-.87.17-.15,0-.28-.03-.39-.09-.1-.06-.18-.15-.24-.26-.06-.11-.09-.25-.12-.4-.02-.15-.03-.32-.03-.51,0-.24.02-.51.05-.79.03-.28.07-.56.12-.84.23-1.38.34-2.18.34-2.4,0-.16,0-.27-.05-.33-.05-.06-.11-.09-.19-.09-.09,0-.18.02-.27.07-.1.05-.19.11-.29.18-.1.07-.19.15-.29.24-.09.08-.18.16-.26.24l-.35-.43c.14-.15.29-.3.45-.45s.33-.29.51-.41c.18-.12.37-.22.57-.29.2-.07.4-.11.6-.11h0Z"/>
  <polygon class="cls-15" points="8.73 232.27 41.49 232.27 41.49 261.43 8.73 261.43 8.73 232.27 8.73 232.27"/>
  <polygon class="cls-18" points="8.73 232.27 41.49 232.27 41.49 261.43 8.73 261.43 8.73 232.27 8.73 232.27"/>
  <path class="cls-11" d="M21.1,244.03v-2.63c-.7.12-1.63.25-2.81.4-.29-.57-.56-.99-.81-1.26.41.05.83.07,1.25.07,1.7,0,3.5-.38,5.4-1.13l.67.98c.07.1.11.17.11.21,0,.02,0,.04-.03.05s-.05.03-.11.03-.12,0-.21-.02c-.09-.02-.18-.03-.25-.03-.08,0-.16,0-.23.03-.64.18-1.28.34-1.92.47v2.83h3.99c-.18-2.45-.3-4.25-.34-5.41l1.63.38c.12.03.18.07.18.11.01.04-.04.09-.14.16-.28.22-.41.61-.41,1.19.01,1.36.06,2.55.16,3.57h4.41c.29.01.65-.02,1.1-.11v1.12c-.5-.09-.88-.13-1.13-.11h-4.32c.15,1.84.45,3.41.92,4.72.88-1.22,1.49-2.57,1.83-4.03l1.34.76c.11.06.15.11.12.14,0,.04-.08.1-.23.18-.24.13-.44.36-.6.7-.54,1.12-1.2,2.26-2,3.4.8,1.87,1.67,2.9,2.59,3.09.43.07.69-.53.79-1.8.36.26.73.47,1.12.62-.44,1.69-.96,2.53-1.56,2.53-.06,0-.1,0-.13,0-1.18-.11-2.36-1.28-3.54-3.5-1.08,1.1-2.34,2.15-3.78,3.16-.41-.3-.87-.53-1.39-.7,1.71-.65,3.27-1.83,4.7-3.55-.58-1.18-.99-3.08-1.23-5.7h-4.06v3.26c1.12-.4,2.06-.8,2.8-1.2l.02,1.15c-1.15.42-2.09.78-2.82,1.08v4.21c.02.72-.17,1.2-.58,1.42-.39.25-1.23.41-2.52.47.01-.47-.1-.93-.34-1.39.72.11,1.25.17,1.58.17.19,0,.33-.02.42-.05.29-.06.42-.34.4-.83v-3.58c-1.44.49-2.53.97-3.28,1.42l-.81-1.2c1.37-.28,2.73-.71,4.09-1.29v-3.64h-2.83c-.35-.01-.81.03-1.41.11v-1.12c.5.08.96.12,1.37.11h2.87ZM28.01,240.38l.77-.7c.9.74,1.83,1.6,2.79,2.56l-.81.83c-.97-1.08-1.89-1.97-2.76-2.68Z"/>
  <polygon class="cls-15" points="8.25 273.31 42.09 273.31 42.09 302.47 8.25 302.47 8.25 273.31 8.25 273.31"/>
  <polygon class="cls-18" points="8.25 273.31 42.09 273.31 42.09 302.47 8.25 302.47 8.25 273.31 8.25 273.31"/>
  <path class="cls-11" d="M16.45,291.99c1.4-1.21,2.79-3.17,4.17-5.86h-2.54c-.43.01-.9.05-1.41.11v-1.12c.5.06.97.09,1.41.11h2.76v-3.28c-.71.12-1.75.28-3.14.46-.09-.39-.27-.8-.54-1.23.36.01.63.02.81.02,2.36,0,4.39-.35,6.1-1.05l.67,1.13s.04.08.04.11c0,.02,0,.04-.03.05-.02.02-.09.03-.2.02-.09-.02-.17-.03-.25-.03-.11,0-.25.01-.42.04-.18.02-.48.07-.89.15-.56.08-.95.14-1.15.18v3.44h1.87c.52-.01,1.01-.05,1.48-.11v1.12c-.49-.06-.98-.09-1.46-.11h-1.89v.83c1.19.83,2.21,1.63,3.08,2.43l-.77.99c-.72-.81-1.49-1.55-2.3-2.2v6.61c.01.4.05.92.11,1.55h-1.23c.06-.57.1-1.09.11-1.55v-6.92c-1.05,1.69-2.09,3.26-3.14,4.7-.26-.23-.68-.42-1.26-.58ZM25.66,282.18c.64.06,1.16.09,1.57.11h3.01c.46-.01.98-.05,1.55-.11-.06.53-.1,1.03-.11,1.49v9.24c.01.45.05.96.11,1.53h-1.23c.06-.48.1-.92.11-1.32h-3.93c.01.43.05.9.11,1.41h-1.2c.06-.54.1-1.04.11-1.49v-9.38c-.01-.43-.05-.93-.11-1.48ZM26.77,283.19v9.04h3.89v-9.04h-3.89Z"/>
  <polygon class="cls-15" points="8.25 310.63 40.89 310.63 40.89 339.67 8.25 339.67 8.25 310.63 8.25 310.63"/>
  <polygon class="cls-18" points="8.25 310.63 40.89 310.63 40.89 339.67 8.25 339.67 8.25 310.63 8.25 310.63"/>
  <path class="cls-11" d="M15.85,324.49c1.83-1.55,3.16-4.01,3.98-7.38l1.31.52c.19.08.28.13.27.17.02.04-.04.09-.19.18-.19.1-.38.38-.56.83-.37.94-.68,1.66-.93,2.16v11.07c0,.54.04,1.13.11,1.78h-1.22c.07-.62.11-1.21.11-1.78v-9.08c-.54.9-1.01,1.63-1.41,2.2-.42-.24-.91-.46-1.46-.66ZM20.55,330.98c1.41-1.08,2.5-2.85,3.28-5.33l1.4.66c.11.06.16.13.15.18-.02.07-.1.12-.24.14-.23.09-.45.35-.67.77-.62,1.41-1.47,2.85-2.56,4.32-.42-.3-.87-.55-1.36-.76ZM24.35,316.87l1.51.43c.15.04.21.08.19.11,0,.04-.07.1-.21.19-.19.1-.35.34-.48.72-.23.67-.5,1.38-.8,2.11h5.89c.53,0,1.07-.04,1.62-.11-.25,1.05-.67,2.28-1.24,3.69-.46-.12-.91-.19-1.36-.21.45-.76.81-1.58,1.07-2.47h-6.39c-.61,1.25-1.29,2.36-2.05,3.35-.46-.22-.97-.37-1.53-.47,1.96-1.63,3.22-4.08,3.78-7.35ZM24.44,333.79c-.05-.54-.17-1.06-.36-1.56.71.17,1.25.25,1.61.25.14,0,.25-.01.32-.04.29-.06.42-.35.4-.89v-6.96c0-.52-.04-1.1-.11-1.77l1.35.18c.13.01.19.04.19.07.01.04-.04.1-.14.19-.19.16-.29.6-.29,1.32v7.32c.02.83-.13,1.33-.47,1.49-.29.22-1.12.34-2.5.38ZM29.5,325.85c1.17,1.55,2.25,3.09,3.23,4.63l-1.08.81c-.98-1.71-2.04-3.27-3.18-4.7l1.03-.74Z"/>
  <polygon class="cls-17" points="60.57 252.31 81.69 252.31 81.69 273.31 60.57 273.31 60.57 252.31 60.57 252.31"/>
  <polygon class="cls-4" points="60.57 252.31 81.69 252.31 81.69 273.31 60.57 273.31 60.57 252.31 60.57 252.31"/>
  <polygon class="cls-17" points="81.33 252.31 102.33 252.31 102.33 273.31 81.33 273.31 81.33 252.31 81.33 252.31"/>
  <polygon class="cls-4" points="81.33 252.31 102.33 252.31 102.33 273.31 81.33 273.31 81.33 252.31 81.33 252.31"/>
  <polygon class="cls-17" points="102.33 252.31 123.45 252.31 123.45 273.31 102.33 273.31 102.33 252.31 102.33 252.31"/>
  <polygon class="cls-4" points="102.33 252.31 123.45 252.31 123.45 273.31 102.33 273.31 102.33 252.31 102.33 252.31"/>
  <polygon class="cls-17" points="123.09 252.31 144.21 252.31 144.21 273.31 123.09 273.31 123.09 252.31 123.09 252.31"/>
  <polygon class="cls-4" points="123.09 252.31 144.21 252.31 144.21 273.31 123.09 273.31 123.09 252.31 123.09 252.31"/>
  <polygon class="cls-17" points="144.21 252.31 165.21 252.31 165.21 273.31 144.21 273.31 144.21 252.31 144.21 252.31"/>
  <polygon class="cls-4" points="144.21 252.31 165.21 252.31 165.21 273.31 144.21 273.31 144.21 252.31 144.21 252.31"/>
  <polygon class="cls-14" points="60.57 273.31 81.69 273.31 81.69 294.43 60.57 294.43 60.57 273.31 60.57 273.31"/>
  <polygon class="cls-4" points="60.57 273.31 81.69 273.31 81.69 294.43 60.57 294.43 60.57 273.31 60.57 273.31"/>
  <polygon class="cls-14" points="81.33 273.31 102.33 273.31 102.33 294.43 81.33 294.43 81.33 273.31 81.33 273.31"/>
  <polygon class="cls-4" points="81.33 273.31 102.33 273.31 102.33 294.43 81.33 294.43 81.33 273.31 81.33 273.31"/>
  <polygon class="cls-14" points="102.33 273.31 123.45 273.31 123.45 294.43 102.33 294.43 102.33 273.31 102.33 273.31"/>
  <polygon class="cls-4" points="102.33 273.31 123.45 273.31 123.45 294.43 102.33 294.43 102.33 273.31 102.33 273.31"/>
  <polygon class="cls-14" points="123.09 273.31 144.21 273.31 144.21 294.43 123.09 294.43 123.09 273.31 123.09 273.31"/>
  <polygon class="cls-4" points="123.09 273.31 144.21 273.31 144.21 294.43 123.09 294.43 123.09 273.31 123.09 273.31"/>
  <polygon class="cls-14" points="144.21 273.31 165.21 273.31 165.21 294.43 144.21 294.43 144.21 273.31 144.21 273.31"/>
  <polygon class="cls-4" points="144.21 273.31 165.21 273.31 165.21 294.43 144.21 294.43 144.21 273.31 144.21 273.31"/>
  <polygon class="cls-13" points="60.57 294.43 81.69 294.43 81.69 315.55 60.57 315.55 60.57 294.43 60.57 294.43"/>
  <polygon class="cls-4" points="60.57 294.43 81.69 294.43 81.69 315.55 60.57 315.55 60.57 294.43 60.57 294.43"/>
  <polygon class="cls-13" points="81.33 294.43 102.33 294.43 102.33 315.55 81.33 315.55 81.33 294.43 81.33 294.43"/>
  <polygon class="cls-4" points="81.33 294.43 102.33 294.43 102.33 315.55 81.33 315.55 81.33 294.43 81.33 294.43"/>
  <polygon class="cls-13" points="102.33 294.43 123.45 294.43 123.45 315.55 102.33 315.55 102.33 294.43 102.33 294.43"/>
  <polygon class="cls-4" points="102.33 294.43 123.45 294.43 123.45 315.55 102.33 315.55 102.33 294.43 102.33 294.43"/>
  <polygon class="cls-13" points="123.09 294.43 144.21 294.43 144.21 315.55 123.09 315.55 123.09 294.43 123.09 294.43"/>
  <polygon class="cls-4" points="123.09 294.43 144.21 294.43 144.21 315.55 123.09 315.55 123.09 294.43 123.09 294.43"/>
  <polygon class="cls-13" points="144.21 294.43 165.21 294.43 165.21 315.55 144.21 315.55 144.21 294.43 144.21 294.43"/>
  <polygon class="cls-4" points="144.21 294.43 165.21 294.43 165.21 315.55 144.21 315.55 144.21 294.43 144.21 294.43"/>
  <path class="cls-11" d="M96.46,238.66c0-1.26.17-2.36.51-3.29.34-.93.92-1.94,1.72-3.03h.82c-.81,1.1-1.39,2.12-1.74,3.06s-.52,2.04-.52,3.27.17,2.32.52,3.27c.35.94.93,1.97,1.74,3.07h-.82c-.79-1.05-1.36-2.06-1.71-3.01-.35-.95-.53-2.06-.53-3.35Z"/>
  <path class="cls-11" d="M107.68,242.3l-5.77-8.58c.04.74.06,1.33.06,1.78v6.8h-.86v-9.66h1.08l5.81,8.64c-.05-.64-.08-1.29-.08-1.93v-6.72h.88v9.66h-1.12Z"/>
  <path class="cls-11" d="M112.09,242.01c0,.41-.03.75-.1,1.04-.06.28-.17.57-.33.85h-.62c.34-.55.51-1.08.51-1.59h-.45v-1.19h.99v.89Z"/>
  <path class="cls-11" d="M117.99,242.44c-1.25,0-2.22-.45-2.93-1.34-.71-.89-1.06-2.12-1.06-3.67s.36-2.76,1.08-3.63c.72-.87,1.72-1.3,3-1.3.82,0,1.51.17,2.07.49.56.33,1,.86,1.31,1.58l-.85.36c-.23-.58-.56-1.01-.98-1.26s-.94-.38-1.55-.38c-1,0-1.78.37-2.33,1.1-.55.74-.82,1.75-.82,3.04s.27,2.35.82,3.11,1.3,1.13,2.27,1.13c.68,0,1.24-.16,1.68-.49.44-.33.77-.78.98-1.34l.8.37c-.64,1.5-1.81,2.24-3.5,2.24Z"/>
  <path class="cls-11" d="M125.32,238.68c0,1.23-.17,2.32-.51,3.26-.34.94-.92,1.96-1.73,3.07h-.81c.81-1.1,1.39-2.12,1.74-3.06s.52-2.04.52-3.27-.17-2.31-.52-3.26c-.35-.95-.93-1.97-1.74-3.09h.81c.8,1.08,1.38,2.1,1.72,3.04.34.94.52,2.04.52,3.3Z"/>
  <path class="cls-12" d="M10.88,356.93h3.67l-.1.43c-.26.02-.47.1-.62.23s-.25.33-.31.56-.09.57-.09,1.01v.3c0,.11,0,.21,0,.33l.08,3.44c0,.25,0,.88,0,1.87v1.84s.08,0,.08,0l4.86-10h1.33v5.86c0,.97-.03,2.35-.08,4.14h.09l3.56-6.88c.13-.26.28-.56.43-.91s.22-.65.22-.9c0-.49-.29-.79-.88-.88l.1-.43h3.59l-.1.43c-.27.04-.53.18-.77.44s-.57.77-.98,1.52l-5.28,9.71h-1.35v-6.43c0-1.04.03-2.13.08-3.26h-.09l-4.7,9.69h-1.38l-.41-9.77c-.02-.49-.07-.86-.15-1.12s-.19-.45-.32-.56-.33-.19-.57-.23l.1-.43Z"/>
  <path class="cls-12" d="M34.09,365.03h10.83v1.17h-10.83v-1.17h0ZM34.09,361.38h10.83v1.17h-10.83v-1.17h0Z"/>
  <path class="cls-12" d="M134.2,355.35h3.92v16.76h-3.92v-.68h2.46v-15.41h-2.46v-.68h0ZM53.26,355.35h3.92v.68h-2.46v15.41h2.46v.68h-3.92v-16.76h0Z"/>
  <path class="cls-12" d="M58.2,360.53h2.3l.53,6.93c.83-1.35,1.42-2.37,1.79-3.08.37-.7.64-1.31.81-1.82s.31-1.05.4-1.6l.1-.43h1.27l.64,6.94c.91-1.3,1.61-2.44,2.09-3.41s.72-1.76.72-2.37c0-.28-.06-.46-.18-.56s-.32-.16-.6-.18l.09-.43h2.27l.24.44c-.21.52-.37.92-.49,1.2s-.28.62-.48,1.02-.41.79-.63,1.18-.48.82-.79,1.3-.64.98-1.02,1.54-.82,1.18-1.33,1.87h-1.05l-.36-3.67c-.03-.29-.06-.66-.09-1.12s-.05-.82-.07-1.07h-.1c-.32.77-.75,1.64-1.29,2.59-.54.96-1.22,2.05-2.02,3.28h-1.18l-.67-6.62c-.04-.34-.08-.62-.13-.83s-.14-.37-.26-.47-.33-.17-.61-.19l.1-.43Z"/>
  <path class="cls-12" d="M74.21,364.35h.39c0,.24-.02.45-.02.63,0,.19,0,.37,0,.54,0,.18,0,.35,0,.52v4.9c0,.13,0,.25.01.34,0,.1.02.18.04.24.02.07.05.12.08.17.03.05.07.09.11.12.05.05.12.09.21.12.09.03.2.05.33.07.13.02.29.03.48.05s.41.02.67.02v.56h-5.11v-.56c.25,0,.47-.02.64-.03.18-.01.33-.03.45-.05.12-.02.22-.04.3-.06.08-.02.14-.05.2-.09.06-.04.11-.08.15-.13.04-.05.08-.1.1-.17.03-.07.05-.15.06-.25.02-.1.02-.22.02-.37v-4.62c0-.17-.03-.29-.1-.35-.06-.07-.16-.1-.28-.1-.13,0-.33.07-.59.21-.26.14-.6.34-1.02.61-.06-.1-.11-.2-.15-.3-.05-.1-.1-.2-.15-.3.53-.29,1.06-.58,1.58-.87s1.05-.58,1.59-.87h0Z"/>
  <path class="cls-12" d="M79.44,366.89h1.54c.08.41.12.81.12,1.21s-.07.79-.21,1.12-.36.68-.67,1.02-.73.71-1.27,1.11l-.47-.54c.3-.28.52-.53.65-.76s.23-.48.29-.77.09-.65.09-1.08-.02-.88-.06-1.32h0Z"/>
  <path class="cls-12" d="M85.44,360.53h2.3l.53,6.93c.83-1.35,1.42-2.37,1.79-3.08s.64-1.31.81-1.82.31-1.05.4-1.6l.1-.43h1.27l.64,6.94c.91-1.3,1.61-2.44,2.09-3.41s.72-1.76.72-2.37c0-.28-.06-.46-.18-.56s-.32-.16-.6-.18l.09-.43h2.27l.24.44c-.21.52-.37.92-.49,1.2s-.28.62-.48,1.02-.41.79-.63,1.18-.48.82-.79,1.3-.64.98-1.02,1.54-.82,1.18-1.33,1.87h-1.05l-.36-3.67c-.03-.29-.06-.66-.09-1.12s-.05-.82-.07-1.07h-.1c-.32.77-.75,1.64-1.29,2.59s-1.22,2.05-2.02,3.28h-1.18l-.67-6.62c-.04-.34-.08-.62-.13-.83s-.14-.37-.26-.47-.33-.17-.61-.19l.1-.43Z"/>
  <path class="cls-12" d="M101.43,364.3c.45,0,.83.05,1.14.15.32.1.57.24.77.41s.34.38.43.62c.09.24.13.5.13.78,0,.17-.01.32-.04.47-.02.14-.06.29-.12.43s-.13.28-.23.42c-.09.14-.21.29-.35.45-.11.14-.25.3-.42.48s-.36.37-.56.58-.42.42-.64.64c-.22.22-.44.44-.65.66-.21.22-.4.43-.58.64-.18.21-.32.4-.43.57h2.38c.2,0,.36,0,.48-.02.12-.02.22-.05.3-.1s.15-.13.2-.24c.06-.11.12-.25.19-.44h.6c-.02.31-.04.61-.06.92s-.04.62-.06.92h-5.46v-.34c.1-.23.22-.46.36-.69.14-.23.29-.45.46-.69s.37-.47.59-.72.46-.5.73-.77c.4-.4.73-.75.99-1.03.25-.29.45-.54.6-.76s.25-.43.3-.62c.05-.19.08-.39.08-.61s-.03-.42-.09-.61c-.06-.18-.15-.34-.27-.47-.12-.13-.26-.23-.44-.3-.18-.07-.38-.11-.62-.11-.4,0-.73.11-1.01.33-.27.22-.48.53-.63.94h-.84v-1.26c.55-.23,1.06-.39,1.52-.5.46-.1.88-.15,1.25-.15h0Z"/>
  <path class="cls-12" d="M107.16,366.89h1.54c.08.41.12.81.12,1.21s-.07.79-.21,1.12-.36.68-.67,1.02-.73.71-1.27,1.11l-.47-.54c.3-.28.52-.53.65-.76s.23-.48.29-.77.09-.65.09-1.08-.02-.88-.06-1.32h0Z"/>
  <path class="cls-12" d="M113.28,360.53h2.3l.53,6.93c.83-1.35,1.42-2.37,1.79-3.08s.64-1.31.81-1.82.31-1.05.4-1.6l.1-.43h1.27l.64,6.94c.91-1.3,1.61-2.44,2.09-3.41s.72-1.76.72-2.37c0-.28-.06-.46-.18-.56s-.32-.16-.6-.18l.09-.43h2.27l.24.44c-.21.52-.37.92-.49,1.2s-.28.62-.48,1.02-.41.79-.63,1.18-.48.82-.79,1.3-.64.98-1.02,1.54-.82,1.18-1.33,1.87h-1.05l-.36-3.67c-.03-.29-.06-.66-.09-1.12s-.05-.82-.07-1.07h-.1c-.32.77-.75,1.64-1.29,2.59s-1.22,2.05-2.02,3.28h-1.18l-.67-6.62c-.04-.34-.08-.62-.13-.83s-.14-.37-.26-.47-.33-.17-.61-.19l.1-.43Z"/>
  <path class="cls-12" d="M129.26,364.3c.34,0,.66.04.96.11s.56.18.78.33c.22.15.39.33.51.55.12.22.18.48.18.77,0,.27-.04.52-.12.73-.08.21-.2.4-.36.57s-.36.33-.59.47c-.23.14-.5.27-.81.4v.08c.29.05.56.13.81.25.25.11.47.26.65.43.19.17.33.37.44.6s.16.48.16.75c0,.34-.06.66-.19.96s-.32.55-.58.76-.58.38-.95.5c-.38.12-.82.18-1.33.18-.4,0-.81-.04-1.22-.12-.41-.08-.8-.18-1.17-.31v-1.39h.83c.07.21.15.4.24.55s.21.28.33.37c.13.1.27.17.44.21.17.04.35.06.56.06.55,0,.97-.13,1.26-.4.29-.26.43-.66.43-1.2,0-.57-.19-1-.56-1.3-.38-.29-.93-.44-1.67-.44h-.57v-.62c.45-.02.84-.08,1.17-.19.33-.11.6-.24.82-.41.22-.17.38-.36.49-.59s.16-.46.16-.72c0-.41-.12-.74-.37-.98s-.6-.36-1.06-.36c-.39,0-.72.11-.98.32-.26.21-.47.53-.61.96h-.82v-1.27c.51-.21.99-.38,1.43-.49s.88-.16,1.29-.16h0Z"/>
  <g>
    <path class="cls-11" d="M12.58,390.47l1,.34c.14.05.21.09.21.13s-.07.1-.2.18c-.14.09-.26.28-.38.58-.11.31-.21.64-.31.97h1.28c.25,0,.62-.03,1.1-.09v.84c-.44-.05-.81-.07-1.1-.08h-1.51c-.46,1.28-.91,2.46-1.37,3.52h1.37v-1.18c0-.37-.04-.81-.08-1.33l1.01.17c.14.02.21.05.21.08,0,.04-.04.12-.15.23-.15.14-.23.38-.23.72v1.32h.32c.28,0,.65-.04,1.11-.08v.84c-.53-.06-.9-.09-1.11-.09h-.32v2.04c.64-.14,1.16-.29,1.54-.45-.05.24-.07.56-.08.94-.54.08-1.03.17-1.46.25v1.73c0,.25.03.65.08,1.19h-.93c.05-.49.07-.89.08-1.19v-1.56c-.06.02-.16.05-.27.08-.68.17-1.31.34-1.9.5l-.38-.87c.73-.05,1.58-.2,2.55-.45v-2.21h-1.12c-.33,0-.65.05-.96.16-.13-.3-.27-.58-.42-.83.25-.06.49-.35.71-.87.36-.73.68-1.62.96-2.65h-.52c-.28,0-.64.03-1.08.08v-.84c.41.05.77.08,1.08.09h.71c.21-.72.39-1.45.53-2.19ZM13.8,395c1.71-.94,3.06-2.49,4.07-4.65l.99.27c.09.03.14.06.14.1,0,.03-.06.07-.17.13-.06.04-.12.08-.18.14.98,1.71,2.47,2.81,4.45,3.33-.35.24-.61.5-.8.8-1.81-.87-3.17-2.05-4.1-3.55-1.2,1.73-2.36,3.07-3.5,4.02-.28-.23-.58-.42-.9-.58ZM17.72,401.81v-1.23h-1.65v1.47c0,.3.04.7.08,1.22h-.87c.05-.52.08-.92.09-1.22v-4.93c0-.35-.04-.76-.09-1.25.54.05.96.07,1.25.08h.75c.31,0,.71-.04,1.21-.08-.05.48-.07.89-.08,1.21v4.97c0,.45-.07.74-.24.87-.15.15-.53.27-1.14.35-.05-.38-.18-.72-.38-1.02.21.04.38.06.51.06.42,0,.61.03.59.08-.03.05-.04-.11-.04-.47,0-.05,0-.08,0-.11ZM16.08,396.6v1.35h1.65v-1.35h-1.65ZM16.08,398.6v1.34h1.65v-1.34h-1.65ZM16.34,394.82v-.82c.48.06.85.09,1.08.09h1.89c.29,0,.66-.04,1.1-.09v.82c-.49-.05-.85-.07-1.1-.08h-1.89c-.24,0-.6.04-1.08.08ZM19.24,396.31l.98.17c.13.02.21.05.23.08,0,.04-.03.1-.12.18-.18.2-.28.45-.29.77v2.54c0,.32.04.71.08,1.18h-.87c.05-.47.07-.87.08-1.18v-2.41c0-.28-.04-.73-.08-1.34ZM19.48,402.2c.37.09.68.13.93.13.49,0,.72.04.69.12-.03.08-.04-.1-.04-.54,0-.04,0-.08-.01-.13v-5.04c0-.3-.04-.75-.08-1.34l1.01.17c.14.02.21.05.21.08.02.03-.02.08-.11.17-.17.18-.26.44-.27.78v5.32c.02.54-.1.88-.36,1.03-.21.18-.74.29-1.58.34-.06-.38-.19-.75-.38-1.1Z"/>
    <path class="cls-11" d="M24.02,402.05c2.88-1.5,4.81-4.27,5.79-8.32.03-.14.05-.27.05-.38,0-.32-.11-.55-.34-.7-.42-.32-.84-.56-1.25-.73.33-.24.56-.49.69-.75.98.61,1.69,1.32,2.13,2.13.05.1.13.29.24.58,1.7,4.42,3.72,7.1,6.07,8.03-.52.15-.92.4-1.22.73-2.41-1.96-4.27-4.82-5.57-8.56-1.06,3.85-2.88,6.74-5.46,8.66-.29-.34-.66-.57-1.11-.69Z"/>
    <path class="cls-11" d="M38.21,402.72c1.25-1.18,1.86-3.47,1.82-6.88v-2.65c0-.2-.03-.62-.08-1.27.62.06,1.06.09,1.32.09h4.5c-.48-.41-1.06-.81-1.73-1.2l.49-.66c.76.5,1.44.96,2.04,1.39l-.32.47h3.67c.32-.01.71-.04,1.18-.09v.87c-.5-.05-.89-.07-1.18-.08h-9.06v3.4c.06,2.83-.43,5.11-1.46,6.86-.26-.12-.65-.21-1.18-.25ZM42.55,397.22h4.14c-.83-.42-1.67-.81-2.54-1.18l.35-.7c.31.14.93.43,1.86.86.64-.41,1.3-.96,2-1.63h-5.04c-.28,0-.64.04-1.08.09v-.87c.5.05.86.08,1.08.08h5.33c.37,0,.83-.03,1.41-.08-.69.89-1.66,1.81-2.92,2.78.17.09.33.18.48.28l-.2.38h2.8c.16,0,.53-.03,1.12-.07-.15.35-.36.79-.64,1.34-.05.1-.13.27-.25.5-.25.5-.42.86-.52,1.08-.32-.13-.63-.23-.94-.28.48-.67.83-1.29,1.08-1.86h-3.3v4.11c.02.48-.11.8-.39.95-.27.17-.86.27-1.76.31-.05-.33-.17-.67-.37-1.04.44.05.78.07,1.04.07.2,0,.33-.01.41-.04.21-.05.3-.23.28-.53v-3.83h-3.43c-.27,0-.63.04-1.1.08v-.87c.49.06.86.08,1.1.08Z"/>
    <path class="cls-11" d="M58.83,391.97h-2.47c-.13.62-.31,1.32-.52,2.08h2.33c.32,0,.68-.02,1.08-.09-.11,4.79-2.07,7.94-5.88,9.45-.22-.35-.5-.65-.83-.91,2.17-.62,3.69-1.73,4.56-3.33-.68-.69-1.4-1.32-2.16-1.89l.63-.71c.6.48,1.26,1.06,1.98,1.74.41-.75.68-1.94.82-3.58h-2.8c-.65,1.39-1.49,2.55-2.5,3.47-.31-.27-.61-.5-.9-.68,1.73-.95,2.82-2.81,3.28-5.57h-1.66c-.34,0-.71.02-1.11.09v-.87c.39.06.75.09,1.08.08h5.04c.5,0,.9-.02,1.19-.08v.87c-.28-.07-.67-.1-1.17-.09ZM61.71,399.76h-.95c.06-.38.09-.77.08-1.18v-5.28c0-.37-.02-.82-.08-1.35l1.02.14c.1.02.15.05.16.1,0,.05-.06.11-.16.15-.1.05-.15.33-.15.84v5.39c0,.4.02.8.08,1.19ZM61.72,403.22c-.08-.48-.22-.88-.42-1.21.51.08.91.12,1.21.12.19,0,.34-.02.43-.05.27-.05.4-.25.38-.59v-9.9c0-.39-.03-.84-.09-1.33l1.15.14c.07,0,.11.04.12.08,0,.06-.03.11-.1.16-.19.12-.28.4-.27.83v10.29c0,.53-.15.9-.49,1.08-.34.21-.98.34-1.93.38Z"/>
    <path class="cls-11" d="M66.17,396.6c2.13-1.2,3.6-3.14,4.41-5.84l.95.37c.14.05.2.09.19.12,0,.04-.06.1-.19.19-.2.09-.38.33-.54.71-.96,2.09-2.27,3.78-3.91,5.08-.27-.25-.57-.46-.91-.63ZM67.25,402.39c2.58-.87,3.89-2.9,3.91-6.08h-.93c-.36,0-.75.03-1.17.09v-.87c.39.05.78.08,1.17.08h4.59c.52,0,.99-.03,1.43-.08-.06.46-.1.89-.12,1.3l-.12,2.58c-.05,1.48-.24,2.38-.59,2.71-.29.4-1.06.64-2.32.71-.12-.36-.29-.72-.51-1.08.34.03.66.05.96.05.61,0,.99-.08,1.15-.25.3-.18.46-.82.47-1.92l.14-3.32h-3.27c-.1,3.28-1.43,5.57-3.98,6.88-.23-.28-.51-.55-.84-.8ZM74.37,390.33c.7,2.65,2.33,4.64,4.89,5.99-.32.16-.66.4-1.01.71-2.2-1.59-3.79-3.78-4.76-6.57l.88-.12Z"/>
    <path class="cls-11" d="M83.49,396.1l-.08,5.27c.54-.53,1.04-1.1,1.52-1.71.04.32.16.61.37.88-1.21,1.19-1.97,2.01-2.3,2.45-.3-.38-.55-.64-.76-.77.25-.24.38-.53.38-.85l.1-5.64h-1.17c-.25,0-.63.03-1.12.09v-.87c.47.05.84.08,1.12.08h.6c.3,0,.77-.03,1.42-.08-.05.48-.07.86-.08,1.15ZM81.48,391.28l.62-.59c.59.58,1.24,1.29,1.96,2.12l-.63.59c-.79-.94-1.44-1.64-1.95-2.12ZM90.75,393.85v.87c-.42-.04-.79-.07-1.12-.08h-3.72c-.32,0-.7.04-1.14.08v-.87c.51.05.89.08,1.14.08h3.71c.28,0,.66-.04,1.13-.08ZM92.47,391.38c-.05.49-.07.91-.08,1.25v9.34c.02.44-.14.73-.48.88-.32.17-.97.28-1.96.35,0-.38-.16-.76-.44-1.17.5.09.91.13,1.23.13.22,0,.38-.02.49-.06.27-.06.4-.32.38-.76v-9.18h-5.36c-.24,0-.62.03-1.14.08v-.87c.48.06.85.09,1.14.09h4.84c.34,0,.8-.03,1.39-.09ZM85.67,396.18c.64.05,1.09.08,1.34.08h1.69c.23,0,.71-.03,1.43-.08-.05.56-.07.99-.08,1.27v1.6c0,.25.04.65.08,1.21-.54-.06-.97-.09-1.29-.09h-1.81c-.3.01-.76.04-1.36.09.05-.5.07-.94.08-1.32v-1.47c0-.29-.03-.72-.08-1.29ZM86.52,396.96v2.52h2.78v-2.52h-2.78Z"/>
    <path class="cls-11" d="M94.62,396.62c1.16-.64,2.09-1.5,2.79-2.55h-1.25c-.32,0-.72.04-1.19.08v-.87c.51.05.91.08,1.19.08h1.78v-1.73c0-.31-.04-.77-.08-1.39l1.02.17c.16.02.24.04.25.07.02.03-.02.08-.11.17-.21.18-.32.51-.32,1.01v1.7h1.6c.21,0,.59-.03,1.17-.08v.87c-.51-.05-.9-.07-1.17-.08h-1.54c.41.28,1.2.87,2.37,1.78-.2.23-.39.47-.58.73-.54-.56-1.15-1.1-1.85-1.62v.5c0,.27.04.68.08,1.25h-.92c.04-.55.07-.97.08-1.25v-.79c-.77,1.06-1.59,1.95-2.47,2.69-.21-.26-.5-.5-.86-.73ZM95.87,398.1h1.25c.21-.51.39-.95.53-1.32l.97.38c.1.04.14.08.14.12s-.05.08-.16.12c-.14.03-.26.15-.38.38l-.19.32h1.74s.15,0,.38-.03c.54-.04.82-.05.85-.04-.27.89-.77,1.86-1.49,2.91.13.06.33.14.6.24.27.11.46.19.59.25-.12.18-.24.43-.38.77-.28-.16-.74-.38-1.39-.63-.96.75-2,1.32-3.1,1.7-.18-.29-.43-.59-.76-.9,1.11-.05,2.13-.43,3.06-1.14-.66-.28-1.44-.54-2.33-.79.34-.47.67-1.01.97-1.64h-.93c-.29,0-.68.04-1.15.08v-.87c.52.05.9.08,1.15.08ZM96.16,390.99c.13.2.31.46.53.8.21.31.37.55.5.74l-.66.45c-.31-.57-.65-1.12-1.02-1.63l.64-.36ZM97.68,398.81l-.66,1.22c.57.21,1.15.42,1.74.63.44-.54.8-1.15,1.09-1.85h-2.17ZM100.67,390.73l.75.58c.06.05.09.09.08.13,0,.03-.05.05-.14.05-.15,0-.32.12-.52.36-.17.2-.49.59-.95,1.18-.13-.11-.34-.26-.62-.45.55-.56,1.02-1.18,1.41-1.86ZM105.01,394.3h-2.25c-.25.45-.54.93-.85,1.42-.23-.13-.54-.24-.95-.35,1.22-1.24,1.93-2.97,2.12-5.17l1.04.32c.11.04.18.08.18.12,0,.03-.05.07-.16.12-.17.07-.29.26-.36.56-.33,1.12-.57,1.88-.73,2.28h3.01c.27,0,.64-.04,1.11-.08v.87c-.54-.06-.91-.09-1.11-.09h-.24c-.24,2.37-.7,4.17-1.36,5.38.97,1.27,2.02,2.15,3.13,2.64-.39.18-.7.43-.91.77-.76-.53-1.65-1.41-2.67-2.64-.89,1.22-1.92,2.18-3.08,2.89-.2-.31-.48-.54-.84-.71,1.51-.72,2.63-1.7,3.37-2.95-.63-.96-1.09-2.21-1.41-3.78.38-.03.65-.07.82-.12.16,1.07.51,2.1,1.05,3.08.53-.99.89-2.51,1.08-4.57Z"/>
    <path class="cls-11" d="M110.8,394.76c-.17,0-.31-.06-.44-.18-.12-.12-.18-.28-.18-.46s.06-.33.18-.45c.12-.12.27-.18.45-.18s.33.06.46.18c.13.12.19.27.19.45,0,.17-.06.32-.18.45-.12.13-.28.2-.47.2ZM110.8,401.35c-.18,0-.33-.06-.45-.19s-.18-.28-.18-.45c0-.18.06-.33.17-.45.12-.12.27-.18.45-.18s.33.06.46.18.19.27.19.45c0,.17-.06.32-.18.45-.12.13-.28.19-.47.19Z"/>
  </g>
  <path class="cls-11" d="M129.78,401.76l-5.77-8.58c.04.74.06,1.33.06,1.78v6.8h-.86v-9.66h1.08l5.81,8.64c-.05-.64-.08-1.29-.08-1.93v-6.72h.88v9.66h-1.12Z"/>
  <path class="cls-11" d="M13.29,412.91l-.08,5.26c.53-.53,1.04-1.1,1.52-1.71.04.32.16.61.37.88-1.21,1.19-1.97,2.01-2.3,2.45-.3-.38-.56-.64-.76-.77.25-.24.37-.53.38-.85l.1-5.63h-1.17c-.25,0-.63.03-1.12.09v-.87c.47.05.84.08,1.12.08h.6c.3,0,.77-.03,1.42-.08-.05.48-.07.86-.08,1.15ZM11.28,408.09l.62-.59c.59.58,1.24,1.29,1.96,2.12l-.63.59c-.79-.94-1.44-1.64-1.95-2.12ZM20.55,410.66v.87c-.42-.04-.79-.07-1.12-.08h-3.72c-.32,0-.7.04-1.14.08v-.87c.51.05.89.08,1.14.08h3.71c.28,0,.66-.04,1.13-.08ZM22.27,408.18c-.05.49-.07.91-.08,1.25v9.34c.02.44-.14.73-.48.88-.32.16-.97.28-1.96.35,0-.38-.16-.76-.44-1.17.5.09.91.13,1.23.13.22,0,.38-.02.49-.06.27-.06.4-.32.38-.76v-9.18h-5.36c-.24,0-.62.03-1.14.08v-.87c.48.06.85.09,1.14.09h4.84c.34,0,.8-.03,1.39-.09ZM15.47,412.99c.64.05,1.09.08,1.34.08h1.69c.23,0,.71-.03,1.43-.08-.05.56-.07.99-.08,1.27v1.6c0,.25.04.65.08,1.21-.54-.06-.97-.09-1.29-.09h-1.81c-.3.01-.76.04-1.36.09.05-.5.07-.94.08-1.32v-1.47c0-.29-.03-.72-.08-1.29ZM16.32,413.77v2.52h2.78v-2.52h-2.78Z"/>
  <g>
    <path class="cls-11" d="M28.43,407.27l1.24.49c.11.05.16.08.14.11,0,.04-.09.09-.25.14-.22.07-.39.22-.51.43-.38.66-.69,1.18-.93,1.56h6.35c.45,0,.91-.03,1.38-.09-.06.42-.09.84-.09,1.25v7.18c.03.67-.09,1.06-.38,1.19-.21.18-.91.31-2.1.41-.1-.4-.24-.78-.44-1.12.52.05.93.08,1.24.08.25,0,.42-.02.51-.05.26-.06.37-.26.36-.62v-7.51h-8.71v7.82c0,.44.03.91.08,1.42h-.98c.05-.48.08-.95.08-1.42v-7.43c0-.35-.03-.75-.08-1.21.48.06.92.09,1.32.09h.55c.62-.93,1.02-1.84,1.22-2.74ZM32.93,412.79c-.06.39-.09.78-.09,1.15v1.9c0,.36.03.76.09,1.21-.42-.06-.84-.09-1.27-.09h-2.3c-.41,0-.82.03-1.22.09.06-.44.09-.84.09-1.21v-1.89c0-.35-.03-.74-.09-1.17.42.05.83.08,1.22.08h2.37c.4,0,.8-.03,1.21-.08ZM29.01,416.26h3.05v-2.68h-3.05v2.68Z"/>
    <path class="cls-11" d="M51.09,411.88v.82c-.41-.07-.79-.1-1.14-.08h-10.41c-.33-.01-.71.01-1.14.08v-.82c.33.06.71.09,1.14.08h10.41c.33,0,.71-.02,1.14-.08ZM39.91,418.97h4.59v-.78h-3.55c-.43,0-.81.02-1.15.08v-.82c.34.06.72.09,1.15.08h3.55v-.81h-2.99c-.42,0-.81.02-1.17.08.06-.43.09-.82.08-1.17v-1.34c0-.33-.02-.72-.08-1.15.4.07.78.1,1.12.09h6.71c.35,0,.75-.02,1.21-.09-.06.41-.09.79-.08,1.14v1.35c0,.39.02.78.08,1.17-.48-.05-.88-.08-1.21-.08h-2.89v.81h3.34c.33,0,.71-.02,1.15-.08v.82c-.42-.06-.8-.09-1.15-.08h-3.34v.78h4.38c.32,0,.7-.02,1.15-.08v.82c-.46-.07-.85-.1-1.15-.09h-9.76c-.33,0-.71.02-1.15.1v-.83c.35.06.74.09,1.15.08ZM49.11,407.87c-.06.33-.09.65-.08.97v1.57c0,.27.02.6.08.99-.44-.06-.77-.09-1.01-.08h-6.51c-.3,0-.52,0-.66.01-.13,0-.3.03-.49.07.07-.37.1-.7.09-.98v-1.49c0-.32-.03-.68-.09-1.07.29.07.65.1,1.08.09h6.6c.27,0,.6-.02.98-.09ZM41.18,413.83v.84h3.31v-.84h-3.31ZM41.18,415.26v.87h3.31v-.87h-3.31ZM41.29,408.55v.79h6.98v-.79h-6.98ZM41.29,409.94v.8h6.98v-.8h-6.98ZM45.28,413.83v.84h3.26v-.84h-3.26ZM45.28,415.26v.87h3.26v-.87h-3.26Z"/>
    <path class="cls-11" d="M54.94,407.17l.94.58c.13.08.19.14.19.18,0,.04-.09.07-.24.1-.18.04-.34.19-.49.47-.47.85-1.11,1.94-1.92,3.25.6,0,1.23-.04,1.91-.09.52-.95.89-1.75,1.11-2.41l1.06.69c.1.06.14.1.12.13,0,.04-.09.07-.24.11-.18.08-.33.2-.45.38-1.17,2-2.16,3.58-2.98,4.75,1.02-.1,2.1-.27,3.23-.52l-.21.94c-2.4.36-3.68.59-3.82.69l-.44-1.05c.35-.12.65-.4.9-.82.37-.56.81-1.27,1.3-2.13-.86,0-1.62.09-2.26.27l-.32-1c.35-.21.58-.43.71-.67.88-1.39,1.52-2.67,1.91-3.83ZM52.4,418.39c1.99-.34,3.62-.76,4.89-1.25l-.11,1.04c-2.13.51-3.56.95-4.31,1.3l-.47-1.1ZM56.06,412.96c1.52-1.37,2.58-3.27,3.19-5.72l1.09.53c.1.05.15.09.14.13,0,.04-.08.08-.2.13-.18.05-.32.21-.42.47-.16.37-.4.9-.73,1.6h4.89c.27,0,.56-.02.88-.08v.84c-.34-.07-.62-.1-.86-.09h-1.97v2.05h1.52c.26,0,.53-.02.82-.08v.84c-.32-.06-.58-.09-.8-.08h-1.55v2.04h1.51c.25,0,.52-.02.8-.09v.84c-.32-.06-.58-.09-.8-.08h-1.51v2.16h2.21c.26,0,.54-.02.83-.08v.82c-.34-.07-.62-.1-.84-.09h-5.13c0,.33.02.69.09,1.08h-.96c.07-.38.1-.74.09-1.1v-7.37c-.36.57-.77,1.18-1.24,1.84-.31-.2-.67-.37-1.06-.51ZM59.15,410.78v2.05h2.15v-2.05h-2.15ZM59.15,413.51v2.04h2.15v-2.04h-2.15ZM59.15,416.22v2.16h2.15v-2.16h-2.15ZM61.52,407.31c.65.85,1.14,1.56,1.47,2.12l-.78.58c-.42-.79-.89-1.51-1.42-2.15l.73-.55Z"/>
    <path class="cls-11" d="M66.38,418.99c.76-.64,1.26-1.41,1.5-2.33.27-.86.39-2.31.38-4.35v-2.62c.01-.41-.01-.84-.08-1.31.48.05.9.08,1.25.08h4.62c-.37-.29-.84-.61-1.43-.97l.49-.64c.61.37,1.16.73,1.65,1.1l-.36.51h3.53c.3,0,.69-.03,1.18-.08v.9c-.51-.05-.9-.08-1.18-.08h-8.85v3.38c0,1.78-.1,3.11-.32,3.98-.21.9-.65,1.86-1.34,2.88-.24-.2-.58-.34-1.03-.44ZM73.28,417.68c-.89-.78-1.55-1.58-1.97-2.41h-.17c-.27,0-.63.02-1.09.08v-.87c.43.06.79.09,1.09.08h4.98c.27,0,.65-.02,1.17-.08-.63,1.03-1.51,2.1-2.64,3.2,1.47.76,3.01,1.16,4.61,1.21-.27.25-.47.59-.62,1.02-1.93-.33-3.49-.89-4.68-1.68-1.35.8-2.83,1.44-4.45,1.92-.17-.4-.38-.72-.64-.97,1.57-.14,3.04-.64,4.41-1.5ZM72.48,410.77h3.08v-.19c.01-.43-.01-.85-.08-1.28l1.06.16c.13.02.19.04.19.07,0,.03-.05.09-.17.2-.14.13-.21.43-.21.9v.15h1.12c.28,0,.65-.02,1.11-.08v.87c-.47-.06-.84-.09-1.11-.08h-1.12v.97c0,.3.02.7.08,1.21-.55-.06-.99-.09-1.32-.08h-2.47c-.29,0-.63.03-1.04.08.05-.4.08-.76.08-1.08v-1.09h-1.17c-.27,0-.63.02-1.08.08v-.87c.43.06.79.09,1.08.08h1.17v-.18c0-.38-.03-.79-.08-1.24l1.07.16c.12,0,.18.03.18.07s-.06.1-.17.2c-.14.1-.21.4-.21.9v.1ZM73.96,417.21c.74-.59,1.34-1.24,1.81-1.95h-3.56c.39.64.98,1.29,1.75,1.95ZM72.48,411.47v1.38h3.08v-1.38h-3.08Z"/>
    <path class="cls-11" d="M82.72,411.56c-.17,0-.31-.06-.44-.18-.12-.12-.18-.28-.18-.46s.06-.33.18-.45c.12-.12.27-.18.45-.18s.33.06.46.18c.13.12.19.27.19.45,0,.17-.06.32-.18.45-.12.13-.28.2-.47.2ZM82.72,418.15c-.18,0-.33-.06-.45-.19s-.18-.28-.18-.45c0-.18.06-.33.17-.45.12-.12.27-.18.45-.18s.33.06.46.18.19.27.19.45c0,.17-.06.32-.18.45-.12.13-.28.19-.47.19Z"/>
  </g>
  <path class="cls-11" d="M98.69,418.7c-1.25,0-2.22-.45-2.93-1.34-.71-.89-1.06-2.12-1.06-3.67s.36-2.76,1.08-3.63c.72-.87,1.72-1.3,3-1.3.82,0,1.51.17,2.07.49s1,.85,1.31,1.58l-.85.36c-.23-.58-.56-1-.98-1.26s-.94-.38-1.55-.38c-1,0-1.78.37-2.33,1.1-.55.74-.82,1.75-.82,3.04s.27,2.35.82,3.1c.55.75,1.3,1.13,2.27,1.13.68,0,1.24-.17,1.68-.49s.77-.78.98-1.34l.8.37c-.64,1.5-1.81,2.24-3.5,2.24Z"/>
  <g>
    <path class="cls-11" d="M12.4,427.96h-.53c-.34,0-.76.03-1.25.08v-.87c.46.05.88.08,1.25.08h.73v-1.97c0-.38-.03-.8-.08-1.25l1.04.14c.12,0,.19.03.2.05,0,.02-.04.06-.14.12-.18.09-.26.39-.25.92v1.97h.27c.4,0,.83-.03,1.28-.08v.87c-.42-.05-.85-.08-1.28-.08h-.27v.77c.56.51,1.18,1.1,1.85,1.77l-.69.69c-.33-.5-.72-.98-1.17-1.43v5.8c0,.37.03.81.08,1.33h-.93c.05-.48.08-.92.08-1.33v-5.69c-.5,1.19-1.04,2.26-1.6,3.21-.28-.21-.6-.38-.95-.51.97-.99,1.76-2.53,2.35-4.61ZM18.27,431.81l.87.17c.19.04.29.07.31.09,0,0,0,.01,0,.02,0,.02-.05.06-.14.1-.1.05-.19.21-.25.47,0,.02-.01.05-.01.11,0,.05-.01.08-.01.11h2.89c.41,0,.79-.03,1.14-.08v.87c-.4-.06-.78-.08-1.14-.08h-2.34c.59,1.24,1.78,2.07,3.58,2.48-.3.21-.55.52-.75.91-1.77-.79-2.97-1.88-3.61-3.27-.46,1.27-1.72,2.35-3.79,3.24-.16-.34-.39-.64-.67-.88,1.93-.46,3.13-1.28,3.59-2.48h-2.24c-.35,0-.72.03-1.12.08v-.87c.4.05.78.08,1.12.08h2.5c.08-.34.11-.7.09-1.06ZM16.3,425.66h.86v-.21c0-.38-.03-.79-.09-1.25l1.06.14c.12,0,.19.03.19.07s-.06.08-.17.13c-.16.05-.24.35-.23.91v.21h1.77v-.32c0-.37-.03-.8-.08-1.28l1.04.14c.12,0,.18.03.19.05,0,.03-.04.07-.14.12-.18.04-.26.36-.25.96v.32h1.35c.37,0,.76-.03,1.15-.09v.87c-.37-.06-.75-.08-1.15-.08h-1.35c0,.25.03.55.08.88h-.93c.06-.34.08-.63.08-.88h-1.77c0,.3.03.61.09.91h-.93c.06-.29.09-.59.09-.91h-.86c-.38,0-.79.03-1.23.08v-.87c.51.06.92.09,1.23.09ZM15.84,431.82c.06-.34.09-.69.09-1.07v-2.15c0-.29-.03-.66-.09-1.1.49.05.9.08,1.22.08h3.81c.38,0,.78-.03,1.18-.08-.05.42-.08.78-.08,1.07v2.17c0,.37.03.72.08,1.07-.36-.06-.73-.09-1.12-.09h-3.94c-.34,0-.72.03-1.15.09ZM16.68,429.28h4.52v-1.01h-4.52v1.01ZM16.68,429.95v1.11h4.52v-1.11h-4.52Z"/>
    <path class="cls-11" d="M25.65,435.61h4.76v-1.86h-3.17c-.18,0-.56.03-1.14.09v-.87c.51.04.89.07,1.14.08h3.17v-.39c0-.29-.04-.74-.08-1.34l1.02.16c.1,0,.15.03.16.05.02.03,0,.08-.07.15-.17.16-.25.52-.24,1.08v.28h3.02c.25,0,.63-.03,1.12-.08v.87c-.53-.06-.91-.09-1.12-.09h-3.02v1.86h4.49c.3,0,.68-.04,1.12-.09v.87c-.53-.06-.9-.08-1.12-.08h-10.04c-.28,0-.66.04-1.14.08v-.87c.47.05.85.08,1.14.09ZM29.31,428.65h-1.78c-.14,1.28-.75,2.45-1.85,3.52-.31-.25-.62-.45-.94-.59,1.18-.53,1.85-1.5,2.01-2.93h-.86c-.29,0-.68.04-1.15.08v-.87c.48.05.87.08,1.15.09h.94c.03-.64.04-1.37.03-2.19h-.35c-.26,0-.64.04-1.15.08v-.87c.51.06.9.09,1.15.09h3.96c.28,0,.66-.04,1.12-.09v.87c-.47-.05-.84-.07-1.12-.08h-.36v2.19h.86c.23,0,.61-.03,1.14-.09v.87c-.47-.04-.85-.07-1.14-.08h-.86v1.58c0,.22.03.61.08,1.17h-.95c.05-.48.07-.86.08-1.17v-1.58ZM27.59,427.95h1.73v-2.19h-1.65c0,.67-.02,1.4-.08,2.19ZM33.67,426.65v2.53c0,.22.03.61.09,1.17h-.93c.05-.53.08-.91.09-1.17v-2.65c0-.38-.04-.83-.09-1.32l1.03.14c.1,0,.16.03.16.06,0,.03-.02.07-.08.14-.17.2-.26.57-.27,1.11ZM35.45,424.24l1.01.14c.1,0,.16.03.16.08,0,.02-.02.07-.1.15-.15.13-.22.49-.21,1.07v4.68c0,.59-.12.98-.39,1.18-.27.22-.8.36-1.6.41-.07-.41-.21-.75-.4-1.01.33.04.59.06.78.06.23,0,.4-.03.51-.08.22-.09.33-.31.32-.68v-4.68c0-.29-.04-.73-.09-1.32Z"/>
    <path class="cls-11" d="M40.9,423.97l.94.58c.13.08.19.14.19.18s-.09.07-.24.1c-.18.04-.34.19-.49.47-.47.85-1.11,1.94-1.92,3.25.6,0,1.23-.04,1.91-.09.52-.95.89-1.75,1.11-2.41l1.06.69c.1.06.14.1.12.13,0,.04-.09.07-.24.11-.18.08-.33.2-.45.38-1.17,2-2.16,3.58-2.98,4.75,1.02-.1,2.1-.27,3.23-.52l-.21.94c-2.4.36-3.68.59-3.82.69l-.44-1.06c.35-.12.65-.39.9-.82.37-.56.81-1.27,1.3-2.13-.86,0-1.62.09-2.26.27l-.32-1c.35-.21.58-.43.71-.67.88-1.39,1.52-2.67,1.91-3.83ZM38.36,435.19c1.99-.34,3.62-.76,4.89-1.25l-.11,1.04c-2.13.51-3.56.95-4.31,1.3l-.47-1.1ZM42.02,429.76c1.52-1.37,2.58-3.27,3.19-5.72l1.09.53c.1.05.15.09.14.13s-.08.08-.2.13c-.18.05-.32.21-.42.47-.16.37-.4.9-.73,1.6h4.89c.27,0,.56-.02.88-.08v.84c-.34-.07-.62-.1-.86-.09h-1.97v2.05h1.52c.26,0,.53-.02.82-.08v.84c-.32-.06-.58-.09-.8-.08h-1.55v2.04h1.51c.25,0,.52-.02.8-.09v.84c-.32-.06-.58-.09-.8-.08h-1.51v2.16h2.21c.26,0,.54-.02.83-.08v.82c-.34-.07-.62-.1-.84-.09h-5.13c0,.33.02.69.09,1.08h-.96c.07-.38.1-.74.09-1.1v-7.37c-.36.57-.77,1.18-1.24,1.84-.31-.2-.67-.37-1.06-.51ZM45.11,427.58v2.05h2.15v-2.05h-2.15ZM45.11,430.31v2.04h2.15v-2.04h-2.15ZM45.11,433.01v2.16h2.15v-2.16h-2.15ZM47.48,424.11c.65.85,1.14,1.56,1.47,2.12l-.78.58c-.42-.8-.89-1.51-1.42-2.15l.73-.55Z"/>
    <path class="cls-11" d="M52.34,435.79c.76-.64,1.26-1.41,1.5-2.33.27-.86.39-2.31.38-4.35v-2.62c.01-.41-.01-.84-.08-1.31.48.05.9.08,1.25.08h4.62c-.37-.29-.84-.61-1.43-.97l.49-.64c.61.37,1.16.73,1.65,1.1l-.36.51h3.53c.3,0,.69-.03,1.18-.08v.9c-.51-.06-.9-.08-1.18-.08h-8.85v3.38c0,1.78-.1,3.11-.32,3.98-.21.9-.65,1.86-1.34,2.88-.24-.2-.58-.34-1.03-.44ZM59.24,434.47c-.89-.78-1.55-1.58-1.97-2.41h-.17c-.27,0-.63.02-1.09.08v-.87c.43.06.79.09,1.09.08h4.98c.27,0,.65-.02,1.17-.08-.63,1.03-1.51,2.09-2.64,3.2,1.47.76,3.01,1.16,4.61,1.21-.27.25-.48.59-.62,1.02-1.93-.33-3.49-.89-4.68-1.68-1.35.8-2.83,1.44-4.45,1.92-.17-.4-.38-.72-.64-.97,1.57-.14,3.04-.64,4.41-1.5ZM58.44,427.56h3.08v-.19c.01-.42-.01-.85-.08-1.28l1.06.16c.13.02.19.04.19.07,0,.03-.05.09-.16.2-.14.13-.21.43-.21.9v.15h1.12c.28,0,.65-.02,1.11-.08v.87c-.47-.06-.84-.09-1.11-.08h-1.12v.97c0,.3.02.7.08,1.21-.55-.06-.99-.09-1.32-.08h-2.47c-.29,0-.63.03-1.04.08.05-.4.08-.76.08-1.08v-1.09h-1.17c-.27,0-.63.02-1.08.08v-.87c.43.06.79.09,1.08.08h1.17v-.18c0-.37-.03-.79-.08-1.24l1.07.16c.12,0,.18.03.18.07s-.05.1-.16.2c-.14.1-.21.4-.21.9v.1ZM59.92,434.01c.74-.59,1.34-1.24,1.81-1.95h-3.56c.39.64.98,1.29,1.75,1.95ZM58.44,428.27v1.38h3.08v-1.38h-3.08Z"/>
    <path class="cls-11" d="M68.68,428.36c-.17,0-.32-.06-.44-.18-.12-.12-.19-.28-.19-.46s.06-.33.18-.45c.12-.12.27-.18.45-.18s.33.06.46.18c.13.12.19.27.19.45s-.06.32-.18.45-.28.2-.47.2ZM68.68,434.95c-.18,0-.33-.06-.45-.19-.12-.13-.18-.28-.18-.45,0-.18.06-.33.17-.45.12-.12.27-.18.45-.18s.33.06.46.18c.13.12.19.27.19.45,0,.17-.06.32-.19.45-.12.13-.28.19-.47.19Z"/>
  </g>
  <path class="cls-11" d="M88.68,430.42c0,1.01-.19,1.88-.57,2.63-.38.75-.91,1.32-1.61,1.71-.7.39-1.5.59-2.42.59h-3v-9.66h2.67c1.6,0,2.83.4,3.66,1.21.84.8,1.26,1.98,1.26,3.52ZM87.75,430.42c0-2.63-1.34-3.94-4.02-3.94h-1.72v8.1h1.97c1.18,0,2.1-.36,2.77-1.09.67-.73,1-1.75,1-3.06Z"/>
  <g>
    <path class="cls-11" d="M242.51,21.11v-.86c-.08.05-.2.13-.36.23-.59.39-1.07.69-1.44.91-.42-.47-.91-.91-1.48-1.34,3.16-1.21,5.71-3.45,7.63-6.73l1.77.58c.22.08.31.18.29.3-.04.13-.18.25-.45.36,2.38,2.65,5.11,4.3,8.2,4.96-.73.47-1.27,1-1.62,1.58-.76-.3-1.48-.65-2.16-1.05v1.08c-.71-.11-1.46-.17-2.23-.18h-2.3v2.46h1.78c.79,0,1.54-.06,2.23-.18v1.71c-.75-.08-1.49-.13-2.23-.14h-1.78v2.86h4.03c.83-.01,1.6-.06,2.3-.14v1.71c-.6-.13-1.37-.2-2.3-.2h-9.55c-1,.02-1.77.08-2.31.18v-1.7c.59.08,1.36.13,2.31.14h3.88v-2.86h-1.68c-.78.01-1.52.06-2.23.14v-1.69c.61.08,1.35.13,2.23.16h1.68v-2.46h-1.98c-.73.01-1.47.06-2.23.16ZM247.51,15.61c-1.15,1.56-2.47,2.87-3.96,3.91h.11c.56.02.92.04,1.08.04h6.08c.45,0,.83,0,1.17-.04-1.86-1.21-3.36-2.51-4.48-3.91Z"/>
    <path class="cls-11" d="M257.21,29.26c1.61-1.62,2.37-4.49,2.3-8.6v-2.94c0-.87-.05-1.72-.12-2.56,1.04.09,1.89.13,2.55.14h4.31c-.49-.37-1.09-.76-1.8-1.17l.94-1.26c1.24.7,2.27,1.34,3.11,1.92l-.36.5h3.6c.85-.03,1.59-.08,2.23-.14v1.62c-.87-.06-1.62-.11-2.23-.12h-10.57v4.32c.08,3.52-.57,6.46-1.96,8.83-.51-.24-1.17-.42-2-.55ZM263.31,21.93h3.78c-.63-.32-1.46-.69-2.48-1.12l.68-1.33,2.4,1.12c.63-.4,1.25-.88,1.85-1.46h-5.31c-.09,0-.41.03-.94.08-.33.03-.57.05-.72.06v-1.63c.84.09,1.4.14,1.66.14h6.33c.4,0,1.2-.06,2.38-.18-1.07,1.34-2.33,2.58-3.76,3.71.22.09.39.16.5.23l-.23.38h3.04c.66-.04,1.31-.08,1.94-.12-.78,1.58-1.49,2.99-2.13,4.21-.63-.25-1.23-.42-1.82-.52.57-.81,1.02-1.55,1.35-2.21h-3.28v4.69c.02.71-.18,1.17-.61,1.37-.4.25-1.29.4-2.67.45-.07-.56-.29-1.17-.66-1.84.75.08,1.34.13,1.78.13.37.02.55-.09.55-.35,0-.04,0-.07,0-.11v-4.35h-3.64c-.5.01-1.07.05-1.69.12v-1.62c.81.09,1.38.13,1.69.14Z"/>
    <path class="cls-11" d="M283.58,15.8h-2.36c-.1.4-.25,1-.47,1.78-.04.12-.06.22-.08.28h2c.74,0,1.46-.05,2.16-.14-.15,6.19-2.73,10.29-7.74,12.3-.38-.58-.86-1.1-1.46-1.55,2.87-.84,4.81-2.17,5.84-3.98-.77-.8-1.69-1.58-2.74-2.36l1.17-1.28c.91.71,1.7,1.39,2.38,2.06.36-.83.62-2.06.77-3.69h-2.88c-.77,1.65-1.87,3.12-3.31,4.41-.57-.49-1.12-.9-1.65-1.23,2.22-1.19,3.63-3.39,4.23-6.6h-1.22c-.66,0-1.38.05-2.16.14v-1.65c.74.1,1.46.15,2.16.16h5.36c.76,0,1.48-.06,2.16-.18v1.69c-.7-.11-1.42-.16-2.16-.16ZM288.01,25.39h-1.91c.09-.57.14-1.38.14-2.41v-5.55c0-.59-.05-1.32-.14-2.2l1.91.24c.23.03.35.11.38.24.01.13-.08.28-.29.47-.16.12-.23.4-.23.86v5.94c0,.98.05,1.79.14,2.41ZM287.36,29.73c-.16-.67-.42-1.34-.77-2.01.91.13,1.59.19,2.06.19.48.02.7-.16.66-.55v-12.16c0-.59-.04-1.27-.14-2.05l1.92.29c.22.04.35.11.37.23s-.06.25-.24.41c-.18.13-.26.48-.25,1.03v12.59c.02.73-.23,1.22-.74,1.49-.5.29-1.45.47-2.87.54Z"/>
    <path class="cls-11" d="M294.64,28.3c3.29-1.07,4.96-3.46,5-7.16h-.41c-.71.01-1.44.06-2.16.16v-.9c-.7.77-1.41,1.44-2.14,2.01-.57-.5-1.1-.9-1.6-1.2,2.82-1.45,4.71-3.95,5.69-7.51l1.51.58c.35.13.53.25.53.35.02.1-.13.25-.45.46-.18.1-.36.36-.54.79-.66,1.38-1.45,2.65-2.39,3.81.48.06,1,.09,1.56.09h5.27c.49,0,.97-.02,1.46-.07-1.35-1.47-2.53-3.54-3.53-6.22l1.82-.27c.84,3.16,2.95,5.72,6.32,7.66-.6.31-1.22.76-1.85,1.35-.77-.6-1.47-1.22-2.12-1.85-.05.45-.08.83-.08,1.17l-.16,3.67c-.05,1.77-.33,2.87-.84,3.29-.39.48-1.51.76-3.37.85-.18-.52-.48-1.16-.92-1.91.88.09,1.5.14,1.85.14.62.01,1.02-.15,1.2-.47.19-.26.31-.93.34-2,.02-.45.05-1.12.09-2,.04-.87.06-1.54.08-1.99h-3.38c-.13,3.91-1.89,6.79-5.29,8.62-.57-.64-1.07-1.12-1.48-1.46Z"/>
    <path class="cls-11" d="M315.89,20.66l-.09,5.76c.48-.51,1.08-1.23,1.78-2.16.09.83.29,1.46.61,1.89-1.68,1.7-2.76,2.87-3.23,3.52-.52-.69-.98-1.15-1.39-1.41.39-.36.59-.72.6-1.1l.12-6.7h-1.12c-.49.01-1.06.06-1.71.13v-1.64c.79.11,1.36.16,1.71.17h.76c.25,0,.96-.05,2.11-.15-.09.82-.14,1.39-.15,1.7ZM312.67,14.72l1.19-1.12c1.01,1.01,1.95,2.02,2.82,3.02l-1.22,1.13c-1.11-1.36-2.04-2.37-2.79-3.04ZM325.21,17.62v1.63c-.68-.08-1.25-.13-1.71-.14h-4.6c-.38.01-.95.06-1.72.14v-1.63c.83.09,1.4.14,1.72.14h4.58c.39-.01.97-.06,1.72-.14ZM319.31,14.7h6.06c.92-.04,1.61-.11,2.08-.2-.08.82-.12,1.45-.14,1.89v11.52c.02.62-.21,1.04-.71,1.27-.47.25-1.46.42-2.94.52-.02-.59-.29-1.27-.81-2.04,1.04.18,1.74.27,2.1.27.29,0,.49-.06.6-.17.1-.1.15-.31.14-.62v-11.09h-6.37c-.23,0-.81.05-1.72.15v-1.62c.91.08,1.49.12,1.72.12ZM318.41,22.34c-.01-.63-.05-1.25-.11-1.87.79.09,1.44.14,1.96.15h2.11c.16,0,.7-.04,1.61-.11.23-.02.4-.04.51-.04-.08.91-.13,1.53-.14,1.85v1.98c.01.3.06.89.14,1.77-.96-.09-1.61-.14-1.96-.14h-2.23c-.4.01-1.08.06-2.03.14.08-.8.12-1.44.14-1.91v-1.82ZM319.99,21.97v2.61h2.78v-2.61h-2.78Z"/>
    <path class="cls-11" d="M331.01,16.54c.82.09,1.6.15,2.34.16h.19c.65-1.03,1.11-2.15,1.37-3.38l1.91.77c.26.11.38.23.37.36-.02.13-.18.25-.46.34-.2.06-.37.22-.52.47-.15.26-.4.69-.76,1.28-.04.06-.06.11-.09.15h7c.71,0,1.49-.06,2.34-.16-.08.64-.13,1.37-.14,2.16v8.69c.04.93-.15,1.49-.56,1.69-.31.25-1.35.44-3.11.58-.12-.53-.39-1.17-.81-1.94.97.11,1.65.16,2.03.16.31,0,.52-.04.62-.13.1-.08.15-.24.14-.5v-9.16h-10.06v9.57c0,.29.04.9.11,1.82,0,.08.01.13.02.17h-1.92c.08-.9.12-1.56.12-1.99v-8.96c-.01-.64-.05-1.36-.12-2.16ZM341.1,20.09c-.1.79-.15,1.36-.15,1.71v2.46c0,.51.04,1.1.12,1.78-.77-.11-1.4-.16-1.91-.16h-2.84c-.52,0-1.15.06-1.89.16.11-.8.16-1.4.16-1.78v-2.44c0-.41-.05-.99-.14-1.73.74.11,1.36.16,1.87.17h2.9c.46,0,1.08-.06,1.87-.17ZM336.22,24.54h3.09v-2.94h-3.09v2.94Z"/>
    <path class="cls-11" d="M363.89,19.11v1.58c-.4-.06-.73-.11-.98-.13-.23-.02-.48-.04-.74-.04h-12.81c-.39-.02-.97.04-1.75.17v-1.6c.46.06.8.11,1.01.12.23.02.47.04.74.04h12.81c.36.01.94-.04,1.72-.14ZM349.79,27.93h5.33v-.48h-4.05c-.36-.01-.94.04-1.75.16v-1.6c.49.08.83.12,1.03.14.22.02.46.04.72.04h4.05v-.52h-3.37c-.4-.01-1.01.05-1.82.18.06-.44.11-.78.13-1.02.02-.24.04-.48.04-.71v-1.62c.01-.35-.04-.92-.17-1.71.61.09.99.14,1.15.15.22.02.42.04.62.04h8.28c.41.02,1.03-.04,1.87-.17-.06.43-.11.77-.13,1-.02.22-.04.45-.04.68v1.63c-.01.33.04.9.17,1.71-.84-.12-1.47-.17-1.87-.17h-3.24v.52h3.8c.28.01.86-.04,1.75-.16v1.56c-.47-.06-.81-.1-1.03-.11-.22-.02-.46-.03-.72-.03h-3.8v.48h5.08c.23.01.81-.04,1.74-.14v1.56c-.91-.12-1.49-.17-1.74-.16h-12.02c-.4-.01-.99.05-1.77.18v-1.58c.4.06.72.1.94.11s.5.03.82.03ZM361.49,14.17c-.07.36-.11.83-.11,1.42v1.91c-.01.2.04.69.16,1.46-.43-.05-.77-.09-1-.11-.23-.02-.44-.03-.64-.03h-8.03c-.46-.02-1.06.04-1.8.18.06-.36.11-.64.13-.85.02-.19.04-.4.04-.62v-1.79c0-.31-.05-.84-.17-1.59.45.08.78.13,1,.15s.45.04.72.04h8.16c.47,0,.98-.06,1.55-.15ZM351.68,22.15v.54h3.44v-.54h-3.44ZM351.68,23.87v.6h3.44v-.6h-3.44ZM351.82,15.49v.48h7.95v-.48h-7.95ZM351.82,17.16v.49h7.95v-.49h-7.95ZM356.73,22.15v.54h3.37v-.54h-3.37ZM356.73,23.87v.6h3.37v-.6h-3.37Z"/>
    <path class="cls-11" d="M368.41,29.37h-1.83c.1-.91.15-1.51.14-1.82v-8.66c0-.43-.04-1.1-.14-2.03.72.12,1.22.18,1.49.18.43-1.15.76-2.41.99-3.8l1.58.45c.37.09.57.2.59.33s-.12.3-.44.51c-.13.08-.25.26-.34.56-.06.16-.13.38-.23.64-.16.45-.32.88-.49,1.3h1.44c.39.01,1.04-.04,1.94-.16-.1.9-.15,1.57-.14,2.01v.45c1.31-1.46,2.2-3.53,2.66-6.21l1.65.55c.34.12.5.24.49.34.01.11-.15.29-.47.54-.07.03-.17.19-.29.48-.18.56-.42,1.19-.72,1.89h3.12c.29,0,.9-.04,1.82-.15-.09.96-.14,1.65-.13,2.07l-.09,8.12c.02,1.02-.26,1.72-.83,2.09-.53.4-1.66.7-3.39.9-.09-.64-.33-1.27-.74-1.91.86.07,1.41.11,1.65.11,1.13.04,1.68-.37,1.64-1.24.02-1.45.04-2.88.07-4.3.03-1.43.05-2.88.07-4.35h-3.74c-.3.6-.73,1.31-1.27,2.13-.23-.23-.73-.52-1.49-.84v7.58c0,.39.05.96.14,1.7h-1.89c.08-.5.12-.84.12-1.01h-3.06c0,.29.04.8.12,1.53ZM368.31,18.39v3.4h3.08v-3.4h-3.08ZM368.31,23.1v3.38h3.08v-3.38h-3.08ZM374.47,21.66l1.27-1.05c1.11,1.14,2.1,2.28,2.97,3.44l-1.44,1.13c-.86-1.35-1.79-2.52-2.8-3.52Z"/>
  </g>
  <g>
    <path class="cls-11" d="M395.64,21.63c0,1.73-.41,3.15-1.22,4.25s-1.94,1.77-3.37,2.01c.2.64.48,1.12.84,1.43.36.31.84.46,1.44.46.34,0,.69-.04,1.04-.11v1.44c-.59.16-1.19.24-1.78.24-.9,0-1.64-.26-2.22-.78-.58-.52-1.05-1.38-1.41-2.57-1.65-.12-2.93-.74-3.84-1.86-.92-1.12-1.38-2.62-1.38-4.51,0-2,.52-3.55,1.56-4.66s2.51-1.66,4.4-1.66,3.36.55,4.39,1.66,1.55,2.66,1.55,4.66ZM393.46,21.63c0-1.49-.33-2.63-.98-3.42s-1.58-1.19-2.79-1.19-2.16.39-2.82,1.18-.98,1.93-.98,3.43.33,2.66.99,3.49,1.59,1.24,2.79,1.24,2.17-.4,2.81-1.19.97-1.97.97-3.54Z"/>
    <path class="cls-11" d="M404.94,27.88l-3.63-5.66-1.17,1.13v4.53h-2.14v-12.38h2.14v5.72l4.44-5.72h2.54l-4.24,5.33,4.64,7.05h-2.58Z"/>
    <path class="cls-11" d="M412.13,27.88l-4.54-12.38h2.22l2.78,8.29c.26.79.5,1.58.69,2.38.24-.91.47-1.69.68-2.34l2.76-8.33h2.22l-4.54,12.38h-2.28Z"/>
  </g>
  <g>
    <path class="cls-11" d="M423.95,19.87c-.06.59-.1,1.14-.11,1.67v4.77c.13.06.37.18.69.34l.53.26c.59.33,1.23.55,1.92.66.67.12,1.69.18,3.05.18,2.14,0,4.2-.21,6.18-.62-.38.73-.62,1.38-.74,1.94-1.93.06-3.76.09-5.48.1-2.47.06-4.41-.33-5.81-1.18-.76-.37-1.16-.53-1.2-.48-.45.03-1.18.65-2.2,1.85-.46-.66-.88-1.15-1.27-1.46,1.01-.83,1.92-1.38,2.71-1.67v-4.91h-.76c-.56,0-1.14.05-1.75.14v-1.7c.76.11,1.34.17,1.75.17h.64c.65,0,1.26-.03,1.84-.07ZM420.52,15.11l1.2-1.06c1.18,1.05,2.22,2.14,3.12,3.24l-1.32,1.13c-.92-1.22-1.92-2.32-3.01-3.31ZM430.92,22.08l1.41-.94c1.2,1.78,2.15,3.38,2.87,4.83l-1.58.84c-.02-.05-.06-.13-.1-.24-.26-.65-.46-1.08-.59-1.29-4.15.39-6.63.78-7.42,1.19l-.68-1.72c.48-.13.85-.31,1.12-.54.77-.84,1.56-2.21,2.37-4.1h-1.75c-.4,0-1.02.06-1.85.17v-1.71c.91.11,1.53.17,1.85.17h7.37c.49,0,1.08-.06,1.78-.17v1.71c-.74-.11-1.34-.17-1.78-.17h-3.71c.29.13.43.25.42.36s-.16.21-.46.31c-.25.07-.47.31-.69.72-.67,1.15-1.31,2.15-1.91,3.01,1.01-.07,2.55-.21,4.62-.43-.33-.53-.77-1.19-1.31-1.98ZM425.77,16.32v-1.67c.8.09,1.4.13,1.78.14h5.38c.36,0,.92-.05,1.7-.16v1.69c-.69-.09-1.25-.14-1.7-.14h-5.38c-.34,0-.93.05-1.78.14Z"/>
    <path class="cls-11" d="M447.86,12.74l1.75.79c.19.09.28.2.25.32s-.15.21-.39.29c-.17.06-.3.15-.38.27-.02.04-.06.08-.1.15-.07.09-.13.17-.17.23h3.38c.46,0,.93-.08,1.43-.21v1.69c-.57-.13-1.05-.19-1.43-.19h-1.27s.07.11.13.19c.21.32.37.54.47.67l-1.3.7c.38-.04.74-.1,1.08-.18-.11.56-.16,1.27-.18,2.13v3.06c0,.93.06,1.65.16,2.16-.63-.13-1.26-.2-1.87-.2h-.27v.74h2.78c.69-.04,1.37-.11,2.05-.21v1.76c-.81-.11-1.49-.18-2.05-.19h-2.78v1.01c.02.96.08,1.66.18,2.1h-2c.1-.5.15-1.2.16-2.1v-1.01h-3.11c-.38,1.18-1.94,2.33-4.68,3.44-.13-.52-.49-1.09-1.06-1.71,2.12-.29,3.42-.86,3.91-1.72h-2.29c-.57.02-1.25.08-2.06.19v-1.76c.93.12,1.62.19,2.06.21h2.63v-.74h-.34c-.59.02-1.19.07-1.8.17.09-.54.15-1.09.16-1.64v-3.61c0-.76-.05-1.43-.16-2.02.64.11,1.32.17,2.03.18h.44c-.28-.52-.59-1.03-.96-1.53h-.91c-.85,1.15-1.58,2.02-2.2,2.61-.32-.44-.76-.84-1.32-1.21,1.36-.93,2.5-2.48,3.42-4.66l1.68.81c.14.08.21.16.21.26,0,.02,0,.07-.03.13s-.13.13-.35.2c-.11.03-.21.11-.3.23-.07.09-.15.21-.24.34h1.94c.71-.01,1.3-.08,1.77-.21v1.36c.89-1.01,1.53-2.1,1.91-3.27ZM449.51,19.54v-.56h-6.96v.56h6.96ZM442.55,20.85v.56h6.96v-.56h-6.96ZM449.51,23.29v-.56h-6.96v.56h6.96ZM444.19,16.14h-.02c.07.1.17.25.31.44.14.21.24.35.31.44l-1.2.65h2.93c-.46-.34-.94-.62-1.46-.83.01-.01.03-.03.06-.05.25-.2.44-.37.57-.51-.5-.08-1-.13-1.49-.14ZM444.55,25.33h2.97v-.74h-2.97v.74ZM449.28,17.67c.28,0,.52,0,.74-.02-.28-.53-.59-1.06-.96-1.58h-1.15c-.34.54-.74,1.08-1.19,1.6h2.56Z"/>
  </g>
  <rect class="cls-3" x="425.57" y="127.42" width="21" height="21"/>
  <rect class="cls-3" x="446.57" y="127.42" width="20" height="21"/>
  <rect class="cls-3" x="466.57" y="127.42" width="21" height="21"/>
  <rect class="cls-3" x="487.57" y="127.42" width="20" height="21"/>
  <rect class="cls-3" x="507.57" y="127.42" width="21" height="21"/>
  <rect class="cls-3" x="528.57" y="127.42" width="20" height="21"/>
  <rect class="cls-6" x="425.57" y="147.42" width="21" height="21"/>
  <rect class="cls-6" x="446.57" y="147.42" width="20" height="21"/>
  <rect class="cls-6" x="466.57" y="147.42" width="21" height="21"/>
  <rect class="cls-6" x="487.57" y="147.42" width="20" height="21"/>
  <rect class="cls-6" x="507.57" y="147.42" width="21" height="21"/>
  <rect class="cls-6" x="528.57" y="147.42" width="20" height="21"/>
  <rect class="cls-9" x="425.57" y="107.42" width="21" height="21"/>
  <rect class="cls-9" x="446.57" y="107.42" width="20" height="21"/>
  <rect class="cls-9" x="466.57" y="107.42" width="21" height="21"/>
  <rect class="cls-9" x="487.57" y="107.42" width="20" height="21"/>
  <rect class="cls-9" x="507.57" y="107.42" width="21" height="21"/>
  <rect class="cls-9" x="528.57" y="107.42" width="20" height="21"/>
  <rect class="cls-8" x="423.57" y="270.37" width="20" height="21"/>
  <rect class="cls-8" x="443.57" y="270.37" width="21" height="21"/>
  <rect class="cls-8" x="464.57" y="270.37" width="21" height="21"/>
  <rect class="cls-8" x="484.57" y="270.37" width="21" height="21"/>
  <rect class="cls-8" x="505.57" y="270.37" width="21" height="21"/>
  <rect class="cls-8" x="525.57" y="270.37" width="21" height="21"/>
  <rect class="cls-1" x="423.57" y="250.37" width="20" height="20"/>
  <rect class="cls-1" x="443.57" y="250.37" width="21" height="20"/>
  <rect class="cls-1" x="464.57" y="250.37" width="21" height="20"/>
  <rect class="cls-1" x="484.57" y="250.37" width="21" height="20"/>
  <rect class="cls-1" x="505.57" y="250.37" width="21" height="20"/>
  <rect class="cls-1" x="525.57" y="250.37" width="21" height="20"/>
  <rect class="cls-7" x="423.57" y="290.37" width="20" height="21"/>
  <rect class="cls-7" x="443.57" y="290.37" width="21" height="21"/>
  <rect class="cls-7" x="464.57" y="290.37" width="21" height="21"/>
  <rect class="cls-7" x="484.57" y="290.37" width="21" height="21"/>
  <rect class="cls-7" x="505.57" y="290.37" width="21" height="21"/>
  <rect class="cls-7" x="525.57" y="290.37" width="21" height="21"/>
  <rect class="cls-2" x="422.57" y="418.11" width="21" height="21"/>
  <rect class="cls-2" x="443.57" y="418.11" width="20" height="21"/>
  <rect class="cls-2" x="463.57" y="418.11" width="21" height="21"/>
  <rect class="cls-2" x="484.57" y="418.11" width="21" height="21"/>
  <rect class="cls-2" x="505.57" y="418.11" width="20" height="21"/>
  <rect class="cls-2" x="525.57" y="418.11" width="21" height="21"/>
  <rect class="cls-5" x="422.57" y="437.11" width="21" height="21"/>
  <rect class="cls-5" x="443.57" y="437.11" width="20" height="21"/>
  <rect class="cls-5" x="463.57" y="437.11" width="21" height="21"/>
  <rect class="cls-5" x="484.57" y="437.11" width="21" height="21"/>
  <rect class="cls-5" x="505.57" y="437.11" width="20" height="21"/>
  <rect class="cls-5" x="525.57" y="437.11" width="21" height="21"/>
  <rect class="cls-10" x="422.57" y="398.11" width="21" height="21"/>
  <rect class="cls-10" x="443.57" y="398.11" width="20" height="21"/>
  <rect class="cls-10" x="463.57" y="398.11" width="21" height="21"/>
  <rect class="cls-10" x="484.57" y="398.11" width="21" height="21"/>
  <rect class="cls-10" x="505.57" y="398.11" width="20" height="21"/>
  <rect class="cls-10" x="525.57" y="398.11" width="21" height="21"/>
  <g>
    <path class="cls-12" d="M561.26,131.67c-.63,0-1.22.23-1.77.68s-1.03,1.1-1.44,1.93-.73,1.76-.96,2.76-.34,1.89-.34,2.65c0,1.81.66,2.72,1.98,2.72.81,0,1.56-.38,2.24-1.14s1.23-1.81,1.64-3.15.62-2.6.62-3.76c0-.87-.16-1.54-.48-2s-.82-.69-1.49-.69h0ZM561.36,130.9c1.13,0,2,.33,2.61.98s.92,1.61.92,2.85c0,.82-.13,1.74-.39,2.75s-.61,1.91-1.06,2.69-.97,1.4-1.57,1.88-1.24.8-1.94.98c.13.43.26.78.38,1.06s.23.5.34.68.22.3.32.39.21.14.32.17.23.04.37.04c.22,0,.45-.06.68-.19s.48-.35.76-.67l.46.49c-.47.51-.91.87-1.31,1.08s-.82.32-1.25.32c-.49,0-.88-.11-1.19-.33s-.57-.56-.8-1.04-.44-1.1-.65-1.86c-1.06-.06-1.87-.41-2.43-1.05s-.83-1.55-.83-2.72c0-.88.15-1.87.44-2.98s.72-2.08,1.28-2.93,1.23-1.49,2-1.92,1.62-.65,2.54-.65h0Z"/>
    <path class="cls-12" d="M572.86,139.14h10.83v1.17h-10.83v-1.17h0ZM572.86,135.49h10.83v1.17h-10.83v-1.17h0Z"/>
    <path class="cls-12" d="M591.05,131.04h3.67l-.1.43c-.26.02-.47.1-.62.23s-.25.33-.31.56-.09.57-.09,1.01v.3c0,.11,0,.21,0,.33l.08,3.44c0,.25,0,.88,0,1.87v1.84s.08,0,.08,0l4.86-10h1.33v5.86c0,.97-.03,2.35-.08,4.14h.09l3.56-6.88c.13-.26.28-.56.43-.91s.22-.65.22-.9c0-.49-.29-.79-.88-.88l.1-.43h3.59l-.1.43c-.27.04-.53.18-.77.44s-.57.77-.98,1.52l-5.28,9.71h-1.35v-6.43c0-1.04.03-2.13.08-3.26h-.09l-4.7,9.69h-1.38l-.41-9.77c-.02-.49-.07-.86-.15-1.12s-.19-.45-.32-.56-.33-.19-.57-.23l.1-.43Z"/>
    <polygon class="cls-12" points="615.64 134.57 616.8 134.57 616.54 137.33 618.8 135.73 619.37 136.72 616.87 137.89 619.37 139.07 618.8 140.04 616.54 138.45 616.8 141.2 615.64 141.2 615.9 138.45 613.63 140.04 613.05 139.07 615.57 137.89 613.05 136.72 613.63 135.73 615.9 137.33 615.64 134.57 615.64 134.57"/>
    <path class="cls-12" d="M625.61,131.04h3.67l-.1.43c-.26.02-.47.1-.62.23s-.25.33-.31.56-.09.57-.09,1.01v.3c0,.11,0,.21,0,.33l.08,3.44c0,.25,0,.88,0,1.87v1.84s.08,0,.08,0l4.86-10h1.33v5.86c0,.97-.03,2.35-.08,4.14h.09l3.56-6.88c.13-.26.28-.56.43-.91s.22-.65.22-.9c0-.49-.29-.79-.88-.88l.1-.43h3.59l-.1.43c-.27.04-.53.18-.77.44s-.57.77-.98,1.52l-5.28,9.71h-1.35v-6.43c0-1.04.03-2.13.08-3.26h-.09l-4.7,9.69h-1.38l-.41-9.77c-.02-.49-.07-.86-.15-1.12s-.19-.45-.32-.56-.33-.19-.57-.23l.1-.43Z"/>
    <path class="cls-12" d="M642.33,140.82c-.25,0-.49.05-.71.16-.22.11-.42.26-.6.45-.18.19-.34.41-.48.66-.14.25-.26.52-.36.81s-.17.58-.22.88-.07.59-.07.87c0,.46.07.81.2,1.03s.34.34.63.34c.2,0,.42-.07.66-.21.24-.14.47-.34.7-.59.23-.25.43-.56.62-.92.18-.36.32-.76.42-1.2.06-.23.1-.47.14-.7.04-.23.06-.45.06-.63,0-.35-.08-.6-.24-.74-.16-.15-.41-.22-.75-.22h0ZM642.22,140.18c.33,0,.62.04.88.12.26.08.5.19.72.33l.61-.44.52.14c-.28,1.28-.56,2.54-.84,3.79-.28,1.25-.54,2.43-.78,3.53-.08.3-.12.54-.12.72,0,.16.06.27.18.34.12.07.33.11.62.14l-.09.43h-2.21c.18-.7.35-1.36.51-1.96.16-.6.33-1.26.51-1.96l-.1-.03c-.21.28-.42.52-.63.72s-.4.36-.6.49c-.2.13-.39.22-.59.28-.2.06-.39.09-.59.09-.51,0-.91-.18-1.19-.55s-.42-.9-.42-1.6c0-.42.04-.82.13-1.2.09-.38.21-.75.37-1.08.16-.34.35-.64.58-.92.22-.28.47-.51.73-.71s.55-.35.85-.46c.3-.11.61-.16.93-.16h0Z"/>
    <path class="cls-12" d="M653.26,139.14h10.83v1.17h-10.83v-1.17h0ZM653.26,135.49h10.83v1.17h-10.83v-1.17h0Z"/>
    <path class="cls-12" d="M695.78,111.2h4.78v53.38h-4.78v-.86h2.97v-51.66h-2.97v-.86h0ZM672.43,111.2h4.78v.86h-2.97v51.66h2.97v.86h-4.78v-53.38h0Z"/>
    <path class="cls-12" d="M683.36,111.3c-.6,0-1.13.24-1.61.73s-.85,1.14-1.12,1.96-.41,1.64-.41,2.45c0,.61.08,1.06.25,1.37s.45.45.84.45c.18,0,.37-.04.55-.12s.38-.21.58-.38.4-.39.6-.64.38-.51.54-.76.32-.56.46-.91.26-.77.36-1.26l.08-.38c.09-.42.13-.82.13-1.2,0-.46-.1-.79-.29-1s-.52-.31-.97-.31h0ZM683.21,110.61c.36,0,.71.04,1.04.13s.67.24,1.02.45l.81-.58.56.14-2.25,9.99c-.1.45-.15.78-.15,1,0,.26.07.44.2.55s.39.18.78.22l-.08.43h-2.74l1.51-5.77-.12-.05c-.5.71-1.02,1.25-1.54,1.62s-1.04.55-1.53.55c-.64,0-1.14-.24-1.5-.73s-.53-1.17-.53-2.05c0-1.01.2-1.98.59-2.9s.94-1.66,1.63-2.2,1.46-.8,2.31-.8h0Z"/>
    <path class="cls-12" d="M691.1,114.58h.39c0,.24-.02.45-.02.63,0,.19,0,.37,0,.54,0,.18,0,.35,0,.52v4.9c0,.13,0,.25.01.34s.02.18.04.24.05.12.08.17c.03.05.07.09.11.12.05.05.12.09.21.12.09.03.2.05.33.07.13.02.29.03.48.05.19.01.41.02.67.02v.56h-5.11v-.56c.25,0,.47-.02.64-.03.18-.01.33-.03.45-.05.12-.02.22-.04.3-.06.08-.02.14-.05.2-.09.06-.04.11-.08.15-.13.04-.05.08-.1.1-.17.03-.07.05-.15.06-.25.02-.1.02-.22.02-.37v-4.62c0-.17-.03-.29-.1-.35-.06-.07-.16-.1-.28-.1-.13,0-.33.07-.59.21-.26.14-.6.34-1.02.61-.06-.1-.11-.2-.15-.3-.05-.1-.1-.2-.15-.3.53-.29,1.06-.58,1.58-.87.52-.29,1.05-.58,1.59-.87h0Z"/>
    <path class="cls-12" d="M683.24,132.42c-.6,0-1.13.24-1.61.73-.47.48-.85,1.14-1.12,1.96s-.41,1.64-.41,2.45c0,.61.08,1.06.25,1.37s.45.45.84.45c.18,0,.37-.04.55-.12s.38-.21.58-.38.4-.39.6-.64.38-.51.54-.76.32-.56.46-.91.26-.77.36-1.26l.08-.38c.09-.42.13-.82.13-1.2,0-.46-.1-.79-.29-1s-.52-.31-.97-.31h0ZM683.09,131.73c.36,0,.71.04,1.04.13s.67.24,1.02.45l.81-.58.56.14-2.25,9.99c-.1.45-.15.78-.15,1,0,.26.07.44.2.55s.39.18.78.22l-.08.43h-2.74l1.51-5.77-.12-.05c-.5.71-1.02,1.25-1.54,1.62s-1.04.55-1.53.55c-.64,0-1.14-.24-1.5-.73s-.53-1.17-.53-2.05c0-1.01.2-1.98.59-2.9s.94-1.66,1.63-2.2c.69-.54,1.46-.8,2.31-.8h0Z"/>
    <path class="cls-12" d="M690.84,135.65c.45,0,.83.05,1.14.15.32.1.57.24.77.41.2.17.34.38.43.62.09.24.13.5.13.78,0,.17-.01.32-.04.47s-.06.29-.12.43c-.06.14-.13.28-.23.42-.09.14-.21.29-.35.45-.11.14-.25.3-.42.48-.17.18-.36.37-.56.58-.2.21-.42.42-.64.64-.22.22-.44.44-.65.66-.21.22-.4.43-.58.64-.18.21-.32.4-.43.57h2.38c.2,0,.36,0,.48-.02.12-.02.22-.05.3-.1.08-.05.15-.13.2-.24.06-.11.12-.25.19-.44h.6c-.02.31-.04.61-.06.92-.02.31-.04.62-.06.92h-5.46v-.34c.1-.23.22-.46.36-.69s.29-.45.46-.69.37-.47.59-.72.46-.5.73-.77c.4-.4.73-.75.99-1.03.25-.29.45-.54.6-.76.15-.22.25-.43.3-.62s.08-.39.08-.61-.03-.42-.09-.61c-.06-.18-.15-.34-.27-.47s-.26-.23-.44-.3c-.18-.07-.38-.11-.62-.11-.4,0-.73.11-1.01.33-.27.22-.48.53-.63.94h-.84v-1.26c.55-.23,1.06-.39,1.52-.5s.88-.15,1.25-.15h0Z"/>
    <path class="cls-12" d="M683.24,153.54c-.6,0-1.13.24-1.61.73s-.85,1.14-1.12,1.96-.41,1.64-.41,2.45c0,.61.08,1.06.25,1.37s.45.45.84.45c.18,0,.37-.04.55-.12s.38-.21.58-.38.4-.39.6-.64.38-.51.54-.76.32-.56.46-.91.26-.77.36-1.26l.08-.38c.09-.42.13-.82.13-1.2,0-.46-.1-.79-.29-1s-.52-.31-.97-.31h0ZM683.09,152.85c.36,0,.71.04,1.04.13s.67.24,1.02.45l.81-.58.56.14-2.25,9.99c-.1.45-.15.78-.15,1,0,.26.07.44.2.55s.39.18.78.22l-.08.43h-2.74l1.51-5.77-.12-.05c-.5.71-1.02,1.25-1.54,1.62s-1.04.55-1.53.55c-.64,0-1.14-.24-1.5-.73s-.53-1.17-.53-2.05c0-1.01.2-1.98.59-2.9s.94-1.66,1.63-2.2,1.46-.8,2.31-.8h0Z"/>
    <path class="cls-12" d="M690.82,156.77c.34,0,.66.04.96.11.3.07.56.18.78.33.22.15.39.33.51.55.12.22.18.48.18.77,0,.27-.04.52-.12.73-.08.21-.2.4-.36.57s-.36.33-.59.47-.5.27-.81.4v.08c.29.05.56.13.81.25s.47.26.65.43c.19.17.33.37.44.6.11.23.16.48.16.75,0,.34-.06.66-.19.96s-.32.55-.58.76-.58.38-.95.5c-.38.12-.82.18-1.33.18-.4,0-.81-.04-1.22-.12-.41-.08-.8-.18-1.17-.31v-1.39h.83c.07.21.15.4.24.55.09.15.21.28.33.37s.27.17.44.21c.17.04.35.06.56.06.55,0,.97-.13,1.26-.4.29-.26.43-.66.43-1.2,0-.57-.19-1-.56-1.3-.38-.29-.93-.44-1.67-.44h-.57v-.62c.45-.02.84-.08,1.17-.19.33-.11.6-.24.82-.41.22-.17.38-.36.49-.59.11-.22.16-.46.16-.72,0-.41-.12-.74-.37-.98-.24-.24-.6-.36-1.06-.36-.39,0-.72.11-.98.32-.26.21-.47.53-.61.96h-.82v-1.27c.51-.21.99-.38,1.43-.49.45-.11.88-.16,1.29-.16h0Z"/>
  </g>
  <g>
    <path class="cls-12" d="M553.21,273.27h3.52l-.1.43c-.22.05-.38.1-.48.16-.1.06-.18.15-.26.26-.08.12-.16.3-.24.55s-.18.65-.31,1.22l-.62,2.8h.29c.25,0,.47-.04.67-.12s.44-.23.71-.45c.27-.22.7-.62,1.29-1.2s1.01-1.02,1.26-1.32.43-.56.54-.78.17-.42.17-.6c0-.15-.06-.27-.18-.36s-.28-.15-.5-.16l.1-.43h3.77l-.1.43c-.23.04-.5.16-.8.36s-.75.61-1.36,1.22l-3.41,3.32,1.87,4.5c.19.46.35.8.48,1s.28.37.45.49.39.2.65.24l-.1.43h-3.39l.1-.43c.32-.03.47-.17.47-.42,0-.16-.03-.34-.1-.54s-.14-.41-.23-.63l-1.14-2.79c-.13-.33-.25-.57-.35-.7s-.21-.23-.32-.28c-.11-.05-.28-.08-.52-.08h-.49l-.73,3.32c-.08.35-.13.63-.15.83-.02.2-.04.38-.04.54,0,.26.07.45.2.56s.35.17.66.2l-.1.43h-3.52l.1-.43c.22-.04.39-.09.5-.17s.21-.19.28-.33.15-.31.21-.51c.06-.2.16-.59.29-1.17l1.49-6.77c.13-.59.19-1.06.19-1.42,0-.28-.07-.47-.21-.58s-.36-.17-.65-.19l.1-.43Z"/>
    <path class="cls-12" d="M569.83,281.36h10.83v1.17h-10.83v-1.17h0ZM569.83,277.72h10.83v1.17h-10.83v-1.17h0Z"/>
    <path class="cls-12" d="M588.14,273.27h3.67l-.1.43c-.26.02-.47.1-.62.23s-.25.33-.31.56-.09.57-.09,1.01v.3c0,.11,0,.21,0,.33l.08,3.44c0,.25,0,.88,0,1.87v1.84s.08,0,.08,0l4.86-10h1.33v5.86c0,.97-.03,2.35-.08,4.14h.09l3.56-6.88c.13-.26.28-.56.43-.91s.22-.65.22-.9c0-.49-.29-.79-.88-.88l.1-.43h3.59l-.1.43c-.27.04-.53.18-.77.44s-.57.77-.98,1.52l-5.28,9.71h-1.35v-6.43c0-1.04.03-2.13.08-3.26h-.09l-4.7,9.69h-1.38l-.41-9.77c-.02-.49-.07-.86-.15-1.12s-.19-.45-.32-.56-.33-.19-.57-.23l.1-.43Z"/>
    <polygon class="cls-12" points="612.61 276.8 613.77 276.8 613.52 279.55 615.78 277.96 616.35 278.95 613.84 280.11 616.35 281.29 615.78 282.27 613.52 280.68 613.77 283.43 612.61 283.43 612.88 280.68 610.61 282.27 610.03 281.29 612.54 280.11 610.03 278.95 610.61 277.96 612.88 279.55 612.61 276.8 612.61 276.8"/>
    <path class="cls-12" d="M622.7,273.27h3.67l-.1.43c-.26.02-.47.1-.62.23s-.25.33-.31.56-.09.57-.09,1.01v.3c0,.11,0,.21,0,.33l.08,3.44c0,.25,0,.88,0,1.87v1.84s.08,0,.08,0l4.86-10h1.33v5.86c0,.97-.03,2.35-.08,4.14h.09l3.56-6.88c.13-.26.28-.56.43-.91s.22-.65.22-.9c0-.49-.29-.79-.88-.88l.1-.43h3.59l-.1.43c-.27.04-.53.18-.77.44s-.57.77-.98,1.52l-5.28,9.71h-1.35v-6.43c0-1.04.03-2.13.08-3.26h-.09l-4.7,9.69h-1.38l-.41-9.77c-.02-.49-.07-.86-.15-1.12s-.19-.45-.32-.56-.33-.19-.57-.23l.1-.43Z"/>
    <path class="cls-12" d="M639.8,280.19h.46l-1.13,5.01h.18c.16,0,.34-.03.53-.1.19-.07.38-.16.56-.27s.37-.23.54-.37.32-.28.45-.42.24-.27.31-.4c.08-.12.12-.23.12-.32,0-.1-.03-.19-.1-.25-.07-.06-.19-.11-.37-.13l.08-.41h2.32l.16.4c-.27.23-.53.45-.78.64-.25.2-.49.39-.73.57s-.48.36-.72.54c-.24.18-.48.36-.73.55.1.33.21.66.32,1,.11.34.21.67.32,1,.05.18.1.33.15.45.05.13.09.23.15.31.05.08.11.14.17.18.06.04.13.06.22.06.06,0,.12-.01.19-.03s.14-.06.22-.12c.08-.06.17-.13.27-.23s.22-.22.34-.36l.44.42c-.2.21-.39.38-.56.53-.17.15-.34.27-.5.37s-.31.17-.45.21c-.15.05-.29.07-.44.07-.27,0-.49-.07-.65-.2-.17-.14-.31-.33-.42-.58-.12-.25-.22-.56-.32-.91s-.21-.75-.34-1.19c-.03-.1-.06-.19-.09-.25-.03-.06-.06-.11-.11-.14s-.1-.05-.16-.06-.15-.01-.24-.01h-.41l-.71,3.24h-1.24l1.56-6.92c.05-.23.09-.41.11-.54s.03-.25.03-.35c0-.08-.01-.15-.04-.21s-.07-.11-.14-.15-.15-.06-.26-.08-.24-.03-.4-.03l.1-.44,1.77-.08h0Z"/>
    <path class="cls-12" d="M651.79,281.36h10.83v1.17h-10.83v-1.17h0ZM651.79,277.72h10.83v1.17h-10.83v-1.17h0Z"/>
    <path class="cls-12" d="M695.16,247.12h4.96v66.01h-4.96v-.96h3.13v-64.12h-3.13v-.94h0ZM670.96,247.12h4.96v.94h-3.13v64.12h3.13v.96h-4.96v-66.01h0Z"/>
    <path class="cls-12" d="M679.08,250.01h.53v7.68h.28c.19,0,.35-.02.47-.06.15-.05.31-.14.48-.27s.42-.34.75-.64c.27-.25.47-.47.61-.64s.23-.34.29-.48c.05-.12.07-.25.07-.37,0-.18-.05-.31-.16-.41s-.29-.17-.53-.2v-.43h3.79v.43c-.27.05-.56.17-.86.36s-.62.43-.94.74l-2.02,1.92,2.53,3.3c.29.39.56.67.8.86s.5.31.78.36v.43h-3.38v-.43c.15-.02.27-.05.34-.1s.11-.13.11-.25c0-.09-.02-.17-.05-.26s-.1-.2-.2-.35-.28-.4-.54-.76l-1.05-1.41c-.2-.26-.34-.44-.43-.52s-.17-.14-.27-.18-.22-.05-.38-.05h-.49v2.11c0,.5.02.85.07,1.05s.14.35.27.45.35.19.65.27v.43h-3.49v-.43c.29-.08.5-.16.61-.24s.2-.18.25-.29.08-.27.11-.47.03-.45.03-.77v-7.36c0-.56,0-.96-.01-1.18s-.03-.41-.07-.57-.09-.28-.16-.36-.16-.16-.27-.21-.32-.11-.62-.16v-.46l2.12-.09h0Z"/>
    <path class="cls-12" d="M690.59,258h.39c0,.24-.02.45-.02.63,0,.19,0,.37,0,.54,0,.18,0,.35,0,.52v4.9c0,.13,0,.25.01.34s.02.18.04.24.05.12.08.17c.03.05.07.09.11.12.05.05.12.09.21.12.09.03.2.05.33.07.13.02.29.03.48.05.19.01.41.02.67.02v.56h-5.11v-.56c.25,0,.47-.02.64-.03.18-.01.33-.03.45-.05.12-.02.22-.04.3-.06.08-.02.14-.05.2-.09.06-.04.11-.08.15-.13.04-.05.08-.1.1-.17.03-.07.05-.15.06-.25.02-.1.02-.22.02-.37v-4.62c0-.17-.03-.29-.1-.35-.06-.07-.16-.1-.28-.1-.13,0-.33.07-.59.21-.26.14-.6.34-1.02.61-.06-.1-.11-.2-.15-.3-.05-.1-.1-.2-.15-.3.53-.29,1.06-.58,1.58-.87.52-.29,1.05-.58,1.59-.87h0Z"/>
    <path class="cls-12" d="M680.98,271.98h.51l-1.72,7.67h.28c.44,0,.93-.19,1.48-.58s.99-.74,1.31-1.07.49-.64.49-.95c0-.29-.2-.45-.6-.48l.1-.43h2.85l.17.43c-.49.44-1,.87-1.55,1.29l-2.18,1.69.86,3.17c.07.27.13.46.19.58s.12.21.19.27.17.09.29.09c.15,0,.33-.08.54-.25s.45-.4.72-.71l.5.49c-.53.56-.96.94-1.31,1.16s-.68.33-1,.33c-.4,0-.71-.11-.95-.34s-.42-.6-.55-1.13l-.58-2.29c-.06-.23-.12-.39-.18-.47s-.13-.15-.2-.18-.21-.04-.4-.04h-.61l-.91,4.31h-1.52l2.26-10.05c.08-.34.13-.6.16-.8s.05-.36.05-.51c0-.25-.07-.42-.22-.52s-.42-.16-.8-.17l.11-.46,2.22-.08h0Z"/>
    <path class="cls-12" d="M690.21,279.92c.45,0,.83.05,1.14.15.32.1.57.24.77.41.2.17.34.38.43.62.09.24.13.5.13.78,0,.17-.01.32-.04.47-.02.14-.06.29-.12.43-.06.14-.13.28-.23.42-.09.14-.21.29-.35.45-.11.14-.25.3-.42.48s-.36.37-.56.58-.42.42-.64.64c-.22.22-.44.44-.65.66-.21.22-.4.43-.58.64-.18.21-.32.4-.43.57h2.38c.2,0,.36,0,.48-.02.12-.02.22-.05.3-.1s.15-.13.2-.24c.06-.11.12-.25.19-.44h.6c-.02.31-.04.61-.06.92s-.04.62-.06.92h-5.46v-.34c.1-.23.22-.46.36-.69s.29-.45.46-.69.37-.47.59-.72.46-.5.73-.77c.4-.4.73-.75.99-1.03.25-.29.45-.54.6-.76.15-.22.25-.43.3-.62.05-.19.08-.39.08-.61s-.03-.42-.09-.61c-.06-.18-.15-.34-.27-.47s-.26-.23-.44-.3c-.18-.07-.38-.11-.62-.11-.4,0-.73.11-1.01.33s-.48.53-.63.94h-.84v-1.26c.55-.23,1.06-.39,1.52-.5.46-.1.88-.15,1.25-.15h0Z"/>
    <path class="cls-12" d="M680.98,293.94h.51l-1.72,7.67h.28c.44,0,.93-.19,1.48-.58s.99-.74,1.31-1.07.49-.64.49-.95c0-.29-.2-.45-.6-.48l.1-.43h2.85l.17.43c-.49.44-1,.87-1.55,1.29l-2.18,1.69.86,3.17c.07.27.13.46.19.58s.12.21.19.27.17.09.29.09c.15,0,.33-.08.54-.25s.45-.4.72-.71l.5.49c-.53.56-.96.94-1.31,1.16s-.68.33-1,.33c-.4,0-.71-.11-.95-.34s-.42-.6-.55-1.13l-.58-2.29c-.06-.23-.12-.39-.18-.47s-.13-.15-.2-.18-.21-.04-.4-.04h-.61l-.91,4.31h-1.52l2.26-10.05c.08-.34.13-.6.16-.8s.05-.36.05-.51c0-.25-.07-.42-.22-.52s-.42-.16-.8-.17l.11-.46,2.22-.08h0Z"/>
    <path class="cls-12" d="M690.2,301.88c.34,0,.66.04.96.11s.56.18.78.33c.22.15.39.33.51.55.12.22.18.48.18.77,0,.28-.04.52-.12.73-.08.21-.2.4-.36.57s-.36.33-.59.47-.5.27-.81.4v.08c.29.05.56.13.81.25.25.11.47.26.65.43.19.17.33.37.44.6s.16.48.16.75c0,.34-.06.66-.19.96s-.32.55-.58.76-.58.38-.95.5c-.38.12-.82.18-1.33.18-.4,0-.81-.04-1.22-.12-.41-.08-.8-.18-1.17-.31v-1.39h.83c.07.21.15.4.24.55.09.15.21.28.33.37s.27.17.44.21c.17.04.35.06.56.06.55,0,.97-.13,1.26-.4.29-.26.43-.66.43-1.2,0-.57-.19-1-.56-1.3-.38-.29-.93-.44-1.67-.44h-.57v-.62c.45-.02.84-.08,1.17-.19.33-.11.6-.24.82-.41.22-.17.38-.36.49-.59s.16-.46.16-.72c0-.41-.12-.74-.37-.98-.24-.24-.6-.36-1.06-.36-.39,0-.72.11-.98.32-.26.21-.47.53-.61.96h-.82v-1.27c.51-.21.99-.38,1.43-.49s.88-.16,1.29-.16h0Z"/>
  </g>
  <g>
    <path class="cls-12" d="M553.3,428.5h3.64l-.1.43c-.26.03-.46.11-.6.23s-.24.29-.3.51-.09.51-.09.88c0,.09,0,.35.03.79l.25,6.43v.7h.09l3.81-6.86c.22-.4.39-.75.5-1.04s.17-.55.17-.77c0-.49-.29-.79-.88-.88l.1-.43h3.59l-.1.43c-.16.02-.31.08-.45.18s-.3.26-.48.48-.46.66-.83,1.31l-5.62,9.74h-1.17l-.59-9.8c-.02-.38-.07-.71-.13-.98s-.16-.48-.29-.64-.34-.25-.63-.29l.1-.43Z"/>
    <path class="cls-12" d="M570.47,436.59h10.83v1.17h-10.83v-1.17h0ZM570.47,432.95h10.83v1.17h-10.83v-1.17h0Z"/>
    <path class="cls-12" d="M588.66,428.5h3.67l-.1.43c-.26.02-.47.1-.62.23s-.25.33-.31.56-.09.57-.09,1.01v.3c0,.11,0,.21,0,.33l.08,3.44c0,.25,0,.88,0,1.87v1.84s.08,0,.08,0l4.86-10h1.33v5.86c0,.97-.03,2.35-.08,4.14h.09l3.56-6.88c.13-.26.28-.56.43-.91s.22-.65.22-.9c0-.49-.29-.79-.88-.88l.1-.43h3.59l-.1.43c-.27.04-.53.18-.77.44s-.57.77-.98,1.52l-5.28,9.71h-1.35v-6.43c0-1.04.03-2.13.08-3.26h-.09l-4.7,9.69h-1.38l-.41-9.77c-.02-.49-.07-.86-.15-1.12s-.19-.45-.32-.56-.33-.19-.57-.23l.1-.43Z"/>
    <polygon class="cls-12" points="613.25 432.03 614.42 432.03 614.16 434.78 616.42 433.19 616.99 434.18 614.49 435.34 616.99 436.52 616.42 437.5 614.16 435.91 614.42 438.66 613.25 438.66 613.52 435.91 611.25 437.5 610.67 436.52 613.18 435.34 610.67 434.18 611.25 433.19 613.52 434.78 613.25 432.03 613.25 432.03"/>
    <path class="cls-12" d="M623.22,428.5h3.67l-.1.43c-.26.02-.47.1-.62.23s-.25.33-.31.56-.09.57-.09,1.01v.3c0,.11,0,.21,0,.33l.08,3.44c0,.25,0,.88,0,1.87v1.84s.08,0,.08,0l4.86-10h1.33v5.86c0,.97-.03,2.35-.08,4.14h.09l3.56-6.88c.13-.26.28-.56.43-.91s.22-.65.22-.9c0-.49-.29-.79-.88-.88l.1-.43h3.59l-.1.43c-.27.04-.53.18-.77.44s-.57.77-.98,1.52l-5.28,9.71h-1.35v-6.43c0-1.04.03-2.13.08-3.26h-.09l-4.7,9.69h-1.38l-.41-9.77c-.02-.49-.07-.86-.15-1.12s-.19-.45-.32-.56-.33-.19-.57-.23l.1-.43Z"/>
    <path class="cls-12" d="M637.86,437.63c.18,0,.33.04.45.11.11.07.2.17.27.29s.11.25.14.39c.02.14.04.28.04.42,0,.08,0,.19-.03.33l-.41,2.33c-.04.22-.07.44-.1.66-.03.21-.04.4-.04.57s.01.3.03.4.04.15.06.15c.14,0,.31-.05.53-.16.21-.11.44-.26.68-.45.24-.19.48-.42.72-.68.24-.26.45-.55.64-.85s.34-.63.46-.97.18-.68.18-1.02c0-.2-.04-.35-.11-.44s-.18-.14-.31-.14c-.14,0-.28.07-.44.2-.15.13-.32.3-.48.51l-.38-.38c.1-.17.23-.33.37-.48.14-.15.29-.29.45-.4.16-.12.32-.21.49-.28.17-.07.34-.1.5-.1.34,0,.58.11.73.32.15.21.23.5.23.85,0,.21-.04.44-.11.71-.08.27-.18.55-.32.84-.14.3-.3.6-.49.91-.19.31-.4.61-.63.91-.23.29-.47.57-.73.83-.26.26-.53.49-.81.68-.28.19-.57.35-.86.46-.29.11-.58.17-.87.17-.15,0-.28-.03-.39-.09-.1-.06-.18-.15-.24-.26-.06-.11-.09-.25-.12-.4s-.03-.32-.03-.51c0-.24.02-.51.05-.79s.07-.56.12-.84c.23-1.38.34-2.18.34-2.4,0-.16,0-.27-.05-.33s-.11-.09-.19-.09c-.09,0-.18.02-.27.07s-.19.11-.29.18c-.1.07-.19.15-.29.24-.09.08-.18.16-.26.24l-.35-.43c.14-.15.29-.3.45-.45s.33-.29.51-.41.37-.22.57-.29c.2-.07.4-.11.6-.11h0Z"/>
    <path class="cls-12" d="M650.27,436.59h10.83v1.17h-10.83v-1.17h0ZM650.27,432.95h10.83v1.17h-10.83v-1.17h0Z"/>
    <path class="cls-12" d="M693.04,408.66h4.78v53.38h-4.78v-.86h2.97v-51.66h-2.97v-.86h0ZM669.45,408.66h4.78v.86h-2.97v51.66h2.97v.86h-4.78v-53.38h0Z"/>
    <path class="cls-12" d="M683.21,408.03c.42,0,.73.11.91.33s.28.51.28.88c0,.28-.05.6-.15.97s-.24.75-.42,1.15-.4.82-.65,1.24-.53.84-.83,1.24-.63.78-.98,1.13-.7.66-1.08.93-.75.47-1.13.63-.77.23-1.15.23c-.17,0-.31-.04-.43-.13s-.21-.21-.28-.36-.12-.34-.15-.55-.04-.44-.04-.69c0-.33.02-.69.06-1.07s.09-.76.16-1.15l.37-2.43c.02-.14.04-.27.06-.4s.02-.22.02-.28c0-.18-.03-.33-.09-.45s-.16-.18-.3-.18c-.11,0-.23.03-.36.1s-.26.15-.39.26-.26.22-.38.34-.24.23-.34.34l-.42-.49c.18-.19.38-.37.58-.56s.42-.35.65-.5.47-.27.72-.36.51-.14.77-.14c.22,0,.4.04.54.11s.25.17.33.29.13.25.16.4.04.29.04.43c0,.08,0,.16,0,.24s-.01.15-.03.21l-.49,3.18c-.05.33-.1.66-.13.98s-.05.6-.05.85.01.45.04.6.08.23.17.23c.19,0,.44-.08.73-.23s.6-.37.92-.64.64-.59.97-.97.61-.77.87-1.21.47-.89.63-1.37.24-.96.24-1.45c0-.21-.05-.37-.14-.49s-.23-.17-.43-.17c-.25,0-.47.1-.68.29s-.42.44-.65.75l-.5-.45c.14-.21.31-.41.5-.61s.39-.36.61-.51.44-.26.66-.35.45-.13.67-.13h0Z"/>
    <path class="cls-12" d="M688.48,412.03h.39c0,.24-.02.45-.02.63,0,.19,0,.37,0,.54,0,.18,0,.35,0,.52v4.9c0,.13,0,.25.01.34s.02.18.04.24.05.12.08.17c.03.05.07.09.11.12.05.05.12.09.21.12.09.03.2.05.33.07.13.02.29.03.48.05.19.01.41.02.67.02v.56h-5.11v-.56c.25,0,.47-.02.64-.03.18-.01.33-.03.45-.05.12-.02.22-.04.3-.06.08-.02.14-.05.2-.09.06-.04.11-.08.15-.13.04-.05.08-.1.1-.17.03-.07.05-.15.06-.25.02-.1.02-.22.02-.37v-4.62c0-.17-.03-.29-.1-.35-.06-.07-.16-.1-.28-.1-.13,0-.33.07-.59.21-.26.14-.6.34-1.02.61-.06-.1-.11-.2-.15-.3-.05-.1-.1-.2-.15-.3.53-.29,1.06-.58,1.58-.87.52-.29,1.05-.58,1.59-.87h0Z"/>
    <path class="cls-12" d="M682.97,429.15c.42,0,.73.11.91.33s.28.51.28.88c0,.28-.05.6-.15.97s-.24.75-.42,1.15-.4.82-.65,1.24-.53.84-.83,1.24-.63.78-.98,1.13-.7.66-1.08.93-.75.47-1.13.63-.77.23-1.15.23c-.17,0-.31-.04-.43-.13s-.21-.21-.28-.36-.12-.34-.15-.55-.04-.44-.04-.69c0-.33.02-.69.06-1.07s.09-.76.16-1.15l.37-2.43c.02-.14.04-.27.06-.4s.02-.22.02-.28c0-.18-.03-.33-.09-.45s-.16-.18-.3-.18c-.11,0-.23.03-.36.1s-.26.15-.39.26-.26.22-.38.34-.24.23-.34.34l-.42-.49c.18-.19.38-.37.58-.56s.42-.35.65-.5.47-.27.72-.36.51-.14.77-.14c.22,0,.4.04.54.11s.25.17.33.29.13.25.16.4.04.29.04.43c0,.08,0,.16,0,.24s-.01.15-.03.21l-.49,3.18c-.05.33-.1.66-.13.98s-.05.6-.05.85.01.45.04.6.08.23.17.23c.19,0,.44-.08.73-.23s.6-.37.92-.64.64-.59.97-.97.61-.77.87-1.21.47-.89.63-1.37.24-.96.24-1.45c0-.21-.05-.37-.14-.49s-.23-.17-.43-.17c-.25,0-.47.1-.68.29s-.42.44-.65.75l-.5-.45c.14-.21.31-.41.5-.61s.39-.36.61-.51.44-.26.66-.35.45-.13.67-.13h0Z"/>
    <path class="cls-12" d="M688.21,433.11c.45,0,.83.05,1.14.15.32.1.57.24.77.41.2.17.34.38.43.62.09.24.13.5.13.78,0,.17-.01.32-.04.47s-.06.29-.12.43c-.06.14-.13.28-.23.42-.09.14-.21.29-.35.45-.11.14-.25.3-.42.48-.17.18-.36.37-.56.58-.2.21-.42.42-.64.64-.22.22-.44.44-.65.66-.21.22-.4.43-.58.64-.18.21-.32.4-.43.57h2.38c.2,0,.36,0,.48-.02.12-.02.22-.05.3-.1.08-.05.15-.13.2-.24.06-.11.12-.25.19-.44h.6c-.02.31-.04.61-.06.92-.02.31-.04.62-.06.92h-5.46v-.34c.1-.23.22-.46.36-.69s.29-.45.46-.69.37-.47.59-.72.46-.5.73-.77c.4-.4.73-.75.99-1.03.25-.29.45-.54.6-.76.15-.22.25-.43.3-.62s.08-.39.08-.61-.03-.42-.09-.61c-.06-.18-.15-.34-.27-.47s-.26-.23-.44-.3c-.18-.07-.38-.11-.62-.11-.4,0-.73.11-1.01.33-.27.22-.48.53-.63.94h-.84v-1.26c.55-.23,1.06-.39,1.52-.5s.88-.15,1.25-.15h0Z"/>
    <path class="cls-12" d="M682.97,450.27c.42,0,.73.11.91.33s.28.51.28.88c0,.28-.05.6-.15.97s-.24.75-.42,1.15-.4.82-.65,1.24-.53.84-.83,1.24-.63.78-.98,1.13-.7.66-1.08.93-.75.47-1.13.63-.77.23-1.15.23c-.17,0-.31-.04-.43-.13s-.21-.21-.28-.36-.12-.34-.15-.55-.04-.44-.04-.69c0-.33.02-.69.06-1.07s.09-.76.16-1.15l.37-2.43c.02-.14.04-.27.06-.4s.02-.22.02-.28c0-.18-.03-.33-.09-.45s-.16-.18-.3-.18c-.11,0-.23.03-.36.1s-.26.15-.39.26-.26.22-.38.34-.24.23-.34.34l-.42-.49c.18-.19.38-.37.58-.56s.42-.35.65-.5.47-.27.72-.36.51-.14.77-.14c.22,0,.4.04.54.11s.25.17.33.29.13.25.16.4.04.29.04.43c0,.08,0,.16,0,.24s-.01.15-.03.21l-.49,3.18c-.05.33-.1.66-.13.98s-.05.6-.05.85.01.45.04.6.08.23.17.23c.19,0,.44-.08.73-.23s.6-.37.92-.64.64-.59.97-.97.61-.77.87-1.21.47-.89.63-1.37.24-.96.24-1.45c0-.21-.05-.37-.14-.49s-.23-.17-.43-.17c-.25,0-.47.1-.68.29s-.42.44-.65.75l-.5-.45c.14-.21.31-.41.5-.61s.39-.36.61-.51.44-.26.66-.35.45-.13.67-.13h0Z"/>
    <path class="cls-12" d="M688.2,454.23c.34,0,.66.04.96.11.3.07.56.18.78.33.22.15.39.33.51.55.12.22.18.48.18.77,0,.27-.04.52-.12.73-.08.21-.2.4-.36.57s-.36.33-.59.47-.5.27-.81.4v.08c.29.05.56.13.81.25s.47.26.65.43c.19.17.33.37.44.6.11.23.16.48.16.75,0,.34-.06.66-.19.96s-.32.55-.58.76-.58.38-.95.5c-.38.12-.82.18-1.33.18-.4,0-.81-.04-1.22-.12-.41-.08-.8-.18-1.17-.31v-1.39h.83c.07.21.15.4.24.55.09.15.21.28.33.37s.27.17.44.21c.17.04.35.06.56.06.55,0,.97-.13,1.26-.4.29-.26.43-.66.43-1.2,0-.57-.19-1-.56-1.3-.38-.29-.93-.44-1.67-.44h-.57v-.62c.45-.02.84-.08,1.17-.19.33-.11.6-.24.82-.41.22-.17.38-.36.49-.59.11-.22.16-.46.16-.72,0-.41-.12-.74-.37-.98-.24-.24-.6-.36-1.06-.36-.39,0-.72.11-.98.32-.26.21-.47.53-.61.96h-.82v-1.27c.51-.21.99-.38,1.43-.49.45-.11.88-.16,1.29-.16h0Z"/>
  </g>
  <path class="cls-11" d="M471.95,93.59c0-1.26.17-2.36.51-3.29.34-.93.92-1.94,1.72-3.03h.82c-.81,1.1-1.39,2.12-1.74,3.06s-.52,2.04-.52,3.27.17,2.32.52,3.27c.35.94.93,1.97,1.74,3.07h-.82c-.79-1.05-1.36-2.06-1.71-3.01-.35-.95-.53-2.06-.53-3.35Z"/>
  <path class="cls-11" d="M483.16,97.24l-5.77-8.58c.04.74.06,1.33.06,1.78v6.8h-.86v-9.66h1.08l5.81,8.64c-.05-.64-.08-1.29-.08-1.93v-6.72h.88v9.66h-1.12Z"/>
  <path class="cls-11" d="M487.57,96.94c0,.41-.03.75-.1,1.04-.06.28-.17.57-.33.85h-.62c.34-.55.51-1.08.51-1.59h-.45v-1.19h.99v.89Z"/>
</svg>