<?xml version="1.0" encoding="UTF-8"?>
<svg id="_图层_1" data-name="图层 1" xmlns="http://www.w3.org/2000/svg" viewBox="0 0 730.34 514.96">
  <defs>
    <style>
      .cls-1 {
        fill: #c0e0c1;
        stroke: #1e6935;
      }

      .cls-1, .cls-2, .cls-3, .cls-4 {
        stroke-miterlimit: 8;
        stroke-width: .67px;
      }

      .cls-5, .cls-6 {
        fill: #040000;
      }

      .cls-6, .cls-7 {
        fill-rule: evenodd;
      }

      .cls-8 {
        isolation: isolate;
      }

      .cls-9 {
        fill: #165d7e;
      }

      .cls-2 {
        fill: #f9e1d5;
        stroke: #de6f35;
      }

      .cls-3 {
        fill: #ebcde2;
        stroke: #952d8a;
      }

      .cls-7 {
        fill: #747474;
      }

      .cls-10 {
        fill: #bfe1f0;
        stroke: #1d95c7;
        stroke-linejoin: round;
      }

      .cls-4 {
        fill: #d9d9d9;
        stroke: #022332;
      }
    </style>
  </defs>
  <rect class="cls-10" x="7.91" y="271.33" width="43" height="39"/>
  <g class="cls-8">
    <path class="cls-5" d="M23.53,286.26v-3.5c-.93.16-2.18.33-3.75.53-.38-.77-.74-1.32-1.08-1.68.55.06,1.1.09,1.66.09,2.27,0,4.66-.5,7.2-1.51l.89,1.31c.09.13.14.23.14.28,0,.02-.01.05-.04.07s-.07.04-.14.04-.16,0-.28-.02c-.12-.02-.24-.04-.34-.04-.11,0-.21.01-.3.04-.85.24-1.71.45-2.57.62v3.77h5.32c-.24-3.27-.39-5.67-.46-7.21l2.17.5c.16.04.23.09.23.15.02.05-.05.12-.19.21-.37.29-.55.82-.55,1.58.02,1.81.09,3.4.21,4.76h5.88c.38.02.87-.03,1.46-.14v1.49c-.67-.12-1.18-.17-1.51-.15h-5.77c.2,2.45.61,4.55,1.23,6.29,1.18-1.63,1.99-3.43,2.44-5.38l1.78,1.01c.14.08.2.14.16.19,0,.05-.1.14-.3.25-.32.17-.59.48-.8.94-.72,1.5-1.61,3.01-2.66,4.54,1.07,2.49,2.22,3.87,3.46,4.12.57.09.92-.71,1.05-2.4.48.35.97.62,1.49.82-.59,2.25-1.28,3.38-2.09,3.38-.08,0-.14,0-.18-.01-1.58-.15-3.15-1.7-4.72-4.66-1.44,1.46-3.12,2.86-5.04,4.21-.55-.4-1.16-.71-1.85-.94,2.27-.87,4.36-2.45,6.27-4.73-.77-1.58-1.32-4.11-1.64-7.61h-5.41v4.35c1.5-.53,2.75-1.07,3.74-1.61l.02,1.54c-1.54.55-2.79,1.04-3.76,1.44v5.61c.03.96-.23,1.59-.77,1.9-.52.34-1.64.54-3.36.62.02-.62-.14-1.24-.46-1.85.96.15,1.66.22,2.11.22.26,0,.45-.02.56-.07.38-.09.56-.46.53-1.11v-4.77c-1.92.66-3.38,1.29-4.37,1.9l-1.08-1.59c1.82-.37,3.64-.94,5.45-1.72v-4.85h-3.77c-.46-.02-1.09.04-1.88.15v-1.49c.67.11,1.28.16,1.83.14h3.82ZM32.74,281.38l1.03-.94c1.2.99,2.45,2.13,3.73,3.41l-1.08,1.1c-1.3-1.44-2.52-2.63-3.68-3.57Z"/>
  </g>
  <rect class="cls-4" x="74.91" y="276.33" width="29" height="28"/>
  <rect class="cls-4" x="102.91" y="276.33" width="28" height="28"/>
  <rect class="cls-4" x="130.91" y="276.33" width="28" height="28"/>
  <rect class="cls-4" x="158.91" y="276.33" width="28" height="28"/>
  <rect class="cls-4" x="186.91" y="276.33" width="28" height="28"/>
  <rect class="cls-2" x="469.91" y="133.33" width="21" height="21"/>
  <rect class="cls-2" x="490.91" y="133.33" width="20" height="21"/>
  <rect class="cls-2" x="510.91" y="133.33" width="21" height="21"/>
  <rect class="cls-2" x="531.91" y="133.33" width="21" height="21"/>
  <rect class="cls-2" x="552.91" y="133.33" width="20" height="21"/>
  <rect class="cls-2" x="572.91" y="133.33" width="21" height="21"/>
  <rect class="cls-1" x="467.91" y="279.33" width="21" height="21"/>
  <rect class="cls-1" x="487.91" y="279.33" width="21" height="21"/>
  <rect class="cls-1" x="508.91" y="279.33" width="21" height="21"/>
  <rect class="cls-1" x="528.91" y="279.33" width="21" height="21"/>
  <rect class="cls-1" x="549.91" y="279.33" width="21" height="21"/>
  <rect class="cls-1" x="569.91" y="279.33" width="21" height="21"/>
  <rect class="cls-3" x="467.91" y="426.33" width="21" height="20"/>
  <rect class="cls-3" x="487.91" y="426.33" width="21" height="20"/>
  <rect class="cls-3" x="508.91" y="426.33" width="21" height="20"/>
  <rect class="cls-3" x="528.91" y="426.33" width="21" height="20"/>
  <rect class="cls-3" x="549.91" y="426.33" width="21" height="20"/>
  <rect class="cls-3" x="569.91" y="426.33" width="21" height="20"/>
  <path class="cls-7" d="M421.51,133.62h33.81v7.76h-33.81v-7.76ZM421.51,145.27h33.81v7.76h-33.81v-7.76Z"/>
  <path class="cls-7" d="M421.51,279.62h33.81v7.76h-33.81v-7.76ZM421.51,291.27h33.81v7.76h-33.81v-7.76Z"/>
  <path class="cls-7" d="M421.51,426.42h33.81v7.53h-33.81v-7.53ZM421.51,437.71h33.81v7.53h-33.81v-7.53Z"/>
  <rect class="cls-2" x="285.91" y="112.33" width="21" height="21"/>
  <rect class="cls-2" x="305.91" y="112.33" width="21" height="21"/>
  <rect class="cls-2" x="326.91" y="112.33" width="21" height="21"/>
  <rect class="cls-2" x="346.91" y="112.33" width="21" height="21"/>
  <rect class="cls-2" x="367.91" y="112.33" width="21" height="21"/>
  <rect class="cls-2" x="285.91" y="91.33" width="21" height="21"/>
  <rect class="cls-2" x="305.91" y="91.33" width="21" height="21"/>
  <rect class="cls-2" x="326.91" y="91.33" width="21" height="21"/>
  <rect class="cls-2" x="346.91" y="91.33" width="21" height="21"/>
  <rect class="cls-2" x="367.91" y="91.33" width="21" height="21"/>
  <rect class="cls-2" x="285.91" y="154.33" width="21" height="20"/>
  <rect class="cls-2" x="305.91" y="154.33" width="21" height="20"/>
  <rect class="cls-2" x="326.91" y="154.33" width="21" height="20"/>
  <rect class="cls-2" x="346.91" y="154.33" width="21" height="20"/>
  <rect class="cls-2" x="367.91" y="154.33" width="21" height="20"/>
  <rect class="cls-2" x="285.91" y="133.33" width="21" height="21"/>
  <rect class="cls-2" x="305.91" y="133.33" width="21" height="21"/>
  <rect class="cls-2" x="326.91" y="133.33" width="21" height="21"/>
  <rect class="cls-2" x="346.91" y="133.33" width="21" height="21"/>
  <rect class="cls-2" x="367.91" y="133.33" width="21" height="21"/>
  <rect class="cls-2" x="285.91" y="174.33" width="21" height="21"/>
  <rect class="cls-2" x="305.91" y="174.33" width="21" height="21"/>
  <rect class="cls-2" x="326.91" y="174.33" width="21" height="21"/>
  <rect class="cls-2" x="346.91" y="174.33" width="21" height="21"/>
  <rect class="cls-2" x="367.91" y="174.33" width="21" height="21"/>
  <rect class="cls-2" x="387.91" y="112.33" width="21" height="21"/>
  <rect class="cls-2" x="387.91" y="91.33" width="21" height="21"/>
  <rect class="cls-2" x="387.91" y="154.33" width="21" height="20"/>
  <rect class="cls-2" x="387.91" y="133.33" width="21" height="21"/>
  <rect class="cls-2" x="387.91" y="174.33" width="21" height="21"/>
  <rect class="cls-1" x="285.91" y="258.33" width="21" height="21"/>
  <rect class="cls-1" x="305.91" y="258.33" width="21" height="21"/>
  <rect class="cls-1" x="326.91" y="258.33" width="21" height="21"/>
  <rect class="cls-1" x="346.91" y="258.33" width="21" height="21"/>
  <rect class="cls-1" x="367.91" y="258.33" width="21" height="21"/>
  <rect class="cls-1" x="285.91" y="238.33" width="21" height="20"/>
  <rect class="cls-1" x="305.91" y="238.33" width="21" height="20"/>
  <rect class="cls-1" x="326.91" y="238.33" width="21" height="20"/>
  <rect class="cls-1" x="346.91" y="238.33" width="21" height="20"/>
  <rect class="cls-1" x="367.91" y="238.33" width="21" height="20"/>
  <rect class="cls-1" x="285.91" y="300.33" width="21" height="21"/>
  <rect class="cls-1" x="305.91" y="300.33" width="21" height="21"/>
  <rect class="cls-1" x="326.91" y="300.33" width="21" height="21"/>
  <rect class="cls-1" x="346.91" y="300.33" width="21" height="21"/>
  <rect class="cls-1" x="367.91" y="300.33" width="21" height="21"/>
  <rect class="cls-1" x="285.91" y="279.33" width="21" height="21"/>
  <rect class="cls-1" x="305.91" y="279.33" width="21" height="21"/>
  <rect class="cls-1" x="326.91" y="279.33" width="21" height="21"/>
  <rect class="cls-1" x="346.91" y="279.33" width="21" height="21"/>
  <rect class="cls-1" x="367.91" y="279.33" width="21" height="21"/>
  <rect class="cls-1" x="285.91" y="321.33" width="21" height="20"/>
  <rect class="cls-1" x="305.91" y="321.33" width="21" height="20"/>
  <rect class="cls-1" x="326.91" y="321.33" width="21" height="20"/>
  <rect class="cls-1" x="346.91" y="321.33" width="21" height="20"/>
  <rect class="cls-1" x="367.91" y="321.33" width="21" height="20"/>
  <rect class="cls-1" x="387.91" y="258.33" width="21" height="21"/>
  <rect class="cls-1" x="387.91" y="238.33" width="21" height="20"/>
  <rect class="cls-1" x="387.91" y="300.33" width="21" height="21"/>
  <rect class="cls-1" x="387.91" y="279.33" width="21" height="21"/>
  <rect class="cls-1" x="387.91" y="321.33" width="21" height="20"/>
  <rect class="cls-3" x="285.91" y="405.33" width="21" height="21"/>
  <rect class="cls-3" x="305.91" y="405.33" width="21" height="21"/>
  <rect class="cls-3" x="326.91" y="405.33" width="21" height="21"/>
  <rect class="cls-3" x="346.91" y="405.33" width="21" height="21"/>
  <rect class="cls-3" x="367.91" y="405.33" width="21" height="21"/>
  <rect class="cls-3" x="285.91" y="384.33" width="21" height="21"/>
  <rect class="cls-3" x="305.91" y="384.33" width="21" height="21"/>
  <rect class="cls-3" x="326.91" y="384.33" width="21" height="21"/>
  <rect class="cls-3" x="346.91" y="384.33" width="21" height="21"/>
  <rect class="cls-3" x="367.91" y="384.33" width="21" height="21"/>
  <rect class="cls-3" x="285.91" y="446.33" width="21" height="21"/>
  <rect class="cls-3" x="305.91" y="446.33" width="21" height="21"/>
  <rect class="cls-3" x="326.91" y="446.33" width="21" height="21"/>
  <rect class="cls-3" x="346.91" y="446.33" width="21" height="21"/>
  <rect class="cls-3" x="367.91" y="446.33" width="21" height="21"/>
  <rect class="cls-3" x="285.91" y="426.33" width="21" height="20"/>
  <rect class="cls-3" x="305.91" y="426.33" width="21" height="20"/>
  <rect class="cls-3" x="326.91" y="426.33" width="21" height="20"/>
  <rect class="cls-3" x="346.91" y="426.33" width="21" height="20"/>
  <rect class="cls-3" x="367.91" y="426.33" width="21" height="20"/>
  <rect class="cls-3" x="285.91" y="467.33" width="21" height="21"/>
  <rect class="cls-3" x="305.91" y="467.33" width="21" height="21"/>
  <rect class="cls-3" x="326.91" y="467.33" width="21" height="21"/>
  <rect class="cls-3" x="346.91" y="467.33" width="21" height="21"/>
  <rect class="cls-3" x="367.91" y="467.33" width="21" height="21"/>
  <rect class="cls-3" x="387.91" y="405.33" width="21" height="21"/>
  <rect class="cls-3" x="387.91" y="384.33" width="21" height="21"/>
  <rect class="cls-3" x="387.91" y="446.33" width="21" height="21"/>
  <rect class="cls-3" x="387.91" y="426.33" width="21" height="20"/>
  <rect class="cls-3" x="387.91" y="467.33" width="21" height="21"/>
  <path class="cls-9" d="M204.12,231.21l67.74-68.93-1.43-1.4-67.74,68.93,1.43,1.4ZM273.07,165.34l2.75-8.51-8.46,2.9,5.71,5.61Z"/>
  <path class="cls-9" d="M225.41,288.83h42.99v2h-42.99v-2ZM267.06,285.83l8,4-8,4v-8Z"/>
  <path class="cls-9" d="M204.1,362.1l67.6,64.63-1.38,1.45-67.59-64.63,1.38-1.45ZM272.8,423.65l3.02,8.42-8.55-2.64,5.53-5.78Z"/>
  <g class="cls-8">
    <path class="cls-5" d="M327.09,22.71c-1.26-.16-2.14-.23-2.64-.22h-4.01v2.05h6.98c.39,0,1.14-.06,2.25-.2v2.21c-1.14-.16-1.89-.23-2.25-.22h-6.98v3c0,.53.06,1.36.19,2.47h-2.59c.13-1.2.2-2.02.19-2.47v-3h-7.63c-.31-.02-1.07.06-2.27.22v-2.21c1.14.14,1.9.21,2.27.2h7.63v-2.05h-4.01c-.58,0-1.44.07-2.59.22.14-1.28.21-2.13.2-2.54v-4.78c.02-.22-.05-1.07-.2-2.54,1.27.16,2.13.23,2.57.22h1.99c-.96-.91-2.06-1.77-3.3-2.58l1.41-1.61c1.29.83,2.53,1.76,3.73,2.79l-1.25,1.39h3.61c.84-1.18,1.68-2.59,2.54-4.23l1.99,1.08c.3.17.45.34.44.52s-.18.29-.51.35c-.22.04-.45.24-.7.6-.05.08-.14.19-.25.34-.36.52-.69.96-1,1.35h1.56c.52,0,1.39-.07,2.64-.22-.13,1.1-.2,1.96-.19,2.57v4.76c0,.7.06,1.55.19,2.54ZM314.01,14.85v2.04h4.22v-2.04h-4.22ZM314.01,18.65v2.04h4.22v-2.04h-4.22ZM324.69,14.85h-4.24v2.04h4.24v-2.04ZM320.45,18.65v2.04h4.24v-2.04h-4.24Z"/>
    <path class="cls-5" d="M331.72,19.52c5.06-1.78,8.52-5.25,10.37-10.42l2.45.94c.24.09.37.21.38.34s-.09.26-.31.38c-.2.11-.35.25-.46.41,2.88,3.76,6.32,6.29,10.35,7.61-.56.39-1.2,1.02-1.92,1.89-.07.09-.12.15-.16.2-4.19-2.4-7.32-4.98-9.41-7.75-1.91,3.12-4.95,5.93-9.14,8.4-.25-.4-.68-.82-1.28-1.28-.38-.28-.66-.52-.87-.71ZM344.42,19.25v9.23c0,1.17.07,2.25.19,3.22h-2.64c.12-.98.18-2.07.19-3.29v-9.6c0-.53-.05-1.31-.19-2.33l2.52.39c.27.03.42.11.45.22.04.11-.03.31-.21.6-.21.34-.31.86-.3,1.56Z"/>
    <path class="cls-5" d="M357.38,29.33c4.39-1.43,6.61-4.61,6.67-9.55h-.55c-.95.02-1.91.09-2.88.21v-1.2c-.93,1.03-1.88,1.93-2.86,2.68-.76-.66-1.47-1.2-2.13-1.61,3.76-1.93,6.29-5.27,7.58-10.01l2.02.77c.47.17.7.33.7.47.03.13-.17.34-.6.61-.24.13-.48.48-.73,1.05-.88,1.84-1.94,3.54-3.19,5.09.64.08,1.34.12,2.09.12h7.03c.65,0,1.3-.03,1.95-.09-1.8-1.96-3.38-4.73-4.71-8.3l2.43-.36c1.12,4.22,3.93,7.62,8.43,10.22-.8.41-1.63,1.02-2.47,1.8-1.02-.8-1.96-1.62-2.82-2.47-.07.59-.11,1.11-.11,1.56l-.21,4.9c-.07,2.36-.45,3.82-1.12,4.38-.52.64-2.01,1.02-4.49,1.14-.23-.7-.64-1.54-1.23-2.54,1.17.12,2,.19,2.47.19.82.02,1.36-.2,1.61-.63.26-.35.41-1.24.46-2.67.02-.6.06-1.49.12-2.66.05-1.16.08-2.05.11-2.65h-4.51c-.17,5.22-2.52,9.05-7.05,11.5-.77-.85-1.42-1.5-1.97-1.95Z"/>
    <path class="cls-5" d="M385.72,19.13l-.12,7.68c.64-.68,1.43-1.64,2.38-2.88.12,1.11.39,1.95.81,2.52-2.24,2.27-3.68,3.83-4.31,4.69-.7-.91-1.31-1.54-1.85-1.88.52-.48.78-.96.8-1.46l.16-8.93h-1.49c-.66.02-1.41.07-2.27.18v-2.19c1.05.14,1.81.21,2.27.22h1.01c.34,0,1.27-.07,2.81-.2-.12,1.09-.18,1.85-.2,2.26ZM381.43,11.21l1.58-1.49c1.35,1.35,2.61,2.7,3.76,4.03l-1.63,1.51c-1.48-1.81-2.72-3.16-3.71-4.05ZM398.15,15.08v2.18c-.91-.11-1.66-.17-2.27-.19h-6.13c-.5.02-1.27.08-2.3.19v-2.18c1.1.12,1.87.19,2.3.19h6.11c.52-.02,1.29-.08,2.3-.19ZM390.28,11.19h8.07c1.23-.05,2.15-.14,2.78-.27-.1,1.09-.16,1.93-.19,2.52v15.36c.03.83-.29,1.39-.95,1.69-.63.33-1.94.56-3.93.69-.03-.79-.39-1.7-1.08-2.72,1.38.23,2.32.36,2.8.36.39,0,.66-.07.8-.22.13-.13.2-.41.19-.83v-14.79h-8.5c-.31,0-1.08.07-2.3.2v-2.16c1.22.11,1.98.16,2.3.16ZM389.08,21.38c-.02-.84-.06-1.67-.14-2.5,1.05.12,1.93.18,2.61.2h2.81c.22,0,.93-.05,2.14-.14.31-.03.54-.05.68-.06-.11,1.22-.17,2.04-.19,2.47v2.64c.02.41.08,1.19.19,2.36-1.28-.12-2.15-.19-2.61-.19h-2.98c-.53.02-1.43.08-2.71.19.1-1.07.16-1.92.19-2.54v-2.43ZM391.19,20.88v3.48h3.7v-3.48h-3.7Z"/>
    <path class="cls-5" d="M405.89,13.63c1.09.12,2.13.2,3.12.21h.26c.87-1.37,1.48-2.87,1.83-4.51l2.54,1.03c.34.15.51.31.49.48-.03.18-.23.33-.61.46-.27.08-.5.29-.69.63-.2.35-.54.92-1.02,1.71-.05.09-.09.15-.12.2h9.34c.95,0,1.99-.08,3.12-.21-.11.86-.17,1.82-.19,2.88v11.59c.05,1.23-.2,1.98-.75,2.25-.41.33-1.8.59-4.15.77-.16-.7-.52-1.57-1.08-2.59,1.3.14,2.2.21,2.71.21.41,0,.69-.06.82-.18.13-.1.2-.32.19-.67v-12.21h-13.42v12.76c0,.39.05,1.2.15,2.43,0,.1.02.18.02.22h-2.57c.11-1.2.16-2.09.16-2.65v-11.94c-.02-.85-.07-1.81-.16-2.88ZM419.33,18.38c-.13,1.05-.2,1.81-.2,2.29v3.28c0,.68.05,1.47.16,2.38-1.02-.14-1.87-.21-2.54-.21h-3.79c-.69,0-1.53.08-2.52.21.14-1.07.21-1.86.21-2.38v-3.26c0-.55-.06-1.32-.19-2.31.98.14,1.82.21,2.5.22h3.87c.61,0,1.44-.08,2.5-.22ZM412.82,24.31h4.12v-3.91h-4.12v3.91Z"/>
    <path class="cls-5" d="M449.73,17.07v2.11c-.54-.09-.98-.14-1.31-.18-.31-.03-.64-.05-.98-.05h-17.09c-.52-.02-1.29.05-2.33.22v-2.13c.62.09,1.07.14,1.35.16.3.03.63.05.98.05h17.09c.48.02,1.25-.05,2.3-.19ZM430.92,28.82h7.1v-.64h-5.4c-.48-.02-1.25.05-2.33.21v-2.13c.65.1,1.11.16,1.37.19.29.03.61.05.96.05h5.4v-.69h-4.49c-.54-.02-1.35.07-2.43.25.09-.59.14-1.04.18-1.37s.05-.64.05-.94v-2.16c.02-.46-.06-1.22-.22-2.29.81.12,1.32.18,1.54.2.29.03.56.05.82.05h11.04c.55.02,1.38-.05,2.5-.22-.09.58-.14,1.02-.18,1.34-.03.3-.05.6-.05.9v2.18c-.02.44.06,1.2.22,2.29-1.12-.16-1.96-.23-2.5-.22h-4.32v.69h5.06c.38.02,1.15-.05,2.33-.21v2.09c-.62-.08-1.08-.13-1.38-.15s-.61-.04-.96-.04h-5.06v.64h6.77c.3.02,1.08-.05,2.32-.19v2.09c-1.22-.16-1.99-.23-2.32-.21h-16.03c-.54-.02-1.32.06-2.36.23v-2.11c.54.08.96.13,1.26.15s.67.04,1.1.04ZM446.51,10.48c-.09.48-.14,1.11-.14,1.9v2.54c-.02.27.05.91.21,1.95-.58-.07-1.02-.12-1.33-.15s-.59-.04-.85-.04h-10.71c-.62-.02-1.42.05-2.4.23.09-.48.14-.86.18-1.14.03-.26.05-.54.05-.83v-2.39c0-.41-.07-1.12-.22-2.12.6.1,1.04.17,1.33.2s.6.05.96.05h10.87c.62,0,1.31-.07,2.06-.2ZM433.44,21.12v.71h4.58v-.71h-4.58ZM433.44,23.42v.8h4.58v-.8h-4.58ZM433.62,12.24v.64h10.6v-.64h-10.6ZM433.62,14.47v.66h10.6v-.66h-10.6ZM440.18,21.12v.71h4.49v-.71h-4.49ZM440.18,23.42v.8h4.49v-.8h-4.49Z"/>
    <path class="cls-5" d="M455.75,30.74h-2.44c.13-1.21.2-2.02.19-2.43v-11.54c0-.57-.05-1.47-.19-2.71.96.16,1.62.23,1.98.23.58-1.53,1.02-3.22,1.32-5.06l2.11.6c.49.12.75.27.79.45s-.16.41-.59.68c-.18.1-.33.35-.46.75-.08.22-.18.5-.3.86-.21.6-.43,1.18-.66,1.73h1.92c.52.02,1.39-.05,2.59-.21-.13,1.2-.2,2.09-.19,2.68v.6c1.75-1.95,2.93-4.71,3.55-8.27l2.2.74c.45.16.67.32.66.46.02.15-.2.39-.63.73-.09.04-.22.25-.39.64-.23.74-.55,1.58-.96,2.52h4.16c.39,0,1.2-.06,2.43-.2-.12,1.27-.18,2.2-.18,2.77l-.12,10.83c.02,1.36-.35,2.29-1.11,2.79-.71.54-2.22.94-4.52,1.2-.12-.85-.45-1.7-.98-2.54,1.14.09,1.88.14,2.2.14,1.51.05,2.24-.5,2.19-1.65.02-1.93.05-3.84.09-5.73.04-1.91.07-3.84.09-5.8h-4.99c-.41.8-.97,1.75-1.7,2.84-.31-.31-.98-.69-1.99-1.12v10.1c0,.52.06,1.28.19,2.26h-2.52c.1-.67.16-1.12.16-1.35h-4.08c0,.39.05,1.07.16,2.04ZM455.61,16.11v4.54h4.1v-4.54h-4.1ZM455.61,22.39v4.51h4.1v-4.51h-4.1ZM463.82,20.47l1.7-1.41c1.48,1.52,2.8,3.04,3.96,4.58l-1.92,1.51c-1.14-1.8-2.39-3.36-3.74-4.69Z"/>
  </g>
  <g class="cls-8">
    <path class="cls-5" d="M492.05,20.43c0,2.31-.54,4.2-1.63,5.67s-2.58,2.36-4.49,2.68c.27.86.64,1.49,1.12,1.9s1.12.62,1.92.62c.45,0,.91-.05,1.38-.15v1.92c-.79.21-1.58.32-2.38.32-1.2,0-2.19-.35-2.96-1.04s-1.4-1.83-1.88-3.43c-2.2-.16-3.9-.99-5.13-2.48s-1.83-3.49-1.83-6.02c0-2.66.69-4.73,2.08-6.21s3.34-2.21,5.87-2.21,4.47.74,5.85,2.21,2.07,3.55,2.07,6.21ZM489.15,20.43c0-1.98-.43-3.51-1.3-4.56s-2.11-1.59-3.71-1.59-2.88.53-3.76,1.58-1.31,2.58-1.31,4.58.44,3.55,1.32,4.65,2.12,1.65,3.71,1.65,2.89-.53,3.75-1.59,1.29-2.63,1.29-4.72Z"/>
    <path class="cls-5" d="M504.5,28.76l-4.84-7.55-1.56,1.51v6.04h-2.85V12.25h2.85v7.63l5.92-7.63h3.39l-5.65,7.11,6.19,9.4h-3.45Z"/>
    <path class="cls-5" d="M514.04,28.76l-6.06-16.51h2.96l3.7,11.05c.35,1.05.66,2.11.93,3.18.32-1.21.62-2.25.9-3.12l3.68-11.11h2.96l-6.05,16.51h-3.04Z"/>
  </g>
  <g class="cls-8">
    <path class="cls-5" d="M529.82,18.08c-.09.78-.13,1.52-.14,2.23v6.36c.18.09.49.24.93.46l.7.35c.79.44,1.64.73,2.55.88.9.16,2.25.24,4.07.23,2.85,0,5.6-.28,8.24-.82-.5.98-.83,1.84-.98,2.59-2.58.08-5.01.12-7.3.13-3.3.09-5.88-.44-7.75-1.57-1.02-.49-1.55-.71-1.61-.64-.59.04-1.57.86-2.93,2.47-.61-.88-1.17-1.53-1.69-1.95,1.35-1.1,2.55-1.84,3.61-2.23v-6.55h-1.01c-.74,0-1.52.06-2.33.19v-2.26c1.01.15,1.79.22,2.33.22h.86c.87,0,1.68-.04,2.45-.09ZM525.23,11.74l1.61-1.42c1.58,1.41,2.96,2.85,4.16,4.32l-1.76,1.51c-1.23-1.62-2.56-3.1-4.01-4.42ZM539.11,21.03l1.88-1.25c1.59,2.37,2.87,4.51,3.83,6.43l-2.11,1.12c-.03-.07-.07-.18-.13-.32-.35-.87-.61-1.44-.79-1.72-5.54.52-8.84,1.04-9.89,1.58l-.9-2.3c.64-.17,1.14-.41,1.49-.73,1.03-1.12,2.09-2.95,3.16-5.47h-2.33c-.53,0-1.36.07-2.47.22v-2.29c1.21.15,2.04.22,2.47.22h9.82c.65,0,1.44-.07,2.38-.22v2.29c-.99-.15-1.79-.22-2.38-.22h-4.95c.38.17.57.33.56.47s-.21.28-.61.42c-.33.09-.63.41-.91.96-.9,1.53-1.75,2.87-2.54,4.01,1.34-.09,3.4-.29,6.16-.57-.45-.7-1.03-1.58-1.75-2.64ZM532.24,13.34v-2.23c1.07.12,1.86.18,2.38.19h7.17c.48,0,1.23-.07,2.26-.21v2.25c-.91-.12-1.67-.19-2.26-.19h-7.17c-.45,0-1.25.06-2.38.19Z"/>
    <path class="cls-5" d="M561.69,8.57l2.33,1.05c.26.12.37.27.34.42s-.2.29-.52.39c-.23.08-.39.2-.5.36-.03.05-.07.11-.13.2-.09.12-.17.23-.22.3h4.51c.61,0,1.25-.1,1.91-.28v2.25c-.76-.17-1.39-.26-1.91-.26h-1.69c.04.05.1.14.18.26.28.43.49.73.62.89l-1.73.94c.5-.05.98-.14,1.44-.25-.14.75-.22,1.7-.23,2.84v4.08c0,1.23.08,2.2.21,2.88-.84-.17-1.68-.26-2.5-.27h-.36v.98h3.7c.92-.05,1.83-.15,2.73-.28v2.34c-1.08-.15-1.99-.23-2.73-.26h-3.7v1.35c.02,1.27.11,2.21.25,2.8h-2.66c.13-.67.2-1.61.21-2.8v-1.35h-4.15c-.5,1.58-2.58,3.11-6.25,4.58-.18-.7-.65-1.46-1.42-2.29,2.83-.38,4.57-1.15,5.21-2.3h-3.05c-.76.02-1.67.11-2.74.26v-2.34c1.24.16,2.16.26,2.74.28h3.5v-.98h-.46c-.79.02-1.59.1-2.4.22.12-.73.2-1.46.21-2.19v-4.82c0-1.01-.07-1.91-.21-2.7.85.14,1.75.22,2.71.25h.59c-.37-.69-.79-1.37-1.28-2.04h-1.22c-1.13,1.53-2.11,2.69-2.93,3.48-.43-.59-1.02-1.12-1.76-1.62,1.81-1.24,3.33-3.31,4.56-6.21l2.24,1.08c.19.1.28.22.28.35,0,.03-.01.09-.04.18s-.18.18-.47.27c-.14.04-.27.14-.4.3-.09.12-.2.28-.32.46h2.59c.95-.02,1.74-.11,2.36-.28v1.82c1.19-1.34,2.04-2.8,2.54-4.36ZM563.89,17.64v-.75h-9.28v.75h9.28ZM554.61,19.39v.75h9.28v-.75h-9.28ZM563.89,22.63v-.75h-9.28v.75h9.28ZM556.79,13.11h-.02c.09.13.23.33.41.59.19.27.32.47.41.59l-1.61.87h3.9c-.61-.45-1.26-.82-1.95-1.1.02-.02.04-.04.08-.07.34-.27.59-.49.76-.68-.67-.11-1.34-.17-1.99-.19ZM557.27,25.37h3.96v-.98h-3.96v.98ZM563.59,15.15c.37,0,.7,0,.98-.02-.37-.71-.79-1.41-1.28-2.11h-1.54c-.45.73-.98,1.44-1.58,2.13h3.41Z"/>
  </g>
  <g class="cls-8">
    <path class="cls-5" d="M7.6,380.04l-.1,7c.71-.7,1.38-1.46,2.01-2.28.05.42.22.81.49,1.18-1.6,1.58-2.62,2.67-3.06,3.26-.4-.51-.74-.85-1.01-1.03.33-.32.5-.7.51-1.13l.13-7.49h-1.55c-.33,0-.83.04-1.49.12v-1.16c.62.07,1.12.11,1.49.11h.8c.4,0,1.03-.04,1.89-.11-.06.63-.1,1.14-.11,1.53ZM4.93,373.63l.82-.78c.78.77,1.65,1.71,2.61,2.82l-.84.78c-1.05-1.25-1.91-2.18-2.59-2.82ZM17.26,377.05v1.16c-.56-.06-1.05-.1-1.49-.11h-4.95c-.43.01-.93.05-1.51.11v-1.16c.67.07,1.18.11,1.51.11h4.93c.37-.01.87-.05,1.5-.11ZM19.54,373.76c-.06.65-.1,1.21-.11,1.67v12.41c.02.58-.19.98-.64,1.18-.42.22-1.29.37-2.61.46-.01-.5-.21-1.01-.58-1.55.67.12,1.21.17,1.63.17.29,0,.51-.03.65-.08.36-.09.53-.42.5-1.01v-12.21h-7.13c-.32,0-.83.04-1.51.11v-1.16c.63.08,1.14.12,1.51.12h6.44c.45,0,1.07-.04,1.85-.12ZM10.51,380.15c.86.07,1.45.11,1.78.11h2.25c.3,0,.94-.04,1.9-.11-.06.75-.1,1.31-.11,1.7v2.13c.01.33.05.87.11,1.6-.72-.08-1.29-.12-1.71-.12h-2.41c-.4.02-1.01.06-1.81.12.06-.66.1-1.25.11-1.76v-1.96c0-.38-.04-.95-.11-1.71ZM11.63,381.18v3.34h3.69v-3.34h-3.69Z"/>
    <path class="cls-5" d="M27.73,372.54l1.65.66c.15.06.21.11.18.15-.01.05-.12.12-.34.19-.3.1-.52.29-.67.57-.51.88-.92,1.57-1.23,2.08h8.44c.6,0,1.21-.04,1.83-.12-.08.56-.12,1.12-.12,1.67v9.55c.04.89-.12,1.42-.5,1.59-.27.24-1.21.42-2.8.55-.13-.54-.32-1.03-.58-1.5.69.07,1.24.1,1.65.1.33,0,.56-.02.68-.06.34-.07.5-.35.47-.82v-9.99h-11.58v10.4c0,.58.04,1.21.11,1.89h-1.3c.07-.64.11-1.27.11-1.89v-9.88c0-.47-.04-1-.11-1.6.64.08,1.23.12,1.75.12h.73c.82-1.23,1.36-2.45,1.62-3.65ZM33.71,379.88c-.08.52-.12,1.03-.12,1.53v2.52c0,.48.04,1.02.12,1.6-.56-.08-1.12-.12-1.69-.12h-3.06c-.55,0-1.09.04-1.62.12.08-.59.12-1.12.12-1.6v-2.51c0-.46-.04-.98-.12-1.55.56.07,1.1.11,1.62.11h3.14c.53,0,1.07-.04,1.6-.11ZM28.5,384.49h4.06v-3.56h-4.06v3.56Z"/>
    <path class="cls-5" d="M57.87,378.67v1.08c-.55-.09-1.05-.13-1.51-.11h-13.84c-.44-.02-.95.02-1.51.11v-1.08c.44.08.94.12,1.51.11h13.84c.44.01.94-.02,1.51-.11ZM42.99,388.09h6.1v-1.04h-4.72c-.57-.01-1.08.02-1.53.11v-1.08c.45.08.96.12,1.53.11h4.72v-1.08h-3.97c-.56-.01-1.08.02-1.55.11.08-.57.12-1.09.11-1.55v-1.78c.01-.44-.02-.95-.11-1.53.53.09,1.03.13,1.49.12h8.92c.46.01,1-.03,1.6-.12-.08.55-.12,1.05-.11,1.51v1.8c-.01.52.02,1.04.11,1.55-.64-.07-1.17-.11-1.6-.11h-3.85v1.08h4.44c.44.01.95-.02,1.53-.11v1.08c-.56-.08-1.07-.12-1.53-.11h-4.44v1.04h5.82c.43.01.94-.02,1.53-.11v1.08c-.61-.09-1.12-.13-1.53-.12h-12.97c-.44-.01-.95.03-1.53.14v-1.1c.47.08.98.12,1.53.11ZM55.23,373.35c-.08.44-.12.87-.11,1.29v2.09c-.01.36.02.8.11,1.32-.58-.08-1.03-.12-1.34-.11h-8.65c-.4,0-.69,0-.88.02-.18.01-.4.04-.66.09.09-.49.13-.93.12-1.3v-1.98c0-.42-.04-.9-.12-1.42.39.09.87.13,1.44.12h8.78c.36.01.79-.03,1.3-.12ZM44.69,381.27v1.12h4.4v-1.12h-4.4ZM44.69,383.17v1.16h4.4v-1.16h-4.4ZM44.83,374.25v1.06h9.28v-1.06h-9.28ZM44.83,376.09v1.07h9.28v-1.07h-9.28ZM50.14,381.27v1.12h4.33v-1.12h-4.33ZM50.14,383.17v1.16h4.33v-1.16h-4.33Z"/>
    <path class="cls-5" d="M62.98,372.42l1.25.77c.18.11.26.19.25.24-.01.05-.12.1-.32.13-.24.05-.46.26-.66.63-.62,1.14-1.47,2.58-2.55,4.32.8-.01,1.64-.05,2.53-.12.69-1.26,1.18-2.33,1.48-3.21l1.4.91c.13.08.19.14.16.17-.01.05-.12.1-.32.15-.24.1-.43.27-.59.5-1.56,2.66-2.87,4.76-3.96,6.32,1.35-.13,2.79-.36,4.29-.69l-.28,1.25c-3.2.47-4.89.78-5.08.92l-.58-1.4c.46-.16.86-.53,1.19-1.08.5-.75,1.07-1.69,1.72-2.83-1.15,0-2.15.12-3.01.36l-.43-1.33c.46-.27.78-.57.95-.89,1.17-1.85,2.02-3.55,2.54-5.09ZM59.6,387.33c2.65-.46,4.82-1.01,6.5-1.66l-.15,1.38c-2.83.68-4.74,1.26-5.73,1.73l-.62-1.46ZM64.47,380.11c2.02-1.82,3.43-4.35,4.24-7.6l1.45.71c.14.06.2.12.19.17s-.1.11-.26.17c-.24.07-.42.28-.56.63-.21.49-.54,1.2-.98,2.13h6.5c.36.01.75-.02,1.18-.11v1.12c-.45-.09-.83-.13-1.14-.12h-2.62v2.73h2.02c.35.01.71-.02,1.09-.11v1.12c-.42-.08-.77-.12-1.06-.11h-2.06v2.71h2.01c.33.01.69-.03,1.06-.12v1.12c-.42-.08-.77-.12-1.06-.11h-2.01v2.87h2.94c.35.01.71-.02,1.1-.11v1.08c-.45-.09-.82-.13-1.12-.12h-6.82c-.01.44.03.92.12,1.44h-1.28c.09-.5.13-.98.12-1.46v-9.8c-.47.76-1.02,1.57-1.65,2.44-.42-.26-.89-.49-1.41-.68ZM68.58,377.21v2.73h2.86v-2.73h-2.86ZM68.58,380.84v2.71h2.86v-2.71h-2.86ZM68.58,384.44v2.87h2.86v-2.87h-2.86ZM71.73,372.6c.86,1.14,1.52,2.08,1.96,2.83l-1.04.77c-.56-1.06-1.19-2.01-1.89-2.86l.97-.73Z"/>
    <path class="cls-5" d="M78.19,388.13c1.01-.84,1.67-1.88,2-3.1.35-1.14.52-3.07.5-5.79v-3.48c.02-.54-.02-1.12-.11-1.74.64.07,1.19.11,1.66.11h6.14c-.49-.38-1.12-.81-1.9-1.29l.66-.86c.81.49,1.54.97,2.19,1.46l-.47.68h4.69c.4,0,.92-.04,1.57-.11v1.19c-.67-.07-1.2-.11-1.57-.11h-11.77v4.49c.01,2.37-.13,4.13-.43,5.29-.27,1.2-.87,2.47-1.79,3.83-.32-.26-.77-.46-1.37-.58ZM87.36,386.38c-1.18-1.03-2.06-2.1-2.62-3.21h-.23c-.36-.01-.84.02-1.45.11v-1.16c.57.08,1.05.12,1.45.11h6.63c.35.01.87-.02,1.55-.11-.83,1.37-2,2.79-3.51,4.26,1.96,1.01,4,1.54,6.12,1.6-.36.33-.63.79-.82,1.36-2.56-.44-4.64-1.19-6.22-2.23-1.79,1.07-3.76,1.92-5.92,2.55-.22-.54-.51-.96-.86-1.29,2.09-.19,4.04-.85,5.86-2ZM86.29,377.19h4.1v-.26c.02-.56-.02-1.13-.11-1.7l1.4.21c.17.02.26.05.26.09.01.04-.06.12-.22.26-.19.17-.28.57-.28,1.19v.2h1.49c.37.01.86-.02,1.48-.11v1.16c-.63-.08-1.12-.12-1.48-.11h-1.49v1.29c-.01.4.02.93.11,1.6-.73-.08-1.31-.12-1.75-.11h-3.29c-.38,0-.84.04-1.38.11.07-.54.11-1.01.11-1.44v-1.45h-1.55c-.36-.01-.84.02-1.43.11v-1.16c.57.08,1.05.12,1.43.11h1.55v-.24c0-.5-.04-1.05-.11-1.65l1.42.21c.16.01.24.04.24.09s-.07.14-.22.26c-.19.13-.28.53-.28,1.19v.13ZM88.27,385.76c.98-.78,1.79-1.65,2.41-2.59h-4.74c.52.86,1.3,1.72,2.33,2.59ZM86.29,378.13v1.84h4.1v-1.84h-4.1Z"/>
    <path class="cls-5" d="M99.91,378.25c-.23,0-.42-.08-.58-.25s-.25-.37-.25-.61.08-.43.24-.59c.16-.16.36-.24.59-.24s.44.08.61.24c.17.16.25.36.25.59,0,.22-.08.42-.24.6-.16.17-.37.26-.62.26ZM99.91,387.01c-.24,0-.43-.09-.59-.26-.16-.17-.24-.37-.24-.59,0-.24.08-.44.23-.6.16-.16.35-.24.6-.24s.44.08.61.24c.17.16.25.36.25.6,0,.22-.08.42-.25.59s-.37.26-.62.26Z"/>
  </g>
  <g class="cls-8">
    <path class="cls-5" d="M121.14,387.74c-1.66,0-2.96-.59-3.9-1.78-.94-1.19-1.41-2.82-1.41-4.88s.48-3.67,1.44-4.83c.96-1.15,2.29-1.73,3.99-1.73,1.09,0,2,.22,2.75.66.74.44,1.33,1.14,1.75,2.1l-1.13.47c-.31-.78-.75-1.34-1.31-1.68-.56-.34-1.25-.51-2.06-.51-1.34,0-2.37.49-3.09,1.47s-1.09,2.33-1.09,4.05.36,3.13,1.09,4.13c.73,1,1.73,1.5,3.02,1.5.91,0,1.65-.22,2.23-.66.58-.44,1.02-1.03,1.3-1.79l1.07.49c-.85,1.99-2.4,2.98-4.66,2.98Z"/>
  </g>
  <g class="cls-8">
    <path class="cls-5" d="M6.42,400.72h-.71c-.45,0-1.01.04-1.67.11v-1.16c.61.07,1.17.11,1.67.11h.97v-2.62c0-.51-.04-1.06-.11-1.66l1.38.19c.16.01.25.04.26.07.01.02-.05.08-.18.16-.24.12-.35.53-.34,1.23v2.62h.36c.53,0,1.1-.04,1.7-.11v1.16c-.56-.07-1.12-.11-1.7-.11h-.36v1.02c.75.67,1.57,1.46,2.46,2.35l-.91.92c-.44-.66-.95-1.3-1.55-1.91v7.71c0,.49.04,1.08.11,1.77h-1.23c.07-.63.11-1.22.11-1.77v-7.56c-.67,1.58-1.38,3-2.12,4.27-.38-.29-.8-.51-1.26-.67,1.29-1.32,2.34-3.36,3.13-6.13ZM14.22,405.83l1.16.22c.25.05.39.09.41.12,0,0,0,.02,0,.03,0,.03-.06.08-.18.14-.13.07-.25.28-.34.62-.01.02-.02.07-.02.15-.01.06-.02.11-.02.15h3.85c.55,0,1.05-.04,1.51-.11v1.16c-.53-.07-1.04-.11-1.51-.11h-3.12c.78,1.65,2.37,2.75,4.76,3.3-.4.29-.73.69-1,1.21-2.35-1.04-3.95-2.49-4.8-4.35-.61,1.68-2.29,3.12-5.04,4.31-.22-.46-.52-.85-.89-1.18,2.56-.61,4.16-1.71,4.78-3.3h-2.98c-.46,0-.96.04-1.49.11v-1.16c.53.07,1.03.11,1.49.11h3.32c.1-.46.14-.93.12-1.41ZM11.61,397.66h1.14v-.28c0-.5-.04-1.05-.12-1.66l1.4.18c.16.01.25.04.25.09s-.08.11-.23.18c-.21.06-.31.46-.3,1.21v.28h2.35v-.43c0-.5-.04-1.07-.11-1.7l1.39.19c.16.01.24.04.26.07.01.04-.05.09-.18.16-.24.05-.35.48-.34,1.28v.43h1.8c.5,0,1.01-.04,1.53-.12v1.16c-.49-.07-1-.11-1.53-.11h-1.8c0,.33.04.73.11,1.18h-1.23c.07-.45.11-.84.11-1.18h-2.35c0,.4.04.81.12,1.21h-1.24c.08-.38.12-.79.12-1.21h-1.14c-.5,0-1.05.04-1.64.11v-1.16c.68.08,1.23.12,1.64.12ZM10.99,405.85c.08-.45.12-.92.12-1.42v-2.85c0-.39-.04-.88-.12-1.46.65.07,1.19.11,1.62.11h5.06c.51,0,1.03-.04,1.57-.11-.07.56-.11,1.03-.11,1.42v2.89c0,.49.04.96.11,1.42-.48-.08-.98-.12-1.49-.12h-5.23c-.45,0-.96.04-1.53.12ZM12.11,402.47h6.02v-1.34h-6.02v1.34ZM12.11,403.36v1.48h6.02v-1.48h-6.02Z"/>
    <path class="cls-5" d="M24.04,410.89h6.33v-2.47h-4.22c-.24,0-.74.04-1.51.12v-1.16c.67.06,1.18.1,1.51.11h4.22v-.52c-.01-.39-.05-.98-.11-1.78l1.36.21c.13.01.2.04.21.07.02.04,0,.1-.09.2-.23.21-.33.69-.32,1.44v.37h4.01c.33,0,.83-.04,1.49-.11v1.16c-.71-.08-1.21-.12-1.49-.12h-4.01v2.47h5.97c.4-.01.9-.05,1.49-.12v1.16c-.7-.07-1.2-.11-1.49-.11h-13.34c-.38.01-.88.05-1.51.11v-1.16c.62.07,1.12.11,1.51.12ZM28.91,401.63h-2.37c-.18,1.7-1,3.26-2.46,4.69-.41-.33-.83-.6-1.25-.78,1.57-.7,2.46-2,2.67-3.9h-1.14c-.39.01-.9.05-1.53.11v-1.16c.64.06,1.15.1,1.53.12h1.25c.04-.85.05-1.82.04-2.92h-.46c-.34.01-.85.05-1.53.11v-1.16c.68.08,1.19.12,1.53.12h5.26c.38-.01.88-.05,1.49-.12v1.16c-.62-.06-1.12-.1-1.49-.11h-.48v2.92h1.14c.31,0,.81-.04,1.51-.12v1.16c-.63-.06-1.13-.1-1.51-.11h-1.14v2.11c0,.3.04.81.11,1.55h-1.27c.06-.63.1-1.15.11-1.55v-2.11ZM26.61,400.7h2.3v-2.92h-2.2c0,.89-.03,1.87-.1,2.92ZM34.7,398.98v3.36c0,.3.04.81.12,1.55h-1.24c.07-.7.11-1.21.12-1.55v-3.53c-.01-.51-.05-1.1-.12-1.76l1.37.19c.13.01.21.04.22.07.01.04-.02.1-.11.18-.22.26-.34.75-.36,1.48ZM37.07,395.77l1.35.18c.13.01.21.04.22.1.01.02-.03.09-.13.2-.2.18-.29.65-.28,1.42v6.22c.01.78-.16,1.31-.52,1.57-.36.3-1.07.48-2.13.54-.1-.55-.28-.99-.54-1.34.44.05.78.08,1.04.08.3,0,.53-.03.68-.1.3-.12.44-.42.43-.9v-6.22c-.01-.38-.05-.97-.12-1.75Z"/>
    <path class="cls-5" d="M44.31,395.42l1.25.77c.18.11.26.19.25.24-.01.05-.12.1-.32.13-.24.05-.46.26-.66.63-.62,1.14-1.47,2.58-2.55,4.32.8-.01,1.64-.05,2.53-.12.69-1.26,1.18-2.33,1.48-3.21l1.4.91c.13.08.19.14.16.17-.01.05-.12.1-.32.15-.24.1-.43.27-.59.5-1.56,2.66-2.87,4.76-3.96,6.32,1.35-.13,2.79-.36,4.29-.69l-.28,1.25c-3.2.47-4.89.78-5.08.92l-.58-1.4c.46-.16.86-.53,1.19-1.08.5-.75,1.07-1.69,1.72-2.83-1.15,0-2.15.12-3.01.36l-.43-1.33c.46-.27.78-.57.95-.89,1.17-1.85,2.02-3.55,2.54-5.09ZM40.93,410.33c2.65-.46,4.82-1.01,6.5-1.66l-.15,1.38c-2.83.68-4.74,1.26-5.73,1.73l-.62-1.46ZM45.81,403.11c2.02-1.82,3.43-4.35,4.24-7.6l1.45.71c.14.06.2.12.19.17s-.1.11-.26.17c-.24.07-.42.28-.56.63-.21.49-.54,1.2-.98,2.13h6.5c.36.01.75-.02,1.18-.11v1.12c-.45-.09-.83-.13-1.14-.12h-2.62v2.73h2.02c.35.01.71-.02,1.09-.11v1.12c-.42-.08-.77-.12-1.06-.11h-2.06v2.71h2.01c.33.01.69-.03,1.06-.12v1.12c-.42-.08-.77-.12-1.06-.11h-2.01v2.87h2.94c.35.01.71-.02,1.1-.11v1.08c-.45-.09-.82-.13-1.12-.12h-6.82c-.01.44.03.92.12,1.44h-1.28c.09-.5.13-.98.12-1.46v-9.8c-.47.76-1.02,1.57-1.65,2.44-.42-.26-.89-.49-1.41-.68ZM49.91,400.21v2.73h2.86v-2.73h-2.86ZM49.91,403.84v2.71h2.86v-2.71h-2.86ZM49.91,407.44v2.87h2.86v-2.87h-2.86ZM53.06,395.6c.86,1.14,1.52,2.08,1.96,2.83l-1.04.77c-.56-1.06-1.19-2.01-1.89-2.86l.97-.73Z"/>
    <path class="cls-5" d="M59.52,411.13c1.01-.84,1.67-1.88,2-3.1.35-1.14.52-3.07.5-5.79v-3.48c.02-.54-.02-1.12-.11-1.74.64.07,1.19.11,1.66.11h6.14c-.49-.38-1.12-.81-1.9-1.29l.66-.86c.81.49,1.54.97,2.19,1.46l-.47.68h4.69c.4,0,.92-.04,1.57-.11v1.19c-.67-.07-1.2-.11-1.57-.11h-11.77v4.49c.01,2.37-.13,4.13-.43,5.29-.27,1.2-.87,2.47-1.79,3.83-.32-.26-.77-.46-1.37-.58ZM68.69,409.38c-1.18-1.03-2.06-2.1-2.62-3.21h-.23c-.36-.01-.84.02-1.45.11v-1.16c.57.08,1.05.12,1.45.11h6.63c.35.01.87-.02,1.55-.11-.83,1.37-2,2.79-3.51,4.26,1.96,1.01,4,1.54,6.12,1.6-.36.33-.63.79-.82,1.36-2.56-.44-4.64-1.19-6.22-2.23-1.79,1.07-3.76,1.92-5.92,2.55-.22-.54-.51-.96-.86-1.29,2.09-.19,4.04-.85,5.86-2ZM67.63,400.19h4.1v-.26c.02-.56-.02-1.13-.11-1.7l1.4.21c.17.02.26.05.26.09.01.04-.06.12-.22.26-.19.17-.28.57-.28,1.19v.2h1.49c.37.01.86-.02,1.48-.11v1.16c-.63-.08-1.12-.12-1.48-.11h-1.49v1.29c-.01.4.02.93.11,1.6-.73-.08-1.31-.12-1.75-.11h-3.29c-.38,0-.84.04-1.38.11.07-.54.11-1.01.11-1.44v-1.45h-1.55c-.36-.01-.84.02-1.43.11v-1.16c.57.08,1.05.12,1.43.11h1.55v-.24c0-.5-.04-1.05-.11-1.65l1.42.21c.16.01.24.04.24.09s-.07.14-.22.26c-.19.13-.28.53-.28,1.19v.13ZM69.61,408.76c.98-.78,1.79-1.65,2.41-2.59h-4.74c.52.86,1.3,1.72,2.33,2.59ZM67.63,401.13v1.84h4.1v-1.84h-4.1Z"/>
    <path class="cls-5" d="M81.24,401.25c-.23,0-.42-.08-.58-.25s-.25-.37-.25-.61.08-.43.24-.59c.16-.16.36-.24.59-.24s.44.08.61.24c.17.16.25.36.25.59,0,.22-.08.42-.24.6-.16.17-.37.26-.62.26ZM81.24,410.01c-.24,0-.43-.09-.59-.26-.16-.17-.24-.37-.24-.59,0-.24.08-.44.23-.6.16-.16.35-.24.6-.24s.44.08.61.24c.17.16.25.36.25.6,0,.22-.08.42-.25.59s-.37.26-.62.26Z"/>
  </g>
  <g class="cls-8">
    <path class="cls-5" d="M107.84,403.99c0,1.34-.25,2.5-.75,3.5-.5,1-1.21,1.76-2.14,2.28-.92.52-2,.78-3.22.78h-3.99v-12.84h3.55c2.13,0,3.76.54,4.87,1.6,1.11,1.07,1.67,2.63,1.67,4.68ZM106.6,403.99c0-3.49-1.78-5.24-5.35-5.24h-2.29v10.76h2.62c1.57,0,2.8-.48,3.69-1.45.89-.97,1.33-2.33,1.33-4.07Z"/>
  </g>
  <path class="cls-5" d="M330.29,77.82c0-1.26.17-2.36.51-3.29.34-.93.92-1.94,1.72-3.03h.82c-.81,1.1-1.39,2.12-1.74,3.06-.35.94-.52,2.04-.52,3.27s.17,2.32.52,3.27c.35.94.93,1.97,1.74,3.08h-.82c-.79-1.06-1.35-2.06-1.71-3.01-.35-.95-.53-2.06-.53-3.35Z"/>
  <g>
    <path class="cls-5" d="M338.49,81.6c-1.25,0-2.22-.45-2.93-1.34s-1.06-2.12-1.06-3.67.36-2.76,1.08-3.63c.72-.87,1.72-1.3,3-1.3.82,0,1.51.17,2.07.49.56.33,1,.85,1.31,1.58l-.85.36c-.23-.58-.56-1-.98-1.26-.42-.26-.94-.38-1.55-.38-1.01,0-1.78.37-2.33,1.1-.55.74-.82,1.75-.82,3.04s.27,2.35.82,3.11c.55.75,1.3,1.13,2.27,1.13.68,0,1.24-.16,1.68-.49.44-.33.77-.78.98-1.34l.8.37c-.64,1.49-1.81,2.24-3.5,2.24Z"/>
    <path class="cls-5" d="M344.46,81.17c0,.41-.03.75-.1,1.04s-.17.57-.33.85h-.62c.34-.55.51-1.08.51-1.59h-.45v-1.19h.99v.89Z"/>
  </g>
  <g>
    <path class="cls-5" d="M358.25,76.53c0,1.01-.19,1.88-.57,2.63-.38.75-.91,1.32-1.61,1.71-.7.39-1.5.59-2.42.59h-3v-9.66h2.67c1.6,0,2.83.4,3.66,1.21.84.8,1.26,1.98,1.26,3.52ZM357.31,76.53c0-2.63-1.34-3.94-4.02-3.94h-1.72v8.1h1.97c1.18,0,2.1-.37,2.77-1.09.67-.73,1-1.75,1-3.06Z"/>
    <path class="cls-5" d="M362.39,77.84c0,1.23-.17,2.32-.51,3.26-.34.94-.92,1.96-1.73,3.08h-.81c.81-1.1,1.39-2.12,1.74-3.06.35-.94.52-2.03.52-3.27s-.17-2.31-.52-3.26-.93-1.97-1.74-3.08h.81c.8,1.08,1.38,2.1,1.72,3.04.34.94.52,2.04.52,3.3Z"/>
  </g>
  <path class="cls-6" d="M336.72,199.11h3.67l-.1.43c-.26.02-.47.1-.62.23s-.25.33-.31.56-.09.57-.09,1.01v.3c0,.11,0,.21,0,.33l.08,3.44c0,.25,0,.88,0,1.87v1.84s.08,0,.08,0l4.86-10h1.33v5.86c0,.97-.03,2.35-.08,4.14h.09l3.56-6.88c.13-.26.28-.56.43-.91s.22-.65.22-.9c0-.49-.29-.79-.88-.88l.1-.43h3.59l-.1.43c-.27.04-.53.18-.77.44s-.57.77-.98,1.52l-5.28,9.71h-1.35v-6.43c0-1.04.03-2.13.08-3.26h-.09l-4.7,9.69h-1.38l-.41-9.77c-.02-.49-.07-.86-.15-1.12s-.19-.45-.32-.56-.33-.19-.57-.23l.1-.43Z"/>
  <path class="cls-6" d="M353.44,208.88c-.25,0-.49.05-.71.16-.22.11-.42.26-.6.45-.18.19-.34.41-.48.66-.14.25-.26.52-.36.81-.1.29-.17.58-.22.88-.05.3-.07.59-.07.87,0,.46.07.81.2,1.03s.34.34.63.34c.2,0,.42-.07.66-.21.24-.14.47-.34.7-.59.23-.25.43-.56.62-.92.18-.36.32-.76.42-1.2.06-.23.1-.47.14-.7.04-.23.06-.45.06-.63,0-.35-.08-.6-.24-.74-.16-.15-.41-.22-.75-.22h0ZM353.32,208.24c.33,0,.62.04.88.12.26.08.5.19.72.33l.61-.44.52.14c-.28,1.28-.56,2.54-.84,3.79-.28,1.25-.54,2.43-.78,3.53-.08.3-.12.54-.12.72,0,.16.06.27.18.34.12.07.33.11.62.14l-.09.43h-2.21c.18-.7.35-1.36.51-1.96.16-.6.33-1.26.51-1.96l-.1-.03c-.21.28-.42.52-.63.72-.2.2-.4.36-.6.49-.2.13-.39.22-.59.28-.2.06-.39.09-.59.09-.51,0-.91-.18-1.19-.55s-.42-.9-.42-1.6c0-.42.04-.82.13-1.2.09-.38.21-.75.37-1.08.16-.34.35-.64.58-.92.22-.28.47-.51.73-.71.27-.2.55-.35.85-.46s.61-.16.93-.16h0Z"/>
  <path class="cls-6" d="M335.78,346.49h3.67l-.1.43c-.26.02-.47.1-.62.23s-.25.33-.31.56-.09.57-.09,1.01v.3c0,.11,0,.21,0,.33l.08,3.44c0,.25,0,.88,0,1.87v1.84s.08,0,.08,0l4.86-10h1.33v5.86c0,.97-.03,2.35-.08,4.14h.09l3.56-6.88c.13-.26.28-.56.43-.91s.22-.65.22-.9c0-.49-.29-.79-.88-.88l.1-.43h3.59l-.1.43c-.27.04-.53.18-.77.44s-.57.77-.98,1.52l-5.28,9.71h-1.35v-6.43c0-1.04.03-2.13.08-3.26h-.09l-4.7,9.69h-1.38l-.41-9.77c-.02-.49-.07-.86-.15-1.12s-.19-.45-.32-.56-.33-.19-.57-.23l.1-.43Z"/>
  <path class="cls-6" d="M352.88,353.41h.46l-1.13,5.01h.18c.16,0,.34-.03.53-.1.19-.07.38-.16.56-.27.19-.11.37-.23.54-.37s.32-.28.45-.42.24-.27.31-.4c.08-.12.12-.23.12-.32,0-.1-.03-.19-.1-.25-.07-.06-.19-.11-.37-.13l.08-.41h2.32l.16.4c-.27.23-.53.45-.78.64-.25.2-.49.39-.73.57s-.48.36-.72.54c-.24.18-.48.36-.73.55.1.33.21.66.32,1,.11.34.21.67.32,1,.05.18.1.33.15.45s.09.23.15.31.11.14.17.18c.06.04.13.06.22.06.06,0,.12-.01.19-.03s.14-.06.22-.12c.08-.06.17-.13.27-.23.1-.1.22-.22.34-.36l.44.42c-.2.21-.39.38-.56.53-.17.15-.34.27-.5.37-.16.1-.31.17-.45.21-.15.05-.29.07-.44.07-.27,0-.49-.07-.65-.2-.17-.14-.31-.33-.42-.58-.12-.25-.22-.56-.32-.91s-.21-.75-.34-1.19c-.03-.1-.06-.19-.09-.25-.03-.06-.06-.11-.11-.14s-.1-.05-.16-.06-.15-.01-.24-.01h-.41l-.71,3.24h-1.24l1.56-6.92c.05-.23.09-.41.11-.54s.03-.25.03-.35c0-.08-.01-.15-.04-.21-.03-.06-.07-.11-.14-.15s-.15-.06-.26-.08-.24-.03-.4-.03l.1-.44,1.77-.08h0Z"/>
  <path class="cls-6" d="M336.73,492.79h3.67l-.1.43c-.26.02-.47.1-.62.23s-.25.33-.31.56-.09.57-.09,1.01v.3c0,.11,0,.21,0,.33l.08,3.44c0,.25,0,.88,0,1.87v1.84s.08,0,.08,0l4.86-10h1.33v5.86c0,.97-.03,2.35-.08,4.14h.09l3.56-6.88c.13-.26.28-.56.43-.91s.22-.65.22-.9c0-.49-.29-.79-.88-.88l.1-.43h3.59l-.1.43c-.27.04-.53.18-.77.44s-.57.77-.98,1.52l-5.28,9.71h-1.35v-6.43c0-1.04.03-2.13.08-3.26h-.09l-4.7,9.69h-1.38l-.41-9.77c-.02-.49-.07-.86-.15-1.12s-.19-.45-.32-.56-.33-.19-.57-.23l.1-.43Z"/>
  <path class="cls-6" d="M351.37,501.93c.18,0,.33.04.45.11.11.07.2.17.27.29.07.12.11.25.14.39.02.14.04.28.04.42,0,.08,0,.19-.03.33l-.41,2.33c-.04.22-.07.44-.1.66-.03.21-.04.4-.04.57s.01.3.03.4c.02.1.04.15.06.15.14,0,.31-.05.53-.16s.44-.26.68-.45.48-.42.72-.68c.24-.26.45-.55.64-.85.19-.31.34-.63.46-.97.12-.34.18-.68.18-1.02,0-.2-.04-.35-.11-.44s-.18-.14-.31-.14c-.14,0-.28.07-.44.2-.15.13-.32.3-.48.51l-.38-.38c.1-.17.23-.33.37-.48s.29-.29.45-.4.32-.21.49-.28c.17-.07.34-.1.5-.1.34,0,.58.11.73.32.15.21.23.5.23.85,0,.21-.04.44-.11.71-.08.27-.18.55-.32.84-.14.3-.3.6-.49.91-.19.31-.4.61-.63.91-.23.29-.47.57-.73.83-.26.26-.53.49-.81.68s-.57.35-.86.46c-.29.11-.58.17-.87.17-.15,0-.28-.03-.39-.09-.1-.06-.18-.15-.24-.26-.06-.11-.09-.25-.12-.4-.02-.15-.03-.32-.03-.51,0-.24.02-.51.05-.79.03-.28.07-.56.12-.84.23-1.38.34-2.18.34-2.4,0-.16,0-.27-.05-.33-.05-.06-.11-.09-.19-.09-.09,0-.18.02-.27.07-.1.05-.19.11-.29.18-.1.07-.19.15-.29.24-.09.08-.18.16-.26.24l-.35-.43c.14-.15.29-.3.45-.45s.33-.29.51-.41c.18-.12.37-.22.57-.29.2-.07.4-.11.6-.11h0Z"/>
  <path class="cls-5" d="M129.82,264.34c0-1.26.17-2.36.51-3.29s.92-1.94,1.72-3.03h.82c-.81,1.1-1.39,2.12-1.74,3.06-.35.94-.52,2.04-.52,3.27s.17,2.32.52,3.27c.35.94.93,1.97,1.74,3.08h-.82c-.79-1.06-1.35-2.06-1.71-3.01s-.53-2.06-.53-3.35Z"/>
  <g>
    <path class="cls-5" d="M134.27,267.99v-.73h2.47v-8.03l-2.21,1.47v-.79l2.3-1.58h.76v8.93h2.1v.73h-5.43Z"/>
    <path class="cls-5" d="M142.69,267.69c0,.41-.03.75-.1,1.04s-.17.57-.33.85h-.62c.34-.55.51-1.08.51-1.59h-.45v-1.19h.99v.89Z"/>
  </g>
  <path class="cls-5" d="M152.43,268.12c-1.25,0-2.22-.45-2.93-1.34-.71-.89-1.06-2.12-1.06-3.67s.36-2.76,1.08-3.63c.72-.87,1.72-1.3,3-1.3.82,0,1.51.16,2.07.49s1,.85,1.31,1.58l-.85.36c-.23-.58-.56-1.01-.98-1.26s-.94-.38-1.55-.38c-1,0-1.78.37-2.33,1.1-.55.74-.82,1.75-.82,3.04s.27,2.35.82,3.11c.55.75,1.3,1.13,2.27,1.13.68,0,1.24-.17,1.68-.49s.77-.78.98-1.34l.8.37c-.64,1.5-1.81,2.24-3.5,2.24Z"/>
  <path class="cls-5" d="M159.75,264.36c0,1.23-.17,2.32-.51,3.26-.34.94-.92,1.96-1.73,3.08h-.81c.81-1.1,1.39-2.12,1.74-3.06s.52-2.04.52-3.27-.17-2.31-.52-3.26c-.35-.95-.93-1.97-1.74-3.08h.81c.8,1.08,1.38,2.1,1.72,3.04.34.94.52,2.04.52,3.3Z"/>
  <path class="cls-6" d="M51.47,323.6h2.3l.53,6.93c.83-1.35,1.42-2.37,1.79-3.08s.64-1.31.81-1.82.31-1.05.4-1.6l.1-.43h1.27l.64,6.94c.91-1.3,1.61-2.44,2.09-3.41s.72-1.76.72-2.37c0-.28-.06-.46-.18-.56s-.32-.16-.6-.18l.09-.43h2.27l.24.44c-.21.52-.37.92-.49,1.2s-.28.62-.48,1.02-.41.79-.63,1.18-.48.82-.79,1.3-.64.98-1.02,1.54-.82,1.18-1.33,1.87h-1.05l-.36-3.67c-.03-.29-.06-.66-.09-1.12s-.05-.82-.07-1.07h-.1c-.32.77-.75,1.64-1.29,2.59s-1.22,2.05-2.02,3.28h-1.18l-.67-6.62c-.04-.34-.08-.62-.13-.83s-.14-.37-.26-.47-.33-.17-.61-.19l.1-.43Z"/>
  <path class="cls-6" d="M67.6,327.42h.39c0,.24-.02.45-.02.63,0,.19,0,.37,0,.54,0,.18,0,.35,0,.52v4.9c0,.13,0,.25.01.34,0,.1.02.18.04.24.02.07.05.12.08.17.03.05.07.09.11.12.05.05.12.09.21.12.09.03.2.05.33.07.13.02.29.03.48.05s.41.02.67.02v.56h-5.11v-.56c.25,0,.47-.02.64-.03.18-.01.33-.03.45-.05.12-.02.22-.04.3-.06.08-.02.14-.05.2-.09.06-.04.11-.08.15-.13.04-.05.08-.1.1-.17.03-.07.05-.15.06-.25.02-.1.02-.22.02-.37v-4.62c0-.17-.03-.29-.1-.35-.06-.07-.16-.1-.28-.1-.13,0-.33.07-.59.21-.26.14-.6.34-1.02.61-.06-.1-.11-.2-.15-.3-.05-.1-.1-.2-.15-.3.53-.29,1.06-.58,1.58-.87s1.05-.58,1.59-.87h0Z"/>
  <path class="cls-6" d="M77.76,328.1h10.83v1.17h-10.83v-1.17h0ZM77.76,324.45h10.83v1.17h-10.83v-1.17h0Z"/>
  <polygon class="cls-6" points="97.06 319.26 100.98 319.26 100.98 319.94 98.51 319.94 98.51 335.35 100.98 335.35 100.98 336.02 97.06 336.02 97.06 319.26 97.06 319.26"/>
  <path class="cls-6" d="M101.99,323.6h2.3l.53,6.93c.83-1.35,1.42-2.37,1.79-3.08s.64-1.31.81-1.82.31-1.05.4-1.6l.1-.43h1.27l.64,6.94c.91-1.3,1.61-2.44,2.09-3.41s.72-1.76.72-2.37c0-.28-.06-.46-.18-.56s-.32-.16-.6-.18l.09-.43h2.27l.24.44c-.21.52-.37.92-.49,1.2s-.28.62-.48,1.02-.41.79-.63,1.18-.48.82-.79,1.3-.64.98-1.02,1.54-.82,1.18-1.33,1.87h-1.05l-.36-3.67c-.03-.29-.06-.66-.09-1.12s-.05-.82-.07-1.07h-.1c-.32.77-.75,1.64-1.29,2.59s-1.22,2.05-2.02,3.28h-1.18l-.67-6.62c-.04-.34-.08-.62-.13-.83s-.14-.37-.26-.47-.33-.17-.61-.19l.1-.43Z"/>
  <path class="cls-6" d="M118,327.42h.39c0,.24-.02.45-.02.63,0,.19,0,.37,0,.54,0,.18,0,.35,0,.52v4.9c0,.13,0,.25.01.34,0,.1.02.18.04.24.02.07.05.12.08.17.03.05.07.09.11.12.05.05.12.09.21.12.09.03.2.05.33.07.13.02.29.03.48.05s.41.02.67.02v.56h-5.11v-.56c.25,0,.47-.02.64-.03.18-.01.33-.03.45-.05.12-.02.22-.04.3-.06.08-.02.14-.05.2-.09.06-.04.11-.08.15-.13.04-.05.08-.1.1-.17.03-.07.05-.15.06-.25.02-.1.02-.22.02-.37v-4.62c0-.17-.03-.29-.1-.35-.06-.07-.16-.1-.28-.1-.13,0-.33.07-.59.21-.26.14-.6.34-1.02.61-.06-.1-.11-.2-.15-.3-.05-.1-.1-.2-.15-.3.53-.29,1.06-.58,1.58-.87s1.05-.58,1.59-.87h0Z"/>
  <path class="cls-6" d="M122.08,334.22h1.13c.06.3.09.6.09.89s-.05.58-.15.83c-.1.25-.27.5-.49.74s-.54.52-.93.82l-.35-.39c.22-.21.38-.39.48-.56.1-.17.17-.35.21-.56.04-.21.06-.47.06-.79s-.02-.65-.05-.97h0Z"/>
  <path class="cls-6" d="M128.32,327.42h.39c0,.24-.02.45-.02.63,0,.19,0,.37,0,.54,0,.18,0,.35,0,.52v4.9c0,.13,0,.25.01.34,0,.1.02.18.04.24.02.07.05.12.08.17.03.05.07.09.11.12.05.05.12.09.21.12.09.03.2.05.33.07.13.02.29.03.48.05s.41.02.67.02v.56h-5.11v-.56c.25,0,.47-.02.64-.03.18-.01.33-.03.45-.05.12-.02.22-.04.3-.06.08-.02.14-.05.2-.09.06-.04.11-.08.15-.13.04-.05.08-.1.1-.17.03-.07.05-.15.06-.25.02-.1.02-.22.02-.37v-4.62c0-.17-.03-.29-.1-.35-.06-.07-.16-.1-.28-.1-.13,0-.33.07-.59.21-.26.14-.6.34-1.02.61-.06-.1-.11-.2-.15-.3-.05-.1-.1-.2-.15-.3.53-.29,1.06-.58,1.58-.87s1.05-.58,1.59-.87h0Z"/>
  <path class="cls-6" d="M133.55,329.96h1.54c.08.41.12.81.12,1.21s-.07.79-.21,1.12-.36.68-.67,1.02-.73.71-1.27,1.11l-.47-.54c.3-.28.52-.53.65-.76s.23-.48.29-.77.09-.65.09-1.08-.02-.88-.06-1.32h0Z"/>
  <path class="cls-6" d="M139.55,323.6h2.3l.53,6.93c.83-1.35,1.42-2.37,1.79-3.08s.64-1.31.81-1.82.31-1.05.4-1.6l.1-.43h1.27l.64,6.94c.91-1.3,1.61-2.44,2.09-3.41s.72-1.76.72-2.37c0-.28-.06-.46-.18-.56s-.32-.16-.6-.18l.09-.43h2.27l.24.44c-.21.52-.37.92-.49,1.2s-.28.62-.48,1.02-.41.79-.63,1.18-.48.82-.79,1.3-.64.98-1.02,1.54-.82,1.18-1.33,1.87h-1.05l-.36-3.67c-.03-.29-.06-.66-.09-1.12s-.05-.82-.07-1.07h-.1c-.32.77-.75,1.64-1.29,2.59s-1.22,2.05-2.02,3.28h-1.18l-.67-6.62c-.04-.34-.08-.62-.13-.83s-.14-.37-.26-.47-.33-.17-.61-.19l.1-.43Z"/>
  <path class="cls-6" d="M155.68,327.42h.39c0,.24-.02.45-.02.63,0,.19,0,.37,0,.54,0,.18,0,.35,0,.52v4.9c0,.13,0,.25.01.34,0,.1.02.18.04.24.02.07.05.12.08.17.03.05.07.09.11.12.05.05.12.09.21.12.09.03.2.05.33.07.13.02.29.03.48.05s.41.02.67.02v.56h-5.11v-.56c.25,0,.47-.02.64-.03.18-.01.33-.03.45-.05.12-.02.22-.04.3-.06.08-.02.14-.05.2-.09.06-.04.11-.08.15-.13.04-.05.08-.1.1-.17.03-.07.05-.15.06-.25.02-.1.02-.22.02-.37v-4.62c0-.17-.03-.29-.1-.35-.06-.07-.16-.1-.28-.1-.13,0-.33.07-.59.21-.26.14-.6.34-1.02.61-.06-.1-.11-.2-.15-.3-.05-.1-.1-.2-.15-.3.53-.29,1.06-.58,1.58-.87s1.05-.58,1.59-.87h0Z"/>
  <path class="cls-6" d="M159.88,334.22h1.13c.06.3.09.6.09.89s-.05.58-.15.83c-.1.25-.27.5-.49.74s-.54.52-.93.82l-.35-.39c.22-.21.38-.39.48-.56.1-.17.17-.35.21-.56.04-.21.06-.47.06-.79s-.02-.65-.05-.97h0Z"/>
  <path class="cls-6" d="M165.5,327.37c.45,0,.83.05,1.14.15.32.1.57.24.77.41.2.17.34.38.43.62.09.24.13.5.13.78,0,.17-.01.32-.04.47-.02.14-.06.29-.12.43-.06.14-.13.28-.23.42-.09.14-.21.29-.35.45-.11.14-.25.3-.42.48s-.36.37-.56.58-.42.42-.64.64c-.22.22-.44.44-.65.66-.21.22-.4.43-.58.64-.18.21-.32.4-.43.57h2.38c.2,0,.36,0,.48-.02.12-.02.22-.05.3-.1s.15-.13.2-.24c.06-.11.12-.25.19-.44h.6c-.02.31-.04.61-.06.92s-.04.62-.06.92h-5.46v-.34c.1-.23.22-.46.36-.69.14-.23.29-.45.46-.69s.37-.47.59-.72.46-.5.73-.77c.4-.4.73-.75.99-1.03.25-.29.45-.54.6-.76s.25-.43.3-.62c.05-.19.08-.39.08-.61s-.03-.42-.09-.61c-.06-.18-.15-.34-.27-.47-.12-.13-.26-.23-.44-.3-.18-.07-.38-.11-.62-.11-.4,0-.73.11-1.01.33-.27.22-.48.53-.63.94h-.84v-1.26c.55-.23,1.06-.39,1.52-.5.46-.1.88-.15,1.25-.15h0Z"/>
  <path class="cls-6" d="M171.23,329.96h1.54c.08.41.12.81.12,1.21s-.07.79-.21,1.12-.36.68-.67,1.02-.73.71-1.27,1.11l-.47-.54c.3-.28.52-.53.65-.76s.23-.48.29-.77.09-.65.09-1.08-.02-.88-.06-1.32h0Z"/>
  <path class="cls-6" d="M189.69,325.72c.3,0,.56.11.76.32s.31.48.31.81-.1.6-.31.81-.46.32-.76.32-.56-.11-.76-.32-.31-.48-.31-.81.1-.6.31-.81.46-.32.76-.32h0ZM184.36,325.72c.3,0,.56.11.76.32s.31.48.31.81-.1.6-.31.81-.46.32-.76.32-.56-.11-.76-.32-.31-.48-.31-.81.1-.6.31-.81.46-.32.76-.32h0ZM179.03,325.72c.3,0,.56.11.76.32s.31.48.31.81-.1.6-.31.81-.46.32-.76.32-.56-.11-.76-.32-.31-.48-.31-.81.1-.6.31-.81.46-.32.76-.32h0Z"/>
  <path class="cls-6" d="M196.31,329.96h1.54c.08.41.12.81.12,1.21s-.07.79-.21,1.12-.36.68-.67,1.02-.73.71-1.27,1.11l-.47-.54c.3-.28.52-.53.65-.76s.23-.48.29-.77.09-.65.09-1.08-.02-.88-.06-1.32h0Z"/>
  <path class="cls-6" d="M202.43,323.6h2.3l.53,6.93c.83-1.35,1.42-2.37,1.79-3.08s.64-1.31.81-1.82.31-1.05.4-1.6l.1-.43h1.27l.64,6.94c.91-1.3,1.61-2.44,2.09-3.41s.72-1.76.72-2.37c0-.28-.06-.46-.18-.56s-.32-.16-.6-.18l.09-.43h2.27l.24.44c-.21.52-.37.92-.49,1.2s-.28.62-.48,1.02-.41.79-.63,1.18-.48.82-.79,1.3-.64.98-1.02,1.54-.82,1.18-1.33,1.87h-1.05l-.36-3.67c-.03-.29-.06-.66-.09-1.12s-.05-.82-.07-1.07h-.1c-.32.77-.75,1.64-1.29,2.59s-1.22,2.05-2.02,3.28h-1.18l-.67-6.62c-.04-.34-.08-.62-.13-.83s-.14-.37-.26-.47-.33-.17-.61-.19l.1-.43Z"/>
  <path class="cls-6" d="M218.56,327.42h.39c0,.24-.02.45-.02.63,0,.19,0,.37,0,.54,0,.18,0,.35,0,.52v4.9c0,.13,0,.25.01.34s.02.18.04.24.05.12.08.17c.03.05.07.09.11.12.05.05.12.09.21.12.09.03.2.05.33.07.13.02.29.03.48.05.19.01.41.02.67.02v.56h-5.11v-.56c.25,0,.47-.02.64-.03.18-.01.33-.03.45-.05.12-.02.22-.04.3-.06.08-.02.14-.05.2-.09.06-.04.11-.08.15-.13.04-.05.08-.1.1-.17.03-.07.05-.15.06-.25.02-.1.02-.22.02-.37v-4.62c0-.17-.03-.29-.1-.35-.06-.07-.16-.1-.28-.1-.13,0-.33.07-.59.21-.26.14-.6.34-1.02.61-.06-.1-.11-.2-.15-.3-.05-.1-.1-.2-.15-.3.53-.29,1.06-.58,1.58-.87.52-.29,1.05-.58,1.59-.87h0Z"/>
  <path class="cls-6" d="M222.64,334.22h1.13c.06.3.09.6.09.89s-.05.58-.15.83c-.1.25-.27.5-.49.74s-.54.52-.93.82l-.35-.39c.22-.21.38-.39.48-.56.1-.17.17-.35.21-.56.04-.21.06-.47.06-.79s-.02-.65-.05-.97h0Z"/>
  <path class="cls-6" d="M230.04,327.24c.19,0,.38,0,.56.02s.37.03.55.06c.19.03.38.07.58.11.2.05.4.11.63.18l-.39,1.73h-.68c-.02-.25-.06-.46-.12-.64-.06-.18-.14-.33-.24-.44s-.24-.2-.4-.25-.36-.08-.59-.08c-.31,0-.61.08-.9.23-.28.15-.54.37-.78.63s-.45.58-.63.94c-.19.36-.35.74-.48,1.14-.13.4-.23.82-.3,1.24-.07.43-.1.84-.1,1.24,0,.65.12,1.12.36,1.41.24.29.62.44,1.12.44.25,0,.48-.03.69-.08.21-.06.4-.14.58-.26.18-.12.34-.28.49-.47s.29-.42.42-.69h.71l-.41,1.8c-.23.07-.46.13-.67.17s-.43.09-.63.12-.41.05-.61.07c-.2.02-.41.02-.61.02-.45,0-.84-.06-1.19-.19-.35-.13-.63-.31-.87-.55-.23-.24-.41-.53-.53-.88s-.18-.73-.18-1.16c0-.56.06-1.1.17-1.61.11-.51.27-.98.48-1.41.2-.43.45-.82.73-1.17.29-.35.6-.64.94-.89s.71-.43,1.09-.56.79-.2,1.2-.2h0Z"/>
  <polygon class="cls-6" points="234.27 319.26 238.19 319.26 238.19 336.02 234.27 336.02 234.27 335.35 236.73 335.35 236.73 319.94 234.27 319.94 234.27 319.26 234.27 319.26"/>
  <path class="cls-5" d="M518.64,116.07c0-1.26.17-2.36.51-3.29s.92-1.94,1.72-3.03h.82c-.81,1.1-1.39,2.12-1.74,3.06-.35.94-.52,2.04-.52,3.27s.17,2.32.52,3.27c.35.94.93,1.97,1.74,3.08h-.82c-.79-1.06-1.35-2.06-1.71-3.01s-.53-2.06-.53-3.35Z"/>
  <g>
    <path class="cls-5" d="M523.07,119.71v-.73h2.47v-8.03l-2.21,1.47v-.79l2.3-1.58h.76v8.93h2.1v.73h-5.43Z"/>
    <path class="cls-5" d="M531.5,119.42c0,.41-.03.75-.1,1.04s-.17.57-.33.85h-.62c.34-.55.51-1.08.51-1.59h-.45v-1.19h.99v.89Z"/>
  </g>
  <g>
    <path class="cls-5" d="M545.27,114.78c0,1.01-.19,1.88-.57,2.63-.38.75-.91,1.32-1.61,1.71-.7.39-1.5.59-2.42.59h-3v-9.66h2.67c1.6,0,2.83.4,3.66,1.21.84.8,1.26,1.98,1.26,3.52ZM544.34,114.78c0-2.63-1.34-3.94-4.02-3.94h-1.72v8.1h1.97c1.18,0,2.1-.36,2.77-1.09.67-.73,1-1.75,1-3.06Z"/>
    <path class="cls-5" d="M549.41,116.09c0,1.23-.17,2.32-.51,3.26-.34.94-.92,1.96-1.73,3.08h-.81c.81-1.1,1.39-2.12,1.74-3.06s.52-2.04.52-3.27-.17-2.31-.52-3.26c-.35-.95-.93-1.97-1.74-3.08h.81c.8,1.08,1.38,2.1,1.72,3.04.34.94.52,2.04.52,3.3Z"/>
  </g>
  <g>
    <path class="cls-6" d="M472.71,174.05c-.6,0-1.13.24-1.61.73s-.85,1.14-1.12,1.96-.41,1.64-.41,2.45c0,.61.08,1.06.25,1.37s.45.45.84.45c.18,0,.37-.04.55-.12s.38-.21.58-.38.4-.39.6-.64.38-.51.54-.76.32-.56.46-.91.26-.77.36-1.26l.08-.38c.09-.42.13-.82.13-1.2,0-.46-.1-.79-.29-1s-.52-.31-.97-.31h0ZM472.56,173.36c.36,0,.71.04,1.04.13s.67.24,1.02.45l.81-.58.56.14-2.25,9.99c-.1.45-.15.78-.15,1,0,.26.07.44.2.55s.39.18.78.22l-.08.43h-2.74l1.51-5.77-.12-.05c-.5.71-1.02,1.25-1.54,1.62s-1.04.55-1.53.55c-.64,0-1.14-.24-1.5-.73s-.53-1.17-.53-2.05c0-1.01.2-1.98.59-2.9s.94-1.66,1.63-2.2,1.46-.8,2.31-.8h0Z"/>
    <path class="cls-6" d="M480.45,177.33h.39c0,.24-.02.45-.02.63,0,.19,0,.37,0,.54s0,.35,0,.52v4.9c0,.13,0,.25.01.34,0,.1.02.18.04.24.02.07.05.12.08.17.03.05.07.09.11.12.05.05.12.09.21.12.09.03.2.05.33.07s.29.03.48.05c.19.01.41.02.67.02v.56h-5.11v-.56c.25,0,.47-.02.64-.03.18-.01.33-.03.45-.04.12-.02.22-.04.3-.06.08-.02.14-.05.2-.09.06-.04.11-.08.15-.13.04-.04.08-.1.1-.17.03-.07.05-.15.06-.25.02-.1.02-.22.02-.37v-4.62c0-.17-.03-.29-.1-.35-.06-.07-.16-.1-.28-.1-.13,0-.33.07-.59.21-.26.14-.6.34-1.02.61-.06-.1-.11-.2-.15-.3-.05-.1-.1-.2-.15-.3.53-.29,1.06-.58,1.58-.87s1.05-.58,1.59-.87h0Z"/>
    <path class="cls-6" d="M490.85,178.01h10.83v1.17h-10.83v-1.17h0ZM490.85,174.36h10.83v1.17h-10.83v-1.17h0Z"/>
    <path class="cls-6" d="M508.6,173.51h2.3l.53,6.93c.83-1.35,1.42-2.37,1.79-3.08s.64-1.31.81-1.82.31-1.05.4-1.6l.1-.43h1.27l.64,6.94c.91-1.3,1.61-2.44,2.09-3.41s.72-1.76.72-2.37c0-.28-.06-.46-.18-.56s-.32-.16-.6-.18l.09-.43h2.27l.24.44c-.21.52-.37.92-.49,1.2s-.28.62-.48,1.02c-.2.4-.41.79-.63,1.18s-.48.82-.79,1.3-.64.98-1.02,1.54-.82,1.18-1.33,1.87h-1.05l-.36-3.67c-.03-.29-.06-.66-.09-1.12s-.05-.82-.07-1.07h-.1c-.32.77-.75,1.64-1.29,2.59s-1.22,2.05-2.02,3.28h-1.18l-.67-6.62c-.04-.34-.08-.62-.13-.83s-.14-.37-.26-.47-.33-.17-.61-.19l.1-.43Z"/>
    <path class="cls-6" d="M524.73,177.33h.39c0,.24-.02.45-.02.63,0,.19,0,.37,0,.54,0,.18,0,.35,0,.52v4.9c0,.13,0,.25.01.34,0,.1.02.18.04.24.02.07.05.12.08.17.03.05.07.09.11.12.05.05.12.09.21.12.09.03.2.05.33.07.13.02.29.03.48.05s.41.02.67.02v.56h-5.11v-.56c.25,0,.47-.02.64-.03.18-.01.33-.03.45-.04.12-.02.22-.04.3-.06.08-.02.14-.05.2-.09.06-.04.11-.08.15-.13.04-.04.08-.1.1-.17.03-.07.05-.15.06-.25.02-.1.02-.22.02-.37v-4.62c0-.17-.03-.29-.1-.35-.06-.07-.16-.1-.28-.1-.13,0-.33.07-.59.21-.26.14-.6.34-1.02.61-.06-.1-.11-.2-.15-.3-.05-.1-.1-.2-.15-.3.53-.29,1.06-.58,1.58-.87s1.05-.58,1.59-.87h0Z"/>
    <path class="cls-6" d="M535.16,175.5c.23,0,.44.05.62.16s.33.26.43.45.15.41.15.65-.05.47-.15.66-.25.34-.43.45-.39.16-.61.16-.43-.05-.61-.16-.33-.25-.43-.45-.15-.41-.15-.66.05-.46.15-.65.24-.34.43-.45.39-.16.62-.16h0Z"/>
    <path class="cls-6" d="M542.76,169.91h3.67l-.1.43c-.26.02-.47.1-.62.23s-.25.33-.31.56-.09.57-.09,1.01v.3c0,.11,0,.21,0,.33l.08,3.44c0,.25,0,.88,0,1.87v1.84s.08,0,.08,0l4.86-10h1.33v5.86c0,.97-.03,2.35-.08,4.14h.09l3.56-6.88c.13-.26.28-.56.43-.91s.22-.65.22-.9c0-.49-.29-.79-.88-.88l.1-.43h3.59l-.1.43c-.27.04-.53.18-.77.44s-.57.77-.98,1.52l-5.28,9.71h-1.35v-6.43c0-1.04.03-2.13.08-3.26h-.09l-4.7,9.69h-1.38l-.41-9.77c-.02-.49-.07-.86-.15-1.12s-.19-.45-.32-.56-.33-.19-.57-.23l.1-.43Z"/>
    <path class="cls-6" d="M559.48,179.69c-.25,0-.49.05-.71.16-.22.11-.42.26-.6.45-.18.19-.34.41-.48.66-.14.25-.26.52-.36.81-.1.29-.17.58-.22.88s-.07.59-.07.87c0,.46.07.81.2,1.03s.34.34.63.34c.2,0,.42-.07.66-.21.24-.14.47-.34.7-.59.23-.25.43-.56.62-.92.18-.36.32-.76.42-1.2.06-.23.1-.47.14-.7s.06-.45.06-.63c0-.35-.08-.6-.24-.74-.16-.15-.41-.22-.75-.22h0ZM559.37,179.05c.33,0,.62.04.88.12.26.08.5.19.72.33l.61-.44.52.14c-.28,1.28-.56,2.54-.84,3.79-.28,1.25-.54,2.43-.78,3.53-.08.3-.12.54-.12.72,0,.16.06.27.18.34.12.07.33.11.62.14l-.09.43h-2.21c.18-.7.35-1.36.51-1.96.16-.6.33-1.26.51-1.96l-.1-.03c-.21.28-.42.52-.63.72-.2.2-.4.36-.6.49-.2.13-.39.22-.59.28-.2.06-.39.09-.59.09-.51,0-.91-.18-1.19-.55s-.42-.9-.42-1.6c0-.42.04-.82.13-1.2.09-.38.21-.75.37-1.08.16-.34.35-.64.58-.92.22-.28.47-.51.73-.71.27-.2.55-.35.85-.46s.61-.16.93-.16h0Z"/>
    <path class="cls-6" d="M565.25,178.01h10.83v1.17h-10.83v-1.17h0ZM565.25,174.36h10.83v1.17h-10.83v-1.17h0Z"/>
    <polygon class="cls-6" points="584.54 169.17 588.46 169.17 588.46 169.85 586 169.85 586 185.26 588.46 185.26 588.46 185.93 584.54 185.93 584.54 169.17 584.54 169.17"/>
    <path class="cls-6" d="M594.51,174.05c-.6,0-1.13.24-1.61.73s-.85,1.14-1.12,1.96-.41,1.64-.41,2.45c0,.61.08,1.06.25,1.37s.45.45.84.45c.18,0,.37-.04.55-.12s.38-.21.58-.38.4-.39.6-.64.38-.51.54-.76.32-.56.46-.91.26-.77.36-1.26l.08-.38c.09-.42.13-.82.13-1.2,0-.46-.1-.79-.29-1s-.52-.31-.97-.31h0ZM594.36,173.36c.36,0,.71.04,1.04.13s.67.24,1.02.45l.81-.58.56.14-2.25,9.99c-.1.45-.15.78-.15,1,0,.26.07.44.2.55s.39.18.78.22l-.08.43h-2.74l1.51-5.77-.12-.05c-.5.71-1.02,1.25-1.54,1.62s-1.04.55-1.53.55c-.64,0-1.14-.24-1.5-.73s-.53-1.17-.53-2.05c0-1.01.2-1.98.59-2.9s.94-1.66,1.63-2.2,1.46-.8,2.31-.8h0Z"/>
    <path class="cls-6" d="M602.25,177.33h.39c0,.24-.02.45-.02.63,0,.19,0,.37,0,.54,0,.18,0,.35,0,.52v4.9c0,.13,0,.25.01.34s.02.18.04.24.05.12.08.17c.03.05.07.09.11.12.05.05.12.09.21.12.09.03.2.05.33.07.13.02.29.03.48.05.19.01.41.02.67.02v.56h-5.11v-.56c.25,0,.47-.02.64-.03.18-.01.33-.03.45-.04.12-.02.22-.04.3-.06.08-.02.14-.05.2-.09.06-.04.11-.08.15-.13.04-.04.08-.1.1-.17.03-.07.05-.15.06-.25.02-.1.02-.22.02-.37v-4.62c0-.17-.03-.29-.1-.35-.06-.07-.16-.1-.28-.1-.13,0-.33.07-.59.21-.26.14-.6.34-1.02.61-.06-.1-.11-.2-.15-.3-.05-.1-.1-.2-.15-.3.53-.29,1.06-.58,1.58-.87.52-.29,1.05-.58,1.59-.87h0Z"/>
    <path class="cls-6" d="M606.32,184.13h1.13c.06.3.09.6.09.89s-.05.58-.15.83c-.1.25-.27.5-.49.74s-.54.52-.93.82l-.35-.39c.22-.21.38-.39.48-.56.1-.17.17-.35.21-.56.04-.21.06-.47.06-.79s-.02-.65-.05-.97h0Z"/>
    <path class="cls-6" d="M612.57,177.33h.39c0,.24-.02.45-.02.63,0,.19,0,.37,0,.54,0,.18,0,.35,0,.52v4.9c0,.13,0,.25.01.34s.02.18.04.24.05.12.08.17c.03.05.07.09.11.12.05.05.12.09.21.12.09.03.2.05.33.07.13.02.29.03.48.05.19.01.41.02.67.02v.56h-5.11v-.56c.25,0,.47-.02.64-.03.18-.01.33-.03.45-.04.12-.02.22-.04.3-.06.08-.02.14-.05.2-.09.06-.04.11-.08.15-.13.04-.04.08-.1.1-.17.03-.07.05-.15.06-.25.02-.1.02-.22.02-.37v-4.62c0-.17-.03-.29-.1-.35-.06-.07-.16-.1-.28-.1-.13,0-.33.07-.59.21-.26.14-.6.34-1.02.61-.06-.1-.11-.2-.15-.3-.05-.1-.1-.2-.15-.3.53-.29,1.06-.58,1.58-.87.52-.29,1.05-.58,1.59-.87h0Z"/>
    <path class="cls-6" d="M617.8,179.87h1.54c.08.41.12.81.12,1.21s-.07.79-.21,1.12-.36.68-.67,1.02-.73.71-1.27,1.11l-.47-.54c.3-.28.52-.53.65-.76s.23-.48.29-.77.09-.65.09-1.08-.02-.88-.06-1.32h0Z"/>
    <path class="cls-6" d="M628.83,174.05c-.6,0-1.13.24-1.61.73s-.85,1.14-1.12,1.96-.41,1.64-.41,2.45c0,.61.08,1.06.25,1.37s.45.45.84.45c.18,0,.37-.04.55-.12s.38-.21.58-.38.4-.39.6-.64.38-.51.54-.76.32-.56.46-.91.26-.77.36-1.26l.08-.38c.09-.42.13-.82.13-1.2,0-.46-.1-.79-.29-1s-.52-.31-.97-.31h0ZM628.68,173.36c.36,0,.71.04,1.04.13s.67.24,1.02.45l.81-.58.56.14-2.25,9.99c-.1.45-.15.78-.15,1,0,.26.07.44.2.55s.39.18.78.22l-.08.43h-2.74l1.51-5.77-.12-.05c-.5.71-1.02,1.25-1.54,1.62s-1.04.55-1.53.55c-.64,0-1.14-.24-1.5-.73s-.53-1.17-.53-2.05c0-1.01.2-1.98.59-2.9s.94-1.66,1.63-2.2,1.46-.8,2.31-.8h0Z"/>
    <path class="cls-6" d="M636.57,177.33h.39c0,.24-.02.45-.02.63,0,.19,0,.37,0,.54,0,.18,0,.35,0,.52v4.9c0,.13,0,.25.01.34s.02.18.04.24.05.12.08.17c.03.05.07.09.11.12.05.05.12.09.21.12.09.03.2.05.33.07.13.02.29.03.48.05.19.01.41.02.67.02v.56h-5.11v-.56c.25,0,.47-.02.64-.03.18-.01.33-.03.45-.04.12-.02.22-.04.3-.06.08-.02.14-.05.2-.09.06-.04.11-.08.15-.13.04-.04.08-.1.1-.17.03-.07.05-.15.06-.25.02-.1.02-.22.02-.37v-4.62c0-.17-.03-.29-.1-.35-.06-.07-.16-.1-.28-.1-.13,0-.33.07-.59.21-.26.14-.6.34-1.02.61-.06-.1-.11-.2-.15-.3-.05-.1-.1-.2-.15-.3.53-.29,1.06-.58,1.58-.87.52-.29,1.05-.58,1.59-.87h0Z"/>
    <path class="cls-6" d="M640.76,184.13h1.13c.06.3.09.6.09.89s-.05.58-.15.83c-.1.25-.27.5-.49.74s-.54.52-.93.82l-.35-.39c.22-.21.38-.39.48-.56.1-.17.17-.35.21-.56.04-.21.06-.47.06-.79s-.02-.65-.05-.97h0Z"/>
    <path class="cls-6" d="M646.51,177.28c.45,0,.83.05,1.14.15.32.1.57.24.77.41.2.17.34.38.43.62.09.24.13.5.13.78,0,.17-.01.32-.04.47-.02.14-.06.29-.12.43-.06.14-.13.28-.23.42-.09.14-.21.29-.35.45-.11.14-.25.3-.42.48s-.36.37-.56.58-.42.42-.64.64c-.22.22-.44.44-.65.66-.21.22-.4.43-.58.64-.18.21-.32.4-.43.57h2.38c.2,0,.36,0,.48-.02.12-.01.22-.05.3-.1s.15-.13.2-.24c.06-.11.12-.25.19-.44h.6c-.02.3-.04.61-.06.92s-.04.62-.06.92h-5.46v-.34c.1-.23.22-.46.36-.69s.29-.45.46-.69.37-.47.59-.72.46-.5.73-.77c.4-.4.73-.75.99-1.03.25-.29.45-.54.6-.76.15-.22.25-.43.3-.62.05-.19.08-.39.08-.61s-.03-.42-.09-.61c-.06-.18-.15-.34-.27-.47s-.26-.23-.44-.3c-.18-.07-.38-.11-.62-.11-.4,0-.73.11-1.01.33s-.48.53-.63.94h-.84v-1.26c.55-.23,1.06-.39,1.52-.5.46-.1.88-.15,1.25-.15h0Z"/>
    <path class="cls-6" d="M652.24,179.87h1.54c.08.41.12.81.12,1.21s-.07.79-.21,1.12-.36.68-.67,1.02-.73.71-1.27,1.11l-.47-.54c.3-.28.52-.53.65-.76s.23-.48.29-.77.09-.65.09-1.08-.02-.88-.06-1.32h0Z"/>
    <path class="cls-6" d="M670.69,175.63c.3,0,.56.11.76.32s.31.48.31.81-.1.6-.31.81-.46.32-.76.32-.56-.11-.76-.32-.31-.48-.31-.81.1-.6.31-.81.46-.32.76-.32h0ZM665.37,175.63c.3,0,.56.11.76.32s.31.48.31.81-.1.6-.31.81-.46.32-.76.32-.56-.11-.76-.32-.31-.48-.31-.81.1-.6.31-.81.46-.32.76-.32h0ZM660.04,175.63c.3,0,.56.11.76.32s.31.48.31.81-.1.6-.31.81-.46.32-.76.32-.56-.11-.76-.32-.31-.48-.31-.81.1-.6.31-.81.46-.32.76-.32h0Z"/>
    <path class="cls-6" d="M677.32,179.87h1.54c.08.41.12.81.12,1.21s-.07.79-.21,1.12-.36.68-.67,1.02-.73.71-1.27,1.11l-.47-.54c.3-.28.52-.53.65-.76s.23-.48.29-.77.09-.65.09-1.08-.02-.88-.06-1.32h0Z"/>
    <path class="cls-6" d="M688.47,174.05c-.6,0-1.13.24-1.61.73s-.85,1.14-1.12,1.96-.41,1.64-.41,2.45c0,.61.08,1.06.25,1.37s.45.45.84.45c.18,0,.37-.04.55-.12s.38-.21.58-.38.4-.39.6-.64.38-.51.54-.76.32-.56.46-.91.26-.77.36-1.26l.08-.38c.09-.42.13-.82.13-1.2,0-.46-.1-.79-.29-1s-.52-.31-.97-.31h0ZM688.32,173.36c.36,0,.71.04,1.04.13s.67.24,1.02.45l.81-.58.56.14-2.25,9.99c-.1.45-.15.78-.15,1,0,.26.07.44.2.55s.39.18.78.22l-.08.43h-2.74l1.51-5.77-.12-.05c-.5.71-1.02,1.25-1.54,1.62s-1.04.55-1.53.55c-.64,0-1.14-.24-1.5-.73s-.53-1.17-.53-2.05c0-1.01.2-1.98.59-2.9s.94-1.66,1.63-2.2,1.46-.8,2.31-.8h0Z"/>
    <path class="cls-6" d="M696.21,177.33h.39c0,.24-.02.45-.02.63,0,.19,0,.37,0,.54,0,.18,0,.35,0,.52v4.9c0,.13,0,.25.01.34s.02.18.04.24.05.12.08.17c.03.05.07.09.11.12.05.05.12.09.21.12.09.03.2.05.33.07.13.02.29.03.48.05.19.01.41.02.67.02v.56h-5.11v-.56c.25,0,.47-.02.64-.03.18-.01.33-.03.45-.04.12-.02.22-.04.3-.06.08-.02.14-.05.2-.09.06-.04.11-.08.15-.13.04-.04.08-.1.1-.17.03-.07.05-.15.06-.25.02-.1.02-.22.02-.37v-4.62c0-.17-.03-.29-.1-.35-.06-.07-.16-.1-.28-.1-.13,0-.33.07-.59.21-.26.14-.6.34-1.02.61-.06-.1-.11-.2-.15-.3-.05-.1-.1-.2-.15-.3.53-.29,1.06-.58,1.58-.87.52-.29,1.05-.58,1.59-.87h0Z"/>
    <path class="cls-6" d="M700.4,184.13h1.13c.06.3.09.6.09.89s-.05.58-.15.83c-.1.25-.27.5-.49.74s-.54.52-.93.82l-.35-.39c.22-.21.38-.39.48-.56.1-.17.17-.35.21-.56.04-.21.06-.47.06-.79s-.02-.65-.05-.97h0Z"/>
    <path class="cls-6" d="M706.19,177.53c-.13,0-.26,0-.39,0s-.26.01-.39.02v7.35c.11,0,.23.01.36.01h.45c.61,0,1.12-.08,1.55-.23.43-.15.78-.39,1.05-.7s.47-.7.59-1.17c.12-.47.19-1.02.19-1.66s-.07-1.15-.22-1.6c-.15-.45-.36-.83-.64-1.13s-.63-.52-1.04-.67c-.41-.15-.88-.22-1.41-.22h-.1ZM703.19,176.83h3.16c.45,0,.85.02,1.2.07.35.05.67.12.95.21.28.09.53.2.76.33s.43.27.62.44c.37.31.67.73.88,1.26.21.52.32,1.16.32,1.91,0,.96-.15,1.75-.45,2.38-.18.38-.39.71-.63.99-.25.27-.56.5-.93.68s-.83.31-1.37.4-1.18.13-1.93.13h-2.57v-.41c.2-.06.35-.11.46-.15s.19-.09.25-.16c.05-.07.09-.18.1-.32.01-.14.02-.34.02-.61v-5.51c0-.25,0-.45-.02-.59-.02-.14-.05-.25-.11-.32s-.14-.13-.25-.17c-.11-.04-.26-.08-.45-.14v-.43Z"/>
    <polygon class="cls-6" points="715.88 169.17 719.8 169.17 719.8 185.93 715.88 185.93 715.88 185.26 718.34 185.26 718.34 169.85 715.88 169.85 715.88 169.17 715.88 169.17"/>
  </g>
  <g>
    <path class="cls-6" d="M465.91,312.38h.51l-1.72,7.67h.28c.44,0,.93-.19,1.48-.58s.99-.74,1.31-1.07.49-.64.49-.95c0-.29-.2-.45-.6-.48l.1-.43h2.85l.17.43c-.49.44-1,.87-1.55,1.29l-2.18,1.69.86,3.17c.07.27.13.46.19.58s.12.21.19.27.17.09.29.09c.15,0,.33-.08.54-.25s.45-.4.72-.71l.5.49c-.53.56-.96.94-1.31,1.16s-.68.33-1,.33c-.4,0-.71-.11-.95-.34s-.42-.6-.55-1.13l-.58-2.29c-.06-.23-.12-.39-.18-.47s-.13-.15-.2-.18-.21-.04-.4-.04h-.61l-.91,4.31h-1.52l2.26-10.05c.08-.34.13-.6.16-.8s.05-.36.05-.51c0-.25-.07-.42-.22-.52s-.42-.16-.8-.17l.11-.46,2.22-.08h0Z"/>
    <path class="cls-6" d="M475.17,320.36h.39c0,.24-.02.45-.02.63,0,.19,0,.37,0,.54,0,.18,0,.35,0,.52v4.9c0,.13,0,.25.01.34,0,.1.02.18.04.24.02.07.05.12.08.17s.07.09.11.12c.05.05.12.09.21.12s.2.05.33.07c.13.02.29.03.48.05s.41.02.67.02v.56h-5.11v-.56c.25,0,.47-.02.64-.03.18-.01.33-.03.45-.05.12-.02.22-.04.3-.06.08-.02.14-.05.2-.09.06-.04.11-.08.15-.13.04-.05.08-.1.1-.17.03-.07.05-.15.06-.25.02-.1.02-.22.02-.37v-4.62c0-.17-.03-.29-.1-.35s-.16-.1-.28-.1c-.13,0-.33.07-.59.21-.26.14-.6.34-1.02.61-.06-.1-.11-.2-.15-.3-.05-.1-.1-.2-.15-.3.53-.29,1.06-.58,1.58-.87s1.05-.58,1.59-.87h0Z"/>
    <path class="cls-6" d="M485.44,321.04h10.83v1.17h-10.83v-1.17h0ZM485.44,317.39h10.83v1.17h-10.83v-1.17h0Z"/>
    <path class="cls-6" d="M503.19,316.54h2.3l.53,6.93c.83-1.35,1.42-2.37,1.79-3.08s.64-1.31.81-1.82.31-1.05.4-1.6l.1-.43h1.27l.64,6.94c.91-1.3,1.61-2.44,2.09-3.41s.72-1.76.72-2.37c0-.28-.06-.46-.18-.56s-.32-.16-.6-.18l.09-.43h2.27l.24.44c-.21.52-.37.92-.49,1.2s-.28.62-.48,1.02-.41.79-.63,1.18-.48.82-.79,1.3-.64.98-1.02,1.54-.82,1.18-1.33,1.87h-1.05l-.36-3.67c-.03-.29-.06-.66-.09-1.12s-.05-.82-.07-1.07h-.1c-.32.77-.75,1.64-1.29,2.59s-1.22,2.05-2.02,3.28h-1.18l-.67-6.62c-.04-.34-.08-.62-.13-.83s-.14-.37-.26-.47-.33-.17-.61-.19l.1-.43Z"/>
    <path class="cls-6" d="M519.33,320.36h.39c0,.24-.02.45-.02.63,0,.19,0,.37,0,.54,0,.18,0,.35,0,.52v4.9c0,.13,0,.25.01.34,0,.1.02.18.04.24.02.07.05.12.08.17s.07.09.11.12c.05.05.12.09.21.12s.2.05.33.07c.13.02.29.03.48.05s.41.02.67.02v.56h-5.11v-.56c.25,0,.47-.02.64-.03.18-.01.33-.03.45-.05.12-.02.22-.04.3-.06.08-.02.14-.05.2-.09.06-.04.11-.08.15-.13.04-.05.08-.1.1-.17.03-.07.05-.15.06-.25.02-.1.02-.22.02-.37v-4.62c0-.17-.03-.29-.1-.35s-.16-.1-.28-.1c-.13,0-.33.07-.59.21-.26.14-.6.34-1.02.61-.06-.1-.11-.2-.15-.3-.05-.1-.1-.2-.15-.3.53-.29,1.06-.58,1.58-.87s1.05-.58,1.59-.87h0Z"/>
    <path class="cls-6" d="M529.75,318.54c.23,0,.44.05.62.16s.33.26.43.45.15.41.15.65-.05.47-.15.66-.25.34-.43.45-.39.16-.61.16-.43-.05-.61-.16-.33-.25-.43-.45-.15-.41-.15-.66.05-.46.15-.65.24-.34.43-.45.39-.16.62-.16h0Z"/>
    <path class="cls-6" d="M537.35,312.95h3.67l-.1.43c-.26.02-.47.1-.62.23s-.25.33-.31.56-.09.57-.09,1.01v.3c0,.11,0,.21,0,.33l.08,3.44c0,.25,0,.88,0,1.87v1.84s.08,0,.08,0l4.86-10h1.33v5.86c0,.97-.03,2.35-.08,4.14h.09l3.56-6.88c.13-.26.28-.56.43-.91s.22-.65.22-.9c0-.49-.29-.79-.88-.88l.1-.43h3.59l-.1.43c-.27.04-.53.18-.77.44s-.57.77-.98,1.52l-5.28,9.71h-1.35v-6.43c0-1.04.03-2.13.08-3.26h-.09l-4.7,9.69h-1.38l-.41-9.77c-.02-.49-.07-.86-.15-1.12s-.19-.45-.32-.56-.33-.19-.57-.23l.1-.43Z"/>
    <path class="cls-6" d="M554.46,319.87h.46l-1.13,5.01h.18c.16,0,.34-.03.53-.1.19-.07.38-.16.56-.27.19-.11.37-.23.54-.37.17-.14.32-.28.45-.42s.24-.27.31-.4c.08-.12.12-.23.12-.32,0-.1-.03-.19-.1-.25-.07-.06-.19-.11-.37-.13l.08-.41h2.32l.16.4c-.27.23-.53.45-.78.64-.25.2-.49.39-.73.57s-.48.36-.72.54c-.24.18-.48.36-.73.55.1.33.21.66.32,1s.21.67.32,1c.05.18.1.33.15.45.05.13.09.23.15.31.05.08.11.14.17.18.06.04.13.06.22.06.06,0,.12-.01.19-.03s.14-.06.22-.12c.08-.06.17-.13.27-.23s.22-.22.34-.36l.44.42c-.2.21-.39.38-.56.54-.17.15-.34.27-.5.37s-.31.17-.45.21c-.15.05-.29.07-.44.07-.27,0-.49-.07-.65-.2s-.31-.33-.42-.58c-.12-.25-.22-.56-.32-.91s-.21-.75-.34-1.19c-.03-.1-.06-.19-.09-.25-.03-.06-.06-.11-.11-.14s-.1-.05-.16-.06-.15-.01-.24-.01h-.41l-.71,3.24h-1.24l1.56-6.92c.05-.23.09-.41.11-.54s.03-.25.03-.35c0-.08-.01-.15-.04-.21s-.07-.11-.14-.15-.15-.06-.26-.08-.24-.03-.4-.03l.1-.44,1.77-.08h0Z"/>
    <path class="cls-6" d="M566.56,321.04h10.83v1.17h-10.83v-1.17h0ZM566.56,317.39h10.83v1.17h-10.83v-1.17h0Z"/>
    <polygon class="cls-6" points="585.74 312.21 589.66 312.21 589.66 312.89 587.2 312.89 587.2 328.29 589.66 328.29 589.66 328.97 585.74 328.97 585.74 312.21 585.74 312.21"/>
    <path class="cls-6" d="M594.67,312.38h.51l-1.72,7.67h.28c.44,0,.93-.19,1.48-.58s.99-.74,1.31-1.07.49-.64.49-.95c0-.29-.2-.45-.6-.48l.1-.43h2.85l.17.43c-.49.44-1,.87-1.55,1.29l-2.18,1.69.86,3.17c.07.27.13.46.19.58s.12.21.19.27.17.09.29.09c.15,0,.33-.08.54-.25s.45-.4.72-.71l.5.49c-.53.56-.96.94-1.31,1.16s-.68.33-1,.33c-.4,0-.71-.11-.95-.34s-.42-.6-.55-1.13l-.58-2.29c-.06-.23-.12-.39-.18-.47s-.13-.15-.2-.18-.21-.04-.4-.04h-.61l-.91,4.31h-1.52l2.26-10.05c.08-.34.13-.6.16-.8s.05-.36.05-.51c0-.25-.07-.42-.22-.52s-.42-.16-.8-.17l.11-.46,2.22-.08h0Z"/>
    <path class="cls-6" d="M603.93,320.36h.39c0,.24-.02.45-.02.63,0,.19,0,.37,0,.54,0,.18,0,.35,0,.52v4.9c0,.13,0,.25.01.34s.02.18.04.24.05.12.08.17.07.09.11.12c.05.05.12.09.21.12s.2.05.33.07c.13.02.29.03.48.05.19.01.41.02.67.02v.56h-5.11v-.56c.25,0,.47-.02.64-.03.18-.01.33-.03.45-.05.12-.02.22-.04.3-.06.08-.02.14-.05.2-.09.06-.04.11-.08.15-.13.04-.05.08-.1.1-.17.03-.07.05-.15.06-.25.02-.1.02-.22.02-.37v-4.62c0-.17-.03-.29-.1-.35s-.16-.1-.28-.1c-.13,0-.33.07-.59.21-.26.14-.6.34-1.02.61-.06-.1-.11-.2-.15-.3-.05-.1-.1-.2-.15-.3.53-.29,1.06-.58,1.58-.87.52-.29,1.05-.58,1.59-.87h0Z"/>
    <path class="cls-6" d="M608,327.17h1.13c.06.3.09.6.09.89s-.05.58-.15.82c-.1.25-.27.5-.49.74s-.54.52-.93.82l-.35-.39c.22-.21.38-.39.48-.56s.17-.35.21-.56.06-.47.06-.79-.02-.65-.05-.97h0Z"/>
    <path class="cls-6" d="M614.25,320.36h.39c0,.24-.02.45-.02.63,0,.19,0,.37,0,.54,0,.18,0,.35,0,.52v4.9c0,.13,0,.25.01.34s.02.18.04.24.05.12.08.17.07.09.11.12c.05.05.12.09.21.12s.2.05.33.07c.13.02.29.03.48.05.19.01.41.02.67.02v.56h-5.11v-.56c.25,0,.47-.02.64-.03.18-.01.33-.03.45-.05.12-.02.22-.04.3-.06.08-.02.14-.05.2-.09.06-.04.11-.08.15-.13.04-.05.08-.1.1-.17.03-.07.05-.15.06-.25.02-.1.02-.22.02-.37v-4.62c0-.17-.03-.29-.1-.35s-.16-.1-.28-.1c-.13,0-.33.07-.59.21-.26.14-.6.34-1.02.61-.06-.1-.11-.2-.15-.3-.05-.1-.1-.2-.15-.3.53-.29,1.06-.58,1.58-.87.52-.29,1.05-.58,1.59-.87h0Z"/>
    <path class="cls-6" d="M619.47,322.91h1.54c.08.41.12.81.12,1.21s-.07.79-.21,1.12-.36.68-.67,1.02-.73.71-1.27,1.11l-.47-.54c.3-.28.52-.53.65-.76s.23-.48.29-.77.09-.65.09-1.08-.02-.88-.06-1.32h0Z"/>
    <path class="cls-6" d="M629.47,312.38h.51l-1.72,7.67h.28c.44,0,.93-.19,1.48-.58s.99-.74,1.31-1.07.49-.64.49-.95c0-.29-.2-.45-.6-.48l.1-.43h2.85l.17.43c-.49.44-1,.87-1.55,1.29l-2.18,1.69.86,3.17c.07.27.13.46.19.58s.12.21.19.27.17.09.29.09c.15,0,.33-.08.54-.25s.45-.4.72-.71l.5.49c-.53.56-.96.94-1.31,1.16s-.68.33-1,.33c-.4,0-.71-.11-.95-.34s-.42-.6-.55-1.13l-.58-2.29c-.06-.23-.12-.39-.18-.47s-.13-.15-.2-.18-.21-.04-.4-.04h-.61l-.91,4.31h-1.52l2.26-10.05c.08-.34.13-.6.16-.8s.05-.36.05-.51c0-.25-.07-.42-.22-.52s-.42-.16-.8-.17l.11-.46,2.22-.08h0Z"/>
    <path class="cls-6" d="M638.85,320.36h.39c0,.24-.02.45-.02.63,0,.19,0,.37,0,.54,0,.18,0,.35,0,.52v4.9c0,.13,0,.25.01.34s.02.18.04.24.05.12.08.17.07.09.11.12c.05.05.12.09.21.12s.2.05.33.07c.13.02.29.03.48.05.19.01.41.02.67.02v.56h-5.11v-.56c.25,0,.47-.02.64-.03.18-.01.33-.03.45-.05.12-.02.22-.04.3-.06.08-.02.14-.05.2-.09.06-.04.11-.08.15-.13.04-.05.08-.1.1-.17.03-.07.05-.15.06-.25.02-.1.02-.22.02-.37v-4.62c0-.17-.03-.29-.1-.35s-.16-.1-.28-.1c-.13,0-.33.07-.59.21-.26.14-.6.34-1.02.61-.06-.1-.11-.2-.15-.3-.05-.1-.1-.2-.15-.3.53-.29,1.06-.58,1.58-.87.52-.29,1.05-.58,1.59-.87h0Z"/>
    <path class="cls-6" d="M643.04,327.17h1.13c.06.3.09.6.09.89s-.05.58-.15.82c-.1.25-.27.5-.49.74s-.54.52-.93.82l-.35-.39c.22-.21.38-.39.48-.56s.17-.35.21-.56.06-.47.06-.79-.02-.65-.05-.97h0Z"/>
    <path class="cls-6" d="M648.66,320.32c.45,0,.83.05,1.14.15.32.1.57.24.77.41.2.17.34.38.43.62.09.24.13.5.13.78,0,.17-.01.32-.04.47s-.06.29-.12.43c-.06.14-.13.28-.23.42-.09.14-.21.29-.35.45-.11.14-.25.3-.42.48-.17.18-.36.37-.56.58-.2.21-.42.42-.64.64-.22.22-.44.44-.65.66-.21.22-.4.43-.58.64-.18.21-.32.4-.43.57h2.38c.2,0,.36,0,.48-.02.12-.02.22-.05.3-.1.08-.05.15-.13.2-.24.06-.11.12-.25.19-.44h.6c-.02.31-.04.61-.06.92-.02.31-.04.62-.06.92h-5.46v-.34c.1-.23.22-.46.36-.69s.29-.45.46-.69.37-.47.59-.72.46-.5.73-.77c.4-.4.73-.75.99-1.03.25-.29.45-.54.6-.76.15-.22.25-.43.3-.62s.08-.39.08-.61-.03-.42-.09-.61c-.06-.18-.15-.34-.27-.47s-.26-.23-.44-.3c-.18-.07-.38-.11-.62-.11-.4,0-.73.11-1.01.33-.27.22-.48.53-.63.94h-.84v-1.26c.55-.23,1.06-.39,1.52-.5s.88-.15,1.25-.15h0Z"/>
    <path class="cls-6" d="M654.39,322.91h1.54c.08.41.12.81.12,1.21s-.07.79-.21,1.12-.36.68-.67,1.02-.73.71-1.27,1.11l-.47-.54c.3-.28.52-.53.65-.76s.23-.48.29-.77.09-.65.09-1.08-.02-.88-.06-1.32h0Z"/>
    <path class="cls-6" d="M672.85,318.67c.3,0,.56.11.76.32s.31.48.31.81-.1.6-.31.81-.46.32-.76.32-.56-.11-.76-.32-.31-.48-.31-.81.1-.6.31-.81.46-.32.76-.32h0ZM667.52,318.67c.3,0,.56.11.76.32s.31.48.31.81-.1.6-.31.81-.46.32-.76.32-.56-.11-.76-.32-.31-.48-.31-.81.1-.6.31-.81.46-.32.76-.32h0ZM662.2,318.67c.3,0,.56.11.76.32s.31.48.31.81-.1.6-.31.81-.46.32-.76.32-.56-.11-.76-.32-.31-.48-.31-.81.1-.6.31-.81.46-.32.76-.32h0Z"/>
    <path class="cls-6" d="M679.47,322.91h1.54c.08.41.12.81.12,1.21s-.07.79-.21,1.12-.36.68-.67,1.02-.73.71-1.27,1.11l-.47-.54c.3-.28.52-.53.65-.76s.23-.48.29-.77.09-.65.09-1.08-.02-.88-.06-1.32h0Z"/>
    <path class="cls-6" d="M689.59,312.38h.51l-1.72,7.67h.28c.44,0,.93-.19,1.48-.58s.99-.74,1.31-1.07.49-.64.49-.95c0-.29-.2-.45-.6-.48l.1-.43h2.85l.17.43c-.49.44-1,.87-1.55,1.29l-2.18,1.69.86,3.17c.07.27.13.46.19.58s.12.21.19.27.17.09.29.09c.15,0,.33-.08.54-.25s.45-.4.72-.71l.5.49c-.53.56-.96.94-1.31,1.16s-.68.33-1,.33c-.4,0-.71-.11-.95-.34s-.42-.6-.55-1.13l-.58-2.29c-.06-.23-.12-.39-.18-.47s-.13-.15-.2-.18-.21-.04-.4-.04h-.61l-.91,4.31h-1.52l2.26-10.05c.08-.34.13-.6.16-.8s.05-.36.05-.51c0-.25-.07-.42-.22-.52s-.42-.16-.8-.17l.11-.46,2.22-.08h0Z"/>
    <path class="cls-6" d="M698.97,320.36h.39c0,.24-.02.45-.02.63,0,.19,0,.37,0,.54,0,.18,0,.35,0,.52v4.9c0,.13,0,.25.01.34s.02.18.04.24.05.12.08.17.07.09.11.12c.05.05.12.09.21.12s.2.05.33.07c.13.02.29.03.48.05.19.01.41.02.67.02v.56h-5.11v-.56c.25,0,.47-.02.64-.03.18-.01.33-.03.45-.05.12-.02.22-.04.3-.06.08-.02.14-.05.2-.09.06-.04.11-.08.15-.13.04-.05.08-.1.1-.17.03-.07.05-.15.06-.25.02-.1.02-.22.02-.37v-4.62c0-.17-.03-.29-.1-.35s-.16-.1-.28-.1c-.13,0-.33.07-.59.21-.26.14-.6.34-1.02.61-.06-.1-.11-.2-.15-.3-.05-.1-.1-.2-.15-.3.53-.29,1.06-.58,1.58-.87.52-.29,1.05-.58,1.59-.87h0Z"/>
    <path class="cls-6" d="M703.04,327.17h1.13c.06.3.09.6.09.89s-.05.58-.15.82c-.1.25-.27.5-.49.74s-.54.52-.93.82l-.35-.39c.22-.21.38-.39.48-.56s.17-.35.21-.56.06-.47.06-.79-.02-.65-.05-.97h0Z"/>
    <path class="cls-6" d="M709.63,320.98c-.15,0-.28,0-.4,0-.11,0-.22.01-.31.02l-1.57,6.98s.06,0,.12,0c.06,0,.13,0,.2,0,.07,0,.15,0,.22,0,.08,0,.14,0,.18,0,.7,0,1.3-.11,1.79-.33.49-.22.91-.56,1.25-1.02.35-.48.6-.98.77-1.5.16-.52.24-1.09.24-1.7,0-.4-.05-.75-.16-1.06-.11-.31-.27-.57-.48-.78-.21-.21-.47-.37-.79-.48s-.67-.16-1.07-.16h0ZM706.95,320.3h2.55c.42,0,.78.02,1.09.06.31.04.57.1.8.17.31.09.58.21.84.37.25.16.47.37.66.61.18.24.33.53.43.85.1.32.15.69.15,1.09,0,.77-.12,1.47-.35,2.11s-.58,1.18-1.04,1.64c-.46.46-1.02.81-1.68,1.07-.67.26-1.43.38-2.29.38h-2.74l.07-.39c.13-.02.24-.05.33-.07s.16-.09.23-.18c.07-.09.13-.23.18-.42.06-.18.12-.45.19-.79l1.06-4.7c.04-.19.08-.36.1-.5s.03-.27.03-.37c0-.19-.05-.32-.15-.4-.1-.08-.28-.12-.54-.13l.1-.41Z"/>
    <polygon class="cls-6" points="715.75 312.21 719.67 312.21 719.67 328.97 715.75 328.97 715.75 328.29 718.21 328.29 718.21 312.89 715.75 312.89 715.75 312.21 715.75 312.21"/>
  </g>
  <path class="cls-6" d="M460.93,466.42c.42,0,.73.11.91.33s.28.51.28.88c0,.28-.05.6-.15.97s-.24.75-.42,1.15-.4.82-.65,1.24-.53.84-.83,1.24-.63.78-.98,1.13-.7.66-1.08.93-.75.47-1.13.63-.77.23-1.15.23c-.17,0-.31-.04-.43-.13s-.21-.21-.28-.36-.12-.34-.15-.55-.04-.44-.04-.69c0-.33.02-.69.06-1.07s.09-.76.16-1.15l.37-2.43c.02-.14.04-.27.06-.4s.02-.22.02-.28c0-.18-.03-.33-.09-.45s-.16-.18-.3-.18c-.11,0-.23.03-.36.1s-.26.15-.39.26-.26.22-.38.34-.24.23-.34.34l-.42-.49c.18-.19.38-.37.58-.56s.42-.35.65-.5.47-.27.72-.36.51-.14.77-.14c.22,0,.4.04.54.11s.25.17.33.29.13.25.16.4.04.29.04.43c0,.08,0,.16,0,.24s-.01.15-.03.21l-.49,3.18c-.05.33-.1.66-.13.98s-.05.6-.05.85.01.45.04.6.08.23.17.23c.19,0,.44-.08.73-.23s.6-.37.92-.64.64-.59.97-.97.61-.77.87-1.21.47-.89.63-1.37.24-.96.24-1.45c0-.21-.05-.37-.14-.49s-.23-.17-.43-.17c-.25,0-.47.1-.68.29s-.42.44-.65.75l-.5-.45c.14-.21.31-.41.5-.61s.39-.36.61-.51.44-.26.66-.35.45-.13.67-.13h0Z"/>
  <path class="cls-6" d="M466.2,470.43h.39c0,.24-.02.45-.02.63,0,.19,0,.37,0,.54,0,.18,0,.35,0,.52v4.9c0,.13,0,.25.01.34,0,.1.02.18.04.24.02.07.05.12.08.17s.07.09.11.12c.05.05.12.09.21.12s.2.05.33.07c.13.02.29.03.48.05s.41.02.67.02v.56h-5.11v-.56c.25,0,.47-.02.64-.03.18-.01.33-.03.45-.05.12-.02.22-.04.3-.06.08-.02.14-.05.2-.09.06-.04.11-.08.15-.13.04-.05.08-.1.1-.17.03-.07.05-.15.06-.25.02-.1.02-.22.02-.37v-4.62c0-.17-.03-.29-.1-.35s-.16-.1-.28-.1c-.13,0-.33.07-.59.21-.26.14-.6.34-1.02.61-.06-.1-.11-.2-.15-.3-.05-.1-.1-.2-.15-.3.53-.29,1.06-.58,1.58-.87s1.05-.58,1.59-.87h0Z"/>
  <path class="cls-6" d="M476.48,471.11h10.83v1.17h-10.83v-1.17h0ZM476.48,467.46h10.83v1.17h-10.83v-1.17h0Z"/>
  <path class="cls-6" d="M494.23,466.61h2.3l.53,6.93c.83-1.35,1.42-2.37,1.79-3.08s.64-1.31.81-1.82.31-1.05.4-1.6l.1-.43h1.27l.64,6.94c.91-1.3,1.61-2.44,2.09-3.41s.72-1.76.72-2.37c0-.28-.06-.46-.18-.56s-.32-.16-.6-.18l.09-.43h2.27l.24.44c-.21.52-.37.92-.49,1.2s-.28.62-.48,1.02-.41.79-.63,1.18-.48.82-.79,1.3-.64.98-1.02,1.54-.82,1.18-1.33,1.87h-1.05l-.36-3.67c-.03-.29-.06-.66-.09-1.12s-.05-.82-.07-1.07h-.1c-.32.77-.75,1.64-1.29,2.59s-1.22,2.05-2.02,3.28h-1.18l-.67-6.62c-.04-.34-.08-.62-.13-.83s-.14-.37-.26-.47-.33-.17-.61-.19l.1-.43Z"/>
  <path class="cls-6" d="M510.36,470.43h.39c0,.24-.02.45-.02.63,0,.19,0,.37,0,.54,0,.18,0,.35,0,.52v4.9c0,.13,0,.25.01.34,0,.1.02.18.04.24.02.07.05.12.08.17s.07.09.11.12c.05.05.12.09.21.12s.2.05.33.07c.13.02.29.03.48.05s.41.02.67.02v.56h-5.11v-.56c.25,0,.47-.02.64-.03.18-.01.33-.03.45-.05.12-.02.22-.04.3-.06.08-.02.14-.05.2-.09.06-.04.11-.08.15-.13.04-.05.08-.1.1-.17.03-.07.05-.15.06-.25.02-.1.02-.22.02-.37v-4.62c0-.17-.03-.29-.1-.35s-.16-.1-.28-.1c-.13,0-.33.07-.59.21-.26.14-.6.34-1.02.61-.06-.1-.11-.2-.15-.3-.05-.1-.1-.2-.15-.3.53-.29,1.06-.58,1.58-.87s1.05-.58,1.59-.87h0Z"/>
  <path class="cls-6" d="M520.79,468.6c.23,0,.44.05.62.16s.33.26.43.45.15.41.15.65-.05.47-.15.66-.25.34-.43.45-.39.16-.61.16-.43-.05-.61-.16-.33-.25-.43-.45-.15-.41-.15-.66.05-.46.15-.65.24-.34.43-.45.39-.16.62-.16h0Z"/>
  <path class="cls-6" d="M528.39,463.01h3.67l-.1.43c-.26.02-.47.1-.62.23s-.25.33-.31.56-.09.57-.09,1.01v.3c0,.11,0,.21,0,.33l.08,3.44c0,.25,0,.88,0,1.87v1.84s.08,0,.08,0l4.86-10h1.33v5.86c0,.97-.03,2.35-.08,4.14h.09l3.56-6.88c.13-.26.28-.56.43-.91s.22-.65.22-.9c0-.49-.29-.79-.88-.88l.1-.43h3.59l-.1.43c-.27.04-.53.18-.77.44s-.57.77-.98,1.52l-5.28,9.71h-1.35v-6.43c0-1.04.03-2.13.08-3.26h-.09l-4.7,9.69h-1.38l-.41-9.77c-.02-.49-.07-.86-.15-1.12s-.19-.45-.32-.56-.33-.19-.57-.23l.1-.43Z"/>
  <path class="cls-6" d="M543.03,472.15c.18,0,.33.04.45.11.11.07.2.17.27.29s.11.25.14.39c.02.14.04.28.04.42,0,.08,0,.19-.03.33l-.41,2.33c-.04.22-.07.44-.1.66-.03.21-.04.4-.04.57s.01.3.03.4.04.15.06.15c.14,0,.31-.05.53-.16.21-.11.44-.26.68-.45.24-.19.48-.42.72-.68.24-.26.45-.55.64-.85s.34-.63.46-.97.18-.68.18-1.02c0-.2-.04-.35-.11-.44s-.18-.14-.31-.14c-.14,0-.28.07-.44.2-.15.13-.32.3-.48.51l-.38-.38c.1-.17.23-.33.37-.48.14-.15.29-.29.45-.4.16-.12.32-.21.49-.28.17-.07.34-.1.5-.1.34,0,.58.11.73.32.15.21.23.5.23.85,0,.21-.04.44-.11.71-.08.27-.18.55-.32.84-.14.3-.3.6-.49.91-.19.31-.4.61-.63.91-.23.29-.47.57-.73.83-.26.26-.53.49-.81.68-.28.19-.57.35-.86.46-.29.11-.58.17-.87.17-.15,0-.28-.03-.39-.09-.1-.06-.18-.15-.24-.26-.06-.11-.09-.25-.12-.4s-.03-.32-.03-.51c0-.24.02-.51.05-.79s.07-.56.12-.84c.23-1.38.34-2.18.34-2.4,0-.16,0-.27-.05-.33s-.11-.09-.19-.09c-.09,0-.18.02-.27.07s-.19.11-.29.18c-.1.07-.19.15-.29.24-.09.08-.18.16-.26.24l-.35-.43c.14-.15.29-.3.45-.45s.33-.29.51-.41.37-.22.57-.29c.2-.07.4-.11.6-.11h0Z"/>
  <path class="cls-6" d="M555.44,471.11h10.83v1.17h-10.83v-1.17h0ZM555.44,467.46h10.83v1.17h-10.83v-1.17h0Z"/>
  <polygon class="cls-6" points="574.62 462.28 578.54 462.28 578.54 462.95 576.07 462.95 576.07 478.36 578.54 478.36 578.54 479.04 574.62 479.04 574.62 462.28 574.62 462.28"/>
  <path class="cls-6" d="M587.29,466.42c.42,0,.73.11.91.33s.28.51.28.88c0,.28-.05.6-.15.97s-.24.75-.42,1.15-.4.82-.65,1.24-.53.84-.83,1.24-.63.78-.98,1.13-.7.66-1.08.93-.75.47-1.13.63-.77.23-1.15.23c-.17,0-.31-.04-.43-.13s-.21-.21-.28-.36-.12-.34-.15-.55-.04-.44-.04-.69c0-.33.02-.69.06-1.07s.09-.76.16-1.15l.37-2.43c.02-.14.04-.27.06-.4s.02-.22.02-.28c0-.18-.03-.33-.09-.45s-.16-.18-.3-.18c-.11,0-.23.03-.36.1s-.26.15-.39.26-.26.22-.38.34-.24.23-.34.34l-.42-.49c.18-.19.38-.37.58-.56s.42-.35.65-.5.47-.27.72-.36.51-.14.77-.14c.22,0,.4.04.54.11s.25.17.33.29.13.25.16.4.04.29.04.43c0,.08,0,.16,0,.24s-.01.15-.03.21l-.49,3.18c-.05.33-.1.66-.13.98s-.05.6-.05.85.01.45.04.6.08.23.17.23c.19,0,.44-.08.73-.23s.6-.37.92-.64.64-.59.97-.97.61-.77.87-1.21.47-.89.63-1.37.24-.96.24-1.45c0-.21-.05-.37-.14-.49s-.23-.17-.43-.17c-.25,0-.47.1-.68.29s-.42.44-.65.75l-.5-.45c.14-.21.31-.41.5-.61s.39-.36.61-.51.44-.26.66-.35.45-.13.67-.13h0Z"/>
  <path class="cls-6" d="M592.44,470.43h.39c0,.24-.02.45-.02.63,0,.19,0,.37,0,.54,0,.18,0,.35,0,.52v4.9c0,.13,0,.25.01.34s.02.18.04.24.05.12.08.17.07.09.11.12c.05.05.12.09.21.12s.2.05.33.07c.13.02.29.03.48.05.19.01.41.02.67.02v.56h-5.11v-.56c.25,0,.47-.02.64-.03.18-.01.33-.03.45-.05.12-.02.22-.04.3-.06.08-.02.14-.05.2-.09.06-.04.11-.08.15-.13.04-.05.08-.1.1-.17.03-.07.05-.15.06-.25.02-.1.02-.22.02-.37v-4.62c0-.17-.03-.29-.1-.35s-.16-.1-.28-.1c-.13,0-.33.07-.59.21-.26.14-.6.34-1.02.61-.06-.1-.11-.2-.15-.3-.05-.1-.1-.2-.15-.3.53-.29,1.06-.58,1.58-.87.52-.29,1.05-.58,1.59-.87h0Z"/>
  <path class="cls-6" d="M596.64,477.24h1.13c.06.3.09.6.09.89s-.05.58-.15.82c-.1.25-.27.5-.49.74s-.54.52-.93.82l-.35-.39c.22-.21.38-.39.48-.56s.17-.35.21-.56.06-.47.06-.79-.02-.65-.05-.97h0Z"/>
  <path class="cls-6" d="M602.88,470.43h.39c0,.24-.02.45-.02.63,0,.19,0,.37,0,.54,0,.18,0,.35,0,.52v4.9c0,.13,0,.25.01.34s.02.18.04.24.05.12.08.17.07.09.11.12c.05.05.12.09.21.12s.2.05.33.07c.13.02.29.03.48.05.19.01.41.02.67.02v.56h-5.11v-.56c.25,0,.47-.02.64-.03.18-.01.33-.03.45-.05.12-.02.22-.04.3-.06.08-.02.14-.05.2-.09.06-.04.11-.08.15-.13.04-.05.08-.1.1-.17.03-.07.05-.15.06-.25.02-.1.02-.22.02-.37v-4.62c0-.17-.03-.29-.1-.35s-.16-.1-.28-.1c-.13,0-.33.07-.59.21-.26.14-.6.34-1.02.61-.06-.1-.11-.2-.15-.3-.05-.1-.1-.2-.15-.3.53-.29,1.06-.58,1.58-.87.52-.29,1.05-.58,1.59-.87h0Z"/>
  <path class="cls-6" d="M607.99,472.97h1.54c.08.41.12.81.12,1.21s-.07.79-.21,1.12-.36.68-.67,1.02-.73.71-1.27,1.11l-.47-.54c.3-.28.52-.53.65-.76s.23-.48.29-.77.09-.65.09-1.08-.02-.88-.06-1.32h0Z"/>
  <path class="cls-6" d="M621.85,466.42c.42,0,.73.11.91.33s.28.51.28.88c0,.28-.05.6-.15.97s-.24.75-.42,1.15-.4.82-.65,1.24-.53.84-.83,1.24-.63.78-.98,1.13-.7.66-1.08.93-.75.47-1.13.63-.77.23-1.15.23c-.17,0-.31-.04-.43-.13s-.21-.21-.28-.36-.12-.34-.15-.55-.04-.44-.04-.69c0-.33.02-.69.06-1.07s.09-.76.16-1.15l.37-2.43c.02-.14.04-.27.06-.4s.02-.22.02-.28c0-.18-.03-.33-.09-.45s-.16-.18-.3-.18c-.11,0-.23.03-.36.1s-.26.15-.39.26-.26.22-.38.34-.24.23-.34.34l-.42-.49c.18-.19.38-.37.58-.56s.42-.35.65-.5.47-.27.72-.36.51-.14.77-.14c.22,0,.4.04.54.11s.25.17.33.29.13.25.16.4.04.29.04.43c0,.08,0,.16,0,.24s-.01.15-.03.21l-.49,3.18c-.05.33-.1.66-.13.98s-.05.6-.05.85.01.45.04.6.08.23.17.23c.19,0,.44-.08.73-.23s.6-.37.92-.64.64-.59.97-.97.61-.77.87-1.21.47-.89.63-1.37.24-.96.24-1.45c0-.21-.05-.37-.14-.49s-.23-.17-.43-.17c-.25,0-.47.1-.68.29s-.42.44-.65.75l-.5-.45c.14-.21.31-.41.5-.61s.39-.36.61-.51.44-.26.66-.35.45-.13.67-.13h0Z"/>
  <path class="cls-6" d="M627.12,470.43h.39c0,.24-.02.45-.02.63,0,.19,0,.37,0,.54,0,.18,0,.35,0,.52v4.9c0,.13,0,.25.01.34s.02.18.04.24.05.12.08.17.07.09.11.12c.05.05.12.09.21.12s.2.05.33.07c.13.02.29.03.48.05.19.01.41.02.67.02v.56h-5.11v-.56c.25,0,.47-.02.64-.03.18-.01.33-.03.45-.05.12-.02.22-.04.3-.06.08-.02.14-.05.2-.09.06-.04.11-.08.15-.13.04-.05.08-.1.1-.17.03-.07.05-.15.06-.25.02-.1.02-.22.02-.37v-4.62c0-.17-.03-.29-.1-.35s-.16-.1-.28-.1c-.13,0-.33.07-.59.21-.26.14-.6.34-1.02.61-.06-.1-.11-.2-.15-.3-.05-.1-.1-.2-.15-.3.53-.29,1.06-.58,1.58-.87.52-.29,1.05-.58,1.59-.87h0Z"/>
  <path class="cls-6" d="M631.32,477.24h1.13c.06.3.09.6.09.89s-.05.58-.15.82c-.1.25-.27.5-.49.74s-.54.52-.93.82l-.35-.39c.22-.21.38-.39.48-.56s.17-.35.21-.56.06-.47.06-.79-.02-.65-.05-.97h0Z"/>
  <path class="cls-6" d="M636.94,470.39c.45,0,.83.05,1.14.15.32.1.57.24.77.41.2.17.34.38.43.62.09.24.13.5.13.78,0,.17-.01.32-.04.47s-.06.29-.12.43c-.06.14-.13.28-.23.42-.09.14-.21.29-.35.45-.11.14-.25.3-.42.48-.17.18-.36.37-.56.58-.2.21-.42.42-.64.64-.22.22-.44.44-.65.66-.21.22-.4.43-.58.64-.18.21-.32.4-.43.57h2.38c.2,0,.36,0,.48-.02.12-.02.22-.05.3-.1.08-.05.15-.13.2-.24.06-.11.12-.25.19-.44h.6c-.02.31-.04.61-.06.92-.02.31-.04.62-.06.92h-5.46v-.34c.1-.23.22-.46.36-.69s.29-.45.46-.69.37-.47.59-.72.46-.5.73-.77c.4-.4.73-.75.99-1.03.25-.29.45-.54.6-.76.15-.22.25-.43.3-.62s.08-.39.08-.61-.03-.42-.09-.61c-.06-.18-.15-.34-.27-.47s-.26-.23-.44-.3c-.18-.07-.38-.11-.62-.11-.4,0-.73.11-1.01.33-.27.22-.48.53-.63.94h-.84v-1.26c.55-.23,1.06-.39,1.52-.5s.88-.15,1.25-.15h0Z"/>
  <path class="cls-6" d="M642.67,472.97h1.54c.08.41.12.81.12,1.21s-.07.79-.21,1.12-.36.68-.67,1.02-.73.71-1.27,1.11l-.47-.54c.3-.28.52-.53.65-.76s.23-.48.29-.77.09-.65.09-1.08-.02-.88-.06-1.32h0Z"/>
  <path class="cls-6" d="M661.13,468.74c.3,0,.56.11.76.32s.31.48.31.81-.1.6-.31.81-.46.32-.76.32-.56-.11-.76-.32-.31-.48-.31-.81.1-.6.31-.81.46-.32.76-.32h0ZM655.8,468.74c.3,0,.56.11.76.32s.31.48.31.81-.1.6-.31.81-.46.32-.76.32-.56-.11-.76-.32-.31-.48-.31-.81.1-.6.31-.81.46-.32.76-.32h0ZM650.47,468.74c.3,0,.56.11.76.32s.31.48.31.81-.1.6-.31.81-.46.32-.76.32-.56-.11-.76-.32-.31-.48-.31-.81.1-.6.31-.81.46-.32.76-.32h0Z"/>
  <path class="cls-6" d="M667.75,472.97h1.54c.08.41.12.81.12,1.21s-.07.79-.21,1.12-.36.68-.67,1.02-.73.71-1.27,1.11l-.47-.54c.3-.28.52-.53.65-.76s.23-.48.29-.77.09-.65.09-1.08-.02-.88-.06-1.32h0Z"/>
  <path class="cls-6" d="M681.61,466.42c.42,0,.73.11.91.33s.28.51.28.88c0,.28-.05.6-.15.97s-.24.75-.42,1.15-.4.82-.65,1.24-.53.84-.83,1.24-.63.78-.98,1.13-.7.66-1.08.93-.75.47-1.13.63-.77.23-1.15.23c-.17,0-.31-.04-.43-.13s-.21-.21-.28-.36-.12-.34-.15-.55-.04-.44-.04-.69c0-.33.02-.69.06-1.07s.09-.76.16-1.15l.37-2.43c.02-.14.04-.27.06-.4s.02-.22.02-.28c0-.18-.03-.33-.09-.45s-.16-.18-.3-.18c-.11,0-.23.03-.36.1s-.26.15-.39.26-.26.22-.38.34-.24.23-.34.34l-.42-.49c.18-.19.38-.37.58-.56s.42-.35.65-.5.47-.27.72-.36.51-.14.77-.14c.22,0,.4.04.54.11s.25.17.33.29.13.25.16.4.04.29.04.43c0,.08,0,.16,0,.24s-.01.15-.03.21l-.49,3.18c-.05.33-.1.66-.13.98s-.05.6-.05.85.01.45.04.6.08.23.17.23c.19,0,.44-.08.73-.23s.6-.37.92-.64.64-.59.97-.97.61-.77.87-1.21.47-.89.63-1.37.24-.96.24-1.45c0-.21-.05-.37-.14-.49s-.23-.17-.43-.17c-.25,0-.47.1-.68.29s-.42.44-.65.75l-.5-.45c.14-.21.31-.41.5-.61s.39-.36.61-.51.44-.26.66-.35.45-.13.67-.13h0Z"/>
  <path class="cls-6" d="M686.88,470.43h.39c0,.24-.02.45-.02.63,0,.19,0,.37,0,.54,0,.18,0,.35,0,.52v4.9c0,.13,0,.25.01.34s.02.18.04.24.05.12.08.17.07.09.11.12c.05.05.12.09.21.12s.2.05.33.07c.13.02.29.03.48.05.19.01.41.02.67.02v.56h-5.11v-.56c.25,0,.47-.02.64-.03.18-.01.33-.03.45-.05.12-.02.22-.04.3-.06.08-.02.14-.05.2-.09.06-.04.11-.08.15-.13.04-.05.08-.1.1-.17.03-.07.05-.15.06-.25.02-.1.02-.22.02-.37v-4.62c0-.17-.03-.29-.1-.35s-.16-.1-.28-.1c-.13,0-.33.07-.59.21-.26.14-.6.34-1.02.61-.06-.1-.11-.2-.15-.3-.05-.1-.1-.2-.15-.3.53-.29,1.06-.58,1.58-.87.52-.29,1.05-.58,1.59-.87h0Z"/>
  <path class="cls-6" d="M691.08,477.24h1.13c.06.3.09.6.09.89s-.05.58-.15.82c-.1.25-.27.5-.49.74s-.54.52-.93.82l-.35-.39c.22-.21.38-.39.48-.56s.17-.35.21-.56.06-.47.06-.79-.02-.65-.05-.97h0Z"/>
  <path class="cls-6" d="M697.66,471.04c-.15,0-.28,0-.4,0-.11,0-.22.01-.31.02l-1.57,6.98s.06,0,.12,0c.06,0,.13,0,.2,0,.07,0,.15,0,.22,0,.08,0,.14,0,.18,0,.7,0,1.3-.11,1.79-.33.49-.22.91-.56,1.25-1.02.35-.48.6-.98.77-1.5.16-.52.24-1.09.24-1.7,0-.4-.05-.75-.16-1.06-.11-.31-.27-.57-.48-.78-.21-.21-.47-.37-.79-.48s-.67-.16-1.07-.16h0ZM694.99,470.37h2.55c.42,0,.78.02,1.09.06.31.04.57.1.8.17.31.09.58.21.84.37.25.16.47.37.66.61s.33.53.43.85c.1.32.15.69.15,1.09,0,.77-.12,1.47-.35,2.11s-.58,1.18-1.04,1.64c-.46.46-1.02.81-1.68,1.07-.67.26-1.43.38-2.29.38h-2.74l.07-.39c.13-.02.24-.05.33-.07s.16-.09.23-.18c.07-.09.13-.23.18-.42.06-.18.12-.45.19-.79l1.06-4.7c.04-.19.08-.36.1-.5s.03-.27.03-.37c0-.19-.05-.32-.15-.4-.1-.08-.28-.12-.54-.13l.1-.41Z"/>
  <polygon class="cls-6" points="703.67 462.28 707.59 462.28 707.59 479.04 703.67 479.04 703.67 478.36 706.13 478.36 706.13 462.95 703.67 462.95 703.67 462.28 703.67 462.28"/>
</svg>