<?xml version="1.0" encoding="UTF-8"?>
<svg id="_图层_1" data-name="图层 1" xmlns="http://www.w3.org/2000/svg" viewBox="0 0 625.45 442.46">
  <defs>
    <style>
      .cls-1 {
        fill: #dbe8f5;
      }

      .cls-1, .cls-2, .cls-3, .cls-4, .cls-5, .cls-6, .cls-7, .cls-8, .cls-9, .cls-10, .cls-11, .cls-12, .cls-13, .cls-14 {
        stroke-miterlimit: 8;
      }

      .cls-1, .cls-2, .cls-4, .cls-5, .cls-6, .cls-8, .cls-9, .cls-10, .cls-11, .cls-12, .cls-14 {
        stroke-width: .67px;
      }

      .cls-1, .cls-13 {
        stroke: #165d7e;
      }

      .cls-2 {
        fill: #c0e0c1;
      }

      .cls-2, .cls-9, .cls-10 {
        stroke: #1e6935;
      }

      .cls-3 {
        stroke: #022332;
      }

      .cls-3, .cls-7 {
        stroke-width: 1.5px;
      }

      .cls-3, .cls-7, .cls-13 {
        fill: none;
      }

      .cls-15, .cls-16 {
        fill: #040000;
      }

      .cls-4 {
        fill: #d29bc4;
      }

      .cls-4, .cls-6, .cls-12 {
        stroke: #952d8a;
      }

      .cls-17 {
        fill: #eff0bf;
      }

      .cls-18 {
        fill: #b0d79d;
      }

      .cls-5 {
        fill: #f1c3ab;
      }

      .cls-5, .cls-8, .cls-11 {
        stroke: #de6f35;
      }

      .cls-16, .cls-19 {
        fill-rule: evenodd;
      }

      .cls-20 {
        isolation: isolate;
      }

      .cls-21 {
        fill: #165d7e;
      }

      .cls-6 {
        fill: #bb70ab;
      }

      .cls-7 {
        stroke: #145d7d;
      }

      .cls-8 {
        fill: #eba682;
      }

      .cls-9 {
        fill: #5fb85b;
      }

      .cls-10 {
        fill: #89c78a;
      }

      .cls-11 {
        fill: #f9e1d5;
      }

      .cls-12 {
        fill: #ebcde2;
      }

      .cls-22 {
        fill: #c1bddd;
      }

      .cls-19 {
        fill: #145d7d;
      }

      .cls-23 {
        fill: #f5c7db;
      }

      .cls-13 {
        stroke-width: 2px;
      }

      .cls-14 {
        fill: #c8e8f4;
        stroke: #1d95c7;
      }
    </style>
  </defs>
  <rect class="cls-22" x="14.54" y="344.05" width="101.28" height="36" rx="8.25" ry="8.25"/>
  <rect class="cls-3" x="14.54" y="344.05" width="101.28" height="36" rx="8.25" ry="8.25"/>
  <g>
    <path class="cls-15" d="M31.55,362.09h2c.01-.45.02-.97.04-1.56v-2.29h-1.13c-.31.71-.7,1.49-1.17,2.36-.5-.18-.97-.3-1.41-.36,1.42-1.58,2.33-3.63,2.72-6.15l1.31.38c.16.05.24.1.24.16,0,.08-.08.16-.25.25-.22.12-.37.32-.45.62-.19.62-.41,1.24-.65,1.85h2.54c.47.02.99-.02,1.56-.11v1.12c-.54-.07-1.06-.11-1.56-.11h-.76c-.01.48-.02,1.15-.04,2-.01.79-.02,1.41-.02,1.85h1.36c.43.01.96-.02,1.57-.11v1.12c-.59-.07-1.12-.11-1.57-.11h-1.42c-.04.52-.1.99-.17,1.43,1.04,1.01,2.14,2.13,3.28,3.37l-.92,1.01c-.59-1.02-1.46-2.1-2.63-3.24-.54,1.73-1.57,3.4-3.09,5.03-.35-.34-.79-.63-1.34-.87,2.19-1.17,3.49-3.41,3.9-6.72h-1.94c-.45,0-.99.04-1.64.11v-1.12c.69.07,1.23.11,1.64.11ZM39.19,356.53v3.26h4.12c.46,0,1.02-.04,1.68-.11-.08.68-.11,1.25-.11,1.71v2.3c0,.47.04,1,.11,1.61-.59-.08-1.13-.11-1.61-.11h-4.19v3.76h5.56c.49,0,1.01-.04,1.55-.11v1.12c-.52-.07-1.03-.11-1.53-.11h-4.9c-.47,0-1.07.04-1.8.11.08-.64.11-1.19.11-1.63v-11.04c0-.44-.04-1.03-.11-1.76.69.07,1.28.11,1.78.11h4.3c.41.01.93-.02,1.56-.11v1.12c-.53-.08-1.04-.11-1.53-.11h-4.99ZM39.19,360.65v3.67h4.68v-3.67h-4.68Z"/>
    <path class="cls-15" d="M48.77,355.18c.63.06,1.17.09,1.62.11h1.84c.45-.01.97-.05,1.56-.11-.63,2.17-1.25,4.04-1.84,5.62.7.74,1.18,1.58,1.44,2.51.13.47.19.91.19,1.31s-.07.81-.21,1.16c-.35.76-1.14,1.19-2.39,1.31-.11-.38-.34-.85-.69-1.4.28.04.53.05.76.05.74,0,1.21-.19,1.39-.58.05-.25.07-.49.07-.72,0-1.17-.54-2.29-1.61-3.38.42-.98.91-2.62,1.48-4.91h-2.5v13.12c.01.46.05.97.11,1.55h-1.22c.06-.59.09-1.1.11-1.53v-12.58c-.01-.42-.05-.93-.11-1.53ZM58.58,365.98v-3.31h-2.5c-.6-.01-1.07.06-1.42.23l-.45-.95c.41-.29.71-.65.91-1.08.59-1.21,1.07-2.35,1.46-3.4h-1.21c-.39.01-.87.05-1.44.11v-1.08c.58.06,1.06.1,1.44.11h1.49c.32-.89.56-1.78.72-2.65l1.34.49c.12.05.18.11.19.18,0,.06-.06.12-.18.18-.3.09-.55.44-.76,1.04-.02.06-.05.16-.09.27-.09.24-.15.4-.18.49h4.05c.47-.02.96-.06,1.48-.11v1.08c-.56-.06-1.05-.09-1.48-.11h-4.31c-.63,1.56-1.26,3-1.87,4.33h2.81v-1.29c-.01-.45-.05-.96-.11-1.55l1.31.18c.1.01.15.06.15.13.01.07-.03.14-.13.21-.16.12-.25.52-.25,1.2v1.12h2.07c.42-.01.88-.05,1.39-.11v1.08c-.53-.06-.99-.09-1.39-.11h-2.07v3.31h2.89c.45-.02.93-.06,1.44-.11v1.08c-.49-.06-.97-.09-1.42-.11h-2.91v2.34c.01.41.05.93.11,1.56h-1.19c.06-.6.09-1.12.11-1.56v-2.34h-3.31c-.41.01-.89.05-1.44.11v-1.08c.58.06,1.06.1,1.44.11h3.31Z"/>
    <path class="cls-15" d="M65.75,368.82c2.43-.71,4.92-2.53,7.47-5.45.21-.25.33-.46.36-.62.05-.13.07-.38.07-.74v-3.13h-5.53c-.49,0-1.07.04-1.74.11v-1.12c.63.07,1.21.11,1.74.11h5.53v-1.87c-1.81.1-3.44.17-4.88.22-.13-.4-.35-.84-.67-1.32.69.1,1.54.16,2.58.17,1.04.01,2.15-.03,3.31-.11,2.41-.18,4.18-.46,5.29-.84l.81,1.15c.09.12.13.2.11.24-.02.01-.04.02-.06.02-.03,0-.09-.01-.18-.04-.05-.02-.13-.03-.24-.03-.13,0-.34.01-.64.04-1.85.19-3.33.33-4.43.41v1.96h5.62c.56,0,1.11-.04,1.65-.11v1.12c-.6-.07-1.15-.11-1.65-.11h-5.62v3.13c-.04.55.09.98.38,1.27,2.3,2.72,4.78,4.36,7.44,4.9-.49.4-.9.8-1.21,1.21-2.11-.81-4.31-2.47-6.6-4.97v4.43c0,.54.04,1.13.11,1.78h-1.22c.07-.65.11-1.25.11-1.78v-4.33c-2.06,2.22-4.31,4.03-6.75,5.41-.32-.42-.71-.79-1.15-1.12ZM67.38,361.82v-1.12c.52.08,1.01.11,1.49.11h1.95c0-.47-.04-.99-.11-1.56l1.39.18c.15.01.22.04.22.07.01.04-.04.11-.17.22-.22.19-.33.56-.33,1.1v2.58c0,.46.04.89.11,1.29h-1.23c.08-.29.11-.6.11-.93-1.24.29-2.35.6-3.35.95l-.6-1.22c.42.04,1.74-.16,3.95-.58v-1.19h-1.95c-.47,0-.97.04-1.49.11ZM80,359.99l.69,1.05s.04.07.04.1c0,.02,0,.04-.02.05-.02.02-.07.03-.14.02-.05-.02-.1-.03-.16-.03-.11,0-.24.03-.4.08-.76.24-1.63.5-2.61.77v.83s0,.1,0,.17c0,.36.18.53.53.52.16.01.37.02.61.02.46,0,.9-.04,1.31-.11.32.02.56-.45.71-1.42.28.32.61.57.98.76-.36,1.13-.87,1.7-1.53,1.7-.12.02-.46.04-1.03.05-.39,0-.71,0-.97,0s-.45,0-.56,0c-.47-.05-.76-.15-.86-.29-.13-.13-.2-.43-.18-.9v-2.18c0-.5-.04-1.09-.11-1.75l1.39.18c.13.01.19.04.19.09.01.05-.05.12-.18.21-.21.12-.3.54-.29,1.27v.09c.95-.38,1.82-.8,2.61-1.27Z"/>
    <path class="cls-15" d="M84.09,360.24l.7-.88c.87.59,1.83,1.3,2.87,2.14l-.69.9c-.83-.76-1.79-1.48-2.88-2.16ZM84.18,369.72c1.35-1.71,2.5-3.69,3.47-5.93.21.33.47.66.8.98-1.67,2.84-2.71,4.8-3.12,5.89l-1.15-.94ZM85.28,355.94l.79-.87c1.07.79,2.03,1.56,2.88,2.33l-.76.91c-.87-.84-1.84-1.63-2.92-2.37ZM89.94,362.02h3.42v-3.47h-2.36c-.44,0-.96.04-1.55.11v-1.12c.6.07,1.12.11,1.55.11h2.36v-1.58c0-.48-.04-1.08-.11-1.8l1.44.22c.15.01.22.05.22.12,0,.06-.07.14-.2.25-.23.18-.34.58-.34,1.2v1.58h2.87c.5,0,1.01-.04,1.51-.11v1.12c-.52-.07-1.02-.11-1.51-.11h-2.87v3.47h4.1c.5,0,1-.04,1.48-.11v1.12c-.46-.08-.95-.11-1.48-.11h-5.05l1.05.65c.09.06.13.11.12.14,0,.04-.07.08-.2.11-.19.04-.41.25-.66.64-.94,1.38-1.94,2.8-3.01,4.25,2.05-.07,4.2-.18,6.44-.34-.65-.97-1.38-1.98-2.2-3.02l.98-.63c1.07,1.48,2.21,3.13,3.44,4.97l-.98.7c-.19-.39-.44-.79-.74-1.2-3.78.18-6.55.45-8.31.81l-.56-1.24c.4-.02.73-.18.99-.47,1.69-2.06,2.83-3.85,3.42-5.37h-3.25c-.48,0-.97.04-1.48.11v-1.12c.59.07,1.08.11,1.48.11Z"/>
  </g>
  <rect class="cls-17" x="22.34" y="288.73" width="85.56" height="36" rx="8.25" ry="8.25"/>
  <rect class="cls-3" x="22.34" y="288.73" width="85.56" height="36" rx="8.25" ry="8.25"/>
  <g>
    <path class="cls-15" d="M50.8,307.21v-3.95h-1.51c-.38,0-.86.04-1.46.11v-1.12c.6.08,1.08.11,1.46.11h1.51v-2c-.01-.36-.05-.94-.11-1.76l1.36.18c.17.02.26.06.27.12.02.05-.02.13-.14.24-.28.21-.4.6-.38,1.19v2.04h.91c.28,0,.77-.04,1.48-.11v1.12c-.66-.07-1.15-.11-1.48-.11h-.91v3.57c1.14-.48,2.11-.94,2.91-1.39-.06.38-.11.85-.14,1.41-.11.04-.25.09-.45.18-1.29.5-2.07.81-2.32.92v5.45s0,.11,0,.2c0,.89-.83,1.38-2.5,1.48-.09-.49-.28-.95-.55-1.37.38.07.72.11,1.01.11.78,0,1.15.04,1.1.14s-.07-.17-.07-.79c0-.06,0-.12-.02-.18v-4.62c-.89.42-1.69.82-2.41,1.22l-.8-1.3c.84-.15,1.91-.5,3.21-1.05ZM60.01,313.24v-11.61h-3.82c-.44.01-.93.05-1.48.11v-1.12c.56.06,1.05.09,1.48.11h6.73c.4-.01.88-.05,1.46-.11v1.12c-.66-.07-1.14-.11-1.46-.11h-1.87v11.55c.02.79-.14,1.28-.5,1.49-.3.24-1.09.4-2.37.47-.13-.59-.34-1.07-.62-1.42.67.12,1.18.18,1.54.18.16,0,.29-.01.39-.04.36-.07.54-.28.53-.62Z"/>
    <path class="cls-15" d="M65.56,306.72c2.74-1.54,4.62-4.03,5.65-7.49l1.21.47c.18.06.26.11.25.16.01.05-.07.13-.25.24-.25.12-.48.42-.69.91-1.24,2.68-2.91,4.85-5.01,6.51-.35-.32-.74-.59-1.17-.81ZM66.95,314.14c3.31-1.11,4.98-3.71,5.02-7.8h-1.19c-.46,0-.96.04-1.49.11v-1.12c.5.07,1,.11,1.49.11h5.89c.66,0,1.27-.04,1.84-.11-.08.59-.13,1.14-.15,1.67l-.16,3.31c-.06,1.89-.31,3.05-.76,3.47-.37.52-1.36.82-2.97.91-.16-.46-.38-.92-.65-1.39.44.04.85.06,1.23.06.78,0,1.27-.11,1.48-.32.38-.23.58-1.05.61-2.46l.18-4.25h-4.19c-.13,4.2-1.83,7.14-5.1,8.82-.3-.36-.66-.71-1.08-1.03ZM76.07,298.68c.9,3.39,2.99,5.95,6.27,7.68-.41.21-.84.51-1.29.91-2.82-2.04-4.86-4.85-6.11-8.43l1.13-.16Z"/>
  </g>
  <rect class="cls-18" x="22.34" y="179.53" width="85.56" height="36" rx="8.25" ry="8.25"/>
  <rect class="cls-3" x="22.34" y="179.53" width="85.56" height="36" rx="8.25" ry="8.25"/>
  <g>
    <path class="cls-15" d="M42.25,200.86c0,1.12-.34,1.98-1.01,2.6s-1.63.92-2.86.92c-2.23,0-3.54-1.02-3.94-3.05l1.1-.23c.17.81.49,1.4.96,1.77s1.1.54,1.88.54c.88,0,1.56-.21,2.03-.64s.7-1.04.7-1.84c0-.46-.08-.83-.24-1.12s-.38-.53-.66-.72-.6-.35-.97-.47-.77-.25-1.2-.39c-.9-.28-1.56-.56-1.96-.84s-.72-.64-.95-1.05-.33-.94-.33-1.55c0-1,.31-1.78.92-2.33s1.47-.83,2.57-.83c1.04,0,1.86.21,2.47.65s1.02,1.1,1.25,2.01l-1.1.27c-.16-.68-.46-1.18-.89-1.5s-1.01-.48-1.74-.48-1.33.18-1.74.55-.61.91-.61,1.61c0,.44.08.8.24,1.09s.4.54.73.74.91.44,1.75.7c.97.31,1.65.57,2.03.79s.68.45.9.71.39.56.51.9.17.73.17,1.18Z"/>
    <path class="cls-15" d="M52.45,199.72c0,1.45-.38,2.59-1.14,3.42s-1.82,1.24-3.2,1.24-2.36-.42-3.11-1.25-1.13-1.97-1.13-3.41.38-2.6,1.13-3.42,1.81-1.23,3.16-1.23,2.46.4,3.19,1.19,1.09,1.94,1.09,3.45ZM51.28,199.72c0-1.23-.26-2.16-.77-2.78s-1.28-.94-2.3-.94-1.82.32-2.36.96-.8,1.56-.8,2.76.27,2.1.8,2.75,1.28.98,2.26.98c1.05,0,1.85-.32,2.38-.95s.8-1.56.8-2.79Z"/>
    <path class="cls-15" d="M56.39,196.18v8.02h-1.12v-8.02h-1.53v-.92h1.53v-1.02c0-.96.2-1.66.6-2.12s1.01-.69,1.82-.69c.44,0,.78.03,1.03.1v.88c-.33-.05-.65-.08-.96-.08-.49,0-.84.17-1.05.5s-.33.86-.33,1.58v.84h1.93v.92h-1.93Z"/>
    <path class="cls-15" d="M62.31,204.35c-.65,0-1.14-.17-1.48-.52s-.5-.86-.5-1.53v-6.12h-1.32v-.92h1.34l.3-2.07h.81v2.07h2.38v.92h-2.38v5.92c0,.42.08.75.25.98s.47.35.91.35c.38,0,.82-.05,1.32-.16v.87c-.51.13-1.05.2-1.63.2Z"/>
    <path class="cls-15" d="M77.04,204.2v-5.24c0-1.07-.16-1.83-.48-2.28s-.85-.68-1.59-.68-1.35.29-1.78.87-.65,1.31-.65,2.2v5.13h-1.11v-5.24c0-1.05-.16-1.8-.48-2.27s-.84-.69-1.56-.69-1.31.29-1.77.87-.69,1.35-.69,2.29v5.04h-1.12v-6.95c0-.55-.02-1.22-.06-2h1c.05.58.08,1.15.11,1.71h.04c.29-.64.66-1.11,1.11-1.42s1.02-.46,1.71-.46c.75,0,1.34.18,1.78.54s.71.85.84,1.46h.04c.57-1.33,1.55-2,2.94-2,.96,0,1.67.29,2.14.86s.7,1.49.7,2.75v5.51h-1.12Z"/>
    <path class="cls-15" d="M87.15,204.2h-1.06l-.05-1.59h-.04c-.6,1.18-1.54,1.77-2.81,1.77-.93,0-1.65-.23-2.16-.69s-.76-1.1-.76-1.91c0-.93.35-1.63,1.05-2.12s1.78-.75,3.24-.79l1.47-.04v-.36c0-.84-.17-1.47-.5-1.87s-.86-.6-1.57-.6c-.65,0-1.14.1-1.47.31s-.56.56-.68,1.05l-1.05-.22c.19-.76.54-1.29,1.07-1.6s1.24-.47,2.16-.47c1.12,0,1.93.28,2.43.83s.75,1.44.75,2.65v5.63ZM83.37,203.46c.52,0,.97-.12,1.38-.37s.72-.58.94-1,.34-.87.34-1.34v-1.08l-1.28.04c-1.2.03-2.05.21-2.55.54s-.76.84-.76,1.51c0,1.13.64,1.7,1.93,1.7Z"/>
    <path class="cls-15" d="M95.06,204.2l-2.61-3.86-2.62,3.86h-1.2l3.17-4.59-3.02-4.36h1.23l2.43,3.64,2.43-3.64h1.24l-3.01,4.34,3.21,4.61h-1.25Z"/>
  </g>
  <path class="cls-15" d="M46.03,416.34c0,1.8-.45,3.26-1.34,4.4-.89,1.13-2.1,1.78-3.64,1.95.25.79.57,1.36.96,1.73s.9.55,1.52.55c.3,0,.63-.04.98-.11v.9c-.38.11-.8.16-1.26.16-.85,0-1.54-.24-2.08-.72-.54-.48-.98-1.3-1.34-2.44-1.14-.03-2.12-.31-2.95-.84-.83-.53-1.47-1.27-1.91-2.23s-.66-2.07-.66-3.34c0-1.97.52-3.51,1.55-4.64s2.47-1.68,4.31-1.68c1.2,0,2.24.25,3.12.76s1.55,1.24,2.02,2.2.7,2.08.7,3.37ZM44.82,416.34c0-1.65-.41-2.94-1.22-3.89s-1.95-1.42-3.41-1.42-2.62.47-3.44,1.4-1.22,2.24-1.22,3.92.42,2.99,1.24,3.97c.83.98,1.96,1.46,3.4,1.46s2.64-.48,3.44-1.43,1.21-2.29,1.21-4Z"/>
  <rect class="cls-22" x="42.62" y="116.65" width="130.68" height="36" rx="8.25" ry="8.25"/>
  <rect class="cls-3" x="42.62" y="116.65" width="130.68" height="36" rx="8.25" ry="8.25"/>
  <g>
    <path class="cls-15" d="M74.46,134.69h2c.01-.45.02-.97.04-1.56v-2.29h-1.13c-.31.71-.7,1.49-1.17,2.36-.5-.18-.97-.3-1.41-.36,1.42-1.58,2.33-3.63,2.72-6.15l1.31.38c.16.05.24.1.24.16,0,.08-.08.16-.25.25-.22.12-.37.32-.45.62-.19.62-.41,1.24-.65,1.85h2.54c.47.02.99-.02,1.56-.11v1.12c-.54-.07-1.06-.11-1.56-.11h-.76c-.01.48-.02,1.15-.04,2-.01.79-.02,1.41-.02,1.85h1.36c.43.01.96-.02,1.57-.11v1.12c-.59-.07-1.12-.11-1.57-.11h-1.42c-.04.52-.1.99-.17,1.43,1.04,1.01,2.14,2.13,3.28,3.37l-.92,1.01c-.59-1.02-1.46-2.1-2.63-3.24-.54,1.73-1.57,3.4-3.09,5.03-.35-.34-.79-.63-1.34-.87,2.19-1.17,3.49-3.41,3.9-6.72h-1.94c-.45,0-.99.04-1.64.11v-1.12c.69.07,1.23.11,1.64.11ZM82.11,129.13v3.26h4.12c.46,0,1.02-.04,1.68-.11-.08.68-.11,1.25-.11,1.71v2.3c0,.47.04,1,.11,1.61-.59-.08-1.13-.11-1.61-.11h-4.19v3.76h5.56c.49,0,1.01-.04,1.55-.11v1.12c-.52-.07-1.03-.11-1.53-.11h-4.9c-.47,0-1.07.04-1.8.11.08-.64.11-1.19.11-1.63v-11.04c0-.44-.04-1.03-.11-1.76.69.07,1.28.11,1.78.11h4.3c.41.01.93-.02,1.56-.11v1.12c-.53-.08-1.04-.11-1.53-.11h-4.99ZM82.11,133.25v3.67h4.68v-3.67h-4.68Z"/>
    <path class="cls-15" d="M91.69,127.78c.63.06,1.17.09,1.62.11h1.84c.45-.01.97-.05,1.56-.11-.63,2.17-1.25,4.04-1.84,5.62.7.74,1.18,1.58,1.44,2.51.13.47.19.91.19,1.31s-.07.81-.21,1.16c-.35.76-1.14,1.19-2.39,1.31-.11-.38-.34-.85-.69-1.4.28.04.53.05.76.05.74,0,1.21-.19,1.39-.58.05-.25.07-.49.07-.72,0-1.17-.54-2.29-1.61-3.38.42-.98.91-2.62,1.48-4.91h-2.5v13.12c.01.46.05.97.11,1.55h-1.22c.06-.59.09-1.1.11-1.53v-12.58c-.01-.42-.05-.93-.11-1.53ZM101.5,138.59v-3.31h-2.5c-.6-.01-1.07.06-1.42.23l-.45-.95c.41-.29.71-.65.91-1.08.59-1.21,1.07-2.35,1.46-3.4h-1.21c-.39.01-.87.05-1.44.11v-1.08c.58.06,1.06.1,1.44.11h1.49c.32-.89.56-1.78.72-2.65l1.34.49c.12.05.18.11.19.18,0,.06-.06.12-.18.18-.3.09-.55.44-.76,1.04-.02.06-.05.16-.09.27-.09.24-.15.4-.18.49h4.05c.47-.02.96-.06,1.48-.11v1.08c-.56-.06-1.05-.09-1.48-.11h-4.31c-.63,1.56-1.26,3-1.87,4.33h2.81v-1.29c-.01-.45-.05-.96-.11-1.55l1.31.18c.1.01.15.06.15.13.01.07-.03.14-.13.21-.16.12-.25.52-.25,1.2v1.12h2.07c.42-.01.88-.05,1.39-.11v1.08c-.53-.06-.99-.09-1.39-.11h-2.07v3.31h2.89c.45-.02.93-.06,1.44-.11v1.08c-.49-.06-.97-.09-1.42-.11h-2.91v2.34c.01.41.05.93.11,1.56h-1.19c.06-.6.09-1.12.11-1.56v-2.34h-3.31c-.41.01-.89.05-1.44.11v-1.08c.58.06,1.06.1,1.44.11h3.31Z"/>
    <path class="cls-15" d="M108.66,141.43c2.43-.71,4.92-2.53,7.47-5.45.21-.25.33-.46.36-.62.05-.13.07-.38.07-.74v-3.13h-5.53c-.49,0-1.07.04-1.74.11v-1.12c.63.07,1.21.11,1.74.11h5.53v-1.87c-1.81.1-3.44.17-4.88.22-.13-.4-.35-.84-.67-1.32.69.1,1.54.16,2.58.17,1.04.01,2.15-.03,3.31-.11,2.41-.18,4.18-.46,5.29-.84l.81,1.15c.09.12.13.2.11.24-.02.01-.04.02-.06.02-.03,0-.09-.01-.18-.04-.05-.02-.13-.03-.24-.03-.13,0-.34.01-.64.04-1.85.19-3.33.33-4.43.41v1.96h5.62c.56,0,1.11-.04,1.65-.11v1.12c-.6-.07-1.15-.11-1.65-.11h-5.62v3.13c-.04.55.09.98.38,1.27,2.3,2.72,4.78,4.36,7.44,4.9-.49.4-.9.8-1.21,1.21-2.11-.81-4.31-2.47-6.6-4.97v4.43c0,.54.04,1.13.11,1.78h-1.22c.07-.65.11-1.25.11-1.78v-4.33c-2.06,2.22-4.31,4.03-6.75,5.41-.32-.42-.71-.79-1.15-1.12ZM110.3,134.42v-1.12c.52.08,1.01.11,1.49.11h1.95c0-.47-.04-.99-.11-1.56l1.39.18c.15.01.22.04.22.07.01.04-.04.11-.17.22-.22.19-.33.56-.33,1.1v2.58c0,.46.04.89.11,1.29h-1.23c.08-.29.11-.6.11-.93-1.24.29-2.35.6-3.35.95l-.6-1.22c.42.04,1.74-.16,3.95-.58v-1.19h-1.95c-.47,0-.97.04-1.49.11ZM122.92,132.59l.69,1.05s.04.07.04.1c0,.02,0,.04-.02.05-.02.02-.07.03-.14.02-.05-.02-.1-.03-.16-.03-.11,0-.24.03-.4.08-.76.24-1.63.5-2.61.77v.83s0,.1,0,.17c0,.36.18.53.53.52.16.01.37.02.61.02.46,0,.9-.04,1.31-.11.32.02.56-.45.71-1.42.28.32.61.57.98.76-.36,1.13-.87,1.7-1.53,1.7-.12.02-.46.04-1.03.05-.39,0-.71,0-.97,0s-.45,0-.56,0c-.47-.05-.76-.15-.86-.29-.13-.13-.2-.43-.18-.9v-2.18c0-.5-.04-1.09-.11-1.75l1.39.18c.13.01.19.04.19.09.01.05-.05.12-.18.21-.21.12-.3.54-.29,1.27v.09c.95-.38,1.82-.8,2.61-1.27Z"/>
    <path class="cls-15" d="M127,132.84l.7-.88c.87.59,1.83,1.3,2.87,2.14l-.69.9c-.83-.76-1.79-1.48-2.88-2.16ZM127.09,142.32c1.35-1.71,2.5-3.69,3.47-5.93.21.33.47.66.8.98-1.67,2.84-2.71,4.8-3.12,5.89l-1.15-.94ZM128.19,128.54l.79-.87c1.07.79,2.03,1.56,2.88,2.33l-.76.91c-.87-.84-1.84-1.63-2.92-2.37ZM132.86,134.62h3.42v-3.47h-2.36c-.44,0-.96.04-1.55.11v-1.12c.6.07,1.12.11,1.55.11h2.36v-1.58c0-.48-.04-1.08-.11-1.8l1.44.22c.15.01.22.05.22.12,0,.06-.07.14-.2.25-.23.18-.34.58-.34,1.2v1.58h2.87c.5,0,1.01-.04,1.51-.11v1.12c-.52-.07-1.02-.11-1.51-.11h-2.87v3.47h4.1c.5,0,1-.04,1.48-.11v1.12c-.46-.08-.95-.11-1.48-.11h-5.05l1.05.65c.09.06.13.11.12.14,0,.04-.07.08-.2.11-.19.04-.41.25-.66.64-.94,1.38-1.94,2.8-3.01,4.25,2.05-.07,4.2-.18,6.44-.34-.65-.97-1.38-1.98-2.2-3.02l.98-.63c1.07,1.48,2.21,3.13,3.44,4.97l-.98.7c-.19-.39-.44-.79-.74-1.2-3.78.18-6.55.45-8.31.81l-.56-1.24c.4-.02.73-.18.99-.47,1.69-2.06,2.83-3.85,3.42-5.37h-3.25c-.48,0-.97.04-1.48.11v-1.12c.59.07,1.08.11,1.48.11Z"/>
  </g>
  <path class="cls-15" d="M89.88,422.59l-4.41-6.19-1.27,1.26v4.93h-1.18v-12.38h1.18v6.21l5.38-6.21h1.47l-4.75,5.38,5.05,7h-1.48Z"/>
  <path class="cls-15" d="M147.97,422.59h-1.35l-4.65-12.38h1.27l3.41,9.4c.32.9.53,1.58.65,2.02.1-.33.2-.67.3-1s.21-.67.33-1l3.41-9.41h1.27l-4.64,12.38Z"/>
  <line class="cls-7" x1="65.18" y1="234.94" x2="65.18" y2="220.53"/>
  <polygon class="cls-19" points="68.18 221.53 65.18 215.53 62.18 221.53 68.18 221.53 68.18 221.53"/>
  <line class="cls-7" x1="65.18" y1="288.69" x2="65.18" y2="275.97"/>
  <polygon class="cls-19" points="68.18 276.97 65.18 270.97 62.18 276.97 68.18 276.97 68.18 276.97"/>
  <line class="cls-7" x1="65.18" y1="344.14" x2="65.18" y2="329.73"/>
  <polygon class="cls-19" points="62.18 330.73 65.18 324.73 68.18 330.73 62.18 330.73 62.18 330.73"/>
  <line class="cls-7" x1="65.18" y1="179.51" x2="65.18" y2="157.65"/>
  <polygon class="cls-19" points="62.18 158.65 65.18 152.65 68.18 158.65 62.18 158.65 62.18 158.65"/>
  <line class="cls-7" x1="40.34" y1="406.91" x2="40.34" y2="385.05"/>
  <polygon class="cls-19" points="37.34 386.05 40.34 380.05 43.34 386.05 37.34 386.05 37.34 386.05"/>
  <line class="cls-7" x1="86.54" y1="406.91" x2="86.54" y2="385.05"/>
  <polygon class="cls-19" points="83.54 386.05 86.54 380.05 89.54 386.05 83.54 386.05 83.54 386.05"/>
  <line class="cls-7" x1="147.5" y1="401.5" x2="147.5" y2="157.65"/>
  <polygon class="cls-19" points="144.5 158.65 147.5 152.65 150.5 158.65 144.5 158.65 144.5 158.65"/>
  <line class="cls-7" x1="107.99" y1="116.73" x2="107.91" y2="88.89"/>
  <polygon class="cls-19" points="104.92 89.9 107.9 83.89 110.92 89.89 104.92 89.9 104.92 89.9"/>
  <g>
    <path class="cls-15" d="M53.3,35.35c-.11.14-.27.33-.47.55-.12.12-.2.21-.25.27-.19-.22-.38-.39-.58-.52-.15.46-.24.85-.26,1.19-1.42.13-2.59.24-3.5.34-.4.05-.83.15-1.29.29-.18-.63-.36-1.12-.53-1.48.36-.11.67-.27.91-.5.34-.33.88-1.12,1.63-2.36-.4.04-1.07.15-2,.34l-.47-1.41c.32-.12.58-.35.77-.69,1.25-2.09,2.02-3.74,2.32-4.94l1.56.7c.35.15.52.3.51.44s-.19.26-.54.37c-.13.06-.26.18-.38.36-.53,1-1.22,2.17-2.09,3.52.12,0,.31,0,.55,0,.27,0,.48,0,.62,0,.46-.83.84-1.61,1.15-2.36l1.24.74c.14.1.25.18.34.25v-.58c0-.54-.07-1.08-.2-1.62.65.16,1.22.24,1.71.24h3.2c-.51-.43-1.12-.88-1.83-1.35l1-1.19c.91.56,1.81,1.22,2.72,1.98l-.47.56h2.43c.42,0,.94-.07,1.56-.22-.12.5-.18.97-.18,1.41v.38c0,.38.06.78.17,1.2h-1.92c.11-.38.16-.78.16-1.19v-.24h-6.77v.44c0,.33.02.67.07,1,.19-.4.36-.79.51-1.19l1.33.74c.29.15.44.27.46.36.04.08-.05.18-.25.29.13.02.28.04.42.04.07,0,.15,0,.23,0h4.49c.56,0,1.15-.07,1.75-.2v1.71c-.63-.13-1.21-.2-1.75-.2h-1.69l-.36,1.42h1.31c.46,0,1.03-.07,1.7-.21-.06.32-.1.63-.12.91-.02.26-.04.58-.04.94v5.33c0,.58.04,1.05.14,1.42h-1.91c.1-.47.15-.87.16-1.2h-3.08c0,.47.05.9.16,1.28h-1.89c.11-.57.17-1.11.17-1.62v-5.24c0-.57-.06-1.19-.18-1.85.63.15,1.25.23,1.85.23h.13l.33-1.42h-.85c-.56,0-1.15.06-1.76.2v-.62c-.22.38-.4.69-.56.92v7.83c0,.64.06,1.22.17,1.74h-1.92c.1-.63.15-1.21.15-1.74v-5.82ZM51.91,39.88c-.12.05-.32.12-.58.21-2.16.77-3.57,1.34-4.21,1.71-.13-.62-.35-1.19-.66-1.71,2.38-.6,4.27-1.27,5.67-2-.17.76-.24,1.36-.22,1.78ZM49.01,35.73c.9-.08,1.79-.18,2.67-.31-.2-.11-.4-.2-.62-.28,1.03-.69,1.99-1.8,2.87-3.33h-1.57c.05-.19.09-.45.14-.78,0-.04,0-.07,0-.09-.08.05-.16.08-.24.1-.19.04-.4.26-.63.66-.66,1.09-1.53,2.43-2.63,4.03ZM60.57,37.17v-1.6h-3.02v1.6h3.02ZM57.55,38.48v1.68h3.02v-1.68h-3.02Z"/>
    <path class="cls-15" d="M74.74,25.94l1.87.54c.2.06.3.15.29.28s-.11.26-.31.39c-.23.15-.39.38-.48.67-.22.59-.48,1.28-.79,2.07h3.32c.66-.01,1.36-.07,2.09-.17v1.66c-.63-.1-1.22-.15-1.78-.15h-.26c-.05,2.9-.54,5.24-1.49,7.02,1.17,1.38,2.62,2.36,4.35,2.94-.66.45-1.25.96-1.75,1.51-1.41-.91-2.58-1.95-3.51-3.14-1.05,1.28-2.39,2.39-4.03,3.33-.25-.45-.69-.94-1.33-1.48,1.68-.5,3.1-1.56,4.26-3.16-.79-1.28-1.47-2.83-2.05-4.65l1.63-.57c.28,1.49.72,2.72,1.32,3.69.58-1.4.88-3.04.9-4.91,0-.07,0-.15,0-.23,0-.11,0-.23,0-.35h-2.25c-.37.73-.79,1.45-1.27,2.16-.54-.24-1.11-.44-1.71-.6.32-.34.64-.76.96-1.26-.7-.11-1.29-.16-1.77-.16h-2.07v1c0,.26-.01.51-.02.74h1.17c.59,0,1.34-.05,2.23-.14-.08.58-.12,1.22-.14,1.91-.12,3.77-.3,5.68-.52,5.74-.28.6-1.36.93-3.24,1.01-.09-.51-.35-1.09-.77-1.75-.41.8-1,1.67-1.77,2.59-.54-.49-1.13-.86-1.77-1.12,1.24-.88,2.07-1.97,2.5-3.25.46-1.28.68-3.25.68-5.91v-.83h-.83c-.46,0-1.03.05-1.73.16v-1.65c.9.1,1.48.15,1.73.14h4.55c.43,0,1.03-.05,1.8-.14v1.6c.99-1.7,1.66-3.55,2-5.55ZM67.11,27.07l1.22-1.05c.82.79,1.61,1.63,2.36,2.54l-1.27,1.1c-.86-1.08-1.62-1.95-2.3-2.59ZM68.78,34.47c-.08,2.2-.45,3.97-1.12,5.29.84.08,1.43.12,1.75.12.54.02.83-.16.86-.55.09-.52.18-2.14.25-4.86h-1.75Z"/>
    <path class="cls-15" d="M82.45,41.83c1.18-1.05,2.11-2.3,2.77-3.74l1.6.92c.14.08.21.18.21.28,0,.02,0,.05,0,.07-.05.13-.18.23-.41.3-.17.04-.32.17-.46.38-.57.9-1.25,1.81-2.03,2.75-.43-.38-.98-.69-1.67-.96ZM85.28,37.39c.09-.75.14-1.37.15-1.87v-1.87c0-.64-.06-1.31-.15-2,.87.08,1.64.12,2.32.13h1.92v-2.95c0-.66-.04-1.51-.12-2.56l1.98.24c.21.03.32.11.32.24s-.1.28-.3.46c-.16.13-.23.41-.23.85v.62h4.19c.84,0,1.65-.05,2.41-.12v1.63c-.71-.1-1.51-.15-2.41-.16h-4.19v1.75h2.59c.81-.01,1.62-.06,2.43-.13-.09.66-.13,1.34-.14,2.06v2.07c0,.35.04.89.14,1.63-.94-.12-1.58-.17-1.94-.17h-7c-.63.02-1.29.07-1.96.17ZM87.07,33.12v2.76h7.34v-2.76h-7.34ZM87.46,38.95l1.71-.51c.38.97.72,2.08,1.05,3.33l-1.71.62c-.2-1.32-.55-2.47-1.05-3.44ZM90.81,38.8l1.56-.59c.57,1,1.1,2.04,1.58,3.15l-1.6.87c-.4-1.3-.92-2.44-1.55-3.43ZM96.14,37.84c1.01,1.41,1.81,2.67,2.41,3.8l-1.63,1.03c-.57-1.27-1.34-2.57-2.3-3.91l1.53-.91Z"/>
    <path class="cls-15" d="M103.49,32.48h-.85c-.21,0-.71.04-1.5.11-.16.01-.28.02-.35.03v-1.58c.75.08,1.39.12,1.92.14h1.02v-2.21c-.46.04-1.2.13-2.23.29-.11-.5-.39-1.09-.84-1.77.73.11,1.19.16,1.37.15,2.23-.12,3.92-.49,5.07-1.12l.7,1.2c.15.26.23.45.23.56,0,.05-.01.08-.04.11-.03.05-.11.08-.25.08-.12,0-.27-.02-.47-.06-.05-.02-.12-.03-.21-.03-.19,0-.46.04-.8.11-.06.01-.16.03-.3.05-.28.05-.49.09-.63.11v2.52h.98c.25,0,.85-.05,1.8-.14v1.58c-.19-.01-.44-.03-.75-.06-.57-.05-.92-.08-1.05-.07h-.98v.6c.98.8,1.94,1.61,2.87,2.43-.38.31-.77.83-1.17,1.55-.54-.8-1.11-1.48-1.71-2.02v5.78c.01.46.05,1.1.11,1.92h-1.84c.08-1.04.12-1.67.12-1.89v-5.04c-.52,1.04-1.1,2.09-1.74,3.16-.61-.35-1.28-.63-2.02-.83,1.29-1.07,2.47-2.96,3.53-5.66ZM110.52,38.46c-.73,1.24-1.78,2.62-3.16,4.15-.5-.51-1.05-.9-1.65-1.16,1.6-1.08,3.03-2.99,4.3-5.74l1.49.92c.35.21.51.36.49.46,0,.1-.19.19-.58.27-.18-.02-.47.34-.89,1.1ZM108.4,35.44c.09-.72.15-1.32.16-1.79v-4.56c-.01-.43-.06-1.03-.14-1.79,1.02.08,1.69.12,2.01.12h3.64c.11,0,.65-.03,1.64-.1.19-.01.33-.02.44-.03-.08.81-.13,1.4-.14,1.76v4.6c.01.34.06.94.14,1.79-1.04-.09-1.73-.14-2.05-.14h-3.66c-.27,0-.95.05-2.05.14ZM110.14,28.77v5.18h4.29v-5.18h-4.29ZM117.36,41.38l-1.44,1.05c-1.17-2.01-2.35-3.88-3.53-5.6l1.44-.91c.91,1.37,2.09,3.19,3.53,5.47Z"/>
    <path class="cls-15" d="M118.33,32.45l.96-1.2c1.12.69,2.24,1.49,3.35,2.42l-.92,1.34c-1-.94-2.13-1.79-3.38-2.56ZM123.53,36.67c-.62,1.12-1.7,3.13-3.24,6.05-.45-.52-.95-.92-1.49-1.22,1.5-2.07,2.67-4.25,3.52-6.52.47.75.88,1.32,1.22,1.7ZM119.61,28.06l.97-1.27c1.15.79,2.26,1.63,3.33,2.5l-1.05,1.29c-1.08-.98-2.17-1.82-3.25-2.53ZM126.54,27.38l1.13-1.06c1.04.88,2.02,1.83,2.95,2.83l-1.03.97h2.76c.78,0,1.45-.07,2.01-.19v1.71c-.65-.09-1.32-.15-2.01-.16h-2.43v3.35h1.91c.62-.01,1.27-.07,1.94-.17v1.68c-.64-.1-1.29-.16-1.94-.17h-1.91v4.43h2.95c.66-.01,1.37-.07,2.13-.18v1.72c-.79-.11-1.49-.16-2.13-.18h-7.85c-.47.01-1.16.07-2.05.18v-1.72c.84.11,1.53.16,2.05.18h3.21v-4.43h-2.07c-.52.01-1.16.07-1.94.17v-1.68c.64.11,1.29.16,1.94.17h2.07v-3.35h-2.52c-.67.02-1.34.07-2.01.16v-1.71c.63.12,1.3.19,2.01.19h3.45c-.78-.94-1.66-1.85-2.63-2.73Z"/>
    <path class="cls-15" d="M140.08,40.19c-.46.74-1.04,1.53-1.74,2.36-.47-.45-.98-.79-1.51-1.04,1.02-.85,1.82-1.96,2.41-3.33l1.44.86c.19.12.28.24.27.36-.02.12-.13.21-.34.28-.15.01-.32.18-.53.52ZM151.33,29.79c-.7-.12-1.35-.18-1.94-.18h-1.34l.33.11c.18.06.26.16.24.28-.04.12-.16.2-.36.24-.17.05-.31.14-.41.27-.02.04-.06.09-.12.17-.13.18-.23.31-.29.4h3.49c.35,0,.95-.05,1.8-.17v1.58c-.77-.1-1.39-.15-1.84-.14h-12.3c-.29,0-.87.04-1.72.14v-1.58c.7.11,1.29.16,1.76.17h3.07c-.46-.56-.86-.97-1.18-1.25l.41-.21h-.62c-.54,0-1.27.05-2.16.16v-1.56c.44.06.82.1,1.13.12.3.02.63.04.99.04h3.81c-.71-.43-1.34-.77-1.87-1.04l.84-1.27c1.1.57,2.16,1.17,3.17,1.78l-.4.52h3.54c.66,0,1.31-.06,1.96-.16v1.58ZM143.49,38.57l.67-.7h-3.13c-.43,0-1.08.05-1.92.16.02-.17.04-.4.08-.69.06-.47.08-.81.08-1.01v-1.7c0-.34-.05-.95-.16-1.84.98.12,1.63.17,1.94.17h7.18c.29,0,.9-.05,1.84-.14.11-.01.18-.02.23-.03-.11.81-.16,1.43-.16,1.84v1.66c0,.41.05.99.16,1.74-.89-.11-1.59-.16-2.1-.16h-3.16c.69.58,1.34,1.19,1.95,1.84l-1.15,1.1c-.7-.87-1.49-1.62-2.35-2.23ZM148.47,34.81v-.62h-7.57v.62h7.57ZM148.47,36.63v-.62h-7.57v.62h7.57ZM146.38,41.36c.6.01,1-.15,1.18-.47.16-.24.24-.64.24-1.2,0-.18,0-.38-.03-.61.57.5,1.18.83,1.84,1.01-.26,1.07-.6,1.78-1.03,2.11-.4.36-1.1.53-2.11.52h-2.65c-1.01,0-1.68-.11-2.01-.34-.35-.22-.52-.66-.51-1.32v-1.04c0-.41-.04-.98-.14-1.71l1.71.22c.33.04.5.09.52.15s.03.1.03.13c0,.12-.1.27-.31.46-.12.12-.18.41-.18.88v.62c0,.26.06.42.18.49.12.08.39.12.81.11h2.44ZM145.55,31.07c.35-.47.66-.96.93-1.46h-3.99c.34.38.69.79,1.05,1.26l-.35.2h2.36ZM148.88,39.16l1.2-.98c.96.95,1.81,1.88,2.54,2.79l-1.28,1.15c-.63-1.04-1.45-2.03-2.46-2.95Z"/>
    <path class="cls-15" d="M162.83,31.88c-.21,4.85-2.3,8.58-6.27,11.2-.41-.54-.94-1-1.58-1.37,3.82-1.69,5.88-4.95,6.17-9.77l-2.91.09c-.4.01-.98.08-1.72.22-.08.02-.14.03-.18.04l-.11-1.78c.6.09,1.25.14,1.97.15l3.01-.08c0-1.8-.05-3.23-.17-4.28l2.06.29c.22.03.33.11.34.25,0,.13-.11.28-.33.46-.13.08-.19.36-.18.84,0,1.17,0,1.97-.02,2.43l4.39-.14c.5,0,1.16-.07,1.98-.2-.13.88-.31,3.8-.54,8.77-.04,1.47-.33,2.38-.86,2.73-.46.43-1.65.71-3.59.83-.02-.56-.23-1.23-.63-2.01,1,.17,1.67.25,2,.25.82,0,1.25-.3,1.3-.91.25-3.44.39-6.15.43-8.14l-4.55.15Z"/>
  </g>
  <g>
    <path class="cls-15" d="M169.22,233.63l1,.34c.14.05.21.09.21.13s-.07.1-.2.18c-.14.09-.26.28-.38.58-.11.31-.21.64-.31.97h1.28c.25,0,.62-.03,1.1-.09v.84c-.44-.05-.81-.07-1.1-.08h-1.51c-.46,1.28-.91,2.46-1.37,3.52h1.37v-1.18c0-.37-.04-.81-.08-1.33l1.01.17c.14.02.21.05.21.08,0,.04-.04.12-.15.23-.15.14-.23.38-.23.72v1.32h.32c.28,0,.65-.04,1.11-.08v.84c-.53-.06-.9-.09-1.11-.09h-.32v2.04c.64-.14,1.16-.29,1.54-.45-.04.24-.07.56-.08.94-.54.08-1.03.17-1.46.25v1.73c0,.25.03.65.08,1.19h-.93c.05-.49.07-.89.08-1.19v-1.56c-.06.02-.16.05-.27.08-.68.17-1.31.34-1.9.5l-.38-.87c.73-.05,1.58-.2,2.55-.45v-2.21h-1.12c-.33,0-.65.05-.96.16-.13-.3-.27-.58-.42-.83.25-.06.49-.35.71-.87.36-.73.68-1.62.96-2.65h-.52c-.28,0-.64.03-1.08.08v-.84c.41.05.77.08,1.08.09h.71c.21-.72.39-1.45.53-2.19ZM170.44,238.17c1.71-.94,3.06-2.49,4.07-4.65l.99.27c.09.03.14.06.14.1,0,.03-.06.07-.17.13-.06.04-.12.08-.18.14.98,1.71,2.47,2.81,4.45,3.33-.35.24-.61.5-.8.8-1.81-.87-3.17-2.05-4.1-3.55-1.2,1.73-2.36,3.07-3.5,4.02-.28-.23-.58-.42-.9-.58ZM174.36,244.98v-1.23h-1.64v1.47c0,.3.04.7.08,1.22h-.87c.05-.52.08-.92.09-1.22v-4.93c0-.35-.04-.76-.09-1.25.54.05.96.07,1.25.08h.75c.31,0,.71-.04,1.21-.08-.05.48-.07.89-.08,1.21v4.97c0,.45-.07.74-.24.87-.15.15-.53.27-1.14.35-.05-.38-.18-.72-.38-1.02.21.04.38.06.51.06.42,0,.61.03.59.08-.03.05-.04-.11-.04-.47,0-.05,0-.08,0-.11ZM172.71,239.77v1.35h1.64v-1.35h-1.64ZM172.71,241.76v1.34h1.64v-1.34h-1.64ZM172.98,237.99v-.82c.48.06.85.09,1.08.09h1.89c.29,0,.66-.04,1.1-.09v.82c-.49-.05-.85-.07-1.1-.08h-1.89c-.24,0-.6.04-1.08.08ZM175.88,239.47l.98.17c.13.02.21.05.23.08,0,.04-.03.1-.12.18-.18.2-.28.45-.29.77v2.54c0,.32.04.71.08,1.18h-.87c.05-.47.07-.87.08-1.18v-2.41c0-.28-.04-.73-.08-1.34ZM176.12,245.37c.37.09.68.13.92.13.49,0,.72.04.69.12-.03.08-.04-.1-.04-.54,0-.04,0-.08-.01-.13v-5.04c0-.3-.04-.75-.08-1.34l1.01.17c.14.02.21.05.21.08.02.03-.02.08-.11.17-.17.18-.26.44-.27.78v5.32c.02.54-.1.88-.36,1.03-.21.18-.74.29-1.58.34-.06-.38-.19-.75-.38-1.1Z"/>
    <path class="cls-15" d="M180.66,245.22c2.88-1.5,4.81-4.27,5.79-8.32.03-.14.05-.27.05-.38,0-.32-.11-.55-.34-.7-.42-.32-.84-.56-1.25-.73.33-.24.56-.49.69-.75.98.61,1.69,1.32,2.13,2.13.05.1.13.29.24.58,1.7,4.42,3.72,7.1,6.07,8.03-.52.15-.92.4-1.22.73-2.41-1.96-4.27-4.82-5.57-8.56-1.06,3.85-2.88,6.74-5.46,8.66-.29-.34-.66-.57-1.11-.69Z"/>
    <path class="cls-15" d="M194.84,245.89c1.25-1.18,1.86-3.47,1.82-6.88v-2.65c0-.2-.03-.62-.08-1.27.62.06,1.06.09,1.32.09h4.5c-.48-.41-1.06-.81-1.73-1.2l.49-.66c.76.5,1.44.96,2.04,1.39l-.32.47h3.67c.32-.01.71-.04,1.18-.09v.87c-.5-.05-.89-.07-1.18-.08h-9.06v3.4c.05,2.83-.43,5.11-1.46,6.86-.26-.12-.65-.21-1.18-.25ZM199.18,240.39h4.14c-.83-.42-1.67-.81-2.54-1.18l.35-.7c.31.14.93.43,1.86.86.63-.41,1.3-.96,2-1.63h-5.04c-.28,0-.64.04-1.08.09v-.87c.5.05.86.08,1.08.08h5.33c.37,0,.83-.03,1.41-.08-.69.89-1.66,1.81-2.92,2.78.17.09.33.18.48.28l-.2.38h2.8c.16,0,.54-.03,1.12-.07-.15.35-.36.79-.64,1.34-.05.1-.13.27-.25.5-.25.5-.42.86-.52,1.08-.32-.13-.63-.23-.94-.28.47-.67.83-1.29,1.08-1.86h-3.3v4.11c.02.48-.11.8-.39.95-.27.17-.86.27-1.75.31-.05-.33-.17-.67-.37-1.04.44.05.78.07,1.04.07.2,0,.33-.01.41-.04.21-.05.3-.23.28-.53v-3.83h-3.43c-.27,0-.63.04-1.1.08v-.87c.49.06.86.08,1.1.08Z"/>
    <path class="cls-15" d="M215.46,235.13h-2.47c-.13.62-.31,1.32-.52,2.08h2.33c.32,0,.68-.02,1.08-.09-.11,4.79-2.07,7.94-5.88,9.45-.22-.35-.5-.65-.83-.91,2.17-.62,3.69-1.73,4.56-3.33-.68-.69-1.4-1.32-2.16-1.89l.63-.71c.6.48,1.26,1.06,1.98,1.74.41-.75.68-1.94.82-3.58h-2.8c-.65,1.39-1.49,2.55-2.5,3.47-.31-.27-.61-.5-.91-.68,1.73-.95,2.82-2.81,3.28-5.57h-1.66c-.34,0-.71.02-1.11.09v-.87c.39.06.75.09,1.08.08h5.04c.5,0,.9-.02,1.19-.08v.87c-.28-.07-.67-.1-1.17-.09ZM218.34,242.93h-.95c.06-.38.09-.77.08-1.18v-5.28c0-.37-.02-.82-.08-1.35l1.02.14c.1.02.15.05.16.1,0,.05-.06.11-.16.15-.1.05-.15.33-.15.84v5.39c0,.4.02.8.08,1.19ZM218.36,246.38c-.08-.48-.22-.88-.42-1.21.51.08.91.12,1.21.12.19,0,.34-.02.43-.05.27-.05.4-.25.38-.59v-9.9c0-.39-.03-.84-.09-1.33l1.15.14c.07,0,.11.04.12.08,0,.06-.03.11-.1.16-.19.12-.28.4-.27.83v10.29c0,.53-.15.9-.49,1.08-.34.21-.98.34-1.93.38Z"/>
    <path class="cls-15" d="M222.81,239.77c2.13-1.2,3.6-3.14,4.41-5.84l.95.37c.14.05.2.09.19.12,0,.04-.06.1-.19.19-.2.09-.38.33-.54.71-.96,2.09-2.27,3.78-3.91,5.08-.27-.25-.57-.46-.91-.63ZM223.89,245.56c2.58-.87,3.89-2.9,3.91-6.08h-.92c-.36,0-.75.03-1.17.09v-.87c.39.05.78.08,1.17.08h4.59c.52,0,.99-.03,1.43-.08-.06.46-.1.89-.12,1.3l-.12,2.58c-.05,1.48-.24,2.38-.59,2.71-.29.4-1.06.64-2.32.71-.12-.36-.29-.72-.51-1.08.34.03.66.05.96.05.61,0,.99-.08,1.15-.25.3-.18.46-.82.47-1.92l.14-3.32h-3.27c-.1,3.28-1.43,5.57-3.98,6.88-.23-.28-.51-.55-.84-.8ZM231.01,233.5c.7,2.65,2.33,4.64,4.89,5.99-.32.16-.66.4-1.01.71-2.2-1.59-3.79-3.78-4.76-6.57l.88-.12Z"/>
    <path class="cls-15" d="M240.13,239.27l-.08,5.27c.54-.53,1.04-1.1,1.52-1.71.04.32.16.61.37.88-1.21,1.19-1.97,2.01-2.3,2.45-.3-.38-.55-.64-.76-.77.25-.24.38-.53.38-.85l.1-5.64h-1.17c-.25,0-.63.03-1.12.09v-.87c.47.05.84.08,1.12.08h.6c.3,0,.77-.03,1.42-.08-.05.48-.07.86-.08,1.15ZM238.12,234.45l.62-.59c.59.58,1.24,1.29,1.96,2.12l-.63.59c-.79-.94-1.44-1.64-1.95-2.12ZM247.39,237.02v.87c-.42-.04-.79-.07-1.12-.08h-3.72c-.32,0-.7.04-1.14.08v-.87c.51.05.89.08,1.14.08h3.71c.28,0,.66-.04,1.13-.08ZM249.11,234.55c-.05.49-.07.91-.08,1.25v9.34c.02.44-.14.73-.48.88-.32.17-.97.28-1.96.35,0-.38-.16-.76-.44-1.17.5.09.91.13,1.23.13.22,0,.38-.02.49-.06.27-.06.4-.32.38-.76v-9.18h-5.36c-.24,0-.62.03-1.14.08v-.87c.48.06.85.09,1.14.09h4.84c.34,0,.8-.03,1.39-.09ZM242.31,239.35c.64.05,1.09.08,1.34.08h1.69c.23,0,.71-.03,1.43-.08-.05.56-.07.99-.08,1.27v1.6c0,.25.04.65.08,1.21-.54-.06-.97-.09-1.29-.09h-1.81c-.3.01-.76.04-1.36.09.05-.5.07-.94.08-1.32v-1.47c0-.29-.03-.72-.08-1.29ZM243.16,240.13v2.52h2.78v-2.52h-2.78Z"/>
    <path class="cls-15" d="M251.26,239.78c1.16-.64,2.09-1.5,2.79-2.55h-1.25c-.32,0-.72.04-1.19.08v-.87c.51.05.91.08,1.19.08h1.78v-1.73c0-.31-.04-.77-.08-1.39l1.02.17c.16.02.24.04.25.07.02.03-.02.08-.11.17-.21.18-.32.51-.32,1.01v1.7h1.6c.21,0,.59-.03,1.17-.08v.87c-.51-.05-.9-.07-1.17-.08h-1.54c.41.28,1.2.87,2.37,1.78-.2.23-.39.47-.58.73-.54-.56-1.15-1.1-1.85-1.62v.5c0,.27.04.68.08,1.25h-.92c.04-.55.07-.97.08-1.25v-.79c-.77,1.06-1.59,1.95-2.47,2.69-.21-.26-.5-.5-.86-.73ZM252.51,241.27h1.25c.21-.51.39-.95.53-1.32l.97.38c.1.04.14.08.14.12s-.05.08-.16.12c-.14.03-.26.15-.38.38l-.19.32h1.74s.15,0,.38-.03c.54-.04.82-.05.85-.04-.27.89-.77,1.86-1.49,2.91.13.06.33.14.6.24.27.11.46.19.59.25-.12.18-.24.43-.38.77-.28-.16-.74-.38-1.39-.63-.96.75-2,1.32-3.1,1.7-.18-.29-.43-.59-.76-.9,1.11-.05,2.13-.43,3.06-1.14-.66-.28-1.44-.54-2.33-.79.34-.47.67-1.01.97-1.64h-.93c-.29,0-.68.04-1.15.08v-.87c.52.05.9.08,1.15.08ZM252.8,234.15c.13.2.31.46.53.8.21.31.37.55.5.74l-.66.45c-.31-.57-.65-1.12-1.02-1.63l.64-.36ZM254.32,241.98l-.66,1.22c.57.21,1.15.42,1.74.63.44-.54.8-1.15,1.09-1.85h-2.17ZM257.3,233.9l.75.58c.06.05.09.09.08.13,0,.03-.05.05-.14.05-.15,0-.32.12-.52.36-.17.2-.49.59-.95,1.18-.13-.11-.34-.26-.62-.45.55-.56,1.02-1.18,1.41-1.86ZM261.64,237.47h-2.25c-.25.45-.54.93-.85,1.42-.23-.13-.54-.24-.95-.35,1.22-1.24,1.93-2.97,2.12-5.17l1.04.32c.11.04.18.08.18.12,0,.03-.05.07-.16.12-.17.07-.29.26-.36.56-.33,1.12-.57,1.88-.73,2.28h3.01c.27,0,.64-.04,1.11-.08v.87c-.54-.06-.91-.09-1.11-.09h-.24c-.24,2.37-.7,4.17-1.36,5.38.97,1.27,2.02,2.15,3.13,2.64-.39.18-.7.43-.91.77-.76-.53-1.65-1.41-2.67-2.64-.89,1.22-1.92,2.18-3.08,2.89-.2-.31-.48-.54-.84-.71,1.51-.72,2.63-1.7,3.37-2.95-.63-.96-1.09-2.21-1.41-3.78.38-.03.65-.07.82-.12.16,1.07.51,2.1,1.05,3.08.53-.99.89-2.51,1.08-4.57Z"/>
    <path class="cls-15" d="M267.44,237.92c-.17,0-.31-.06-.44-.18-.12-.12-.18-.28-.18-.46s.06-.33.18-.45c.12-.12.27-.18.45-.18s.33.06.46.18c.13.12.19.27.19.45,0,.17-.06.32-.18.45-.12.13-.28.2-.47.2ZM267.44,244.51c-.18,0-.33-.06-.45-.19s-.18-.28-.18-.45c0-.18.06-.33.17-.45.12-.12.27-.18.45-.18s.33.06.46.18.19.27.19.45c0,.17-.06.32-.18.45-.12.13-.28.19-.47.19Z"/>
  </g>
  <path class="cls-15" d="M286.41,244.92l-5.77-8.58c.04.74.06,1.33.06,1.78v6.8h-.86v-9.66h1.08l5.81,8.64c-.05-.64-.08-1.29-.08-1.93v-6.72h.88v9.66h-1.12Z"/>
  <g>
    <path class="cls-15" d="M169.04,254.32h-.54c-.34,0-.76.03-1.25.08v-.87c.46.05.88.08,1.25.08h.73v-1.97c0-.38-.03-.8-.08-1.25l1.04.14c.12,0,.19.03.2.05,0,.02-.04.06-.14.12-.18.09-.26.39-.25.92v1.97h.27c.4,0,.83-.03,1.28-.08v.87c-.42-.05-.85-.08-1.28-.08h-.27v.77c.56.51,1.18,1.1,1.85,1.77l-.69.69c-.33-.5-.72-.98-1.17-1.43v5.8c0,.37.03.81.08,1.33h-.93c.05-.48.08-.92.08-1.33v-5.69c-.5,1.19-1.04,2.26-1.6,3.21-.28-.21-.6-.38-.95-.51.97-.99,1.76-2.53,2.35-4.61ZM174.91,258.17l.87.17c.19.04.29.07.31.09,0,0,0,.01,0,.02,0,.02-.04.06-.14.1-.1.05-.18.21-.25.47,0,.02-.01.05-.01.11,0,.05-.01.08-.01.11h2.89c.41,0,.79-.03,1.14-.08v.87c-.4-.06-.78-.08-1.14-.08h-2.34c.59,1.24,1.78,2.07,3.58,2.48-.3.21-.55.52-.75.91-1.77-.79-2.97-1.88-3.61-3.27-.46,1.27-1.72,2.35-3.79,3.24-.16-.34-.39-.64-.67-.88,1.93-.46,3.13-1.28,3.59-2.48h-2.24c-.35,0-.72.03-1.12.08v-.87c.4.05.78.08,1.12.08h2.5c.08-.34.11-.7.09-1.06ZM172.94,252.02h.86v-.21c0-.38-.03-.79-.09-1.25l1.06.14c.12,0,.18.03.18.06s-.06.08-.17.13c-.16.05-.24.35-.23.91v.21h1.77v-.32c0-.37-.03-.8-.08-1.28l1.04.14c.12,0,.18.03.19.05,0,.03-.04.07-.14.12-.18.04-.26.36-.25.96v.32h1.35c.38,0,.76-.03,1.15-.09v.87c-.37-.06-.75-.08-1.15-.08h-1.35c0,.25.03.55.08.88h-.93c.05-.34.08-.63.08-.88h-1.77c0,.3.03.61.09.91h-.93c.06-.29.09-.59.09-.91h-.86c-.38,0-.79.03-1.23.08v-.87c.51.06.92.09,1.23.09ZM172.47,258.18c.06-.34.09-.69.09-1.07v-2.15c0-.29-.03-.66-.09-1.1.49.05.9.08,1.22.08h3.81c.38,0,.78-.03,1.18-.08-.05.42-.08.78-.08,1.07v2.17c0,.37.03.72.08,1.07-.36-.06-.73-.09-1.12-.09h-3.94c-.34,0-.72.03-1.15.09ZM173.32,255.64h4.53v-1.01h-4.53v1.01ZM173.32,256.31v1.11h4.53v-1.11h-4.53Z"/>
    <path class="cls-15" d="M182.29,261.97h4.76v-1.86h-3.17c-.18,0-.56.03-1.14.09v-.87c.51.04.89.07,1.14.08h3.17v-.39c0-.29-.04-.74-.08-1.34l1.02.16c.1,0,.15.03.16.05.02.03,0,.08-.07.15-.17.16-.25.52-.24,1.08v.28h3.02c.25,0,.63-.03,1.12-.08v.87c-.54-.06-.91-.09-1.12-.09h-3.02v1.86h4.49c.3,0,.68-.04,1.12-.09v.87c-.53-.06-.9-.08-1.12-.08h-10.04c-.28,0-.66.04-1.14.08v-.87c.47.05.85.08,1.14.09ZM185.95,255.01h-1.78c-.14,1.28-.75,2.45-1.85,3.52-.31-.25-.62-.45-.94-.59,1.18-.53,1.85-1.5,2.01-2.93h-.86c-.29,0-.68.04-1.15.08v-.87c.48.05.87.08,1.15.09h.94c.03-.64.04-1.37.03-2.19h-.35c-.26,0-.64.04-1.15.08v-.87c.51.06.9.09,1.15.09h3.96c.28,0,.66-.04,1.12-.09v.87c-.47-.05-.84-.07-1.12-.08h-.36v2.19h.86c.23,0,.61-.03,1.14-.09v.87c-.47-.04-.85-.07-1.14-.08h-.86v1.58c0,.22.03.61.08,1.17h-.95c.05-.48.07-.86.08-1.17v-1.58ZM184.22,254.31h1.73v-2.19h-1.65c0,.67-.02,1.4-.08,2.19ZM190.31,253.01v2.53c0,.22.03.61.09,1.17h-.93c.05-.53.08-.91.09-1.17v-2.65c0-.38-.04-.83-.09-1.32l1.03.14c.1,0,.16.03.17.06,0,.03-.02.07-.08.14-.17.2-.26.57-.27,1.11ZM192.09,250.6l1.01.14c.1,0,.16.03.17.08,0,.02-.02.07-.1.15-.15.13-.22.49-.21,1.07v4.68c0,.59-.12.98-.39,1.18-.27.22-.8.36-1.6.41-.07-.41-.21-.75-.4-1.01.33.04.59.06.78.06.23,0,.4-.03.51-.08.22-.09.33-.31.32-.68v-4.68c0-.29-.04-.73-.09-1.32Z"/>
    <path class="cls-15" d="M197.54,250.33l.94.58c.13.08.19.14.18.18,0,.04-.09.07-.24.1-.18.04-.34.19-.49.47-.47.85-1.11,1.94-1.92,3.25.6,0,1.23-.04,1.91-.09.52-.95.89-1.75,1.11-2.41l1.06.69c.1.06.14.1.12.13,0,.04-.09.07-.24.11-.18.08-.33.2-.45.38-1.17,2-2.16,3.58-2.98,4.75,1.02-.1,2.1-.27,3.23-.52l-.21.94c-2.4.36-3.68.59-3.82.69l-.44-1.06c.35-.12.65-.39.9-.82.38-.56.81-1.27,1.3-2.13-.86,0-1.62.09-2.26.27l-.32-1c.35-.21.58-.43.71-.67.88-1.39,1.52-2.67,1.91-3.83ZM195,261.55c1.99-.34,3.62-.76,4.89-1.25l-.11,1.04c-2.13.51-3.56.95-4.31,1.3l-.47-1.1ZM198.66,256.12c1.52-1.37,2.58-3.27,3.19-5.72l1.09.53c.1.05.15.09.14.13,0,.04-.08.08-.2.13-.18.05-.32.21-.42.47-.16.37-.4.9-.73,1.6h4.89c.27,0,.56-.02.88-.08v.84c-.34-.07-.62-.1-.86-.09h-1.97v2.05h1.52c.26,0,.54-.02.82-.08v.84c-.32-.06-.58-.09-.8-.08h-1.55v2.04h1.51c.25,0,.52-.02.8-.09v.84c-.32-.06-.58-.09-.8-.08h-1.51v2.16h2.21c.26,0,.54-.02.83-.08v.82c-.34-.07-.62-.1-.84-.09h-5.13c0,.33.02.69.09,1.08h-.96c.07-.38.1-.74.09-1.1v-7.37c-.36.57-.77,1.18-1.24,1.84-.31-.2-.67-.37-1.06-.51ZM201.75,253.94v2.05h2.15v-2.05h-2.15ZM201.75,256.67v2.04h2.15v-2.04h-2.15ZM201.75,259.38v2.16h2.15v-2.16h-2.15ZM204.12,250.47c.65.85,1.14,1.56,1.47,2.12l-.78.58c-.42-.8-.89-1.51-1.42-2.15l.73-.55Z"/>
    <path class="cls-15" d="M208.98,262.15c.76-.64,1.26-1.41,1.5-2.33.26-.86.39-2.31.38-4.35v-2.62c.01-.41-.01-.84-.08-1.31.48.05.9.08,1.25.08h4.62c-.37-.29-.84-.61-1.43-.97l.49-.64c.61.37,1.16.73,1.65,1.1l-.36.51h3.53c.3,0,.69-.03,1.18-.08v.9c-.51-.06-.9-.08-1.18-.08h-8.85v3.38c0,1.78-.1,3.11-.32,3.98-.21.9-.65,1.86-1.34,2.88-.24-.2-.58-.34-1.03-.44ZM215.88,260.84c-.89-.78-1.55-1.58-1.97-2.41h-.17c-.27,0-.63.02-1.09.08v-.87c.43.06.79.09,1.09.08h4.98c.26,0,.65-.02,1.17-.08-.63,1.03-1.51,2.09-2.64,3.2,1.47.76,3.01,1.16,4.61,1.21-.27.25-.48.59-.62,1.02-1.93-.33-3.49-.89-4.67-1.68-1.35.8-2.83,1.44-4.45,1.92-.17-.4-.38-.72-.64-.97,1.57-.14,3.04-.64,4.41-1.5ZM215.07,253.93h3.08v-.19c.01-.42-.01-.85-.08-1.28l1.06.16c.13.02.19.04.19.07,0,.03-.05.09-.17.2-.14.13-.21.43-.21.9v.15h1.12c.28,0,.65-.02,1.11-.08v.87c-.47-.06-.84-.09-1.11-.08h-1.12v.97c0,.3.02.7.08,1.21-.55-.06-.99-.09-1.32-.08h-2.47c-.29,0-.63.03-1.04.08.05-.4.08-.76.08-1.08v-1.09h-1.17c-.27,0-.63.02-1.08.08v-.87c.43.06.79.09,1.08.08h1.17v-.18c0-.37-.03-.79-.08-1.24l1.07.16c.12,0,.18.03.18.07s-.05.1-.16.2c-.14.1-.21.4-.21.9v.1ZM216.56,260.37c.74-.59,1.34-1.24,1.81-1.95h-3.56c.39.64.98,1.29,1.75,1.95ZM215.07,254.63v1.38h3.08v-1.38h-3.08Z"/>
    <path class="cls-15" d="M225.32,254.72c-.17,0-.32-.06-.44-.18-.12-.12-.19-.28-.19-.46s.06-.33.18-.45.27-.18.45-.18.33.06.46.18c.13.12.19.27.19.45s-.06.32-.18.45-.28.2-.47.2ZM225.32,261.31c-.18,0-.33-.06-.45-.19s-.18-.28-.18-.45c0-.18.06-.33.17-.45.12-.12.27-.18.45-.18s.33.06.46.18c.13.12.19.27.19.45,0,.17-.06.32-.18.45-.12.13-.28.19-.47.19Z"/>
  </g>
  <path class="cls-15" d="M245.32,256.78c0,1.01-.19,1.88-.57,2.63-.38.75-.91,1.32-1.61,1.71-.7.39-1.5.59-2.42.59h-3v-9.66h2.67c1.6,0,2.83.4,3.66,1.21.84.8,1.26,1.98,1.26,3.52ZM244.38,256.78c0-2.63-1.34-3.94-4.02-3.94h-1.72v8.1h1.97c1.18,0,2.1-.36,2.77-1.09.67-.73,1-1.75,1-3.06Z"/>
  <g class="cls-20">
    <path class="cls-15" d="M314.14,427.3c0,1.82-.45,3.3-1.35,4.45-.9,1.15-2.13,1.8-3.68,1.97.25.79.58,1.38.97,1.75s.91.56,1.54.56c.31,0,.64-.04,1-.12v.91c-.38.11-.81.16-1.27.16-.86,0-1.56-.24-2.11-.73-.54-.49-.99-1.31-1.35-2.47-1.15-.03-2.14-.31-2.98-.85-.84-.54-1.49-1.29-1.93-2.25s-.67-2.09-.67-3.38c0-1.99.52-3.55,1.57-4.69,1.04-1.13,2.5-1.7,4.36-1.7,1.21,0,2.27.25,3.15.76.89.51,1.57,1.25,2.04,2.22.47.97.71,2.1.71,3.4ZM312.91,427.3c0-1.66-.41-2.98-1.23-3.93-.82-.96-1.97-1.44-3.45-1.44s-2.65.47-3.47,1.42c-.82.95-1.23,2.26-1.23,3.96s.42,3.03,1.26,4.01c.84.99,1.98,1.48,3.43,1.48s2.66-.48,3.48-1.45c.81-.96,1.22-2.31,1.22-4.04Z"/>
  </g>
  <g class="cls-20">
    <path class="cls-15" d="M424.04,433.61l-4.46-6.25-1.28,1.27v4.98h-1.19v-12.52h1.19v6.27l5.44-6.27h1.48l-4.8,5.44,5.11,7.08h-1.49Z"/>
  </g>
  <g class="cls-20">
    <path class="cls-15" d="M537.24,433.61h-1.37l-4.7-12.52h1.29l3.45,9.5c.32.91.54,1.59.66,2.04.1-.34.2-.67.31-1.01.1-.34.21-.67.33-1.01l3.45-9.51h1.28l-4.69,12.52Z"/>
  </g>
  <rect class="cls-5" x="263.49" y="383.25" width="15.92" height="15.92"/>
  <rect class="cls-5" x="278.65" y="383.25" width="15.92" height="15.92"/>
  <rect class="cls-5" x="294.57" y="383.25" width="15.92" height="15.92"/>
  <rect class="cls-5" x="309.73" y="383.25" width="15.92" height="15.92"/>
  <rect class="cls-5" x="325.64" y="383.25" width="15.92" height="15.92"/>
  <rect class="cls-5" x="340.8" y="383.25" width="15.92" height="15.92"/>
  <rect class="cls-8" x="263.49" y="398.41" width="15.92" height="15.92"/>
  <rect class="cls-8" x="278.65" y="398.41" width="15.92" height="15.92"/>
  <rect class="cls-8" x="294.57" y="398.41" width="15.92" height="15.92"/>
  <rect class="cls-8" x="309.73" y="398.41" width="15.92" height="15.92"/>
  <rect class="cls-8" x="325.64" y="398.41" width="15.92" height="15.92"/>
  <rect class="cls-8" x="340.8" y="398.41" width="15.92" height="15.92"/>
  <rect class="cls-11" x="263.49" y="368.09" width="15.92" height="15.92"/>
  <rect class="cls-11" x="278.65" y="368.09" width="15.92" height="15.92"/>
  <rect class="cls-11" x="294.57" y="368.09" width="15.92" height="15.92"/>
  <rect class="cls-11" x="309.73" y="368.09" width="15.92" height="15.92"/>
  <rect class="cls-11" x="325.64" y="368.09" width="15.92" height="15.92"/>
  <rect class="cls-11" x="340.8" y="368.09" width="15.92" height="15.92"/>
  <rect class="cls-10" x="378.7" y="382.5" width="15.16" height="15.92"/>
  <rect class="cls-10" x="393.86" y="382.5" width="15.92" height="15.92"/>
  <rect class="cls-10" x="409.78" y="382.5" width="15.16" height="15.92"/>
  <rect class="cls-10" x="424.94" y="382.5" width="15.92" height="15.92"/>
  <rect class="cls-10" x="440.86" y="382.5" width="15.92" height="15.92"/>
  <rect class="cls-10" x="456.02" y="382.5" width="15.92" height="15.92"/>
  <rect class="cls-2" x="378.7" y="367.34" width="15.16" height="15.92"/>
  <rect class="cls-2" x="393.86" y="367.34" width="15.92" height="15.92"/>
  <rect class="cls-2" x="409.78" y="367.34" width="15.16" height="15.92"/>
  <rect class="cls-2" x="424.94" y="367.34" width="15.92" height="15.92"/>
  <rect class="cls-2" x="440.86" y="367.34" width="15.92" height="15.92"/>
  <rect class="cls-2" x="456.02" y="367.34" width="15.92" height="15.92"/>
  <rect class="cls-9" x="378.7" y="398.41" width="15.16" height="15.16"/>
  <rect class="cls-9" x="393.86" y="398.41" width="15.92" height="15.16"/>
  <rect class="cls-9" x="409.78" y="398.41" width="15.16" height="15.16"/>
  <rect class="cls-9" x="424.94" y="398.41" width="15.92" height="15.16"/>
  <rect class="cls-9" x="440.86" y="398.41" width="15.92" height="15.16"/>
  <rect class="cls-9" x="456.02" y="398.41" width="15.92" height="15.16"/>
  <rect class="cls-4" x="490.13" y="381.74" width="15.92" height="15.92"/>
  <rect class="cls-4" x="506.05" y="381.74" width="15.16" height="15.92"/>
  <rect class="cls-4" x="521.21" y="381.74" width="15.92" height="15.92"/>
  <rect class="cls-4" x="537.12" y="381.74" width="15.16" height="15.92"/>
  <rect class="cls-4" x="552.28" y="381.74" width="15.92" height="15.92"/>
  <rect class="cls-4" x="568.2" y="381.74" width="15.16" height="15.92"/>
  <rect class="cls-6" x="490.13" y="396.14" width="15.92" height="15.92"/>
  <rect class="cls-6" x="506.05" y="396.14" width="15.16" height="15.92"/>
  <rect class="cls-6" x="521.21" y="396.14" width="15.92" height="15.92"/>
  <rect class="cls-6" x="537.12" y="396.14" width="15.16" height="15.92"/>
  <rect class="cls-6" x="552.28" y="396.14" width="15.92" height="15.92"/>
  <rect class="cls-6" x="568.2" y="396.14" width="15.16" height="15.92"/>
  <rect class="cls-12" x="490.13" y="366.58" width="15.92" height="15.92"/>
  <rect class="cls-12" x="506.05" y="366.58" width="15.16" height="15.92"/>
  <rect class="cls-12" x="521.21" y="366.58" width="15.92" height="15.92"/>
  <rect class="cls-12" x="537.12" y="366.58" width="15.16" height="15.92"/>
  <rect class="cls-12" x="552.28" y="366.58" width="15.92" height="15.92"/>
  <rect class="cls-12" x="568.2" y="366.58" width="15.16" height="15.92"/>
  <rect class="cls-1" x="324.89" y="259.7" width="30.32" height="28.8"/>
  <rect class="cls-1" x="355.21" y="259.7" width="30.32" height="28.8"/>
  <rect class="cls-1" x="385.53" y="259.7" width="30.32" height="28.8"/>
  <rect class="cls-1" x="324.89" y="288.5" width="30.32" height="28.05"/>
  <rect class="cls-1" x="355.21" y="288.5" width="30.32" height="28.05"/>
  <rect class="cls-1" x="385.53" y="288.5" width="30.32" height="28.05"/>
  <rect class="cls-1" x="324.89" y="231.65" width="30.32" height="28.05"/>
  <rect class="cls-1" x="355.21" y="231.65" width="30.32" height="28.05"/>
  <rect class="cls-1" x="385.53" y="231.65" width="30.32" height="28.05"/>
  <path class="cls-21" d="M366.2,224.31v-22.09h1.52v22.09h-1.52ZM363.92,203.23l3.03-6.06,3.03,6.06h-6.06Z"/>
  <path class="cls-13" d="M332.09,363.17c0-5.86.79-10.61,1.77-10.61h31.33c.98,0,1.77-4.75,1.77-10.61,0,5.86.79,10.61,1.77,10.61h31.33c.98,0,1.77,4.75,1.77,10.61"/>
  <rect class="cls-1" x="324.89" y="138.42" width="30.32" height="28.05"/>
  <rect class="cls-1" x="355.21" y="138.42" width="30.32" height="28.05"/>
  <rect class="cls-1" x="385.53" y="138.42" width="30.32" height="28.05"/>
  <rect class="cls-1" x="324.89" y="166.47" width="30.32" height="28.05"/>
  <rect class="cls-1" x="355.21" y="166.47" width="30.32" height="28.05"/>
  <rect class="cls-1" x="385.53" y="166.47" width="30.32" height="28.05"/>
  <rect class="cls-1" x="324.89" y="109.62" width="30.32" height="28.8"/>
  <rect class="cls-1" x="355.21" y="109.62" width="30.32" height="28.8"/>
  <rect class="cls-1" x="385.53" y="109.62" width="30.32" height="28.8"/>
  <path class="cls-13" d="M397.27,104.69c0-7.54,1.02-13.64,2.27-13.64h71.63c1.26,0,2.27-6.11,2.27-13.64,0,7.54,1.02,13.64,2.27,13.64h71.63c1.26,0,2.27,6.11,2.27,13.64"/>
  <rect class="cls-14" x="420.39" y="22.36" width="15.92" height="15.92"/>
  <rect class="cls-14" x="436.31" y="22.36" width="15.16" height="15.92"/>
  <rect class="cls-14" x="451.47" y="22.36" width="15.92" height="15.92"/>
  <rect class="cls-14" x="467.39" y="22.36" width="15.16" height="15.92"/>
  <rect class="cls-14" x="482.55" y="22.36" width="15.92" height="15.92"/>
  <rect class="cls-14" x="498.47" y="22.36" width="15.16" height="15.92"/>
  <rect class="cls-14" x="420.39" y="36.77" width="15.92" height="15.92"/>
  <rect class="cls-14" x="436.31" y="36.77" width="15.16" height="15.92"/>
  <rect class="cls-14" x="451.47" y="36.77" width="15.92" height="15.92"/>
  <rect class="cls-14" x="467.39" y="36.77" width="15.16" height="15.92"/>
  <rect class="cls-14" x="482.55" y="36.77" width="15.92" height="15.92"/>
  <rect class="cls-14" x="498.47" y="36.77" width="15.16" height="15.92"/>
  <rect class="cls-14" x="420.39" y="7.21" width="15.92" height="15.92"/>
  <rect class="cls-14" x="436.31" y="7.21" width="15.16" height="15.92"/>
  <rect class="cls-14" x="451.47" y="7.21" width="15.92" height="15.92"/>
  <rect class="cls-14" x="467.39" y="7.21" width="15.16" height="15.92"/>
  <rect class="cls-14" x="482.55" y="7.21" width="15.92" height="15.92"/>
  <rect class="cls-14" x="498.47" y="7.21" width="15.16" height="15.92"/>
  <path class="cls-21" d="M548.87,359.98V113.53h1.52v246.45h-1.52ZM546.6,114.54l3.03-6.06,3.03,6.06h-6.06Z"/>
  <path class="cls-21" d="M366.2,345.59v-22.09h1.52v22.09h-1.52ZM363.92,324.51l3.03-6.06,3.03,6.06h-6.06Z"/>
  <path class="cls-16" d="M430.91,270.41c-.63,0-1.22.23-1.77.68s-1.03,1.1-1.44,1.93-.73,1.76-.96,2.76-.34,1.89-.34,2.65c0,1.81.66,2.72,1.98,2.72.81,0,1.56-.38,2.24-1.14s1.23-1.81,1.64-3.15.62-2.6.62-3.76c0-.87-.16-1.54-.48-2s-.82-.69-1.49-.69h0ZM431.01,269.64c1.13,0,2,.33,2.61.98s.92,1.61.92,2.85c0,.82-.13,1.74-.39,2.75s-.61,1.91-1.06,2.69-.97,1.4-1.57,1.88-1.24.8-1.94.98c.13.43.26.78.38,1.06s.23.5.34.68.22.3.32.39.21.14.32.17.23.04.37.04c.22,0,.45-.06.68-.19s.48-.35.76-.67l.46.49c-.47.51-.91.87-1.31,1.08s-.82.32-1.25.32c-.49,0-.88-.11-1.19-.33s-.57-.56-.8-1.04-.44-1.1-.65-1.86c-1.06-.06-1.87-.41-2.43-1.05s-.83-1.55-.83-2.72c0-.88.15-1.87.44-2.98s.72-2.08,1.28-2.93,1.23-1.49,2-1.92,1.62-.65,2.54-.65h0Z"/>
  <path class="cls-16" d="M436.74,269.78h3.7v.43c-.26.06-.44.13-.56.19s-.21.15-.27.24-.12.24-.15.44-.05.49-.05.9v3.23s.25,0,.25,0c.22,0,.43-.04.61-.11s.39-.2.62-.4.58-.55,1.05-1.08c.56-.63.95-1.08,1.15-1.36.26-.33.43-.62.52-.84.07-.17.11-.33.11-.49,0-.23-.07-.41-.2-.51s-.32-.17-.55-.2v-.43h3.83v.43c-.19.04-.37.11-.55.22s-.37.24-.56.42-.47.47-.84.88l-2.95,3.32,3.2,4.65c.34.49.61.84.8,1.03s.38.34.55.43.36.15.56.18v.43h-3.88v-.43c.22-.02.38-.06.47-.12s.15-.16.15-.29c0-.11-.03-.23-.1-.38s-.17-.33-.32-.54l-2.05-3.05c-.24-.36-.42-.6-.53-.72s-.23-.2-.36-.26-.3-.08-.52-.08h-.47v3.68c0,.39.01.68.04.86s.07.33.13.43.15.19.27.26.31.14.58.21v.43h-3.7v-.43c.36-.09.61-.2.73-.31s.2-.28.24-.49.06-.53.06-.97v-7.6c0-.4-.01-.7-.04-.88s-.08-.33-.15-.43-.16-.18-.27-.25-.3-.13-.57-.21v-.43Z"/>
  <path class="cls-16" d="M448.58,266.82h7.03l-.52,2.28h-.68v-.37c0-.07,0-.15,0-.24,0-.09-.02-.18-.03-.26-.01-.09-.03-.17-.05-.24-.02-.08-.04-.14-.06-.18-.03-.06-.06-.11-.09-.15-.03-.04-.07-.07-.12-.09-.05-.02-.11-.04-.18-.05-.07,0-.16-.01-.26-.01h-1.04l-1.33,5.88c-.05.2-.08.37-.1.51s-.03.27-.03.38c0,.09.02.16.04.22s.06.11.12.16c.06.04.13.08.23.1.09.02.22.04.37.05l-.09.39h-2.85l.08-.39c.11-.03.2-.05.28-.07.08-.02.14-.05.2-.08s.1-.08.15-.13c.04-.06.08-.13.12-.23.04-.1.08-.22.12-.38.04-.15.08-.35.14-.57l1.3-5.83h-.89c-.14,0-.26,0-.36.01-.1,0-.19.03-.27.07-.08.04-.16.09-.23.15s-.14.15-.22.26c-.08.11-.16.25-.24.41s-.19.36-.31.59h-.69l.48-2.18h0Z"/>
  <g>
    <path class="cls-16" d="M436.28,154.08c-.61,0-1.14.25-1.6.76s-.81,1.24-1.07,2.19-.39,1.77-.39,2.45c0,.64.13,1.12.4,1.43.27.31.67.46,1.21.46.57,0,1.08-.26,1.53-.77s.8-1.24,1.05-2.17.39-1.74.39-2.45c0-.63-.12-1.11-.37-1.43-.25-.32-.63-.48-1.15-.48h0ZM478.11,154.06c-.6,0-1.15.24-1.63.73-.48.49-.86,1.14-1.12,1.96-.27.82-.4,1.63-.4,2.45,0,.61.08,1.06.25,1.37s.45.45.84.45.77-.17,1.14-.5c.37-.33.76-.81,1.15-1.43s.68-1.33.84-2.14l.08-.38c.05-.24.09-.45.11-.62s.03-.37.03-.57c0-.45-.1-.78-.29-.99s-.52-.32-.98-.32h0ZM436.46,153.38c.94,0,1.65.26,2.14.77.49.51.74,1.25.74,2.2,0,.68-.12,1.41-.36,2.18s-.56,1.42-.98,1.95c-.41.53-.91.92-1.48,1.19s-1.23.4-1.98.4c-.91,0-1.61-.25-2.11-.76-.5-.51-.75-1.24-.75-2.2,0-.47.07-1.01.21-1.63.18-.83.49-1.56.91-2.18.43-.62.96-1.1,1.58-1.43s1.32-.5,2.07-.5h0ZM427.34,153.38c.54,0,1.04.03,1.49.1s.9.18,1.34.33l-.4,1.85h-.71c-.06-.52-.24-.92-.51-1.19s-.72-.4-1.31-.4c-.46,0-.84.12-1.12.36s-.43.55-.43.94c0,.21.04.4.11.56s.22.34.44.53.57.43,1.04.71c.37.22.67.43.89.61s.4.37.53.55.22.37.28.58.09.45.09.73c0,.52-.14.97-.42,1.34s-.66.65-1.13.83-1.02.27-1.63.27c-.49,0-.96-.04-1.43-.11s-.99-.2-1.56-.37l.42-1.92h.69c.02.56.18.99.47,1.27.29.29.76.43,1.4.43.56,0,.99-.12,1.31-.37s.47-.6.47-1.06c0-.26-.04-.49-.13-.68s-.23-.37-.43-.55-.52-.4-.95-.66c-.46-.28-.81-.52-1.07-.75s-.45-.46-.58-.73-.19-.56-.19-.9c0-.46.12-.87.37-1.22s.6-.62,1.07-.8,1-.28,1.62-.28h0ZM486.03,153.37c.18,0,.34.02.48.06.14.04.26.1.36.19s.2.19.28.33.16.32.24.55.15.52.22.86.13.7.18,1.07h.09c.56-.79.99-1.37,1.28-1.74s.53-.64.73-.82.39-.3.58-.38.43-.11.73-.11c.28,0,.5.04.68.11l-.35,1.59h-.62c-.04-.25-.14-.37-.31-.37-.05,0-.11,0-.17.03s-.13.06-.22.11-.21.17-.37.34-.35.38-.55.62-.42.5-.63.77l-.6.75c.11.56.21,1.05.3,1.46s.18.75.25,1.02.14.49.19.65.12.28.18.36.13.13.2.17.15.05.23.05c.16,0,.31-.06.46-.18s.36-.4.65-.83l.57.38c-.41.61-.78,1.04-1.11,1.29s-.73.37-1.18.37c-.25,0-.47-.05-.64-.14s-.33-.24-.46-.44-.24-.51-.34-.93c-.18-.75-.29-1.32-.33-1.72h-.09c-.62.87-1.08,1.5-1.38,1.88s-.55.66-.75.84-.39.31-.57.38-.43.11-.73.11c-.28,0-.5-.04-.68-.11l.35-1.59h.62c.04.25.14.37.31.37.08,0,.17-.02.26-.07s.22-.15.39-.32.4-.43.7-.79.73-.89,1.3-1.61c-.09-.46-.18-.91-.27-1.34-.09-.43-.19-.83-.29-1.2s-.18-.61-.25-.73-.13-.19-.21-.24-.17-.07-.28-.07c-.12,0-.23.03-.33.08s-.21.15-.33.29-.27.35-.47.65l-.57-.38c.37-.56.72-.97,1.06-1.25s.74-.41,1.2-.41h0ZM477.94,153.37c.38,0,.74.04,1.07.13.33.08.67.24,1.02.45l.81-.58.56.14-1.29,5.57c-.13.56-.19.99-.19,1.3,0,.23.04.4.11.51.08.11.2.16.36.16.18,0,.36-.07.56-.22.2-.14.48-.42.84-.82l.5.49c-.53.56-.98.96-1.35,1.2-.37.24-.77.36-1.21.36-.36,0-.65-.12-.87-.36-.22-.24-.33-.56-.33-.96,0-.32.07-.67.2-1.03l-.11-.04c-.56.82-1.1,1.42-1.6,1.8-.5.38-1.04.57-1.6.57-.64,0-1.14-.24-1.5-.73s-.53-1.17-.53-2.05c0-1.01.2-1.98.59-2.9s.94-1.66,1.63-2.2c.69-.54,1.46-.8,2.31-.8h0ZM460.13,153.37c.37,0,.66.12.87.36.21.24.32.56.32.95,0,.32-.07.67-.2,1.03l.11.04c.54-.8,1.08-1.4,1.61-1.79s1.07-.58,1.62-.58.99.16,1.28.48c.29.32.44.78.44,1.38v.12s0,.08,0,.13c.5-.71,1.01-1.25,1.51-1.6s1.02-.52,1.56-.52.96.16,1.25.47c.29.31.44.75.44,1.31,0,.37-.08.89-.25,1.57l-.57,2.3c-.16.64-.24,1.09-.24,1.35,0,.23.04.4.11.51s.2.16.36.16c.18,0,.36-.07.56-.22s.48-.42.84-.82l.5.49c-.5.53-.94.93-1.32,1.18-.37.25-.8.38-1.28.38-.38,0-.69-.14-.91-.41s-.34-.62-.34-1.04c0-.38.1-.94.29-1.68l.39-1.52c.14-.55.23-.96.28-1.22s.07-.48.07-.64c0-.4-.07-.7-.2-.87s-.35-.27-.66-.27c-.25,0-.51.09-.79.28s-.58.47-.89.86-.56.77-.76,1.15-.35.84-.47,1.38l-.8,3.84h-1.52l1.01-4.46c.12-.54.21-.95.25-1.21s.07-.48.07-.67c0-.42-.07-.72-.22-.9s-.38-.27-.7-.27c-.22,0-.48.09-.76.28s-.59.48-.91.89c-.32.41-.57.8-.76,1.17-.18.38-.33.83-.46,1.37l-.83,3.81h-1.52l1.28-5.57c.13-.56.19-1,.19-1.3,0-.23-.04-.4-.11-.51-.08-.11-.2-.16-.36-.16-.18,0-.37.07-.58.22s-.48.42-.83.81l-.5-.49c.52-.54.96-.93,1.33-1.18.37-.25.78-.37,1.23-.37h0ZM453.6,151.35h1.21l-.48,2.17h2.67l-.19.89h-2.67l-.78,3.41c-.15.66-.25,1.14-.29,1.43-.04.29-.06.52-.06.7,0,.73.3,1.09.91,1.09.26,0,.53-.1.82-.29s.63-.53,1.03-1.01l.51.53c-.51.62-1,1.07-1.47,1.36s-.97.44-1.48.44c-1.22,0-1.84-.62-1.84-1.85,0-.39.05-.81.15-1.24l1.04-4.56h-1.48l.13-.61c.35,0,.61-.03.79-.08.18-.05.33-.11.45-.19.12-.08.23-.2.33-.35.1-.15.2-.35.29-.58.09-.24.23-.65.42-1.24h0ZM448.6,149.3c.57,0,1.07.05,1.49.14l-.34,1.49h-.77c-.08-.33-.19-.57-.32-.72-.13-.15-.33-.22-.58-.22-.33,0-.62.09-.85.28-.23.18-.43.46-.59.82s-.32.85-.46,1.47l-.22.96h2.26l-.19.89h-2.27l-1.63,7.66c-.27,1.27-.68,2.22-1.24,2.84-.56.62-1.26.94-2.1.94-.25,0-.44-.01-.58-.04l.15-.77c.06.02.2.03.41.03.26,0,.49-.07.68-.2.19-.13.36-.37.52-.7.16-.33.31-.8.44-1.39l1.89-8.36h-1.49l.13-.61c.39-.02.68-.06.85-.1s.31-.1.4-.18.18-.19.25-.32.15-.37.26-.73c.31-1.05.79-1.85,1.44-2.38.65-.53,1.47-.8,2.47-.8h0Z"/>
    <path class="cls-16" d="M499.66,149.22l.24.68c-1.37.45-2.39,1.33-3.05,2.64s-.99,2.95-.99,4.94.33,3.74.99,5.07,1.67,2.22,3.02,2.67l-.21.68c-1.72-.45-3.03-1.42-3.95-2.91s-1.37-3.3-1.37-5.42.46-3.92,1.38-5.42,2.23-2.47,3.94-2.92h0Z"/>
    <path class="cls-16" d="M507.56,136.88c-.63,0-1.22.23-1.77.68s-1.03,1.1-1.44,1.93-.73,1.76-.96,2.76-.34,1.89-.34,2.65c0,1.81.66,2.72,1.98,2.72.81,0,1.56-.38,2.24-1.14s1.23-1.81,1.64-3.15.62-2.6.62-3.76c0-.87-.16-1.54-.48-2s-.82-.69-1.49-.69h0ZM507.65,136.1c1.13,0,2,.33,2.61.98s.92,1.61.92,2.85c0,.82-.13,1.74-.39,2.75s-.61,1.91-1.06,2.69-.97,1.4-1.57,1.88-1.24.8-1.94.98c.13.43.26.78.38,1.06s.23.5.34.68.22.3.32.39.21.14.32.17.23.04.37.04c.22,0,.45-.06.68-.19s.48-.35.76-.67l.46.49c-.47.51-.91.87-1.31,1.08s-.82.32-1.25.32c-.49,0-.88-.11-1.19-.33s-.57-.56-.8-1.04-.44-1.1-.65-1.86c-1.06-.06-1.87-.41-2.43-1.05s-.83-1.55-.83-2.72c0-.88.15-1.87.44-2.98s.72-2.08,1.28-2.93,1.23-1.49,2-1.92,1.62-.65,2.54-.65h0Z"/>
    <path class="cls-16" d="M513.38,136.24h3.7v.43c-.26.06-.44.13-.56.19s-.21.15-.27.24-.12.24-.15.44-.05.49-.05.9v3.23s.25,0,.25,0c.22,0,.43-.04.61-.11s.39-.2.62-.4.58-.55,1.05-1.08c.56-.63.95-1.08,1.15-1.36.26-.33.43-.62.52-.84.07-.17.11-.33.11-.49,0-.23-.07-.41-.2-.51s-.32-.17-.55-.2v-.43h3.83v.43c-.19.04-.37.11-.55.22s-.37.24-.56.42-.47.47-.84.88l-2.95,3.32,3.2,4.65c.34.49.61.84.8,1.03s.38.34.55.43.36.15.56.18v.43h-3.88v-.43c.22-.02.38-.06.47-.12s.15-.16.15-.29c0-.11-.03-.23-.1-.38s-.17-.33-.32-.54l-2.05-3.05c-.24-.36-.42-.6-.53-.72s-.23-.2-.36-.26-.3-.08-.52-.08h-.47v3.68c0,.39.01.68.04.86s.07.33.13.43.15.19.27.26.31.14.58.21v.43h-3.7v-.43c.36-.09.61-.2.73-.31s.2-.28.24-.49.06-.53.06-.97v-7.6c0-.4-.01-.7-.04-.88s-.08-.33-.15-.43-.16-.18-.27-.25-.3-.13-.57-.21v-.43Z"/>
    <path class="cls-16" d="M525.23,133.28h7.03l-.52,2.28h-.68v-.37c0-.07,0-.15,0-.24,0-.09-.02-.18-.03-.26-.01-.09-.03-.17-.05-.24-.02-.08-.04-.14-.06-.18-.03-.06-.06-.11-.09-.15-.03-.04-.07-.07-.12-.09-.05-.02-.11-.04-.18-.05-.07,0-.16-.01-.26-.01h-1.04l-1.33,5.88c-.05.2-.08.37-.1.51-.02.14-.03.27-.03.38,0,.09.02.16.04.22s.06.11.12.16c.06.04.13.08.23.1.09.02.22.04.37.05l-.09.39h-2.85l.08-.39c.11-.03.2-.05.28-.07.08-.02.14-.05.2-.08.06-.03.1-.08.15-.13.04-.06.08-.13.12-.23.04-.1.08-.22.12-.38.04-.15.08-.35.14-.57l1.3-5.83h-.89c-.14,0-.26,0-.36.01-.1,0-.19.03-.27.07-.08.04-.16.09-.23.15s-.14.15-.22.26-.16.25-.24.41c-.09.16-.19.36-.31.59h-.69l.48-2.18h0Z"/>
    <polygon class="cls-16" points="516.23 160.7 518.47 160.7 518.47 160.72 528.4 160.72 528.4 161.92 517.48 161.92 517.48 161.87 516.88 161.87 512.16 178.03 511.3 178.03 507.66 170.2 506.18 170.86 505.91 170.2 508.79 168.89 511.89 175.71 516.23 160.7 516.23 160.7"/>
    <path class="cls-16" d="M523.09,168.94c-.6,0-1.13.24-1.61.73s-.85,1.14-1.12,1.96-.41,1.64-.41,2.45c0,.61.08,1.06.25,1.37s.45.45.84.45c.18,0,.37-.04.55-.12s.38-.21.58-.38.4-.39.6-.64.38-.51.54-.76.32-.56.46-.91.26-.77.36-1.26l.08-.38c.09-.42.13-.82.13-1.2,0-.46-.1-.79-.29-1s-.52-.31-.97-.31h0ZM526.78,164.23h.52l-2.19,9.73c-.13.57-.19,1.01-.19,1.3,0,.23.04.4.11.51s.2.16.36.16c.18,0,.36-.07.56-.22s.48-.42.84-.82l.5.49c-.54.57-.99.97-1.36,1.2s-.77.35-1.2.35c-.36,0-.65-.12-.87-.36s-.33-.56-.33-.96c0-.32.07-.67.2-1.03l-.11-.04c-.56.82-1.1,1.42-1.6,1.8s-1.04.57-1.6.57c-.64,0-1.14-.24-1.5-.73s-.53-1.17-.53-2.05c0-1.01.2-1.98.59-2.9s.94-1.66,1.63-2.2,1.46-.8,2.31-.8c.36,0,.69.04.99.11s.61.2.93.38l.46-2.03c.05-.19.09-.41.12-.64s.05-.44.05-.62-.03-.31-.1-.4-.16-.16-.28-.2-.34-.07-.65-.09l.11-.46,2.21-.08h0Z"/>
    <polygon class="cls-16" points="500.2 156.16 516.94 156.16 533.68 156.16 533.68 157.36 516.94 157.36 500.2 157.36 500.2 156.16 500.2 156.16"/>
    <path class="cls-16" d="M534.25,149.22c1.71.45,3.02,1.43,3.94,2.92s1.38,3.3,1.38,5.42-.46,3.93-1.37,5.42-2.23,2.46-3.95,2.91l-.21-.68c1.35-.45,2.36-1.34,3.02-2.67s.99-3.02.99-5.07-.33-3.63-.98-4.94-1.67-2.19-3.05-2.64l.24-.68Z"/>
  </g>
  <g>
    <path class="cls-16" d="M419.14,61.61c-.61,0-1.14.25-1.6.76-.45.51-.81,1.24-1.07,2.19-.26.95-.39,1.77-.39,2.45,0,.64.13,1.12.4,1.43.27.31.67.46,1.21.46.57,0,1.08-.26,1.53-.77s.8-1.24,1.05-2.17.39-1.74.39-2.45c0-.63-.12-1.11-.37-1.43s-.63-.48-1.15-.48h0ZM387.07,61.59c-.59,0-1.16.3-1.71.9s-.97,1.41-1.26,2.43c.83,0,1.54-.08,2.13-.22.59-.14,1.05-.37,1.36-.69s.47-.74.47-1.27c0-.36-.08-.64-.25-.84s-.41-.3-.74-.3h0ZM411.47,60.97h.52l-1.27,5.64c-.13.57-.19,1.01-.19,1.3,0,.23.04.4.11.51s.2.16.36.16c.18,0,.36-.07.56-.22s.48-.42.84-.82l.5.49c-.57.6-1.04,1.01-1.4,1.23s-.76.33-1.2.33c-.38,0-.69-.14-.91-.42s-.34-.63-.34-1.07.08-1.01.25-1.71l.66-2.87c.13-.59.2-1.03.2-1.32,0-.26-.06-.44-.19-.54s-.37-.15-.74-.16l.1-.47,2.14-.08h0ZM419.32,60.9c.94,0,1.65.26,2.14.77s.74,1.25.74,2.2c0,.68-.12,1.41-.36,2.18s-.56,1.42-.98,1.95-.91.92-1.48,1.19c-.57.27-1.23.4-1.98.4-.91,0-1.61-.25-2.11-.76s-.75-1.24-.75-2.2c0-.47.07-1.01.21-1.63.18-.83.49-1.56.91-2.18s.96-1.1,1.58-1.43,1.32-.5,2.07-.5h0ZM425.95,60.89c.37,0,.66.12.87.36s.32.56.32.95c0,.31-.07.66-.21,1.04l.11.04c.57-.81,1.12-1.41,1.64-1.8s1.05-.58,1.6-.58.96.16,1.26.47c.29.31.44.75.44,1.31,0,.37-.08.89-.25,1.57l-.57,2.3c-.16.64-.24,1.09-.24,1.35,0,.23.04.4.11.51.08.11.2.16.36.16.18,0,.36-.07.56-.22.2-.14.48-.42.84-.82l.5.49c-.5.54-.94.93-1.32,1.18-.37.25-.8.37-1.28.37-.38,0-.69-.14-.91-.41s-.34-.62-.34-1.04c0-.38.1-.94.29-1.68l.39-1.52c.14-.55.23-.96.28-1.22s.07-.48.07-.64c0-.4-.07-.7-.2-.87-.13-.18-.35-.27-.66-.27-.25,0-.51.1-.8.29-.28.2-.59.49-.91.89-.32.4-.58.78-.77,1.15s-.35.83-.47,1.38l-.83,3.81h-1.52l1.28-5.57c.13-.56.19-1,.19-1.3,0-.23-.04-.4-.11-.51s-.2-.16-.36-.16c-.18,0-.37.07-.58.22s-.48.42-.83.81l-.5-.49c.54-.56.99-.96,1.34-1.2s.76-.36,1.21-.36h0ZM393.07,60.89c.37,0,.66.12.87.36s.32.56.32.95c0,.31-.07.66-.21,1.04l.11.04c.57-.81,1.12-1.41,1.64-1.8s1.05-.58,1.6-.58.96.16,1.26.47.44.75.44,1.31c0,.37-.08.89-.25,1.57l-.57,2.3c-.16.64-.24,1.09-.24,1.35,0,.23.04.4.11.51s.2.16.36.16c.18,0,.36-.07.56-.22s.48-.42.84-.82l.5.49c-.5.54-.94.93-1.32,1.18s-.8.37-1.28.37c-.38,0-.69-.14-.91-.41s-.34-.62-.34-1.04c0-.38.1-.94.29-1.68l.39-1.52c.14-.55.23-.96.28-1.22s.07-.48.07-.64c0-.4-.07-.7-.2-.87s-.35-.27-.66-.27c-.25,0-.51.1-.8.29s-.59.49-.91.89-.58.78-.77,1.15-.35.83-.47,1.38l-.83,3.81h-1.52l1.28-5.57c.13-.56.19-1,.19-1.3,0-.23-.04-.4-.11-.51s-.2-.16-.36-.16c-.18,0-.37.07-.58.22s-.48.42-.83.81l-.5-.49c.54-.56.99-.96,1.34-1.2s.76-.36,1.21-.36h0ZM387.39,60.89c.71,0,1.24.14,1.6.43s.53.74.53,1.34c0,1-.47,1.74-1.4,2.24s-2.32.75-4.16.75c-.07.35-.11.73-.11,1.14,0,.62.12,1.06.36,1.34s.63.42,1.18.42,1.03-.12,1.46-.35.9-.59,1.38-1.08l.54.57c-.57.63-1.14,1.1-1.73,1.42-.58.32-1.26.47-2.03.47-.85,0-1.51-.26-1.97-.78s-.7-1.24-.7-2.17c0-.63.11-1.3.34-2.02.23-.72.57-1.36,1.02-1.93.46-.57,1-1.01,1.64-1.33s1.32-.47,2.04-.47h0ZM363.22,59.16l-3.13,5.54h3.44l-.15-2.83c-.02-.39-.03-.87-.04-1.45s-.02-1-.02-1.26h-.1ZM404.06,58.87h1.21l-.48,2.17h2.67l-.19.89h-2.67l-.78,3.41c-.15.66-.25,1.14-.29,1.43s-.06.52-.06.7c0,.73.3,1.09.91,1.09.26,0,.53-.1.82-.29s.63-.53,1.03-1.01l.51.53c-.51.62-1,1.07-1.47,1.36s-.97.44-1.48.44c-1.22,0-1.84-.62-1.84-1.85,0-.39.05-.81.15-1.24l1.04-4.56h-1.48l.13-.61c.35,0,.61-.03.79-.08s.33-.11.45-.19.23-.2.33-.35.2-.35.29-.58.23-.65.42-1.24h0ZM377.78,58.87h1.21l-.48,2.17h2.67l-.19.89h-2.67l-.78,3.41c-.15.66-.25,1.14-.29,1.43s-.06.52-.06.7c0,.73.3,1.09.91,1.09.26,0,.53-.1.82-.29s.63-.53,1.03-1.01l.51.53c-.51.62-1,1.07-1.47,1.36s-.97.44-1.48.44c-1.22,0-1.84-.62-1.84-1.85,0-.39.05-.81.15-1.24l1.04-4.56h-1.48l.13-.61c.35,0,.61-.03.79-.08s.33-.11.45-.19.23-.2.33-.35c.1-.15.2-.35.29-.58.09-.24.23-.65.42-1.24h0ZM370.7,58.87h1.21l-.48,2.17h2.67l-.19.89h-2.67l-.78,3.41c-.15.66-.25,1.14-.29,1.43-.04.29-.06.52-.06.7,0,.73.3,1.09.91,1.09.26,0,.53-.1.82-.29.29-.2.63-.53,1.03-1.01l.51.53c-.51.62-1,1.07-1.47,1.36-.47.29-.97.44-1.48.44-1.22,0-1.84-.62-1.84-1.85,0-.39.05-.81.15-1.24l1.04-4.56h-1.48l.13-.61c.35,0,.61-.03.79-.08s.33-.11.45-.19.23-.2.33-.35.2-.35.29-.58c.09-.24.23-.65.42-1.24h0ZM411.23,57.6h1.56l-.4,1.71h-1.56l.4-1.71h0ZM363.27,57.31h1.33l.63,9.8c.03.46.08.82.16,1.09s.18.45.31.58.32.21.58.24l-.1.43h-3.66l.1-.43c.35-.03.6-.16.77-.4s.25-.66.25-1.27c0-.23,0-.48-.03-.75l-.06-1.13h-3.87l-.48.86c-.23.4-.4.75-.5,1.04s-.16.55-.16.77c0,.49.3.79.89.88l-.1.43h-3.59l.1-.43c.18-.02.35-.1.51-.22s.33-.3.51-.54.44-.65.76-1.21l5.63-9.74Z"/>
    <path class="cls-16" d="M440.21,65.54h10.83v1.17h-10.83v-1.17h0ZM440.21,61.9h10.83v1.17h-10.83v-1.17h0Z"/>
    <path class="cls-16" d="M475.3,61.61c-.61,0-1.14.25-1.6.76s-.81,1.24-1.07,2.19-.39,1.77-.39,2.45c0,.64.13,1.12.4,1.43s.67.46,1.21.46c.57,0,1.08-.26,1.53-.77s.8-1.24,1.05-2.17.39-1.74.39-2.45c0-.63-.12-1.11-.37-1.43s-.63-.48-1.15-.48h0ZM517.13,61.59c-.6,0-1.15.24-1.63.73-.48.49-.86,1.14-1.12,1.96-.27.82-.4,1.63-.4,2.45,0,.61.08,1.06.25,1.37s.45.45.84.45.77-.17,1.14-.5c.37-.33.76-.81,1.15-1.43s.68-1.33.84-2.14l.08-.38c.05-.24.09-.45.11-.62s.03-.37.03-.57c0-.45-.1-.78-.29-.99s-.52-.32-.98-.32h0ZM475.48,60.9c.94,0,1.65.26,2.14.77s.74,1.25.74,2.2c0,.68-.12,1.41-.36,2.18s-.56,1.42-.98,1.95-.91.92-1.48,1.19-1.23.4-1.98.4c-.91,0-1.61-.25-2.11-.76s-.75-1.24-.75-2.2c0-.47.07-1.01.21-1.63.18-.83.49-1.56.91-2.18s.96-1.1,1.58-1.43,1.32-.5,2.07-.5h0ZM466.36,60.9c.54,0,1.04.03,1.49.1s.9.18,1.34.33l-.4,1.85h-.71c-.06-.52-.24-.92-.51-1.19s-.72-.4-1.31-.4c-.46,0-.84.12-1.12.36s-.43.55-.43.94c0,.21.04.4.11.56s.22.34.44.53.57.43,1.04.71c.37.22.67.43.89.61s.4.37.53.55.22.37.28.58.09.45.09.73c0,.52-.14.97-.42,1.34s-.66.65-1.13.83-1.02.27-1.63.27c-.49,0-.96-.04-1.43-.11s-.99-.2-1.56-.37l.42-1.92h.69c.02.56.18.99.47,1.27s.76.43,1.4.43c.56,0,.99-.12,1.31-.37s.47-.6.47-1.06c0-.26-.04-.49-.13-.68s-.23-.37-.43-.55-.52-.4-.95-.66c-.46-.28-.81-.52-1.07-.75s-.45-.46-.58-.73-.19-.56-.19-.9c0-.46.12-.87.37-1.22s.6-.62,1.07-.8,1-.28,1.62-.28h0ZM525.05,60.89c.18,0,.34.02.48.06s.26.1.36.19.2.19.28.33.16.32.24.55.15.52.22.86.13.7.18,1.07h.09c.56-.79.99-1.37,1.28-1.74s.53-.64.73-.82.39-.3.58-.38.43-.11.73-.11c.28,0,.5.04.68.11l-.35,1.59h-.62c-.04-.25-.14-.37-.31-.37-.05,0-.11,0-.17.03s-.13.06-.22.11-.21.17-.37.34-.35.38-.55.62-.42.5-.63.77l-.6.75c.11.56.21,1.05.3,1.46s.18.75.25,1.02.14.49.19.65.12.28.18.36.13.13.2.17.15.05.23.05c.16,0,.31-.06.46-.18s.36-.4.65-.83l.57.38c-.41.61-.78,1.04-1.11,1.29s-.73.37-1.18.37c-.25,0-.47-.05-.64-.14s-.33-.24-.46-.44-.24-.51-.34-.93c-.18-.75-.29-1.32-.33-1.72h-.09c-.62.87-1.08,1.5-1.38,1.88s-.55.66-.75.84-.39.31-.57.38-.43.11-.73.11c-.28,0-.5-.04-.68-.11l.35-1.59h.62c.04.25.14.37.31.37.08,0,.17-.02.26-.07s.22-.15.39-.32.4-.43.7-.79.73-.89,1.3-1.61c-.09-.46-.18-.91-.27-1.34s-.19-.83-.29-1.2-.18-.61-.25-.73-.13-.19-.21-.24-.17-.07-.28-.07c-.12,0-.23.03-.33.08s-.21.15-.33.29-.27.35-.47.65l-.57-.38c.37-.56.72-.97,1.06-1.25s.74-.41,1.2-.41h0ZM516.96,60.89c.38,0,.74.04,1.07.13.33.08.67.24,1.02.45l.81-.58.56.14-1.29,5.57c-.13.56-.19.99-.19,1.3,0,.23.04.4.11.51.08.11.2.16.36.16.18,0,.36-.07.56-.22.2-.14.48-.42.84-.82l.5.49c-.53.56-.98.96-1.35,1.2-.37.24-.77.36-1.21.36-.36,0-.65-.12-.87-.36-.22-.24-.33-.56-.33-.96,0-.32.07-.67.2-1.03l-.11-.04c-.56.82-1.1,1.42-1.6,1.8-.5.38-1.04.57-1.6.57-.64,0-1.14-.24-1.5-.73s-.53-1.17-.53-2.05c0-1.01.2-1.98.59-2.9s.94-1.66,1.63-2.2c.69-.54,1.46-.8,2.31-.8h0ZM499.15,60.89c.37,0,.66.12.87.36.21.24.32.56.32.95,0,.32-.07.67-.2,1.03l.11.04c.54-.8,1.08-1.4,1.61-1.79s1.07-.58,1.62-.58.99.16,1.28.48c.29.32.44.78.44,1.38v.12s0,.08,0,.13c.5-.71,1.01-1.25,1.51-1.6s1.02-.52,1.56-.52.96.16,1.25.47c.29.31.44.75.44,1.31,0,.37-.08.89-.25,1.57l-.57,2.3c-.16.64-.24,1.09-.24,1.35,0,.23.04.4.11.51s.2.16.36.16c.18,0,.36-.07.56-.22s.48-.42.84-.82l.5.49c-.5.53-.94.93-1.32,1.18-.37.25-.8.38-1.28.38-.38,0-.69-.14-.91-.41s-.34-.62-.34-1.04c0-.38.1-.94.29-1.68l.39-1.52c.14-.55.23-.96.28-1.22s.07-.48.07-.64c0-.4-.07-.7-.2-.87s-.35-.27-.66-.27c-.25,0-.51.09-.79.28s-.58.47-.89.86-.56.77-.76,1.15-.35.84-.47,1.38l-.8,3.84h-1.52l1.01-4.46c.12-.54.21-.95.25-1.21s.07-.48.07-.67c0-.42-.07-.72-.22-.9s-.38-.27-.7-.27c-.22,0-.48.09-.76.28s-.59.48-.91.89c-.32.41-.57.8-.76,1.17-.18.38-.33.83-.46,1.37l-.83,3.81h-1.52l1.28-5.57c.13-.56.19-1,.19-1.3,0-.23-.04-.4-.11-.51-.08-.11-.2-.16-.36-.16-.18,0-.37.07-.58.22s-.48.42-.83.81l-.5-.49c.52-.54.96-.93,1.33-1.18.37-.25.78-.37,1.23-.37h0ZM492.62,58.87h1.21l-.48,2.17h2.67l-.19.89h-2.67l-.78,3.41c-.15.66-.25,1.14-.29,1.43-.04.29-.06.52-.06.7,0,.73.3,1.09.91,1.09.26,0,.53-.1.82-.29s.63-.53,1.03-1.01l.51.53c-.51.62-1,1.07-1.47,1.36s-.97.44-1.48.44c-1.22,0-1.84-.62-1.84-1.85,0-.39.05-.81.15-1.24l1.04-4.56h-1.48l.13-.61c.35,0,.61-.03.79-.08.18-.05.33-.11.45-.19.12-.08.23-.2.33-.35.1-.15.2-.35.29-.58.09-.24.23-.65.42-1.24h0ZM487.62,56.83c.57,0,1.07.05,1.49.14l-.34,1.49h-.77c-.08-.33-.19-.57-.32-.72s-.33-.22-.58-.22c-.33,0-.62.09-.85.28s-.43.46-.59.82-.32.85-.46,1.47l-.22.96h2.26l-.19.89h-2.27l-1.63,7.66c-.27,1.27-.68,2.22-1.24,2.84s-1.26.94-2.1.94c-.25,0-.44-.01-.58-.04l.15-.77c.06.02.2.03.41.03.26,0,.49-.07.68-.2s.36-.37.52-.7.31-.8.44-1.39l1.89-8.36h-1.49l.13-.61c.39-.02.68-.06.85-.1s.31-.1.4-.18.18-.19.25-.32.15-.37.26-.73c.31-1.05.79-1.85,1.44-2.38s1.47-.8,2.47-.8h0Z"/>
    <path class="cls-16" d="M579.57,41.35c2.41,2.06,4.32,5.14,5.73,9.23s2.12,8.65,2.12,13.69-.71,9.52-2.12,13.67-3.33,7.25-5.73,9.3l-.41-.65c2.08-2.12,3.68-5.18,4.81-9.18s1.69-8.38,1.69-13.13-.57-9.25-1.7-13.19-2.73-6.96-4.8-9.08l.41-.66ZM544.11,41.35l.41.66c-2.07,2.12-3.68,5.14-4.8,9.08s-1.69,8.33-1.69,13.19.56,9.12,1.69,13.13,2.73,7.07,4.81,9.18l-.41.65c-2.41-2.05-4.32-5.15-5.73-9.3s-2.12-8.71-2.12-13.67.71-9.6,2.12-13.69,3.33-7.17,5.73-9.23h0Z"/>
    <path class="cls-16" d="M552.46,44.4c-.63,0-1.22.23-1.77.68s-1.03,1.1-1.44,1.93-.73,1.76-.96,2.76-.34,1.89-.34,2.65c0,1.81.66,2.72,1.98,2.72.81,0,1.56-.38,2.24-1.14s1.23-1.81,1.64-3.15.62-2.6.62-3.76c0-.87-.16-1.54-.48-2s-.82-.69-1.49-.69h0ZM552.55,43.63c1.13,0,2,.33,2.61.98s.92,1.61.92,2.85c0,.82-.13,1.74-.39,2.75s-.61,1.91-1.06,2.69-.97,1.4-1.57,1.88-1.24.8-1.94.98c.13.43.26.78.38,1.06s.23.5.34.68.22.3.32.39.21.14.32.17.23.04.37.04c.22,0,.45-.06.68-.19s.48-.35.76-.67l.46.49c-.47.51-.91.87-1.31,1.08s-.82.32-1.25.32c-.49,0-.88-.11-1.19-.33s-.57-.56-.8-1.04-.44-1.1-.65-1.86c-1.06-.06-1.87-.41-2.43-1.05s-.83-1.55-.83-2.72c0-.88.15-1.87.44-2.98s.72-2.08,1.28-2.93,1.23-1.49,2-1.92,1.62-.65,2.54-.65h0Z"/>
    <path class="cls-16" d="M558.28,43.77h3.7v.43c-.26.06-.44.13-.56.19s-.21.15-.27.24-.12.24-.15.44-.05.49-.05.9v3.23s.25,0,.25,0c.22,0,.43-.04.61-.11s.39-.2.62-.4.58-.55,1.05-1.08c.56-.63.95-1.08,1.15-1.36.26-.33.43-.62.52-.84.07-.17.11-.33.11-.49,0-.23-.07-.41-.2-.51s-.32-.17-.55-.2v-.43h3.83v.43c-.19.04-.37.11-.55.22s-.37.24-.56.42-.47.47-.84.88l-2.95,3.32,3.2,4.65c.34.49.61.84.8,1.03s.38.34.55.43.36.15.56.18v.43h-3.88v-.43c.22-.02.38-.06.47-.12s.15-.16.15-.29c0-.11-.03-.23-.1-.38s-.17-.33-.32-.54l-2.05-3.05c-.24-.36-.42-.6-.53-.72s-.23-.2-.36-.26-.3-.08-.52-.08h-.47v3.68c0,.39.01.68.04.86s.07.33.13.43.15.19.27.26.31.14.58.21v.43h-3.7v-.43c.36-.09.61-.2.73-.31s.2-.28.24-.49.06-.53.06-.97v-7.6c0-.4-.01-.7-.04-.88s-.08-.33-.15-.43-.16-.18-.27-.25-.3-.13-.57-.21v-.43Z"/>
    <path class="cls-16" d="M570.13,40.81h7.03l-.52,2.28h-.68v-.37c0-.07,0-.15,0-.24,0-.09-.02-.18-.03-.26-.01-.09-.03-.17-.05-.24-.02-.08-.04-.14-.06-.18-.03-.06-.06-.11-.09-.15-.03-.04-.07-.07-.12-.09-.05-.02-.11-.04-.18-.05-.07,0-.16-.01-.26-.01h-1.04l-1.33,5.88c-.05.2-.08.37-.1.51s-.03.27-.03.38c0,.09.02.16.04.22s.06.11.12.16c.06.04.13.08.23.1.09.02.22.04.37.05l-.09.39h-2.85l.08-.39c.11-.03.2-.05.28-.07.08-.02.14-.05.2-.08s.1-.08.15-.13c.04-.06.08-.13.12-.23.04-.1.08-.22.12-.38.04-.15.08-.35.14-.57l1.3-5.83h-.89c-.14,0-.26,0-.36.01-.1,0-.19.03-.27.07-.08.04-.16.09-.23.15s-.14.15-.22.26-.16.25-.24.41-.19.36-.31.59h-.69l.48-2.18h0Z"/>
    <polygon class="cls-16" points="561.02 68.23 563.26 68.23 563.26 68.25 573.18 68.25 573.18 69.45 562.26 69.45 562.26 69.4 561.67 69.4 556.94 85.55 556.08 85.55 552.45 77.73 550.96 78.39 550.69 77.73 553.57 76.41 556.67 83.23 561.02 68.23 561.02 68.23"/>
    <path class="cls-16" d="M567.88,76.47c-.6,0-1.13.24-1.61.73s-.85,1.14-1.12,1.96-.41,1.64-.41,2.45c0,.61.08,1.06.25,1.37s.45.45.84.45c.18,0,.37-.04.55-.12s.38-.21.58-.38.4-.39.6-.64.38-.51.54-.76.32-.56.46-.91.26-.77.36-1.26l.08-.38c.09-.42.13-.82.13-1.2,0-.46-.1-.79-.29-1s-.52-.31-.97-.31h0ZM571.56,71.76h.52l-2.19,9.73c-.13.57-.19,1.01-.19,1.3,0,.23.04.4.11.51s.2.16.36.16c.18,0,.36-.07.56-.22s.48-.42.84-.82l.5.49c-.54.57-.99.97-1.36,1.2s-.77.35-1.2.35c-.36,0-.65-.12-.87-.36s-.33-.56-.33-.96c0-.32.07-.67.2-1.03l-.11-.04c-.56.82-1.1,1.42-1.6,1.8s-1.04.57-1.6.57c-.64,0-1.14-.24-1.5-.73s-.53-1.17-.53-2.05c0-1.01.2-1.98.59-2.9s.94-1.66,1.63-2.2,1.46-.8,2.31-.8c.36,0,.69.04.99.11s.61.2.93.38l.46-2.03c.05-.19.09-.41.12-.64s.05-.44.05-.62-.03-.31-.1-.4-.16-.16-.28-.2-.34-.07-.65-.09l.11-.46,2.21-.08h0Z"/>
    <polygon class="cls-16" points="545.1 63.69 578.58 63.69 578.58 64.89 545.1 64.89 545.1 63.69 545.1 63.69"/>
    <path class="cls-16" d="M592.83,57.45h3.64l-.1.43c-.26.03-.46.11-.6.23s-.24.29-.3.51-.09.51-.09.88c0,.09,0,.35.03.79l.25,6.43v.7h.09l3.81-6.86c.22-.4.39-.75.5-1.04s.17-.55.17-.77c0-.49-.29-.79-.88-.88l.1-.43h3.59l-.1.43c-.16.02-.31.08-.45.18s-.3.26-.48.48-.46.66-.83,1.31l-5.62,9.74h-1.17l-.59-9.8c-.02-.38-.07-.71-.13-.98s-.16-.48-.29-.64-.34-.25-.63-.29l.1-.43Z"/>
  </g>
  <path class="cls-15" d="M286.71,356.88c0-1.26.17-2.36.51-3.29.34-.93.92-1.94,1.72-3.03h.82c-.81,1.1-1.39,2.12-1.74,3.06s-.52,2.04-.52,3.27.17,2.32.52,3.27.93,1.97,1.74,3.08h-.82c-.79-1.06-1.36-2.06-1.71-3.01-.35-.95-.53-2.06-.53-3.35Z"/>
  <path class="cls-15" d="M297.92,360.53l-5.77-8.58c.04.74.06,1.33.06,1.78v6.8h-.86v-9.66h1.08l5.81,8.65c-.05-.64-.08-1.29-.08-1.93v-6.72h.88v9.66h-1.12Z"/>
  <path class="cls-15" d="M302.33,360.24c0,.41-.03.75-.1,1.04-.06.28-.17.57-.33.85h-.62c.34-.55.51-1.08.51-1.59h-.45v-1.19h.99v.89Z"/>
  <g>
    <path class="cls-15" d="M316.22,355.6c0,1.01-.19,1.88-.57,2.63-.38.75-.91,1.32-1.61,1.71-.7.39-1.5.59-2.42.59h-3v-9.66h2.67c1.6,0,2.83.4,3.66,1.21s1.26,1.98,1.26,3.52ZM315.29,355.6c0-2.63-1.34-3.94-4.02-3.94h-1.72v8.1h1.97c1.18,0,2.1-.36,2.77-1.09.67-.73,1-1.75,1-3.06Z"/>
    <path class="cls-15" d="M320.36,356.9c0,1.23-.17,2.32-.51,3.26s-.92,1.96-1.73,3.08h-.81c.81-1.1,1.39-2.12,1.74-3.06s.52-2.04.52-3.27-.17-2.31-.52-3.26c-.35-.95-.93-1.97-1.74-3.08h.81c.8,1.08,1.38,2.09,1.72,3.04.34.94.52,2.04.52,3.3Z"/>
  </g>
  <path class="cls-15" d="M283.85,278.05c0-1.26.17-2.36.51-3.29.34-.93.92-1.94,1.72-3.03h.82c-.81,1.1-1.39,2.12-1.74,3.06s-.52,2.04-.52,3.27.17,2.32.52,3.27.93,1.97,1.74,3.08h-.82c-.79-1.06-1.36-2.06-1.71-3.01-.35-.95-.53-2.06-.53-3.35Z"/>
  <path class="cls-15" d="M295.07,281.7l-5.77-8.58c.04.74.06,1.33.06,1.78v6.8h-.86v-9.66h1.08l5.81,8.65c-.05-.64-.08-1.29-.08-1.93v-6.72h.88v9.66h-1.12Z"/>
  <path class="cls-15" d="M299.48,281.4c0,.41-.03.75-.1,1.04-.06.28-.17.57-.33.85h-.62c.34-.55.51-1.08.51-1.59h-.45v-1.19h.99v.89Z"/>
  <path class="cls-15" d="M312.35,281.7l-5.77-8.58c.04.74.06,1.33.06,1.78v6.8h-.86v-9.66h1.08l5.81,8.65c-.05-.64-.08-1.29-.08-1.93v-6.72h.88v9.66h-1.12Z"/>
  <path class="cls-15" d="M318.1,278.07c0,1.23-.17,2.32-.51,3.26-.34.94-.92,1.96-1.73,3.08h-.81c.81-1.1,1.39-2.12,1.74-3.06s.52-2.04.52-3.27-.17-2.31-.52-3.26c-.35-.95-.93-1.97-1.74-3.08h.81c.8,1.08,1.38,2.09,1.72,3.04.34.94.52,2.04.52,3.3Z"/>
  <path class="cls-15" d="M284.34,153.6c0-1.26.17-2.36.51-3.29.34-.93.92-1.94,1.72-3.03h.82c-.81,1.1-1.39,2.12-1.74,3.06-.35.94-.52,2.04-.52,3.27s.17,2.32.52,3.27c.35.94.93,1.97,1.74,3.08h-.82c-.79-1.06-1.35-2.06-1.71-3.01-.35-.95-.53-2.06-.53-3.35Z"/>
  <path class="cls-15" d="M295.56,157.25l-5.77-8.58c.04.74.06,1.33.06,1.78v6.8h-.86v-9.66h1.08l5.81,8.64c-.05-.64-.08-1.29-.08-1.93v-6.72h.88v9.66h-1.12Z"/>
  <path class="cls-15" d="M299.97,156.96c0,.41-.03.75-.1,1.04-.06.28-.17.57-.33.85h-.62c.34-.55.51-1.08.51-1.59h-.45v-1.19h.99v.89Z"/>
  <path class="cls-15" d="M312.84,157.25l-5.77-8.58c.04.74.06,1.33.06,1.78v6.8h-.86v-9.66h1.08l5.81,8.64c-.05-.64-.08-1.29-.08-1.93v-6.72h.88v9.66h-1.12Z"/>
  <path class="cls-15" d="M318.59,153.63c0,1.23-.17,2.32-.51,3.26-.34.94-.92,1.96-1.73,3.08h-.81c.81-1.1,1.39-2.12,1.74-3.06.35-.94.52-2.03.52-3.27s-.17-2.31-.52-3.26-.93-1.97-1.74-3.08h.81c.8,1.08,1.38,2.1,1.72,3.04.34.94.52,2.04.52,3.3Z"/>
  <path class="cls-15" d="M380.67,31.13c0-1.26.17-2.36.52-3.29.34-.93.92-1.94,1.72-3.03h.81c-.81,1.1-1.39,2.12-1.74,3.06-.35.94-.52,2.04-.52,3.27s.17,2.32.52,3.27c.35.94.93,1.97,1.74,3.08h-.81c-.79-1.06-1.36-2.06-1.71-3.01-.35-.95-.53-2.06-.53-3.35Z"/>
  <path class="cls-15" d="M391.88,34.78l-5.77-8.58c.04.74.06,1.33.06,1.78v6.8h-.86v-9.66h1.08l5.81,8.64c-.05-.64-.08-1.29-.08-1.93v-6.72h.88v9.66h-1.12Z"/>
  <path class="cls-15" d="M396.3,34.49c0,.41-.03.75-.1,1.04s-.17.57-.33.85h-.62c.34-.55.51-1.08.51-1.59h-.45v-1.19h.99v.89Z"/>
  <g>
    <path class="cls-15" d="M410.19,29.84c0,1.01-.19,1.88-.56,2.63-.38.75-.91,1.32-1.61,1.71-.7.39-1.5.59-2.42.59h-3v-9.66h2.67c1.6,0,2.83.4,3.66,1.21.84.8,1.26,1.98,1.26,3.52ZM409.26,29.84c0-2.63-1.34-3.94-4.03-3.94h-1.72v8.1h1.97c1.18,0,2.1-.37,2.77-1.09.67-.73,1-1.75,1-3.06Z"/>
    <path class="cls-15" d="M414.33,31.15c0,1.23-.17,2.32-.51,3.26-.34.94-.92,1.96-1.73,3.08h-.81c.81-1.1,1.39-2.12,1.74-3.06.35-.94.52-2.03.52-3.27s-.17-2.31-.52-3.26-.93-1.97-1.74-3.08h.81c.8,1.08,1.38,2.1,1.72,3.04.34.94.52,2.04.52,3.3Z"/>
  </g>
  <rect class="cls-23" x="6.54" y="235.76" width="115.8" height="36" rx="8.25" ry="8.25"/>
  <rect class="cls-3" x="6.54" y="235.76" width="115.8" height="36" rx="8.25" ry="8.25"/>
  <path class="cls-15" d="M13.91,254.65v-3.88h-1.24c-.5,0-.95.04-1.33.11v-1.08c.29.07.73.11,1.33.11h1.24v-2.37c0-.64-.04-1.1-.11-1.39l1.44.24c.08.04.12.09.12.15,0,.05-.03.1-.09.17-.24.21-.36.49-.36.85v2.36h.25c.62,0,1.1-.04,1.42-.11v1.08c-.43-.08-.91-.11-1.42-.11h-.25v3.45c.46-.25.94-.52,1.44-.81,0,.02,0,.06-.02.11-.07.36-.13.74-.17,1.13-.46.18-.88.37-1.26.59v5.46c.02.63-.12,1.04-.43,1.22-.29.22-.96.37-2.01.47-.06-.4-.26-.86-.58-1.36.46.04.83.05,1.11.05s.48-.02.59-.05c.24-.06.35-.29.32-.69v-4.67c-.8.35-1.53.74-2.17,1.17-.21-.32-.47-.7-.8-1.13,1.15-.32,2.14-.68,2.97-1.07ZM15.95,252.27c1.83-.47,3.27-1.5,4.32-3.09h-2.23c-.56,0-1,.04-1.33.11v-1.08c.26.08.7.11,1.31.11h2.65c.26-.74.42-1.55.46-2.42l1.33.25c.19.04.29.08.29.12.01.04-.06.11-.2.22-.21.14-.34.33-.4.57-.13.46-.27.87-.41,1.25h3.62c.57,0,1.04-.04,1.41-.11v1.08c-.38-.07-.84-.11-1.41-.11h-1.91c1.29,1.76,2.77,2.72,4.43,2.87-.42.29-.72.67-.91,1.13-2.05-.83-3.58-2.17-4.59-4h-.98c-.68,1.28-1.92,2.49-3.71,3.62.38.04.76.07,1.16.11h2.07v-.63c0-.55-.04-1.02-.11-1.41l1.2.24c.15.02.23.06.25.11,0,.01,0,.03,0,.04,0,.05-.04.12-.12.19-.21.12-.3.41-.26.88v.58h2.12c.65,0,1.16-.04,1.53-.11-.07.39-.11.94-.11,1.63v2.72c0,.66.04,1.17.11,1.53-.44-.07-.94-.11-1.51-.11h-2.14v1.44c-.01.46.04.72.14.79.07.09.39.15.96.16.13,0,.32,0,.56,0,.72,0,1.35-.06,1.88-.18.36-.08.64-.74.84-1.96.53.43.91.66,1.13.69-.38,1.48-1.04,2.24-1.98,2.29-.61.07-1.44.11-2.5.12-.9.02-1.45-.07-1.67-.29-.25-.18-.37-.67-.34-1.46v-1.6h-1.87c-.65,0-1.18.04-1.58.11.07-.46.11-.96.11-1.49v-3.01c-.02-.54-.05-.95-.09-1.24l-.65.36c-.15-.32-.45-.67-.88-1.03ZM20.92,255.22v-1.42h-2.34v1.42h2.34ZM20.92,257.67v-1.59h-2.34v1.59h2.34ZM24.42,255.22v-1.42h-2.53v1.42h2.53ZM24.42,257.67v-1.59h-2.53v1.59h2.53Z"/>
  <path class="cls-15" d="M28.96,255.56c1.9-1.71,3.11-4.02,3.63-6.95h-1.53c-.4.02-.9.06-1.48.11v-1.12c.56.07,1.05.11,1.48.11h3.67c.32-.01.83-.05,1.51-.11v1.12c-.66-.08-1.17-.11-1.51-.11h-1.06c-.26,1.35-.66,2.69-1.19,4.03h1.67c.38,0,.94-.04,1.7-.11-.06.53-.09,1.03-.11,1.51v4.91c.01.39.05.96.11,1.71h-1.2c.04-.32.06-.71.09-1.2h-2.45v.22c.01.38.05.86.11,1.46h-1.23c.08-.65.11-1.14.11-1.46v-4.95c-.21.35-.57.86-1.08,1.55-.32-.38-.74-.62-1.24-.74ZM32.28,253.55v5.04h2.45v-5.04h-2.45ZM36.52,258.57v-1.12c.6.06,1.11.09,1.55.11h3.44c.39,0,.89-.04,1.51-.11v1.12c-.62-.06-1.12-.09-1.51-.11h-3.44c-.35,0-.87.04-1.55.11ZM43.97,246.94c-.15.74-.26,1.48-.34,2.2-.18,1.89-.31,3.66-.4,5.29h.48c.41,0,.94-.04,1.58-.11-.07.61-.15,1.62-.24,3.02-.09,1.55-.18,2.57-.25,3.08.09,1.04-.88,1.7-2.94,1.96-.08-.54-.31-1-.69-1.39.45.05.81.07,1.09.07.46,0,.8-.05,1-.16.35-.13.54-.5.59-1.12.02-.24.12-1.62.29-4.14.01-.15.02-.26.02-.33h-4.9c-.25,0-.82.04-1.71.11.02-.11.05-.28.09-.49.09-.47.15-.79.16-.97l.34-3.19c.05-.56.08-1.04.08-1.44,0-.13,0-.26,0-.38l1.35.29c.17.04.26.07.27.11.02.04-.03.1-.15.17-.28.11-.45.56-.52,1.35l-.4,3.54h3.37l.5-6.5h-4.33c-.45.01-.95.05-1.51.11v-1.12c.66.07,1.16.11,1.51.11h3.88c.3,0,.88-.03,1.75-.09Z"/>
  <path class="cls-15" d="M62.77,262.78h-1c-1.93-2.24-2.89-5-2.89-8.27s.98-6.21,2.93-8.44h1c-1.99,2.3-2.98,5.1-2.98,8.42,0,3.14.98,5.9,2.94,8.29Z"/>
  <g>
    <path class="cls-15" d="M81.45,246.78v1.15c-.58-.08-1.12-.11-1.63-.11h-1.42v12.23c.02.78-.2,1.29-.68,1.55-.42.28-1.39.44-2.92.5-.13-.54-.36-1.04-.69-1.49.74.08,1.34.11,1.79.11.42,0,.71-.03.89-.1.4-.09.59-.42.56-.98v-11.81h-10.32c-.47,0-1.01.04-1.62.11v-1.15c.57.07,1.11.11,1.62.11h12.78c.54,0,1.08-.04,1.63-.11ZM68.09,250.51c.62.07,1.15.11,1.6.11h2.97c.59,0,1.13-.04,1.63-.11-.07.5-.11,1-.11,1.49v3.46c0,.47.03.98.09,1.55-.55-.07-1.12-.11-1.72-.11h-2.88c-.5,0-1.03.04-1.58.11.07-.56.11-1.07.11-1.51v-3.53c0-.4-.04-.89-.11-1.45ZM73.18,255.99v-4.48h-3.97v4.48h3.97Z"/>
    <path class="cls-15" d="M87.12,252.4c-.08.4-.11.92-.11,1.55v5.22c1.46.81,2.65,1.32,3.57,1.51.69.17,1.55.25,2.58.25.42,0,.88-.01,1.37-.04,2.22-.12,3.85-.26,4.9-.43-.31.45-.49.9-.54,1.37-2.41.08-4.11.13-5.08.14-1.45.04-2.6-.06-3.47-.27-.83-.19-1.8-.62-2.94-1.31-.35-.23-.7-.35-1.05-.35s-.69.12-1.02.35c-.38.23-.81.68-1.3,1.34-.21-.42-.49-.79-.84-1.13.96-.68,1.9-1.16,2.81-1.45v-5.75h-1.41c-.56,0-1.03.04-1.39.11v-1.12c.34.07.8.11,1.39.11h1.06c.55,0,1.04-.04,1.46-.11ZM84.39,247.44l.91-.68c.86.93,1.63,1.94,2.3,3.02l-.92.69c-.62-1.09-1.38-2.1-2.29-3.04ZM89.31,251.56c-.25-.14-.69-.27-1.31-.4.86-.81,1.48-2.21,1.85-4.19l1.27.29c.12.02.19.06.2.11-.01.06-.08.12-.2.18-.15.09-.26.21-.33.36-.09.32-.19.62-.3.9h2.37v-1.55c0-.64-.04-1.12-.11-1.44l1.44.24c.11.02.16.05.18.09,0,.04-.05.08-.14.14-.23.17-.35.52-.36,1.05v1.48h2.36c.7,0,1.2-.04,1.49-.11v1.12c-.41-.08-.91-.11-1.49-.11h-2.36v2.33h3.08c.69,0,1.18-.04,1.49-.11v1.12c-.36-.07-.86-.11-1.49-.11h-2v4.5c-.02.46.23.69.77.69.06,0,.13,0,.19,0,.31-.01.62-.1.92-.25.28-.12.44-.74.48-1.85.43.31.86.49,1.27.54-.24,1.17-.62,1.94-1.15,2.3-.36.22-.91.33-1.67.34-.08,0-.18,0-.3,0-1.08,0-1.59-.48-1.54-1.45v-4.83h-1.55c-.01,3.16-1.06,5.4-3.16,6.73-.22-.31-.57-.61-1.05-.9,1.29-.63,2.12-1.29,2.48-2,.38-.61.61-1.89.7-3.83h-1.94c-.67,0-1.2.04-1.58.11v-1.12c.31.08.84.11,1.58.11h3.44v-2.33h-2.72c-.29.71-.57,1.33-.85,1.85Z"/>
    <path class="cls-15" d="M103,262.78h-1c1.96-2.38,2.94-5.14,2.94-8.29,0-3.32-.99-6.12-2.97-8.42h1.01c1.95,2.24,2.92,5.06,2.92,8.44s-.96,6.04-2.89,8.27Z"/>
  </g>
</svg>