<?xml version="1.0" encoding="UTF-8"?>
<svg id="_图层_1" data-name="图层 1" xmlns="http://www.w3.org/2000/svg" viewBox="0 0 600.71 158.33">
  <defs>
    <style>
      .cls-1 {
        letter-spacing: 0em;
      }

      .cls-2 {
        letter-spacing: 0em;
      }

      .cls-3 {
        fill: #c0bfbf;
      }

      .cls-3, .cls-4, .cls-5, .cls-6, .cls-7, .cls-8 {
        fill-rule: evenodd;
      }

      .cls-9 {
        stroke: #022332;
        stroke-width: .5px;
      }

      .cls-9, .cls-10 {
        stroke-miterlimit: 8;
      }

      .cls-9, .cls-10, .cls-11 {
        fill: none;
      }

      .cls-4, .cls-12, .cls-13 {
        fill: #040000;
      }

      .cls-14 {
        letter-spacing: 0em;
      }

      .cls-5 {
        fill: #f2f2f2;
      }

      .cls-15 {
        letter-spacing: 0em;
      }

      .cls-16 {
        letter-spacing: 0em;
      }

      .cls-10 {
        stroke: #145d7d;
        stroke-width: 1.5px;
      }

      .cls-11 {
        stroke: #1a94c6;
        stroke-linejoin: round;
        stroke-width: .75px;
      }

      .cls-12, .cls-17 {
        font-size: 18px;
      }

      .cls-12, .cls-13 {
        font-family: DengXian, DengXian;
      }

      .cls-17 {
        fill: #e71f19;
        font-family: DengXian-Bold, DengXian;
        font-weight: 700;
      }

      .cls-18 {
        letter-spacing: 0em;
      }

      .cls-19 {
        letter-spacing: 0em;
      }

      .cls-20 {
        letter-spacing: 0em;
      }

      .cls-6 {
        fill: #145d7d;
      }

      .cls-7 {
        fill: #bee1f0;
      }

      .cls-13 {
        font-size: 14.04px;
      }

      .cls-8 {
        fill: #d9d9d9;
      }
    </style>
  </defs>
  <text class="cls-12" transform="translate(84.78 79.34)"><tspan x="0" y="0">我和你</tspan></text>
  <text class="cls-17" transform="translate(15.71 79.34)"><tspan x="0" y="0">输入：</tspan></text>
  <line class="cls-10" x1="144.21" y1="74.12" x2="184.49" y2="74.12"/>
  <polygon class="cls-6" points="183.49 71.12 189.49 74.12 183.49 77.12 183.49 71.12 183.49 71.12"/>
  <polygon class="cls-7" points="200.19 59.42 234.03 59.42 234.03 88.58 200.19 88.58 200.19 59.42 200.19 59.42"/>
  <polygon class="cls-11" points="200.19 59.42 234.03 59.42 234.03 88.58 200.19 88.58 200.19 59.42 200.19 59.42"/>
  <text class="cls-12" transform="translate(207.38 79.85)"><tspan x="0" y="0">和</tspan></text>
  <polygon class="cls-7" points="200.19 96.74 232.95 96.74 232.95 125.78 200.19 125.78 200.19 96.74 200.19 96.74"/>
  <polygon class="cls-11" points="200.19 96.74 232.95 96.74 232.95 125.78 200.19 125.78 200.19 96.74 200.19 96.74"/>
  <text class="cls-12" transform="translate(207.38 117.13)"><tspan x="0" y="0">你</tspan></text>
  <polygon class="cls-8" points="251.55 67.46 272.67 67.46 272.67 88.58 251.55 88.58 251.55 67.46 251.55 67.46"/>
  <polygon class="cls-9" points="251.55 67.46 272.67 67.46 272.67 88.58 251.55 88.58 251.55 67.46 251.55 67.46"/>
  <polygon class="cls-8" points="272.31 67.46 293.43 67.46 293.43 88.58 272.31 88.58 272.31 67.46 272.31 67.46"/>
  <polygon class="cls-9" points="272.31 67.46 293.43 67.46 293.43 88.58 272.31 88.58 272.31 67.46 272.31 67.46"/>
  <polygon class="cls-8" points="293.43 67.46 314.43 67.46 314.43 88.58 293.43 88.58 293.43 67.46 293.43 67.46"/>
  <polygon class="cls-9" points="293.43 67.46 314.43 67.46 314.43 88.58 293.43 88.58 293.43 67.46 293.43 67.46"/>
  <polygon class="cls-8" points="314.07 67.46 335.19 67.46 335.19 88.58 314.07 88.58 314.07 67.46 314.07 67.46"/>
  <polygon class="cls-9" points="314.07 67.46 335.19 67.46 335.19 88.58 314.07 88.58 314.07 67.46 314.07 67.46"/>
  <polygon class="cls-8" points="335.19 67.46 356.31 67.46 356.31 88.58 335.19 88.58 335.19 67.46 335.19 67.46"/>
  <polygon class="cls-9" points="335.19 67.46 356.31 67.46 356.31 88.58 335.19 88.58 335.19 67.46 335.19 67.46"/>
  <polygon class="cls-8" points="251.55 101.66 272.67 101.66 272.67 122.66 251.55 122.66 251.55 101.66 251.55 101.66"/>
  <polygon class="cls-9" points="251.55 101.66 272.67 101.66 272.67 122.66 251.55 122.66 251.55 101.66 251.55 101.66"/>
  <polygon class="cls-8" points="272.31 101.66 293.43 101.66 293.43 122.66 272.31 122.66 272.31 101.66 272.31 101.66"/>
  <polygon class="cls-9" points="272.31 101.66 293.43 101.66 293.43 122.66 272.31 122.66 272.31 101.66 272.31 101.66"/>
  <polygon class="cls-8" points="293.43 101.66 314.43 101.66 314.43 122.66 293.43 122.66 293.43 101.66 293.43 101.66"/>
  <polygon class="cls-9" points="293.43 101.66 314.43 101.66 314.43 122.66 293.43 122.66 293.43 101.66 293.43 101.66"/>
  <polygon class="cls-8" points="314.07 101.66 335.19 101.66 335.19 122.66 314.07 122.66 314.07 101.66 314.07 101.66"/>
  <polygon class="cls-9" points="314.07 101.66 335.19 101.66 335.19 122.66 314.07 122.66 314.07 101.66 314.07 101.66"/>
  <polygon class="cls-8" points="335.19 101.66 356.31 101.66 356.31 122.66 335.19 122.66 335.19 101.66 335.19 101.66"/>
  <polygon class="cls-9" points="335.19 101.66 356.31 101.66 356.31 122.66 335.19 122.66 335.19 101.66 335.19 101.66"/>
  <polygon class="cls-7" points="200.19 23.78 232.95 23.78 232.95 52.94 200.19 52.94 200.19 23.78 200.19 23.78"/>
  <polygon class="cls-11" points="200.19 23.78 232.95 23.78 232.95 52.94 200.19 52.94 200.19 23.78 200.19 23.78"/>
  <text class="cls-12" transform="translate(207.38 44.23)"><tspan x="0" y="0">我</tspan></text>
  <polygon class="cls-8" points="250.95 26.42 272.07 26.42 272.07 47.54 250.95 47.54 250.95 26.42 250.95 26.42"/>
  <polygon class="cls-9" points="250.95 26.42 272.07 26.42 272.07 47.54 250.95 47.54 250.95 26.42 250.95 26.42"/>
  <polygon class="cls-8" points="271.71 26.42 292.83 26.42 292.83 47.54 271.71 47.54 271.71 26.42 271.71 26.42"/>
  <polygon class="cls-9" points="271.71 26.42 292.83 26.42 292.83 47.54 271.71 47.54 271.71 26.42 271.71 26.42"/>
  <polygon class="cls-8" points="292.83 26.42 313.95 26.42 313.95 47.54 292.83 47.54 292.83 26.42 292.83 26.42"/>
  <polygon class="cls-9" points="292.83 26.42 313.95 26.42 313.95 47.54 292.83 47.54 292.83 26.42 292.83 26.42"/>
  <polygon class="cls-8" points="313.47 26.42 334.59 26.42 334.59 47.54 313.47 47.54 313.47 26.42 313.47 26.42"/>
  <polygon class="cls-9" points="313.47 26.42 334.59 26.42 334.59 47.54 313.47 47.54 313.47 26.42 313.47 26.42"/>
  <polygon class="cls-8" points="334.59 26.42 355.71 26.42 355.71 47.54 334.59 47.54 334.59 26.42 334.59 26.42"/>
  <polygon class="cls-9" points="334.59 26.42 355.71 26.42 355.71 47.54 334.59 47.54 334.59 26.42 334.59 26.42"/>
  <text class="cls-13" transform="translate(290.04 17.97)"><tspan class="cls-15" x="0" y="0">(</tspan><tspan class="cls-14" x="4.09" y="0">1</tspan><tspan class="cls-18" x="11.52" y="0">,</tspan><tspan x="14.63" y="0"> </tspan><tspan class="cls-16" x="18.48" y="0">C</tspan><tspan x="27.23" y="0">)</tspan></text>
  <text class="cls-13" transform="translate(395.96 81.02)"><tspan class="cls-15" x="0" y="0">(</tspan><tspan class="cls-2" x="4.09" y="0">N</tspan><tspan x="14.29" y="0">,</tspan></text>
  <text class="cls-13" transform="translate(417.33 81.02)"><tspan class="cls-16" x="0" y="0">C</tspan><tspan class="cls-19" x="8.75" y="0">)</tspan></text>
  <text class="cls-13" transform="translate(15.73 113.41)"><tspan x="0" y="0">输入序列分词数：</tspan></text>
  <path class="cls-10" d="M359.54,38.34c7.16,0,12.96,1.6,12.96,3.57v30.66c0,1.97,5.8,3.57,12.96,3.57-7.16,0-12.96,1.6-12.96,3.57v30.66c0,1.97-5.8,3.57-12.96,3.57"/>
  <text class="cls-12" transform="translate(279.86 148.04)"><tspan x="0" y="0">词嵌入</tspan></text>
  <text class="cls-12" transform="translate(484.32 148.04)"><tspan x="0" y="0">位置编码</tspan></text>
  <line class="cls-10" x1="435.51" y1="78.02" x2="468.88" y2="78.02"/>
  <polygon class="cls-6" points="467.88 75.02 473.88 78.02 467.88 81.02 467.88 75.02 467.88 75.02"/>
  <polygon class="cls-8" points="475.16 44.55 496.28 44.55 496.28 65.55 475.16 65.55 475.16 44.55 475.16 44.55"/>
  <polygon class="cls-9" points="475.16 44.55 496.28 44.55 496.28 65.55 475.16 65.55 475.16 44.55 475.16 44.55"/>
  <polygon class="cls-8" points="495.92 44.55 516.92 44.55 516.92 65.55 495.92 65.55 495.92 44.55 495.92 44.55"/>
  <polygon class="cls-9" points="495.92 44.55 516.92 44.55 516.92 65.55 495.92 65.55 495.92 44.55 495.92 44.55"/>
  <polygon class="cls-8" points="516.92 44.55 538.04 44.55 538.04 65.55 516.92 65.55 516.92 44.55 516.92 44.55"/>
  <polygon class="cls-9" points="516.92 44.55 538.04 44.55 538.04 65.55 516.92 65.55 516.92 44.55 516.92 44.55"/>
  <polygon class="cls-8" points="537.68 44.55 558.8 44.55 558.8 65.55 537.68 65.55 537.68 44.55 537.68 44.55"/>
  <polygon class="cls-9" points="537.68 44.55 558.8 44.55 558.8 65.55 537.68 65.55 537.68 44.55 537.68 44.55"/>
  <polygon class="cls-8" points="558.8 44.55 579.8 44.55 579.8 65.55 558.8 65.55 558.8 44.55 558.8 44.55"/>
  <polygon class="cls-9" points="558.8 44.55 579.8 44.55 579.8 65.55 558.8 65.55 558.8 44.55 558.8 44.55"/>
  <polygon class="cls-5" points="475.16 65.55 496.28 65.55 496.28 86.67 475.16 86.67 475.16 65.55 475.16 65.55"/>
  <polygon class="cls-9" points="475.16 65.55 496.28 65.55 496.28 86.67 475.16 86.67 475.16 65.55 475.16 65.55"/>
  <polygon class="cls-5" points="495.92 65.55 516.92 65.55 516.92 86.67 495.92 86.67 495.92 65.55 495.92 65.55"/>
  <polygon class="cls-9" points="495.92 65.55 516.92 65.55 516.92 86.67 495.92 86.67 495.92 65.55 495.92 65.55"/>
  <polygon class="cls-5" points="516.92 65.55 538.04 65.55 538.04 86.67 516.92 86.67 516.92 65.55 516.92 65.55"/>
  <polygon class="cls-9" points="516.92 65.55 538.04 65.55 538.04 86.67 516.92 86.67 516.92 65.55 516.92 65.55"/>
  <polygon class="cls-5" points="537.68 65.55 558.8 65.55 558.8 86.67 537.68 86.67 537.68 65.55 537.68 65.55"/>
  <polygon class="cls-9" points="537.68 65.55 558.8 65.55 558.8 86.67 537.68 86.67 537.68 65.55 537.68 65.55"/>
  <polygon class="cls-5" points="558.8 65.55 579.8 65.55 579.8 86.67 558.8 86.67 558.8 65.55 558.8 65.55"/>
  <polygon class="cls-9" points="558.8 65.55 579.8 65.55 579.8 86.67 558.8 86.67 558.8 65.55 558.8 65.55"/>
  <polygon class="cls-3" points="475.16 86.67 496.28 86.67 496.28 107.79 475.16 107.79 475.16 86.67 475.16 86.67"/>
  <polygon class="cls-9" points="475.16 86.67 496.28 86.67 496.28 107.79 475.16 107.79 475.16 86.67 475.16 86.67"/>
  <polygon class="cls-3" points="495.92 86.67 516.92 86.67 516.92 107.79 495.92 107.79 495.92 86.67 495.92 86.67"/>
  <polygon class="cls-9" points="495.92 86.67 516.92 86.67 516.92 107.79 495.92 107.79 495.92 86.67 495.92 86.67"/>
  <polygon class="cls-3" points="516.92 86.67 538.04 86.67 538.04 107.79 516.92 107.79 516.92 86.67 516.92 86.67"/>
  <polygon class="cls-9" points="516.92 86.67 538.04 86.67 538.04 107.79 516.92 107.79 516.92 86.67 516.92 86.67"/>
  <polygon class="cls-3" points="537.68 86.67 558.8 86.67 558.8 107.79 537.68 107.79 537.68 86.67 537.68 86.67"/>
  <polygon class="cls-9" points="537.68 86.67 558.8 86.67 558.8 107.79 537.68 107.79 537.68 86.67 537.68 86.67"/>
  <polygon class="cls-3" points="558.8 86.67 579.8 86.67 579.8 107.79 558.8 107.79 558.8 86.67 558.8 86.67"/>
  <polygon class="cls-9" points="558.8 86.67 579.8 86.67 579.8 107.79 558.8 107.79 558.8 86.67 558.8 86.67"/>
  <text class="cls-13" transform="translate(510.33 33.98)"><tspan class="cls-1" x="0" y="0">(</tspan><tspan class="cls-2" x="4.09" y="0">N</tspan><tspan class="cls-18" x="14.29" y="0">,</tspan><tspan class="cls-20" x="17.39" y="0">C</tspan><tspan x="26.14" y="0">)</tspan></text>
  <path class="cls-4" d="M463.91,113.74h3.67l-.1.43c-.26.02-.47.1-.62.23s-.25.33-.31.56-.09.57-.09,1.01v.3c0,.11,0,.21,0,.33l.08,3.44c0,.25,0,.88,0,1.87v1.84s.08,0,.08,0l4.86-10h1.33v5.86c0,.97-.03,2.35-.08,4.14h.09l3.56-6.88c.13-.26.28-.56.43-.91s.22-.65.22-.9c0-.49-.29-.79-.88-.88l.1-.43h3.59l-.1.43c-.27.04-.53.18-.77.44s-.57.77-.98,1.52l-5.28,9.71h-1.35v-6.43c0-1.04.03-2.13.08-3.26h-.09l-4.7,9.69h-1.38l-.41-9.77c-.02-.49-.07-.86-.15-1.12s-.19-.45-.32-.56-.33-.19-.57-.23l.1-.43Z"/>
  <path class="cls-4" d="M487.12,121.83h10.83v1.17h-10.83v-1.17h0ZM487.12,118.18h10.83v1.17h-10.83v-1.17h0Z"/>
  <path class="cls-4" d="M587.23,112.16h3.92v16.76h-3.92v-.68h2.46v-15.41h-2.46v-.68h0ZM506.29,112.16h3.92v.68h-2.46v15.41h2.46v.68h-3.92v-16.76h0Z"/>
  <path class="cls-4" d="M511.23,117.33h2.3l.53,6.93c.83-1.35,1.42-2.37,1.79-3.08.37-.7.64-1.31.81-1.82s.31-1.05.4-1.6l.1-.43h1.27l.64,6.94c.91-1.3,1.61-2.44,2.09-3.41s.72-1.76.72-2.37c0-.28-.06-.46-.18-.56s-.32-.16-.6-.18l.09-.43h2.27l.24.44c-.21.52-.37.92-.49,1.2s-.28.62-.48,1.02-.41.79-.63,1.18-.48.82-.79,1.3-.64.98-1.02,1.54-.82,1.18-1.33,1.87h-1.05l-.36-3.67c-.03-.29-.06-.66-.09-1.12s-.05-.82-.07-1.07h-.1c-.32.77-.75,1.64-1.29,2.59-.54.96-1.22,2.05-2.02,3.28h-1.18l-.67-6.62c-.04-.34-.08-.62-.13-.83s-.14-.37-.26-.47-.33-.17-.61-.19l.1-.43Z"/>
  <path class="cls-4" d="M527.24,121.15h.39c0,.24-.02.45-.02.63,0,.19,0,.37,0,.54,0,.18,0,.35,0,.52v4.9c0,.13,0,.25.01.34,0,.1.02.18.04.24.02.07.05.12.08.17.03.05.07.09.11.12.05.05.12.09.21.12.09.03.2.05.33.07.13.02.29.03.48.05s.41.02.67.02v.56h-5.11v-.56c.25,0,.47-.02.64-.03.18-.01.33-.03.45-.05.12-.02.22-.04.3-.06.08-.02.14-.05.2-.09.06-.04.11-.08.15-.13.04-.05.08-.1.1-.17.03-.07.05-.15.06-.25.02-.1.02-.22.02-.37v-4.62c0-.17-.03-.29-.1-.35-.06-.07-.16-.1-.28-.1-.13,0-.33.07-.59.21-.26.14-.6.34-1.02.61-.06-.1-.11-.2-.15-.3-.05-.1-.1-.2-.15-.3.53-.29,1.06-.58,1.58-.87s1.05-.58,1.59-.87h0Z"/>
  <path class="cls-4" d="M532.47,123.69h1.54c.08.41.12.81.12,1.21s-.07.79-.21,1.12-.36.68-.67,1.02-.73.71-1.27,1.11l-.47-.54c.3-.28.52-.53.65-.76s.23-.48.29-.77.09-.65.09-1.08-.02-.88-.06-1.32h0Z"/>
  <path class="cls-4" d="M538.47,117.33h2.3l.53,6.93c.83-1.35,1.42-2.37,1.79-3.08s.64-1.31.81-1.82.31-1.05.4-1.6l.1-.43h1.27l.64,6.94c.91-1.3,1.61-2.44,2.09-3.41s.72-1.76.72-2.37c0-.28-.06-.46-.18-.56s-.32-.16-.6-.18l.09-.43h2.27l.24.44c-.21.52-.37.92-.49,1.2s-.28.62-.48,1.02-.41.79-.63,1.18-.48.82-.79,1.3-.64.98-1.02,1.54-.82,1.18-1.33,1.87h-1.05l-.36-3.67c-.03-.29-.06-.66-.09-1.12s-.05-.82-.07-1.07h-.1c-.32.77-.75,1.64-1.29,2.59s-1.22,2.05-2.02,3.28h-1.18l-.67-6.62c-.04-.34-.08-.62-.13-.83s-.14-.37-.26-.47-.33-.17-.61-.19l.1-.43Z"/>
  <path class="cls-4" d="M554.46,121.11c.45,0,.83.05,1.14.15.32.1.57.24.77.41s.34.38.43.62c.09.24.13.5.13.78,0,.17-.01.32-.04.47-.02.14-.06.29-.12.43s-.13.28-.23.42c-.09.14-.21.29-.35.45-.11.14-.25.3-.42.48s-.36.37-.56.58-.42.42-.64.64c-.22.22-.44.44-.65.66-.21.22-.4.43-.58.64-.18.21-.32.4-.43.57h2.38c.2,0,.36,0,.48-.02.12-.02.22-.05.3-.1s.15-.13.2-.24c.06-.11.12-.25.19-.44h.6c-.02.31-.04.61-.06.92s-.04.62-.06.92h-5.46v-.34c.1-.23.22-.46.36-.69.14-.23.29-.45.46-.69s.37-.47.59-.72.46-.5.73-.77c.4-.4.73-.75.99-1.03.25-.29.45-.54.6-.76s.25-.43.3-.62c.05-.19.08-.39.08-.61s-.03-.42-.09-.61c-.06-.18-.15-.34-.27-.47-.12-.13-.26-.23-.44-.3-.18-.07-.38-.11-.62-.11-.4,0-.73.11-1.01.33-.27.22-.48.53-.63.94h-.84v-1.26c.55-.23,1.06-.39,1.52-.5.46-.1.88-.15,1.25-.15h0Z"/>
  <path class="cls-4" d="M560.19,123.69h1.54c.08.41.12.81.12,1.21s-.07.79-.21,1.12-.36.68-.67,1.02-.73.71-1.27,1.11l-.47-.54c.3-.28.52-.53.65-.76s.23-.48.29-.77.09-.65.09-1.08-.02-.88-.06-1.32h0Z"/>
  <path class="cls-4" d="M566.31,117.33h2.3l.53,6.93c.83-1.35,1.42-2.37,1.79-3.08s.64-1.31.81-1.82.31-1.05.4-1.6l.1-.43h1.27l.64,6.94c.91-1.3,1.61-2.44,2.09-3.41s.72-1.76.72-2.37c0-.28-.06-.46-.18-.56s-.32-.16-.6-.18l.09-.43h2.27l.24.44c-.21.52-.37.92-.49,1.2s-.28.62-.48,1.02-.41.79-.63,1.18-.48.82-.79,1.3-.64.98-1.02,1.54-.82,1.18-1.33,1.87h-1.05l-.36-3.67c-.03-.29-.06-.66-.09-1.12s-.05-.82-.07-1.07h-.1c-.32.77-.75,1.64-1.29,2.59s-1.22,2.05-2.02,3.28h-1.18l-.67-6.62c-.04-.34-.08-.62-.13-.83s-.14-.37-.26-.47-.33-.17-.61-.19l.1-.43Z"/>
  <path class="cls-4" d="M582.28,121.11c.34,0,.66.04.96.11s.56.18.78.33c.22.15.39.33.51.55.12.22.18.48.18.77,0,.27-.04.52-.12.73-.08.21-.2.4-.36.57s-.36.33-.59.47c-.23.14-.5.27-.81.4v.08c.29.05.56.13.81.25.25.11.47.26.65.43.19.17.33.37.44.6s.16.48.16.75c0,.34-.06.66-.19.96s-.32.55-.58.76-.58.38-.95.5c-.38.12-.82.18-1.33.18-.4,0-.81-.04-1.22-.12-.41-.08-.8-.18-1.17-.31v-1.39h.83c.07.21.15.4.24.55s.21.28.33.37c.13.1.27.17.44.21.17.04.35.06.56.06.55,0,.97-.13,1.26-.4.29-.26.43-.66.43-1.2,0-.57-.19-1-.56-1.3-.38-.29-.93-.44-1.67-.44h-.57v-.62c.45-.02.84-.08,1.17-.19.33-.11.6-.24.82-.41.22-.17.38-.36.49-.59s.16-.46.16-.72c0-.41-.12-.74-.37-.98s-.6-.36-1.06-.36c-.39,0-.72.11-.98.32-.26.21-.47.53-.61.96h-.82v-1.27c.51-.21.99-.38,1.43-.49s.88-.16,1.29-.16h0Z"/>
</svg>