<?xml version="1.0" encoding="UTF-8"?>
<svg id="_图层_1" data-name="图层 1" xmlns="http://www.w3.org/2000/svg" xmlns:xlink="http://www.w3.org/1999/xlink" viewBox="0 0 637.04 359.98">
  <defs>
    <style>
      .cls-1 {
        clip-path: url(#clippath-34);
      }

      .cls-2 {
        clip-path: url(#clippath-38);
      }

      .cls-3 {
        clip-path: url(#clippath-21);
      }

      .cls-4 {
        clip-path: url(#clippath-6);
      }

      .cls-5 {
        clip-path: url(#clippath-7);
      }

      .cls-6 {
        clip-path: url(#clippath-17);
      }

      .cls-7 {
        clip-path: url(#clippath-31);
      }

      .cls-8 {
        clip-path: url(#clippath-15);
      }

      .cls-9 {
        fill: #6ea647;
      }

      .cls-9, .cls-10, .cls-11, .cls-12, .cls-13, .cls-14, .cls-15, .cls-16, .cls-17, .cls-18 {
        fill-rule: evenodd;
      }

      .cls-19 {
        clip-path: url(#clippath-18);
      }

      .cls-20 {
        clip-path: url(#clippath-47);
      }

      .cls-21 {
        clip-path: url(#clippath-4);
      }

      .cls-22 {
        stroke: #7e7e7f;
      }

      .cls-22, .cls-23, .cls-24, .cls-25, .cls-26, .cls-27, .cls-28, .cls-29, .cls-30, .cls-31, .cls-32, .cls-33 {
        fill: none;
      }

      .cls-22, .cls-23, .cls-25 {
        stroke-width: 1.5px;
      }

      .cls-22, .cls-26, .cls-27, .cls-28, .cls-30, .cls-31, .cls-32 {
        stroke-miterlimit: 8;
      }

      .cls-34 {
        clip-path: url(#clippath-22);
      }

      .cls-35 {
        clip-path: url(#clippath-23);
      }

      .cls-23, .cls-25 {
        stroke-linecap: round;
        stroke-linejoin: round;
      }

      .cls-23, .cls-25, .cls-16, .cls-18 {
        opacity: .27;
      }

      .cls-23, .cls-26, .cls-32 {
        stroke: #406cb4;
      }

      .cls-36 {
        letter-spacing: 0em;
      }

      .cls-10 {
        fill: #e37933;
      }

      .cls-37 {
        clip-path: url(#clippath-9);
      }

      .cls-38 {
        letter-spacing: 0em;
      }

      .cls-39 {
        clip-path: url(#clippath-10);
      }

      .cls-40 {
        clip-path: url(#clippath-42);
      }

      .cls-41 {
        clip-path: url(#clippath-43);
      }

      .cls-42 {
        clip-path: url(#clippath-25);
      }

      .cls-43 {
        clip-path: url(#clippath-27);
      }

      .cls-44 {
        letter-spacing: 0em;
      }

      .cls-45 {
        clip-path: url(#clippath-11);
      }

      .cls-25, .cls-28 {
        stroke: #e37933;
      }

      .cls-46 {
        fill: #bad3e9;
      }

      .cls-47 {
        clip-path: url(#clippath-36);
      }

      .cls-26, .cls-28 {
        stroke-width: .5px;
      }

      .cls-48 {
        clip-path: url(#clippath-35);
      }

      .cls-49 {
        clip-path: url(#clippath-48);
      }

      .cls-50 {
        clip-path: url(#clippath-28);
      }

      .cls-27 {
        stroke: #040000;
        stroke-width: 2.25px;
      }

      .cls-51 {
        clip-path: url(#clippath-1);
      }

      .cls-52 {
        clip-path: url(#clippath-45);
      }

      .cls-53 {
        clip-path: url(#clippath-46);
      }

      .cls-54 {
        clip-path: url(#clippath-40);
      }

      .cls-55 {
        clip-path: url(#clippath-5);
      }

      .cls-56 {
        clip-path: url(#clippath-20);
      }

      .cls-57 {
        clip-path: url(#clippath-8);
      }

      .cls-11 {
        fill: #f5ba1a;
      }

      .cls-58 {
        clip-path: url(#clippath-41);
      }

      .cls-59 {
        clip-path: url(#clippath-3);
      }

      .cls-60 {
        clip-path: url(#clippath-26);
      }

      .cls-61 {
        clip-path: url(#clippath-12);
      }

      .cls-12 {
        fill: #7e7e7f;
      }

      .cls-62 {
        fill: #040000;
        font-family: DengXian, DengXian;
        font-size: 18px;
      }

      .cls-63 {
        clip-path: url(#clippath-14);
      }

      .cls-29, .cls-33 {
        clip-rule: evenodd;
      }

      .cls-64 {
        clip-path: url(#clippath-30);
      }

      .cls-65 {
        clip-path: url(#clippath-19);
      }

      .cls-66 {
        letter-spacing: 0em;
      }

      .cls-67, .cls-16 {
        fill: #edad81;
      }

      .cls-13, .cls-30 {
        opacity: .48;
      }

      .cls-13, .cls-17 {
        fill: #e71f19;
      }

      .cls-30, .cls-31 {
        stroke: #142b4f;
      }

      .cls-68 {
        clip-path: url(#clippath-32);
      }

      .cls-69 {
        clip-path: url(#clippath-39);
      }

      .cls-32 {
        stroke-width: 6px;
      }

      .cls-70 {
        clip-path: url(#clippath-16);
      }

      .cls-71 {
        clip-path: url(#clippath-2);
      }

      .cls-72 {
        clip-path: url(#clippath-29);
      }

      .cls-14 {
        fill: #ebb526;
      }

      .cls-73 {
        clip-path: url(#clippath-37);
      }

      .cls-74 {
        clip-path: url(#clippath-13);
      }

      .cls-15 {
        fill: #406cb4;
      }

      .cls-75 {
        clip-path: url(#clippath-24);
      }

      .cls-76 {
        clip-path: url(#clippath);
      }

      .cls-77 {
        clip-path: url(#clippath-44);
      }

      .cls-18 {
        fill: #9abddf;
      }

      .cls-33 {
        clip-path: url(#clippath-33);
      }

      .cls-78 {
        letter-spacing: 0em;
      }
    </style>
    <clipPath id="clippath">
      <polygon class="cls-29" points="-5.45 359.98 255.67 359.98 255.67 3.46 -5.45 3.46 -5.45 359.98 -5.45 359.98"/>
    </clipPath>
    <clipPath id="clippath-1">
      <polygon class="cls-29" points="-5.45 359.98 255.67 359.98 255.67 3.46 -5.45 3.46 -5.45 359.98 -5.45 359.98"/>
    </clipPath>
    <clipPath id="clippath-2">
      <polygon class="cls-29" points="-5.45 359.98 255.67 359.98 255.67 3.46 -5.45 3.46 -5.45 359.98 -5.45 359.98"/>
    </clipPath>
    <clipPath id="clippath-3">
      <polygon class="cls-29" points="-5.45 359.98 255.67 359.98 255.67 3.46 -5.45 3.46 -5.45 359.98 -5.45 359.98"/>
    </clipPath>
    <clipPath id="clippath-4">
      <polygon class="cls-29" points="-5.45 359.98 255.67 359.98 255.67 3.46 -5.45 3.46 -5.45 359.98 -5.45 359.98"/>
    </clipPath>
    <clipPath id="clippath-5">
      <polygon class="cls-29" points="-5.45 359.98 255.67 359.98 255.67 3.46 -5.45 3.46 -5.45 359.98 -5.45 359.98"/>
    </clipPath>
    <clipPath id="clippath-6">
      <polygon class="cls-29" points="-5.45 359.98 255.67 359.98 255.67 3.46 -5.45 3.46 -5.45 359.98 -5.45 359.98"/>
    </clipPath>
    <clipPath id="clippath-7">
      <polygon class="cls-29" points="-5.45 359.98 255.67 359.98 255.67 3.46 -5.45 3.46 -5.45 359.98 -5.45 359.98"/>
    </clipPath>
    <clipPath id="clippath-8">
      <polygon class="cls-29" points="-5.45 359.98 255.67 359.98 255.67 3.46 -5.45 3.46 -5.45 359.98 -5.45 359.98"/>
    </clipPath>
    <clipPath id="clippath-9">
      <polygon class="cls-29" points="-5.45 359.98 255.67 359.98 255.67 3.46 -5.45 3.46 -5.45 359.98 -5.45 359.98"/>
    </clipPath>
    <clipPath id="clippath-10">
      <polygon class="cls-29" points="-5.45 359.98 255.67 359.98 255.67 3.46 -5.45 3.46 -5.45 359.98 -5.45 359.98"/>
    </clipPath>
    <clipPath id="clippath-11">
      <polygon class="cls-29" points="-5.45 359.98 255.67 359.98 255.67 3.46 -5.45 3.46 -5.45 359.98 -5.45 359.98"/>
    </clipPath>
    <clipPath id="clippath-12">
      <polygon class="cls-29" points="-5.45 359.98 255.67 359.98 255.67 3.46 -5.45 3.46 -5.45 359.98 -5.45 359.98"/>
    </clipPath>
    <clipPath id="clippath-13">
      <polygon class="cls-29" points="-5.45 359.98 255.67 359.98 255.67 3.46 -5.45 3.46 -5.45 359.98 -5.45 359.98"/>
    </clipPath>
    <clipPath id="clippath-14">
      <rect class="cls-24" x="-5.45" y="3.46" width="261.12" height="356.52"/>
    </clipPath>
    <clipPath id="clippath-15">
      <polygon class="cls-29" points="-5.45 359.98 255.67 359.98 255.67 3.46 -5.45 3.46 -5.45 359.98 -5.45 359.98"/>
    </clipPath>
    <clipPath id="clippath-16">
      <rect class="cls-24" x="-5.45" y="3.46" width="261.12" height="356.52"/>
    </clipPath>
    <clipPath id="clippath-17">
      <polygon class="cls-29" points="-5.45 359.98 255.67 359.98 255.67 3.46 -5.45 3.46 -5.45 359.98 -5.45 359.98"/>
    </clipPath>
    <clipPath id="clippath-18">
      <rect class="cls-24" x="-5.45" y="3.46" width="261.12" height="356.52"/>
    </clipPath>
    <clipPath id="clippath-19">
      <polygon class="cls-29" points="-5.45 359.98 255.67 359.98 255.67 3.46 -5.45 3.46 -5.45 359.98 -5.45 359.98"/>
    </clipPath>
    <clipPath id="clippath-20">
      <rect class="cls-24" x="-5.45" y="3.46" width="261.12" height="356.52"/>
    </clipPath>
    <clipPath id="clippath-21">
      <polygon class="cls-29" points="-5.45 359.98 255.67 359.98 255.67 3.46 -5.45 3.46 -5.45 359.98 -5.45 359.98"/>
    </clipPath>
    <clipPath id="clippath-22">
      <rect class="cls-24" x="-5.45" y="3.46" width="261.12" height="356.52"/>
    </clipPath>
    <clipPath id="clippath-23">
      <polygon class="cls-29" points="-5.45 359.98 255.67 359.98 255.67 3.46 -5.45 3.46 -5.45 359.98 -5.45 359.98"/>
    </clipPath>
    <clipPath id="clippath-24">
      <rect class="cls-24" x="-5.45" y="3.46" width="261.12" height="356.52"/>
    </clipPath>
    <clipPath id="clippath-25">
      <polygon class="cls-29" points="287.49 357.04 632.85 357.04 632.85 3.4 287.49 3.4 287.49 357.04 287.49 357.04"/>
    </clipPath>
    <clipPath id="clippath-26">
      <polygon class="cls-29" points="287.49 357.04 632.85 357.04 632.85 3.4 287.49 3.4 287.49 357.04 287.49 357.04"/>
    </clipPath>
    <clipPath id="clippath-27">
      <polygon class="cls-29" points="287.49 357.04 632.85 357.04 632.85 3.4 287.49 3.4 287.49 357.04 287.49 357.04"/>
    </clipPath>
    <clipPath id="clippath-28">
      <polygon class="cls-29" points="287.49 357.04 632.85 357.04 632.85 3.4 287.49 3.4 287.49 357.04 287.49 357.04"/>
    </clipPath>
    <clipPath id="clippath-29">
      <polygon class="cls-29" points="287.49 357.04 632.85 357.04 632.85 3.4 287.49 3.4 287.49 357.04 287.49 357.04"/>
    </clipPath>
    <clipPath id="clippath-30">
      <polygon class="cls-29" points="287.49 357.04 632.85 357.04 632.85 3.4 287.49 3.4 287.49 357.04 287.49 357.04"/>
    </clipPath>
    <clipPath id="clippath-31">
      <polygon class="cls-29" points="287.49 357.04 632.85 357.04 632.85 3.4 287.49 3.4 287.49 357.04 287.49 357.04"/>
    </clipPath>
    <clipPath id="clippath-32">
      <polygon class="cls-29" points="287.49 357.04 632.85 357.04 632.85 3.4 287.49 3.4 287.49 357.04 287.49 357.04"/>
    </clipPath>
    <clipPath id="clippath-33">
      <polygon class="cls-29" points="287.49 357.04 632.85 357.04 632.85 3.4 287.49 3.4 287.49 357.04 287.49 357.04"/>
    </clipPath>
    <clipPath id="clippath-34">
      <polygon class="cls-33" points="579.21 149.92 611.49 149.92 611.49 191.2 579.21 191.2 579.21 149.92 579.21 149.92"/>
    </clipPath>
    <clipPath id="clippath-35">
      <polygon class="cls-24" points="579.21 191.2 611.49 191.2 611.49 149.92 579.21 149.92 579.21 191.2 579.21 191.2"/>
    </clipPath>
    <clipPath id="clippath-36">
      <polygon class="cls-29" points="287.49 357.04 632.85 357.04 632.85 3.4 287.49 3.4 287.49 357.04 287.49 357.04"/>
    </clipPath>
    <clipPath id="clippath-37">
      <polygon class="cls-29" points="287.49 357.04 632.85 357.04 632.85 3.4 287.49 3.4 287.49 357.04 287.49 357.04"/>
    </clipPath>
    <clipPath id="clippath-38">
      <polygon class="cls-29" points="287.49 357.04 632.85 357.04 632.85 3.4 287.49 3.4 287.49 357.04 287.49 357.04"/>
    </clipPath>
    <clipPath id="clippath-39">
      <polygon class="cls-29" points="287.49 357.04 632.85 357.04 632.85 3.4 287.49 3.4 287.49 357.04 287.49 357.04"/>
    </clipPath>
    <clipPath id="clippath-40">
      <polygon class="cls-29" points="287.49 357.04 632.85 357.04 632.85 3.4 287.49 3.4 287.49 357.04 287.49 357.04"/>
    </clipPath>
    <clipPath id="clippath-41">
      <polygon class="cls-29" points="287.49 357.04 632.85 357.04 632.85 3.4 287.49 3.4 287.49 357.04 287.49 357.04"/>
    </clipPath>
    <clipPath id="clippath-42">
      <polygon class="cls-29" points="287.49 357.04 632.85 357.04 632.85 3.4 287.49 3.4 287.49 357.04 287.49 357.04"/>
    </clipPath>
    <clipPath id="clippath-43">
      <polygon class="cls-29" points="287.49 357.04 632.85 357.04 632.85 3.4 287.49 3.4 287.49 357.04 287.49 357.04"/>
    </clipPath>
    <clipPath id="clippath-44">
      <polygon class="cls-29" points="287.49 357.04 632.85 357.04 632.85 3.4 287.49 3.4 287.49 357.04 287.49 357.04"/>
    </clipPath>
    <clipPath id="clippath-45">
      <polygon class="cls-29" points="287.49 357.04 632.85 357.04 632.85 3.4 287.49 3.4 287.49 357.04 287.49 357.04"/>
    </clipPath>
    <clipPath id="clippath-46">
      <polygon class="cls-29" points="287.49 357.04 632.85 357.04 632.85 3.4 287.49 3.4 287.49 357.04 287.49 357.04"/>
    </clipPath>
    <clipPath id="clippath-47">
      <polygon class="cls-29" points="287.49 357.04 632.85 357.04 632.85 3.4 287.49 3.4 287.49 357.04 287.49 357.04"/>
    </clipPath>
    <clipPath id="clippath-48">
      <polygon class="cls-29" points="287.49 357.04 632.85 357.04 632.85 3.4 287.49 3.4 287.49 357.04 287.49 357.04"/>
    </clipPath>
  </defs>
  <g>
    <line class="cls-22" x1="65.17" y1="99.04" x2="102.32" y2="76.33"/>
    <polygon class="cls-12" points="103.03 79.41 106.58 73.72 99.9 74.29 103.03 79.41 103.03 79.41"/>
    <g class="cls-76">
      <line class="cls-22" x1="51.97" y1="222.4" x2="100.88" y2="236.9"/>
      <polygon class="cls-12" points="100.77 233.74 105.67 238.32 99.07 239.49 100.77 233.74 100.77 233.74"/>
      <g class="cls-51">
        <line class="cls-22" x1="133.33" y1="77.8" x2="174.08" y2="99.76"/>
        <polygon class="cls-12" points="174.62 96.64 178.48 102.13 171.78 101.93 174.62 96.64 174.62 96.64"/>
        <g class="cls-71">
          <line class="cls-22" x1="129.97" y1="249.16" x2="173.32" y2="243.89"/>
          <polygon class="cls-12" points="172.69 246.98 178.29 243.28 171.97 241.03 172.69 246.98 172.69 246.98"/>
          <g class="cls-59">
            <line class="cls-22" x1="133.93" y1="176.76" x2="171.48" y2="175.74"/>
            <polygon class="cls-12" points="170.56 178.76 176.47 175.6 170.39 172.77 170.56 178.76 170.56 178.76"/>
            <g class="cls-21">
              <path class="cls-11" d="M6.55,108.7c0-15.11,12.25-27.36,27.36-27.36s27.36,12.25,27.36,27.36-12.25,27.36-27.36,27.36-27.36-12.25-27.36-27.36h0Z"/>
              <g class="cls-55">
                <path class="cls-11" d="M44.78,246.94c-15.15,0-27.43-12.25-27.43-27.36s12.28-27.36,27.43-27.36c1.89,0,3.74.19,5.53.56l4.97,1.54-.18.06c-9.84,4.15-16.75,13.88-16.75,25.21s6.91,21.06,16.75,25.21l.18.06-4.97,1.54c-1.79.36-3.63.56-5.53.56h0Z"/>
                <g class="cls-4">
                  <line class="cls-32" x1="119.35" y1="38.5" x2="119.35" y2="296.92"/>
                  <g class="cls-5">
                    <path class="cls-9" d="M110.59,71.56c0-4.34,3.52-7.86,7.86-7.86s7.86,3.52,7.86,7.86-3.52,7.86-7.86,7.86-7.86-3.52-7.86-7.86h0Z"/>
                    <path class="cls-31" d="M110.59,71.56c0-4.34,3.52-7.86,7.86-7.86s7.86,3.52,7.86,7.86-3.52,7.86-7.86,7.86-7.86-3.52-7.86-7.86h0Z"/>
                    <g class="cls-57">
                      <path class="cls-9" d="M111.55,244.36c0-4.34,3.52-7.86,7.86-7.86s7.86,3.52,7.86,7.86-3.52,7.86-7.86,7.86-7.86-3.52-7.86-7.86h0Z"/>
                      <path class="cls-31" d="M111.55,244.36c0-4.34,3.52-7.86,7.86-7.86s7.86,3.52,7.86,7.86-3.52,7.86-7.86,7.86-7.86-3.52-7.86-7.86h0Z"/>
                      <g class="cls-37">
                        <path class="cls-17" d="M111.55,175.54c0-4.31,3.52-7.8,7.86-7.8s7.86,3.49,7.86,7.8-3.52,7.8-7.86,7.8-7.86-3.49-7.86-7.8h0Z"/>
                        <path class="cls-31" d="M111.55,175.54c0-4.31,3.52-7.8,7.86-7.8s7.86,3.49,7.86,7.8-3.52,7.8-7.86,7.8-7.86-3.49-7.86-7.8h0Z"/>
                        <g class="cls-39">
                          <path class="cls-11" d="M181.99,117.94c0-15.11,12.25-27.36,27.36-27.36s27.36,12.25,27.36,27.36-12.25,27.36-27.36,27.36-27.36-12.25-27.36-27.36h0Z"/>
                          <g class="cls-45">
                            <path class="cls-11" d="M209.81,267.58c-15.1,0-27.34-12.25-27.34-27.36s12.24-27.36,27.34-27.36c1.89,0,3.73.19,5.51.56l4.95,1.54-.18.06c-9.81,4.15-16.7,13.88-16.7,25.21s6.88,21.06,16.7,25.21l.18.06-4.95,1.54c-1.78.36-3.62.56-5.51.56h0Z"/>
                            <g class="cls-61">
                              <polygon class="cls-13" points="184.27 152.86 244.87 152.86 244.87 193.78 184.27 193.78 184.27 152.86 184.27 152.86"/>
                              <polygon class="cls-30" points="184.27 152.86 244.87 152.86 244.87 193.78 184.27 193.78 184.27 152.86 184.27 152.86"/>
                              <g class="cls-74">
                                <g class="cls-63">
                                  <text class="cls-62" transform="translate(192.52 179.33)"><tspan class="cls-66" x="0" y="0">N</tspan><tspan x="13.1" y="0">o</tspan><tspan class="cls-44" x="23.41" y="0">i</tspan><tspan x="27.49" y="0">se</tspan></text>
                                </g>
                                <g class="cls-8">
                                  <g class="cls-70">
                                    <text class="cls-62" transform="translate(103.4 344.36)"><tspan class="cls-38" x="0" y="0">A</tspan><tspan x="11.42" y="0">E</tspan></text>
                                  </g>
                                  <g class="cls-6">
                                    <g class="cls-19">
                                      <text class="cls-62" transform="translate(123.81 344.36)"><tspan x="0" y="0">采样</tspan></text>
                                    </g>
                                    <g class="cls-65">
                                      <g class="cls-56">
                                        <text class="cls-62" transform="translate(94.17 25.69)"><tspan x="0" y="0">隐空间</tspan></text>
                                      </g>
                                      <g class="cls-3">
                                        <g class="cls-34">
                                          <text class="cls-62" transform="translate(5.41 26.39)"><tspan x="0" y="0">编码器</tspan></text>
                                        </g>
                                        <g class="cls-35">
                                          <g class="cls-75">
                                            <text class="cls-62" transform="translate(190.8 26.39)"><tspan x="0" y="0">解码器</tspan></text>
                                          </g>
                                        </g>
                                      </g>
                                    </g>
                                  </g>
                                </g>
                              </g>
                            </g>
                          </g>
                        </g>
                      </g>
                    </g>
                  </g>
                </g>
              </g>
            </g>
          </g>
        </g>
      </g>
    </g>
  </g>
  <line class="cls-27" x1="270.78" y1="3.46" x2="270.78" y2="351.39"/>
  <g>
    <path class="cls-11" d="M287.49,114.4c0-15.11,12.28-27.36,27.42-27.36s27.42,12.25,27.42,27.36-12.28,27.36-27.42,27.36-27.42-12.25-27.42-27.36h0Z"/>
    <path class="cls-11" d="M324.52,256.48c-15.15,0-27.43-12.28-27.43-27.42s12.28-27.42,27.43-27.42c1.89,0,3.74.19,5.53.56l4.97,1.54-.18.06c-9.84,4.16-16.75,13.91-16.75,25.27s6.91,21.1,16.75,25.27l.18.06-4.97,1.54c-1.79.37-3.63.56-5.53.56h0Z"/>
    <line class="cls-26" x1="393.57" y1="26.92" x2="393.57" y2="158.08"/>
    <polygon class="cls-15" points="396.57 157.08 393.57 163.08 390.57 157.07 396.57 157.08 396.57 157.08"/>
    <g class="cls-42">
      <path class="cls-18" d="M396.4,26.38v15.17s0,.08,0,.13v1.02s0,.08,0,.13v1.27s0,.08,0,.13c0,.04,0,.08,0,.13s0,.08,0,.13c0,.04,0,.08,0,.13,0,.04,0,.08,0,.13,0,.05,0,.08,0,.13,0,.05,0,.08,0,.13,0,.04,0,.08,0,.13,0,.04,0,.08,0,.13,0,.04,0,.08,0,.13,0,.05,0,.08,0,.13,0,.05,0,.08,0,.13,0,.04,0,.08,0,.13,0,.04,0,.08.01.13,0,.04,0,.08.02.13,0,.04,0,.08.01.13,0,.04,0,.08.02.13,0,.05,0,.08.01.13,0,.05,0,.08.02.13,0,.04,0,.08.02.13,0,.04,0,.08.01.13,0,.04,0,.08.01.13,0,.04,0,.08.02.13,0,.04,0,.08.01.13,0,.04,0,.08.02.13,0,.05,0,.08.01.13,0,.05,0,.08.02.13,0,.04,0,.08.01.13,0,.04.02.08.02.13s.01.08.01.13.02.08.02.13.01.08.01.13.02.08.02.13c0,.04.02.08.02.13,0,.04.01.08.02.13,0,.04.01.08.02.13,0,.04.02.08.02.13,0,.05.02.08.02.13,0,.05.01.08.02.13,0,.04.01.08.02.13,0,.04.02.08.02.13s.02.08.02.13.01.08.02.13c0,.04.01.08.02.13,0,.04.02.08.02.13,0,.05.02.08.03.13,0,.05.02.08.03.13.02.04.02.08.03.13,0,.04.02.08.03.13,0,.04.02.08.03.13,0,.04.02.08.03.13,0,.05.02.08.03.13,0,.05.02.08.03.13,0,.04.02.08.03.13,0,.04.02.08.03.13s.02.08.04.13c.02.04.02.08.04.13.01.05.02.08.04.13.01.05.02.08.04.13.02.04.02.08.04.13.02.04.02.08.04.13.01.04.02.08.04.13.01.04.03.08.04.13s.03.08.04.13c.02.04.03.08.05.13.01.05.03.08.04.13.02.05.03.08.05.13.02.04.03.08.04.13.02.04.03.08.05.13.01.04.03.08.04.13.02.04.03.08.05.13.01.04.03.08.05.13.01.05.03.08.05.13.02.05.04.08.05.13.02.04.04.08.05.13.01.04.04.08.05.13.01.04.04.08.05.13.02.05.04.08.05.13.02.05.04.08.06.13.02.04.04.08.06.13.02.04.04.08.06.13.02.04.04.08.06.13.02.04.05.08.06.13.02.04.05.08.07.13.02.04.05.08.07.13.02.05.04.08.07.13.02.05.04.08.07.13.02.05.05.08.07.13.02.04.05.08.07.13.02.04.04.08.07.13.02.04.05.08.08.13.02.04.05.08.07.13.02.05.05.08.08.13.02.05.05.08.07.13.03.04.05.08.08.13.03.04.05.08.08.13s.05.08.08.13c.03.05.05.08.08.13.03.05.06.08.08.13.03.04.06.08.09.13.03.04.06.08.09.13.03.04.06.08.09.13.03.04.06.08.09.13s.06.08.1.13c.03.04.07.08.1.13.03.05.07.08.1.13.03.05.07.08.1.13.03.04.07.08.1.13.04.04.07.08.11.13s.07.08.1.13c.04.04.07.08.11.13s.07.08.11.13c.04.04.07.08.11.13.04.05.08.08.11.13.04.04.08.08.11.13.04.04.07.08.12.13.04.04.07.08.12.13.04.04.08.08.12.13.04.05.08.08.12.13.04.04.08.08.13.13.05.04.08.08.13.13.05.04.08.08.13.13.04.04.09.08.13.13.04.04.09.08.13.13.05.04.09.08.14.13.04.05.09.08.13.13.05.05.09.08.14.13.05.04.1.08.14.13.04.04.1.08.14.13.04.04.1.08.14.13.05.04.1.08.15.13.05.04.1.08.15.13.05.04.11.08.15.13.05.05.11.08.16.13.05.05.1.08.16.13.05.04.1.08.16.13s.11.08.17.13.11.08.16.13c.05.05.11.08.17.13.05.05.11.08.17.13.06.04.11.08.17.13.06.04.11.08.17.13.06.04.12.08.17.13.05.04.12.08.18.13s.12.08.18.13c.06.05.12.08.18.13.06.05.12.08.19.13.06.04.13.08.19.13.06.04.13.08.19.13.07.04.13.08.2.13.07.04.13.08.19.13.07.04.14.08.2.13.06.04.13.08.2.13.07.05.13.08.2.13.07.05.14.08.2.13.07.04.14.08.21.13.07.04.14.08.21.13.07.04.14.08.21.13.07.05.14.08.22.13.08.05.14.08.22.13.07.04.14.08.22.13.07.04.15.08.22.13.08.04.15.08.23.13.07.04.15.08.22.13.08.04.15.08.23.13.08.05.16.08.23.13.07.05.16.08.23.13.07.04.16.08.24.13.08.04.16.08.24.13.08.04.16.08.24.13.08.04.16.08.25.13s.16.08.25.13.17.08.25.13c.08.05.17.08.26.13.09.05.17.08.25.13.08.04.17.08.26.13.08.04.17.08.25.13.09.04.17.08.26.13s.17.08.26.13c.09.05.18.08.26.13.08.05.18.08.27.13.09.04.18.08.27.13.09.04.18.08.27.13s.18.08.28.13c.09.04.19.08.28.13.09.05.19.08.28.13.09.05.19.08.28.13.1.04.19.08.28.13.1.04.19.08.29.13.1.04.19.08.28.13.1.04.2.08.29.13.1.04.19.08.29.13.1.04.19.08.29.13.1.05.2.08.29.13.1.05.2.08.3.13.1.04.2.08.3.13.11.04.2.08.3.13s.2.08.3.13c.1.04.2.08.31.13.11.05.2.08.31.13.1.05.2.08.31.13.1.04.2.08.31.13.11.04.21.08.31.13.11.04.21.08.32.13.1.04.21.08.31.13.11.05.21.08.32.13.1.05.21.08.31.13.11.04.21.08.32.13.1.04.21.08.32.13.1.04.21.08.32.13.11.04.22.08.32.13.11.04.22.08.32.13.1.04.22.08.32.13.1.05.22.08.32.13.11.05.22.08.32.13.11.04.22.08.33.13.11.04.22.08.33.13s.22.08.33.13.22.08.33.13.22.08.33.13c.11.05.22.08.33.13.11.05.22.08.33.13.11.04.23.08.33.13.11.04.23.08.33.13.11.04.23.08.33.13.11.05.23.08.33.13.11.05.23.08.34.13.11.04.23.08.34.13.11.04.22.08.34.13s.22.08.34.13.23.08.34.13c.11.04.23.08.34.13.11.04.22.08.34.13.11.05.22.08.34.13.11.05.23.08.34.13.11.04.23.08.34.13.11.04.22.08.33.13.11.04.22.08.33.13.11.04.22.08.33.13.11.04.22.08.33.13.1.05.22.08.33.13.11.05.22.08.33.13.11.04.22.08.33.13.11.04.22.08.33.13.11.04.22.08.33.13.11.04.22.08.33.13.11.05.22.08.32.13.11.04.22.08.32.13.11.04.22.08.32.13.1.04.22.08.32.13.1.04.22.08.32.13.11.04.21.08.32.13.11.04.21.08.32.13.1.05.21.08.31.13.11.05.21.08.32.13.1.04.21.08.31.13.11.04.21.08.32.13.1.04.21.08.31.13.1.04.2.08.31.13.11.04.2.08.31.13.11.04.2.08.3.13.1.05.2.08.3.13.1.05.2.08.3.13.1.04.2.08.3.13.1.04.2.08.29.13.1.04.2.08.29.13.1.05.19.08.29.13.1.05.19.08.28.13.1.04.19.08.29.13.1.04.19.08.28.13s.19.08.28.13.19.08.28.13.18.08.27.13c.09.05.18.08.27.13.09.05.18.08.26.13.09.04.17.08.26.13.09.04.17.08.26.13s.17.08.25.13.17.08.26.13c.08.04.16.08.25.13s.16.08.25.13c.08.05.17.08.24.13.08.05.16.08.24.13.08.04.16.08.23.13.07.04.16.08.23.13.07.04.15.08.22.13.08.05.15.08.23.13.07.05.15.08.22.13.07.04.14.08.22.13.07.04.14.08.21.13s.14.08.2.13c.07.04.13.08.2.13.07.04.13.08.19.13.06.05.13.08.2.13.07.05.13.08.19.13.06.04.12.08.19.13.06.04.12.08.18.13s.12.08.17.13c.06.04.11.08.17.13.05.04.11.08.16.13s.11.08.16.13c.05.05.11.08.16.13.05.05.1.08.15.13.05.04.1.08.14.13.05.04.1.08.14.13.05.04.09.08.14.13.04.04.09.08.13.13.04.05.08.08.13.13.04.04.08.08.12.13.04.04.08.08.11.13.04.04.07.08.11.13.04.04.07.08.1.13.04.04.07.08.1.13.03.05.07.08.1.13.03.05.06.08.09.13.03.04.06.08.08.13.03.04.05.08.08.13.02.04.05.08.08.13.02.04.04.08.07.13s.04.08.06.13c.02.04.04.08.06.13.01.05.04.08.05.13.01.05.03.08.04.13.02.04.03.08.04.13.02.04.02.08.04.13.01.04.02.08.03.13,0,.04.01.08.02.13,0,.05.02.08.02.13,0,.05,0,.08.02.13,0,.04,0,.08,0,.13v.25s0,.08,0,.13c0,.05,0,.08-.02.13,0,.05-.01.08-.02.13,0,.04-.01.08-.02.13,0,.04-.02.08-.03.13,0,.04-.02.08-.04.13-.01.04-.03.08-.04.13-.01.04-.03.08-.04.13-.02.04-.04.08-.05.13-.02.05-.04.08-.06.13-.02.05-.04.08-.06.13-.02.04-.05.08-.07.13-.02.04-.05.08-.08.13-.02.04-.05.08-.08.13s-.05.08-.08.13c-.03.05-.06.08-.09.13-.03.05-.06.08-.1.13-.03.04-.07.08-.1.13-.04.04-.07.08-.1.13-.04.04-.08.08-.11.13-.04.04-.08.08-.11.13-.04.05-.08.08-.12.13-.04.05-.08.08-.13.13-.05.04-.09.08-.13.13-.04.04-.09.08-.14.13-.04.04-.09.08-.14.13-.04.04-.1.08-.14.13-.05.04-.1.08-.15.13-.05.04-.11.08-.16.13-.05.05-.1.08-.16.13-.05.05-.11.08-.16.13-.05.05-.11.08-.17.13-.06.04-.11.08-.17.13s-.12.08-.18.13-.12.08-.19.13c-.06.04-.13.08-.19.13-.06.05-.13.08-.2.13-.07.05-.13.08-.19.13-.07.04-.14.08-.2.13-.07.04-.14.08-.2.13s-.14.08-.21.13c-.07.05-.14.08-.22.13-.08.05-.14.08-.22.13-.08.04-.15.08-.23.13-.07.04-.15.08-.22.13-.08.04-.15.08-.23.13-.08.04-.16.08-.23.13-.07.04-.16.08-.24.13s-.16.08-.24.13c-.08.05-.16.08-.25.13-.08.05-.17.08-.25.13-.08.04-.17.08-.26.13-.08.04-.17.08-.25.13-.08.04-.17.08-.26.13-.09.04-.17.08-.26.13s-.18.08-.26.13c-.09.05-.18.08-.27.13-.09.05-.18.08-.27.13-.09.04-.18.08-.28.13-.09.04-.19.08-.28.13s-.19.08-.28.13-.19.08-.29.13c-.1.05-.19.08-.28.13-.1.05-.2.08-.29.13-.1.04-.2.08-.29.13-.1.04-.19.08-.29.13-.1.04-.19.08-.3.13-.1.04-.2.08-.3.13-.1.04-.2.08-.3.13-.1.05-.2.08-.3.13-.1.05-.2.08-.31.13-.1.04-.2.08-.31.13-.11.04-.2.08-.31.13-.11.04-.21.08-.32.13-.1.04-.21.08-.31.13-.11.04-.21.08-.32.13-.1.04-.21.08-.31.13-.11.05-.21.08-.32.13-.1.05-.21.08-.32.13-.1.04-.22.08-.32.13-.11.04-.22.08-.32.13-.11.04-.22.08-.32.13-.1.05-.22.08-.32.13-.1.05-.22.08-.32.13-.11.04-.22.08-.33.13-.11.04-.22.08-.33.13-.11.04-.22.08-.33.13-.11.04-.22.08-.33.13-.11.04-.22.08-.33.13-.11.05-.22.08-.33.13-.11.05-.23.08-.33.13-.11.04-.23.08-.33.13-.11.04-.23.08-.33.13-.11.04-.23.08-.33.13-.11.04-.23.08-.34.13-.11.04-.22.08-.34.13s-.22.08-.34.13c-.11.05-.23.08-.34.13-.11.05-.23.08-.34.13-.11.04-.22.08-.34.13-.11.04-.22.08-.34.13s-.23.08-.34.13c-.11.04-.23.08-.34.13-.11.05-.22.08-.34.13-.11.05-.22.08-.33.13-.1.04-.22.08-.33.13-.11.04-.22.08-.33.13-.11.04-.22.08-.33.13-.11.04-.22.08-.33.13-.11.05-.22.08-.33.13-.11.05-.22.08-.33.13-.11.04-.22.08-.33.13-.11.04-.22.08-.33.13s-.22.08-.33.13c-.11.04-.22.08-.33.13-.11.04-.22.08-.32.13-.1.04-.22.08-.32.13-.11.04-.22.08-.32.13-.11.05-.22.08-.32.13-.1.04-.22.08-.32.13-.1.04-.22.08-.32.13-.11.04-.21.08-.32.13-.11.04-.21.08-.32.13-.1.05-.21.08-.31.13-.11.05-.21.08-.32.13-.1.04-.21.08-.31.13-.11.04-.21.08-.32.13-.1.04-.21.08-.31.13-.1.04-.2.08-.31.13-.11.05-.2.08-.31.13-.11.05-.2.08-.31.13-.1.05-.2.08-.31.13-.1.04-.2.08-.3.13s-.2.08-.3.13-.2.08-.3.13c-.1.04-.19.08-.3.13-.1.04-.19.08-.29.13-.1.05-.19.08-.29.13-.1.05-.2.08-.29.13-.1.04-.2.08-.29.13-.1.04-.19.08-.28.13-.1.04-.19.08-.29.13-.1.04-.19.08-.28.13-.1.04-.19.08-.28.13-.09.05-.19.08-.28.13-.09.04-.19.08-.28.13-.09.04-.18.08-.28.13-.09.04-.18.08-.27.13s-.18.08-.27.13c-.09.05-.18.08-.27.13-.09.05-.18.08-.26.13-.09.04-.17.08-.26.13-.09.04-.17.08-.26.13-.09.04-.17.08-.25.13-.08.04-.17.08-.26.13-.08.04-.17.08-.25.13s-.17.08-.26.13c-.08.05-.16.08-.25.13-.08.05-.16.08-.25.13-.08.04-.17.08-.25.13-.08.04-.17.08-.24.13-.08.04-.16.08-.24.13-.08.04-.16.08-.24.13-.08.05-.16.08-.23.13-.08.05-.16.08-.23.13-.07.04-.15.08-.23.13-.07.04-.15.08-.22.13-.08.04-.15.08-.23.13-.07.04-.15.08-.22.13-.08.05-.15.08-.22.13-.07.05-.14.08-.22.13-.07.04-.14.08-.22.13-.07.04-.14.08-.21.13-.07.04-.14.08-.21.13-.07.04-.14.08-.21.13-.07.04-.13.08-.2.13-.07.04-.13.08-.2.13-.07.05-.14.08-.2.13-.07.05-.14.08-.2.13-.06.04-.13.08-.19.13-.07.04-.13.08-.2.13-.07.04-.13.08-.19.13-.06.04-.13.08-.19.13-.06.04-.13.08-.19.13-.06.05-.12.08-.18.13-.06.05-.12.08-.18.13-.06.04-.12.08-.18.13-.06.04-.12.08-.17.13-.06.04-.11.08-.17.13-.06.05-.11.08-.17.13-.06.05-.11.08-.17.13-.05.04-.11.08-.17.13-.05.04-.11.08-.16.13-.05.04-.11.08-.17.13-.05.04-.1.08-.16.13s-.11.08-.16.13c-.05.04-.11.08-.16.13-.05.05-.1.08-.15.13-.05.05-.1.08-.15.13-.05.04-.1.08-.15.13-.05.04-.1.08-.14.13-.05.04-.1.08-.14.13-.05.04-.1.08-.14.13-.04.04-.09.08-.14.13-.04.04-.09.08-.13.13-.05.05-.09.08-.14.13-.04.04-.09.08-.13.13-.05.04-.09.08-.13.13-.04.04-.08.08-.13.13-.04.04-.08.08-.13.13-.04.05-.08.08-.13.13-.04.05-.08.08-.12.13-.04.04-.08.08-.12.13-.04.04-.08.08-.12.13-.04.04-.08.08-.12.13-.05.04-.08.08-.11.13-.04.04-.07.08-.11.13-.04.05-.07.08-.11.13-.04.05-.08.08-.11.13-.04.04-.08.08-.11.13-.04.04-.07.08-.1.13s-.07.08-.11.13c-.04.04-.07.08-.1.13-.03.04-.07.08-.1.13-.03.04-.07.08-.1.13-.03.05-.07.08-.1.13-.03.05-.06.08-.1.13-.03.04-.06.08-.09.13-.03.04-.06.08-.09.13-.03.04-.06.08-.09.13-.03.05-.06.08-.09.13-.03.05-.06.08-.08.13-.03.04-.06.08-.08.13-.02.04-.05.08-.08.13s-.05.08-.08.13-.05.08-.08.13-.05.08-.07.13c-.02.05-.05.08-.08.13-.02.05-.05.08-.07.13-.02.04-.05.08-.08.13-.02.04-.04.08-.07.13-.02.04-.05.08-.07.13-.02.04-.04.08-.07.13-.02.04-.04.08-.07.13-.02.04-.04.08-.07.13-.02.05-.05.08-.07.13-.02.05-.04.08-.07.13-.02.04-.04.08-.06.13-.02.04-.04.08-.06.13-.02.04-.04.08-.06.13-.02.04-.04.08-.06.13-.02.05-.04.08-.06.13-.02.05-.04.08-.05.13-.01.04-.04.08-.05.13-.02.04-.04.08-.05.13-.02.04-.04.08-.05.13-.01.04-.04.08-.05.13-.01.05-.04.08-.05.13-.02.05-.03.08-.05.13-.02.04-.03.08-.05.13-.01.04-.03.08-.04.13-.02.04-.03.08-.05.13-.01.04-.03.08-.04.13-.02.04-.03.08-.05.13-.01.04-.03.08-.04.13-.02.05-.03.08-.05.13-.01.05-.03.08-.04.13,0,.04-.03.08-.04.13-.02.04-.03.08-.04.13-.02.04-.02.08-.04.13-.01.04-.02.08-.04.13-.01.05-.02.08-.04.13-.02.05-.02.08-.04.13-.02.04-.02.08-.04.13-.01.04-.02.08-.04.13-.01.04-.02.08-.03.13,0,.04-.02.08-.03.13,0,.05-.02.08-.03.13,0,.05-.02.08-.03.13,0,.04-.02.08-.03.13,0,.04-.02.08-.03.13,0,.04-.02.08-.03.13s-.02.08-.03.13-.01.08-.03.13c0,.04-.01.08-.03.13,0,.05-.01.08-.02.13,0,.05-.01.08-.02.13,0,.04-.02.08-.02.13,0,.04-.02.08-.02.13s-.01.08-.02.13c0,.04-.01.08-.02.13,0,.04-.02.08-.02.13,0,.05-.02.08-.02.13,0,.05-.01.08-.02.13,0,.04-.01.08-.02.13,0,.04-.02.08-.02.13,0,.04-.02.08-.02.13,0,.05-.01.08-.02.13,0,.05-.01.08-.01.13s-.02.08-.02.13-.01.08-.01.13-.02.08-.02.13,0,.08-.01.13c0,.04,0,.08-.02.13,0,.04,0,.08-.01.13,0,.05,0,.08-.02.13,0,.05,0,.08-.01.13,0,.04,0,.08-.02.13,0,.04,0,.08-.01.13,0,.04,0,.08-.01.13,0,.04,0,.08-.02.13,0,.05,0,.08-.02.13,0,.05,0,.08-.01.13,0,.04,0,.08-.02.13,0,.04,0,.08-.01.13,0,.04,0,.08-.02.13,0,.04,0,.08-.01.13,0,.05,0,.08,0,.13,0,.05,0,.08,0,.13,0,.04,0,.08,0,.13,0,.04,0,.08,0,.13,0,.04,0,.08,0,.13,0,.04,0,.08,0,.13,0,.04,0,.08,0,.13,0,.04,0,.08,0,.13,0,.05,0,.08,0,.13,0,.05,0,.08,0,.13,0,.04,0,.08,0,.13,0,.04,0,.08,0,.13,0,.04,0,.08,0,.13v1.15s0,.08-.02.13v1.4s0,.08,0,.13v23.25"/>
      <path class="cls-23" d="M396.4,26.38v15.17s0,.08,0,.13v1.02s0,.08,0,.13v1.27s0,.08,0,.13c0,.04,0,.08,0,.13s0,.08,0,.13c0,.04,0,.08,0,.13,0,.04,0,.08,0,.13,0,.05,0,.08,0,.13,0,.05,0,.08,0,.13,0,.04,0,.08,0,.13,0,.04,0,.08,0,.13,0,.04,0,.08,0,.13,0,.05,0,.08,0,.13,0,.05,0,.08,0,.13,0,.04,0,.08,0,.13,0,.04,0,.08.01.13,0,.04,0,.08.02.13,0,.04,0,.08.01.13,0,.04,0,.08.02.13,0,.05,0,.08.01.13,0,.05,0,.08.02.13,0,.04,0,.08.02.13,0,.04,0,.08.01.13,0,.04,0,.08.01.13,0,.04,0,.08.02.13,0,.04,0,.08.01.13,0,.04,0,.08.02.13,0,.05,0,.08.01.13,0,.05,0,.08.02.13,0,.04,0,.08.01.13,0,.04.02.08.02.13s.01.08.01.13.02.08.02.13.01.08.01.13.02.08.02.13c0,.04.02.08.02.13,0,.04.01.08.02.13,0,.04.01.08.02.13,0,.04.02.08.02.13,0,.05.02.08.02.13,0,.05.01.08.02.13,0,.04.01.08.02.13,0,.04.02.08.02.13s.02.08.02.13.01.08.02.13c0,.04.01.08.02.13,0,.04.02.08.02.13,0,.05.02.08.03.13,0,.05.02.08.03.13.02.04.02.08.03.13,0,.04.02.08.03.13,0,.04.02.08.03.13,0,.04.02.08.03.13,0,.05.02.08.03.13,0,.05.02.08.03.13,0,.04.02.08.03.13,0,.04.02.08.03.13s.02.08.04.13c.02.04.02.08.04.13.01.05.02.08.04.13.01.05.02.08.04.13.02.04.02.08.04.13.02.04.02.08.04.13.01.04.02.08.04.13.01.04.03.08.04.13s.03.08.04.13c.02.04.03.08.05.13.01.05.03.08.04.13.02.05.03.08.05.13.02.04.03.08.04.13.02.04.03.08.05.13.01.04.03.08.04.13.02.04.03.08.05.13.01.04.03.08.05.13.01.05.03.08.05.13.02.05.04.08.05.13.02.04.04.08.05.13.01.04.04.08.05.13.01.04.04.08.05.13.02.05.04.08.05.13.02.05.04.08.06.13.02.04.04.08.06.13.02.04.04.08.06.13.02.04.04.08.06.13.02.04.05.08.06.13.02.04.05.08.07.13.02.04.05.08.07.13.02.05.04.08.07.13.02.05.04.08.07.13.02.05.05.08.07.13.02.04.05.08.07.13.02.04.04.08.07.13.02.04.05.08.08.13.02.04.05.08.07.13.02.05.05.08.08.13.02.05.05.08.07.13.03.04.05.08.08.13.03.04.05.08.08.13s.05.08.08.13c.03.05.05.08.08.13.03.05.06.08.08.13.03.04.06.08.09.13.03.04.06.08.09.13.03.04.06.08.09.13.03.04.06.08.09.13s.06.08.1.13c.03.04.07.08.1.13.03.05.07.08.1.13.03.05.07.08.1.13.03.04.07.08.1.13.04.04.07.08.11.13s.07.08.1.13c.04.04.07.08.11.13s.07.08.11.13c.04.04.07.08.11.13.04.05.08.08.11.13.04.04.08.08.11.13.04.04.07.08.12.13.04.04.07.08.12.13.04.04.08.08.12.13.04.05.08.08.12.13.04.04.08.08.13.13.05.04.08.08.13.13.05.04.08.08.13.13.04.04.09.08.13.13.04.04.09.08.13.13.05.04.09.08.14.13.04.05.09.08.13.13.05.05.09.08.14.13.05.04.1.08.14.13.04.04.1.08.14.13.04.04.1.08.14.13.05.04.1.08.15.13.05.04.1.08.15.13.05.04.11.08.15.13.05.05.11.08.16.13.05.05.1.08.16.13.05.04.1.08.16.13s.11.08.17.13.11.08.16.13c.05.05.11.08.17.13.05.05.11.08.17.13.06.04.11.08.17.13.06.04.11.08.17.13.06.04.12.08.17.13.05.04.12.08.18.13s.12.08.18.13c.06.05.12.08.18.13.06.05.12.08.19.13.06.04.13.08.19.13.06.04.13.08.19.13.07.04.13.08.2.13.07.04.13.08.19.13.07.04.14.08.2.13.06.04.13.08.2.13.07.05.13.08.2.13.07.05.14.08.2.13.07.04.14.08.21.13.07.04.14.08.21.13.07.04.14.08.21.13.07.05.14.08.22.13.08.05.14.08.22.13.07.04.14.08.22.13.07.04.15.08.22.13.08.04.15.08.23.13.07.04.15.08.22.13.08.04.15.08.23.13.08.05.16.08.23.13.07.05.16.08.23.13.07.04.16.08.24.13.08.04.16.08.24.13.08.04.16.08.24.13.08.04.16.08.25.13s.16.08.25.13.17.08.25.13c.08.05.17.08.26.13.09.05.17.08.25.13.08.04.17.08.26.13.08.04.17.08.25.13.09.04.17.08.26.13s.17.08.26.13c.09.05.18.08.26.13.08.05.18.08.27.13.09.04.18.08.27.13.09.04.18.08.27.13s.18.08.28.13c.09.04.19.08.28.13.09.05.19.08.28.13.09.05.19.08.28.13.1.04.19.08.28.13.1.04.19.08.29.13.1.04.19.08.28.13.1.04.2.08.29.13.1.04.19.08.29.13.1.04.19.08.29.13.1.05.2.08.29.13.1.05.2.08.3.13.1.04.2.08.3.13.11.04.2.08.3.13s.2.08.3.13c.1.04.2.08.31.13.11.05.2.08.31.13.1.05.2.08.31.13.1.04.2.08.31.13.11.04.21.08.31.13.11.04.21.08.32.13.1.04.21.08.31.13.11.05.21.08.32.13.1.05.21.08.31.13.11.04.21.08.32.13.1.04.21.08.32.13.1.04.21.08.32.13.11.04.22.08.32.13.11.04.22.08.32.13.1.04.22.08.32.13.1.05.22.08.32.13.11.05.22.08.32.13.11.04.22.08.33.13.11.04.22.08.33.13s.22.08.33.13.22.08.33.13.22.08.33.13c.11.05.22.08.33.13.11.05.22.08.33.13.11.04.23.08.33.13.11.04.23.08.33.13.11.04.23.08.33.13.11.05.23.08.33.13.11.05.23.08.34.13.11.04.23.08.34.13.11.04.22.08.34.13s.22.08.34.13.23.08.34.13c.11.04.23.08.34.13.11.04.22.08.34.13.11.05.22.08.34.13.11.05.23.08.34.13.11.04.23.08.34.13.11.04.22.08.33.13.11.04.22.08.33.13.11.04.22.08.33.13.11.04.22.08.33.13.1.05.22.08.33.13.11.05.22.08.33.13.11.04.22.08.33.13.11.04.22.08.33.13.11.04.22.08.33.13.11.04.22.08.33.13.11.05.22.08.32.13.11.04.22.08.32.13.11.04.22.08.32.13.1.04.22.08.32.13.1.04.22.08.32.13.11.04.21.08.32.13.11.04.21.08.32.13.1.05.21.08.31.13.11.05.21.08.32.13.1.04.21.08.31.13.11.04.21.08.32.13.1.04.21.08.31.13.1.04.2.08.31.13.11.04.2.08.31.13.11.04.2.08.3.13.1.05.2.08.3.13.1.05.2.08.3.13.1.04.2.08.3.13.1.04.2.08.29.13.1.04.2.08.29.13.1.05.19.08.29.13.1.05.19.08.28.13.1.04.19.08.29.13.1.04.19.08.28.13s.19.08.28.13.19.08.28.13.18.08.27.13c.09.05.18.08.27.13.09.05.18.08.26.13.09.04.17.08.26.13.09.04.17.08.26.13s.17.08.25.13.17.08.26.13c.08.04.16.08.25.13s.16.08.25.13c.08.05.17.08.24.13.08.05.16.08.24.13.08.04.16.08.23.13.07.04.16.08.23.13.07.04.15.08.22.13.08.05.15.08.23.13.07.05.15.08.22.13.07.04.14.08.22.13.07.04.14.08.21.13s.14.08.2.13c.07.04.13.08.2.13.07.04.13.08.19.13.06.05.13.08.2.13.07.05.13.08.19.13.06.04.12.08.19.13.06.04.12.08.18.13s.12.08.17.13c.06.04.11.08.17.13.05.04.11.08.16.13s.11.08.16.13c.05.05.11.08.16.13.05.05.1.08.15.13.05.04.1.08.14.13.05.04.1.08.14.13.05.04.09.08.14.13.04.04.09.08.13.13.04.05.08.08.13.13.04.04.08.08.12.13.04.04.08.08.11.13.04.04.07.08.11.13.04.04.07.08.1.13.04.04.07.08.1.13.03.05.07.08.1.13.03.05.06.08.09.13.03.04.06.08.08.13.03.04.05.08.08.13.02.04.05.08.08.13.02.04.04.08.07.13s.04.08.06.13c.02.04.04.08.06.13.01.05.04.08.05.13.01.05.03.08.04.13.02.04.03.08.04.13.02.04.02.08.04.13.01.04.02.08.03.13,0,.04.01.08.02.13,0,.05.02.08.02.13,0,.05,0,.08.02.13,0,.04,0,.08,0,.13v.25s0,.08,0,.13c0,.05,0,.08-.02.13,0,.05-.01.08-.02.13,0,.04-.01.08-.02.13,0,.04-.02.08-.03.13,0,.04-.02.08-.04.13-.01.04-.03.08-.04.13-.01.04-.03.08-.04.13-.02.04-.04.08-.05.13-.02.05-.04.08-.06.13-.02.05-.04.08-.06.13-.02.04-.05.08-.07.13-.02.04-.05.08-.08.13-.02.04-.05.08-.08.13s-.05.08-.08.13c-.03.05-.06.08-.09.13-.03.05-.06.08-.1.13-.03.04-.07.08-.1.13-.04.04-.07.08-.1.13-.04.04-.08.08-.11.13-.04.04-.08.08-.11.13-.04.05-.08.08-.12.13-.04.05-.08.08-.13.13-.05.04-.09.08-.13.13-.04.04-.09.08-.14.13-.04.04-.09.08-.14.13-.04.04-.1.08-.14.13-.05.04-.1.08-.15.13-.05.04-.11.08-.16.13-.05.05-.1.08-.16.13-.05.05-.11.08-.16.13-.05.05-.11.08-.17.13-.06.04-.11.08-.17.13s-.12.08-.18.13-.12.08-.19.13c-.06.04-.13.08-.19.13-.06.05-.13.08-.2.13-.07.05-.13.08-.19.13-.07.04-.14.08-.2.13-.07.04-.14.08-.2.13s-.14.08-.21.13c-.07.05-.14.08-.22.13-.08.05-.14.08-.22.13-.08.04-.15.08-.23.13-.07.04-.15.08-.22.13-.08.04-.15.08-.23.13-.08.04-.16.08-.23.13-.07.04-.16.08-.24.13s-.16.08-.24.13c-.08.05-.16.08-.25.13-.08.05-.17.08-.25.13-.08.04-.17.08-.26.13-.08.04-.17.08-.25.13-.08.04-.17.08-.26.13-.09.04-.17.08-.26.13s-.18.08-.26.13c-.09.05-.18.08-.27.13-.09.05-.18.08-.27.13-.09.04-.18.08-.28.13-.09.04-.19.08-.28.13s-.19.08-.28.13-.19.08-.29.13c-.1.05-.19.08-.28.13-.1.05-.2.08-.29.13-.1.04-.2.08-.29.13-.1.04-.19.08-.29.13-.1.04-.19.08-.3.13-.1.04-.2.08-.3.13-.1.04-.2.08-.3.13-.1.05-.2.08-.3.13-.1.05-.2.08-.31.13-.1.04-.2.08-.31.13-.11.04-.2.08-.31.13-.11.04-.21.08-.32.13-.1.04-.21.08-.31.13-.11.04-.21.08-.32.13-.1.04-.21.08-.31.13-.11.05-.21.08-.32.13-.1.05-.21.08-.32.13-.1.04-.22.08-.32.13-.11.04-.22.08-.32.13-.11.04-.22.08-.32.13-.1.05-.22.08-.32.13-.1.05-.22.08-.32.13-.11.04-.22.08-.33.13-.11.04-.22.08-.33.13-.11.04-.22.08-.33.13-.11.04-.22.08-.33.13-.11.04-.22.08-.33.13-.11.05-.22.08-.33.13-.11.05-.23.08-.33.13-.11.04-.23.08-.33.13-.11.04-.23.08-.33.13-.11.04-.23.08-.33.13-.11.04-.23.08-.34.13-.11.04-.22.08-.34.13s-.22.08-.34.13c-.11.05-.23.08-.34.13-.11.05-.23.08-.34.13-.11.04-.22.08-.34.13-.11.04-.22.08-.34.13s-.23.08-.34.13c-.11.04-.23.08-.34.13-.11.05-.22.08-.34.13-.11.05-.22.08-.33.13-.1.04-.22.08-.33.13-.11.04-.22.08-.33.13-.11.04-.22.08-.33.13-.11.04-.22.08-.33.13-.11.05-.22.08-.33.13-.11.05-.22.08-.33.13-.11.04-.22.08-.33.13-.11.04-.22.08-.33.13s-.22.08-.33.13c-.11.04-.22.08-.33.13-.11.04-.22.08-.32.13-.1.04-.22.08-.32.13-.11.04-.22.08-.32.13-.11.05-.22.08-.32.13-.1.04-.22.08-.32.13-.1.04-.22.08-.32.13-.11.04-.21.08-.32.13-.11.04-.21.08-.32.13-.1.05-.21.08-.31.13-.11.05-.21.08-.32.13-.1.04-.21.08-.31.13-.11.04-.21.08-.32.13-.1.04-.21.08-.31.13-.1.04-.2.08-.31.13-.11.05-.2.08-.31.13-.11.05-.2.08-.31.13-.1.05-.2.08-.31.13-.1.04-.2.08-.3.13s-.2.08-.3.13-.2.08-.3.13c-.1.04-.19.08-.3.13-.1.04-.19.08-.29.13-.1.05-.19.08-.29.13-.1.05-.2.08-.29.13-.1.04-.2.08-.29.13-.1.04-.19.08-.28.13-.1.04-.19.08-.29.13-.1.04-.19.08-.28.13-.1.04-.19.08-.28.13-.09.05-.19.08-.28.13-.09.04-.19.08-.28.13-.09.04-.18.08-.28.13-.09.04-.18.08-.27.13s-.18.08-.27.13c-.09.05-.18.08-.27.13-.09.05-.18.08-.26.13-.09.04-.17.08-.26.13-.09.04-.17.08-.26.13-.09.04-.17.08-.25.13-.08.04-.17.08-.26.13-.08.04-.17.08-.25.13s-.17.08-.26.13c-.08.05-.16.08-.25.13-.08.05-.16.08-.25.13-.08.04-.17.08-.25.13-.08.04-.17.08-.24.13-.08.04-.16.08-.24.13-.08.04-.16.08-.24.13-.08.05-.16.08-.23.13-.08.05-.16.08-.23.13-.07.04-.15.08-.23.13-.07.04-.15.08-.22.13-.08.04-.15.08-.23.13-.07.04-.15.08-.22.13-.08.05-.15.08-.22.13-.07.05-.14.08-.22.13-.07.04-.14.08-.22.13-.07.04-.14.08-.21.13-.07.04-.14.08-.21.13-.07.04-.14.08-.21.13-.07.04-.13.08-.2.13-.07.04-.13.08-.2.13-.07.05-.14.08-.2.13-.07.05-.14.08-.2.13-.06.04-.13.08-.19.13-.07.04-.13.08-.2.13-.07.04-.13.08-.19.13-.06.04-.13.08-.19.13-.06.04-.13.08-.19.13-.06.05-.12.08-.18.13-.06.05-.12.08-.18.13-.06.04-.12.08-.18.13-.06.04-.12.08-.17.13-.06.04-.11.08-.17.13-.06.05-.11.08-.17.13-.06.05-.11.08-.17.13-.05.04-.11.08-.17.13-.05.04-.11.08-.16.13-.05.04-.11.08-.17.13-.05.04-.1.08-.16.13s-.11.08-.16.13c-.05.04-.11.08-.16.13-.05.05-.1.08-.15.13-.05.05-.1.08-.15.13-.05.04-.1.08-.15.13-.05.04-.1.08-.14.13-.05.04-.1.08-.14.13-.05.04-.1.08-.14.13-.04.04-.09.08-.14.13-.04.04-.09.08-.13.13-.05.05-.09.08-.14.13-.04.04-.09.08-.13.13-.05.04-.09.08-.13.13-.04.04-.08.08-.13.13-.04.04-.08.08-.13.13-.04.05-.08.08-.13.13-.04.05-.08.08-.12.13-.04.04-.08.08-.12.13-.04.04-.08.08-.12.13-.04.04-.08.08-.12.13-.05.04-.08.08-.11.13-.04.04-.07.08-.11.13-.04.05-.07.08-.11.13-.04.05-.08.08-.11.13-.04.04-.08.08-.11.13-.04.04-.07.08-.1.13s-.07.08-.11.13c-.04.04-.07.08-.1.13-.03.04-.07.08-.1.13-.03.04-.07.08-.1.13-.03.05-.07.08-.1.13-.03.05-.06.08-.1.13-.03.04-.06.08-.09.13-.03.04-.06.08-.09.13-.03.04-.06.08-.09.13-.03.05-.06.08-.09.13-.03.05-.06.08-.08.13-.03.04-.06.08-.08.13-.02.04-.05.08-.08.13s-.05.08-.08.13-.05.08-.08.13-.05.08-.07.13c-.02.05-.05.08-.08.13-.02.05-.05.08-.07.13-.02.04-.05.08-.08.13-.02.04-.04.08-.07.13-.02.04-.05.08-.07.13-.02.04-.04.08-.07.13-.02.04-.04.08-.07.13-.02.04-.04.08-.07.13-.02.05-.05.08-.07.13-.02.05-.04.08-.07.13-.02.04-.04.08-.06.13-.02.04-.04.08-.06.13-.02.04-.04.08-.06.13-.02.04-.04.08-.06.13-.02.05-.04.08-.06.13-.02.05-.04.08-.05.13-.01.04-.04.08-.05.13-.02.04-.04.08-.05.13-.02.04-.04.08-.05.13-.01.04-.04.08-.05.13-.01.05-.04.08-.05.13-.02.05-.03.08-.05.13-.02.04-.03.08-.05.13-.01.04-.03.08-.04.13-.02.04-.03.08-.05.13-.01.04-.03.08-.04.13-.02.04-.03.08-.05.13-.01.04-.03.08-.04.13-.02.05-.03.08-.05.13-.01.05-.03.08-.04.13,0,.04-.03.08-.04.13-.02.04-.03.08-.04.13-.02.04-.02.08-.04.13-.01.04-.02.08-.04.13-.01.05-.02.08-.04.13-.02.05-.02.08-.04.13-.02.04-.02.08-.04.13-.01.04-.02.08-.04.13-.01.04-.02.08-.03.13,0,.04-.02.08-.03.13,0,.05-.02.08-.03.13,0,.05-.02.08-.03.13,0,.04-.02.08-.03.13,0,.04-.02.08-.03.13,0,.04-.02.08-.03.13s-.02.08-.03.13-.01.08-.03.13c0,.04-.01.08-.03.13,0,.05-.01.08-.02.13,0,.05-.01.08-.02.13,0,.04-.02.08-.02.13,0,.04-.02.08-.02.13s-.01.08-.02.13c0,.04-.01.08-.02.13,0,.04-.02.08-.02.13,0,.05-.02.08-.02.13,0,.05-.01.08-.02.13,0,.04-.01.08-.02.13,0,.04-.02.08-.02.13,0,.04-.02.08-.02.13,0,.05-.01.08-.02.13,0,.05-.01.08-.01.13s-.02.08-.02.13-.01.08-.01.13-.02.08-.02.13,0,.08-.01.13c0,.04,0,.08-.02.13,0,.04,0,.08-.01.13,0,.05,0,.08-.02.13,0,.05,0,.08-.01.13,0,.04,0,.08-.02.13,0,.04,0,.08-.01.13,0,.04,0,.08-.01.13,0,.04,0,.08-.02.13,0,.05,0,.08-.02.13,0,.05,0,.08-.01.13,0,.04,0,.08-.02.13,0,.04,0,.08-.01.13,0,.04,0,.08-.02.13,0,.04,0,.08-.01.13,0,.05,0,.08,0,.13,0,.05,0,.08,0,.13,0,.04,0,.08,0,.13,0,.04,0,.08,0,.13,0,.04,0,.08,0,.13,0,.04,0,.08,0,.13,0,.04,0,.08,0,.13,0,.04,0,.08,0,.13,0,.05,0,.08,0,.13,0,.05,0,.08,0,.13,0,.04,0,.08,0,.13,0,.04,0,.08,0,.13,0,.04,0,.08,0,.13v1.15s0,.08-.02.13v1.4s0,.08,0,.13v23.25"/>
      <g class="cls-60">
        <line class="cls-28" x1="393.57" y1="190" x2="393.57" y2="321.16"/>
        <polygon class="cls-10" points="396.57 320.16 393.57 326.16 390.57 320.15 396.57 320.16 396.57 320.16"/>
        <g class="cls-43">
          <path class="cls-16" d="M396.4,189.46v15.17s0,.08,0,.13v1.02s0,.08,0,.13v1.27s0,.08,0,.13c0,.04,0,.08,0,.13s0,.08,0,.13c0,.04,0,.08,0,.13,0,.04,0,.08,0,.13,0,.05,0,.08,0,.13,0,.05,0,.08,0,.13,0,.04,0,.08,0,.13,0,.04,0,.08,0,.13,0,.04,0,.08,0,.13,0,.05,0,.08,0,.13,0,.05,0,.08,0,.13,0,.04,0,.08,0,.13,0,.04,0,.08.01.13,0,.04,0,.08.02.13,0,.04,0,.08.01.13,0,.04,0,.08.02.13,0,.05,0,.08.01.13,0,.05,0,.08.02.13,0,.04,0,.08.02.13,0,.04,0,.08.01.13,0,.04,0,.08.01.13,0,.04,0,.08.02.13,0,.04,0,.08.01.13,0,.04,0,.08.02.13,0,.05,0,.08.01.13,0,.05,0,.08.02.13,0,.04,0,.08.01.13,0,.04.02.08.02.13s.01.08.01.13.02.08.02.13.01.08.01.13.02.08.02.13c0,.04.02.08.02.13,0,.04.01.08.02.13,0,.04.01.08.02.13,0,.04.02.08.02.13,0,.05.02.08.02.13,0,.05.01.08.02.13,0,.04.01.08.02.13,0,.04.02.08.02.13s.02.08.02.13.01.08.02.13c0,.04.01.08.02.13,0,.04.02.08.02.13,0,.05.02.08.03.13,0,.05.02.08.03.13.02.04.02.08.03.13,0,.04.02.08.03.13,0,.04.02.08.03.13,0,.04.02.08.03.13,0,.05.02.08.03.13,0,.05.02.08.03.13,0,.04.02.08.03.13,0,.04.02.08.03.13s.02.08.04.13c.02.04.02.08.04.13.01.05.02.08.04.13.01.05.02.08.04.13.02.04.02.08.04.13.02.04.02.08.04.13.01.04.02.08.04.13.01.04.03.08.04.13s.03.08.04.13c.02.04.03.08.05.13.01.05.03.08.04.13.02.05.03.08.05.13.02.04.03.08.04.13.02.04.03.08.05.13.01.04.03.08.04.13.02.04.03.08.05.13.01.04.03.08.05.13.01.05.03.08.05.13.02.05.04.08.05.13.02.04.04.08.05.13.01.04.04.08.05.13.01.04.04.08.05.13.02.05.04.08.05.13.02.05.04.08.06.13.02.04.04.08.06.13.02.04.04.08.06.13.02.04.04.08.06.13.02.04.05.08.06.13.02.04.05.08.07.13.02.04.05.08.07.13.02.05.04.08.07.13.02.05.04.08.07.13.02.05.05.08.07.13.02.04.05.08.07.13.02.04.04.08.07.13.02.04.05.08.08.13.02.04.05.08.07.13.02.05.05.08.08.13.02.05.05.08.07.13.03.04.05.08.08.13.03.04.05.08.08.13s.05.08.08.13c.03.05.05.08.08.13.03.05.06.08.08.13.03.04.06.08.09.13.03.04.06.08.09.13.03.04.06.08.09.13.03.04.06.08.09.13s.06.08.1.13c.03.04.07.08.1.13.03.05.07.08.1.13.03.05.07.08.1.13.03.04.07.08.1.13.04.04.07.08.11.13s.07.08.1.13c.04.04.07.08.11.13s.07.08.11.13c.04.04.07.08.11.13.04.05.08.08.11.13.04.04.08.08.11.13.04.04.07.08.12.13.04.04.07.08.12.13.04.04.08.08.12.13.04.05.08.08.12.13.04.04.08.08.13.13.05.04.08.08.13.13.05.04.08.08.13.13.04.04.09.08.13.13.04.04.09.08.13.13.05.04.09.08.14.13.04.05.09.08.13.13.05.05.09.08.14.13.05.04.1.08.14.13.04.04.1.08.14.13.04.04.1.08.14.13.05.04.1.08.15.13.05.04.1.08.15.13.05.04.11.08.15.13.05.05.11.08.16.13.05.05.1.08.16.13.05.04.1.08.16.13s.11.08.17.13.11.08.16.13c.05.05.11.08.17.13.05.05.11.08.17.13.06.04.11.08.17.13.06.04.11.08.17.13.06.04.12.08.17.13.05.04.12.08.18.13s.12.08.18.13c.06.05.12.08.18.13.06.05.12.08.19.13.06.04.13.08.19.13.06.04.13.08.19.13.07.04.13.08.2.13.07.04.13.08.19.13.07.04.14.08.2.13.06.04.13.08.2.13.07.05.13.08.2.13.07.05.14.08.2.13.07.04.14.08.21.13.07.04.14.08.21.13.07.04.14.08.21.13.07.05.14.08.22.13.08.05.14.08.22.13.07.04.14.08.22.13.07.04.15.08.22.13.08.04.15.08.23.13.07.04.15.08.22.13.08.04.15.08.23.13.08.05.16.08.23.13.07.05.16.08.23.13.07.04.16.08.24.13.08.04.16.08.24.13.08.04.16.08.24.13.08.04.16.08.25.13s.16.08.25.13.17.08.25.13c.08.05.17.08.26.13.09.05.17.08.25.13.08.04.17.08.26.13.08.04.17.08.25.13.09.04.17.08.26.13s.17.08.26.13c.09.05.18.08.26.13.08.05.18.08.27.13.09.04.18.08.27.13.09.04.18.08.27.13s.18.08.28.13c.09.04.19.08.28.13.09.05.19.08.28.13.09.05.19.08.28.13.1.04.19.08.28.13.1.04.19.08.29.13.1.04.19.08.28.13.1.04.2.08.29.13.1.04.19.08.29.13.1.04.19.08.29.13.1.05.2.08.29.13.1.05.2.08.3.13.1.04.2.08.3.13.11.04.2.08.3.13s.2.08.3.13c.1.04.2.08.31.13.11.05.2.08.31.13.1.05.2.08.31.13.1.04.2.08.31.13.11.04.21.08.31.13.11.04.21.08.32.13.1.04.21.08.31.13.11.05.21.08.32.13.1.05.21.08.31.13.11.04.21.08.32.13.1.04.21.08.32.13.1.04.21.08.32.13.11.04.22.08.32.13.11.04.22.08.32.13.1.04.22.08.32.13.1.05.22.08.32.13.11.05.22.08.32.13.11.04.22.08.33.13.11.04.22.08.33.13s.22.08.33.13.22.08.33.13.22.08.33.13c.11.05.22.08.33.13.11.05.22.08.33.13.11.04.23.08.33.13.11.04.23.08.33.13.11.04.23.08.33.13.11.05.23.08.33.13.11.05.23.08.34.13.11.04.23.08.34.13.11.04.22.08.34.13s.22.08.34.13.23.08.34.13c.11.04.23.08.34.13.11.04.22.08.34.13.11.05.22.08.34.13.11.05.23.08.34.13.11.04.23.08.34.13.11.04.22.08.33.13.11.04.22.08.33.13.11.04.22.08.33.13.11.04.22.08.33.13.1.05.22.08.33.13.11.05.22.08.33.13.11.04.22.08.33.13.11.04.22.08.33.13.11.04.22.08.33.13.11.04.22.08.33.13.11.05.22.08.32.13.11.04.22.08.32.13.11.04.22.08.32.13.1.04.22.08.32.13.1.04.22.08.32.13.11.04.21.08.32.13.11.04.21.08.32.13.1.05.21.08.31.13.11.05.21.08.32.13.1.04.21.08.31.13.11.04.21.08.32.13.1.04.21.08.31.13.1.04.2.08.31.13.11.04.2.08.31.13.11.04.2.08.3.13.1.05.2.08.3.13.1.05.2.08.3.13.1.04.2.08.3.13.1.04.2.08.29.13.1.04.2.08.29.13.1.05.19.08.29.13.1.05.19.08.28.13.1.04.19.08.29.13.1.04.19.08.28.13s.19.08.28.13.19.08.28.13.18.08.27.13c.09.05.18.08.27.13.09.05.18.08.26.13.09.04.17.08.26.13.09.04.17.08.26.13s.17.08.25.13.17.08.26.13c.08.04.16.08.25.13s.16.08.25.13c.08.05.17.08.24.13.08.05.16.08.24.13.08.04.16.08.23.13.07.04.16.08.23.13.07.04.15.08.22.13.08.05.15.08.23.13.07.05.15.08.22.13.07.04.14.08.22.13.07.04.14.08.21.13s.14.08.2.13c.07.04.13.08.2.13.07.04.13.08.19.13.06.05.13.08.2.13.07.05.13.08.19.13.06.04.12.08.19.13.06.04.12.08.18.13s.12.08.17.13c.06.04.11.08.17.13.05.04.11.08.16.13s.11.08.16.13c.05.05.11.08.16.13.05.05.1.08.15.13.05.04.1.08.14.13.05.04.1.08.14.13.05.04.09.08.14.13.04.04.09.08.13.13.04.05.08.08.13.13.04.04.08.08.12.13.04.04.08.08.11.13.04.04.07.08.11.13.04.04.07.08.1.13.04.04.07.08.1.13.03.05.07.08.1.13.03.05.06.08.09.13.03.04.06.08.08.13.03.04.05.08.08.13.02.04.05.08.08.13.02.04.04.08.07.13s.04.08.06.13c.02.04.04.08.06.13.01.05.04.08.05.13.01.05.03.08.04.13.02.04.03.08.04.13.02.04.02.08.04.13.01.04.02.08.03.13,0,.04.01.08.02.13,0,.05.02.08.02.13,0,.05,0,.08.02.13,0,.04,0,.08,0,.13v.25s0,.08,0,.13c0,.05,0,.08-.02.13,0,.05-.01.08-.02.13,0,.04-.01.08-.02.13,0,.04-.02.08-.03.13,0,.04-.02.08-.04.13-.01.04-.03.08-.04.13-.01.04-.03.08-.04.13-.02.04-.04.08-.05.13-.02.05-.04.08-.06.13-.02.05-.04.08-.06.13-.02.04-.05.08-.07.13-.02.04-.05.08-.08.13-.02.04-.05.08-.08.13s-.05.08-.08.13c-.03.05-.06.08-.09.13-.03.05-.06.08-.1.13-.03.04-.07.08-.1.13-.04.04-.07.08-.1.13-.04.04-.08.08-.11.13-.04.04-.08.08-.11.13-.04.05-.08.08-.12.13-.04.05-.08.08-.13.13-.05.04-.09.08-.13.13-.04.04-.09.08-.14.13-.04.04-.09.08-.14.13-.04.04-.1.08-.14.13-.05.04-.1.08-.15.13-.05.04-.11.08-.16.13-.05.05-.1.08-.16.13-.05.05-.11.08-.16.13-.05.05-.11.08-.17.13-.06.04-.11.08-.17.13s-.12.08-.18.13-.12.08-.19.13c-.06.04-.13.08-.19.13-.06.05-.13.08-.2.13-.07.05-.13.08-.19.13-.07.04-.14.08-.2.13-.07.04-.14.08-.2.13s-.14.08-.21.13c-.07.05-.14.08-.22.13-.08.05-.14.08-.22.13-.08.04-.15.08-.23.13-.07.04-.15.08-.22.13-.08.04-.15.08-.23.13-.08.04-.16.08-.23.13-.07.04-.16.08-.24.13s-.16.08-.24.13c-.08.05-.16.08-.25.13-.08.05-.17.08-.25.13-.08.04-.17.08-.26.13-.08.04-.17.08-.25.13-.08.04-.17.08-.26.13-.09.04-.17.08-.26.13s-.18.08-.26.13c-.09.05-.18.08-.27.13-.09.05-.18.08-.27.13-.09.04-.18.08-.28.13-.09.04-.19.08-.28.13s-.19.08-.28.13-.19.08-.29.13c-.1.05-.19.08-.28.13-.1.05-.2.08-.29.13-.1.04-.2.08-.29.13-.1.04-.19.08-.29.13-.1.04-.19.08-.3.13-.1.04-.2.08-.3.13-.1.04-.2.08-.3.13-.1.05-.2.08-.3.13-.1.05-.2.08-.31.13-.1.04-.2.08-.31.13-.11.04-.2.08-.31.13-.11.04-.21.08-.32.13-.1.04-.21.08-.31.13-.11.04-.21.08-.32.13-.1.04-.21.08-.31.13-.11.05-.21.08-.32.13-.1.05-.21.08-.32.13-.1.04-.22.08-.32.13-.11.04-.22.08-.32.13-.11.04-.22.08-.32.13-.1.05-.22.08-.32.13-.1.05-.22.08-.32.13-.11.04-.22.08-.33.13-.11.04-.22.08-.33.13-.11.04-.22.08-.33.13-.11.04-.22.08-.33.13-.11.04-.22.08-.33.13-.11.05-.22.08-.33.13-.11.05-.23.08-.33.13-.11.04-.23.08-.33.13-.11.04-.23.08-.33.13-.11.04-.23.08-.33.13-.11.04-.23.08-.34.13-.11.04-.22.08-.34.13s-.22.08-.34.13c-.11.05-.23.08-.34.13-.11.05-.23.08-.34.13-.11.04-.22.08-.34.13-.11.04-.22.08-.34.13s-.23.08-.34.13c-.11.04-.23.08-.34.13-.11.05-.22.08-.34.13-.11.05-.22.08-.33.13-.1.04-.22.08-.33.13-.11.04-.22.08-.33.13-.11.04-.22.08-.33.13-.11.04-.22.08-.33.13-.11.05-.22.08-.33.13-.11.05-.22.08-.33.13-.11.04-.22.08-.33.13-.11.04-.22.08-.33.13s-.22.08-.33.13c-.11.04-.22.08-.33.13-.11.04-.22.08-.32.13-.1.04-.22.08-.32.13-.11.04-.22.08-.32.13-.11.05-.22.08-.32.13-.1.04-.22.08-.32.13-.1.04-.22.08-.32.13-.11.04-.21.08-.32.13-.11.04-.21.08-.32.13-.1.05-.21.08-.31.13-.11.05-.21.08-.32.13-.1.04-.21.08-.31.13-.11.04-.21.08-.32.13-.1.04-.21.08-.31.13-.1.04-.2.08-.31.13-.11.05-.2.08-.31.13-.11.05-.2.08-.31.13-.1.05-.2.08-.31.13-.1.04-.2.08-.3.13s-.2.08-.3.13-.2.08-.3.13c-.1.04-.19.08-.3.13-.1.04-.19.08-.29.13-.1.05-.19.08-.29.13-.1.05-.2.08-.29.13-.1.04-.2.08-.29.13-.1.04-.19.08-.28.13-.1.04-.19.08-.29.13-.1.04-.19.08-.28.13-.1.04-.19.08-.28.13-.09.05-.19.08-.28.13-.09.04-.19.08-.28.13-.09.04-.18.08-.28.13-.09.04-.18.08-.27.13s-.18.08-.27.13c-.09.05-.18.08-.27.13-.09.05-.18.08-.26.13-.09.04-.17.08-.26.13-.09.04-.17.08-.26.13-.09.04-.17.08-.25.13-.08.04-.17.08-.26.13-.08.04-.17.08-.25.13s-.17.08-.26.13c-.08.05-.16.08-.25.13-.08.05-.16.08-.25.13-.08.04-.17.08-.25.13-.08.04-.17.08-.24.13-.08.04-.16.08-.24.13-.08.04-.16.08-.24.13-.08.05-.16.08-.23.13-.08.05-.16.08-.23.13-.07.04-.15.08-.23.13-.07.04-.15.08-.22.13-.08.04-.15.08-.23.13-.07.04-.15.08-.22.13-.08.05-.15.08-.22.13-.07.05-.14.08-.22.13-.07.04-.14.08-.22.13-.07.04-.14.08-.21.13-.07.04-.14.08-.21.13-.07.04-.14.08-.21.13-.07.04-.13.08-.2.13-.07.04-.13.08-.2.13-.07.05-.14.08-.2.13-.07.05-.14.08-.2.13-.06.04-.13.08-.19.13-.07.04-.13.08-.2.13-.07.04-.13.08-.19.13-.06.04-.13.08-.19.13-.06.04-.13.08-.19.13-.06.05-.12.08-.18.13-.06.05-.12.08-.18.13-.06.04-.12.08-.18.13-.06.04-.12.08-.17.13-.06.04-.11.08-.17.13-.06.05-.11.08-.17.13-.06.05-.11.08-.17.13-.05.04-.11.08-.17.13-.05.04-.11.08-.16.13-.05.04-.11.08-.17.13-.05.04-.1.08-.16.13s-.11.08-.16.13c-.05.04-.11.08-.16.13-.05.05-.1.08-.15.13-.05.05-.1.08-.15.13-.05.04-.1.08-.15.13-.05.04-.1.08-.14.13-.05.04-.1.08-.14.13-.05.04-.1.08-.14.13-.04.04-.09.08-.14.13-.04.04-.09.08-.13.13-.05.05-.09.08-.14.13-.04.04-.09.08-.13.13-.05.04-.09.08-.13.13-.04.04-.08.08-.13.13-.04.04-.08.08-.13.13-.04.05-.08.08-.13.13-.04.05-.08.08-.12.13-.04.04-.08.08-.12.13-.04.04-.08.08-.12.13-.04.04-.08.08-.12.13-.05.04-.08.08-.11.13-.04.04-.07.08-.11.13-.04.05-.07.08-.11.13-.04.05-.08.08-.11.13-.04.04-.08.08-.11.13-.04.04-.07.08-.1.13s-.07.08-.11.13c-.04.04-.07.08-.1.13-.03.04-.07.08-.1.13-.03.04-.07.08-.1.13-.03.05-.07.08-.1.13-.03.05-.06.08-.1.13-.03.04-.06.08-.09.13-.03.04-.06.08-.09.13-.03.04-.06.08-.09.13-.03.05-.06.08-.09.13-.03.05-.06.08-.08.13-.03.04-.06.08-.08.13-.02.04-.05.08-.08.13s-.05.08-.08.13-.05.08-.08.13-.05.08-.07.13c-.02.05-.05.08-.08.13-.02.05-.05.08-.07.13-.02.04-.05.08-.08.13-.02.04-.04.08-.07.13-.02.04-.05.08-.07.13-.02.04-.04.08-.07.13-.02.04-.04.08-.07.13-.02.04-.04.08-.07.13-.02.05-.05.08-.07.13-.02.05-.04.08-.07.13-.02.04-.04.08-.06.13-.02.04-.04.08-.06.13-.02.04-.04.08-.06.13-.02.04-.04.08-.06.13-.02.05-.04.08-.06.13-.02.05-.04.08-.05.13-.01.04-.04.08-.05.13-.02.04-.04.08-.05.13-.02.04-.04.08-.05.13-.01.04-.04.08-.05.13-.01.05-.04.08-.05.13-.02.05-.03.08-.05.13-.02.04-.03.08-.05.13-.01.04-.03.08-.04.13-.02.04-.03.08-.05.13-.01.04-.03.08-.04.13-.02.04-.03.08-.05.13-.01.04-.03.08-.04.13-.02.05-.03.08-.05.13-.01.05-.03.08-.04.13,0,.04-.03.08-.04.13-.02.04-.03.08-.04.13-.02.04-.02.08-.04.13-.01.04-.02.08-.04.13-.01.05-.02.08-.04.13-.02.05-.02.08-.04.13-.02.04-.02.08-.04.13-.01.04-.02.08-.04.13-.01.04-.02.08-.03.13,0,.04-.02.08-.03.13,0,.05-.02.08-.03.13,0,.05-.02.08-.03.13,0,.04-.02.08-.03.13,0,.04-.02.08-.03.13,0,.04-.02.08-.03.13s-.02.08-.03.13-.01.08-.03.13c0,.04-.01.08-.03.13,0,.05-.01.08-.02.13,0,.05-.01.08-.02.13,0,.04-.02.08-.02.13,0,.04-.02.08-.02.13s-.01.08-.02.13c0,.04-.01.08-.02.13,0,.04-.02.08-.02.13,0,.05-.02.08-.02.13,0,.05-.01.08-.02.13,0,.04-.01.08-.02.13,0,.04-.02.08-.02.13,0,.04-.02.08-.02.13,0,.05-.01.08-.02.13,0,.05-.01.08-.01.13s-.02.08-.02.13-.01.08-.01.13-.02.08-.02.13,0,.08-.01.13c0,.04,0,.08-.02.13,0,.04,0,.08-.01.13,0,.05,0,.08-.02.13,0,.05,0,.08-.01.13,0,.04,0,.08-.02.13,0,.04,0,.08-.01.13,0,.04,0,.08-.01.13,0,.04,0,.08-.02.13,0,.05,0,.08-.02.13,0,.05,0,.08-.01.13,0,.04,0,.08-.02.13,0,.04,0,.08-.01.13,0,.04,0,.08-.02.13,0,.04,0,.08-.01.13,0,.05,0,.08,0,.13,0,.05,0,.08,0,.13,0,.04,0,.08,0,.13,0,.04,0,.08,0,.13,0,.04,0,.08,0,.13,0,.04,0,.08,0,.13,0,.04,0,.08,0,.13,0,.04,0,.08,0,.13,0,.05,0,.08,0,.13,0,.05,0,.08,0,.13,0,.04,0,.08,0,.13,0,.04,0,.08,0,.13,0,.04,0,.08,0,.13v1.15s0,.08-.02.13v1.4s0,.08,0,.13v23.25"/>
          <path class="cls-25" d="M396.4,189.46v15.17s0,.08,0,.13v1.02s0,.08,0,.13v1.27s0,.08,0,.13c0,.04,0,.08,0,.13s0,.08,0,.13c0,.04,0,.08,0,.13,0,.04,0,.08,0,.13,0,.05,0,.08,0,.13,0,.05,0,.08,0,.13,0,.04,0,.08,0,.13,0,.04,0,.08,0,.13,0,.04,0,.08,0,.13,0,.05,0,.08,0,.13,0,.05,0,.08,0,.13,0,.04,0,.08,0,.13,0,.04,0,.08.01.13,0,.04,0,.08.02.13,0,.04,0,.08.01.13,0,.04,0,.08.02.13,0,.05,0,.08.01.13,0,.05,0,.08.02.13,0,.04,0,.08.02.13,0,.04,0,.08.01.13,0,.04,0,.08.01.13,0,.04,0,.08.02.13,0,.04,0,.08.01.13,0,.04,0,.08.02.13,0,.05,0,.08.01.13,0,.05,0,.08.02.13,0,.04,0,.08.01.13,0,.04.02.08.02.13s.01.08.01.13.02.08.02.13.01.08.01.13.02.08.02.13c0,.04.02.08.02.13,0,.04.01.08.02.13,0,.04.01.08.02.13,0,.04.02.08.02.13,0,.05.02.08.02.13,0,.05.01.08.02.13,0,.04.01.08.02.13,0,.04.02.08.02.13s.02.08.02.13.01.08.02.13c0,.04.01.08.02.13,0,.04.02.08.02.13,0,.05.02.08.03.13,0,.05.02.08.03.13.02.04.02.08.03.13,0,.04.02.08.03.13,0,.04.02.08.03.13,0,.04.02.08.03.13,0,.05.02.08.03.13,0,.05.02.08.03.13,0,.04.02.08.03.13,0,.04.02.08.03.13s.02.08.04.13c.02.04.02.08.04.13.01.05.02.08.04.13.01.05.02.08.04.13.02.04.02.08.04.13.02.04.02.08.04.13.01.04.02.08.04.13.01.04.03.08.04.13s.03.08.04.13c.02.04.03.08.05.13.01.05.03.08.04.13.02.05.03.08.05.13.02.04.03.08.04.13.02.04.03.08.05.13.01.04.03.08.04.13.02.04.03.08.05.13.01.04.03.08.05.13.01.05.03.08.05.13.02.05.04.08.05.13.02.04.04.08.05.13.01.04.04.08.05.13.01.04.04.08.05.13.02.05.04.08.05.13.02.05.04.08.06.13.02.04.04.08.06.13.02.04.04.08.06.13.02.04.04.08.06.13.02.04.05.08.06.13.02.04.05.08.07.13.02.04.05.08.07.13.02.05.04.08.07.13.02.05.04.08.07.13.02.05.05.08.07.13.02.04.05.08.07.13.02.04.04.08.07.13.02.04.05.08.08.13.02.04.05.08.07.13.02.05.05.08.08.13.02.05.05.08.07.13.03.04.05.08.08.13.03.04.05.08.08.13s.05.08.08.13c.03.05.05.08.08.13.03.05.06.08.08.13.03.04.06.08.09.13.03.04.06.08.09.13.03.04.06.08.09.13.03.04.06.08.09.13s.06.08.1.13c.03.04.07.08.1.13.03.05.07.08.1.13.03.05.07.08.1.13.03.04.07.08.1.13.04.04.07.08.11.13s.07.08.1.13c.04.04.07.08.11.13s.07.08.11.13c.04.04.07.08.11.13.04.05.08.08.11.13.04.04.08.08.11.13.04.04.07.08.12.13.04.04.07.08.12.13.04.04.08.08.12.13.04.05.08.08.12.13.04.04.08.08.13.13.05.04.08.08.13.13.05.04.08.08.13.13.04.04.09.08.13.13.04.04.09.08.13.13.05.04.09.08.14.13.04.05.09.08.13.13.05.05.09.08.14.13.05.04.1.08.14.13.04.04.1.08.14.13.04.04.1.08.14.13.05.04.1.08.15.13.05.04.1.08.15.13.05.04.11.08.15.13.05.05.11.08.16.13.05.05.1.08.16.13.05.04.1.08.16.13s.11.08.17.13.11.08.16.13c.05.05.11.08.17.13.05.05.11.08.17.13.06.04.11.08.17.13.06.04.11.08.17.13.06.04.12.08.17.13.05.04.12.08.18.13s.12.08.18.13c.06.05.12.08.18.13.06.05.12.08.19.13.06.04.13.08.19.13.06.04.13.08.19.13.07.04.13.08.2.13.07.04.13.08.19.13.07.04.14.08.2.13.06.04.13.08.2.13.07.05.13.08.2.13.07.05.14.08.2.13.07.04.14.08.21.13.07.04.14.08.21.13.07.04.14.08.21.13.07.05.14.08.22.13.08.05.14.08.22.13.07.04.14.08.22.13.07.04.15.08.22.13.08.04.15.08.23.13.07.04.15.08.22.13.08.04.15.08.23.13.08.05.16.08.23.13.07.05.16.08.23.13.07.04.16.08.24.13.08.04.16.08.24.13.08.04.16.08.24.13.08.04.16.08.25.13s.16.08.25.13.17.08.25.13c.08.05.17.08.26.13.09.05.17.08.25.13.08.04.17.08.26.13.08.04.17.08.25.13.09.04.17.08.26.13s.17.08.26.13c.09.05.18.08.26.13.08.05.18.08.27.13.09.04.18.08.27.13.09.04.18.08.27.13s.18.08.28.13c.09.04.19.08.28.13.09.05.19.08.28.13.09.05.19.08.28.13.1.04.19.08.28.13.1.04.19.08.29.13.1.04.19.08.28.13.1.04.2.08.29.13.1.04.19.08.29.13.1.04.19.08.29.13.1.05.2.08.29.13.1.05.2.08.3.13.1.04.2.08.3.13.11.04.2.08.3.13s.2.08.3.13c.1.04.2.08.31.13.11.05.2.08.31.13.1.05.2.08.31.13.1.04.2.08.31.13.11.04.21.08.31.13.11.04.21.08.32.13.1.04.21.08.31.13.11.05.21.08.32.13.1.05.21.08.31.13.11.04.21.08.32.13.1.04.21.08.32.13.1.04.21.08.32.13.11.04.22.08.32.13.11.04.22.08.32.13.1.04.22.08.32.13.1.05.22.08.32.13.11.05.22.08.32.13.11.04.22.08.33.13.11.04.22.08.33.13s.22.08.33.13.22.08.33.13.22.08.33.13c.11.05.22.08.33.13.11.05.22.08.33.13.11.04.23.08.33.13.11.04.23.08.33.13.11.04.23.08.33.13.11.05.23.08.33.13.11.05.23.08.34.13.11.04.23.08.34.13.11.04.22.08.34.13s.22.08.34.13.23.08.34.13c.11.04.23.08.34.13.11.04.22.08.34.13.11.05.22.08.34.13.11.05.23.08.34.13.11.04.23.08.34.13.11.04.22.08.33.13.11.04.22.08.33.13.11.04.22.08.33.13.11.04.22.08.33.13.1.05.22.08.33.13.11.05.22.08.33.13.11.04.22.08.33.13.11.04.22.08.33.13.11.04.22.08.33.13.11.04.22.08.33.13.11.05.22.08.32.13.11.04.22.08.32.13.11.04.22.08.32.13.1.04.22.08.32.13.1.04.22.08.32.13.11.04.21.08.32.13.11.04.21.08.32.13.1.05.21.08.31.13.11.05.21.08.32.13.1.04.21.08.31.13.11.04.21.08.32.13.1.04.21.08.31.13.1.04.2.08.31.13.11.04.2.08.31.13.11.04.2.08.3.13.1.05.2.08.3.13.1.05.2.08.3.13.1.04.2.08.3.13.1.04.2.08.29.13.1.04.2.08.29.13.1.05.19.08.29.13.1.05.19.08.28.13.1.04.19.08.29.13.1.04.19.08.28.13s.19.08.28.13.19.08.28.13.18.08.27.13c.09.05.18.08.27.13.09.05.18.08.26.13.09.04.17.08.26.13.09.04.17.08.26.13s.17.08.25.13.17.08.26.13c.08.04.16.08.25.13s.16.08.25.13c.08.05.17.08.24.13.08.05.16.08.24.13.08.04.16.08.23.13.07.04.16.08.23.13.07.04.15.08.22.13.08.05.15.08.23.13.07.05.15.08.22.13.07.04.14.08.22.13.07.04.14.08.21.13s.14.08.2.13c.07.04.13.08.2.13.07.04.13.08.19.13.06.05.13.08.2.13.07.05.13.08.19.13.06.04.12.08.19.13.06.04.12.08.18.13s.12.08.17.13c.06.04.11.08.17.13.05.04.11.08.16.13s.11.08.16.13c.05.05.11.08.16.13.05.05.1.08.15.13.05.04.1.08.14.13.05.04.1.08.14.13.05.04.09.08.14.13.04.04.09.08.13.13.04.05.08.08.13.13.04.04.08.08.12.13.04.04.08.08.11.13.04.04.07.08.11.13.04.04.07.08.1.13.04.04.07.08.1.13.03.05.07.08.1.13.03.05.06.08.09.13.03.04.06.08.08.13.03.04.05.08.08.13.02.04.05.08.08.13.02.04.04.08.07.13s.04.08.06.13c.02.04.04.08.06.13.01.05.04.08.05.13.01.05.03.08.04.13.02.04.03.08.04.13.02.04.02.08.04.13.01.04.02.08.03.13,0,.04.01.08.02.13,0,.05.02.08.02.13,0,.05,0,.08.02.13,0,.04,0,.08,0,.13v.25s0,.08,0,.13c0,.05,0,.08-.02.13,0,.05-.01.08-.02.13,0,.04-.01.08-.02.13,0,.04-.02.08-.03.13,0,.04-.02.08-.04.13-.01.04-.03.08-.04.13-.01.04-.03.08-.04.13-.02.04-.04.08-.05.13-.02.05-.04.08-.06.13-.02.05-.04.08-.06.13-.02.04-.05.08-.07.13-.02.04-.05.08-.08.13-.02.04-.05.08-.08.13s-.05.08-.08.13c-.03.05-.06.08-.09.13-.03.05-.06.08-.1.13-.03.04-.07.08-.1.13-.04.04-.07.08-.1.13-.04.04-.08.08-.11.13-.04.04-.08.08-.11.13-.04.05-.08.08-.12.13-.04.05-.08.08-.13.13-.05.04-.09.08-.13.13-.04.04-.09.08-.14.13-.04.04-.09.08-.14.13-.04.04-.1.08-.14.13-.05.04-.1.08-.15.13-.05.04-.11.08-.16.13-.05.05-.1.08-.16.13-.05.05-.11.08-.16.13-.05.05-.11.08-.17.13-.06.04-.11.08-.17.13s-.12.08-.18.13-.12.08-.19.13c-.06.04-.13.08-.19.13-.06.05-.13.08-.2.13-.07.05-.13.08-.19.13-.07.04-.14.08-.2.13-.07.04-.14.08-.2.13s-.14.08-.21.13c-.07.05-.14.08-.22.13-.08.05-.14.08-.22.13-.08.04-.15.08-.23.13-.07.04-.15.08-.22.13-.08.04-.15.08-.23.13-.08.04-.16.08-.23.13-.07.04-.16.08-.24.13s-.16.08-.24.13c-.08.05-.16.08-.25.13-.08.05-.17.08-.25.13-.08.04-.17.08-.26.13-.08.04-.17.08-.25.13-.08.04-.17.08-.26.13-.09.04-.17.08-.26.13s-.18.08-.26.13c-.09.05-.18.08-.27.13-.09.05-.18.08-.27.13-.09.04-.18.08-.28.13-.09.04-.19.08-.28.13s-.19.08-.28.13-.19.08-.29.13c-.1.05-.19.08-.28.13-.1.05-.2.08-.29.13-.1.04-.2.08-.29.13-.1.04-.19.08-.29.13-.1.04-.19.08-.3.13-.1.04-.2.08-.3.13-.1.04-.2.08-.3.13-.1.05-.2.08-.3.13-.1.05-.2.08-.31.13-.1.04-.2.08-.31.13-.11.04-.2.08-.31.13-.11.04-.21.08-.32.13-.1.04-.21.08-.31.13-.11.04-.21.08-.32.13-.1.04-.21.08-.31.13-.11.05-.21.08-.32.13-.1.05-.21.08-.32.13-.1.04-.22.08-.32.13-.11.04-.22.08-.32.13-.11.04-.22.08-.32.13-.1.05-.22.08-.32.13-.1.05-.22.08-.32.13-.11.04-.22.08-.33.13-.11.04-.22.08-.33.13-.11.04-.22.08-.33.13-.11.04-.22.08-.33.13-.11.04-.22.08-.33.13-.11.05-.22.08-.33.13-.11.05-.23.08-.33.13-.11.04-.23.08-.33.13-.11.04-.23.08-.33.13-.11.04-.23.08-.33.13-.11.04-.23.08-.34.13-.11.04-.22.08-.34.13s-.22.08-.34.13c-.11.05-.23.08-.34.13-.11.05-.23.08-.34.13-.11.04-.22.08-.34.13-.11.04-.22.08-.34.13s-.23.08-.34.13c-.11.04-.23.08-.34.13-.11.05-.22.08-.34.13-.11.05-.22.08-.33.13-.1.04-.22.08-.33.13-.11.04-.22.08-.33.13-.11.04-.22.08-.33.13-.11.04-.22.08-.33.13-.11.05-.22.08-.33.13-.11.05-.22.08-.33.13-.11.04-.22.08-.33.13-.11.04-.22.08-.33.13s-.22.08-.33.13c-.11.04-.22.08-.33.13-.11.04-.22.08-.32.13-.1.04-.22.08-.32.13-.11.04-.22.08-.32.13-.11.05-.22.08-.32.13-.1.04-.22.08-.32.13-.1.04-.22.08-.32.13-.11.04-.21.08-.32.13-.11.04-.21.08-.32.13-.1.05-.21.08-.31.13-.11.05-.21.08-.32.13-.1.04-.21.08-.31.13-.11.04-.21.08-.32.13-.1.04-.21.08-.31.13-.1.04-.2.08-.31.13-.11.05-.2.08-.31.13-.11.05-.2.08-.31.13-.1.05-.2.08-.31.13-.1.04-.2.08-.3.13s-.2.08-.3.13-.2.08-.3.13c-.1.04-.19.08-.3.13-.1.04-.19.08-.29.13-.1.05-.19.08-.29.13-.1.05-.2.08-.29.13-.1.04-.2.08-.29.13-.1.04-.19.08-.28.13-.1.04-.19.08-.29.13-.1.04-.19.08-.28.13-.1.04-.19.08-.28.13-.09.05-.19.08-.28.13-.09.04-.19.08-.28.13-.09.04-.18.08-.28.13-.09.04-.18.08-.27.13s-.18.08-.27.13c-.09.05-.18.08-.27.13-.09.05-.18.08-.26.13-.09.04-.17.08-.26.13-.09.04-.17.08-.26.13-.09.04-.17.08-.25.13-.08.04-.17.08-.26.13-.08.04-.17.08-.25.13s-.17.08-.26.13c-.08.05-.16.08-.25.13-.08.05-.16.08-.25.13-.08.04-.17.08-.25.13-.08.04-.17.08-.24.13-.08.04-.16.08-.24.13-.08.04-.16.08-.24.13-.08.05-.16.08-.23.13-.08.05-.16.08-.23.13-.07.04-.15.08-.23.13-.07.04-.15.08-.22.13-.08.04-.15.08-.23.13-.07.04-.15.08-.22.13-.08.05-.15.08-.22.13-.07.05-.14.08-.22.13-.07.04-.14.08-.22.13-.07.04-.14.08-.21.13-.07.04-.14.08-.21.13-.07.04-.14.08-.21.13-.07.04-.13.08-.2.13-.07.04-.13.08-.2.13-.07.05-.14.08-.2.13-.07.05-.14.08-.2.13-.06.04-.13.08-.19.13-.07.04-.13.08-.2.13-.07.04-.13.08-.19.13-.06.04-.13.08-.19.13-.06.04-.13.08-.19.13-.06.05-.12.08-.18.13-.06.05-.12.08-.18.13-.06.04-.12.08-.18.13-.06.04-.12.08-.17.13-.06.04-.11.08-.17.13-.06.05-.11.08-.17.13-.06.05-.11.08-.17.13-.05.04-.11.08-.17.13-.05.04-.11.08-.16.13-.05.04-.11.08-.17.13-.05.04-.1.08-.16.13s-.11.08-.16.13c-.05.04-.11.08-.16.13-.05.05-.1.08-.15.13-.05.05-.1.08-.15.13-.05.04-.1.08-.15.13-.05.04-.1.08-.14.13-.05.04-.1.08-.14.13-.05.04-.1.08-.14.13-.04.04-.09.08-.14.13-.04.04-.09.08-.13.13-.05.05-.09.08-.14.13-.04.04-.09.08-.13.13-.05.04-.09.08-.13.13-.04.04-.08.08-.13.13-.04.04-.08.08-.13.13-.04.05-.08.08-.13.13-.04.05-.08.08-.12.13-.04.04-.08.08-.12.13-.04.04-.08.08-.12.13-.04.04-.08.08-.12.13-.05.04-.08.08-.11.13-.04.04-.07.08-.11.13-.04.05-.07.08-.11.13-.04.05-.08.08-.11.13-.04.04-.08.08-.11.13-.04.04-.07.08-.1.13s-.07.08-.11.13c-.04.04-.07.08-.1.13-.03.04-.07.08-.1.13-.03.04-.07.08-.1.13-.03.05-.07.08-.1.13-.03.05-.06.08-.1.13-.03.04-.06.08-.09.13-.03.04-.06.08-.09.13-.03.04-.06.08-.09.13-.03.05-.06.08-.09.13-.03.05-.06.08-.08.13-.03.04-.06.08-.08.13-.02.04-.05.08-.08.13s-.05.08-.08.13-.05.08-.08.13-.05.08-.07.13c-.02.05-.05.08-.08.13-.02.05-.05.08-.07.13-.02.04-.05.08-.08.13-.02.04-.04.08-.07.13-.02.04-.05.08-.07.13-.02.04-.04.08-.07.13-.02.04-.04.08-.07.13-.02.04-.04.08-.07.13-.02.05-.05.08-.07.13-.02.05-.04.08-.07.13-.02.04-.04.08-.06.13-.02.04-.04.08-.06.13-.02.04-.04.08-.06.13-.02.04-.04.08-.06.13-.02.05-.04.08-.06.13-.02.05-.04.08-.05.13-.01.04-.04.08-.05.13-.02.04-.04.08-.05.13-.02.04-.04.08-.05.13-.01.04-.04.08-.05.13-.01.05-.04.08-.05.13-.02.05-.03.08-.05.13-.02.04-.03.08-.05.13-.01.04-.03.08-.04.13-.02.04-.03.08-.05.13-.01.04-.03.08-.04.13-.02.04-.03.08-.05.13-.01.04-.03.08-.04.13-.02.05-.03.08-.05.13-.01.05-.03.08-.04.13,0,.04-.03.08-.04.13-.02.04-.03.08-.04.13-.02.04-.02.08-.04.13-.01.04-.02.08-.04.13-.01.05-.02.08-.04.13-.02.05-.02.08-.04.13-.02.04-.02.08-.04.13-.01.04-.02.08-.04.13-.01.04-.02.08-.03.13,0,.04-.02.08-.03.13,0,.05-.02.08-.03.13,0,.05-.02.08-.03.13,0,.04-.02.08-.03.13,0,.04-.02.08-.03.13,0,.04-.02.08-.03.13s-.02.08-.03.13-.01.08-.03.13c0,.04-.01.08-.03.13,0,.05-.01.08-.02.13,0,.05-.01.08-.02.13,0,.04-.02.08-.02.13,0,.04-.02.08-.02.13s-.01.08-.02.13c0,.04-.01.08-.02.13,0,.04-.02.08-.02.13,0,.05-.02.08-.02.13,0,.05-.01.08-.02.13,0,.04-.01.08-.02.13,0,.04-.02.08-.02.13,0,.04-.02.08-.02.13,0,.05-.01.08-.02.13,0,.05-.01.08-.01.13s-.02.08-.02.13-.01.08-.01.13-.02.08-.02.13,0,.08-.01.13c0,.04,0,.08-.02.13,0,.04,0,.08-.01.13,0,.05,0,.08-.02.13,0,.05,0,.08-.01.13,0,.04,0,.08-.02.13,0,.04,0,.08-.01.13,0,.04,0,.08-.01.13,0,.04,0,.08-.02.13,0,.05,0,.08-.02.13,0,.05,0,.08-.01.13,0,.04,0,.08-.02.13,0,.04,0,.08-.01.13,0,.04,0,.08-.02.13,0,.04,0,.08-.01.13,0,.05,0,.08,0,.13,0,.05,0,.08,0,.13,0,.04,0,.08,0,.13,0,.04,0,.08,0,.13,0,.04,0,.08,0,.13,0,.04,0,.08,0,.13,0,.04,0,.08,0,.13,0,.04,0,.08,0,.13,0,.05,0,.08,0,.13,0,.05,0,.08,0,.13,0,.04,0,.08,0,.13,0,.04,0,.08,0,.13,0,.04,0,.08,0,.13v1.15s0,.08-.02.13v1.4s0,.08,0,.13v23.25"/>
          <g class="cls-50">
            <line class="cls-32" x1="520.65" y1="42.04" x2="520.65" y2="300.45"/>
            <g class="cls-72">
              <rect class="cls-46" x="511.53" y="59.44" width="17.4" height="114.36" rx="2.9" ry="2.9"/>
              <rect class="cls-31" x="511.53" y="59.44" width="17.4" height="114.36" rx="2.9" ry="2.9"/>
              <g class="cls-64">
                <rect class="cls-67" x="511.53" y="168.52" width="17.4" height="111.12" rx="2.9" ry="2.9"/>
                <rect class="cls-31" x="511.53" y="168.52" width="17.4" height="111.12" rx="2.9" ry="2.9"/>
                <g class="cls-7">
                  <path class="cls-11" d="M575.61,100.96c0-15.11,12.25-27.36,27.36-27.36s27.36,12.25,27.36,27.36-12.25,27.36-27.36,27.36-27.36-12.25-27.36-27.36h0Z"/>
                  <g class="cls-68">
                    <g class="cls-1">
                      <g class="cls-48">
                        <path class="cls-14" d="M602.91,170.91c0-6.86,3.4-12.91,8.59-16.55-3.25-2.29-7.21-3.64-11.48-3.64-11.08,0-20.07,9.04-20.07,20.19s8.99,20.19,20.07,20.19c4.27,0,8.23-1.35,11.48-3.64-5.19-3.65-8.59-9.71-8.59-16.55h0Z"/>
                      </g>
                    </g>
                    <g class="cls-47">
                      <path class="cls-11" d="M609.28,273.4c-15.15,0-27.43-12.25-27.43-27.36s12.28-27.36,27.43-27.36c1.89,0,3.74.19,5.53.56l4.97,1.54-.18.06c-9.84,4.15-16.75,13.88-16.75,25.21s6.91,21.06,16.75,25.21l.18.06-4.97,1.54c-1.79.36-3.63.56-5.53.56h0Z"/>
                      <g class="cls-73">
                        <text class="cls-62" transform="translate(491.22 341.41)"><tspan class="cls-36" x="0" y="0">V</tspan><tspan class="cls-78" x="11.04" y="0">A</tspan><tspan x="22.46" y="0">E</tspan></text>
                        <g class="cls-2">
                          <text class="cls-62" transform="translate(522.66 341.41)"><tspan x="0" y="0">采样</tspan></text>
                          <g class="cls-69">
                            <text class="cls-62" transform="translate(491.22 25.62)"><tspan x="0" y="0">隐空间</tspan></text>
                            <g class="cls-54">
                              <text class="cls-62" transform="translate(568.05 26.32)"><tspan x="0" y="0">解码器</tspan></text>
                              <g class="cls-58">
                                <text class="cls-62" transform="translate(326.66 26.32)"><tspan x="0" y="0">编码器</tspan></text>
                                <g class="cls-40">
                                  <line class="cls-22" x1="348.87" y1="111.81" x2="386.02" y2="89.1"/>
                                  <polygon class="cls-12" points="386.73 92.19 390.29 86.5 383.6 87.07 386.73 92.19 386.73 92.19"/>
                                  <g class="cls-41">
                                    <line class="cls-22" x1="335.67" y1="235.18" x2="384.58" y2="249.68"/>
                                    <polygon class="cls-12" points="384.48 246.52 389.38 251.1 382.77 252.27 384.48 246.52 384.48 246.52"/>
                                    <g class="cls-77">
                                      <line class="cls-22" x1="454.59" y1="87.94" x2="503.5" y2="102.44"/>
                                      <polygon class="cls-12" points="503.4 99.28 508.3 103.86 501.69 105.03 503.4 99.28 503.4 99.28"/>
                                      <g class="cls-52">
                                        <line class="cls-22" x1="455.55" y1="248.13" x2="492.7" y2="225.42"/>
                                        <polygon class="cls-12" points="493.41 228.51 496.97 222.82 490.28 223.39 493.41 228.51 493.41 228.51"/>
                                        <g class="cls-53">
                                          <line class="cls-22" x1="534.03" y1="174.18" x2="571.58" y2="173.15"/>
                                          <polygon class="cls-12" points="570.66 176.18 576.58 173.02 570.5 170.18 570.66 176.18 570.66 176.18"/>
                                          <g class="cls-20">
                                            <line class="cls-22" x1="531.03" y1="257.14" x2="574.39" y2="251.86"/>
                                            <polygon class="cls-12" points="573.76 254.96 579.35 251.26 573.03 249 573.76 254.96 573.76 254.96"/>
                                            <g class="cls-49">
                                              <line class="cls-22" x1="532.23" y1="82.9" x2="564.51" y2="93.46"/>
                                              <polygon class="cls-12" points="564.49 90.29 569.26 95.01 562.63 96 564.49 90.29 564.49 90.29"/>
                                            </g>
                                          </g>
                                        </g>
                                      </g>
                                    </g>
                                  </g>
                                </g>
                              </g>
                            </g>
                          </g>
                        </g>
                      </g>
                    </g>
                  </g>
                </g>
              </g>
            </g>
          </g>
        </g>
      </g>
    </g>
  </g>
</svg>