<?xml version="1.0" encoding="UTF-8"?>
<svg id="_图层_1" data-name="图层 1" xmlns="http://www.w3.org/2000/svg" viewBox="0 0 778.38 218.39">
  <defs>
    <style>
      .cls-1 {
        fill: #d9d9d9;
      }

      .cls-2 {
        fill: #156082;
        fill-rule: evenodd;
      }

      .cls-3 {
        stroke-width: 1.5px;
      }

      .cls-3, .cls-4 {
        fill: none;
        stroke: #042433;
        stroke-miterlimit: 10;
      }

      .cls-4 {
        stroke-width: .25px;
      }

      .cls-5 {
        fill: #c2f1c8;
      }

      .cls-6 {
        fill: #47d45a;
      }

      .cls-7 {
        fill: #e8e8e8;
      }
    </style>
  </defs>
  <rect class="cls-1" x="12.21" y="75.77" width="11.25" height="11.25"/>
  <rect class="cls-4" x="12.21" y="75.77" width="11.25" height="11.25"/>
  <rect class="cls-7" x="12.21" y="63.76" width="11.25" height="12"/>
  <rect class="cls-4" x="12.21" y="63.76" width="11.25" height="12"/>
  <rect class="cls-1" x="12.21" y="52.52" width="11.25" height="11.25"/>
  <rect class="cls-4" x="12.21" y="52.52" width="11.25" height="11.25"/>
  <rect class="cls-7" x="12.21" y="41.27" width="11.25" height="11.25"/>
  <rect class="cls-4" x="12.21" y="41.27" width="11.25" height="11.25"/>
  <rect class="cls-1" x="12.21" y="29.26" width="11.25" height="12"/>
  <rect class="cls-4" x="12.21" y="29.26" width="11.25" height="12"/>
  <rect class="cls-7" x="23.46" y="75.77" width="12" height="11.25"/>
  <rect class="cls-4" x="23.46" y="75.77" width="12" height="11.25"/>
  <rect class="cls-1" x="23.46" y="63.77" width="12" height="12"/>
  <rect class="cls-4" x="23.46" y="63.77" width="12" height="12"/>
  <rect class="cls-7" x="23.46" y="52.52" width="12" height="11.25"/>
  <rect class="cls-4" x="23.46" y="52.52" width="12" height="11.25"/>
  <rect class="cls-1" x="23.46" y="41.27" width="12" height="11.25"/>
  <rect class="cls-4" x="23.46" y="41.27" width="12" height="11.25"/>
  <rect class="cls-7" x="23.46" y="29.27" width="12" height="12"/>
  <rect class="cls-4" x="23.46" y="29.27" width="12" height="12"/>
  <rect class="cls-1" x="35.46" y="75.77" width="11.25" height="11.25"/>
  <rect class="cls-4" x="35.46" y="75.77" width="11.25" height="11.25"/>
  <rect class="cls-7" x="35.46" y="63.76" width="11.25" height="12"/>
  <rect class="cls-4" x="35.46" y="63.76" width="11.25" height="12"/>
  <rect class="cls-1" x="35.46" y="52.52" width="11.25" height="11.25"/>
  <rect class="cls-4" x="35.46" y="52.52" width="11.25" height="11.25"/>
  <rect class="cls-7" x="35.46" y="41.27" width="11.25" height="11.25"/>
  <rect class="cls-4" x="35.46" y="41.27" width="11.25" height="11.25"/>
  <rect class="cls-1" x="35.46" y="29.26" width="11.25" height="12"/>
  <rect class="cls-4" x="35.46" y="29.26" width="11.25" height="12"/>
  <rect class="cls-7" x="46.71" y="75.77" width="11.25" height="11.25"/>
  <rect class="cls-4" x="46.71" y="75.77" width="11.25" height="11.25"/>
  <rect class="cls-1" x="46.71" y="63.76" width="11.25" height="12"/>
  <rect class="cls-4" x="46.71" y="63.76" width="11.25" height="12"/>
  <rect class="cls-7" x="46.71" y="52.52" width="11.25" height="11.25"/>
  <rect class="cls-4" x="46.71" y="52.52" width="11.25" height="11.25"/>
  <rect class="cls-1" x="46.71" y="41.27" width="11.25" height="11.25"/>
  <rect class="cls-4" x="46.71" y="41.27" width="11.25" height="11.25"/>
  <rect class="cls-7" x="46.71" y="29.26" width="11.25" height="12"/>
  <rect class="cls-4" x="46.71" y="29.26" width="11.25" height="12"/>
  <rect class="cls-1" x="57.96" y="75.77" width="12" height="11.25"/>
  <rect class="cls-4" x="57.96" y="75.77" width="12" height="11.25"/>
  <rect class="cls-7" x="57.96" y="63.77" width="12" height="12"/>
  <rect class="cls-4" x="57.96" y="63.77" width="12" height="12"/>
  <rect class="cls-1" x="57.96" y="52.52" width="12" height="11.25"/>
  <rect class="cls-4" x="57.96" y="52.52" width="12" height="11.25"/>
  <rect class="cls-7" x="57.96" y="41.27" width="12" height="11.25"/>
  <rect class="cls-4" x="57.96" y="41.27" width="12" height="11.25"/>
  <rect class="cls-1" x="57.96" y="29.27" width="12" height="12"/>
  <rect class="cls-4" x="57.96" y="29.27" width="12" height="12"/>
  <rect class="cls-7" x="69.96" y="75.77" width="11.25" height="11.25"/>
  <rect class="cls-4" x="69.96" y="75.77" width="11.25" height="11.25"/>
  <rect class="cls-1" x="69.96" y="63.76" width="11.25" height="12"/>
  <rect class="cls-4" x="69.96" y="63.76" width="11.25" height="12"/>
  <rect class="cls-7" x="69.96" y="52.52" width="11.25" height="11.25"/>
  <rect class="cls-4" x="69.96" y="52.52" width="11.25" height="11.25"/>
  <rect class="cls-1" x="69.96" y="41.27" width="11.25" height="11.25"/>
  <rect class="cls-4" x="69.96" y="41.27" width="11.25" height="11.25"/>
  <rect class="cls-7" x="69.96" y="29.26" width="11.25" height="12"/>
  <rect class="cls-4" x="69.96" y="29.26" width="11.25" height="12"/>
  <rect class="cls-1" x="81.21" y="75.77" width="11.25" height="11.25"/>
  <rect class="cls-4" x="81.21" y="75.77" width="11.25" height="11.25"/>
  <rect class="cls-7" x="81.21" y="63.76" width="11.25" height="12"/>
  <rect class="cls-4" x="81.21" y="63.76" width="11.25" height="12"/>
  <rect class="cls-1" x="81.21" y="52.52" width="11.25" height="11.25"/>
  <rect class="cls-4" x="81.21" y="52.52" width="11.25" height="11.25"/>
  <rect class="cls-7" x="81.21" y="41.27" width="11.25" height="11.25"/>
  <rect class="cls-4" x="81.21" y="41.27" width="11.25" height="11.25"/>
  <rect class="cls-1" x="81.21" y="29.26" width="11.25" height="12"/>
  <rect class="cls-4" x="81.21" y="29.26" width="11.25" height="12"/>
  <rect class="cls-1" x="9.96" y="179.26" width="12" height="11.25"/>
  <rect class="cls-4" x="9.96" y="179.26" width="12" height="11.25"/>
  <rect class="cls-7" x="9.96" y="167.26" width="12" height="12"/>
  <rect class="cls-4" x="9.96" y="167.26" width="12" height="12"/>
  <rect class="cls-1" x="9.96" y="156.01" width="12" height="11.25"/>
  <rect class="cls-4" x="9.96" y="156.01" width="12" height="11.25"/>
  <rect class="cls-7" x="9.96" y="144.01" width="12" height="12"/>
  <rect class="cls-4" x="9.96" y="144.01" width="12" height="12"/>
  <rect class="cls-1" x="9.96" y="132.77" width="12" height="11.25"/>
  <rect class="cls-4" x="9.96" y="132.77" width="12" height="11.25"/>
  <rect class="cls-7" x="21.96" y="179.26" width="11.25" height="11.25"/>
  <rect class="cls-4" x="21.96" y="179.26" width="11.25" height="11.25"/>
  <rect class="cls-1" x="21.96" y="167.26" width="11.25" height="12"/>
  <rect class="cls-4" x="21.96" y="167.26" width="11.25" height="12"/>
  <rect class="cls-7" x="21.96" y="156.01" width="11.25" height="11.25"/>
  <rect class="cls-4" x="21.96" y="156.01" width="11.25" height="11.25"/>
  <rect class="cls-1" x="21.96" y="144.01" width="11.25" height="12"/>
  <rect class="cls-4" x="21.96" y="144.01" width="11.25" height="12"/>
  <rect class="cls-7" x="21.96" y="132.77" width="11.25" height="11.25"/>
  <rect class="cls-4" x="21.96" y="132.77" width="11.25" height="11.25"/>
  <rect class="cls-1" x="33.21" y="179.26" width="11.25" height="11.25"/>
  <rect class="cls-4" x="33.21" y="179.26" width="11.25" height="11.25"/>
  <rect class="cls-7" x="33.21" y="167.26" width="11.25" height="12"/>
  <rect class="cls-4" x="33.21" y="167.26" width="11.25" height="12"/>
  <rect class="cls-1" x="33.21" y="156.01" width="11.25" height="11.25"/>
  <rect class="cls-4" x="33.21" y="156.01" width="11.25" height="11.25"/>
  <rect class="cls-7" x="33.21" y="144.01" width="11.25" height="12"/>
  <rect class="cls-4" x="33.21" y="144.01" width="11.25" height="12"/>
  <rect class="cls-1" x="33.21" y="132.77" width="11.25" height="11.25"/>
  <rect class="cls-4" x="33.21" y="132.77" width="11.25" height="11.25"/>
  <rect class="cls-7" x="44.46" y="179.26" width="12" height="11.25"/>
  <rect class="cls-4" x="44.46" y="179.26" width="12" height="11.25"/>
  <rect class="cls-1" x="44.46" y="167.26" width="12" height="12"/>
  <rect class="cls-4" x="44.46" y="167.26" width="12" height="12"/>
  <rect class="cls-7" x="44.46" y="156.01" width="12" height="11.25"/>
  <rect class="cls-4" x="44.46" y="156.01" width="12" height="11.25"/>
  <rect class="cls-1" x="44.46" y="144.01" width="12" height="12"/>
  <rect class="cls-4" x="44.46" y="144.01" width="12" height="12"/>
  <rect class="cls-7" x="44.46" y="132.77" width="12" height="11.25"/>
  <rect class="cls-4" x="44.46" y="132.77" width="12" height="11.25"/>
  <rect class="cls-1" x="56.46" y="179.26" width="11.25" height="11.25"/>
  <rect class="cls-4" x="56.46" y="179.26" width="11.25" height="11.25"/>
  <rect class="cls-7" x="56.46" y="167.26" width="11.25" height="12"/>
  <rect class="cls-4" x="56.46" y="167.26" width="11.25" height="12"/>
  <rect class="cls-1" x="56.46" y="156.01" width="11.25" height="11.25"/>
  <rect class="cls-4" x="56.46" y="156.01" width="11.25" height="11.25"/>
  <rect class="cls-7" x="56.46" y="144.01" width="11.25" height="12"/>
  <rect class="cls-4" x="56.46" y="144.01" width="11.25" height="12"/>
  <rect class="cls-1" x="56.46" y="132.77" width="11.25" height="11.25"/>
  <rect class="cls-4" x="56.46" y="132.77" width="11.25" height="11.25"/>
  <rect class="cls-7" x="67.71" y="179.26" width="11.25" height="11.25"/>
  <rect class="cls-4" x="67.71" y="179.26" width="11.25" height="11.25"/>
  <rect class="cls-1" x="67.71" y="167.26" width="11.25" height="12"/>
  <rect class="cls-4" x="67.71" y="167.26" width="11.25" height="12"/>
  <rect class="cls-7" x="67.71" y="156.01" width="11.25" height="11.25"/>
  <rect class="cls-4" x="67.71" y="156.01" width="11.25" height="11.25"/>
  <rect class="cls-1" x="67.71" y="144.01" width="11.25" height="12"/>
  <rect class="cls-4" x="67.71" y="144.01" width="11.25" height="12"/>
  <rect class="cls-7" x="67.71" y="132.77" width="11.25" height="11.25"/>
  <rect class="cls-4" x="67.71" y="132.77" width="11.25" height="11.25"/>
  <rect class="cls-1" x="78.95" y="179.26" width="12" height="11.25"/>
  <rect class="cls-4" x="78.95" y="179.26" width="12" height="11.25"/>
  <rect class="cls-7" x="78.96" y="167.26" width="12" height="12"/>
  <rect class="cls-4" x="78.96" y="167.26" width="12" height="12"/>
  <rect class="cls-1" x="78.95" y="156.01" width="12" height="11.25"/>
  <rect class="cls-4" x="78.95" y="156.01" width="12" height="11.25"/>
  <rect class="cls-7" x="78.96" y="144.01" width="12" height="12"/>
  <rect class="cls-4" x="78.96" y="144.01" width="12" height="12"/>
  <rect class="cls-1" x="78.95" y="132.77" width="12" height="11.25"/>
  <rect class="cls-4" x="78.95" y="132.77" width="12" height="11.25"/>
  <g>
    <path d="M19.13,16.72c-.17,0-.32,0-.44,0-.13,0-.24.01-.35.02-.1,0-.2.02-.3.03s-.19.03-.29.04v-.67c.1.01.19.03.29.04.09.01.19.02.3.03.1,0,.22.01.35.02.13,0,.28,0,.44,0,0-.62-.02-1.11-.03-1.47s-.03-.6-.05-.74c.13.03.26.06.38.07.12.01.25.02.39,0,.08,0,.13.02.15.08s-.02.11-.11.17c-.08.05-.13.2-.13.45v1.44c.15,0,.28,0,.4,0,.11,0,.22-.01.32-.02.1,0,.19-.02.28-.03.09-.01.18-.03.28-.04v.67c-.1-.01-.19-.03-.28-.04-.09-.01-.18-.02-.28-.03s-.2-.01-.32-.02c-.11,0-.25,0-.4,0v3.33c.24-.07.48-.15.72-.23.24-.08.48-.17.73-.28-.03.09-.05.2-.04.33s.02.24.03.33c-.79.23-1.45.42-1.98.58-.53.16-.98.29-1.34.4-.02-.16-.05-.3-.08-.4-.04-.1-.11-.21-.22-.32.25-.01.5-.04.77-.08.26-.04.54-.1.83-.16v-3.49ZM22.25,16.17c-.08.18-.16.35-.24.49-.08.15-.15.29-.23.42-.08.13-.16.26-.23.38-.08.12-.15.24-.24.36-.1-.11-.21-.19-.31-.23-.1-.05-.25-.08-.43-.09.15-.12.29-.24.43-.38.13-.13.26-.29.39-.48.13-.19.25-.41.38-.67.13-.26.26-.58.39-.95.07-.18.12-.36.16-.54.04-.18.08-.35.11-.51.1.07.21.13.32.18.11.05.23.07.36.06.06,0,.11.02.14.09.03.07,0,.12-.08.16-.07.03-.14.09-.21.17-.07.08-.12.17-.16.26-.06.15-.11.29-.17.42s-.1.25-.16.37h1.87c.39,0,.73,0,1.03-.01.29,0,.53-.03.72-.06-.03.1-.05.23-.06.39-.01.16-.02.34-.02.56,0,.44,0,.82,0,1.13,0,.31-.01.62-.02.91,0,.29-.02.6-.03.93-.01.33-.03.72-.05,1.18-.02.46-.05.82-.1,1.08-.05.26-.15.47-.3.62s-.37.25-.67.32c-.3.07-.7.13-1.22.19,0-.19-.02-.36-.09-.5-.07-.15-.19-.28-.36-.41.44.07.79.11,1.06.11s.48-.05.63-.16c.15-.11.25-.28.31-.51.06-.23.1-.55.13-.94.03-.57.06-1.22.08-1.95.02-.73.03-1.52.02-2.36h-3.15ZM24.87,19.45c-.26.14-.52.27-.77.41-.25.13-.51.27-.77.42-.26.15-.52.3-.79.46-.27.16-.54.34-.82.53l-.44-.6c.27-.08.56-.2.85-.34.29-.14.58-.29.87-.45.29-.16.56-.33.83-.5.27-.18.51-.34.73-.51.03.14.06.24.11.32.05.08.11.16.21.26ZM23.49,18.93c-.2-.25-.41-.48-.63-.68-.22-.21-.48-.42-.8-.62l.35-.49c.2.14.36.27.5.37.14.1.26.2.38.3.12.09.23.19.34.3s.24.23.39.37l-.54.46Z"/>
    <path d="M28.46,17.17c-.13.23-.26.45-.38.64-.12.19-.27.4-.43.62-.11-.12-.21-.2-.29-.24-.08-.04-.21-.08-.37-.11.1-.08.2-.17.3-.26s.21-.22.32-.38c.11-.16.23-.34.37-.57.14-.22.29-.5.47-.82.17-.31.32-.63.45-.98.13-.35.23-.66.28-.93.13.11.24.2.34.26.1.07.2.11.31.14.11.03.17.07.18.12,0,.06-.05.11-.16.16-.05.03-.1.06-.16.11s-.11.12-.17.21c-.06.09-.13.21-.21.35-.07.14-.16.31-.26.51v6.98h-.7c.03-.28.06-.6.08-.96s.03-.72.03-1.07v-3.77ZM32.26,15.88c-.26,0-.5,0-.71,0-.22,0-.42.01-.61.02s-.36.01-.53.02c-.16,0-.32.02-.48.03v-.62c.32.03.67.05,1.04.06.37.01.83.02,1.38.03l.08-.39c.04-.2.06-.35.07-.46,0-.11,0-.23-.01-.35.14.07.28.11.4.12.12.02.24.02.35.01.08,0,.12.03.14.1.01.07-.03.13-.12.19-.05.03-.09.08-.13.17-.04.09-.09.26-.13.5l-.02.11c.59,0,1.12-.02,1.59-.03.47-.01.86-.03,1.19-.06v.62c-.33-.03-.74-.06-1.23-.07s-1.03-.02-1.65-.02l-.19.91h.68c.2,0,.39,0,.58,0s.37-.01.55-.01c.19,0,.39-.01.62-.02-.03.13-.04.33-.05.61,0,.28-.01.64-.01,1.09v3.66c.23,0,.44-.01.64-.02.2,0,.37-.02.52-.03v.63c-.18-.02-.39-.03-.63-.04-.24,0-.51-.02-.81-.02-.29,0-.6,0-.92,0-.32,0-.64,0-.96,0s-.64,0-.96,0c-.32,0-.63,0-.93,0-.3,0-.57,0-.82.02-.25,0-.46.02-.64.04v-.63c.13.01.28.02.44.02.16,0,.34.01.54.02v-3.64c0-.25,0-.51-.02-.8-.01-.29-.03-.59-.04-.92.15,0,.29.01.42.01s.26,0,.39.01.26.01.39.01c.13,0,.27,0,.43,0l.19-.91ZM34.46,17.22h-3.35v.92h3.35v-.92ZM31.11,19.41h3.35v-.84h-3.35v.84ZM31.11,20.79h3.35v-.93h-3.35v.93ZM31.11,22.11h3.35v-.88h-3.35v.88Z"/>
    <path d="M40.44,15.41c.26,0,.47,0,.64,0,.16,0,.32-.01.47-.03v.57c-.15-.01-.31-.02-.47-.03-.16,0-.38,0-.64,0h-.21c.01.42.02.8.01,1.15,0,.35-.01.68-.03,1,.39,0,.72,0,.98,0,.26,0,.48-.02.65-.04v.58c-.08,0-.19-.01-.31-.02-.12,0-.26-.01-.41-.01-.15,0-.3,0-.46,0-.16,0-.32,0-.48,0-.01.14-.03.28-.04.41-.02.13-.04.26-.06.38.15.14.3.3.46.47.16.17.31.34.46.52.15.18.3.36.44.53.14.18.26.34.36.5-.12.05-.23.11-.32.17-.09.06-.18.13-.26.2-.08-.14-.18-.3-.28-.46s-.21-.33-.31-.49c-.11-.16-.22-.32-.33-.47-.11-.15-.22-.29-.33-.42-.07.28-.16.54-.26.78s-.22.47-.35.7c-.13.23-.28.45-.45.67s-.36.45-.57.68c-.08-.07-.17-.14-.28-.21-.11-.06-.24-.11-.4-.15.27-.2.52-.43.73-.67.22-.25.4-.52.56-.83s.29-.65.4-1.03c.1-.38.18-.81.23-1.29-.17,0-.34,0-.52,0-.18,0-.35,0-.51,0-.16,0-.31,0-.45.01-.14,0-.25.01-.34.02v-.58c.09.01.21.02.35.03.14,0,.3.01.46.01.17,0,.34,0,.52,0h.53c.03-.31.04-.65.04-1s0-.74-.03-1.15h-.54c-.1.23-.21.45-.33.67-.11.22-.23.43-.36.62-.11-.08-.21-.14-.31-.18-.09-.03-.22-.05-.37-.06.2-.19.37-.41.53-.67.16-.25.3-.52.42-.8.12-.28.21-.55.28-.83.07-.27.12-.52.14-.75.12.05.23.09.32.12.09.03.21.06.36.09.07.01.11.04.12.07,0,.04-.03.09-.11.16-.05.05-.11.13-.18.25-.07.12-.11.22-.14.3-.05.17-.11.34-.18.5h1.15ZM42.6,21.89h3.99v.61c-.11-.01-.23-.02-.36-.03s-.29-.02-.47-.02c-.19,0-.4,0-.65,0-.24,0-.53,0-.86,0h-.91c-.25,0-.46,0-.64,0-.17,0-.32.01-.43.02-.11,0-.22.01-.31.02,0-.14.01-.25.02-.35s.01-.19.02-.29c0-.09,0-.19,0-.3v-5.64c0-.2,0-.39-.01-.58,0-.19-.02-.4-.03-.62.09.01.19.02.29.03.1,0,.24.02.4.02.16,0,.36,0,.61,0,.25,0,.56,0,.94,0,.32,0,.59,0,.82,0,.23,0,.42,0,.58,0s.29,0,.41-.02.22-.02.31-.03v.6h-3.7v1.74h1.55c.18,0,.34,0,.49,0,.15,0,.29,0,.43-.02.14,0,.27-.02.4-.03s.27-.03.41-.05c-.03.1-.05.22-.06.35-.01.13-.02.25-.02.36v1.64c0,.11,0,.23.02.37.01.13.03.26.06.39-.15-.02-.29-.03-.43-.04s-.27-.02-.4-.02c-.13,0-.27,0-.42,0-.15,0-.31,0-.48,0h-1.55v1.95ZM42.6,19.45h2.62v-1.91h-2.62v1.91Z"/>
    <path d="M50.52,14.58c-.15.47-.31.94-.49,1.4s-.38.96-.59,1.48c.33.29.56.61.71.95.15.34.22.72.22,1.15,0,.21-.02.41-.07.58-.05.17-.13.32-.24.46-.11.13-.27.25-.46.34s-.44.17-.73.23c0-.12-.03-.25-.09-.39-.06-.14-.14-.26-.23-.35.25,0,.45-.02.61-.05.16-.03.29-.09.38-.17s.15-.18.19-.3.05-.28.05-.46c0-.16-.01-.32-.04-.47-.03-.15-.07-.3-.14-.45-.07-.15-.16-.31-.28-.47-.12-.16-.28-.34-.47-.53.11-.25.21-.47.3-.68s.17-.4.24-.59c.07-.19.14-.38.21-.56.06-.19.13-.38.19-.59h-1.36v5.78c0,.44,0,.82,0,1.14,0,.32.03.64.06.96h-.73c.02-.18.04-.34.05-.5.01-.16.02-.32.03-.48,0-.17.01-.34.01-.52,0-.18,0-.38,0-.6v-5.01c0-.1,0-.2,0-.32,0-.11,0-.23-.01-.34,0-.11-.01-.22-.02-.33s-.02-.2-.02-.29c.23.01.46.02.68.03.23,0,.46,0,.69,0,.27,0,.52,0,.74-.01.22,0,.43-.02.64-.03ZM52.04,16c-.28.01-.54.02-.77.03-.23,0-.44.02-.62.03v-.63c.2.02.43.04.69.05.27.01.56.02.88.03.1-.25.18-.49.24-.7.06-.21.12-.45.16-.7.13.06.26.11.4.15.14.04.27.07.39.08.06.01.1.04.11.09,0,.04-.02.08-.09.12-.03.01-.06.04-.09.07-.03.03-.06.08-.11.15s-.09.16-.15.28c-.06.12-.13.28-.22.47h1.23c.34,0,.64,0,.9-.02.26-.01.54-.04.84-.07v.63c-.29-.03-.56-.05-.83-.06-.27-.02-.57-.02-.91-.02h-1.45l-1.06,2.3h1.51c0-.54,0-.94,0-1.2,0-.26-.02-.43-.03-.51.11.02.23.04.35.05.12.02.25.02.37.02.1,0,.16.02.18.06.02.04-.03.08-.13.12-.09.04-.14.14-.14.3v1.14c.18,0,.35,0,.54,0,.18,0,.36-.01.53-.02s.33-.02.47-.03c.15-.01.28-.03.39-.05v.67c-.22-.03-.49-.05-.84-.06-.34-.01-.71-.02-1.09-.03v1.41c.47,0,.91-.02,1.33-.03.42-.01.76-.03,1.01-.06v.66c-.12-.01-.27-.02-.44-.03-.17,0-.36-.02-.57-.02-.21,0-.42-.01-.65-.02-.22,0-.45,0-.69,0,0,.39,0,.8.02,1.22.01.42.04.8.07,1.15h-.77c.03-.35.06-.73.07-1.15.01-.42.02-.83.02-1.22-.25,0-.51,0-.76,0-.25,0-.49,0-.71.02-.22,0-.43.02-.62.03s-.35.02-.49.03v-.66c.14.01.3.03.49.04.19.01.4.02.63.03.23,0,.46.01.71.01.25,0,.5,0,.75,0v-1.41c-.44,0-.79,0-1.07,0-.27,0-.49.02-.66.03-.17.01-.29.03-.38.04-.08.02-.16.04-.23.06,0-.09,0-.19-.03-.3-.03-.11-.06-.2-.11-.29.09,0,.18-.03.26-.08.08-.05.18-.15.28-.31.1-.16.23-.39.36-.69s.3-.7.5-1.21Z"/>
    <path d="M59.67,17.47h-.92v-.94h.92v.94ZM59.67,21.45h-.92v-.94h.92v.94Z"/>
  </g>
  <polygon points="67.88 24.31 67.88 15.48 69.79 15.48 69.79 15.94 68.47 15.94 68.47 23.85 69.79 23.85 69.79 24.31 67.88 24.31"/>
  <path d="M73.9,22.42v-2.84c0-.56-.1-.97-.29-1.23-.19-.25-.5-.38-.91-.38-.44,0-.79.16-1.05.48-.26.32-.39.76-.39,1.31v2.66h-.61v-3.78c0-.18,0-.36-.01-.54,0-.18-.02-.36-.02-.54h.54l.06.93h.02c.17-.35.38-.6.64-.77.26-.17.59-.25.99-.25.56,0,.97.16,1.24.48.27.32.4.81.4,1.48v2.99h-.61ZM76.54,22.22c0,.28-.02.52-.07.72-.04.2-.12.39-.23.59h-.43c.24-.38.35-.75.35-1.11h-.32v-.83h.69v.62ZM77.67,22.42v-.49l3-3.87h-2.81v-.5h3.51v.5l-3.01,3.87h3.15v.5h-3.84Z"/>
  <polygon points="82.38 24.31 82.38 23.85 83.71 23.85 83.71 15.94 82.38 15.94 82.38 15.48 84.29 15.48 84.29 24.31 82.38 24.31"/>
  <g>
    <path d="M21.55,115.26c-.1-.23-.21-.46-.34-.68-.13-.22-.26-.41-.4-.56l.67-.3c.13.23.26.47.38.72.12.25.24.53.35.82.83,0,1.54,0,2.15-.01.61,0,1.15-.03,1.62-.05v.65c-.5-.03-1.17-.04-2.01-.05-.84,0-1.89-.01-3.15-.01v1.77h2.86c.08,0,.17,0,.27,0,.1,0,.21,0,.32,0,.11,0,.22,0,.32-.01s.19-.01.26-.02l-.35,3.67c-.01.15-.05.28-.11.4s-.17.22-.33.31c-.16.09-.39.16-.69.22-.3.06-.7.1-1.19.13,0-.13-.02-.27-.07-.42s-.13-.29-.24-.43c.39.07.71.11.97.12.26,0,.46,0,.62-.05.15-.04.26-.1.33-.19.07-.09.1-.2.12-.33l.28-2.88h-3.36c0,.45-.05.88-.13,1.28-.08.4-.21.79-.39,1.15-.18.36-.42.7-.71,1.03s-.66.63-1.1.92c-.08-.11-.17-.21-.28-.3-.11-.09-.22-.16-.34-.21.5-.27.9-.55,1.2-.85s.54-.62.71-.96c.17-.34.28-.7.33-1.08.06-.38.08-.8.08-1.23v-2c-.25,0-.48,0-.69,0-.21,0-.42.01-.62.01-.2,0-.4,0-.6.02-.2,0-.41.02-.62.02v-.65c.48.03,1.04.04,1.67.05s1.37.01,2.21.01Z"/>
    <path d="M32.77,115.07c.14-.2.25-.37.34-.51.09-.14.17-.27.23-.39s.11-.22.15-.32c.04-.1.08-.21.11-.32.09.08.18.15.28.2.09.05.21.09.36.12.1.03.15.06.15.11s-.05.09-.15.12c-.04.01-.08.04-.13.07-.05.03-.1.08-.17.16s-.15.17-.24.29c-.09.12-.2.28-.33.46.51,0,.95,0,1.31-.01.35,0,.68-.03.96-.06v.63c-.19-.01-.37-.02-.53-.03-.17,0-.37-.02-.61-.02-.24,0-.55-.01-.92-.01-.37,0-.86,0-1.47,0-.06.35-.13.69-.21,1.01.41,0,.77,0,1.08,0,.31,0,.57,0,.8-.01.23,0,.43-.01.61-.02s.34-.02.5-.03v.62c-.16-.01-.32-.02-.49-.03s-.37-.02-.61-.02c-.23,0-.52-.01-.84-.01-.33,0-.72,0-1.18,0-.1.34-.24.66-.4.97h1.37c.38,0,.72,0,1,0,.28,0,.52,0,.72-.01.2,0,.38,0,.54-.01.16,0,.31-.01.44-.02.14,0,.29-.02.45-.03v.64c-.17-.01-.32-.02-.46-.03s-.29-.01-.45-.02-.35-.01-.55-.01c-.21,0-.46,0-.76,0-.3,0-.66,0-1.08,0h-1.5c-.25.37-.55.72-.9,1.06h2.22c.59,0,1.09,0,1.52-.02s.78-.03,1.07-.06v.62c-.27-.03-.61-.05-1.02-.06-.41-.01-.91-.02-1.5-.02v1.62c.55,0,1,0,1.37,0,.36,0,.68,0,.94-.01.26,0,.48-.01.67-.02.19,0,.38-.02.57-.03v.64c-.2-.01-.39-.02-.59-.03-.2,0-.43-.02-.7-.02-.27,0-.61-.01-1-.01-.39,0-.88,0-1.48,0-.93,0-1.73,0-2.39.02-.66.01-1.16.03-1.49.06v-.64c.35.03.82.05,1.4.06s1.28.02,2.09.02v-1.62h-2.22c-.27.21-.57.42-.89.62s-.67.42-1.05.63c-.07-.14-.14-.26-.22-.34-.08-.08-.19-.16-.32-.23.74-.29,1.37-.61,1.91-.96.53-.35.98-.76,1.34-1.23-.67.01-1.24.02-1.7.03-.46,0-.84.02-1.13.04v-.64c.18.01.36.02.55.03s.41.02.65.02c.24,0,.53,0,.85.01.32,0,.69.01,1.12.01.09-.15.17-.3.24-.46.07-.16.14-.33.2-.5-.63,0-1.17.02-1.6.03-.43.01-.77.03-1.02.05v-.62c.28.03.65.05,1.1.06.45.01,1,.02,1.66.02.08-.31.14-.65.18-1.01-.85,0-1.57,0-2.16.02-.58.01-1.04.03-1.37.06v-.63c.23.01.46.02.7.03s.53.02.88.02c.35,0,.78.01,1.29.01.51,0,1.15,0,1.93,0ZM30.49,114.97c-.09-.1-.18-.2-.26-.29-.08-.09-.17-.17-.27-.25-.09-.08-.19-.15-.3-.22-.1-.07-.22-.15-.35-.22l.44-.43c.12.08.23.15.33.22.09.07.19.15.28.23s.18.16.27.25c.09.09.2.19.31.31l-.45.41Z"/>
    <path d="M40.44,114.91c.26,0,.47,0,.64,0,.16,0,.32-.01.47-.03v.57c-.15-.01-.31-.02-.47-.03-.16,0-.38,0-.64,0h-.21c.01.42.02.8.01,1.15,0,.35-.01.68-.03,1,.39,0,.72,0,.98,0,.26,0,.48-.02.65-.04v.58c-.08,0-.19-.01-.31-.02-.12,0-.26-.01-.41-.01-.15,0-.3,0-.46,0-.16,0-.32,0-.48,0-.01.14-.03.28-.04.41-.02.13-.04.26-.06.38.15.14.3.3.46.47.16.17.31.34.46.52.15.18.3.36.44.53.14.18.26.34.36.5-.12.05-.23.11-.32.17-.09.06-.18.13-.26.2-.08-.14-.18-.3-.28-.46s-.21-.33-.31-.49c-.11-.16-.22-.32-.33-.47-.11-.15-.22-.29-.33-.42-.07.28-.16.54-.26.78s-.22.47-.35.7c-.13.23-.28.45-.45.67s-.36.45-.57.68c-.08-.07-.17-.14-.28-.21-.11-.06-.24-.11-.4-.15.27-.2.52-.43.73-.67.22-.25.4-.52.56-.83s.29-.65.4-1.03c.1-.38.18-.81.23-1.29-.17,0-.34,0-.52,0-.18,0-.35,0-.51,0-.16,0-.31,0-.45.01-.14,0-.25.01-.34.02v-.58c.09.01.21.02.35.03.14,0,.3.01.46.01.17,0,.34,0,.52,0h.53c.03-.31.04-.65.04-1s0-.74-.03-1.15h-.54c-.1.23-.21.45-.33.67-.11.22-.23.43-.36.62-.11-.08-.21-.14-.31-.18-.09-.03-.22-.05-.37-.06.2-.19.37-.41.53-.67.16-.25.3-.52.42-.8.12-.28.21-.55.28-.83.07-.27.12-.52.14-.75.12.05.23.09.32.12.09.03.21.06.36.09.07.01.11.04.12.07,0,.04-.03.09-.11.16-.05.05-.11.13-.18.25-.07.12-.11.22-.14.3-.05.17-.11.34-.18.5h1.15ZM42.6,121.39h3.99v.61c-.11-.01-.23-.02-.36-.03s-.29-.02-.47-.02c-.19,0-.4,0-.65,0-.24,0-.53,0-.86,0h-.91c-.25,0-.46,0-.64,0-.17,0-.32.01-.43.02-.11,0-.22.01-.31.02,0-.14.01-.25.02-.35s.01-.19.02-.29c0-.09,0-.19,0-.3v-5.64c0-.2,0-.39-.01-.58,0-.19-.02-.4-.03-.62.09.01.19.02.29.03.1,0,.24.02.4.02.16,0,.36,0,.61,0,.25,0,.56,0,.94,0,.32,0,.59,0,.82,0,.23,0,.42,0,.58,0s.29,0,.41-.02.22-.02.31-.03v.6h-3.7v1.74h1.55c.18,0,.34,0,.49,0,.15,0,.29,0,.43-.02.14,0,.27-.02.4-.03s.27-.03.41-.05c-.03.1-.05.22-.06.35-.01.13-.02.25-.02.36v1.64c0,.11,0,.23.02.37.01.13.03.26.06.39-.15-.02-.29-.03-.43-.04s-.27-.02-.4-.02c-.13,0-.27,0-.42,0-.15,0-.31,0-.48,0h-1.55v1.95ZM42.6,118.95h2.62v-1.91h-2.62v1.91Z"/>
    <path d="M50.52,114.08c-.15.47-.31.94-.49,1.4s-.38.96-.59,1.48c.33.29.56.61.71.95.15.34.22.72.22,1.15,0,.21-.02.41-.07.58-.05.17-.13.32-.24.46-.11.13-.27.25-.46.34s-.44.17-.73.23c0-.12-.03-.25-.09-.39-.06-.14-.14-.26-.23-.35.25,0,.45-.02.61-.05.16-.03.29-.09.38-.17s.15-.18.19-.3.05-.28.05-.46c0-.16-.01-.32-.04-.47-.03-.15-.07-.3-.14-.45-.07-.15-.16-.31-.28-.47-.12-.16-.28-.34-.47-.53.11-.25.21-.47.3-.68s.17-.4.24-.59c.07-.19.14-.38.21-.56.06-.19.13-.38.19-.59h-1.36v5.78c0,.44,0,.82,0,1.14,0,.32.03.64.06.96h-.73c.02-.18.04-.34.05-.5.01-.16.02-.32.03-.48,0-.17.01-.34.01-.52,0-.18,0-.38,0-.6v-5.01c0-.1,0-.2,0-.32,0-.11,0-.23-.01-.34,0-.11-.01-.22-.02-.33s-.02-.2-.02-.29c.23.01.46.02.68.03.23,0,.46,0,.69,0,.27,0,.52,0,.74-.01.22,0,.43-.02.64-.03ZM52.04,115.5c-.28.01-.54.02-.77.03-.23,0-.44.02-.62.03v-.63c.2.02.43.04.69.05.27.01.56.02.88.03.1-.25.18-.49.24-.7.06-.21.12-.45.16-.7.13.06.26.11.4.15.14.04.27.07.39.08.06.01.1.04.11.09,0,.04-.02.08-.09.12-.03.01-.06.04-.09.07-.03.03-.06.08-.11.15s-.09.16-.15.28c-.06.12-.13.28-.22.47h1.23c.34,0,.64,0,.9-.02.26-.01.54-.04.84-.07v.63c-.29-.03-.56-.05-.83-.06-.27-.02-.57-.02-.91-.02h-1.45l-1.06,2.3h1.51c0-.54,0-.94,0-1.2,0-.26-.02-.43-.03-.51.11.02.23.04.35.05.12.02.25.02.37.02.1,0,.16.02.18.06.02.04-.03.08-.13.12-.09.04-.14.14-.14.3v1.14c.18,0,.35,0,.54,0,.18,0,.36-.01.53-.02s.33-.02.47-.03c.15-.01.28-.03.39-.05v.67c-.22-.03-.49-.05-.84-.06-.34-.01-.71-.02-1.09-.03v1.41c.47,0,.91-.02,1.33-.03.42-.01.76-.03,1.01-.06v.66c-.12-.01-.27-.02-.44-.03-.17,0-.36-.02-.57-.02-.21,0-.42-.01-.65-.02-.22,0-.45,0-.69,0,0,.39,0,.8.02,1.22.01.42.04.8.07,1.15h-.77c.03-.35.06-.73.07-1.15.01-.42.02-.83.02-1.22-.25,0-.51,0-.76,0-.25,0-.49,0-.71.02-.22,0-.43.02-.62.03s-.35.02-.49.03v-.66c.14.01.3.03.49.04.19.01.4.02.63.03.23,0,.46.01.71.01.25,0,.5,0,.75,0v-1.41c-.44,0-.79,0-1.07,0-.27,0-.49.02-.66.03-.17.01-.29.03-.38.04-.08.02-.16.04-.23.06,0-.09,0-.19-.03-.3-.03-.11-.06-.2-.11-.29.09,0,.18-.03.26-.08.08-.05.18-.15.28-.31.1-.16.23-.39.36-.69s.3-.7.5-1.21Z"/>
    <path d="M59.67,116.97h-.92v-.94h.92v.94ZM59.67,120.95h-.92v-.94h.92v.94Z"/>
  </g>
  <polygon points="67.88 123.81 67.88 114.98 69.79 114.98 69.79 115.44 68.47 115.44 68.47 123.35 69.79 123.35 69.79 123.81 67.88 123.81"/>
  <path d="M73.9,121.92v-2.84c0-.56-.1-.97-.29-1.23-.19-.25-.5-.38-.91-.38-.44,0-.79.16-1.05.48-.26.32-.39.76-.39,1.31v2.66h-.61v-3.78c0-.18,0-.36-.01-.54,0-.18-.02-.36-.02-.54h.54l.06.93h.02c.17-.35.38-.6.64-.77.26-.17.59-.25.99-.25.56,0,.97.16,1.24.48.27.32.4.81.4,1.48v2.99h-.61ZM76.54,121.72c0,.28-.02.52-.07.72-.04.2-.12.39-.23.59h-.43c.24-.38.35-.75.35-1.11h-.32v-.83h.69v.62ZM77.67,121.92v-.49l3-3.87h-2.81v-.5h3.51v.5l-3.01,3.87h3.15v.5h-3.84Z"/>
  <polygon points="82.38 123.81 82.38 123.35 83.71 123.35 83.71 115.44 82.38 115.44 82.38 114.98 84.29 114.98 84.29 123.81 82.38 123.81"/>
  <polygon class="cls-2" points="88.33 99.39 143.08 99.39 143.08 97.89 146.08 100.89 143.08 103.89 143.08 102.39 88.33 102.39 88.33 99.39"/>
  <polygon class="cls-3" points="88.33 99.39 143.08 99.39 143.08 97.89 146.08 100.89 143.08 103.89 143.08 102.39 88.33 102.39 88.33 99.39"/>
  <rect class="cls-1" x="154.71" y="120.77" width="12" height="12"/>
  <rect class="cls-4" x="154.71" y="120.77" width="12" height="12"/>
  <rect class="cls-7" x="154.71" y="109.52" width="12" height="11.25"/>
  <rect class="cls-4" x="154.71" y="109.52" width="12" height="11.25"/>
  <rect class="cls-1" x="154.71" y="97.52" width="12" height="12"/>
  <rect class="cls-4" x="154.71" y="97.52" width="12" height="12"/>
  <rect class="cls-7" x="154.71" y="86.27" width="12" height="11.25"/>
  <rect class="cls-4" x="154.71" y="86.27" width="12" height="11.25"/>
  <rect class="cls-1" x="154.71" y="74.27" width="12" height="12"/>
  <rect class="cls-4" x="154.71" y="74.27" width="12" height="12"/>
  <rect class="cls-7" x="166.71" y="120.77" width="11.25" height="12"/>
  <rect class="cls-4" x="166.71" y="120.77" width="11.25" height="12"/>
  <rect class="cls-1" x="166.71" y="109.52" width="11.25" height="11.25"/>
  <rect class="cls-4" x="166.71" y="109.52" width="11.25" height="11.25"/>
  <rect class="cls-7" x="166.71" y="97.51" width="11.25" height="12"/>
  <rect class="cls-4" x="166.71" y="97.51" width="11.25" height="12"/>
  <rect class="cls-1" x="166.71" y="86.27" width="11.25" height="11.25"/>
  <rect class="cls-4" x="166.71" y="86.27" width="11.25" height="11.25"/>
  <rect class="cls-7" x="166.71" y="74.26" width="11.25" height="12"/>
  <rect class="cls-4" x="166.71" y="74.26" width="11.25" height="12"/>
  <rect class="cls-1" x="177.96" y="120.77" width="12" height="12"/>
  <rect class="cls-4" x="177.96" y="120.77" width="12" height="12"/>
  <rect class="cls-7" x="177.96" y="109.52" width="12" height="11.25"/>
  <rect class="cls-4" x="177.96" y="109.52" width="12" height="11.25"/>
  <rect class="cls-1" x="177.96" y="97.52" width="12" height="12"/>
  <rect class="cls-4" x="177.96" y="97.52" width="12" height="12"/>
  <rect class="cls-7" x="177.96" y="86.27" width="12" height="11.25"/>
  <rect class="cls-4" x="177.96" y="86.27" width="12" height="11.25"/>
  <rect class="cls-1" x="177.96" y="74.27" width="12" height="12"/>
  <rect class="cls-4" x="177.96" y="74.27" width="12" height="12"/>
  <rect class="cls-7" x="189.96" y="120.77" width="11.25" height="12"/>
  <rect class="cls-4" x="189.96" y="120.77" width="11.25" height="12"/>
  <rect class="cls-1" x="189.96" y="109.52" width="11.25" height="11.25"/>
  <rect class="cls-4" x="189.96" y="109.52" width="11.25" height="11.25"/>
  <rect class="cls-7" x="189.96" y="97.51" width="11.25" height="12"/>
  <rect class="cls-4" x="189.96" y="97.51" width="11.25" height="12"/>
  <rect class="cls-1" x="189.96" y="86.27" width="11.25" height="11.25"/>
  <rect class="cls-4" x="189.96" y="86.27" width="11.25" height="11.25"/>
  <rect class="cls-7" x="189.96" y="74.26" width="11.25" height="12"/>
  <rect class="cls-4" x="189.96" y="74.26" width="11.25" height="12"/>
  <rect class="cls-1" x="201.21" y="120.77" width="12" height="12"/>
  <rect class="cls-4" x="201.21" y="120.77" width="12" height="12"/>
  <rect class="cls-7" x="201.21" y="109.52" width="12" height="11.25"/>
  <rect class="cls-4" x="201.21" y="109.52" width="12" height="11.25"/>
  <rect class="cls-1" x="201.21" y="97.52" width="12" height="12"/>
  <rect class="cls-4" x="201.21" y="97.52" width="12" height="12"/>
  <rect class="cls-7" x="201.21" y="86.27" width="12" height="11.25"/>
  <rect class="cls-4" x="201.21" y="86.27" width="12" height="11.25"/>
  <rect class="cls-1" x="201.21" y="74.27" width="12" height="12"/>
  <rect class="cls-4" x="201.21" y="74.27" width="12" height="12"/>
  <rect class="cls-7" x="212.46" y="120.77" width="12" height="12"/>
  <rect class="cls-4" x="212.46" y="120.77" width="12" height="12"/>
  <rect class="cls-1" x="212.46" y="109.52" width="12" height="11.25"/>
  <rect class="cls-4" x="212.46" y="109.52" width="12" height="11.25"/>
  <rect class="cls-7" x="212.46" y="97.52" width="12" height="12"/>
  <rect class="cls-4" x="212.46" y="97.52" width="12" height="12"/>
  <rect class="cls-1" x="212.46" y="86.27" width="12" height="11.25"/>
  <rect class="cls-4" x="212.46" y="86.27" width="12" height="11.25"/>
  <rect class="cls-7" x="212.46" y="74.27" width="12" height="12"/>
  <rect class="cls-4" x="212.46" y="74.27" width="12" height="12"/>
  <rect class="cls-1" x="224.46" y="120.77" width="11.25" height="12"/>
  <rect class="cls-4" x="224.46" y="120.77" width="11.25" height="12"/>
  <rect class="cls-7" x="224.46" y="109.52" width="11.25" height="11.25"/>
  <rect class="cls-4" x="224.46" y="109.52" width="11.25" height="11.25"/>
  <rect class="cls-1" x="224.46" y="97.51" width="11.25" height="12"/>
  <rect class="cls-4" x="224.46" y="97.51" width="11.25" height="12"/>
  <rect class="cls-7" x="224.46" y="86.27" width="11.25" height="11.25"/>
  <rect class="cls-4" x="224.46" y="86.27" width="11.25" height="11.25"/>
  <rect class="cls-1" x="224.46" y="74.26" width="11.25" height="12"/>
  <rect class="cls-4" x="224.46" y="74.26" width="11.25" height="12"/>
  <rect class="cls-1" x="346.71" y="121.52" width="11.25" height="12"/>
  <rect class="cls-4" x="346.71" y="121.52" width="11.25" height="12"/>
  <rect class="cls-7" x="346.71" y="110.27" width="11.25" height="11.25"/>
  <rect class="cls-4" x="346.71" y="110.27" width="11.25" height="11.25"/>
  <rect class="cls-1" x="346.71" y="98.26" width="11.25" height="12"/>
  <rect class="cls-4" x="346.71" y="98.26" width="11.25" height="12"/>
  <rect class="cls-7" x="346.71" y="87.02" width="11.25" height="11.25"/>
  <rect class="cls-4" x="346.71" y="87.02" width="11.25" height="11.25"/>
  <rect class="cls-1" x="346.71" y="75.01" width="11.25" height="12"/>
  <rect class="cls-4" x="346.71" y="75.01" width="11.25" height="12"/>
  <rect class="cls-7" x="357.96" y="121.52" width="12" height="12"/>
  <rect class="cls-4" x="357.96" y="121.52" width="12" height="12"/>
  <rect class="cls-1" x="357.96" y="110.27" width="12" height="11.25"/>
  <rect class="cls-4" x="357.96" y="110.27" width="12" height="11.25"/>
  <rect class="cls-7" x="357.96" y="98.27" width="12" height="12"/>
  <rect class="cls-4" x="357.96" y="98.27" width="12" height="12"/>
  <rect class="cls-1" x="357.96" y="87.02" width="12" height="11.25"/>
  <rect class="cls-4" x="357.96" y="87.02" width="12" height="11.25"/>
  <rect class="cls-7" x="357.96" y="75.02" width="12" height="12"/>
  <rect class="cls-4" x="357.96" y="75.02" width="12" height="12"/>
  <rect class="cls-1" x="369.96" y="121.52" width="11.25" height="12"/>
  <rect class="cls-4" x="369.96" y="121.52" width="11.25" height="12"/>
  <rect class="cls-7" x="369.96" y="110.27" width="11.25" height="11.25"/>
  <rect class="cls-4" x="369.96" y="110.27" width="11.25" height="11.25"/>
  <rect class="cls-1" x="369.96" y="98.26" width="11.25" height="12"/>
  <rect class="cls-4" x="369.96" y="98.26" width="11.25" height="12"/>
  <rect class="cls-7" x="369.96" y="87.02" width="11.25" height="11.25"/>
  <rect class="cls-4" x="369.96" y="87.02" width="11.25" height="11.25"/>
  <rect class="cls-1" x="369.96" y="75.01" width="11.25" height="12"/>
  <rect class="cls-4" x="369.96" y="75.01" width="11.25" height="12"/>
  <rect class="cls-7" x="381.21" y="121.52" width="11.25" height="12"/>
  <rect class="cls-4" x="381.21" y="121.52" width="11.25" height="12"/>
  <rect class="cls-1" x="381.21" y="110.27" width="11.25" height="11.25"/>
  <rect class="cls-4" x="381.21" y="110.27" width="11.25" height="11.25"/>
  <rect class="cls-7" x="381.21" y="98.26" width="11.25" height="12"/>
  <rect class="cls-4" x="381.21" y="98.26" width="11.25" height="12"/>
  <rect class="cls-1" x="381.21" y="87.02" width="11.25" height="11.25"/>
  <rect class="cls-4" x="381.21" y="87.02" width="11.25" height="11.25"/>
  <rect class="cls-7" x="381.21" y="75.01" width="11.25" height="12"/>
  <rect class="cls-4" x="381.21" y="75.01" width="11.25" height="12"/>
  <rect class="cls-1" x="392.46" y="121.52" width="12" height="12"/>
  <rect class="cls-4" x="392.46" y="121.52" width="12" height="12"/>
  <rect class="cls-7" x="392.46" y="110.27" width="12" height="11.25"/>
  <rect class="cls-4" x="392.46" y="110.27" width="12" height="11.25"/>
  <rect class="cls-1" x="392.46" y="98.27" width="12" height="12"/>
  <rect class="cls-4" x="392.46" y="98.27" width="12" height="12"/>
  <rect class="cls-7" x="392.46" y="87.02" width="12" height="11.25"/>
  <rect class="cls-4" x="392.46" y="87.02" width="12" height="11.25"/>
  <rect class="cls-1" x="392.46" y="75.02" width="12" height="12"/>
  <rect class="cls-4" x="392.46" y="75.02" width="12" height="12"/>
  <rect class="cls-6" x="404.46" y="121.52" width="11.25" height="12"/>
  <rect class="cls-4" x="404.46" y="121.52" width="11.25" height="12"/>
  <rect class="cls-5" x="404.46" y="110.27" width="11.25" height="11.25"/>
  <rect class="cls-4" x="404.46" y="110.27" width="11.25" height="11.25"/>
  <rect class="cls-6" x="404.46" y="98.26" width="11.25" height="12"/>
  <rect class="cls-4" x="404.46" y="98.26" width="11.25" height="12"/>
  <rect class="cls-5" x="404.46" y="87.02" width="11.25" height="11.25"/>
  <rect class="cls-4" x="404.46" y="87.02" width="11.25" height="11.25"/>
  <rect class="cls-6" x="404.46" y="75.01" width="11.25" height="12"/>
  <rect class="cls-4" x="404.46" y="75.01" width="11.25" height="12"/>
  <rect class="cls-5" x="415.71" y="121.52" width="11.25" height="12"/>
  <rect class="cls-4" x="415.71" y="121.52" width="11.25" height="12"/>
  <rect class="cls-6" x="415.71" y="110.27" width="11.25" height="11.25"/>
  <rect class="cls-4" x="415.71" y="110.27" width="11.25" height="11.25"/>
  <rect class="cls-5" x="415.71" y="98.26" width="11.25" height="12"/>
  <rect class="cls-4" x="415.71" y="98.26" width="11.25" height="12"/>
  <rect class="cls-6" x="415.71" y="87.02" width="11.25" height="11.25"/>
  <rect class="cls-4" x="415.71" y="87.02" width="11.25" height="11.25"/>
  <rect class="cls-5" x="415.71" y="75.01" width="11.25" height="12"/>
  <rect class="cls-4" x="415.71" y="75.01" width="11.25" height="12"/>
  <rect class="cls-6" x="249.21" y="120.77" width="11.25" height="12"/>
  <rect class="cls-4" x="249.21" y="120.77" width="11.25" height="12"/>
  <rect class="cls-5" x="249.21" y="109.52" width="11.25" height="11.25"/>
  <rect class="cls-4" x="249.21" y="109.52" width="11.25" height="11.25"/>
  <rect class="cls-6" x="249.21" y="97.51" width="11.25" height="12"/>
  <rect class="cls-4" x="249.21" y="97.51" width="11.25" height="12"/>
  <rect class="cls-5" x="249.21" y="86.27" width="11.25" height="11.25"/>
  <rect class="cls-4" x="249.21" y="86.27" width="11.25" height="11.25"/>
  <rect class="cls-6" x="249.21" y="74.26" width="11.25" height="12"/>
  <rect class="cls-4" x="249.21" y="74.26" width="11.25" height="12"/>
  <rect class="cls-5" x="260.46" y="120.77" width="11.25" height="12"/>
  <rect class="cls-4" x="260.46" y="120.77" width="11.25" height="12"/>
  <rect class="cls-6" x="260.46" y="109.52" width="11.25" height="11.25"/>
  <rect class="cls-4" x="260.46" y="109.52" width="11.25" height="11.25"/>
  <rect class="cls-5" x="260.46" y="97.51" width="11.25" height="12"/>
  <rect class="cls-4" x="260.46" y="97.51" width="11.25" height="12"/>
  <rect class="cls-6" x="260.46" y="86.27" width="11.25" height="11.25"/>
  <rect class="cls-4" x="260.46" y="86.27" width="11.25" height="11.25"/>
  <rect class="cls-5" x="260.46" y="74.26" width="11.25" height="12"/>
  <rect class="cls-4" x="260.46" y="74.26" width="11.25" height="12"/>
  <polygon class="cls-2" points="280.33 99.39 335.08 99.39 335.08 97.89 338.08 100.89 335.08 103.89 335.08 102.39 280.33 102.39 280.33 99.39"/>
  <polygon class="cls-3" points="280.33 99.39 335.08 99.39 335.08 97.89 338.08 100.89 335.08 103.89 335.08 102.39 280.33 102.39 280.33 99.39"/>
  <polygon class="cls-2" points="431.83 99.95 486.96 99.95 486.96 98.64 489.58 101.27 486.96 103.89 486.96 102.58 431.83 102.58 431.83 99.95"/>
  <polygon class="cls-3" points="431.83 99.95 486.96 99.95 486.96 98.64 489.58 101.27 486.96 103.89 486.96 102.58 431.83 102.58 431.83 99.95"/>
  <path d="M99.94,61.87v-2.84c0-.56-.1-.97-.29-1.22-.19-.25-.5-.38-.9-.38-.44,0-.79.16-1.05.48-.26.32-.39.76-.39,1.31v2.65h-.6v-3.77c0-.18,0-.36-.01-.54,0-.18-.02-.36-.02-.54h.54l.06.92h.02c.17-.35.38-.6.64-.77s.59-.25.99-.25c.56,0,.97.16,1.24.48.27.32.4.81.4,1.48v2.98h-.6Z"/>
  <polygon points="45.25 97.99 45.25 97.5 48.25 93.64 45.44 93.64 45.44 93.14 48.94 93.14 48.94 93.64 45.94 97.49 49.09 97.49 49.09 97.99 45.25 97.99"/>
  <path d="M99.95,164.92v-2.84c0-.56-.1-.97-.29-1.23-.19-.25-.5-.38-.91-.38-.44,0-.79.16-1.05.48-.26.32-.39.76-.39,1.31v2.66h-.61v-3.78c0-.18,0-.36-.01-.54,0-.18-.02-.36-.02-.54h.54l.06.93h.02c.17-.35.38-.6.64-.77.26-.17.59-.25.99-.25.56,0,.97.16,1.24.48.27.32.4.81.4,1.48v2.99h-.61Z"/>
  <polygon points="45.25 201.05 45.25 200.55 48.26 196.69 45.45 196.69 45.45 196.19 48.95 196.19 48.95 196.68 45.95 200.55 49.1 200.55 49.1 201.05 45.25 201.05"/>
  <path d="M243.02,106.12v-2.84c0-.56-.1-.97-.29-1.23-.19-.25-.5-.38-.91-.38-.44,0-.79.16-1.05.48-.26.32-.39.76-.39,1.31v2.66h-.61v-3.78c0-.18,0-.36-.01-.54,0-.18-.02-.36-.02-.54h.54l.06.93h.02c.17-.35.38-.6.64-.77.26-.17.59-.25.99-.25.56,0,.97.16,1.24.48.27.32.4.81.4,1.48v2.99h-.61Z"/>
  <polygon points="188.35 142.25 188.35 141.76 191.36 137.89 188.55 137.89 188.55 137.39 192.05 137.39 192.05 137.89 189.05 141.75 192.2 141.75 192.2 142.25 188.35 142.25"/>
  <path d="M280.77,114.5v-2.84c0-.56-.1-.97-.29-1.23-.19-.25-.5-.38-.91-.38-.44,0-.79.16-1.05.48-.26.32-.39.76-.39,1.31v2.66h-.61v-3.78c0-.18,0-.36-.01-.54,0-.18-.02-.36-.02-.54h.54l.06.93h.02c.17-.35.38-.6.64-.77.26-.17.59-.25.99-.25.56,0,.97.16,1.24.48.27.32.4.81.4,1.48v2.99h-.61Z"/>
  <path d="M380.62,145.5h-5.06v-.5l4.11-5.68h-3.8v-.55h4.55v.48l-4.11,5.7h4.31v.54ZM384.77,142.5v2.04h-.5v-2.04h-2.03v-.5h2.03v-2.04h.5v2.04h2.03v.5h-2.03ZM388.74,145.5v-.51h1.72v-5.59l-1.54,1.02v-.55l1.6-1.1h.53v6.21h1.47v.51h-3.78ZM397.99,142.14c0,1.12-.18,1.98-.54,2.57-.36.59-.9.89-1.61.89s-1.23-.29-1.59-.87-.54-1.44-.54-2.59.17-2.04.52-2.61c.35-.57.89-.85,1.64-.85s1.25.29,1.6.86.52,1.44.52,2.6ZM397.37,142.14c0-1.03-.12-1.78-.36-2.25-.24-.47-.62-.71-1.16-.71s-.95.24-1.19.71c-.24.47-.36,1.22-.36,2.25s.12,1.74.37,2.23c.25.48.63.72,1.16.72s.91-.25,1.16-.74c.25-.49.37-1.23.37-2.21Z"/>
  <path d="M435.14,117.39v-2.84c0-.56-.1-.97-.29-1.23-.19-.25-.5-.38-.91-.38-.44,0-.79.16-1.05.48-.26.32-.39.76-.39,1.31v2.66h-.61v-3.78c0-.18,0-.36-.01-.54,0-.18-.02-.36-.02-.54h.54l.06.93h.02c.17-.35.38-.6.64-.77.26-.17.59-.25.99-.25.56,0,.97.16,1.24.48.27.32.4.81.4,1.48v2.99h-.61Z"/>
  <path d="M611.92,117.39v-2.84c0-.56-.1-.97-.29-1.23-.19-.25-.5-.38-.91-.38-.44,0-.79.16-1.05.48-.26.32-.39.76-.39,1.31v2.66h-.61v-3.78c0-.18,0-.36-.01-.54,0-.18-.02-.36-.02-.54h.54l.06.93h.02c.17-.35.38-.6.64-.77.26-.17.59-.25.99-.25.56,0,.97.16,1.24.48.27.32.4.81.4,1.48v2.99h-.61Z"/>
  <path d="M545.09,139.3c-.77,1.2-1.33,2.31-1.68,3.32-.36,1.02-.53,1.97-.53,2.88h-.62c0-.89.19-1.86.57-2.9.38-1.05.94-2.14,1.67-3.28h-3.52v-.54h4.12v.53ZM550.37,143.63c0,.62-.18,1.11-.54,1.45-.36.34-.87.51-1.54.51s-1.17-.17-1.54-.52c-.36-.34-.55-.82-.55-1.44,0-.43.12-.8.35-1.1.24-.3.54-.49.93-.56v-.02c-.35-.09-.62-.28-.83-.57-.2-.29-.31-.63-.31-1.02,0-.51.17-.91.52-1.23.35-.31.81-.47,1.4-.47s1.08.16,1.42.47c.35.31.52.72.52,1.23,0,.4-.1.75-.31,1.03-.21.28-.48.46-.83.54v.02c.39.08.71.26.95.55.24.29.35.66.35,1.11ZM549.75,143.58c0-.43-.13-.76-.38-1-.25-.24-.62-.37-1.09-.37s-.81.13-1.07.38c-.26.25-.39.59-.39,1.01,0,.49.13.87.38,1.13.25.26.62.39,1.1.39s.85-.13,1.09-.39c.24-.26.36-.64.36-1.15ZM549.6,140.4c0-.41-.11-.73-.34-.94-.23-.21-.56-.32-.98-.32s-.74.11-.97.32c-.22.21-.34.52-.34.93s.12.73.35.97c.23.23.55.35.97.35s.75-.11.98-.34c.22-.23.34-.55.34-.97ZM554.81,143.89v1.61h-.6v-1.61h-3.03v-.48l2.97-4.64h.65v4.62h.91v.5h-.91ZM554.21,139.58l-2.42,3.81h2.42v-3.81Z"/>
  <rect class="cls-1" x="521.46" y="121.52" width="11.25" height="12"/>
  <rect class="cls-4" x="521.46" y="121.52" width="11.25" height="12"/>
  <rect class="cls-7" x="521.46" y="110.27" width="11.25" height="11.25"/>
  <rect class="cls-4" x="521.46" y="110.27" width="11.25" height="11.25"/>
  <rect class="cls-1" x="521.46" y="98.26" width="11.25" height="12"/>
  <rect class="cls-4" x="521.46" y="98.26" width="11.25" height="12"/>
  <rect class="cls-7" x="521.46" y="87.02" width="11.25" height="11.25"/>
  <rect class="cls-4" x="521.46" y="87.02" width="11.25" height="11.25"/>
  <rect class="cls-1" x="521.46" y="75.01" width="11.25" height="12"/>
  <rect class="cls-4" x="521.46" y="75.01" width="11.25" height="12"/>
  <rect class="cls-7" x="532.71" y="121.52" width="12" height="12"/>
  <rect class="cls-4" x="532.71" y="121.52" width="12" height="12"/>
  <rect class="cls-1" x="532.71" y="110.27" width="12" height="11.25"/>
  <rect class="cls-4" x="532.71" y="110.27" width="12" height="11.25"/>
  <rect class="cls-7" x="532.71" y="98.27" width="12" height="12"/>
  <rect class="cls-4" x="532.71" y="98.27" width="12" height="12"/>
  <rect class="cls-1" x="532.71" y="87.02" width="12" height="11.25"/>
  <rect class="cls-4" x="532.71" y="87.02" width="12" height="11.25"/>
  <rect class="cls-7" x="532.71" y="75.02" width="12" height="12"/>
  <rect class="cls-4" x="532.71" y="75.02" width="12" height="12"/>
  <rect class="cls-1" x="544.71" y="121.52" width="11.25" height="12"/>
  <rect class="cls-4" x="544.71" y="121.52" width="11.25" height="12"/>
  <rect class="cls-7" x="544.71" y="110.27" width="11.25" height="11.25"/>
  <rect class="cls-4" x="544.71" y="110.27" width="11.25" height="11.25"/>
  <rect class="cls-1" x="544.71" y="98.26" width="11.25" height="12"/>
  <rect class="cls-4" x="544.71" y="98.26" width="11.25" height="12"/>
  <rect class="cls-7" x="544.71" y="87.02" width="11.25" height="11.25"/>
  <rect class="cls-4" x="544.71" y="87.02" width="11.25" height="11.25"/>
  <rect class="cls-1" x="544.71" y="75.01" width="11.25" height="12"/>
  <rect class="cls-4" x="544.71" y="75.01" width="11.25" height="12"/>
  <rect class="cls-7" x="555.96" y="121.52" width="12" height="12"/>
  <rect class="cls-4" x="555.96" y="121.52" width="12" height="12"/>
  <rect class="cls-1" x="555.96" y="110.27" width="12" height="11.25"/>
  <rect class="cls-4" x="555.96" y="110.27" width="12" height="11.25"/>
  <rect class="cls-7" x="555.96" y="98.27" width="12" height="12"/>
  <rect class="cls-4" x="555.96" y="98.27" width="12" height="12"/>
  <rect class="cls-1" x="555.96" y="87.02" width="12" height="11.25"/>
  <rect class="cls-4" x="555.96" y="87.02" width="12" height="11.25"/>
  <rect class="cls-7" x="555.96" y="75.02" width="12" height="12"/>
  <rect class="cls-4" x="555.96" y="75.02" width="12" height="12"/>
  <rect class="cls-1" x="567.96" y="121.52" width="11.25" height="12"/>
  <rect class="cls-4" x="567.96" y="121.52" width="11.25" height="12"/>
  <rect class="cls-7" x="567.96" y="110.27" width="11.25" height="11.25"/>
  <rect class="cls-4" x="567.96" y="110.27" width="11.25" height="11.25"/>
  <rect class="cls-1" x="567.96" y="98.26" width="11.25" height="12"/>
  <rect class="cls-4" x="567.96" y="98.26" width="11.25" height="12"/>
  <rect class="cls-7" x="567.96" y="87.02" width="11.25" height="11.25"/>
  <rect class="cls-4" x="567.96" y="87.02" width="11.25" height="11.25"/>
  <rect class="cls-1" x="567.96" y="75.01" width="11.25" height="12"/>
  <rect class="cls-4" x="567.96" y="75.01" width="11.25" height="12"/>
  <rect class="cls-1" x="497.46" y="121.52" width="11.25" height="12"/>
  <rect class="cls-4" x="497.46" y="121.52" width="11.25" height="12"/>
  <rect class="cls-7" x="497.46" y="110.27" width="11.25" height="11.25"/>
  <rect class="cls-4" x="497.46" y="110.27" width="11.25" height="11.25"/>
  <rect class="cls-1" x="497.46" y="98.26" width="11.25" height="12"/>
  <rect class="cls-4" x="497.46" y="98.26" width="11.25" height="12"/>
  <rect class="cls-7" x="497.46" y="87.02" width="11.25" height="11.25"/>
  <rect class="cls-4" x="497.46" y="87.02" width="11.25" height="11.25"/>
  <rect class="cls-1" x="497.46" y="75.01" width="11.25" height="12"/>
  <rect class="cls-4" x="497.46" y="75.01" width="11.25" height="12"/>
  <rect class="cls-7" x="508.71" y="121.52" width="11.25" height="12"/>
  <rect class="cls-4" x="508.71" y="121.52" width="11.25" height="12"/>
  <rect class="cls-1" x="508.71" y="110.27" width="11.25" height="11.25"/>
  <rect class="cls-4" x="508.71" y="110.27" width="11.25" height="11.25"/>
  <rect class="cls-7" x="508.71" y="98.26" width="11.25" height="12"/>
  <rect class="cls-4" x="508.71" y="98.26" width="11.25" height="12"/>
  <rect class="cls-1" x="508.71" y="87.02" width="11.25" height="11.25"/>
  <rect class="cls-4" x="508.71" y="87.02" width="11.25" height="11.25"/>
  <rect class="cls-7" x="508.71" y="75.01" width="11.25" height="12"/>
  <rect class="cls-4" x="508.71" y="75.01" width="11.25" height="12"/>
  <rect class="cls-7" x="577.71" y="121.52" width="12" height="12"/>
  <rect class="cls-4" x="577.71" y="121.52" width="12" height="12"/>
  <rect class="cls-1" x="577.71" y="110.27" width="12" height="11.25"/>
  <rect class="cls-4" x="577.71" y="110.27" width="12" height="11.25"/>
  <rect class="cls-7" x="577.71" y="98.27" width="12" height="12"/>
  <rect class="cls-4" x="577.71" y="98.27" width="12" height="12"/>
  <rect class="cls-1" x="577.71" y="87.02" width="12" height="11.25"/>
  <rect class="cls-4" x="577.71" y="87.02" width="12" height="11.25"/>
  <rect class="cls-7" x="577.71" y="75.02" width="12" height="12"/>
  <rect class="cls-4" x="577.71" y="75.02" width="12" height="12"/>
  <rect class="cls-1" x="589.71" y="121.52" width="11.25" height="12"/>
  <rect class="cls-4" x="589.71" y="121.52" width="11.25" height="12"/>
  <rect class="cls-7" x="589.71" y="110.27" width="11.25" height="11.25"/>
  <rect class="cls-4" x="589.71" y="110.27" width="11.25" height="11.25"/>
  <rect class="cls-1" x="589.71" y="98.26" width="11.25" height="12"/>
  <rect class="cls-4" x="589.71" y="98.26" width="11.25" height="12"/>
  <rect class="cls-7" x="589.71" y="87.02" width="11.25" height="11.25"/>
  <rect class="cls-4" x="589.71" y="87.02" width="11.25" height="11.25"/>
  <rect class="cls-1" x="589.71" y="75.01" width="11.25" height="12"/>
  <rect class="cls-4" x="589.71" y="75.01" width="11.25" height="12"/>
  <polygon class="cls-2" points="613.92 81.01 634.09 68.96 633.63 68.18 636.11 68.81 635.47 71.27 635.01 70.5 614.83 82.56 613.92 81.01"/>
  <polygon class="cls-3" points="613.92 81.01 634.09 68.96 633.63 68.18 636.11 68.81 635.47 71.27 635.01 70.5 614.83 82.56 613.92 81.01"/>
  <rect class="cls-1" x="647.46" y="9.02" width="11.25" height="12"/>
  <rect class="cls-4" x="647.46" y="9.02" width="11.25" height="12"/>
  <rect class="cls-7" x="658.71" y="9.02" width="11.25" height="12"/>
  <rect class="cls-4" x="658.71" y="9.02" width="11.25" height="12"/>
  <rect class="cls-1" x="669.96" y="9.02" width="12" height="12"/>
  <rect class="cls-4" x="669.96" y="9.02" width="12" height="12"/>
  <rect class="cls-7" x="681.96" y="9.02" width="11.25" height="12"/>
  <rect class="cls-4" x="681.96" y="9.02" width="11.25" height="12"/>
  <rect class="cls-1" x="693.21" y="9.02" width="12" height="12"/>
  <rect class="cls-4" x="693.21" y="9.02" width="12" height="12"/>
  <rect class="cls-7" x="647.46" y="21.02" width="11.25" height="11.25"/>
  <rect class="cls-4" x="647.46" y="21.02" width="11.25" height="11.25"/>
  <rect class="cls-1" x="658.71" y="21.02" width="11.25" height="11.25"/>
  <rect class="cls-4" x="658.71" y="21.02" width="11.25" height="11.25"/>
  <rect class="cls-7" x="669.96" y="21.02" width="12" height="11.25"/>
  <rect class="cls-4" x="669.96" y="21.02" width="12" height="11.25"/>
  <rect class="cls-1" x="681.96" y="21.02" width="11.25" height="11.25"/>
  <rect class="cls-4" x="681.96" y="21.02" width="11.25" height="11.25"/>
  <rect class="cls-7" x="693.21" y="21.02" width="12" height="11.25"/>
  <rect class="cls-4" x="693.21" y="21.02" width="12" height="11.25"/>
  <rect class="cls-1" x="647.46" y="32.27" width="11.25" height="12"/>
  <rect class="cls-4" x="647.46" y="32.27" width="11.25" height="12"/>
  <rect class="cls-7" x="658.71" y="32.27" width="11.25" height="12"/>
  <rect class="cls-4" x="658.71" y="32.27" width="11.25" height="12"/>
  <rect class="cls-1" x="669.96" y="32.27" width="12" height="12"/>
  <rect class="cls-4" x="669.96" y="32.27" width="12" height="12"/>
  <rect class="cls-7" x="681.96" y="32.27" width="11.25" height="12"/>
  <rect class="cls-4" x="681.96" y="32.27" width="11.25" height="12"/>
  <rect class="cls-1" x="693.21" y="32.27" width="12" height="12"/>
  <rect class="cls-4" x="693.21" y="32.27" width="12" height="12"/>
  <rect class="cls-7" x="647.46" y="44.27" width="11.25" height="11.25"/>
  <rect class="cls-4" x="647.46" y="44.27" width="11.25" height="11.25"/>
  <rect class="cls-1" x="658.71" y="44.27" width="11.25" height="11.25"/>
  <rect class="cls-4" x="658.71" y="44.27" width="11.25" height="11.25"/>
  <rect class="cls-7" x="669.96" y="44.27" width="12" height="11.25"/>
  <rect class="cls-4" x="669.96" y="44.27" width="12" height="11.25"/>
  <rect class="cls-1" x="681.96" y="44.27" width="11.25" height="11.25"/>
  <rect class="cls-4" x="681.96" y="44.27" width="11.25" height="11.25"/>
  <rect class="cls-7" x="693.21" y="44.27" width="12" height="11.25"/>
  <rect class="cls-4" x="693.21" y="44.27" width="12" height="11.25"/>
  <rect class="cls-1" x="647.46" y="55.52" width="11.25" height="12"/>
  <rect class="cls-4" x="647.46" y="55.52" width="11.25" height="12"/>
  <rect class="cls-7" x="658.71" y="55.52" width="11.25" height="12"/>
  <rect class="cls-4" x="658.71" y="55.52" width="11.25" height="12"/>
  <rect class="cls-1" x="669.96" y="55.52" width="12" height="12"/>
  <rect class="cls-4" x="669.96" y="55.52" width="12" height="12"/>
  <rect class="cls-7" x="681.96" y="55.52" width="11.25" height="12"/>
  <rect class="cls-4" x="681.96" y="55.52" width="11.25" height="12"/>
  <rect class="cls-1" x="693.21" y="55.52" width="12" height="12"/>
  <rect class="cls-4" x="693.21" y="55.52" width="12" height="12"/>
  <path d="M725.4,36.78c0,.7-.13,1.31-.39,1.84-.26.53-.63.94-1.1,1.22-.48.28-1.04.42-1.68.42s-1.22-.14-1.7-.42-.84-.69-1.09-1.22c-.25-.53-.38-1.14-.38-1.84,0-1.07.28-1.9.84-2.51.56-.61,1.34-.91,2.34-.91.65,0,1.21.14,1.69.41.48.27.84.67,1.09,1.19.25.52.38,1.13.38,1.82ZM724.74,36.78c0-.89-.22-1.59-.66-2.11-.44-.51-1.06-.77-1.85-.77s-1.42.25-1.86.76c-.44.51-.66,1.21-.66,2.12s.22,1.62.67,2.15c.45.53,1.06.79,1.84.79s1.43-.26,1.86-.78c.44-.52.65-1.24.65-2.17ZM730.05,40.17v-2.84c0-.56-.1-.97-.29-1.22-.19-.25-.5-.38-.9-.38-.44,0-.79.16-1.05.48-.26.32-.39.76-.39,1.31v2.65h-.6v-3.77c0-.18,0-.36-.01-.54,0-.18-.02-.36-.02-.54h.54l.06.92h.02c.17-.35.38-.6.64-.77s.59-.25.99-.25c.56,0,.97.16,1.24.48.27.32.4.81.4,1.48v2.98h-.6ZM733.11,37.84c0,.61.13,1.08.4,1.42.27.34.64.51,1.12.51.32,0,.6-.07.83-.2.23-.13.43-.35.6-.66l.48.26c-.22.4-.49.68-.8.85-.31.17-.68.25-1.12.25-.69,0-1.22-.22-1.59-.66-.37-.44-.55-1.07-.55-1.9,0-.53.09-.98.26-1.35.17-.37.42-.65.74-.84s.69-.29,1.12-.29c.66,0,1.16.21,1.51.63.35.42.52,1.03.52,1.82v.16h-3.53ZM736.01,37.37c-.06-1.09-.53-1.64-1.43-1.64-.44,0-.79.14-1.04.42-.25.28-.39.69-.41,1.23h2.89Z"/>
  <rect x="737.84" y="37.47" width="2.76" height=".54"/>
  <path d="M745.81,40.17v-2.84c0-.56-.1-.97-.29-1.23-.19-.25-.5-.38-.9-.38-.43,0-.78.16-1.05.47-.26.31-.4.74-.4,1.28v2.69h-.6v-6.92h.6v1.93c0,.17,0,.35,0,.52s-.01.34-.02.52h.02c.18-.35.4-.6.65-.75s.58-.24.96-.24c.56,0,.97.16,1.24.48.27.32.4.81.4,1.48v2.98h-.6ZM751.21,40.17h-.58l-.03-.86h-.02c-.33.64-.83.96-1.52.96-.5,0-.89-.12-1.17-.37-.27-.25-.41-.59-.41-1.04,0-.5.19-.88.57-1.15.38-.26.96-.41,1.75-.43l.8-.02v-.2c0-.46-.09-.79-.27-1.01-.18-.22-.47-.33-.85-.33-.35,0-.62.06-.8.17-.18.11-.3.3-.37.57l-.57-.12c.1-.41.29-.7.58-.87.28-.17.67-.25,1.17-.25.61,0,1.04.15,1.32.45.27.3.41.78.41,1.44v3.05ZM748.12,38.85c0,.61.35.92,1.05.92.28,0,.53-.07.75-.2.22-.13.39-.31.51-.54.12-.23.19-.47.19-.73v-.59l-.7.02c-.65.02-1.11.11-1.38.3-.27.18-.41.45-.41.82h0ZM755.21,40.14c-.28.07-.57.11-.88.11-.35,0-.62-.09-.8-.28-.18-.19-.27-.46-.27-.83v-3.31h-.71v-.5h.72l.16-1.12h.44v1.12h1.29v.5h-1.29v3.2c0,.23.05.41.14.53.09.13.26.19.5.19.21,0,.44-.03.71-.09v.47h0Z"/>
  <path d="M758.32,35.24h-.92v-.94h.92v.94ZM758.32,39.2h-.92v-.94h.92v.94Z"/>
  <path d="M770.03,38.32c0,.62-.18,1.09-.54,1.43s-.87.51-1.53.51c-1.27,0-1.97-.58-2.12-1.74l.61-.07c.11.86.61,1.29,1.5,1.29.47,0,.83-.12,1.08-.36.25-.24.37-.6.37-1.07,0-.42-.15-.74-.45-.96-.3-.22-.71-.33-1.25-.33h-.46v-.56h.44c.3,0,.56-.05.79-.15.23-.1.41-.24.55-.44.13-.19.2-.43.2-.71,0-.42-.11-.74-.33-.97-.22-.23-.55-.34-.97-.34-.38,0-.7.1-.94.3-.24.2-.38.5-.43.91l-.6-.05c.06-.53.26-.94.61-1.23s.8-.44,1.36-.44c.61,0,1.08.15,1.41.46.33.31.5.75.5,1.31,0,.41-.12.75-.35,1.04-.23.28-.56.47-.99.56v.02c.48.06.85.23,1.12.52.27.28.4.64.4,1.06Z"/>
  <polygon class="cls-2" points="613.92 138.06 634.09 150.12 633.63 150.89 636.11 150.27 635.47 147.8 635.01 148.57 614.83 136.52 613.92 138.06"/>
  <polygon class="cls-3" points="613.92 138.06 634.09 150.12 633.63 150.89 636.11 150.27 635.47 147.8 635.01 148.57 614.83 136.52 613.92 138.06"/>
  <rect class="cls-1" x="647.46" y="132.77" width="11.25" height="12"/>
  <rect class="cls-4" x="647.46" y="132.77" width="11.25" height="12"/>
  <rect class="cls-7" x="658.71" y="132.77" width="11.25" height="12"/>
  <rect class="cls-4" x="658.71" y="132.77" width="11.25" height="12"/>
  <rect class="cls-1" x="669.96" y="132.77" width="12" height="12"/>
  <rect class="cls-4" x="669.96" y="132.77" width="12" height="12"/>
  <rect class="cls-7" x="681.96" y="132.77" width="11.25" height="12"/>
  <rect class="cls-4" x="681.96" y="132.77" width="11.25" height="12"/>
  <rect class="cls-1" x="693.21" y="132.77" width="12" height="12"/>
  <rect class="cls-4" x="693.21" y="132.77" width="12" height="12"/>
  <rect class="cls-7" x="647.46" y="144.76" width="11.25" height="11.25"/>
  <rect class="cls-4" x="647.46" y="144.76" width="11.25" height="11.25"/>
  <rect class="cls-1" x="658.71" y="144.76" width="11.25" height="11.25"/>
  <rect class="cls-4" x="658.71" y="144.76" width="11.25" height="11.25"/>
  <rect class="cls-7" x="669.96" y="144.76" width="12" height="11.25"/>
  <rect class="cls-4" x="669.96" y="144.76" width="12" height="11.25"/>
  <rect class="cls-1" x="681.96" y="144.76" width="11.25" height="11.25"/>
  <rect class="cls-4" x="681.96" y="144.76" width="11.25" height="11.25"/>
  <rect class="cls-7" x="693.21" y="144.76" width="12" height="11.25"/>
  <rect class="cls-4" x="693.21" y="144.76" width="12" height="11.25"/>
  <rect class="cls-1" x="647.46" y="156.01" width="11.25" height="12"/>
  <rect class="cls-4" x="647.46" y="156.01" width="11.25" height="12"/>
  <rect class="cls-7" x="658.71" y="156.01" width="11.25" height="12"/>
  <rect class="cls-4" x="658.71" y="156.01" width="11.25" height="12"/>
  <rect class="cls-1" x="669.96" y="156.01" width="12" height="12"/>
  <rect class="cls-4" x="669.96" y="156.01" width="12" height="12"/>
  <rect class="cls-7" x="681.96" y="156.01" width="11.25" height="12"/>
  <rect class="cls-4" x="681.96" y="156.01" width="11.25" height="12"/>
  <rect class="cls-1" x="693.21" y="156.01" width="12" height="12"/>
  <rect class="cls-4" x="693.21" y="156.01" width="12" height="12"/>
  <rect class="cls-7" x="647.46" y="168.01" width="11.25" height="11.25"/>
  <rect class="cls-4" x="647.46" y="168.01" width="11.25" height="11.25"/>
  <rect class="cls-1" x="658.71" y="168.01" width="11.25" height="11.25"/>
  <rect class="cls-4" x="658.71" y="168.01" width="11.25" height="11.25"/>
  <rect class="cls-7" x="669.96" y="168.01" width="12" height="11.25"/>
  <rect class="cls-4" x="669.96" y="168.01" width="12" height="11.25"/>
  <rect class="cls-1" x="681.96" y="168.01" width="11.25" height="11.25"/>
  <rect class="cls-4" x="681.96" y="168.01" width="11.25" height="11.25"/>
  <rect class="cls-7" x="693.21" y="168.01" width="12" height="11.25"/>
  <rect class="cls-4" x="693.21" y="168.01" width="12" height="11.25"/>
  <rect class="cls-1" x="647.46" y="179.26" width="11.25" height="12"/>
  <rect class="cls-4" x="647.46" y="179.26" width="11.25" height="12"/>
  <rect class="cls-7" x="658.71" y="179.26" width="11.25" height="12"/>
  <rect class="cls-4" x="658.71" y="179.26" width="11.25" height="12"/>
  <rect class="cls-1" x="669.96" y="179.26" width="12" height="12"/>
  <rect class="cls-4" x="669.96" y="179.26" width="12" height="12"/>
  <rect class="cls-7" x="681.96" y="179.26" width="11.25" height="12"/>
  <rect class="cls-4" x="681.96" y="179.26" width="11.25" height="12"/>
  <rect class="cls-1" x="693.21" y="179.26" width="12" height="12"/>
  <rect class="cls-4" x="693.21" y="179.26" width="12" height="12"/>
  <path d="M725.41,171.23c0,.7-.13,1.31-.39,1.84-.26.53-.63.94-1.11,1.22-.48.28-1.04.42-1.69.42s-1.23-.14-1.7-.42c-.48-.28-.84-.69-1.09-1.22-.25-.53-.38-1.14-.38-1.84,0-1.07.28-1.91.84-2.52.56-.61,1.34-.91,2.34-.91.65,0,1.22.14,1.69.41.48.27.84.67,1.1,1.19.25.52.38,1.13.38,1.83ZM724.75,171.23c0-.89-.22-1.6-.66-2.11-.44-.52-1.06-.77-1.85-.77s-1.42.25-1.87.76c-.44.51-.66,1.22-.66,2.13s.23,1.63.68,2.15c.45.53,1.07.79,1.84.79s1.43-.26,1.87-.78c.44-.52.66-1.24.66-2.17ZM730.06,174.62v-2.84c0-.56-.1-.97-.29-1.23-.19-.25-.5-.38-.91-.38-.44,0-.79.16-1.05.48-.26.32-.39.76-.39,1.31v2.66h-.61v-3.78c0-.18,0-.36-.01-.54,0-.18-.02-.36-.02-.54h.54l.06.93h.02c.17-.35.38-.6.64-.77.26-.17.59-.25.99-.25.56,0,.97.16,1.24.48.27.32.4.81.4,1.48v2.99h-.61ZM733.12,172.29c0,.61.13,1.08.4,1.42.27.34.64.51,1.12.51.32,0,.6-.07.83-.2.23-.13.43-.35.6-.67l.48.26c-.22.4-.49.68-.8.85-.31.17-.69.25-1.12.25-.69,0-1.22-.22-1.59-.66-.37-.44-.55-1.07-.55-1.9,0-.53.09-.98.26-1.36.17-.37.42-.65.74-.84s.69-.29,1.12-.29c.66,0,1.17.21,1.52.63.35.42.53,1.03.53,1.82v.16h-3.54ZM736.02,171.81c-.06-1.1-.53-1.65-1.43-1.65-.45,0-.79.14-1.05.42-.25.28-.39.69-.42,1.23h2.89Z"/>
  <rect x="737.84" y="171.91" width="2.77" height=".54"/>
  <path d="M745.82,174.62v-2.84c0-.57-.1-.98-.29-1.23-.19-.25-.5-.38-.91-.38-.44,0-.79.16-1.05.47-.26.32-.4.74-.4,1.28v2.7h-.61v-6.94h.61v1.93c0,.18,0,.35,0,.52,0,.17-.01.35-.02.52h.02c.18-.35.4-.6.65-.76.26-.16.58-.24.96-.24.56,0,.97.16,1.24.48.27.32.4.81.4,1.48v2.99h-.61ZM751.23,174.62h-.58l-.03-.86h-.02c-.33.64-.84.96-1.53.96-.51,0-.9-.12-1.17-.37-.28-.25-.41-.6-.41-1.04,0-.5.19-.89.57-1.15.38-.26.97-.41,1.76-.43l.8-.02v-.2c0-.46-.09-.8-.27-1.01-.18-.22-.47-.33-.85-.33-.35,0-.62.06-.8.17-.18.11-.3.3-.37.57l-.57-.12c.1-.41.3-.7.58-.87.28-.17.68-.25,1.17-.25.61,0,1.05.15,1.32.45.27.3.41.78.41,1.44v3.06ZM748.12,173.29c0,.61.35.92,1.05.92.28,0,.53-.07.75-.2.22-.13.39-.31.51-.54.12-.23.19-.47.19-.73v-.59l-.7.02c-.65.02-1.11.11-1.39.3-.28.18-.41.46-.41.82h0ZM755.23,174.59c-.28.07-.57.11-.88.11-.35,0-.62-.09-.8-.28-.18-.19-.27-.46-.27-.83v-3.32h-.72v-.5h.73l.16-1.12h.44v1.12h1.29v.5h-1.29v3.21c0,.23.05.41.14.53.09.13.26.19.5.19.21,0,.45-.03.72-.09v.47h0Z"/>
  <path d="M758.33,169.67h-.92v-.94h.92v.94ZM758.33,173.65h-.92v-.94h.92v.94Z"/>
  <polygon points="769 174.62 767.58 172.52 766.16 174.62 765.51 174.62 767.23 172.13 765.59 169.76 766.26 169.76 767.58 171.74 768.9 169.76 769.57 169.76 767.93 172.12 769.67 174.62 769 174.62"/>
  <path d="M664.76,80.45v-.43c.15-.37.36-.74.64-1.1.28-.36.69-.78,1.22-1.25.55-.48.94-.88,1.16-1.21.22-.33.33-.67.33-1.03,0-.41-.12-.73-.35-.96-.23-.22-.56-.34-.97-.34-.38,0-.68.11-.92.33-.24.22-.38.52-.42.91l-.61-.08c.05-.5.25-.91.6-1.22.35-.31.81-.46,1.36-.46.61,0,1.08.16,1.42.47.34.31.51.75.51,1.3,0,.29-.05.56-.15.81-.1.25-.25.5-.46.75-.2.25-.55.59-1.04,1.03-.86.76-1.4,1.41-1.63,1.93h3.38v.54h-4.08ZM674.14,78.58c0,.62-.18,1.11-.54,1.45-.36.34-.87.51-1.54.51s-1.17-.17-1.54-.52c-.36-.34-.55-.82-.55-1.44,0-.43.12-.8.35-1.1.24-.3.54-.49.93-.56v-.02c-.35-.09-.62-.28-.83-.57-.2-.29-.31-.63-.31-1.02,0-.51.17-.91.52-1.23.35-.31.81-.47,1.4-.47s1.08.16,1.42.47c.35.31.52.72.52,1.23,0,.4-.1.75-.31,1.03-.21.28-.48.46-.83.54v.02c.39.08.71.26.95.55.24.29.35.66.35,1.11ZM673.52,78.53c0-.43-.13-.76-.38-1-.25-.24-.62-.37-1.09-.37s-.81.13-1.07.38c-.26.25-.39.59-.39,1.01,0,.49.13.87.38,1.13.25.26.62.39,1.1.39s.85-.13,1.09-.39c.24-.26.36-.64.36-1.15ZM673.37,75.35c0-.41-.11-.73-.34-.94-.23-.21-.56-.32-.98-.32s-.74.11-.97.32c-.22.21-.34.52-.34.93s.12.73.35.97c.23.23.55.35.97.35s.75-.11.98-.34c.22-.23.34-.55.34-.97Z"/>
  <path d="M708.88,23.17v-.43c.15-.37.36-.74.64-1.1.28-.36.69-.78,1.22-1.25.55-.48.94-.88,1.16-1.21.22-.33.33-.67.33-1.03,0-.41-.12-.73-.35-.96-.23-.22-.56-.34-.97-.34-.38,0-.68.11-.92.33-.24.22-.38.52-.42.91l-.61-.08c.05-.5.25-.91.6-1.22.35-.31.81-.46,1.36-.46.61,0,1.08.16,1.42.47.34.31.51.75.51,1.3,0,.29-.05.56-.15.81-.1.25-.25.5-.46.75-.2.25-.55.59-1.04,1.03-.86.76-1.4,1.41-1.63,1.93h3.38v.54h-4.08ZM718.29,21.3c0,.62-.18,1.11-.54,1.45-.36.34-.87.51-1.54.51s-1.17-.17-1.54-.52c-.36-.34-.55-.82-.55-1.44,0-.43.12-.8.35-1.1.24-.3.54-.49.93-.56v-.02c-.35-.09-.62-.28-.83-.57-.2-.29-.31-.63-.31-1.02,0-.51.17-.91.52-1.23.35-.31.81-.47,1.4-.47s1.08.16,1.42.47c.35.31.52.72.52,1.23,0,.4-.1.75-.31,1.03-.21.28-.48.46-.83.54v.02c.39.08.71.26.95.55.24.29.35.66.35,1.11ZM717.67,21.25c0-.43-.13-.76-.38-1-.25-.24-.62-.37-1.09-.37s-.81.13-1.07.38c-.26.25-.39.59-.39,1.01,0,.49.13.87.38,1.13.25.26.62.39,1.1.39s.85-.13,1.09-.39c.24-.26.36-.64.36-1.15ZM717.51,18.07c0-.41-.11-.73-.34-.94-.23-.21-.56-.32-.98-.32s-.74.11-.97.32c-.22.21-.34.52-.34.93s.12.73.35.97c.23.23.55.35.97.35s.75-.11.98-.34c.22-.23.34-.55.34-.97Z"/>
  <g>
    <path d="M670.79,99.21c0,.18-.06.34-.19.46-.13.13-.28.19-.47.19s-.34-.06-.47-.19c-.13-.13-.19-.28-.19-.46s.07-.33.2-.46.29-.2.47-.2.34.07.46.2c.13.13.19.28.19.46ZM670.79,105.75c0,.18-.06.34-.19.46-.13.13-.28.19-.47.19s-.34-.06-.47-.19-.19-.28-.19-.46.07-.33.2-.46c.13-.13.29-.19.47-.19s.34.06.46.19c.13.13.19.28.19.46ZM670.8,102.45c0,.18-.06.34-.19.46s-.28.19-.47.19-.34-.06-.47-.19c-.13-.13-.19-.28-.19-.46s.07-.33.2-.46.29-.2.47-.2.34.07.46.2c.13.13.19.28.19.46Z"/>
    <path d="M670.79,109.27c0,.18-.06.34-.19.46-.13.13-.28.19-.47.19s-.34-.06-.47-.19c-.13-.13-.19-.28-.19-.46s.07-.33.2-.46.29-.2.47-.2.34.07.46.2c.13.13.19.28.19.46ZM670.79,115.81c0,.18-.06.34-.19.46-.13.13-.28.19-.47.19s-.34-.06-.47-.19-.19-.28-.19-.46.07-.33.2-.46c.13-.13.29-.19.47-.19s.34.06.46.19c.13.13.19.28.19.46ZM670.8,112.52c0,.18-.06.34-.19.46s-.28.19-.47.19-.34-.06-.47-.19c-.13-.13-.19-.28-.19-.46s.07-.33.2-.46.29-.2.47-.2.34.07.46.2c.13.13.19.28.19.46Z"/>
  </g>
  <path d="M682.86,107.69v-2.84c0-.56-.1-.97-.29-1.22-.19-.25-.5-.38-.9-.38-.44,0-.79.16-1.05.48-.26.32-.39.76-.39,1.31v2.65h-.6v-3.77c0-.18,0-.36-.01-.54,0-.18-.02-.36-.02-.54h.54l.06.92h.02c.17-.35.38-.6.64-.77s.59-.25.99-.25c.56,0,.97.16,1.24.48.27.32.4.81.4,1.48v2.98h-.6Z"/>
  <path d="M689.2,100.41c-.23.38-.5.74-.81,1.08-.31.34-.64.66-.99.96-.35.3-.7.58-1.07.83-.36.25-.71.48-1.04.68-.07-.1-.14-.19-.21-.26-.07-.07-.17-.16-.3-.27.62-.27,1.22-.62,1.79-1.03.58-.42,1.09-.9,1.52-1.45.22-.28.41-.55.56-.81s.28-.56.4-.89c.12.05.23.1.33.15.1.05.2.09.29.15s.13.1.13.15c0,.05-.05.08-.13.11-.06.02-.14.09-.22.21.31.35.59.66.85.92.25.26.49.5.72.7.22.2.44.38.64.53.2.15.41.29.61.41.21.12.42.24.65.34.22.1.47.21.74.31-.1.1-.18.2-.24.29s-.13.19-.2.32c-.38-.21-.74-.42-1.08-.65-.34-.22-.67-.47-.99-.74-.32-.27-.64-.57-.95-.9-.31-.33-.64-.71-.97-1.13ZM689.63,102.63c-.05.03-.09.11-.11.22-.02.11-.03.29-.03.54v3.07c0,.12,0,.25,0,.41,0,.15,0,.31.02.48,0,.17.02.33.03.5.01.17.03.32.04.46h-.81c.01-.12.02-.27.03-.43s.02-.33.03-.5.02-.34.02-.5c0-.16,0-.3,0-.42v-2.56c0-.33,0-.64-.02-.92-.01-.28-.04-.5-.07-.64.3.08.56.11.78.1.12,0,.18,0,.2.05s-.03.09-.13.15Z"/>
  <g>
    <path d="M723.86,101.82v-1.15c0-.18,0-.34,0-.47,0-.13,0-.24-.01-.34,0-.1-.01-.19-.02-.27s-.02-.16-.03-.24c.16.03.32.06.48.08s.28.03.38.02c.16,0,.19.05.07.17-.06.06-.11.15-.14.27-.04.12-.05.28-.05.47v1.46c.34,0,.66,0,.94,0,.28,0,.54,0,.78,0,.24,0,.47,0,.68-.01.21,0,.43-.02.64-.03v.63c-.21,0-.43-.01-.64-.02-.21,0-.44-.02-.68-.02-.24,0-.5,0-.78,0-.28,0-.6,0-.94,0v1.94c.36,0,.67,0,.95,0,.27,0,.51,0,.73,0,.21,0,.39,0,.55-.02.16,0,.29-.02.41-.03v.63c-.13-.01-.27-.02-.43-.03-.16,0-.34-.02-.55-.02-.21,0-.45,0-.72,0-.27,0-.58,0-.94,0v2.39c.47,0,.9,0,1.28,0,.38,0,.73,0,1.04-.02.32,0,.6-.02.86-.03s.5-.02.73-.04v.74c-.24-.02-.5-.03-.78-.04s-.59-.02-.94-.03-.74-.02-1.17-.02c-.43,0-.91,0-1.44,0-.96,0-1.8,0-2.52.02-.72.02-1.32.04-1.81.07v-.74c.47.03,1.04.06,1.72.07.68.02,1.47.02,2.37.02v-2.39c-.36,0-.68,0-.94,0-.26,0-.49,0-.68,0-.2,0-.37,0-.52.02-.15,0-.3.02-.44.03v-.63c.14.01.29.02.45.03s.33.02.53.02.43,0,.69,0,.57,0,.92,0v-1.94h-2.39c-.07.16-.15.34-.25.52-.09.19-.19.37-.3.55-.1.18-.21.36-.31.52-.1.17-.2.31-.28.42-.1-.11-.19-.19-.27-.23-.08-.04-.19-.08-.34-.11.2-.21.39-.43.57-.68.18-.24.34-.52.49-.83.15-.31.29-.66.42-1.05.13-.39.25-.84.37-1.35.11.06.22.12.32.16.1.04.23.08.37.11.1.03.15.06.16.11,0,.05-.04.09-.14.13-.08.03-.17.16-.27.38-.1.22-.21.49-.33.82h2.18Z"/>
    <path d="M730.93,103.6c0,.56-.02,1.05-.05,1.48-.03.43-.07.81-.13,1.15-.06.34-.14.66-.23.95-.1.29-.22.59-.37.89-.1-.11-.21-.2-.32-.25-.12-.06-.24-.1-.37-.13.2-.29.37-.61.5-.95.13-.34.23-.76.29-1.26s.1-1.1.1-1.82c0-.72,0-1.6-.05-2.66.08.01.24.03.47.04.23.01.52.02.87.03.35,0,.75.02,1.21.02.45,0,.95,0,1.49,0-.03-.51-.06-.89-.09-1.16-.03-.26-.06-.46-.09-.6.14.03.27.06.38.07s.23.03.36.03c.09,0,.15.03.17.07s0,.1-.07.17c-.02.02-.04.05-.05.09-.01.04-.02.11-.03.21,0,.1,0,.24,0,.41,0,.18.01.4.02.68.83,0,1.48,0,1.95-.02.47-.01.79-.04.96-.07v.68c-.08,0-.23-.01-.45-.02-.21,0-.46-.02-.73-.02-.27,0-.56-.01-.86-.01-.3,0-.58,0-.83,0,.05.68.12,1.28.21,1.78.1.5.21.97.34,1.39.07-.1.12-.19.18-.29.05-.09.11-.19.16-.29.07-.13.14-.28.21-.45s.14-.34.21-.52c.06-.18.12-.36.17-.55.05-.19.09-.36.12-.53.13.08.24.14.34.19.09.05.19.08.3.11.14.03.21.08.21.14s-.05.12-.16.17c-.03.01-.07.05-.11.11-.04.06-.1.15-.16.27-.07.12-.14.28-.23.47s-.2.43-.32.71c-.08.18-.17.36-.29.55-.11.19-.24.39-.38.59.33.81.71,1.41,1.16,1.8.08.07.16.12.21.14.06.02.11,0,.16-.06s.09-.17.14-.34c.04-.16.09-.39.13-.69.08.1.18.19.29.25.11.07.22.11.34.15-.11.38-.22.69-.32.91-.1.22-.2.38-.31.48-.1.09-.21.13-.33.11-.12-.02-.24-.08-.38-.18-.14-.1-.29-.23-.43-.39-.15-.15-.29-.32-.42-.49-.14-.17-.26-.36-.38-.54s-.21-.37-.3-.55c-.31.4-.64.78-1,1.14-.35.36-.69.68-1,.95-.07-.09-.16-.18-.27-.26s-.23-.15-.37-.2c.42-.24.83-.56,1.24-.96.41-.4.79-.84,1.15-1.31-.21-.63-.37-1.25-.48-1.86-.11-.61-.19-1.26-.24-1.95h-3.44c0,.27,0,.53,0,.78v.71h1.18c.27,0,.54,0,.79-.02.26-.02.46-.04.6-.07l-.2,3.18c-.03.4-.18.66-.45.8-.28.14-.73.18-1.35.11,0-.14-.01-.25-.04-.36-.03-.1-.08-.23-.16-.38.31.06.55.11.74.13s.33.02.43,0c.1-.03.17-.08.21-.15.04-.08.06-.17.06-.29l.17-2.45h-1.99ZM736.76,101.01c-.12-.18-.28-.38-.49-.59-.21-.21-.43-.41-.67-.6l.46-.39c.23.18.45.38.66.58s.39.4.52.57l-.48.43Z"/>
    <path d="M741.24,108.14h-.62c0-.13.01-.25.02-.35s.01-.21.02-.32c0-.11,0-.24,0-.38v-6.15c0-.19,0-.37-.01-.55s-.02-.38-.03-.6c.09,0,.2.01.32.02.12,0,.31.01.58.01.26,0,.61,0,1.06,0h3.53c.45,0,.8,0,1.06,0,.26,0,.45,0,.58-.01.13,0,.24-.01.33-.02-.01.22-.02.42-.02.61,0,.19,0,.37,0,.54v5.58c0,.28,0,.55.01.8s.02.51.03.77h-.62v-.6h-6.23v.65ZM747.47,100.34h-6.23v6.67h6.23v-6.67ZM744.41,103.12c.27-.2.5-.42.7-.65s.37-.47.5-.72h-2.28c-.07.1-.15.22-.25.34-.09.12-.2.25-.31.38-.11.13-.22.25-.34.38-.12.13-.23.24-.35.35-.14-.18-.31-.31-.53-.39.24-.17.45-.35.64-.53.19-.17.36-.36.51-.56.15-.19.29-.4.42-.62s.25-.46.38-.73c.17.14.34.22.51.25.09.01.14.05.14.1,0,.05-.04.09-.14.13-.1.03-.24.18-.42.47h1.18c.41,0,.76,0,1.05-.02.29-.02.53-.04.72-.07-.11.21-.22.41-.34.6-.11.19-.24.37-.37.54-.13.18-.28.35-.44.52-.16.17-.35.35-.56.53.34.2.72.36,1.14.48.41.12.88.21,1.39.29-.08.09-.16.2-.22.32-.06.12-.11.24-.15.35-1.05-.29-1.91-.66-2.57-1.1-.16.11-.35.22-.57.34-.21.12-.44.23-.68.35s-.48.23-.73.33c-.25.1-.49.2-.72.27-.07-.23-.21-.44-.42-.6.21-.04.43-.09.66-.16.23-.06.46-.14.69-.22.23-.08.46-.18.69-.29s.44-.22.63-.35c-.37-.3-.68-.64-.92-1.03l.39-.27c.29.4.6.73.96,1ZM745.53,106.77c-.21-.1-.42-.2-.61-.29s-.39-.17-.59-.24c-.2-.08-.42-.15-.64-.21s-.49-.14-.78-.22l.25-.55c.37.11.79.25,1.27.43.47.17.95.37,1.42.58l-.31.51ZM745.26,105.49c-.27-.17-.54-.32-.79-.44-.26-.12-.55-.24-.89-.35l.26-.44c.13.05.27.1.43.17.16.06.31.13.47.2.16.07.31.15.45.22.15.08.27.14.38.21l-.31.43Z"/>
    <path d="M750.91,102.52c-.1.18-.22.37-.34.56-.12.19-.25.37-.38.54-.1-.09-.2-.16-.3-.21-.09-.05-.23-.1-.39-.15.08-.05.17-.12.27-.2.09-.08.2-.19.32-.34.12-.14.25-.32.39-.54.14-.21.31-.48.49-.81.23-.4.41-.76.54-1.08.13-.32.24-.65.33-.98.1.07.21.12.33.18.12.05.23.09.32.11.12.03.19.08.19.13,0,.06-.05.13-.18.23-.05.04-.11.09-.16.16-.06.06-.12.15-.2.27-.07.11-.16.26-.27.44-.1.18-.23.4-.38.67v6.61h-.67c.03-.28.06-.6.08-.96.02-.36.03-.72.03-1.07v-3.56ZM752.91,101.95c-.09.08-.18.15-.26.23-.08.08-.16.15-.24.21-.08-.09-.16-.17-.26-.23-.09-.06-.21-.12-.35-.18.36-.2.69-.42.98-.65.3-.23.57-.49.82-.78.23-.27.4-.5.53-.69.12-.19.22-.39.29-.59.1.06.19.11.28.15s.21.07.36.1c.08.01.12.05.12.13s-.04.12-.14.14c-.04.01-.1.04-.18.09-.08.05-.2.16-.36.35h.82c.22,0,.42,0,.59,0,.17,0,.33,0,.47,0,.14,0,.27,0,.39-.01.12,0,.24-.02.36-.03l-.96,1.47h.63c.17,0,.31,0,.43,0,.12,0,.23,0,.33-.01.1,0,.21-.01.32-.02-.01.14-.02.29-.02.46,0,.17,0,.34,0,.51s0,.34,0,.52c0,.18.01.33.02.46-.16-.01-.3-.02-.4-.02-.1,0-.23,0-.39,0h-1.85c-.08.14-.18.26-.27.36-.1.1-.22.2-.37.31.21.16.39.31.54.44.14.13.28.29.42.46.14-.08.3-.17.49-.28.18-.11.36-.23.53-.36s.33-.25.48-.39c.15-.13.27-.25.36-.36.09.1.16.18.22.23.06.06.12.12.2.17s.1.11.08.16c-.03.05-.08.08-.18.08-.08,0-.17.04-.29.1-.11.06-.25.14-.4.23-.1.07-.19.12-.28.18-.09.05-.18.11-.27.17.08.2.2.41.34.62.14.21.31.41.5.61.19.19.4.38.63.55.23.17.47.31.73.43-.14.08-.24.16-.32.23-.08.07-.17.17-.26.28-.51-.39-.92-.79-1.23-1.2-.31-.41-.56-.85-.75-1.31l-.37.19c.09.18.16.37.21.58s.08.41.08.59c0,.29-.03.54-.08.74-.06.2-.16.37-.3.5-.15.13-.35.24-.6.32-.25.08-.58.14-.97.19-.01-.14-.05-.27-.1-.37-.05-.1-.14-.21-.26-.32.34.03.62.04.85.02.23-.02.42-.06.56-.14s.24-.19.3-.35c.06-.15.09-.35.09-.6,0-.12,0-.23-.02-.35-.02-.11-.05-.23-.09-.35-.15.15-.33.31-.56.47-.22.16-.52.36-.9.6-.1.06-.21.13-.35.21-.13.08-.28.15-.43.22-.15.07-.31.15-.46.22-.16.07-.31.14-.46.19-.05-.11-.11-.2-.16-.26-.05-.07-.14-.15-.25-.24.14-.02.27-.04.39-.07s.24-.07.37-.11c.12-.04.25-.1.39-.17.13-.07.28-.15.45-.24.35-.21.67-.41.96-.62.29-.21.55-.41.78-.62-.04-.06-.08-.12-.13-.18-.05-.06-.11-.12-.17-.19-.13.12-.31.25-.53.41-.22.16-.46.31-.7.45-.14.08-.26.15-.37.21s-.22.11-.32.16-.2.1-.31.14c-.1.05-.22.09-.34.15-.05-.09-.11-.17-.18-.24-.06-.07-.16-.16-.28-.27.1-.01.21-.03.31-.05s.21-.05.32-.08c.11-.04.23-.08.37-.14.13-.05.29-.12.46-.2.23-.11.45-.24.64-.38.2-.14.39-.29.59-.46-.06-.05-.12-.11-.19-.16-.07-.05-.14-.11-.21-.16-.28.17-.56.34-.85.49s-.59.3-.9.44c-.07-.1-.14-.2-.23-.28-.09-.08-.21-.16-.36-.23.24-.04.49-.09.75-.17.26-.07.51-.16.76-.28.25-.11.49-.25.72-.4.23-.15.44-.33.62-.53h-.77c-.19,0-.35,0-.47,0-.12,0-.23,0-.31,0-.08,0-.17,0-.27,0,.02-.13.03-.28.04-.45s.01-.34.01-.51v-.26c0-.12,0-.24,0-.35ZM754.21,100.61c-.1.12-.23.28-.4.46-.17.18-.35.37-.56.56h2.27l.7-1.01h-2.02ZM754.95,103.11c.05-.11.09-.25.12-.41.03-.17.05-.39.06-.67h-1.69v1.08h1.51ZM755.63,102.02c0,.42-.06.78-.18,1.08h1.85v-1.08h-1.68Z"/>
  </g>
  <g>
    <path d="M108.02,89c-.59,0-1.14,0-1.67,0s-.98.03-1.37.06v-.63c.19.02.41.03.64.04.23,0,.5.02.81.02.31,0,.65.01,1.05.01.39,0,.85,0,1.36,0,0-.22-.01-.42-.02-.61,0-.19-.02-.32-.03-.41.15.04.29.07.41.09.12.02.24.02.35,0,.07,0,.12.01.14.06.02.04-.01.09-.1.15-.05.03-.09.08-.11.14-.02.06-.03.12-.03.18v.4c.51,0,.96,0,1.35,0,.39,0,.74,0,1.04-.01.31,0,.57-.01.8-.02.23,0,.44-.02.63-.04v.63c-.34-.03-.78-.04-1.3-.05-.52,0-1.12-.01-1.78-.01.19.31.41.59.67.85.26.26.54.5.83.71s.6.4.91.56c.32.16.62.29.92.38-.25.14-.44.36-.57.64-.85-.47-1.55-.96-2.08-1.46s-.94-1.07-1.21-1.69h-.21v2.26c0,.31,0,.6.01.86,0,.26.02.47.04.61h-.74c.02-.15.04-.35.05-.61.01-.26.02-.55.02-.86v-2.26h-.19c-.16.26-.34.52-.55.79-.21.27-.45.54-.72.81-.27.27-.58.53-.93.79-.35.25-.74.5-1.17.73-.07-.08-.15-.17-.27-.27s-.23-.18-.36-.25c.33-.11.66-.26.99-.44s.64-.39.94-.61.57-.47.81-.74c.25-.26.45-.53.62-.8ZM104.98,84.79c.16.02.4.03.73.04.33,0,.71,0,1.15,0,.43,0,.89-.02,1.38-.04.49-.02.98-.05,1.46-.09.71-.05,1.32-.12,1.82-.22.5-.09.83-.19,1-.28.05.12.1.23.15.33s.12.18.19.25c.11.1.16.18.14.23-.02.05-.09.06-.22.03-.05-.01-.12-.02-.21-.02-.09,0-.22,0-.38,0-.16,0-.37.02-.62.04-.25.02-.55.05-.91.09-.33.03-.7.07-1.11.1-.42.04-.86.07-1.33.1s-.96.05-1.46.08c-.5.02-1.01.04-1.51.05-.01-.13-.04-.25-.07-.36s-.1-.22-.19-.35ZM106.87,87.78c-.19-.34-.38-.64-.59-.92-.2-.27-.43-.51-.68-.72l.5-.39c.2.2.42.45.65.73.23.29.46.59.69.93l-.57.37ZM109.34,87.4c-.18-.31-.37-.59-.56-.84-.19-.25-.42-.5-.68-.75l.49-.35c.22.23.44.49.67.77.22.28.42.54.6.79l-.52.38ZM111.9,85.32c.09.08.21.16.35.23.14.07.26.12.36.15.08.02.12.06.14.11s-.03.09-.14.13c-.06.02-.13.05-.2.1-.07.05-.17.14-.3.28-.13.14-.3.33-.51.59-.21.26-.49.61-.84,1.06-.08-.09-.16-.16-.26-.21s-.21-.09-.34-.12c.2-.18.39-.38.58-.59.19-.21.36-.42.51-.62.16-.21.29-.4.4-.59.11-.19.2-.36.25-.51Z"/>
    <path d="M116.7,85.83c.27,0,.52,0,.75-.02.23-.01.43-.03.58-.06v.64c-.15-.03-.34-.05-.58-.06-.23-.01-.48-.02-.75-.02v.76c.18.16.33.31.47.43.14.13.26.24.37.35.11.11.21.21.31.32.1.1.2.21.29.32l-.53.4c-.07-.12-.14-.22-.19-.31-.06-.09-.12-.17-.19-.26-.07-.08-.14-.17-.22-.26-.08-.09-.18-.2-.31-.32v3.24c0,.21,0,.39,0,.55,0,.16,0,.3.01.44s.01.27.02.41.02.28.03.44h-.73c.01-.16.02-.3.03-.44s.02-.27.02-.41.01-.29.01-.44c0-.16,0-.33,0-.54v-3.21c-.18.53-.37,1-.57,1.43-.21.43-.41.79-.61,1.08-.09-.1-.19-.18-.28-.22-.1-.05-.23-.08-.41-.09.16-.16.32-.36.5-.61s.36-.53.53-.83c.18-.3.34-.62.48-.95.15-.33.26-.65.36-.96v-.31c-.24,0-.44,0-.61,0-.17,0-.31,0-.43.01s-.23.01-.32.02c-.09,0-.18.02-.26.03v-.64c.08.01.17.02.27.03s.2.02.32.02.27.01.43.01.37,0,.6,0c0-.29,0-.55,0-.77,0-.22,0-.41-.02-.57s-.02-.3-.03-.42-.02-.23-.04-.33c.12.03.25.06.39.07.14.01.26.02.37.02.1,0,.15.02.16.05s-.02.1-.1.19c-.05.06-.09.15-.11.26-.02.11-.03.24-.03.39v1.1ZM120.75,85.65c.18-.25.35-.54.51-.85.16-.32.29-.66.4-1.03.14.09.25.15.33.19.08.04.18.07.31.09.11.02.16.07.16.15,0,.08-.06.14-.16.17-.07.02-.14.08-.21.17s-.17.24-.3.43c-.09.15-.17.27-.22.35-.06.08-.13.19-.22.32.4,0,.74,0,1.01-.02.27-.02.51-.04.72-.07v.63c-.25-.03-.57-.06-.95-.07-.38-.02-.8-.02-1.26-.02v1.52c.42,0,.76,0,1.04-.02.28-.02.5-.04.67-.07v.63c-.17-.03-.39-.06-.67-.07-.28-.02-.63-.02-1.04-.02v1.62c.33,0,.62,0,.88,0,.25,0,.48,0,.68-.02s.38-.02.54-.03.31-.02.45-.04v.65c-.14-.02-.29-.03-.45-.04s-.34-.02-.54-.03-.42-.02-.68-.02c-.25,0-.55,0-.88,0v.96c0,.24,0,.51.02.8.01.29.04.58.07.88h-.77c.03-.29.05-.58.07-.88.01-.29.02-.56.02-.8v-.96c-.62,0-1.13,0-1.52.02-.39.02-.72.04-.99.07v-.65c.27.03.61.06,1,.07.4.02.9.02,1.51.02v-1.62c-.43,0-.77,0-1.02.02-.25.02-.47.04-.65.07v-.63c.18.03.4.06.66.07.26.02.59.02,1,.02v-1.52c-.27,0-.51,0-.71,0-.2,0-.38,0-.54.02s-.3.02-.43.03c-.13.01-.25.03-.37.04v-.63c.14.02.28.03.42.04.15,0,.31.02.51.03.19,0,.41.02.67.02.25,0,.56,0,.92,0ZM119.81,85.52c-.16-.23-.32-.44-.48-.62s-.37-.38-.61-.59l.38-.38c.25.2.46.4.65.58s.37.4.56.63l-.5.37Z"/>
  </g>
  <g>
    <path d="M283.26,87.88c-.29,0-.55,0-.79.02-.24.02-.44.04-.58.06v-.62c.16.03.36.04.59.06.23.01.49.02.78.02,0-.33,0-.6,0-.81,0-.22,0-.4-.01-.55s-.02-.27-.03-.38c-.02-.1-.03-.2-.05-.3.16.03.29.05.39.06s.21,0,.33,0c.12,0,.19.01.21.06s-.02.11-.11.19c-.05.05-.09.13-.11.24s-.03.26-.03.47v1.01c.21,0,.4,0,.56-.02.16-.01.31-.03.44-.06v.62c-.28-.05-.61-.08-1-.08v1.78c.35-.18.71-.39,1.08-.61-.02.21.01.41.1.61-.17.08-.35.17-.56.27-.2.1-.41.21-.62.33v3.14c0,.27-.11.46-.33.57-.22.11-.59.16-1.12.15,0-.26-.08-.5-.24-.73.24.03.43.05.58.06.15,0,.26,0,.34-.02.08-.02.13-.06.16-.11s.04-.12.04-.21v-2.54c-.22.12-.43.23-.62.35-.19.12-.36.22-.51.31-.02-.12-.06-.23-.11-.34s-.13-.21-.24-.31c.42-.14.91-.34,1.48-.62v-2.09ZM286.9,90.42c-.01.42-.05.81-.12,1.16s-.16.67-.3.96-.31.57-.52.83c-.21.26-.47.5-.78.75-.05-.09-.13-.18-.23-.25s-.23-.14-.38-.2c.32-.22.58-.43.8-.63.21-.2.39-.42.53-.66.14-.24.24-.51.3-.82s.1-.68.12-1.13c-.23,0-.48,0-.75.02-.27.01-.51.03-.71.06v-.64c.2.03.44.04.71.06.27.01.52.02.75,0v-2.08c-.19,0-.38.02-.58.03-.2.01-.37.03-.5.05v-.61c.18.03.51.05.99.07.48.01,1.06.02,1.75.02.14-.21.25-.41.35-.58s.19-.33.26-.49c.08-.16.15-.31.22-.48.07-.16.14-.34.22-.54.14.11.26.19.36.24.1.05.2.09.29.12.07.02.1.05.1.09s-.05.08-.14.11c-.03.01-.07.04-.12.09s-.11.12-.19.24c-.08.11-.19.27-.31.46s-.28.44-.46.74c.48,0,.88,0,1.18-.02.31-.02.55-.04.72-.06v.61c-.15-.03-.34-.06-.56-.07s-.43-.02-.63-.02v2.09c.23,0,.49,0,.76-.02.27-.01.5-.03.69-.06v.64c-.19-.02-.42-.04-.69-.05-.27-.01-.53-.02-.76,0v1.97c0,.25,0,.53.01.83,0,.3.03.61.05.92h-.73c.03-.31.05-.62.06-.92.01-.3.02-.58.02-.83v-1.98h-1.8ZM286.79,87.19c-.27-.49-.61-.96-1.03-1.4l.46-.38c.19.21.38.44.57.69s.37.5.52.76l-.52.34ZM286.91,89.92h1.79v-2.09h-1.79v2.09Z"/>
    <path d="M292.98,87.81c-.27,0-.5.02-.68.03s-.36.04-.55.07v-.69c.18.03.36.06.54.07s.41.02.69.02c0-.51-.02-.92-.04-1.25s-.05-.56-.08-.7c.15.03.28.06.39.07s.22.02.32,0c.31,0,.33.1.07.31-.03.03-.05.08-.06.17,0,.08-.01.24-.01.46v.94c.25,0,.45-.01.6-.02.16,0,.32-.03.48-.06v.69c-.16-.03-.32-.06-.48-.07-.16-.01-.36-.02-.6-.02v1.97c.15-.08.3-.16.45-.25.15-.09.31-.18.47-.28.01.12.03.21.06.29.03.08.07.17.13.28-.17.08-.35.16-.54.25-.19.09-.38.18-.58.27v2.85c0,.2-.02.35-.06.48-.04.12-.11.22-.22.3-.11.07-.26.13-.44.17-.19.04-.44.06-.74.07,0-.12-.02-.25-.06-.39-.04-.14-.11-.27-.21-.4.25.05.46.08.61.1.15.01.27,0,.35-.03.08-.04.13-.09.16-.17s.04-.19.04-.32v-2.35c-.19.1-.37.2-.55.3-.18.1-.35.2-.52.31-.04-.15-.08-.27-.13-.35-.05-.08-.13-.18-.23-.29.27-.09.53-.18.76-.27s.46-.18.67-.28v-2.25ZM295.94,90.99c-.33,0-.64,0-.93.01s-.51.02-.66.04v-.57c.18.01.44.03.77.04.33.01.69.02,1.08.02.11-.21.21-.42.3-.62.09-.2.15-.38.19-.54.09.08.19.16.31.21.12.06.22.09.32.11.1.02.14.05.14.1s-.05.1-.15.16c-.08.05-.15.11-.23.18-.07.08-.17.21-.3.39h1.65c.41,0,.8,0,1.17,0,.37,0,.66-.02.85-.05v.57c-.14-.02-.33-.03-.57-.04-.23,0-.49-.01-.78-.02-.12.33-.26.62-.42.88-.17.26-.37.49-.61.7.72.29,1.41.58,2.06.87-.18.14-.32.33-.44.56-.27-.19-.58-.37-.93-.56-.35-.18-.73-.36-1.14-.53-.35.24-.77.45-1.26.63-.49.18-1.08.35-1.77.52-.02-.11-.06-.22-.13-.34-.06-.11-.15-.21-.26-.29.56-.07,1.07-.16,1.53-.28.46-.12.88-.29,1.25-.49-.31-.11-.62-.21-.93-.3-.31-.09-.62-.16-.92-.23.12-.14.25-.31.4-.51.14-.2.27-.41.4-.64ZM297.73,88.75c.15-.19.27-.37.38-.52s.19-.29.25-.41c.07-.12.13-.25.18-.37.05-.12.09-.25.13-.39.1.08.21.14.31.2.1.05.19.09.28.12.08.03.11.07.11.12,0,.06-.07.11-.19.16-.03.01-.07.04-.11.08s-.09.1-.16.18c-.07.08-.15.19-.24.32-.09.13-.21.3-.35.5.52-.01.94-.03,1.25-.04.31-.01.56-.03.75-.05v.61c-.11-.01-.24-.03-.38-.04-.14-.01-.32-.02-.54-.03-.22,0-.48-.01-.79-.01-.31,0-.69,0-1.12,0s-.8,0-1.11,0c-.31,0-.57,0-.79.01-.22,0-.4.02-.55.03-.15.01-.27.03-.38.04v-.61c.11.01.25.02.41.03.17,0,.35.02.55.02.2,0,.42.01.64.02.23,0,.46,0,.69,0h.79ZM297.06,86.44c-.05-.07-.09-.14-.13-.19-.04-.06-.08-.12-.13-.18-.05-.06-.1-.12-.16-.19s-.13-.14-.2-.23l.52-.34c.08.12.16.23.22.33.06.1.12.19.18.27.06.08.11.17.15.25.05.08.09.17.15.27.46,0,.89,0,1.3-.01.4,0,.73-.03.98-.06v.6c-.27-.03-.63-.05-1.08-.06-.45,0-.92-.01-1.42-.01-.25,0-.49,0-.74,0-.24,0-.48,0-.7.01-.22,0-.43.01-.62.02s-.35.02-.48.03v-.6c.23.03.54.05.93.06.39.01.8.02,1.24.02ZM296.53,88.65c-.14-.21-.28-.41-.44-.59-.16-.19-.34-.36-.55-.53l.36-.35c.18.17.35.35.52.54.17.19.35.39.53.6l-.43.33ZM296.51,90.99c-.06.11-.14.24-.22.38-.08.14-.17.3-.28.48.25.07.49.15.74.23.25.08.49.17.74.26.48-.36.82-.82,1.02-1.36h-2.01Z"/>
    <path d="M303.64,89.35c-.13.46-.29.91-.48,1.37-.19.46-.44.94-.76,1.44-.1-.08-.2-.14-.28-.19-.08-.04-.18-.09-.31-.14.23-.3.44-.59.62-.89.18-.29.34-.59.48-.89.14-.3.27-.61.38-.94.11-.32.23-.67.34-1.03v-.11c-.32,0-.61,0-.87.02-.25.01-.47.03-.66.06v-.62c.19.03.41.04.66.06.25.01.54.02.87.02,0-.34,0-.63,0-.86,0-.23,0-.43-.02-.59s-.02-.31-.03-.43c-.01-.12-.03-.24-.05-.36.16.04.3.07.43.08s.24.01.32,0c.1-.01.15,0,.17.05.02.05-.02.11-.11.2-.09.08-.14.18-.14.3v1.62c.28,0,.53,0,.74-.02.21-.01.41-.03.58-.06v.62c-.17-.02-.36-.04-.58-.05-.21-.01-.46-.02-.74-.03v.71c.14.14.27.27.39.39.12.12.24.25.36.38s.23.26.35.4c.11.14.24.28.37.44l-.48.38c-.1-.16-.19-.29-.27-.39s-.15-.21-.21-.3c-.07-.09-.14-.19-.22-.29-.08-.1-.17-.22-.28-.37v3.1c0,.26,0,.54.01.85,0,.31.03.63.05.98h-.71c.03-.36.05-.67.06-.95s.01-.57.01-.88v-3.07ZM307.13,90.12c.09.01.15.05.19.12s.01.12-.06.15c-.07.03-.14.09-.22.18-.08.1-.18.24-.3.44-.13.22-.29.46-.47.7-.18.25-.4.53-.65.85-.1-.1-.2-.17-.28-.21-.08-.04-.2-.08-.35-.1.44-.38.78-.77,1.04-1.15.26-.38.46-.8.6-1.25.11.1.2.16.27.19.07.03.15.06.24.07ZM308.45,93.33c0,.17-.02.31-.06.42s-.11.2-.22.26c-.11.06-.27.11-.48.14-.21.03-.48.04-.82.04-.01-.13-.04-.24-.09-.33s-.13-.21-.26-.36c.29.04.53.06.7.06.18,0,.31-.02.4-.06.09-.04.15-.11.18-.2.03-.09.04-.21.04-.36v-3.94c-.51,0-.95,0-1.33.02s-.71.03-1,.06v-.62c.31.03.68.05,1.11.06.43,0,.93.01,1.52.01s1.12,0,1.58-.02c.46-.01.85-.03,1.17-.06v.62c-.29-.03-.63-.05-1.04-.06s-.87-.02-1.38-.02v4.32ZM310.38,86.78c-.25-.03-.57-.05-.96-.06-.39-.01-.82-.02-1.28-.02s-.89,0-1.28.02c-.39.01-.71.03-.97.06v-.68c.25.03.56.04.95.06.39.01.81.02,1.27.02s.9,0,1.3-.02c.4-.01.72-.03.97-.06v.68ZM310.68,92.46c-.14-.23-.27-.43-.39-.61-.12-.18-.25-.35-.38-.52-.13-.16-.27-.32-.41-.48s-.3-.33-.48-.52l.42-.36c.18.18.35.36.49.52.15.17.29.33.42.5.14.17.27.34.4.53s.27.39.41.61l-.49.34Z"/>
    <path d="M313.55,86.6c-.14.21-.26.4-.36.55s-.2.29-.29.4c-.09.12-.17.23-.26.33s-.18.21-.27.32c-.06-.11-.15-.2-.24-.27-.09-.07-.2-.12-.32-.16.43-.34.79-.73,1.09-1.15s.56-.89.79-1.41c.09.07.19.13.28.18.1.05.19.09.28.11.08.02.12.05.12.09s-.04.07-.12.11c-.07.02-.13.06-.19.12-.06.06-.14.17-.23.32h1.28c.27,0,.52,0,.75-.02.23-.02.41-.04.55-.06v.6c-.14-.02-.33-.03-.55-.04-.22,0-.47-.01-.75-.01h-.73c.18.21.33.43.46.63.13.21.25.43.37.66l-.6.22c-.08-.25-.19-.52-.33-.8-.13-.28-.26-.52-.39-.72h-.34ZM316.21,88.34c-.49.43-1.06.82-1.73,1.18-.67.36-1.43.68-2.28.97-.04-.2-.15-.39-.32-.57.5-.09.99-.24,1.47-.43.48-.2.95-.44,1.41-.74.37-.23.67-.44.91-.65.23-.2.41-.41.52-.61.1.08.2.15.3.21s.22.12.37.18c.07.03.11.07.11.11s-.05.07-.15.09c-.03,0-.07.01-.1.01-.04,0-.07.01-.1.02.15.12.32.23.51.34s.42.23.7.36c.39.18.83.34,1.33.49.49.14,1,.26,1.53.34-.1.07-.18.16-.24.27-.06.11-.12.23-.16.36-.21-.06-.4-.12-.57-.17-.17-.05-.34-.12-.52-.19-.18-.07-.39-.16-.62-.26-.23-.1-.53-.24-.89-.41-.3-.14-.57-.29-.81-.44s-.46-.32-.65-.47ZM317.02,93.26c.16-.21.3-.44.44-.66s.27-.46.39-.68c.12-.23.22-.45.31-.67.09-.22.16-.42.21-.61.15.08.3.15.44.21.14.06.25.11.33.13.06.02.1.05.1.1s-.04.09-.13.12c-.08.03-.18.11-.28.23-.1.12-.21.26-.32.43-.15.24-.3.47-.44.69-.15.22-.3.46-.47.7.55,0,1.04,0,1.49-.02.45-.01.81-.04,1.07-.07v.63c-.14-.01-.32-.03-.53-.04-.21-.01-.47-.02-.78-.03-.31,0-.68-.01-1.11-.01-.43,0-.93,0-1.51,0s-1.05,0-1.45,0c-.4,0-.74,0-1.03.01-.29,0-.53.02-.72.03-.2.01-.36.03-.51.04v-.63c.29.03.66.06,1.1.07.44.01.98.02,1.61.02h1.8ZM314.56,92.85c-.12-.28-.26-.57-.41-.86-.16-.29-.33-.57-.52-.82l.46-.22c.19.25.37.51.53.77s.32.53.47.83l-.53.3ZM318.16,90.27c-.23-.03-.5-.05-.81-.06s-.68-.02-1.11-.02-.79,0-1.11.02c-.32.01-.59.03-.81.06v-.58c.23.03.5.05.81.06.31.01.68.02,1.11.02s.8,0,1.11-.02.58-.03.81-.06v.58ZM316.29,92.56c-.06-.27-.16-.55-.29-.84-.13-.29-.28-.56-.46-.8l.53-.25c.12.25.25.5.38.77s.27.55.4.85l-.56.27ZM317.51,86.58c-.12.21-.23.39-.34.55s-.24.33-.4.54c-.13-.13-.31-.24-.54-.32.18-.16.33-.3.45-.44.13-.14.24-.29.34-.45.1-.16.19-.34.28-.53.08-.19.17-.42.25-.68.1.06.2.11.32.16.11.05.22.08.31.09.09.01.14.04.15.08,0,.04-.04.07-.13.09-.05.01-.12.06-.2.15-.08.08-.16.19-.23.32h1.39c.27,0,.52,0,.75-.02.23-.01.41-.04.55-.07v.6c-.14-.01-.33-.03-.55-.04s-.47-.02-.75-.02h-.63c.17.21.32.43.47.64s.28.43.42.65l-.58.27c-.11-.27-.25-.55-.4-.83-.16-.28-.32-.52-.47-.73h-.45Z"/>
  </g>
  <g>
    <path d="M447.29,87.88c-.06.07-.12.14-.18.2-.06.07-.12.13-.18.2-.08-.08-.17-.16-.26-.21-.1-.06-.21-.1-.34-.14.22-.18.42-.36.6-.54.18-.19.35-.39.51-.6.16-.21.31-.45.45-.71.14-.26.28-.56.42-.89.12.08.22.13.31.17s.18.06.26.07c.13.02.19.06.19.11,0,.05-.06.11-.17.15-.08.04-.23.22-.45.55h.85c.22,0,.41,0,.56,0,.15,0,.27-.01.37-.02.09,0,.19-.02.28-.03l-1,1.64c.26,0,.49-.02.7-.03s.41-.03.62-.05c-.03.13-.04.31-.06.53-.01.22-.02.46-.02.71v4.19c0,.18-.01.32-.03.43-.02.11-.07.2-.15.26s-.19.11-.34.13c-.15.03-.35.04-.6.06,0-.14-.02-.25-.03-.34-.01-.09-.06-.19-.16-.3.17.02.3.03.4.02.1,0,.18-.02.23-.05.05-.03.09-.08.1-.15s.02-.16.02-.27v-1.37h-.9c0,.28,0,.54.01.77,0,.24.02.5.04.78h-.65c.02-.27.03-.53.04-.77,0-.24.01-.5.01-.78h-.95c-.01.49-.08.95-.21,1.38-.13.43-.32.81-.57,1.13-.18-.15-.4-.24-.64-.26.17-.18.31-.36.43-.56s.21-.42.28-.67.12-.53.15-.85c.03-.31.04-.68.04-1.1v-2.79ZM448.19,86.7c-.11.17-.23.34-.37.52-.13.18-.27.36-.42.53.22.02.45.03.68.04.23,0,.5.02.8.02l.68-1.12h-1.37ZM448.76,89.44v-1.17h-.94v1.17h.94ZM447.83,89.9v1.23h.94v-1.23h-.94ZM450.2,89.44v-1.17h-.9v1.17h.9ZM449.3,89.9v1.23h.9v-1.23h-.9ZM451.72,90.61c-.05.1-.1.21-.16.32-.05.11-.11.23-.18.36-.19-.14-.38-.2-.58-.2.25-.32.44-.62.55-.91s.19-.6.24-.94c.09.05.18.1.28.14s.2.07.29.09c.07.02.11.05.1.1,0,.05-.03.09-.08.11-.05.03-.09.07-.13.15-.04.07-.09.18-.15.33h.99v-.55c0-.14,0-.25,0-.33,0-.08,0-.14-.01-.18,0-.04-.01-.08-.02-.12.16.03.28.05.37.06s.19,0,.31,0c.06,0,.1.02.11.06.02.04-.01.08-.08.12-.05.03-.08.07-.1.1-.01.04-.02.1-.02.18v.64h.42c.12,0,.24,0,.35,0,.11,0,.21,0,.32,0,.11,0,.23,0,.36-.01v.54c-.13,0-.25-.01-.36-.02-.11,0-.21-.01-.32-.01-.11,0-.22,0-.35,0h-.42v1.19c.43,0,.79,0,1.06,0,.27,0,.52-.02.74-.04v.59c-.22-.02-.47-.03-.74-.04-.27,0-.63,0-1.06,0,0,.37,0,.72.02,1.04.01.32.04.65.07.98h-.72c.03-.33.05-.66.07-.98.01-.32.02-.67.02-1.04-.44,0-.82,0-1.15,0s-.61.02-.83.04v-.59c.23.01.5.02.83.03.33,0,.71.01,1.15.01v-1.19h-1.18ZM452.32,86.46c-.17,0-.32,0-.44,0-.13,0-.24,0-.34,0-.1,0-.2,0-.29.01-.09,0-.19.01-.29.02v-.53c.13.01.26.02.39.03s.28.01.43.01c.16,0,.33,0,.52,0,.19,0,.41,0,.66,0,.31,0,.63,0,.94-.03s.61-.04.88-.06c-.05.19-.08.39-.09.59,0,.21-.01.36-.02.47v.83c-.02.19-.04.34-.08.45-.04.11-.11.21-.21.27s-.25.12-.45.15-.45.05-.77.06c.01-.11,0-.21-.03-.29s-.1-.19-.2-.33c.25.03.46.05.61.05s.27-.02.35-.05c.08-.04.14-.09.17-.16s.04-.16.04-.27l.03-1.28h-1.25c-.04.29-.09.55-.15.76s-.13.41-.22.59-.2.35-.34.52c-.13.16-.29.34-.48.54-.08-.08-.16-.14-.25-.2-.09-.06-.21-.11-.35-.16.19-.1.36-.22.51-.34.14-.12.26-.26.36-.42s.18-.34.23-.56.1-.45.13-.73Z"/>
    <path d="M457.83,86.64c-.14,0-.28,0-.43,0s-.29,0-.43.01-.26.01-.37.02c-.11,0-.19.02-.25.02v-.62c.15.02.37.04.67.05.3.01.69.02,1.17.02s.85,0,1.16-.02c.31-.01.53-.03.68-.05v.62c-.13-.02-.34-.04-.64-.05s-.61-.02-.94-.02c-.05.32-.12.67-.21,1.05s-.19.74-.3,1.07h.95c.24,0,.44,0,.6-.02.16-.01.29-.03.4-.05-.01.08-.02.17-.03.28s-.01.23-.01.36v2.93c0,.13,0,.26,0,.39s0,.28.01.44h-.53v-.71h-1.46v.92h-.58c.01-.17.02-.34.03-.51s.01-.34.01-.53v-2.02c-.14.31-.27.56-.38.75-.11.18-.22.35-.33.48-.07-.07-.15-.14-.25-.21-.09-.07-.19-.12-.28-.16.49-.56.87-1.2,1.15-1.93s.47-1.57.58-2.54ZM459.33,89.21h-1.46v2.7h1.46v-2.7ZM463.94,92c-.12-.01-.25-.03-.37-.04-.12-.01-.26-.02-.4-.03-.14,0-.3-.01-.48-.01-.17,0-.38,0-.61,0s-.44,0-.62,0c-.18,0-.34,0-.48.01-.14,0-.28.02-.4.03-.12.01-.25.03-.37.04v-.65c.12.02.25.03.37.04.12,0,.26.02.4.02.14,0,.3.01.48.01.18,0,.38,0,.62,0s.44,0,.61,0c.18,0,.33,0,.48-.02.14,0,.28-.02.4-.04.12-.02.25-.03.37-.05v.68ZM463.67,86.48h-2.13c-.27,0-.49,0-.67.02-.18.01-.35.03-.52.06v-.64c.18.01.35.02.51.03.16,0,.32.02.47.02.16,0,.32.01.49.01s.35,0,.56,0,.38,0,.54,0,.31,0,.45-.01c.14,0,.29-.01.43-.02.15,0,.31-.02.49-.03l-.48,3.76c.34,0,.6-.02.79-.03s.32-.03.39-.05c-.03.2-.05.42-.07.65-.02.23-.04.46-.05.66-.03.37-.06.72-.09,1.06s-.07.61-.1.81c-.05.28-.11.5-.18.67-.07.17-.18.3-.32.39-.14.09-.34.16-.58.21-.24.04-.56.08-.95.1,0-.15-.01-.28-.06-.38-.05-.1-.12-.2-.23-.31.33.03.6.04.81.04.21,0,.38-.04.51-.1s.23-.15.29-.26c.07-.12.12-.27.16-.46.02-.1.04-.26.07-.46.03-.21.05-.43.08-.67.02-.24.04-.49.05-.74.01-.25.02-.47.02-.66h-2.4c-.27,0-.54,0-.8.02s-.46.04-.6.07c.06-.27.12-.57.17-.88.05-.31.09-.62.12-.92.03-.3.05-.59.06-.86,0-.27,0-.5,0-.7.12.03.24.06.37.08s.25.03.35.02c.07,0,.1.01.11.05,0,.04-.03.1-.12.17-.03.02-.05.06-.07.11-.02.05-.05.17-.08.33-.03.17-.06.41-.1.73-.04.32-.08.75-.13,1.29h2.06l.39-3.2Z"/>
  </g>
  <g>
    <path d="M615.29,60.07c.09.03.19.06.28.11.1.05.21.1.34.18.33.18.74.32,1.24.41.49.09,1.03.15,1.59.17.57.02,1.15,0,1.75-.03.6-.04,1.17-.11,1.71-.21-.16.25-.26.52-.3.82-.65.03-1.23.04-1.73.05-.5,0-.95,0-1.34,0-.39-.01-.74-.04-1.03-.07s-.57-.08-.81-.13c-.24-.05-.47-.12-.68-.2-.21-.08-.42-.18-.62-.29-.19-.1-.35-.16-.5-.2-.14-.04-.29-.03-.43.02s-.3.14-.47.28c-.17.14-.37.33-.6.58-.08-.16-.17-.28-.27-.38-.09-.1-.18-.17-.27-.21.38-.29.69-.51.94-.64s.45-.22.59-.26v-3.26c-.14,0-.28,0-.43,0-.15,0-.3,0-.44.01-.14,0-.27.01-.38.02-.11,0-.2.02-.26.02v-.65c.13.02.29.04.49.05.19.01.39.02.58.02.17,0,.37,0,.59-.01s.39-.03.53-.05c-.03.17-.04.34-.05.51s-.01.39-.01.65v2.7ZM615.07,55.44c-.21-.36-.43-.69-.66-.99-.23-.31-.47-.57-.7-.79l.5-.4c.25.25.5.52.75.83.25.31.48.63.7.95l-.58.4ZM618.75,54.27c-.61,0-1.15,0-1.6.02s-.84.03-1.15.06v-.66c.34.03.75.04,1.23.06.48.01,1.03.02,1.66.02.42,0,.78,0,1.07,0,.29,0,.54,0,.76-.01.21,0,.39-.01.54-.02s.29-.02.43-.03v.66c-.23-.03-.54-.05-.93-.06s-.84-.02-1.35-.02c-.07.21-.15.41-.22.6-.08.2-.16.38-.25.57v3.55c0,.28,0,.54.01.77,0,.23.03.48.06.74h-.75c.03-.27.06-.52.07-.75s.02-.49.02-.77v-2.58c-.3.43-.63.83-1,1.2-.37.37-.77.75-1.2,1.12-.06-.09-.13-.18-.21-.25-.08-.08-.2-.16-.33-.25.38-.21.73-.47,1.07-.76.33-.29.64-.61.91-.95.27-.34.51-.7.71-1.08s.36-.77.47-1.16ZM621.38,58.64c-.23-.41-.49-.8-.8-1.17-.31-.37-.67-.76-1.1-1.15l.44-.42c.44.46.82.87,1.14,1.23.32.37.61.73.87,1.08l-.55.43Z"/>
    <path d="M631.5,54.06c-.09,0-.22-.01-.38-.02s-.38-.02-.65-.02c-.27,0-.6-.01-.98-.01-.39,0-.85,0-1.39,0h-3.25c0,.83,0,1.54,0,2.15,0,.61-.01,1.14-.03,1.6s-.05.86-.09,1.2c-.04.34-.1.66-.17.94-.08.29-.17.56-.28.83-.11.27-.25.56-.41.88-.15-.08-.27-.14-.37-.17-.1-.03-.22-.05-.37-.06.2-.29.36-.55.49-.8.13-.25.25-.52.34-.79.09-.28.16-.59.21-.95.05-.35.08-.77.1-1.26.02-.49.02-1.07.02-1.73,0-.66-.01-1.45-.03-2.37.08.01.22.02.41.03.18,0,.43.01.73.02.3,0,.67,0,1.1,0h2.97c.41,0,.75,0,1.03,0,.28,0,.5-.01.66-.02.16,0,.29-.02.38-.03v.6ZM626.88,59.17c.07.03.11.08.12.13,0,.05-.03.1-.1.12-.08.03-.16.08-.23.14-.07.06-.15.15-.23.28-.12.17-.28.38-.49.63-.21.24-.45.51-.73.79-.08-.14-.17-.24-.26-.3-.09-.07-.23-.11-.39-.15.17-.1.35-.23.54-.38s.37-.33.54-.52c.17-.19.33-.37.46-.56.13-.19.23-.36.29-.52.09.09.18.16.26.21s.16.09.24.12ZM627.2,55.16c.12-.19.22-.38.28-.56.06-.17.1-.36.11-.55.12.06.23.11.35.14.11.04.2.06.25.06.06,0,.1.04.11.1s-.03.12-.12.16c-.05.03-.12.1-.2.21-.08.11-.16.25-.24.42h1.22c.53,0,.95,0,1.26-.01.32,0,.55-.02.7-.04-.01.1-.02.2-.03.28,0,.08-.02.17-.02.26,0,.09-.01.18-.01.28,0,.1,0,.22,0,.35v1.03c0,.25,0,.48.02.71.02.23.03.41.05.54-.17-.03-.44-.05-.79-.06-.35-.02-.84-.02-1.47-.02v2.48c0,.16-.02.28-.05.38s-.11.18-.22.25c-.12.06-.29.11-.51.15-.22.03-.52.05-.9.06.03-.14.03-.28-.01-.41-.04-.13-.13-.24-.26-.34.27.05.48.08.65.1.17.01.3,0,.4-.01.1-.02.16-.07.2-.13.04-.06.05-.14.05-.24v-2.28c-.36,0-.68,0-.94,0-.26,0-.48,0-.66.01-.18,0-.33.01-.46.02-.12,0-.23.02-.32.04.02-.13.04-.3.05-.5.01-.21.02-.45.02-.75v-1.03c0-.26,0-.48-.01-.66s-.03-.35-.05-.51c.25.03.78.04,1.57.06ZM630.18,55.59h-3.86v.99h3.86v-.99ZM630.18,57.06h-3.86v.98h3.86v-.98ZM631.32,61.09c-.17-.18-.33-.33-.48-.48-.15-.14-.31-.28-.47-.41-.16-.13-.34-.26-.52-.39s-.39-.27-.63-.43l.34-.45c.21.14.42.27.6.4.19.13.37.26.55.39.17.13.35.27.53.41.18.14.36.3.56.47l-.47.5Z"/>
  </g>
  <g>
    <path d="M256.22,142.08c1.12-.11,1.19-.24,1.19-1.04v-4.59c0-.52-.05-.6-.61-.66l-.52-.06v-.18c.74-.13,1.34-.35,1.72-.59v6.08c0,.8.08.94,1.2,1.04v.17h-2.97v-.17Z"/>
    <path d="M265.43,138.67c0,1.68-.64,3.72-2.27,3.72s-2.31-2.04-2.31-3.72.66-3.71,2.31-3.71,2.27,2.11,2.27,3.71ZM263.17,135.24c-1.28,0-1.62,1.78-1.62,3.44s.34,3.44,1.63,3.44,1.58-1.81,1.58-3.44-.35-3.44-1.58-3.44h-.01Z"/>
  </g>
</svg>