<?xml version="1.0" encoding="UTF-8"?>
<svg id="_图层_1" data-name="图层 1" xmlns="http://www.w3.org/2000/svg" viewBox="0 0 349.62 229.96">
  <defs>
    <style>
      .cls-1, .cls-2, .cls-3, .cls-4 {
        fill-rule: evenodd;
      }

      .cls-1, .cls-4 {
        fill: #e7211a;
      }

      .cls-2, .cls-5 {
        fill: #416db4;
      }

      .cls-6, .cls-7, .cls-8, .cls-4, .cls-9 {
        stroke-miterlimit: 8;
      }

      .cls-6, .cls-7, .cls-8, .cls-9 {
        fill: none;
      }

      .cls-6, .cls-8 {
        stroke-width: 3px;
      }

      .cls-6, .cls-4 {
        stroke: #cc9fc7;
      }

      .cls-7 {
        stroke-dasharray: 5.33 4;
        stroke-width: 1.33px;
      }

      .cls-7, .cls-8, .cls-9 {
        stroke: #040000;
      }

      .cls-3 {
        fill: #b2c3e2;
      }

      .cls-8 {
        stroke-dasharray: 9 3;
        stroke-linecap: square;
      }

      .cls-4, .cls-9 {
        stroke-width: 2px;
      }

      .cls-10 {
        fill: #040000;
        font-family: DengXian, DengXian;
        font-size: 18.67px;
        isolation: isolate;
      }
    </style>
  </defs>
  <path class="cls-3" d="M164.12,32.67c0-5.25,4.48-9.5,10-9.5s10,4.25,10,9.5-4.48,9.5-10,9.5-10-4.25-10-9.5Z"/>
  <path class="cls-4" d="M140.62,14.17c13.77,0,24.93,11.13,24.93,24.87,0,3.43-.7,6.7-1.96,9.68l-5.13,7.59,2.93,2.41,3.83,5.66,4.78-.48c6.88,0,13.12,2.78,17.63,7.28l4.44,6.57.23-.19c4.69-3.16,10.34-5,16.43-5,16.23,0,29.38,13.12,29.38,29.3s-13.16,29.31-29.38,29.31c-12.17,0-22.61-7.38-27.07-17.9l-.48-2.39-1.47.8c-2.98,1.26-6.26,1.95-9.7,1.95-6.89,0-13.12-2.78-17.63-7.28l-.04-.06-.28.15c-3.51,1.48-7.38,2.3-11.44,2.3s-7.92-.82-11.44-2.3l-2.97-1.61-1.36,6.7c-3.78,8.93-12.65,15.19-22.97,15.19-6.88,0-13.12-2.78-17.63-7.28l-1.49-2.21-4.34,1.34c-1.91.39-3.89.6-5.92.6-16.23,0-29.38-13.12-29.38-29.3s13.16-29.31,29.38-29.31c10.14,0,19.08,5.13,24.36,12.92l2.07,3.81,2.95-.3c1.72,0,3.4.17,5.03.51l4.44,1.37,2.2-10.85c1.12-2.63,2.6-5.06,4.4-7.23l4.88-4.42-5.18-7.66c-1.26-2.98-1.96-6.25-1.96-9.68,0-13.73,11.16-24.87,24.93-24.87Z"/>
  <path class="cls-2" d="M163.12,54.67c0-5.25,4.25-9.5,9.5-9.5s9.5,4.25,9.5,9.5-4.25,9.5-9.5,9.5-9.5-4.25-9.5-9.5Z"/>
  <path class="cls-7" d="M141.29,9.67c16.2,0,29.33,13.09,29.33,29.23,0,4.04-.82,7.88-2.3,11.38l-.65,1.19,3.18,2.6c1.75,1.73,3.33,3.62,4.72,5.66l.42.77,2.65.27c3.34.68,6.48,1.93,9.3,3.64l6.72,5.8,1.63-.88c4.33-1.83,9.1-2.84,14.1-2.84,20,0,36.22,16.16,36.22,36.09s-16.22,36.1-36.22,36.1c-12.5,0-23.53-6.31-30.04-15.91l-2.53-4.64-5.1.51c-4.05,0-7.91-.82-11.42-2.3l-1.39-.75-1.36.73c-4.63,1.93-9.71,3-15.05,3-2.67,0-5.28-.27-7.79-.78l-6.27-1.93-.75,1.37c-5.65,8.33-15.22,13.81-26.07,13.81-6.51,0-12.56-1.97-17.58-5.35l-3.38-2.78-3.51,1.09c-2.36.48-4.8.73-7.3.73-20,0-36.22-16.16-36.22-36.1s16.22-36.09,36.22-36.09c12.5,0,23.53,6.31,30.04,15.91l.05.09,1.69-.17,4.21.42,1.05-3.34c1.96-4.57,4.79-8.69,8.29-12.15l.11-.09-2.02-3.7c-1.49-3.5-2.31-7.34-2.31-11.38,0-16.14,13.13-29.23,29.33-29.23Z"/>
  <path class="cls-5" d="M182.64,55.01l4.71-.25,4.58-.7,4.28-1.09,3.85-1.42,3.26-1.69,2.54-1.9,1.67-2.07.61-2.2-.58-2.2-1.59-2.07-2.42-1.9-3.11-1.69-3.67-1.42-4.09-1.1-2.2-.27-.08.66,2.18.27h-.04s4.05,1.08,4.05,1.08h-.03s3.63,1.4,3.63,1.4l-.04-.02,3.07,1.67-.05-.03,2.37,1.86-.06-.06,1.52,1.99-.06-.12.54,2.05v-.17s-.56,2.05-.56,2.05l.06-.12-1.6,1.99.06-.06-2.48,1.86.05-.03-3.22,1.67.04-.02-3.81,1.41h.03s-4.25,1.07-4.25,1.07h.03s-4.55.69-4.55.69h.03s-4.69.24-4.69.24l.04.67ZM192.15,29.5l-8.36,3.17,7.56,4.79.81-7.96Z"/>
  <path class="cls-9" d="M70.12,90.17l31,15.5"/>
  <path class="cls-9" d="M101.12,106.17l39.33-25"/>
  <path class="cls-9" d="M140.12,80.67l.67-43.5"/>
  <path class="cls-9" d="M140.12,81.17l32.83,9.5"/>
  <path class="cls-9" d="M173.12,90.17l35.33,15.5"/>
  <path class="cls-6" d="M10.62,167.67h57.67"/>
  <path class="cls-2" d="M189.12,204.67c0-5.25,4.25-9.5,9.5-9.5s9.5,4.25,9.5,9.5-4.25,9.5-9.5,9.5-9.5-4.25-9.5-9.5Z"/>
  <path class="cls-8" d="M190.62,167.67h55.5"/>
  <path class="cls-1" d="M29.12,204.67c0-5.25,4.25-9.5,9.5-9.5s9.5,4.25,9.5,9.5-4.25,9.5-9.5,9.5-9.5-4.25-9.5-9.5Z"/>
  <text class="cls-10" transform="translate(76.99 172.17)"><tspan x="0" y="0">范德华表面</tspan></text>
  <text class="cls-10" transform="translate(76.99 213.17)"><tspan x="0" y="0">体系</tspan></text>
  <text class="cls-10" transform="translate(114.32 213.17)"><tspan x="0" y="0">原子</tspan></text>
  <text class="cls-10" transform="translate(258.44 213.17)"><tspan x="0" y="0">溶剂原子</tspan></text>
  <text class="cls-10" transform="translate(258.44 172.17)"><tspan x="0" y="0">SASA</tspan></text>
  <text class="cls-10" transform="translate(301.44 172.17)"><tspan x="0" y="0">表面</tspan></text>
</svg>