<?xml version="1.0" encoding="UTF-8"?>
<svg id="_图层_1" data-name="图层 1" xmlns="http://www.w3.org/2000/svg" viewBox="0 0 329.16 140.31">
  <defs>
    <style>
      .cls-1 {
        fill: #d8e1f2;
      }

      .cls-1, .cls-2, .cls-3, .cls-4, .cls-5, .cls-6 {
        stroke: #162c4f;
        stroke-miterlimit: 8;
      }

      .cls-7, .cls-8, .cls-9, .cls-10, .cls-11 {
        fill: #040000;
      }

      .cls-2 {
        fill: #2e528f;
      }

      .cls-3 {
        fill: #8da5d3;
      }

      .cls-4 {
        fill: #b2c3e2;
      }

      .cls-12 {
        fill: #afabab;
      }

      .cls-12, .cls-8 {
        fill-rule: evenodd;
      }

      .cls-9 {
        font-size: 6.43px;
      }

      .cls-9, .cls-10, .cls-11 {
        font-family: DengXian, DengXian;
        isolation: isolate;
      }

      .cls-10 {
        font-size: 5.51px;
      }

      .cls-5 {
        fill: #fff;
      }

      .cls-6 {
        fill: #dde9f5;
      }

      .cls-11 {
        font-size: 8.27px;
      }
    </style>
  </defs>
  <path class="cls-7" d="M17.49,120.81h109.65v.46H17.49v-.46ZM126.68,119.66l2.76,1.38-2.76,1.38v-2.76Z"/>
  <path class="cls-7" d="M27.37,133.38V25.48s-.46,0-.46,0v107.9s.46,0,.46,0ZM28.52,25.94l-1.38-2.76-1.38,2.76h2.76Z"/>
  <text class="cls-9" transform="translate(4.8 72.28)"><tspan x="0" y="0">Rg</tspan></text>
  <text class="cls-9" transform="translate(65.87 134.65)"><tspan x="0" y="0">RMSD</tspan></text>
  <rect class="cls-5" x="28.86" y="103.12" width="16.19" height="16.19"/>
  <rect class="cls-5" x="45.06" y="103.12" width="15.85" height="16.19"/>
  <rect class="cls-5" x="60.91" y="103.12" width="16.19" height="16.19"/>
  <rect class="cls-5" x="77.1" y="103.12" width="15.85" height="16.19"/>
  <rect class="cls-5" x="92.95" y="103.12" width="16.19" height="16.19"/>
  <rect class="cls-5" x="109.15" y="103.12" width="15.85" height="16.19"/>
  <rect class="cls-5" x="28.86" y="87.27" width="16.19" height="15.85"/>
  <rect class="cls-5" x="45.06" y="87.27" width="15.85" height="15.85"/>
  <rect class="cls-5" x="60.91" y="87.27" width="16.19" height="15.85"/>
  <rect class="cls-5" x="77.1" y="87.27" width="15.85" height="15.85"/>
  <rect class="cls-5" x="92.95" y="87.27" width="16.19" height="15.85"/>
  <rect class="cls-5" x="109.15" y="87.27" width="15.85" height="15.85"/>
  <rect class="cls-5" x="28.86" y="71.08" width="16.19" height="16.19"/>
  <rect class="cls-5" x="45.06" y="71.08" width="15.85" height="16.19"/>
  <rect class="cls-5" x="60.91" y="71.08" width="16.19" height="16.19"/>
  <rect class="cls-5" x="77.1" y="71.08" width="15.85" height="16.19"/>
  <rect class="cls-5" x="92.95" y="71.08" width="16.19" height="16.19"/>
  <rect class="cls-5" x="109.15" y="71.08" width="15.85" height="16.19"/>
  <rect class="cls-5" x="28.86" y="55.23" width="16.19" height="15.85"/>
  <rect class="cls-5" x="45.06" y="55.23" width="15.85" height="15.85"/>
  <rect class="cls-5" x="60.91" y="55.23" width="16.19" height="15.85"/>
  <rect class="cls-5" x="77.1" y="55.23" width="15.85" height="15.85"/>
  <rect class="cls-5" x="92.95" y="55.23" width="16.19" height="15.85"/>
  <rect class="cls-5" x="109.15" y="55.23" width="15.85" height="15.85"/>
  <rect class="cls-5" x="28.86" y="39.03" width="16.19" height="16.19"/>
  <rect class="cls-5" x="45.06" y="39.03" width="15.85" height="16.19"/>
  <rect class="cls-5" x="60.91" y="39.03" width="16.19" height="16.19"/>
  <rect class="cls-5" x="77.1" y="39.03" width="15.85" height="16.19"/>
  <rect class="cls-5" x="92.95" y="39.03" width="16.19" height="16.19"/>
  <rect class="cls-5" x="109.15" y="39.03" width="15.85" height="16.19"/>
  <rect class="cls-5" x="28.86" y="23.18" width="16.19" height="15.85"/>
  <rect class="cls-5" x="45.06" y="23.18" width="15.85" height="15.85"/>
  <rect class="cls-5" x="60.91" y="23.18" width="16.19" height="15.85"/>
  <rect class="cls-5" x="77.1" y="23.18" width="15.85" height="15.85"/>
  <rect class="cls-5" x="92.95" y="23.18" width="16.19" height="15.85"/>
  <rect class="cls-5" x="109.15" y="23.18" width="15.85" height="15.85"/>
  <path class="cls-12" d="M95.19,76.59c0-.67.54-1.21,1.21-1.21s1.21.54,1.21,1.21-.54,1.21-1.21,1.21-1.21-.54-1.21-1.21Z"/>
  <path class="cls-12" d="M98.29,110.7c0-.67.62-1.21,1.38-1.21s1.38.54,1.38,1.21-.62,1.21-1.38,1.21-1.38-.54-1.38-1.21Z"/>
  <path class="cls-12" d="M99.67,107.95c0-.67.54-1.21,1.21-1.21s1.21.54,1.21,1.21-.54,1.21-1.21,1.21-1.21-.54-1.21-1.21Z"/>
  <path class="cls-12" d="M102.77,110.7c0-.67.54-1.21,1.21-1.21s1.21.54,1.21,1.21-.54,1.21-1.21,1.21-1.21-.54-1.21-1.21Z"/>
  <path class="cls-12" d="M101.39,105.88c0-.67.62-1.21,1.38-1.21s1.38.54,1.38,1.21-.62,1.21-1.38,1.21-1.38-.54-1.38-1.21Z"/>
  <path class="cls-12" d="M104.49,108.63c0-.67.62-1.21,1.38-1.21s1.38.54,1.38,1.21-.62,1.21-1.38,1.21-1.38-.54-1.38-1.21Z"/>
  <path class="cls-12" d="M94.85,112.42c0-.67.54-1.21,1.21-1.21s1.21.54,1.21,1.21-.54,1.21-1.21,1.21-1.21-.54-1.21-1.21Z"/>
  <path class="cls-12" d="M97.95,115.18c0-.67.54-1.21,1.21-1.21s1.21.54,1.21,1.21-.54,1.21-1.21,1.21-1.21-.54-1.21-1.21Z"/>
  <path class="cls-12" d="M95.54,91.06c0-.67.54-1.21,1.21-1.21s1.21.54,1.21,1.21-.54,1.21-1.21,1.21-1.21-.54-1.21-1.21Z"/>
  <path class="cls-12" d="M98.64,91.92c0-.76.54-1.38,1.21-1.38s1.21.62,1.21,1.38-.54,1.38-1.21,1.38-1.21-.62-1.21-1.38Z"/>
  <path class="cls-12" d="M95.88,95.54c0-.67.54-1.21,1.21-1.21s1.21.54,1.21,1.21-.54,1.21-1.21,1.21-1.21-.54-1.21-1.21Z"/>
  <path class="cls-12" d="M98.98,76.76c0-.76.54-1.38,1.21-1.38s1.21.62,1.21,1.38-.54,1.38-1.21,1.38-1.21-.62-1.21-1.38Z"/>
  <path class="cls-12" d="M104.49,76.76c0-.76.62-1.38,1.38-1.38s1.38.62,1.38,1.38-.62,1.38-1.38,1.38-1.38-.62-1.38-1.38Z"/>
  <path class="cls-12" d="M98.29,80.73c0-.67.62-1.21,1.38-1.21s1.38.54,1.38,1.21-.62,1.21-1.38,1.21-1.38-.54-1.38-1.21Z"/>
  <path class="cls-12" d="M94.85,57.81c0-.76.62-1.38,1.38-1.38s1.38.62,1.38,1.38-.62,1.38-1.38,1.38-1.38-.62-1.38-1.38Z"/>
  <path class="cls-12" d="M100.7,58.67c0-.67.54-1.21,1.21-1.21s1.21.54,1.21,1.21-.54,1.21-1.21,1.21-1.21-.54-1.21-1.21Z"/>
  <path class="cls-12" d="M97.26,60.91c0-.76.54-1.38,1.21-1.38s1.21.62,1.21,1.38-.54,1.38-1.21,1.38-1.21-.62-1.21-1.38Z"/>
  <path class="cls-12" d="M100.7,63.5c0-.67.62-1.21,1.38-1.21s1.38.54,1.38,1.21-.62,1.21-1.38,1.21-1.38-.54-1.38-1.21Z"/>
  <path class="cls-12" d="M96.57,66.08c0-.76.54-1.38,1.21-1.38s1.21.62,1.21,1.38-.54,1.38-1.21,1.38-1.21-.62-1.21-1.38Z"/>
  <path class="cls-12" d="M94.16,45.24c0-.67.54-1.21,1.21-1.21s1.21.54,1.21,1.21-.54,1.21-1.21,1.21-1.21-.54-1.21-1.21Z"/>
  <path class="cls-12" d="M98.98,45.24c0-.67.62-1.21,1.38-1.21s1.38.54,1.38,1.21-.62,1.21-1.38,1.21-1.38-.54-1.38-1.21Z"/>
  <path class="cls-12" d="M97.95,32.14c0-.67.54-1.21,1.21-1.21s1.21.54,1.21,1.21-.54,1.21-1.21,1.21-1.21-.54-1.21-1.21Z"/>
  <path class="cls-12" d="M83.13,33.35c0-.76.62-1.38,1.38-1.38s1.38.62,1.38,1.38-.62,1.38-1.38,1.38-1.38-.62-1.38-1.38Z"/>
  <path class="cls-12" d="M81.41,29.56c0-.76.54-1.38,1.21-1.38s1.21.62,1.21,1.38-.54,1.38-1.21,1.38-1.21-.62-1.21-1.38Z"/>
  <path class="cls-12" d="M112.07,30.25c0-.76.54-1.38,1.21-1.38s1.21.62,1.21,1.38-.54,1.38-1.21,1.38-1.21-.62-1.21-1.38Z"/>
  <path class="cls-12" d="M115.52,47.65c0-.67.62-1.21,1.38-1.21s1.38.54,1.38,1.21-.62,1.21-1.38,1.21-1.38-.54-1.38-1.21Z"/>
  <path class="cls-12" d="M118.62,44.89c0-.67.62-1.21,1.38-1.21s1.38.54,1.38,1.21-.62,1.21-1.38,1.21-1.38-.54-1.38-1.21Z"/>
  <path class="cls-12" d="M113.8,42.82c0-.67.54-1.21,1.21-1.21s1.21.54,1.21,1.21-.54,1.21-1.21,1.21-1.21-.54-1.21-1.21Z"/>
  <path class="cls-12" d="M112.42,62.64c0-.76.54-1.38,1.21-1.38s1.21.62,1.21,1.38-.54,1.38-1.21,1.38-1.21-.62-1.21-1.38Z"/>
  <path class="cls-12" d="M117.59,61.09c0-.67.54-1.21,1.21-1.21s1.21.54,1.21,1.21-.54,1.21-1.21,1.21-1.21-.54-1.21-1.21Z"/>
  <path class="cls-12" d="M113.8,76.25c0-.67.62-1.21,1.38-1.21s1.38.54,1.38,1.21-.62,1.21-1.38,1.21-1.38-.54-1.38-1.21Z"/>
  <path class="cls-12" d="M117.24,95.02c0-.76.54-1.38,1.21-1.38s1.21.62,1.21,1.38-.54,1.38-1.21,1.38-1.21-.62-1.21-1.38Z"/>
  <path class="cls-12" d="M114.14,93.82c0-.67.54-1.21,1.21-1.21s1.21.54,1.21,1.21-.54,1.21-1.21,1.21-1.21-.54-1.21-1.21Z"/>
  <path class="cls-12" d="M66.25,95.2c0-.67.54-1.21,1.21-1.21s1.21.54,1.21,1.21-.54,1.21-1.21,1.21-1.21-.54-1.21-1.21Z"/>
  <path class="cls-12" d="M83.48,109.32c0-.67.62-1.21,1.38-1.21s1.38.54,1.38,1.21-.62,1.21-1.38,1.21-1.38-.54-1.38-1.21Z"/>
  <path class="cls-12" d="M73.14,100.71c0-.67.54-1.21,1.21-1.21s1.21.54,1.21,1.21-.54,1.21-1.21,1.21-1.21-.54-1.21-1.21Z"/>
  <path class="cls-12" d="M69.35,90.37c0-.67.54-1.21,1.21-1.21s1.21.54,1.21,1.21-.54,1.21-1.21,1.21-1.21-.54-1.21-1.21Z"/>
  <path class="cls-12" d="M80.03,94.85c0-.67.54-1.21,1.21-1.21s1.21.54,1.21,1.21-.54,1.21-1.21,1.21-1.21-.54-1.21-1.21Z"/>
  <path class="cls-12" d="M62.46,96.92c0-.67.62-1.21,1.38-1.21s1.38.54,1.38,1.21-.62,1.21-1.38,1.21-1.38-.54-1.38-1.21Z"/>
  <path class="cls-12" d="M65.56,99.68c0-.67.62-1.21,1.38-1.21s1.38.54,1.38,1.21-.62,1.21-1.38,1.21-1.38-.54-1.38-1.21Z"/>
  <path class="cls-12" d="M65.56,79.86c0-.76.54-1.38,1.21-1.38s1.21.62,1.21,1.38-.54,1.38-1.21,1.38-1.21-.62-1.21-1.38Z"/>
  <path class="cls-12" d="M66.94,76.94c0-.67.54-1.21,1.21-1.21s1.21.54,1.21,1.21-.54,1.21-1.21,1.21-1.21-.54-1.21-1.21Z"/>
  <path class="cls-12" d="M70.04,79.69c0-.67.54-1.21,1.21-1.21s1.21.54,1.21,1.21-.54,1.21-1.21,1.21-1.21-.54-1.21-1.21Z"/>
  <path class="cls-12" d="M68.66,74.87c0-.67.54-1.21,1.21-1.21s1.21.54,1.21,1.21-.54,1.21-1.21,1.21-1.21-.54-1.21-1.21Z"/>
  <path class="cls-12" d="M71.76,77.62c0-.67.54-1.21,1.21-1.21s1.21.54,1.21,1.21-.54,1.21-1.21,1.21-1.21-.54-1.21-1.21Z"/>
  <path class="cls-12" d="M62.11,81.41c0-.67.54-1.21,1.21-1.21s1.21.54,1.21,1.21-.54,1.21-1.21,1.21-1.21-.54-1.21-1.21Z"/>
  <path class="cls-12" d="M65.21,84.17c0-.67.54-1.21,1.21-1.21s1.21.54,1.21,1.21-.54,1.21-1.21,1.21-1.21-.54-1.21-1.21Z"/>
  <path class="cls-12" d="M50.05,64.19c0-.67.54-1.21,1.21-1.21s1.21.54,1.21,1.21-.54,1.21-1.21,1.21-1.21-.54-1.21-1.21Z"/>
  <path class="cls-12" d="M51.09,61.43c0-.67.62-1.21,1.38-1.21s1.38.54,1.38,1.21-.62,1.21-1.38,1.21-1.38-.54-1.38-1.21Z"/>
  <path class="cls-12" d="M54.19,64.19c0-.67.62-1.21,1.38-1.21s1.38.54,1.38,1.21-.62,1.21-1.38,1.21-1.38-.54-1.38-1.21Z"/>
  <path class="cls-12" d="M53.16,59.36c0-.67.54-1.21,1.21-1.21s1.21.54,1.21,1.21-.54,1.21-1.21,1.21-1.21-.54-1.21-1.21Z"/>
  <path class="cls-12" d="M56.26,62.12c0-.67.54-1.21,1.21-1.21s1.21.54,1.21,1.21-.54,1.21-1.21,1.21-1.21-.54-1.21-1.21Z"/>
  <path class="cls-12" d="M46.26,65.91c0-.67.54-1.21,1.21-1.21s1.21.54,1.21,1.21-.54,1.21-1.21,1.21-1.21-.54-1.21-1.21Z"/>
  <path class="cls-12" d="M49.36,68.67c0-.67.54-1.21,1.21-1.21s1.21.54,1.21,1.21-.54,1.21-1.21,1.21-1.21-.54-1.21-1.21Z"/>
  <path class="cls-12" d="M34.2,95.02c0-.76.54-1.38,1.21-1.38s1.21.62,1.21,1.38-.54,1.38-1.21,1.38-1.21-.62-1.21-1.38Z"/>
  <path class="cls-12" d="M35.24,92.1c0-.67.62-1.21,1.38-1.21s1.38.54,1.38,1.21-.62,1.21-1.38,1.21-1.38-.54-1.38-1.21Z"/>
  <path class="cls-12" d="M38.34,95.02c0-.76.62-1.38,1.38-1.38s1.38.62,1.38,1.38-.62,1.38-1.38,1.38-1.38-.62-1.38-1.38Z"/>
  <path class="cls-12" d="M37.31,90.03c0-.67.54-1.21,1.21-1.21s1.21.54,1.21,1.21-.54,1.21-1.21,1.21-1.21-.54-1.21-1.21Z"/>
  <path class="cls-12" d="M40.41,92.96c0-.76.54-1.38,1.21-1.38s1.21.62,1.21,1.38-.54,1.38-1.21,1.38-1.21-.62-1.21-1.38Z"/>
  <path class="cls-12" d="M30.41,96.58c0-.67.62-1.21,1.38-1.21s1.38.54,1.38,1.21-.62,1.21-1.38,1.21-1.38-.54-1.38-1.21Z"/>
  <path class="cls-12" d="M33.52,99.33c0-.67.62-1.21,1.38-1.21s1.38.54,1.38,1.21-.62,1.21-1.38,1.21-1.38-.54-1.38-1.21Z"/>
  <path class="cls-12" d="M84.85,91.75c0-.67.54-1.21,1.21-1.21s1.21.54,1.21,1.21-.54,1.21-1.21,1.21-1.21-.54-1.21-1.21Z"/>
  <path class="cls-12" d="M80.03,76.59c0-.67.54-1.21,1.21-1.21s1.21.54,1.21,1.21-.54,1.21-1.21,1.21-1.21-.54-1.21-1.21Z"/>
  <path class="cls-12" d="M86.58,79c0-.67.54-1.21,1.21-1.21s1.21.54,1.21,1.21-.54,1.21-1.21,1.21-1.21-.54-1.21-1.21Z"/>
  <path class="cls-12" d="M82.1,61.09c0-.67.54-1.21,1.21-1.21s1.21.54,1.21,1.21-.54,1.21-1.21,1.21-1.21-.54-1.21-1.21Z"/>
  <path class="cls-12" d="M67.28,62.46c0-.67.62-1.21,1.38-1.21s1.38.54,1.38,1.21-.62,1.21-1.38,1.21-1.38-.54-1.38-1.21Z"/>
  <path class="cls-12" d="M71.76,66.6c0-.67.54-1.21,1.21-1.21s1.21.54,1.21,1.21-.54,1.21-1.21,1.21-1.21-.54-1.21-1.21Z"/>
  <path class="cls-12" d="M84.51,64.53c0-.67.54-1.21,1.21-1.21s1.21.54,1.21,1.21-.54,1.21-1.21,1.21-1.21-.54-1.21-1.21Z"/>
  <text class="cls-10" transform="translate(28.1 127.41)"><tspan x="0" y="0">0.28</tspan></text>
  <text class="cls-10" transform="translate(57.45 127.41)"><tspan x="0" y="0">0.32</tspan></text>
  <text class="cls-10" transform="translate(87.25 127.41)"><tspan x="0" y="0">0.36</tspan></text>
  <text class="cls-10" transform="translate(119.46 127.41)"><tspan x="0" y="0">0.39</tspan></text>
  <text class="cls-10" transform="translate(13.05 116.73)"><tspan x="0" y="0">1.37</tspan></text>
  <text class="cls-10" transform="translate(13.05 90.2)"><tspan x="0" y="0">1.38</tspan></text>
  <text class="cls-10" transform="translate(13.05 57.12)"><tspan x="0" y="0">1.40</tspan></text>
  <text class="cls-10" transform="translate(13.05 26.11)"><tspan x="0" y="0">1.41</tspan></text>
  <path class="cls-7" d="M213.2,120.81h109.65v.46h-109.65v-.46ZM322.39,119.66l2.76,1.38-2.76,1.38v-2.76Z"/>
  <path class="cls-7" d="M223.08,133.38V25.48s-.46,0-.46,0v107.9s.46,0,.46,0ZM224.23,25.94l-1.38-2.76-1.38,2.76h2.76Z"/>
  <text class="cls-9" transform="translate(200.51 72.28)"><tspan x="0" y="0">Rg</tspan></text>
  <text class="cls-9" transform="translate(261.58 134.65)"><tspan x="0" y="0">RMSD</tspan></text>
  <rect class="cls-5" x="224.57" y="103.12" width="16.19" height="16.19"/>
  <rect class="cls-5" x="240.77" y="103.12" width="15.85" height="16.19"/>
  <rect class="cls-5" x="256.62" y="103.12" width="16.19" height="16.19"/>
  <rect class="cls-6" x="272.81" y="103.12" width="15.85" height="16.19"/>
  <rect class="cls-2" x="288.66" y="103.12" width="16.19" height="16.19"/>
  <rect class="cls-5" x="304.85" y="103.12" width="15.85" height="16.19"/>
  <rect class="cls-2" x="224.57" y="87.27" width="16.19" height="15.85"/>
  <rect class="cls-5" x="240.77" y="87.27" width="15.85" height="15.85"/>
  <rect class="cls-5" x="240.77" y="71.25" width="15.85" height="15.85"/>
  <rect class="cls-3" x="256.62" y="87.27" width="16.19" height="15.85"/>
  <rect class="cls-1" x="272.81" y="87.27" width="15.85" height="15.85"/>
  <rect class="cls-4" x="288.66" y="87.27" width="16.19" height="15.85"/>
  <rect class="cls-1" x="304.85" y="87.27" width="15.85" height="15.85"/>
  <rect class="cls-5" x="224.57" y="71.08" width="16.19" height="16.19"/>
  <rect class="cls-2" x="256.62" y="71.08" width="16.19" height="16.19"/>
  <rect class="cls-1" x="272.81" y="71.08" width="15.85" height="16.19"/>
  <rect class="cls-4" x="288.66" y="71.08" width="16.19" height="16.19"/>
  <rect class="cls-6" x="304.85" y="71.08" width="15.85" height="16.19"/>
  <rect class="cls-5" x="224.57" y="55.23" width="16.19" height="15.85"/>
  <rect class="cls-3" x="240.77" y="55.23" width="15.85" height="15.85"/>
  <rect class="cls-1" x="256.62" y="55.23" width="16.19" height="15.85"/>
  <rect class="cls-1" x="272.81" y="55.23" width="15.85" height="15.85"/>
  <rect class="cls-3" x="288.66" y="55.23" width="16.19" height="15.85"/>
  <rect class="cls-1" x="304.85" y="55.23" width="15.85" height="15.85"/>
  <rect class="cls-5" x="224.57" y="39.03" width="16.19" height="16.19"/>
  <rect class="cls-5" x="240.77" y="39.03" width="15.85" height="16.19"/>
  <rect class="cls-5" x="256.62" y="39.03" width="16.19" height="16.19"/>
  <rect class="cls-5" x="272.81" y="39.03" width="15.85" height="16.19"/>
  <rect class="cls-1" x="288.66" y="39.03" width="16.19" height="16.19"/>
  <rect class="cls-4" x="304.85" y="39.03" width="15.85" height="16.19"/>
  <rect class="cls-5" x="224.57" y="23.18" width="16.19" height="15.85"/>
  <rect class="cls-5" x="240.77" y="23.18" width="15.85" height="15.85"/>
  <rect class="cls-5" x="256.62" y="23.18" width="16.19" height="15.85"/>
  <rect class="cls-1" x="272.81" y="23.18" width="15.85" height="15.85"/>
  <rect class="cls-6" x="288.66" y="23.18" width="16.19" height="15.85"/>
  <rect class="cls-6" x="304.85" y="23.18" width="15.85" height="15.85"/>
  <text class="cls-10" transform="translate(223.81 127.41)"><tspan x="0" y="0">0.28</tspan></text>
  <text class="cls-10" transform="translate(253.16 127.41)"><tspan x="0" y="0">0.32</tspan></text>
  <text class="cls-10" transform="translate(282.96 127.41)"><tspan x="0" y="0">0.36</tspan></text>
  <text class="cls-10" transform="translate(315.17 127.41)"><tspan x="0" y="0">0.39</tspan></text>
  <text class="cls-10" transform="translate(208.76 116.73)"><tspan x="0" y="0">1.37</tspan></text>
  <text class="cls-10" transform="translate(208.76 90.2)"><tspan x="0" y="0">1.38</tspan></text>
  <text class="cls-10" transform="translate(208.76 57.12)"><tspan x="0" y="0">1.40</tspan></text>
  <text class="cls-10" transform="translate(208.76 26.11)"><tspan x="0" y="0">1.41</tspan></text>
  <path class="cls-7" d="M139.29,80.21h47.87v.69h-47.87v-.69ZM186.71,79.18l2.76,1.38-2.76,1.38v-2.76Z"/>
  <text class="cls-11" transform="translate(51.56 13.02)"><tspan x="0" y="0">统计概率密度</tspan></text>
  <text class="cls-11" transform="translate(247.82 13.02)"><tspan x="0" y="0">计算自由能</tspan></text>
  <g>
    <path class="cls-8" d="M143.29,66.12c.25,0,.47.01.67.04s.43.08.67.16l-.24,1.04h-.37c-.02-.32-.09-.55-.21-.7s-.31-.21-.58-.21c-.22,0-.42.06-.61.17s-.37.28-.54.5-.32.5-.46.84-.24.69-.32,1.05-.11.71-.11,1.03c0,.4.07.7.21.88s.35.28.65.28c.11,0,.21-.01.33-.04s.22-.07.31-.13.18-.14.26-.24.13-.23.16-.38l.04-.18c.06-.24.09-.45.09-.62,0-.12-.03-.21-.09-.25s-.16-.08-.29-.08l.04-.19h1.55l-.04.19c-.1.02-.17.04-.21.07s-.08.07-.12.12-.07.13-.1.24-.08.29-.13.53l-.27,1.22-.31.09-.2-.31c-.27.13-.48.21-.64.25s-.31.06-.47.06c-.49,0-.86-.14-1.11-.42s-.38-.69-.38-1.22c0-.39.06-.82.19-1.3s.32-.91.56-1.29.55-.67.9-.88.74-.31,1.16-.31h0Z"/>
    <path class="cls-8" d="M148.1,69.75h4.78v.52h-4.78v-.52h0ZM148.1,68.14h4.78v.52h-4.78v-.52h0Z"/>
    <polygon class="cls-8" points="156.25 68.94 161.03 68.94 161.03 69.46 156.25 69.46 156.25 68.94 156.25 68.94"/>
    <path class="cls-8" d="M166.56,66.18h4.05l-.3,1.36h-.37c0-.25,0-.44-.02-.56s-.04-.22-.07-.29-.08-.11-.13-.14-.15-.04-.28-.04h-.57l-.84,3.82c-.02.1-.04.18-.05.24s-.02.12-.02.19,0,.12,0,.18c0,.08.01.14.04.19s.06.08.12.1.14.04.27.05l-.04.19h-1.63l.04-.19c.1-.02.18-.04.23-.06s.09-.07.13-.12.07-.14.11-.26.08-.29.13-.53l.83-3.8h-.49c-.16,0-.29.02-.38.07s-.19.13-.29.26-.21.34-.35.64h-.37l.29-1.31h0ZM163.62,65.93h.22l-.76,3.38h.12c.19,0,.41-.08.65-.25s.43-.33.58-.47.22-.28.22-.42c0-.13-.09-.2-.26-.21l.04-.19h1.26l.07.19c-.21.19-.44.38-.68.57l-.96.74.38,1.4c.03.12.06.2.08.26s.05.09.09.12.08.04.13.04c.07,0,.15-.04.24-.11s.2-.18.32-.31l.22.22c-.23.25-.43.42-.58.51s-.3.14-.44.14c-.18,0-.32-.05-.42-.15s-.18-.27-.24-.5l-.26-1.01c-.03-.1-.05-.17-.08-.21s-.06-.06-.09-.08-.09-.02-.18-.02h-.27l-.4,1.9h-.67l1-4.43c.03-.15.06-.27.07-.35s.02-.16.02-.22c0-.11-.03-.18-.1-.23s-.18-.07-.35-.07l.05-.2.98-.03h0Z"/>
    <path class="cls-8" d="M176.37,67.7c.16,0,.29.05.39.16s.14.25.14.42c0,.14-.03.29-.09.46l.05.02c.25-.36.49-.62.72-.79s.46-.26.71-.26.43.07.55.21.19.33.19.58c0,.16-.04.39-.11.69l-.25,1.02c-.07.28-.1.48-.1.6,0,.1.02.18.05.22s.09.07.16.07c.08,0,.16-.03.25-.09s.21-.18.37-.36l.22.22c-.22.24-.42.41-.58.52s-.35.16-.57.16c-.17,0-.3-.06-.4-.18s-.15-.27-.15-.46c0-.17.04-.41.13-.74l.17-.67c.06-.24.1-.42.12-.54s.03-.21.03-.28c0-.18-.03-.31-.09-.39s-.16-.12-.29-.12c-.11,0-.23.04-.35.13s-.26.22-.4.39-.25.34-.34.51-.16.37-.21.61l-.37,1.68h-.67l.57-2.46c.06-.25.09-.44.09-.57,0-.1-.02-.18-.05-.22s-.09-.07-.16-.07c-.08,0-.16.03-.25.1s-.21.19-.37.36l-.22-.22c.24-.25.44-.42.59-.53s.34-.16.53-.16h0ZM174.66,65.93h.23l-.95,4.29c-.06.26-.09.45-.09.57,0,.1.02.18.05.22s.09.07.16.07c.08,0,.16-.03.25-.09s.21-.18.37-.36l.22.22c-.25.26-.46.44-.61.54s-.34.15-.53.15c-.17,0-.3-.06-.4-.18s-.15-.28-.15-.47c0-.17.04-.42.11-.75l.69-3.11c.03-.14.05-.25.07-.33s.02-.16.02-.23c0-.08-.01-.14-.04-.18s-.07-.07-.12-.09-.15-.03-.28-.04l.05-.2.98-.03h0Z"/>
    <path class="cls-8" d="M183.04,61.66c.16,0,.29.05.39.16s.14.25.14.42c0,.14-.03.29-.09.46l.05.02c.25-.36.49-.62.72-.79s.46-.26.71-.26.43.07.55.21.19.33.19.58c0,.16-.04.39-.11.69l-.25,1.02c-.07.28-.1.48-.1.6,0,.1.02.18.05.22s.09.07.16.07c.08,0,.16-.03.25-.09s.21-.18.37-.36l.22.22c-.22.24-.42.41-.58.52s-.35.16-.57.16c-.17,0-.3-.06-.4-.18s-.15-.27-.15-.46c0-.17.04-.41.13-.74l.17-.67c.06-.24.1-.42.12-.54s.03-.21.03-.28c0-.18-.03-.31-.09-.39s-.16-.12-.29-.12c-.11,0-.23.04-.35.13s-.26.22-.4.39-.25.34-.34.51-.16.37-.21.61l-.37,1.68h-.67l.57-2.46c.06-.25.09-.44.09-.57,0-.1-.02-.18-.05-.22s-.09-.07-.16-.07c-.08,0-.16.03-.25.1s-.21.19-.37.36l-.22-.22c.24-.25.44-.42.59-.53s.34-.16.53-.16h0Z"/>
    <path class="cls-8" d="M182.41,71.47h1.24l1.02,3.02c.15.43.26.8.34,1.1h.04c.02-.16.07-.42.14-.79s.14-.69.2-.96l.27-1.22c.06-.26.09-.46.09-.62,0-.12-.03-.21-.09-.25s-.16-.08-.29-.08l.04-.19h1.36l-.04.19c-.1.02-.17.04-.21.07s-.08.06-.11.12-.07.13-.1.24-.08.29-.14.54l-.91,4.14h-.53l-1.13-3.33c-.14-.4-.26-.79-.36-1.19h-.05c-.02.13-.06.38-.13.75s-.14.73-.22,1.09l-.34,1.55c-.05.25-.08.45-.08.6,0,.12.03.2.09.25s.16.08.29.09l-.04.19h-1.36l.04-.19c.1-.02.17-.04.22-.08s.09-.08.12-.15.06-.14.09-.23.07-.26.13-.52l.66-2.98c.03-.11.05-.22.06-.32s.02-.2.02-.31c0-.12-.03-.21-.09-.25s-.16-.08-.29-.08l.04-.19Z"/>
    <polygon class="cls-8" points="181.18 68.93 187.16 68.93 187.16 69.46 181.18 69.46 181.18 68.93 181.18 68.93"/>
  </g>
</svg>