<svg width="2835" height="720" xmlns="http://www.w3.org/2000/svg" xmlns:xlink="http://www.w3.org/1999/xlink" overflow="hidden"><g><rect x="0" y="0" width="2835" height="719.915" fill="#FFFFFF"/><rect x="2513.5" y="33.4961" width="307" height="653.923" stroke="#172C51" stroke-width="1.33349" stroke-miterlimit="8" fill="none"/><rect x="15" y="169.98" width="209" height="118.986" fill="#B4C7E7"/><text font-family="DengXian,DengXian_MSFontService,sans-serif" font-weight="400" font-size="38.9867" transform="matrix(1 0 0 0.999883 80.6562 219)">训练</text><text font-family="DengXian,DengXian_MSFontService,sans-serif" font-weight="400" font-size="38.9867" transform="matrix(1 0 0 0.999883 61.1539 266)">数据集</text><rect x="15" y="338.96" width="209" height="75.9911" fill="#B4C7E7"/><text font-family="DengXian,DengXian_MSFontService,sans-serif" font-weight="400" font-size="38.9867" transform="matrix(1 0 0 0.999883 51.6529 389)">时间步</text><text font-family="Calibri,Calibri_MSFontService,sans-serif" font-weight="400" font-size="38.9867" transform="matrix(1 0 0 0.999883 168.667 389)">T</text><path d="M235 221.973 441.232 221.974 441.232 229.974 235 229.973ZM437.232 213.974 461.235 225.974 437.232 237.974Z" fill="#4472C4"/><text font-family="DengXian,DengXian_MSFontService,sans-serif" font-weight="400" font-size="38.9867" transform="matrix(1 0 0 0.999883 233.972 195)">随机采样</text><path d="M235 384.954 441.232 384.954 441.232 392.954 235 392.954ZM437.232 376.954 461.235 388.954 437.232 400.954Z" fill="#4472C4"/><text font-family="DengXian,DengXian_MSFontService,sans-serif" font-weight="400" font-size="38.9867" transform="matrix(1 0 0 0.999883 233.972 357)">随机采样</text><rect x="472" y="194.977" width="75" height="62.9926" fill="#B4C7E7"/><text font-family="Cambria Math,Cambria Math_MSFontService,sans-serif" font-weight="400" font-size="38.9867" transform="matrix(1 0 0 0.999883 485.834 240)">𝑥</text><text font-family="Cambria Math,Cambria Math_MSFontService,sans-serif" font-weight="400" font-size="28.4603" transform="matrix(1 0 0 0.999883 506.123 248)">0</text><rect x="472" y="357.958" width="75" height="62.9926" fill="#B4C7E7"/><text font-family="Cambria Math,Cambria Math_MSFontService,sans-serif" font-weight="400" font-size="38.9867" transform="matrix(1 0 0 0.999883 496.896 403)">𝑡</text><rect x="15" y="581.932" width="209" height="75.9911" fill="#B4C7E7"/><text font-family="Calibri,Calibri_MSFontService,sans-serif" font-weight="400" font-size="38.9867" transform="matrix(1 0 0 0.999883 70.5717 633)">N(0,1)</text><path d="M235 627.926 441.232 627.926 441.232 635.926 235 635.926ZM437.232 619.926 461.235 631.926 437.232 643.926Z" fill="#4472C4"/><text font-family="DengXian,DengXian_MSFontService,sans-serif" font-weight="400" font-size="38.9867" transform="matrix(1 0 0 0.999883 233.972 588)">随机采样</text><rect x="472" y="591.93" width="75" height="62.9926" fill="#B4C7E7"/><text font-family="Cambria Math,Cambria Math_MSFontService,sans-serif" font-weight="400" font-size="38.9867" transform="matrix(1 0 0 0.999883 492.872 637)">∈</text><path d="M565 216.974C581.292 216.974 594.5 230.62 594.5 247.452L594.5 247.452C594.5 264.284 607.708 277.93 624 277.93 607.708 277.93 594.5 291.575 594.5 308.407L594.5 579.451C594.5 596.283 581.292 609.928 565 609.928" stroke="#4472C4" stroke-width="4.00047" stroke-miterlimit="8" fill="none" fill-rule="evenodd"/><path d="M624 274.967 718.643 274.967 718.643 282.967 624 282.967ZM714.643 266.967 738.646 278.967 714.643 290.967Z" fill="#4472C4"/><text font-family="DengXian,DengXian_MSFontService,sans-serif" font-weight="400" font-size="38.9867" transform="matrix(1 0 0 0.999883 922.436 219)">含噪数据</text><rect x="2526" y="296.965" width="75" height="61.9927" fill="#B4C7E7"/><text font-family="Cambria Math,Cambria Math_MSFontService,sans-serif" font-weight="400" font-size="38.9867" transform="matrix(1 0 0 0.999883 2536.56 342)">∈</text><text font-family="Cambria Math,Cambria Math_MSFontService,sans-serif" font-weight="400" font-size="38.9867" transform="matrix(1 0 0 0.999883 2571.73 342)">′</text><text font-family="DengXian,DengXian_MSFontService,sans-serif" font-weight="400" font-size="38.9867" transform="matrix(1 0 0 0.999883 2632.61 328)">预测噪声</text><text font-family="DengXian,DengXian_MSFontService,sans-serif" font-weight="400" font-size="38.9867" transform="matrix(1 0 0 0.999883 2628.44 631)">真实噪声</text><path d="M2328 317.962 2499.11 317.962 2499.11 325.962 2328 325.962ZM2495.11 309.962 2519.12 321.962 2495.11 333.962Z" fill="#4472C4"/><text font-family="DengXian,DengXian_MSFontService,sans-serif" font-weight="400" font-size="38.9867" transform="matrix(1 0 0 0.999883 2564.61 105)">求损失函数</text><text font-family="DengXian,DengXian_MSFontService,sans-serif" font-weight="400" font-size="38.9867" transform="matrix(1 0 0 0.999883 2603.61 152)">最小化</text><path d="M1245 274.967 1357.1 274.967 1357.1 282.967 1245 282.967ZM1353.1 266.967 1377.1 278.967 1353.1 290.967Z" fill="#4472C4"/><rect x="2522" y="594.93" width="75" height="62.9926" fill="#B4C7E7"/><text font-family="Cambria Math,Cambria Math_MSFontService,sans-serif" font-weight="400" font-size="38.9867" transform="matrix(1 0 0 0.999883 2543.21 640)">∈</text><path d="M547 632.925 2479.15 632.925 2479.15 640.925 547 640.925ZM2475.15 624.925 2499.15 636.925 2475.15 648.925Z" fill="#BFBFBF"/><path d="M0.01619-3.99997 810.333-0.720181 810.301 7.27975-0.01619 3.99997ZM806.365-8.73631 830.317 3.36073 806.268 15.2635Z" fill="#4472C4" transform="matrix(1.00012 0 0 -1 547 389.315)"/><path d="M1988.5 235.472 2049.5 257.172 2049.5 403.751 1988.5 425.45Z" stroke="#4472C4" stroke-width="1.33333" stroke-miterlimit="8" fill="#BDD7EE" fill-rule="evenodd"/><rect x="2083.5" y="284.467" width="32" height="91.9892" stroke="#4472C4" stroke-width="1.33349" stroke-miterlimit="8" fill="#BDD7EE"/><path d="M2151.5 327.961C2151.5 316.641 2160.68 307.464 2172 307.464 2183.32 307.464 2192.5 316.641 2192.5 327.961 2192.5 339.282 2183.32 348.459 2172 348.459 2160.68 348.459 2151.5 339.282 2151.5 327.961Z" stroke="#4472C4" stroke-width="1.33349" stroke-miterlimit="8" fill="#BDD7EE" fill-rule="evenodd"/><path d="M2226.5 222.474 2331.5 293.211 2331.5 342.714 2226.5 413.451Z" stroke="#4472C4" stroke-width="1.33333" stroke-miterlimit="8" fill="#BDD7EE" fill-rule="evenodd"/><path d="M1872.57 285.14 1978.49 307.338 1978.35 307.99 1872.43 285.793ZM1977.94 303.475 1984.95 309.031 1976.3 311.305Z"/><path d="M1874.51 332.128 1978.66 334.011 1978.64 334.677 1874.49 332.794ZM1977.39 330.32 1985.32 334.464 1977.24 338.319Z"/><path d="M0.0937972-0.319864 99.8995 28.9472 99.7119 29.5869-0.0937972 0.319864ZM99.6517 25.0535 106.203 31.143 97.4005 32.7302Z" transform="matrix(1.00012 0 0 -1 1876.5 386.601)"/><path d="M2.01809e-06-0.333333 28.0153-0.333164 28.0153 0.333503-2.01809e-06 0.333333ZM26.682-3.99984 34.682 0.000209974 26.682 4.00016Z" fill="#4472C4" transform="matrix(1.00012 0 0 -1 2049.5 330.461)"/><path d="M2.01809e-06-0.333333 28.0153-0.333164 28.0153 0.333503-2.01809e-06 0.333333ZM26.682-3.99984 34.682 0.000209974 26.682 4.00016Z" fill="#4472C4" transform="matrix(1.00012 0 0 -1 2116.5 330.461)"/><path d="M2.01809e-06-0.333333 28.0153-0.333164 28.0153 0.333503-2.01809e-06 0.333333ZM26.682-3.99984 34.682 0.000209974 26.682 4.00016Z" fill="#4472C4" transform="matrix(1.00012 0 0 -1 2191.5 330.461)"/><rect x="1366.5" y="33.4961" width="983" height="561.934" stroke="#172C51" stroke-width="1.33349" stroke-miterlimit="8" fill="none"/><text font-family="DengXian,DengXian_MSFontService,sans-serif" font-weight="400" font-size="38.9867" transform="matrix(1 0 0 0.999883 1902.73 87)">预测网络</text><path d="M2681 405.955 2681 542.486 2673 542.486 2673 405.955ZM2665 409.955 2677 385.955 2689 409.955ZM2689 538.486 2677 562.486 2665 538.486Z" fill="#FF0000"/><text font-family="Calibri,Calibri_MSFontService,sans-serif" font-weight="700" font-size="43.3067" transform="matrix(1 0 0 0.999883 2698.3 493)">F(x)</text><text font-family="DengXian,DengXian_MSFontService,sans-serif" font-weight="400" font-size="38.9867" transform="matrix(1 0 0 0.999883 1241.5 249)">输入</text><text font-family="DengXian,DengXian_MSFontService,sans-serif" font-weight="400" font-size="38.9867" transform="matrix(1 0 0 0.999883 2380.23 282)">输出</text><text font-family="DengXian,DengXian_MSFontService,sans-serif" font-weight="400" font-size="38.9867" transform="matrix(1 0 0 0.999883 1241.5 359)">输入</text><path d="M1389.5 309.464 1508.5 154.482" stroke="#ED7D31" stroke-width="1.00012" stroke-miterlimit="8" fill="none" fill-rule="evenodd"/><path d="M1389.5 309.464 1508.5 205.476" stroke="#ED7D31" stroke-width="1.00012" stroke-miterlimit="8" fill="none" fill-rule="evenodd"/><path d="M1389.5 309.464 1508.5 257.47" stroke="#ED7D31" stroke-width="1.00012" stroke-miterlimit="8" fill="none" fill-rule="evenodd"/><path d="M1389.5 309.464 1508.5 309.464" stroke="#ED7D31" stroke-width="1.00012" stroke-miterlimit="8" fill="none" fill-rule="evenodd"/><path d="M1389.5 309.464 1508.5 360.458" stroke="#ED7D31" stroke-width="1.00012" stroke-miterlimit="8" fill="none" fill-rule="evenodd"/><path d="M1389.5 309.464 1508.5 412.452" stroke="#ED7D31" stroke-width="1.00012" stroke-miterlimit="8" fill="none" fill-rule="evenodd"/><path d="M1389.5 309.464 1508.5 464.445" stroke="#ED7D31" stroke-width="1.00012" stroke-miterlimit="8" fill="none" fill-rule="evenodd"/><path d="M1389.5 309.464 1508.5 515.439" stroke="#ED7D31" stroke-width="1.00012" stroke-miterlimit="8" fill="none" fill-rule="evenodd"/><path d="M1389.5 360.458 1508.5 154.482" stroke="#ED7D31" stroke-width="1.00012" stroke-miterlimit="8" fill="none" fill-rule="evenodd"/><path d="M1389.5 360.458 1508.5 205.476" stroke="#ED7D31" stroke-width="1.00012" stroke-miterlimit="8" fill="none" fill-rule="evenodd"/><path d="M1389.5 360.458 1508.5 257.47" stroke="#ED7D31" stroke-width="1.00012" stroke-miterlimit="8" fill="none" fill-rule="evenodd"/><path d="M1389.5 360.458 1508.5 309.464" stroke="#ED7D31" stroke-width="1.00012" stroke-miterlimit="8" fill="none" fill-rule="evenodd"/><path d="M1389.5 360.458 1508.5 360.458" stroke="#ED7D31" stroke-width="1.00012" stroke-miterlimit="8" fill="none" fill-rule="evenodd"/><path d="M1389.5 360.458 1508.5 412.452" stroke="#ED7D31" stroke-width="1.00012" stroke-miterlimit="8" fill="none" fill-rule="evenodd"/><path d="M1389.5 360.458 1508.5 464.446" stroke="#ED7D31" stroke-width="1.00012" stroke-miterlimit="8" fill="none" fill-rule="evenodd"/><path d="M1389.5 360.458 1508.5 515.439" stroke="#ED7D31" stroke-width="1.00012" stroke-miterlimit="8" fill="none" fill-rule="evenodd"/><path d="M1508.5 154.482 1627.5 102.488" stroke="#C55A11" stroke-width="1.00012" stroke-miterlimit="8" fill="none" fill-rule="evenodd"/><path d="M1508.5 154.482 1627.5 154.482" stroke="#C55A11" stroke-width="1.00012" stroke-miterlimit="8" fill="none" fill-rule="evenodd"/><path d="M1508.5 154.482 1627.5 205.476" stroke="#C55A11" stroke-width="1.00012" stroke-miterlimit="8" fill="none" fill-rule="evenodd"/><path d="M1508.5 154.482 1627.5 257.47" stroke="#C55A11" stroke-width="1.00012" stroke-miterlimit="8" fill="none" fill-rule="evenodd"/><path d="M1508.5 154.482 1627.5 309.464" stroke="#C55A11" stroke-width="1.00012" stroke-miterlimit="8" fill="none" fill-rule="evenodd"/><path d="M1508.5 154.482 1627.5 360.458" stroke="#C55A11" stroke-width="1.00012" stroke-miterlimit="8" fill="none" fill-rule="evenodd"/><path d="M1508.5 154.482 1627.5 412.452" stroke="#C55A11" stroke-width="1.00012" stroke-miterlimit="8" fill="none" fill-rule="evenodd"/><path d="M1508.5 154.482 1627.5 464.446" stroke="#C55A11" stroke-width="1.00012" stroke-miterlimit="8" fill="none" fill-rule="evenodd"/><path d="M1508.5 154.482 1627.5 515.439" stroke="#C55A11" stroke-width="1.00012" stroke-miterlimit="8" fill="none" fill-rule="evenodd"/><path d="M1508.5 154.482 1627.5 567.433" stroke="#C55A11" stroke-width="1.00012" stroke-miterlimit="8" fill="none" fill-rule="evenodd"/><path d="M1508.5 205.476 1627.5 102.488" stroke="#C55A11" stroke-width="1.00012" stroke-miterlimit="8" fill="none" fill-rule="evenodd"/><path d="M1508.5 205.476 1627.5 154.482" stroke="#C55A11" stroke-width="1.00012" stroke-miterlimit="8" fill="none" fill-rule="evenodd"/><path d="M1508.5 205.476 1627.5 205.476" stroke="#C55A11" stroke-width="1.00012" stroke-miterlimit="8" fill="none" fill-rule="evenodd"/><path d="M1508.5 205.476 1627.5 257.47" stroke="#C55A11" stroke-width="1.00012" stroke-miterlimit="8" fill="none" fill-rule="evenodd"/><path d="M1508.5 205.476 1627.5 309.464" stroke="#C55A11" stroke-width="1.00012" stroke-miterlimit="8" fill="none" fill-rule="evenodd"/><path d="M1508.5 205.476 1627.5 360.458" stroke="#C55A11" stroke-width="1.00012" stroke-miterlimit="8" fill="none" fill-rule="evenodd"/><path d="M1508.5 205.476 1627.5 412.452" stroke="#C55A11" stroke-width="1.00012" stroke-miterlimit="8" fill="none" fill-rule="evenodd"/><path d="M1508.5 205.476 1627.5 464.446" stroke="#C55A11" stroke-width="1.00012" stroke-miterlimit="8" fill="none" fill-rule="evenodd"/><path d="M1508.5 205.476 1627.5 515.44" stroke="#C55A11" stroke-width="1.00012" stroke-miterlimit="8" fill="none" fill-rule="evenodd"/><path d="M1508.5 205.476 1627.5 567.433" stroke="#C55A11" stroke-width="1.00012" stroke-miterlimit="8" fill="none" fill-rule="evenodd"/><path d="M1508.5 257.47 1627.5 102.488" stroke="#C55A11" stroke-width="1.00012" stroke-miterlimit="8" fill="none" fill-rule="evenodd"/><path d="M1508.5 257.47 1627.5 154.482" stroke="#C55A11" stroke-width="1.00012" stroke-miterlimit="8" fill="none" fill-rule="evenodd"/><path d="M1508.5 257.47 1627.5 205.476" stroke="#C55A11" stroke-width="1.00012" stroke-miterlimit="8" fill="none" fill-rule="evenodd"/><path d="M1508.5 257.47 1627.5 257.47" stroke="#C55A11" stroke-width="1.00012" stroke-miterlimit="8" fill="none" fill-rule="evenodd"/><path d="M1508.5 257.47 1627.5 309.464" stroke="#C55A11" stroke-width="1.00012" stroke-miterlimit="8" fill="none" fill-rule="evenodd"/><path d="M1508.5 257.47 1627.5 360.458" stroke="#C55A11" stroke-width="1.00012" stroke-miterlimit="8" fill="none" fill-rule="evenodd"/><path d="M1508.5 257.47 1627.5 412.452" stroke="#C55A11" stroke-width="1.00012" stroke-miterlimit="8" fill="none" fill-rule="evenodd"/><path d="M1508.5 257.47 1627.5 464.445" stroke="#C55A11" stroke-width="1.00012" stroke-miterlimit="8" fill="none" fill-rule="evenodd"/><path d="M1508.5 257.47 1627.5 515.44" stroke="#C55A11" stroke-width="1.00012" stroke-miterlimit="8" fill="none" fill-rule="evenodd"/><path d="M1508.5 257.47 1627.5 567.433" stroke="#C55A11" stroke-width="1.00012" stroke-miterlimit="8" fill="none" fill-rule="evenodd"/><path d="M1508.5 309.464 1627.5 102.488" stroke="#C55A11" stroke-width="1.00012" stroke-miterlimit="8" fill="none" fill-rule="evenodd"/><path d="M1508.5 309.464 1627.5 154.482" stroke="#C55A11" stroke-width="1.00012" stroke-miterlimit="8" fill="none" fill-rule="evenodd"/><path d="M1508.5 309.464 1627.5 205.476" stroke="#C55A11" stroke-width="1.00012" stroke-miterlimit="8" fill="none" fill-rule="evenodd"/><path d="M1508.5 309.464 1627.5 257.47" stroke="#C55A11" stroke-width="1.00012" stroke-miterlimit="8" fill="none" fill-rule="evenodd"/><path d="M1508.5 309.464 1627.5 309.464" stroke="#C55A11" stroke-width="1.00012" stroke-miterlimit="8" fill="none" fill-rule="evenodd"/><path d="M1508.5 309.464 1627.5 360.458" stroke="#C55A11" stroke-width="1.00012" stroke-miterlimit="8" fill="none" fill-rule="evenodd"/><path d="M1508.5 309.464 1627.5 412.452" stroke="#C55A11" stroke-width="1.00012" stroke-miterlimit="8" fill="none" fill-rule="evenodd"/><path d="M1508.5 309.464 1627.5 464.445" stroke="#C55A11" stroke-width="1.00012" stroke-miterlimit="8" fill="none" fill-rule="evenodd"/><path d="M1508.5 309.464 1627.5 515.439" stroke="#C55A11" stroke-width="1.00012" stroke-miterlimit="8" fill="none" fill-rule="evenodd"/><path d="M1508.5 309.464 1627.5 567.433" stroke="#C55A11" stroke-width="1.00012" stroke-miterlimit="8" fill="none" fill-rule="evenodd"/><path d="M1508.5 360.458 1627.5 102.488" stroke="#C55A11" stroke-width="1.00012" stroke-miterlimit="8" fill="none" fill-rule="evenodd"/><path d="M1508.5 360.458 1627.5 154.482" stroke="#C55A11" stroke-width="1.00012" stroke-miterlimit="8" fill="none" fill-rule="evenodd"/><path d="M1508.5 360.458 1627.5 205.476" stroke="#C55A11" stroke-width="1.00012" stroke-miterlimit="8" fill="none" fill-rule="evenodd"/><path d="M1508.5 360.458 1627.5 257.47" stroke="#C55A11" stroke-width="1.00012" stroke-miterlimit="8" fill="none" fill-rule="evenodd"/><path d="M1508.5 360.458 1627.5 309.464" stroke="#C55A11" stroke-width="1.00012" stroke-miterlimit="8" fill="none" fill-rule="evenodd"/><path d="M1508.5 360.458 1627.5 360.458" stroke="#C55A11" stroke-width="1.00012" stroke-miterlimit="8" fill="none" fill-rule="evenodd"/><path d="M1508.5 360.458 1627.5 412.452" stroke="#C55A11" stroke-width="1.00012" stroke-miterlimit="8" fill="none" fill-rule="evenodd"/><path d="M1508.5 360.458 1627.5 464.446" stroke="#C55A11" stroke-width="1.00012" stroke-miterlimit="8" fill="none" fill-rule="evenodd"/><path d="M1508.5 360.458 1627.5 515.439" stroke="#C55A11" stroke-width="1.00012" stroke-miterlimit="8" fill="none" fill-rule="evenodd"/><path d="M1508.5 360.458 1627.5 567.433" stroke="#C55A11" stroke-width="1.00012" stroke-miterlimit="8" fill="none" fill-rule="evenodd"/><path d="M1508.5 412.452 1627.5 102.488" stroke="#C55A11" stroke-width="1.00012" stroke-miterlimit="8" fill="none" fill-rule="evenodd"/><path d="M1508.5 412.452 1627.5 154.482" stroke="#C55A11" stroke-width="1.00012" stroke-miterlimit="8" fill="none" fill-rule="evenodd"/><path d="M1508.5 412.452 1627.5 205.476" stroke="#C55A11" stroke-width="1.00012" stroke-miterlimit="8" fill="none" fill-rule="evenodd"/><path d="M1508.5 412.452 1627.5 257.47" stroke="#C55A11" stroke-width="1.00012" stroke-miterlimit="8" fill="none" fill-rule="evenodd"/><path d="M1508.5 412.452 1627.5 309.464" stroke="#C55A11" stroke-width="1.00012" stroke-miterlimit="8" fill="none" fill-rule="evenodd"/><path d="M1508.5 412.452 1627.5 360.458" stroke="#C55A11" stroke-width="1.00012" stroke-miterlimit="8" fill="none" fill-rule="evenodd"/><path d="M1508.5 412.452 1627.5 412.452" stroke="#C55A11" stroke-width="1.00012" stroke-miterlimit="8" fill="none" fill-rule="evenodd"/><path d="M1508.5 412.452 1627.5 464.446" stroke="#C55A11" stroke-width="1.00012" stroke-miterlimit="8" fill="none" fill-rule="evenodd"/><path d="M1508.5 412.452 1627.5 515.44" stroke="#C55A11" stroke-width="1.00012" stroke-miterlimit="8" fill="none" fill-rule="evenodd"/><path d="M1508.5 412.452 1627.5 567.433" stroke="#C55A11" stroke-width="1.00012" stroke-miterlimit="8" fill="none" fill-rule="evenodd"/><path d="M1508.5 464.445 1627.5 102.488" stroke="#C55A11" stroke-width="1.00012" stroke-miterlimit="8" fill="none" fill-rule="evenodd"/><path d="M1508.5 464.446 1627.5 154.482" stroke="#C55A11" stroke-width="1.00012" stroke-miterlimit="8" fill="none" fill-rule="evenodd"/><path d="M1508.5 464.446 1627.5 205.476" stroke="#C55A11" stroke-width="1.00012" stroke-miterlimit="8" fill="none" fill-rule="evenodd"/><path d="M1508.5 464.445 1627.5 257.47" stroke="#C55A11" stroke-width="1.00012" stroke-miterlimit="8" fill="none" fill-rule="evenodd"/><path d="M1508.5 464.445 1627.5 309.464" stroke="#C55A11" stroke-width="1.00012" stroke-miterlimit="8" fill="none" fill-rule="evenodd"/><path d="M1508.5 464.446 1627.5 360.458" stroke="#C55A11" stroke-width="1.00012" stroke-miterlimit="8" fill="none" fill-rule="evenodd"/><path d="M1508.5 464.446 1627.5 412.452" stroke="#C55A11" stroke-width="1.00012" stroke-miterlimit="8" fill="none" fill-rule="evenodd"/><path d="M1508.5 464.445 1627.5 464.445" stroke="#C55A11" stroke-width="1.00012" stroke-miterlimit="8" fill="none" fill-rule="evenodd"/><path d="M1508.5 464.445 1627.5 515.44" stroke="#C55A11" stroke-width="1.00012" stroke-miterlimit="8" fill="none" fill-rule="evenodd"/><path d="M1508.5 464.445 1627.5 567.433" stroke="#C55A11" stroke-width="1.00012" stroke-miterlimit="8" fill="none" fill-rule="evenodd"/><path d="M1508.5 515.439 1627.5 102.488" stroke="#C55A11" stroke-width="1.00012" stroke-miterlimit="8" fill="none" fill-rule="evenodd"/><path d="M1508.5 515.439 1627.5 154.482" stroke="#C55A11" stroke-width="1.00012" stroke-miterlimit="8" fill="none" fill-rule="evenodd"/><path d="M1508.5 515.44 1627.5 205.476" stroke="#C55A11" stroke-width="1.00012" stroke-miterlimit="8" fill="none" fill-rule="evenodd"/><path d="M1508.5 515.44 1627.5 257.47" stroke="#C55A11" stroke-width="1.00012" stroke-miterlimit="8" fill="none" fill-rule="evenodd"/><path d="M1508.5 515.439 1627.5 309.464" stroke="#C55A11" stroke-width="1.00012" stroke-miterlimit="8" fill="none" fill-rule="evenodd"/><path d="M1508.5 515.439 1627.5 360.458" stroke="#C55A11" stroke-width="1.00012" stroke-miterlimit="8" fill="none" fill-rule="evenodd"/><path d="M1508.5 515.44 1627.5 412.452" stroke="#C55A11" stroke-width="1.00012" stroke-miterlimit="8" fill="none" fill-rule="evenodd"/><path d="M1508.5 515.44 1627.5 464.445" stroke="#C55A11" stroke-width="1.00012" stroke-miterlimit="8" fill="none" fill-rule="evenodd"/><path d="M1508.5 515.439 1627.5 515.439" stroke="#C55A11" stroke-width="1.00012" stroke-miterlimit="8" fill="none" fill-rule="evenodd"/><path d="M1508.5 515.439 1627.5 567.434" stroke="#C55A11" stroke-width="1.00012" stroke-miterlimit="8" fill="none" fill-rule="evenodd"/><path d="M1627.5 102.488 1746.5 154.482" stroke="#C55A11" stroke-width="1.00012" stroke-miterlimit="8" fill="none" fill-rule="evenodd"/><path d="M1627.5 154.482 1746.5 154.482" stroke="#C55A11" stroke-width="1.00012" stroke-miterlimit="8" fill="none" fill-rule="evenodd"/><path d="M1627.5 205.476 1746.5 154.482" stroke="#C55A11" stroke-width="1.00012" stroke-miterlimit="8" fill="none" fill-rule="evenodd"/><path d="M1627.5 257.47 1746.5 154.482" stroke="#C55A11" stroke-width="1.00012" stroke-miterlimit="8" fill="none" fill-rule="evenodd"/><path d="M1627.5 309.464 1746.5 154.482" stroke="#C55A11" stroke-width="1.00012" stroke-miterlimit="8" fill="none" fill-rule="evenodd"/><path d="M1627.5 360.458 1746.5 154.482" stroke="#C55A11" stroke-width="1.00012" stroke-miterlimit="8" fill="none" fill-rule="evenodd"/><path d="M1627.5 412.452 1746.5 154.482" stroke="#C55A11" stroke-width="1.00012" stroke-miterlimit="8" fill="none" fill-rule="evenodd"/><path d="M1627.5 464.446 1746.5 154.482" stroke="#C55A11" stroke-width="1.00012" stroke-miterlimit="8" fill="none" fill-rule="evenodd"/><path d="M1627.5 515.439 1746.5 154.482" stroke="#C55A11" stroke-width="1.00012" stroke-miterlimit="8" fill="none" fill-rule="evenodd"/><path d="M1627.5 567.433 1746.5 154.482" stroke="#C55A11" stroke-width="1.00012" stroke-miterlimit="8" fill="none" fill-rule="evenodd"/><path d="M1627.5 102.488 1746.5 205.476" stroke="#C55A11" stroke-width="1.00012" stroke-miterlimit="8" fill="none" fill-rule="evenodd"/><path d="M1627.5 102.488 1746.5 257.47" stroke="#C55A11" stroke-width="1.00012" stroke-miterlimit="8" fill="none" fill-rule="evenodd"/><path d="M1627.5 102.488 1746.5 309.464" stroke="#C55A11" stroke-width="1.00012" stroke-miterlimit="8" fill="none" fill-rule="evenodd"/><path d="M1627.5 102.488 1746.5 360.458" stroke="#C55A11" stroke-width="1.00012" stroke-miterlimit="8" fill="none" fill-rule="evenodd"/><path d="M1627.5 102.488 1746.5 412.452" stroke="#C55A11" stroke-width="1.00012" stroke-miterlimit="8" fill="none" fill-rule="evenodd"/><path d="M1627.5 102.488 1746.5 464.445" stroke="#C55A11" stroke-width="1.00012" stroke-miterlimit="8" fill="none" fill-rule="evenodd"/><path d="M1627.5 102.488 1746.5 515.439" stroke="#C55A11" stroke-width="1.00012" stroke-miterlimit="8" fill="none" fill-rule="evenodd"/><path d="M1627.5 154.482 1746.5 205.476" stroke="#C55A11" stroke-width="1.00012" stroke-miterlimit="8" fill="none" fill-rule="evenodd"/><path d="M1627.5 154.482 1746.5 257.47" stroke="#C55A11" stroke-width="1.00012" stroke-miterlimit="8" fill="none" fill-rule="evenodd"/><path d="M1627.5 154.482 1746.5 309.464" stroke="#C55A11" stroke-width="1.00012" stroke-miterlimit="8" fill="none" fill-rule="evenodd"/><path d="M1627.5 154.482 1746.5 360.458" stroke="#C55A11" stroke-width="1.00012" stroke-miterlimit="8" fill="none" fill-rule="evenodd"/><path d="M1627.5 154.482 1746.5 412.452" stroke="#C55A11" stroke-width="1.00012" stroke-miterlimit="8" fill="none" fill-rule="evenodd"/><path d="M1627.5 154.482 1746.5 464.446" stroke="#C55A11" stroke-width="1.00012" stroke-miterlimit="8" fill="none" fill-rule="evenodd"/><path d="M1627.5 154.482 1746.5 515.439" stroke="#C55A11" stroke-width="1.00012" stroke-miterlimit="8" fill="none" fill-rule="evenodd"/><path d="M1627.5 205.476 1746.5 205.476" stroke="#C55A11" stroke-width="1.00012" stroke-miterlimit="8" fill="none" fill-rule="evenodd"/><path d="M1627.5 205.476 1746.5 257.47" stroke="#C55A11" stroke-width="1.00012" stroke-miterlimit="8" fill="none" fill-rule="evenodd"/><path d="M1627.5 205.476 1746.5 309.464" stroke="#C55A11" stroke-width="1.00012" stroke-miterlimit="8" fill="none" fill-rule="evenodd"/><path d="M1627.5 205.476 1746.5 360.458" stroke="#C55A11" stroke-width="1.00012" stroke-miterlimit="8" fill="none" fill-rule="evenodd"/><path d="M1627.5 205.476 1746.5 412.452" stroke="#C55A11" stroke-width="1.00012" stroke-miterlimit="8" fill="none" fill-rule="evenodd"/><path d="M1627.5 205.476 1746.5 464.446" stroke="#C55A11" stroke-width="1.00012" stroke-miterlimit="8" fill="none" fill-rule="evenodd"/><path d="M1627.5 205.476 1746.5 515.44" stroke="#C55A11" stroke-width="1.00012" stroke-miterlimit="8" fill="none" fill-rule="evenodd"/><path d="M1627.5 257.47 1746.5 205.476" stroke="#C55A11" stroke-width="1.00012" stroke-miterlimit="8" fill="none" fill-rule="evenodd"/><path d="M1627.5 257.47 1746.5 257.47" stroke="#C55A11" stroke-width="1.00012" stroke-miterlimit="8" fill="none" fill-rule="evenodd"/><path d="M1627.5 257.47 1746.5 309.464" stroke="#C55A11" stroke-width="1.00012" stroke-miterlimit="8" fill="none" fill-rule="evenodd"/><path d="M1627.5 257.47 1746.5 360.458" stroke="#C55A11" stroke-width="1.00012" stroke-miterlimit="8" fill="none" fill-rule="evenodd"/><path d="M1627.5 257.47 1746.5 412.452" stroke="#C55A11" stroke-width="1.00012" stroke-miterlimit="8" fill="none" fill-rule="evenodd"/><path d="M1627.5 257.47 1746.5 464.445" stroke="#C55A11" stroke-width="1.00012" stroke-miterlimit="8" fill="none" fill-rule="evenodd"/><path d="M1627.5 257.47 1746.5 515.44" stroke="#C55A11" stroke-width="1.00012" stroke-miterlimit="8" fill="none" fill-rule="evenodd"/><path d="M1627.5 309.464 1746.5 205.476" stroke="#C55A11" stroke-width="1.00012" stroke-miterlimit="8" fill="none" fill-rule="evenodd"/><path d="M1627.5 309.464 1746.5 257.47" stroke="#C55A11" stroke-width="1.00012" stroke-miterlimit="8" fill="none" fill-rule="evenodd"/><path d="M1627.5 309.464 1746.5 309.464" stroke="#C55A11" stroke-width="1.00012" stroke-miterlimit="8" fill="none" fill-rule="evenodd"/><path d="M1627.5 309.464 1746.5 360.458" stroke="#C55A11" stroke-width="1.00012" stroke-miterlimit="8" fill="none" fill-rule="evenodd"/><path d="M1627.5 309.464 1746.5 412.452" stroke="#C55A11" stroke-width="1.00012" stroke-miterlimit="8" fill="none" fill-rule="evenodd"/><path d="M1627.5 309.464 1746.5 464.445" stroke="#C55A11" stroke-width="1.00012" stroke-miterlimit="8" fill="none" fill-rule="evenodd"/><path d="M1627.5 309.464 1746.5 515.439" stroke="#C55A11" stroke-width="1.00012" stroke-miterlimit="8" fill="none" fill-rule="evenodd"/><path d="M1627.5 360.458 1746.5 205.476" stroke="#C55A11" stroke-width="1.00012" stroke-miterlimit="8" fill="none" fill-rule="evenodd"/><path d="M1627.5 360.458 1746.5 257.47" stroke="#C55A11" stroke-width="1.00012" stroke-miterlimit="8" fill="none" fill-rule="evenodd"/><path d="M1627.5 360.458 1746.5 309.464" stroke="#C55A11" stroke-width="1.00012" stroke-miterlimit="8" fill="none" fill-rule="evenodd"/><path d="M1627.5 360.458 1746.5 360.458" stroke="#C55A11" stroke-width="1.00012" stroke-miterlimit="8" fill="none" fill-rule="evenodd"/><path d="M1627.5 360.458 1746.5 412.452" stroke="#C55A11" stroke-width="1.00012" stroke-miterlimit="8" fill="none" fill-rule="evenodd"/><path d="M1627.5 360.458 1746.5 464.446" stroke="#C55A11" stroke-width="1.00012" stroke-miterlimit="8" fill="none" fill-rule="evenodd"/><path d="M1627.5 360.458 1746.5 515.439" stroke="#C55A11" stroke-width="1.00012" stroke-miterlimit="8" fill="none" fill-rule="evenodd"/><path d="M1627.5 412.452 1746.5 205.476" stroke="#C55A11" stroke-width="1.00012" stroke-miterlimit="8" fill="none" fill-rule="evenodd"/><path d="M1627.5 412.452 1746.5 257.47" stroke="#C55A11" stroke-width="1.00012" stroke-miterlimit="8" fill="none" fill-rule="evenodd"/><path d="M1627.5 412.452 1746.5 309.464" stroke="#C55A11" stroke-width="1.00012" stroke-miterlimit="8" fill="none" fill-rule="evenodd"/><path d="M1627.5 412.452 1746.5 360.458" stroke="#C55A11" stroke-width="1.00012" stroke-miterlimit="8" fill="none" fill-rule="evenodd"/><path d="M1627.5 412.452 1746.5 412.452" stroke="#C55A11" stroke-width="1.00012" stroke-miterlimit="8" fill="none" fill-rule="evenodd"/><path d="M1627.5 412.452 1746.5 464.446" stroke="#C55A11" stroke-width="1.00012" stroke-miterlimit="8" fill="none" fill-rule="evenodd"/><path d="M1627.5 412.452 1746.5 515.44" stroke="#C55A11" stroke-width="1.00012" stroke-miterlimit="8" fill="none" fill-rule="evenodd"/><path d="M1627.5 464.446 1746.5 205.476" stroke="#C55A11" stroke-width="1.00012" stroke-miterlimit="8" fill="none" fill-rule="evenodd"/><path d="M1627.5 464.445 1746.5 257.47" stroke="#C55A11" stroke-width="1.00012" stroke-miterlimit="8" fill="none" fill-rule="evenodd"/><path d="M1627.5 464.445 1746.5 309.464" stroke="#C55A11" stroke-width="1.00012" stroke-miterlimit="8" fill="none" fill-rule="evenodd"/><path d="M1627.5 464.446 1746.5 360.458" stroke="#C55A11" stroke-width="1.00012" stroke-miterlimit="8" fill="none" fill-rule="evenodd"/><path d="M1627.5 464.446 1746.5 412.452" stroke="#C55A11" stroke-width="1.00012" stroke-miterlimit="8" fill="none" fill-rule="evenodd"/><path d="M1627.5 464.445 1746.5 464.445" stroke="#C55A11" stroke-width="1.00012" stroke-miterlimit="8" fill="none" fill-rule="evenodd"/><path d="M1627.5 464.445 1746.5 515.44" stroke="#C55A11" stroke-width="1.00012" stroke-miterlimit="8" fill="none" fill-rule="evenodd"/><path d="M1627.5 515.44 1746.5 205.476" stroke="#C55A11" stroke-width="1.00012" stroke-miterlimit="8" fill="none" fill-rule="evenodd"/><path d="M1627.5 515.44 1746.5 257.47" stroke="#C55A11" stroke-width="1.00012" stroke-miterlimit="8" fill="none" fill-rule="evenodd"/><path d="M1627.5 515.439 1746.5 309.464" stroke="#C55A11" stroke-width="1.00012" stroke-miterlimit="8" fill="none" fill-rule="evenodd"/><path d="M1627.5 515.439 1746.5 360.458" stroke="#C55A11" stroke-width="1.00012" stroke-miterlimit="8" fill="none" fill-rule="evenodd"/><path d="M1627.5 515.44 1746.5 412.452" stroke="#C55A11" stroke-width="1.00012" stroke-miterlimit="8" fill="none" fill-rule="evenodd"/><path d="M1627.5 515.44 1746.5 464.445" stroke="#C55A11" stroke-width="1.00012" stroke-miterlimit="8" fill="none" fill-rule="evenodd"/><path d="M1627.5 515.439 1746.5 515.439" stroke="#C55A11" stroke-width="1.00012" stroke-miterlimit="8" fill="none" fill-rule="evenodd"/><path d="M1627.5 567.433 1746.5 205.476" stroke="#C55A11" stroke-width="1.00012" stroke-miterlimit="8" fill="none" fill-rule="evenodd"/><path d="M1627.5 567.433 1746.5 257.47" stroke="#C55A11" stroke-width="1.00012" stroke-miterlimit="8" fill="none" fill-rule="evenodd"/><path d="M1627.5 567.433 1746.5 309.464" stroke="#C55A11" stroke-width="1.00012" stroke-miterlimit="8" fill="none" fill-rule="evenodd"/><path d="M1627.5 567.433 1746.5 360.458" stroke="#C55A11" stroke-width="1.00012" stroke-miterlimit="8" fill="none" fill-rule="evenodd"/><path d="M1627.5 567.433 1746.5 412.452" stroke="#C55A11" stroke-width="1.00012" stroke-miterlimit="8" fill="none" fill-rule="evenodd"/><path d="M1627.5 567.433 1746.5 464.445" stroke="#C55A11" stroke-width="1.00012" stroke-miterlimit="8" fill="none" fill-rule="evenodd"/><path d="M1627.5 567.434 1746.5 515.439" stroke="#C55A11" stroke-width="1.00012" stroke-miterlimit="8" fill="none" fill-rule="evenodd"/><path d="M1746.5 154.482 1865.5 283.467" stroke="#ED7D31" stroke-width="1.00012" stroke-miterlimit="8" fill="none" fill-rule="evenodd"/><path d="M1746.5 154.482 1865.5 334.461" stroke="#ED7D31" stroke-width="1.00012" stroke-miterlimit="8" fill="none" fill-rule="evenodd"/><path d="M1746.5 154.482 1865.5 386.455" stroke="#ED7D31" stroke-width="1.00012" stroke-miterlimit="8" fill="none" fill-rule="evenodd"/><path d="M1746.5 205.476 1865.5 283.467" stroke="#ED7D31" stroke-width="1.00012" stroke-miterlimit="8" fill="none" fill-rule="evenodd"/><path d="M1746.5 205.476 1865.5 334.461" stroke="#ED7D31" stroke-width="1.00012" stroke-miterlimit="8" fill="none" fill-rule="evenodd"/><path d="M1746.5 205.476 1865.5 386.455" stroke="#ED7D31" stroke-width="1.00012" stroke-miterlimit="8" fill="none" fill-rule="evenodd"/><path d="M1746.5 257.47 1865.5 283.467" stroke="#ED7D31" stroke-width="1.00012" stroke-miterlimit="8" fill="none" fill-rule="evenodd"/><path d="M1746.5 257.47 1865.5 334.461" stroke="#ED7D31" stroke-width="1.00012" stroke-miterlimit="8" fill="none" fill-rule="evenodd"/><path d="M1746.5 257.47 1865.5 386.455" stroke="#ED7D31" stroke-width="1.00012" stroke-miterlimit="8" fill="none" fill-rule="evenodd"/><path d="M1746.5 309.464 1865.5 283.467" stroke="#ED7D31" stroke-width="1.00012" stroke-miterlimit="8" fill="none" fill-rule="evenodd"/><path d="M1746.5 309.464 1865.5 334.461" stroke="#ED7D31" stroke-width="1.00012" stroke-miterlimit="8" fill="none" fill-rule="evenodd"/><path d="M1746.5 309.464 1865.5 386.455" stroke="#ED7D31" stroke-width="1.00012" stroke-miterlimit="8" fill="none" fill-rule="evenodd"/><path d="M1746.5 360.458 1865.5 283.467" stroke="#ED7D31" stroke-width="1.00012" stroke-miterlimit="8" fill="none" fill-rule="evenodd"/><path d="M1746.5 360.458 1865.5 334.461" stroke="#ED7D31" stroke-width="1.00012" stroke-miterlimit="8" fill="none" fill-rule="evenodd"/><path d="M1746.5 360.458 1865.5 386.455" stroke="#ED7D31" stroke-width="1.00012" stroke-miterlimit="8" fill="none" fill-rule="evenodd"/><path d="M1746.5 412.452 1865.5 283.467" stroke="#ED7D31" stroke-width="1.00012" stroke-miterlimit="8" fill="none" fill-rule="evenodd"/><path d="M1746.5 412.452 1865.5 334.461" stroke="#ED7D31" stroke-width="1.00012" stroke-miterlimit="8" fill="none" fill-rule="evenodd"/><path d="M1746.5 412.452 1865.5 386.455" stroke="#ED7D31" stroke-width="1.00012" stroke-miterlimit="8" fill="none" fill-rule="evenodd"/><path d="M1746.5 464.446 1865.5 283.467" stroke="#ED7D31" stroke-width="1.00012" stroke-miterlimit="8" fill="none" fill-rule="evenodd"/><path d="M1746.5 464.446 1865.5 334.461" stroke="#ED7D31" stroke-width="1.00012" stroke-miterlimit="8" fill="none" fill-rule="evenodd"/><path d="M1746.5 464.445 1865.5 386.455" stroke="#ED7D31" stroke-width="1.00012" stroke-miterlimit="8" fill="none" fill-rule="evenodd"/><path d="M1746.5 515.44 1865.5 283.467" stroke="#ED7D31" stroke-width="1.00012" stroke-miterlimit="8" fill="none" fill-rule="evenodd"/><path d="M1746.5 515.44 1865.5 334.461" stroke="#ED7D31" stroke-width="1.00012" stroke-miterlimit="8" fill="none" fill-rule="evenodd"/><path d="M1746.5 515.44 1865.5 386.455" stroke="#ED7D31" stroke-width="1.00012" stroke-miterlimit="8" fill="none" fill-rule="evenodd"/><path d="M1403.5 308.964C1403.5 315.867 1397.01 321.462 1389 321.462 1380.99 321.462 1374.5 315.867 1374.5 308.964 1374.5 302.061 1380.99 296.465 1389 296.465 1397.01 296.465 1403.5 302.061 1403.5 308.964Z" stroke="#333333" stroke-width="0.666745" stroke-miterlimit="8" fill="#BFBFBF" fill-rule="evenodd"/><path d="M1403.5 360.458C1403.5 367.637 1397.01 373.456 1389 373.456 1380.99 373.456 1374.5 367.637 1374.5 360.458 1374.5 353.279 1380.99 347.459 1389 347.459 1397.01 347.459 1403.5 353.279 1403.5 360.458Z" stroke="#333333" stroke-width="0.666745" stroke-miterlimit="8" fill="#BFBFBF" fill-rule="evenodd"/><path d="M1522.5 154.482C1522.5 161.661 1516.01 167.48 1508 167.48 1499.99 167.48 1493.5 161.661 1493.5 154.482 1493.5 147.303 1499.99 141.483 1508 141.483 1516.01 141.483 1522.5 147.303 1522.5 154.482Z" stroke="#333333" stroke-width="0.666745" stroke-miterlimit="8" fill="#DAE3F3" fill-rule="evenodd"/><path d="M1522.5 205.476C1522.5 212.655 1516.01 218.474 1508 218.474 1499.99 218.474 1493.5 212.655 1493.5 205.476 1493.5 198.297 1499.99 192.477 1508 192.477 1516.01 192.477 1522.5 198.297 1522.5 205.476Z" stroke="#333333" stroke-width="0.666745" stroke-miterlimit="8" fill="#DAE3F3" fill-rule="evenodd"/><path d="M1522.5 257.47C1522.5 264.649 1516.01 270.468 1508 270.468 1499.99 270.468 1493.5 264.649 1493.5 257.47 1493.5 250.291 1499.99 244.471 1508 244.471 1516.01 244.471 1522.5 250.291 1522.5 257.47Z" stroke="#333333" stroke-width="0.666745" stroke-miterlimit="8" fill="#DAE3F3" fill-rule="evenodd"/><path d="M1522.5 308.964C1522.5 315.867 1516.01 321.462 1508 321.462 1499.99 321.462 1493.5 315.867 1493.5 308.964 1493.5 302.061 1499.99 296.465 1508 296.465 1516.01 296.465 1522.5 302.061 1522.5 308.964Z" stroke="#333333" stroke-width="0.666745" stroke-miterlimit="8" fill="#DAE3F3" fill-rule="evenodd"/><path d="M1522.5 360.458C1522.5 367.637 1516.01 373.456 1508 373.456 1499.99 373.456 1493.5 367.637 1493.5 360.458 1493.5 353.279 1499.99 347.459 1508 347.459 1516.01 347.459 1522.5 353.279 1522.5 360.458Z" stroke="#333333" stroke-width="0.666745" stroke-miterlimit="8" fill="#DAE3F3" fill-rule="evenodd"/><path d="M1522.5 412.452C1522.5 419.63 1516.01 425.45 1508 425.45 1499.99 425.45 1493.5 419.63 1493.5 412.452 1493.5 405.273 1499.99 399.453 1508 399.453 1516.01 399.453 1522.5 405.273 1522.5 412.452Z" stroke="#333333" stroke-width="0.666745" stroke-miterlimit="8" fill="#DAE3F3" fill-rule="evenodd"/><path d="M1522.5 463.946C1522.5 470.848 1516.01 476.444 1508 476.444 1499.99 476.444 1493.5 470.848 1493.5 463.946 1493.5 457.043 1499.99 451.447 1508 451.447 1516.01 451.447 1522.5 457.043 1522.5 463.946Z" stroke="#333333" stroke-width="0.666745" stroke-miterlimit="8" fill="#DAE3F3" fill-rule="evenodd"/><path d="M1522.5 515.44C1522.5 522.618 1516.01 528.438 1508 528.438 1499.99 528.438 1493.5 522.618 1493.5 515.44 1493.5 508.261 1499.99 502.441 1508 502.441 1516.01 502.441 1522.5 508.261 1522.5 515.44Z" stroke="#333333" stroke-width="0.666745" stroke-miterlimit="8" fill="#DAE3F3" fill-rule="evenodd"/><path d="M1641.5 102.488C1641.5 109.667 1635.01 115.486 1627 115.486 1618.99 115.486 1612.5 109.667 1612.5 102.488 1612.5 95.3091 1618.99 89.4894 1627 89.4894 1635.01 89.4894 1641.5 95.3091 1641.5 102.488Z" stroke="#333333" stroke-width="0.666745" stroke-miterlimit="8" fill="#8FAADC" fill-rule="evenodd"/><path d="M1641.5 154.482C1641.5 161.661 1635.01 167.48 1627 167.48 1618.99 167.48 1612.5 161.661 1612.5 154.482 1612.5 147.303 1618.99 141.483 1627 141.483 1635.01 141.483 1641.5 147.303 1641.5 154.482Z" stroke="#333333" stroke-width="0.666745" stroke-miterlimit="8" fill="#8FAADC" fill-rule="evenodd"/><path d="M1641.5 205.476C1641.5 212.655 1635.01 218.474 1627 218.474 1618.99 218.474 1612.5 212.655 1612.5 205.476 1612.5 198.297 1618.99 192.477 1627 192.477 1635.01 192.477 1641.5 198.297 1641.5 205.476Z" stroke="#333333" stroke-width="0.666745" stroke-miterlimit="8" fill="#8FAADC" fill-rule="evenodd"/><path d="M1641.5 257.47C1641.5 264.649 1635.01 270.468 1627 270.468 1618.99 270.468 1612.5 264.649 1612.5 257.47 1612.5 250.291 1618.99 244.471 1627 244.471 1635.01 244.471 1641.5 250.291 1641.5 257.47Z" stroke="#333333" stroke-width="0.666745" stroke-miterlimit="8" fill="#8FAADC" fill-rule="evenodd"/><path d="M1641.5 308.964C1641.5 315.867 1635.01 321.462 1627 321.462 1618.99 321.462 1612.5 315.867 1612.5 308.964 1612.5 302.061 1618.99 296.465 1627 296.465 1635.01 296.465 1641.5 302.061 1641.5 308.964Z" stroke="#333333" stroke-width="0.666745" stroke-miterlimit="8" fill="#8FAADC" fill-rule="evenodd"/><path d="M1641.5 360.458C1641.5 367.637 1635.01 373.456 1627 373.456 1618.99 373.456 1612.5 367.637 1612.5 360.458 1612.5 353.279 1618.99 347.459 1627 347.459 1635.01 347.459 1641.5 353.279 1641.5 360.458Z" stroke="#333333" stroke-width="0.666745" stroke-miterlimit="8" fill="#8FAADC" fill-rule="evenodd"/><path d="M1641.5 412.452C1641.5 419.63 1635.01 425.45 1627 425.45 1618.99 425.45 1612.5 419.63 1612.5 412.452 1612.5 405.273 1618.99 399.453 1627 399.453 1635.01 399.453 1641.5 405.273 1641.5 412.452Z" stroke="#333333" stroke-width="0.666745" stroke-miterlimit="8" fill="#8FAADC" fill-rule="evenodd"/><path d="M1641.5 463.946C1641.5 470.848 1635.01 476.444 1627 476.444 1618.99 476.444 1612.5 470.848 1612.5 463.946 1612.5 457.043 1618.99 451.447 1627 451.447 1635.01 451.447 1641.5 457.043 1641.5 463.946Z" stroke="#333333" stroke-width="0.666745" stroke-miterlimit="8" fill="#8FAADC" fill-rule="evenodd"/><path d="M1641.5 515.44C1641.5 522.618 1635.01 528.438 1627 528.438 1618.99 528.438 1612.5 522.618 1612.5 515.44 1612.5 508.261 1618.99 502.441 1627 502.441 1635.01 502.441 1641.5 508.261 1641.5 515.44Z" stroke="#333333" stroke-width="0.666745" stroke-miterlimit="8" fill="#8FAADC" fill-rule="evenodd"/><path d="M1641.5 567.433C1641.5 574.612 1635.01 580.432 1627 580.432 1618.99 580.432 1612.5 574.612 1612.5 567.433 1612.5 560.254 1618.99 554.435 1627 554.435 1635.01 554.435 1641.5 560.254 1641.5 567.433Z" stroke="#333333" stroke-width="0.666745" stroke-miterlimit="8" fill="#8FAADC" fill-rule="evenodd"/><path d="M1760.5 154.482C1760.5 161.661 1754.01 167.48 1746 167.48 1737.99 167.48 1731.5 161.661 1731.5 154.482 1731.5 147.303 1737.99 141.483 1746 141.483 1754.01 141.483 1760.5 147.303 1760.5 154.482Z" stroke="#333333" stroke-width="0.666745" stroke-miterlimit="8" fill="#DAE3F3" fill-rule="evenodd"/><path d="M1760.5 205.476C1760.5 212.655 1754.01 218.474 1746 218.474 1737.99 218.474 1731.5 212.655 1731.5 205.476 1731.5 198.297 1737.99 192.477 1746 192.477 1754.01 192.477 1760.5 198.297 1760.5 205.476Z" stroke="#333333" stroke-width="0.666745" stroke-miterlimit="8" fill="#DAE3F3" fill-rule="evenodd"/><path d="M1760.5 257.47C1760.5 264.649 1754.01 270.468 1746 270.468 1737.99 270.468 1731.5 264.649 1731.5 257.47 1731.5 250.291 1737.99 244.471 1746 244.471 1754.01 244.471 1760.5 250.291 1760.5 257.47Z" stroke="#333333" stroke-width="0.666745" stroke-miterlimit="8" fill="#DAE3F3" fill-rule="evenodd"/><path d="M1760.5 308.964C1760.5 315.867 1754.01 321.462 1746 321.462 1737.99 321.462 1731.5 315.867 1731.5 308.964 1731.5 302.061 1737.99 296.465 1746 296.465 1754.01 296.465 1760.5 302.061 1760.5 308.964Z" stroke="#333333" stroke-width="0.666745" stroke-miterlimit="8" fill="#DAE3F3" fill-rule="evenodd"/><path d="M1760.5 360.458C1760.5 367.637 1754.01 373.456 1746 373.456 1737.99 373.456 1731.5 367.637 1731.5 360.458 1731.5 353.279 1737.99 347.459 1746 347.459 1754.01 347.459 1760.5 353.279 1760.5 360.458Z" stroke="#333333" stroke-width="0.666745" stroke-miterlimit="8" fill="#DAE3F3" fill-rule="evenodd"/><path d="M1760.5 412.452C1760.5 419.63 1754.01 425.45 1746 425.45 1737.99 425.45 1731.5 419.63 1731.5 412.452 1731.5 405.273 1737.99 399.453 1746 399.453 1754.01 399.453 1760.5 405.273 1760.5 412.452Z" stroke="#333333" stroke-width="0.666745" stroke-miterlimit="8" fill="#DAE3F3" fill-rule="evenodd"/><path d="M1760.5 463.946C1760.5 470.848 1754.01 476.444 1746 476.444 1737.99 476.444 1731.5 470.848 1731.5 463.946 1731.5 457.043 1737.99 451.447 1746 451.447 1754.01 451.447 1760.5 457.043 1760.5 463.946Z" stroke="#333333" stroke-width="0.666745" stroke-miterlimit="8" fill="#DAE3F3" fill-rule="evenodd"/><path d="M1760.5 515.44C1760.5 522.618 1754.01 528.438 1746 528.438 1737.99 528.438 1731.5 522.618 1731.5 515.44 1731.5 508.261 1737.99 502.441 1746 502.441 1754.01 502.441 1760.5 508.261 1760.5 515.44Z" stroke="#333333" stroke-width="0.666745" stroke-miterlimit="8" fill="#DAE3F3" fill-rule="evenodd"/><path d="M1880.5 283.467C1880.5 290.646 1874.01 296.465 1866 296.465 1857.99 296.465 1851.5 290.646 1851.5 283.467 1851.5 276.288 1857.99 270.468 1866 270.468 1874.01 270.468 1880.5 276.288 1880.5 283.467Z" stroke="#333333" stroke-width="0.666745" stroke-miterlimit="8" fill="#BFBFBF" fill-rule="evenodd"/><path d="M1880.5 334.461C1880.5 341.64 1874.01 347.459 1866 347.459 1857.99 347.459 1851.5 341.64 1851.5 334.461 1851.5 327.282 1857.99 321.462 1866 321.462 1874.01 321.462 1880.5 327.282 1880.5 334.461Z" stroke="#333333" stroke-width="0.666745" stroke-miterlimit="8" fill="#BFBFBF" fill-rule="evenodd"/><path d="M1880.5 386.455C1880.5 393.633 1874.01 399.453 1866 399.453 1857.99 399.453 1851.5 393.633 1851.5 386.455 1851.5 379.276 1857.99 373.456 1866 373.456 1874.01 373.456 1880.5 379.276 1880.5 386.455Z" stroke="#333333" stroke-width="0.666745" stroke-miterlimit="8" fill="#BFBFBF" fill-rule="evenodd"/><text font-family="Cambria Math,Cambria Math_MSFontService,sans-serif" font-weight="400" font-size="38.9867" transform="matrix(1 0 0 0.999883 751.756 289)">𝑥</text><text font-family="Cambria Math,Cambria Math_MSFontService,sans-serif" font-weight="400" font-size="28.4603" transform="matrix(1 0 0 0.999883 772.045 297)">𝑡</text><text font-family="Cambria Math,Cambria Math_MSFontService,sans-serif" font-weight="400" font-size="38.9867" transform="matrix(1 0 0 0.999883 797.768 289)">=</text><path d="M117.722 8.96668 123.052 8.96668 123.052 8.99894 159.981 8.99894 159.981 11.9986 121.986 11.9986 121.986 11.4982 119.245 11.4982 106.873 57.3707 105.027 57.3707 97.1464 40.4303 93.9296 41.8578 93.3395 40.4303 99.5828 37.5751 106.169 52.2695Z" fill-rule="evenodd" transform="matrix(1.00012 0 0 1 745.088 245.091)"/><text font-family="Cambria Math,Cambria Math_MSFontService,sans-serif" font-weight="400" font-size="38.9867" transform="matrix(1 0 0 0.999883 866.729 289)">𝛼</text><text font-family="Cambria Math,Cambria Math_MSFontService,sans-serif" font-weight="400" font-size="28.4603" transform="matrix(1 0 0 0.999883 890.065 297)">𝑡</text><path d="M121.64 19.1932 132.353 19.1932 138.409 19.1932 143.06 19.1932 149.123 19.1932 159.829 19.1932 159.829 21.2109 149.123 21.2109 143.06 21.2109 138.409 21.2109 132.353 21.2109 121.64 21.2109Z" fill-rule="evenodd" transform="matrix(1.00012 0 0 1 745.088 245.091)"/><text font-family="Cambria Math,Cambria Math_MSFontService,sans-serif" font-weight="400" font-size="38.9867" transform="matrix(1 0 0 0.999883 913.622 289)">∙</text><text font-family="Cambria Math,Cambria Math_MSFontService,sans-serif" font-weight="400" font-size="38.9867" transform="matrix(1 0 0 0.999883 933.291 289)">𝑥</text><text font-family="Cambria Math,Cambria Math_MSFontService,sans-serif" font-weight="400" font-size="28.4603" transform="matrix(1 0 0 0.999883 953.58 297)">0</text><text font-family="Cambria Math,Cambria Math_MSFontService,sans-serif" font-weight="400" font-size="38.9867" transform="matrix(1 0 0 0.999883 980.369 289)">+</text><path d="M301.965 7.99906 407.952 7.99906 407.952 10.9987 301.965 10.9987 301.965 10.7583 299.658 10.7583 287.286 56.6308 285.44 56.6308 277.56 39.6903 274.343 41.1179 273.753 39.6903 279.996 36.8352 286.582 51.5296 298.136 8.22677 301.965 8.22677Z" fill-rule="evenodd" transform="matrix(1.00012 0 0 1 745.088 245.091)"/><text font-family="Cambria Math,Cambria Math_MSFontService,sans-serif" font-weight="400" font-size="38.9867" transform="matrix(1 0 0 0.999883 1047.16 289)">1</text><text font-family="Cambria Math,Cambria Math_MSFontService,sans-serif" font-weight="400" font-size="38.9867" transform="matrix(1 0 0 0.999883 1077.5 289)">−</text><text font-family="Cambria Math,Cambria Math_MSFontService,sans-serif" font-weight="400" font-size="38.9867" transform="matrix(1 0 0 0.999883 1115.34 289)">𝛼</text><text font-family="Cambria Math,Cambria Math_MSFontService,sans-serif" font-weight="400" font-size="28.4603" transform="matrix(1 0 0 0.999883 1138.67 297)">𝑡</text><path d="M370.22 19.1932 380.933 19.1932 386.989 19.1932 391.64 19.1932 397.703 19.1932 408.409 19.1932 408.409 21.2109 397.703 21.2109 391.64 21.2109 386.989 21.2109 380.933 21.2109 370.22 21.2109Z" fill-rule="evenodd" transform="matrix(1.00012 0 0 1 745.088 245.091)"/><text font-family="Cambria Math,Cambria Math_MSFontService,sans-serif" font-weight="400" font-size="38.9867" transform="matrix(1 0 0 0.999883 1162.23 289)">∙</text><text font-family="Cambria Math,Cambria Math_MSFontService,sans-serif" font-weight="400" font-size="38.9867" transform="matrix(1 0 0 0.999883 1181.9 289)">𝜖</text></g></svg>