<svg width="969" height="362" xmlns="http://www.w3.org/2000/svg" xmlns:xlink="http://www.w3.org/1999/xlink" overflow="hidden"><g transform="translate(-56 -115)"><rect x="137.5" y="167.5" width="88" height="39" stroke="#042433" stroke-width="0.666667" stroke-miterlimit="8" fill="#F6C6AD"/><text font-family="DengXian,DengXian_MSFontService,sans-serif" font-weight="400" font-size="24" transform="translate(160.917 194)">mol</text><rect x="273.5" y="155.5" width="16" height="16" stroke="#042433" stroke-width="0.333333" stroke-miterlimit="8" fill="#FBE3D6"/><rect x="289.5" y="155.5" width="16" height="16" stroke="#042433" stroke-width="0.333333" stroke-miterlimit="8" fill="#E97132"/><rect x="305.5" y="155.5" width="16" height="16" stroke="#042433" stroke-width="0.333333" stroke-miterlimit="8" fill="#FBE3D6"/><rect x="321.5" y="155.5" width="16" height="16" stroke="#042433" stroke-width="0.333333" stroke-miterlimit="8" fill="#FBE3D6"/><rect x="337.5" y="155.5" width="16" height="16" stroke="#042433" stroke-width="0.333333" stroke-miterlimit="8" fill="#E97132"/><rect x="353.5" y="155.5" width="16" height="16" stroke="#042433" stroke-width="0.333333" stroke-miterlimit="8" fill="#FBE3D6"/><rect x="369.5" y="155.5" width="16" height="16" stroke="#042433" stroke-width="0.333333" stroke-miterlimit="8" fill="#FBE3D6"/><rect x="273.5" y="171.5" width="16" height="16" stroke="#042433" stroke-width="0.333333" stroke-miterlimit="8" fill="#E97132"/><rect x="289.5" y="171.5" width="16" height="16" stroke="#042433" stroke-width="0.333333" stroke-miterlimit="8" fill="#FBE3D6"/><rect x="305.5" y="171.5" width="16" height="16" stroke="#042433" stroke-width="0.333333" stroke-miterlimit="8" fill="#E97132"/><rect x="321.5" y="171.5" width="16" height="16" stroke="#042433" stroke-width="0.333333" stroke-miterlimit="8" fill="#FBE3D6"/><rect x="337.5" y="171.5" width="16" height="16" stroke="#042433" stroke-width="0.333333" stroke-miterlimit="8" fill="#FBE3D6"/><rect x="353.5" y="171.5" width="16" height="16" stroke="#042433" stroke-width="0.333333" stroke-miterlimit="8" fill="#FBE3D6"/><rect x="369.5" y="171.5" width="16" height="16" stroke="#042433" stroke-width="0.333333" stroke-miterlimit="8" fill="#E97132"/><rect x="273.5" y="187.5" width="16" height="16" stroke="#042433" stroke-width="0.333333" stroke-miterlimit="8" fill="#E97132"/><rect x="289.5" y="187.5" width="16" height="16" stroke="#042433" stroke-width="0.333333" stroke-miterlimit="8" fill="#FBE3D6"/><rect x="305.5" y="187.5" width="16" height="16" stroke="#042433" stroke-width="0.333333" stroke-miterlimit="8" fill="#FBE3D6"/><rect x="321.5" y="187.5" width="16" height="16" stroke="#042433" stroke-width="0.333333" stroke-miterlimit="8" fill="#FBE3D6"/><rect x="337.5" y="187.5" width="16" height="16" stroke="#042433" stroke-width="0.333333" stroke-miterlimit="8" fill="#E97132"/><rect x="353.5" y="187.5" width="16" height="16" stroke="#042433" stroke-width="0.333333" stroke-miterlimit="8" fill="#FBE3D6"/><rect x="369.5" y="187.5" width="16" height="16" stroke="#042433" stroke-width="0.333333" stroke-miterlimit="8" fill="#FBE3D6"/><rect x="273.5" y="203.5" width="16" height="16" stroke="#042433" stroke-width="0.333333" stroke-miterlimit="8" fill="#E97132"/><rect x="289.5" y="203.5" width="16" height="16" stroke="#042433" stroke-width="0.333333" stroke-miterlimit="8" fill="#E97132"/><rect x="305.5" y="203.5" width="16" height="16" stroke="#042433" stroke-width="0.333333" stroke-miterlimit="8" fill="#FBE3D6"/><rect x="321.5" y="203.5" width="16" height="16" stroke="#042433" stroke-width="0.333333" stroke-miterlimit="8" fill="#FBE3D6"/><rect x="337.5" y="203.5" width="16" height="16" stroke="#042433" stroke-width="0.333333" stroke-miterlimit="8" fill="#FBE3D6"/><rect x="353.5" y="203.5" width="16" height="16" stroke="#042433" stroke-width="0.333333" stroke-miterlimit="8" fill="#FBE3D6"/><rect x="369.5" y="203.5" width="16" height="16" stroke="#042433" stroke-width="0.333333" stroke-miterlimit="8" fill="#E97132"/><path d="M434.5 130.5 494.5 152.093 494.5 216.907 434.5 238.5Z" stroke="#042433" stroke-width="0.666667" stroke-miterlimit="8" fill="#C1E5F5" fill-rule="evenodd"/><text font-family="DengXian,DengXian_MSFontService,sans-serif" font-weight="400" font-size="19" transform="matrix(6.12323e-17 1 -1 6.12323e-17 454.412 156)">编码器</text><path d="M691.5 238.5 631.5 216.907 631.5 152.093 691.5 130.5Z" stroke="#042433" stroke-width="0.666667" stroke-miterlimit="8" fill="#C1E5F5" fill-rule="evenodd"/><text font-family="DengXian,DengXian_MSFontService,sans-serif" font-weight="400" font-size="19" transform="matrix(-1.83697e-16 -1 1 -1.83697e-16 671.004 212)">解码器</text><rect x="546.5" y="116.5" width="33" height="126" stroke="#042433" stroke-width="0.666667" stroke-miterlimit="8" fill="#C1E5F5"/><text font-family="DengXian,DengXian_MSFontService,sans-serif" font-weight="400" font-size="24" transform="translate(556.875 186)">z</text><path d="M395 183 419.667 183 419.667 185 395 185ZM418.333 180 426.333 184 418.333 188Z" fill="#156082"/><path d="M506 183 530.667 183 530.667 185 506 185ZM529.333 180 537.333 184 529.333 188Z" fill="#156082"/><path d="M589 183 613.667 183 613.667 185 589 185ZM612.333 180 620.333 184 612.333 188Z" fill="#156082"/><rect x="736.5" y="155.5" width="16" height="16" stroke="#042433" stroke-width="0.333333" stroke-miterlimit="8" fill="#D9F2D0"/><rect x="752.5" y="155.5" width="16" height="16" stroke="#042433" stroke-width="0.333333" stroke-miterlimit="8" fill="#196B24"/><rect x="768.5" y="155.5" width="16" height="16" stroke="#042433" stroke-width="0.333333" stroke-miterlimit="8" fill="#D9F2D0"/><rect x="784.5" y="155.5" width="16" height="16" stroke="#042433" stroke-width="0.333333" stroke-miterlimit="8" fill="#D9F2D0"/><rect x="800.5" y="155.5" width="16" height="16" stroke="#042433" stroke-width="0.333333" stroke-miterlimit="8" fill="#196B24"/><rect x="816.5" y="155.5" width="16" height="16" stroke="#042433" stroke-width="0.333333" stroke-miterlimit="8" fill="#D9F2D0"/><rect x="832.5" y="155.5" width="16" height="16" stroke="#042433" stroke-width="0.333333" stroke-miterlimit="8" fill="#196B24"/><rect x="736.5" y="171.5" width="16" height="16" stroke="#042433" stroke-width="0.333333" stroke-miterlimit="8" fill="#D9F2D0"/><rect x="752.5" y="171.5" width="16" height="16" stroke="#042433" stroke-width="0.333333" stroke-miterlimit="8" fill="#D9F2D0"/><rect x="768.5" y="171.5" width="16" height="16" stroke="#042433" stroke-width="0.333333" stroke-miterlimit="8" fill="#D9F2D0"/><rect x="784.5" y="171.5" width="16" height="16" stroke="#042433" stroke-width="0.333333" stroke-miterlimit="8" fill="#196B24"/><rect x="800.5" y="171.5" width="16" height="16" stroke="#042433" stroke-width="0.333333" stroke-miterlimit="8" fill="#D9F2D0"/><rect x="816.5" y="171.5" width="16" height="16" stroke="#042433" stroke-width="0.333333" stroke-miterlimit="8" fill="#196B24"/><rect x="832.5" y="171.5" width="16" height="16" stroke="#042433" stroke-width="0.333333" stroke-miterlimit="8" fill="#D9F2D0"/><rect x="736.5" y="187.5" width="16" height="16" stroke="#042433" stroke-width="0.333333" stroke-miterlimit="8" fill="#196B24"/><rect x="752.5" y="187.5" width="16" height="16" stroke="#042433" stroke-width="0.333333" stroke-miterlimit="8" fill="#D9F2D0"/><rect x="768.5" y="187.5" width="16" height="16" stroke="#042433" stroke-width="0.333333" stroke-miterlimit="8" fill="#D9F2D0"/><rect x="784.5" y="187.5" width="16" height="16" stroke="#042433" stroke-width="0.333333" stroke-miterlimit="8" fill="#D9F2D0"/><rect x="800.5" y="187.5" width="16" height="16" stroke="#042433" stroke-width="0.333333" stroke-miterlimit="8" fill="#D9F2D0"/><rect x="816.5" y="187.5" width="16" height="16" stroke="#042433" stroke-width="0.333333" stroke-miterlimit="8" fill="#D9F2D0"/><rect x="832.5" y="187.5" width="16" height="16" stroke="#042433" stroke-width="0.333333" stroke-miterlimit="8" fill="#D9F2D0"/><rect x="736.5" y="203.5" width="16" height="16" stroke="#042433" stroke-width="0.333333" stroke-miterlimit="8" fill="#D9F2D0"/><rect x="752.5" y="203.5" width="16" height="16" stroke="#042433" stroke-width="0.333333" stroke-miterlimit="8" fill="#D9F2D0"/><rect x="768.5" y="203.5" width="16" height="16" stroke="#042433" stroke-width="0.333333" stroke-miterlimit="8" fill="#196B24"/><rect x="784.5" y="203.5" width="16" height="16" stroke="#042433" stroke-width="0.333333" stroke-miterlimit="8" fill="#D9F2D0"/><rect x="800.5" y="203.5" width="16" height="16" stroke="#042433" stroke-width="0.333333" stroke-miterlimit="8" fill="#D9F2D0"/><rect x="816.5" y="203.5" width="16" height="16" stroke="#042433" stroke-width="0.333333" stroke-miterlimit="8" fill="#D9F2D0"/><rect x="832.5" y="203.5" width="16" height="16" stroke="#042433" stroke-width="0.333333" stroke-miterlimit="8" fill="#196B24"/><path d="M698 183 722.667 183 722.667 185 698 185ZM721.333 180 729.333 184 721.333 188Z" fill="#156082"/><path d="M235 183 259.667 183 259.667 185 235 185ZM258.333 180 266.333 184 258.333 188Z" fill="#156082"/><path d="M858 183 882.667 183 882.667 185 858 185ZM881.333 180 889.333 184 881.333 188Z" fill="#156082"/><rect x="899.5" y="167.5" width="88" height="39" stroke="#042433" stroke-width="0.666667" stroke-miterlimit="8" fill="#C2F1C8"/><text font-family="DengXian,DengXian_MSFontService,sans-serif" font-weight="400" font-size="24" transform="translate(922.972 194)">mol</text><text font-family="DengXian,DengXian_MSFontService,sans-serif" font-weight="400" font-size="19" transform="translate(264.109 263)">输入特征矩阵</text><text font-family="DengXian,DengXian_MSFontService,sans-serif" font-weight="400" font-size="19" transform="translate(737.424 263)">输出特征矩阵</text><path d="M691.5 435.5 631.5 413.907 631.5 349.093 691.5 327.5Z" stroke="#042433" stroke-width="0.666667" stroke-miterlimit="8" fill="#C1E5F5" fill-rule="evenodd"/><text font-family="DengXian,DengXian_MSFontService,sans-serif" font-weight="400" font-size="19" transform="matrix(-1.83697e-16 -1 1 -1.83697e-16 671.004 409)">解码器</text><path d="M589 380 613.667 380 613.667 382 589 382ZM612.333 377 620.333 381 612.333 385Z" fill="#156082"/><rect x="736.5" y="351.5" width="16" height="16" stroke="#042433" stroke-width="0.333333" stroke-miterlimit="8" fill="#D9F2D0"/><rect x="752.5" y="351.5" width="16" height="16" stroke="#042433" stroke-width="0.333333" stroke-miterlimit="8" fill="#196B24"/><rect x="768.5" y="351.5" width="16" height="16" stroke="#042433" stroke-width="0.333333" stroke-miterlimit="8" fill="#D9F2D0"/><rect x="784.5" y="351.5" width="16" height="16" stroke="#042433" stroke-width="0.333333" stroke-miterlimit="8" fill="#D9F2D0"/><rect x="800.5" y="351.5" width="16" height="16" stroke="#042433" stroke-width="0.333333" stroke-miterlimit="8" fill="#196B24"/><rect x="816.5" y="351.5" width="16" height="16" stroke="#042433" stroke-width="0.333333" stroke-miterlimit="8" fill="#D9F2D0"/><rect x="832.5" y="351.5" width="16" height="16" stroke="#042433" stroke-width="0.333333" stroke-miterlimit="8" fill="#196B24"/><rect x="736.5" y="367.5" width="16" height="16" stroke="#042433" stroke-width="0.333333" stroke-miterlimit="8" fill="#D9F2D0"/><rect x="752.5" y="367.5" width="16" height="16" stroke="#042433" stroke-width="0.333333" stroke-miterlimit="8" fill="#D9F2D0"/><rect x="768.5" y="367.5" width="16" height="16" stroke="#042433" stroke-width="0.333333" stroke-miterlimit="8" fill="#D9F2D0"/><rect x="784.5" y="367.5" width="16" height="16" stroke="#042433" stroke-width="0.333333" stroke-miterlimit="8" fill="#196B24"/><rect x="800.5" y="367.5" width="16" height="16" stroke="#042433" stroke-width="0.333333" stroke-miterlimit="8" fill="#D9F2D0"/><rect x="816.5" y="367.5" width="16" height="16" stroke="#042433" stroke-width="0.333333" stroke-miterlimit="8" fill="#196B24"/><rect x="832.5" y="367.5" width="16" height="16" stroke="#042433" stroke-width="0.333333" stroke-miterlimit="8" fill="#D9F2D0"/><rect x="736.5" y="383.5" width="16" height="16" stroke="#042433" stroke-width="0.333333" stroke-miterlimit="8" fill="#196B24"/><rect x="752.5" y="383.5" width="16" height="16" stroke="#042433" stroke-width="0.333333" stroke-miterlimit="8" fill="#D9F2D0"/><rect x="768.5" y="383.5" width="16" height="16" stroke="#042433" stroke-width="0.333333" stroke-miterlimit="8" fill="#D9F2D0"/><rect x="784.5" y="383.5" width="16" height="16" stroke="#042433" stroke-width="0.333333" stroke-miterlimit="8" fill="#D9F2D0"/><rect x="800.5" y="383.5" width="16" height="16" stroke="#042433" stroke-width="0.333333" stroke-miterlimit="8" fill="#D9F2D0"/><rect x="816.5" y="383.5" width="16" height="16" stroke="#042433" stroke-width="0.333333" stroke-miterlimit="8" fill="#D9F2D0"/><rect x="832.5" y="383.5" width="16" height="16" stroke="#042433" stroke-width="0.333333" stroke-miterlimit="8" fill="#D9F2D0"/><rect x="736.5" y="399.5" width="16" height="16" stroke="#042433" stroke-width="0.333333" stroke-miterlimit="8" fill="#D9F2D0"/><rect x="752.5" y="399.5" width="16" height="16" stroke="#042433" stroke-width="0.333333" stroke-miterlimit="8" fill="#D9F2D0"/><rect x="768.5" y="399.5" width="16" height="16" stroke="#042433" stroke-width="0.333333" stroke-miterlimit="8" fill="#196B24"/><rect x="784.5" y="399.5" width="16" height="16" stroke="#042433" stroke-width="0.333333" stroke-miterlimit="8" fill="#D9F2D0"/><rect x="800.5" y="399.5" width="16" height="16" stroke="#042433" stroke-width="0.333333" stroke-miterlimit="8" fill="#D9F2D0"/><rect x="816.5" y="399.5" width="16" height="16" stroke="#042433" stroke-width="0.333333" stroke-miterlimit="8" fill="#D9F2D0"/><rect x="832.5" y="399.5" width="16" height="16" stroke="#042433" stroke-width="0.333333" stroke-miterlimit="8" fill="#196B24"/><path d="M698 380 722.667 380 722.667 382 698 382ZM721.333 377 729.333 381 721.333 385Z" fill="#156082"/><path d="M858 380 882.667 380 882.667 382 858 382ZM881.333 377 889.333 381 881.333 385Z" fill="#156082"/><rect x="899.5" y="364.5" width="88" height="39" stroke="#042433" stroke-width="0.666667" stroke-miterlimit="8" fill="#C2F1C8"/><text font-family="DengXian,DengXian_MSFontService,sans-serif" font-weight="400" font-size="24" transform="translate(922.972 391)">mol</text><text font-family="DengXian,DengXian_MSFontService,sans-serif" font-weight="400" font-size="19" transform="translate(737.424 460)">输出特征矩阵</text><rect x="484.5" y="361.5" width="88" height="39" stroke="#042433" stroke-width="0.666667" stroke-miterlimit="8" fill="#F2F2F2"/><text font-family="DengXian,DengXian_MSFontService,sans-serif" font-weight="400" font-size="16" transform="translate(495.639 386)">高斯采样</text><path d="M57 311 1023.22 311" stroke="#000000" stroke-width="2" stroke-miterlimit="8" fill="none" fill-rule="evenodd"/><text font-family="DengXian,DengXian_MSFontService,sans-serif" font-weight="400" font-size="24" transform="translate(77.5722 170)">训</text><text font-family="DengXian,DengXian_MSFontService,sans-serif" font-weight="400" font-size="24" transform="translate(77.5722 199)">练</text><text font-family="DengXian,DengXian_MSFontService,sans-serif" font-weight="400" font-size="24" transform="translate(77.5722 228)">流</text><text font-family="DengXian,DengXian_MSFontService,sans-serif" font-weight="400" font-size="24" transform="translate(77.5722 257)">程</text><text font-family="DengXian,DengXian_MSFontService,sans-serif" font-weight="400" font-size="24" transform="translate(77.5722 351)">推</text><text font-family="DengXian,DengXian_MSFontService,sans-serif" font-weight="400" font-size="24" transform="translate(77.5722 380)">理</text><text font-family="DengXian,DengXian_MSFontService,sans-serif" font-weight="400" font-size="24" transform="translate(77.5722 409)">流</text><text font-family="DengXian,DengXian_MSFontService,sans-serif" font-weight="400" font-size="24" transform="translate(77.5722 438)">程</text></g></svg>