<?xml version="1.0" encoding="UTF-8"?>
<svg id="_图层_1" data-name="图层 1" xmlns="http://www.w3.org/2000/svg" viewBox="0 0 1380.52 269.22">
  <defs>
    <style>
      .cls-1, .cls-2, .cls-3, .cls-4, .cls-5, .cls-6, .cls-7, .cls-8, .cls-9, .cls-10, .cls-11, .cls-12, .cls-13, .cls-14 {
        fill: none;
      }

      .cls-1, .cls-2, .cls-4, .cls-5, .cls-6, .cls-7, .cls-8, .cls-9, .cls-10, .cls-11, .cls-12, .cls-13, .cls-14 {
        stroke-miterlimit: 8;
      }

      .cls-1, .cls-4, .cls-14 {
        stroke-width: 2.25px;
      }

      .cls-1, .cls-10 {
        stroke: #c0bfbf;
      }

      .cls-15, .cls-16 {
        fill: #040000;
      }

      .cls-2 {
        stroke: #040000;
      }

      .cls-17 {
        fill: #fff;
      }

      .cls-18 {
        fill: #c1dbb1;
      }

      .cls-18, .cls-19, .cls-20, .cls-21, .cls-16, .cls-22, .cls-23, .cls-24, .cls-25, .cls-26 {
        fill-rule: evenodd;
      }

      .cls-19 {
        fill: #abb7c7;
      }

      .cls-3 {
        stroke-linejoin: round;
        stroke-width: .75px;
      }

      .cls-3, .cls-8, .cls-12 {
        stroke: #406cb4;
      }

      .cls-20 {
        fill: #edad81;
      }

      .cls-4 {
        stroke: #a6a6a6;
      }

      .cls-21 {
        fill: #c0bfbf;
      }

      .cls-5 {
        stroke: #e37933;
      }

      .cls-6 {
        stroke: #edad81;
      }

      .cls-6, .cls-7, .cls-10 {
        stroke-width: 1.5px;
      }

      .cls-7, .cls-13, .cls-14 {
        stroke: #f5ba1a;
      }

      .cls-22 {
        fill: #f2f2f2;
      }

      .cls-23 {
        fill: #f5ba1a;
      }

      .cls-24 {
        fill: #b2c3e2;
      }

      .cls-9 {
        stroke: #142b4f;
      }

      .cls-11 {
        stroke: #5893c9;
      }

      .cls-12 {
        stroke-width: 6px;
      }

      .cls-25 {
        fill: #a6a6a6;
      }

      .cls-26 {
        fill: #406cb4;
      }

      .cls-13 {
        stroke-width: 3px;
      }

      .cls-27 {
        fill: #d8e1f1;
      }
    </style>
  </defs>
  <polygon class="cls-26" points="666.54 107.94 722.22 130.42 722.22 184.57 666.54 207.06 666.54 107.94 666.54 107.94"/>
  <polygon class="cls-9" points="666.54 107.94 722.22 130.42 722.22 184.57 666.54 207.06 666.54 107.94 666.54 107.94"/>
  <path class="cls-17" d="M682.8,135.48c1.83,1.95,4.68,2.93,8.57,2.94h2.65c.67,0,1.17-.04,1.49-.11-.07.33-.11.82-.11,1.46v2.75c.8-.72,1.47-1.44,2.01-2.15l.76.83c-.74.88-1.44,1.64-2.1,2.27l-.67-.7v2.45c0,.54.04.99.11,1.36-.25-.05-.64-.07-1.17-.07h-1.91c-.52-.01-.88.01-1.1.07.07-.35.11-.79.11-1.33v-5.85h-1.56v6.27c0,.61.04,1.09.11,1.44-.34-.08-.86-.11-1.56-.11h-5.22c-.86.06-1.36-.35-1.49-1.24-.04-.17-.09-.48-.16-.94-.04-.22-.06-.37-.07-.45.5-.06.94-.24,1.31-.54-.01.24-.03.49-.05.76-.01.07-.02.11-.02.12-.01.86.23,1.29.71,1.29.05,0,.09,0,.13,0h2.31v-1.66h-1.27c-.59,0-1.02.04-1.31.11v-1.15c.38.08.82.11,1.31.11h1.27v-1.42h-1.27c-.57,0-1.02.04-1.34.11v-1.15c.31.07.76.11,1.34.11h1.27v-1.36h-2.9c-.65,0-1.15.04-1.51.11v-1.19c.4.07.9.11,1.49.11h3.09c-1.32-.54-2.57-1.17-3.74-1.91.22-.41.38-.85.48-1.31ZM684.74,131.45c.21,1.75.6,3.57,1.17,5.45-.33-.08-.71-.15-1.15-.19-.06-.24-.16-.62-.27-1.13-.43-1.91-.77-3.12-1.01-3.64.57-.19,1-.35,1.27-.48ZM689.02,139.67h-2.27v1.36h2.27v-1.36ZM689.02,141.98h-2.27v1.42h2.27v-1.42ZM689.02,144.33h-2.27v1.66h2.27v-1.66ZM698,134.65l-.65,1.28c-.07.13-.13.19-.18.18s-.09-.09-.11-.23c-.11-.33-.42-.61-.93-.85-1.2-.55-2.36-1.2-3.47-1.94.06,1.36.11,2.22.14,2.59.83.5,1.59.85,2.29,1.05l-.59,1.06c-.12.22-.21.33-.27.33-.06.01-.13-.09-.22-.31-.15-.3-.52-.62-1.1-.96-1.27-.72-2.84-1.81-4.71-3.28.02.13.05.35.09.65.19,1.57.39,2.66.6,3.26-.36-.12-.76-.21-1.18-.25-.25-2.27-.51-3.89-.77-4.86.4-.11.79-.24,1.17-.4.13.3.26.52.38.67.98.93,2.13,1.74,3.43,2.44-.04-1.26-.18-2.23-.41-2.91.02-.01.06-.03.12-.05.29-.15.57-.3.84-.47.32.41.57.67.74.77,2.12,1.14,3.72,1.89,4.81,2.23ZM694.58,139.4h-2.3v6.1h2.3v-6.1Z"/>
  <path class="cls-17" d="M696.92,163.99c-.74-.15-1.48-.26-2.2-.34-1.89-.18-3.66-.31-5.29-.4v.48c0,.41.04.94.11,1.58-.61-.07-1.62-.15-3.02-.24-1.55-.09-2.57-.18-3.08-.25-1.04.09-1.7-.88-1.96-2.94.54-.08,1-.31,1.39-.69-.05.45-.07.81-.07,1.09,0,.46.05.8.16,1,.13.35.5.54,1.12.59.24.02,1.62.12,4.14.29.15.01.26.02.33.02v-4.9c0-.25-.04-.82-.11-1.71.11.02.28.05.49.09.47.09.79.15.97.16l3.19.34c.56.05,1.04.08,1.44.08.13,0,.26,0,.38,0l-.29,1.35c-.04.17-.07.26-.11.27-.04.02-.1-.03-.17-.15-.11-.28-.56-.45-1.35-.52l-3.54-.4v3.37l6.5.5v-4.33c-.01-.45-.05-.95-.11-1.51h1.12c-.07.66-.11,1.16-.11,1.51v3.88c0,.3.03.88.09,1.75ZM688.3,148.98c1.71,1.9,4.02,3.11,6.95,3.63v-1.53c-.02-.4-.06-.9-.11-1.48h1.12c-.07.56-.11,1.05-.11,1.48v3.67c.01.32.05.83.11,1.51h-1.12c.08-.66.11-1.17.11-1.51v-1.06c-1.35-.26-2.69-.66-4.03-1.19v1.67c0,.38.04.94.11,1.7-.53-.06-1.03-.09-1.51-.11h-4.91c-.39.01-.96.05-1.71.11v-1.2c.32.04.71.06,1.2.09v-2.45h-.22c-.38.01-.86.05-1.46.11v-1.23c.65.08,1.14.11,1.46.11h4.95c-.35-.21-.86-.57-1.55-1.08.38-.32.62-.74.74-1.24ZM690.31,152.3h-5.04v2.45h5.04v-2.45ZM685.29,156.54h1.12c-.06.6-.09,1.11-.11,1.55v3.44c0,.39.04.89.11,1.51h-1.12c.06-.62.09-1.12.11-1.51v-3.44c0-.35-.04-.87-.11-1.55Z"/>
  <path class="cls-17" d="M688.64,167.05c-.01.33-.02.57-.02.74,0,2.74.58,4.83,1.75,6.29v-4.68c0-.76-.04-1.37-.13-1.85h1.1c-.07.47-.11,1.09-.11,1.85v5.17c.52.12.98.18,1.37.18.19,0,.37-.01.54-.04l-.33,1.3c-.02.09-.06.14-.11.14-.04,0-.09-.05-.17-.14-.09-.1-.21-.17-.34-.22-.2-.05-.52-.13-.97-.25v3.84c.53-.76.85-1.33.97-1.73l.87.58c-.25.49-.64,1.15-1.15,1.98l-.69-.51v1.25c0,.76.04,1.39.11,1.91h-1.1c.09-.54.13-1.18.13-1.92v-4.21c-1.28,2.57-1.88,4.95-1.82,7.15-.47-.41-.91-.62-1.34-.62.11-.69.23-1.27.36-1.75h-3.85c-.49-.01-1,.03-1.53.11v-1.2c.31.09.63.13.97.11v-3.44c-.38-.02-.74.02-1.08.11v-1.19c.56.08,1.02.12,1.39.11h3.16c.35.01.74-.02,1.19-.11-.09.4-.13.79-.11,1.17v3.83c.54-2.11,1.37-4.04,2.47-5.79-1.19-.89-2-2.67-2.43-5.35v3.3c-.02.32.02.75.11,1.27-.39-.08-.78-.12-1.19-.11h-3.12c-.42-.01-.88.02-1.4.11v-1.19c.35.09.69.13,1.02.11v-3.23c-.38-.01-.76.02-1.15.11v-1.19c.45.08.93.12,1.46.11h4.17c-.08-.48-.14-1.01-.18-1.58.3-.07.69-.25,1.17-.54ZM686.87,170.15h-2.87v3.23h2.87v-3.23ZM686.84,177.1h-2.84v3.44h2.84v-3.44ZM697.54,169.2c-.09.46-.13.86-.11,1.21v2.84c-.01.4.03.82.11,1.27-.43-.09-.86-.13-1.27-.11h-1.98c-.36-.01-.78.03-1.26.11.08-.5.12-.93.11-1.28v-2.8c.01-.34-.02-.75-.11-1.23.36.09.73.13,1.12.11h2.27c.31.01.68-.03,1.12-.11ZM697.54,176.32c-.09.48-.13.87-.11,1.16v3.02c-.01.3.03.68.11,1.15-.42-.09-.84-.13-1.25-.11h-2.08c-.34-.01-.73.03-1.17.11.08-.46.12-.87.11-1.23v-2.93c.01-.34-.02-.73-.11-1.18.36.09.72.13,1.08.11h2.27c.36.01.74-.03,1.15-.11ZM696.56,170.29h-2.56v3.16h2.56v-3.16ZM696.56,177.4h-2.56v3.17h2.56v-3.17Z"/>
  <line class="cls-12" x1="614.46" y1="158.22" x2="651.5" y2="158.22"/>
  <polygon class="cls-26" points="648.5 149.21 666.5 158.22 648.5 167.21 648.5 149.21 648.5 149.21"/>
  <rect class="cls-27" x="554.34" y="128.58" width="56.28" height="56.4" rx="9.38" ry="9.38"/>
  <path class="cls-15" d="M568.03,138l1.28.43c.18.06.26.12.26.17s-.08.12-.25.23c-.18.11-.34.36-.48.74-.14.4-.27.81-.4,1.25h1.64c.32,0,.79-.04,1.42-.11v1.08c-.56-.06-1.03-.09-1.42-.11h-1.93c-.59,1.65-1.17,3.15-1.76,4.52h1.76v-1.51c-.01-.47-.05-1.04-.11-1.71l1.3.21c.18.02.26.06.26.11.01.05-.05.15-.19.29-.19.18-.29.49-.29.92v1.69h.41c.36-.01.84-.05,1.42-.11v1.08c-.67-.08-1.15-.11-1.42-.11h-.41v2.61c.83-.18,1.49-.37,1.98-.57-.06.31-.09.71-.11,1.2-.7.11-1.32.21-1.87.33v2.21c0,.32.04.83.11,1.53h-1.19c.06-.63.09-1.14.11-1.53v-2c-.08.03-.2.06-.35.1-.87.22-1.68.43-2.43.64l-.48-1.12c.93-.07,2.02-.26,3.27-.57v-2.83h-1.43c-.42,0-.83.07-1.23.2-.16-.39-.34-.74-.54-1.06.32-.08.63-.45.91-1.12.46-.94.87-2.07,1.23-3.4h-.67c-.36,0-.83.04-1.39.11v-1.08c.53.06.99.1,1.39.11h.91c.28-.93.5-1.86.69-2.81ZM569.59,143.81c2.19-1.2,3.93-3.19,5.22-5.96l1.27.34c.12.04.18.08.18.12,0,.04-.07.09-.22.17-.08.05-.16.11-.23.18,1.26,2.19,3.16,3.61,5.7,4.26-.45.3-.79.65-1.03,1.03-2.31-1.11-4.07-2.63-5.26-4.55-1.54,2.22-3.03,3.94-4.48,5.15-.36-.3-.74-.54-1.15-.74ZM574.62,152.54v-1.58h-2.11v1.89c.01.38.05.9.11,1.56h-1.12c.06-.66.1-1.18.11-1.56v-6.32c-.01-.45-.05-.98-.11-1.6.7.06,1.23.09,1.61.11h.97c.4-.01.91-.05,1.55-.11-.06.62-.09,1.14-.11,1.55v6.37c.01.57-.09.95-.31,1.12-.19.19-.67.34-1.46.45-.07-.49-.23-.93-.48-1.31.26.05.48.08.66.08.53,0,.78.03.75.1s-.05-.13-.05-.6c0-.06,0-.11,0-.14ZM572.51,145.86v1.73h2.11v-1.73h-2.11ZM572.51,148.42v1.71h2.11v-1.71h-2.11ZM572.85,143.58v-1.05c.62.08,1.08.11,1.39.11h2.43c.38-.01.84-.05,1.41-.11v1.05c-.63-.06-1.1-.09-1.41-.11h-2.43c-.3.01-.77.05-1.39.11ZM576.56,145.48l1.26.22c.17.02.27.06.29.11.01.05-.04.13-.16.24-.23.25-.35.58-.38.98v3.26c.01.41.05.91.11,1.51h-1.12c.06-.61.09-1.11.11-1.51v-3.09c-.01-.36-.05-.93-.11-1.71ZM576.87,153.04c.48.11.88.17,1.19.17.63,0,.92.05.88.15s-.06-.13-.06-.69c0-.05,0-.11-.02-.17v-6.46c-.01-.39-.05-.96-.11-1.71l1.29.22c.18.02.27.06.27.11.02.04-.02.11-.14.22-.22.23-.33.56-.34,1v6.82c.02.69-.13,1.12-.46,1.32-.28.23-.95.37-2.03.43-.08-.49-.24-.96-.48-1.41Z"/>
  <path class="cls-15" d="M582.7,152.85c3.7-1.92,6.17-5.48,7.42-10.66.04-.18.06-.34.06-.48,0-.4-.15-.7-.44-.9-.54-.41-1.07-.72-1.6-.94.43-.31.72-.63.88-.97,1.26.78,2.17,1.69,2.73,2.73.06.13.17.38.31.74,2.17,5.67,4.77,9.1,7.78,10.29-.66.19-1.18.51-1.56.94-3.09-2.52-5.47-6.18-7.15-10.98-1.36,4.94-3.69,8.64-7,11.1-.37-.43-.84-.73-1.42-.88Z"/>
  <path class="cls-15" d="M565.21,167.47c1.49-.83,2.68-1.92,3.58-3.27h-1.6c-.41.01-.92.05-1.53.11v-1.12c.66.07,1.17.11,1.53.11h2.29v-2.21c-.01-.39-.05-.99-.11-1.78l1.31.22c.21.02.31.05.33.09.02.04-.02.11-.14.22-.28.23-.41.66-.41,1.29v2.18h2.05c.26,0,.76-.04,1.49-.11v1.12c-.65-.06-1.15-.09-1.49-.11h-1.98c.53.36,1.54,1.12,3.04,2.29-.25.3-.5.61-.74.93-.69-.72-1.48-1.42-2.37-2.08v.64c.01.34.05.88.11,1.61h-1.19c.06-.71.09-1.25.11-1.61v-1.02c-.98,1.35-2.04,2.5-3.16,3.45-.27-.33-.64-.64-1.1-.94ZM566.81,169.38h1.6c.28-.66.5-1.22.69-1.69l1.24.48c.12.05.18.1.18.15s-.07.11-.2.15c-.18.04-.34.2-.48.48l-.24.41h2.23s.19-.01.49-.04c.69-.05,1.05-.06,1.09-.05-.35,1.14-.98,2.38-1.91,3.73.17.07.43.17.77.31.34.14.59.25.76.33-.15.23-.31.56-.48.98-.36-.21-.95-.48-1.78-.81-1.24.96-2.56,1.69-3.97,2.18-.23-.37-.55-.75-.98-1.15,1.42-.06,2.73-.54,3.93-1.46-.84-.36-1.84-.69-2.99-1.01.44-.6.85-1.3,1.24-2.1h-1.19c-.38.01-.87.05-1.48.11v-1.12c.66.07,1.15.11,1.48.11ZM567.18,160.26c.17.25.4.59.69,1.03.26.39.48.71.64.95l-.84.58c-.39-.73-.83-1.43-1.31-2.09l.83-.47ZM569.13,170.29l-.84,1.56c.73.26,1.48.53,2.23.81.56-.69,1.03-1.48,1.4-2.37h-2.79ZM572.96,159.93l.96.74c.08.06.12.11.11.17-.01.04-.07.06-.18.07-.19,0-.42.16-.67.47-.22.25-.62.76-1.22,1.51-.17-.15-.44-.34-.8-.57.71-.72,1.31-1.51,1.8-2.38ZM578.52,164.5h-2.88c-.32.58-.69,1.19-1.09,1.82-.29-.16-.7-.31-1.21-.45,1.56-1.59,2.47-3.8,2.72-6.63l1.33.41c.15.05.23.1.24.15,0,.04-.07.09-.2.16-.22.09-.37.33-.47.72-.42,1.44-.74,2.41-.94,2.92h3.86c.35-.01.82-.05,1.42-.11v1.12c-.69-.08-1.16-.11-1.42-.11h-.31c-.31,3.04-.89,5.34-1.75,6.9,1.25,1.63,2.59,2.76,4.02,3.38-.5.23-.89.56-1.17.98-.97-.68-2.11-1.81-3.42-3.38-1.14,1.56-2.46,2.8-3.95,3.71-.25-.39-.61-.7-1.08-.91,1.93-.93,3.38-2.19,4.32-3.78-.8-1.22-1.4-2.84-1.8-4.84.48-.04.83-.08,1.05-.15.21,1.37.65,2.69,1.34,3.95.67-1.27,1.14-3.22,1.39-5.85Z"/>
  <path class="cls-15" d="M583.29,164.11v-1.12c.49.08.92.11,1.27.11h1.51v-2.4c0-.45-.04-.98-.11-1.6l1.42.18c.13.03.2.07.21.11,0,.06-.06.14-.18.25-.25.22-.38.6-.38,1.15v2.31h.95c.36.01.81-.03,1.35-.11v1.12c-.5-.08-.96-.12-1.35-.11h-.95v3.49c.57-.3,1.21-.68,1.91-1.15l-.18,1.3c-.31.15-.79.4-1.45.76-.12.06-.21.11-.27.14v5.56c.01.61-.14,1.02-.45,1.22-.28.22-.91.36-1.91.43-.01-.4-.16-.85-.44-1.33.4.07.74.11.99.11.21,0,.37-.02.47-.07.25-.08.37-.33.36-.76v-4.57c-.57.32-1.31.78-2.21,1.36l-.84-1.1c.9-.3,1.92-.76,3.06-1.4v-4h-1.51c-.33,0-.76.04-1.27.11ZM590.08,160.06c.55.06.99.09,1.31.09h5.27c.46,0,.98-.04,1.56-.11-.08.6-.11,1.09-.11,1.46v1.57c0,.45.04.96.11,1.53-.56-.08-1.06-.11-1.51-.11h-2.13l.99.31c.11.04.16.08.18.12,0,.05-.05.12-.16.2-.21.13-.31.47-.33,1.01l-.02.55h2.7s.11,0,.25-.02c.39-.04.79-.06,1.2-.09v1.12c-.58-.07-1.07-.11-1.46-.11h-2.72l-.11,2.3h2c.39.01.86-.03,1.42-.11-.07.63-.11,1.13-.11,1.51v2.92c0,.47.04,1.02.11,1.64h-1.19c.02-.3.05-.62.08-.96h-5.04v.05c.01.3.04.65.07,1.05h-1.19c.07-.61.11-1.17.11-1.7v-2.96c0-.39-.04-.91-.11-1.56.63.08,1.1.11,1.41.11h1.44l.11-2.3h-3.09c-.08,2.87-.89,5.31-2.43,7.32-.39-.3-.81-.55-1.26-.76,1.89-1.33,2.82-4.23,2.77-8.69.02-2.05-.02-3.85-.12-5.4ZM594.15,164.49h-2.95c0,.76-.01,1.49-.04,2.2h3.08l.02-.81c0-.48-.04-.94-.11-1.39ZM597.14,163.62v-2.61h-5.94v2.61h5.94ZM592.35,170.75v3.31h5.12v-3.31h-5.12Z"/>
  <polygon class="cls-18" points="762.54 106.02 847.86 106.02 847.86 143.33 762.54 143.33 762.54 106.02 762.54 106.02"/>
  <polygon class="cls-9" points="762.54 106.02 847.86 106.02 847.86 143.33 762.54 143.33 762.54 106.02 762.54 106.02"/>
  <path class="cls-16" d="M799.73,122.08h2.5l-1.1,4.75c-.09.4-.17.78-.24,1.12s-.1.63-.1.86c0,.26.05.45.15.59s.27.2.5.2c.31,0,.63-.15.96-.44s.62-.63.86-1.02.42-.82.52-1.31l1.05-4.76h2.54l-1.42,5.98c-.09.37-.13.7-.13,1,0,.19.03.34.1.45s.18.16.33.16.35-.07.54-.22.43-.37.7-.67l.63.63c-.54.54-1.04.94-1.49,1.17s-.91.36-1.38.36c-.51,0-.91-.13-1.2-.4s-.44-.63-.44-1.08c0-.19.02-.33.05-.42l-.12-.02c-.5.62-.97,1.07-1.41,1.37s-.87.45-1.29.45c-.45,0-.82-.13-1.12-.39l-.07.03c-.06.67-.1,1.34-.1,2.02,0,.35,0,.67.03.94l-.18.89h-1.92l-.45-.6c.09-.29.22-.74.38-1.35s.29-1.15.39-1.61l1.92-8.68Z"/>
  <polygon class="cls-18" points="762.54 162.42 847.86 162.42 847.86 199.74 762.54 199.74 762.54 162.42 762.54 162.42"/>
  <polygon class="cls-9" points="762.54 162.42 847.86 162.42 847.86 199.74 762.54 199.74 762.54 162.42 762.54 162.42"/>
  <path class="cls-16" d="M796.4,187.57c-.3.22-.52.46-.67.71s-.22.53-.22.85c0,.53.21.92.63,1.16s1.06.37,1.92.37c.53,0,.98-.07,1.36-.21s.67-.34.87-.61.3-.57.3-.92c0-.16-.02-.32-.06-.48s-.12-.29-.23-.42-.28-.22-.49-.29-.49-.11-.83-.11h-1.31c-.47,0-.89-.02-1.26-.05h0ZM788.72,179.57c-.71,0-1.25.31-1.63.92s-.57,1.49-.57,2.63c0,1.21.19,2.13.58,2.78s.93.97,1.65.97c.39,0,.73-.1,1-.29s.5-.45.67-.77.3-.7.37-1.12.11-.87.11-1.33c0-.86-.1-1.58-.29-2.14s-.45-.99-.78-1.25-.7-.4-1.12-.4h0ZM797.89,179.55c-.56,0-.98.18-1.27.55s-.44.9-.44,1.6c0,.73.15,1.3.45,1.7s.73.6,1.29.6c.3,0,.55-.06.76-.17s.38-.27.51-.47.23-.43.29-.69.09-.53.09-.82c0-.52-.07-.95-.22-1.29s-.35-.6-.6-.76-.54-.24-.87-.24h0ZM797.91,178.88c.42,0,.84.05,1.26.15h3.11v.89l-1.63-.06-.08.1c.18.18.33.43.43.74s.16.65.16,1.02c0,.96-.29,1.69-.88,2.21s-1.43.78-2.51.78c-.49,0-.91-.06-1.26-.18-.45.34-.67.67-.67,1,0,.22.04.38.13.49s.23.19.42.24.49.07.89.07h2.11c.62,0,1.13.1,1.52.29s.67.45.84.78.25.7.25,1.14c0,.55-.16,1.04-.47,1.47s-.77.77-1.37,1.01-1.29.36-2.09.36c-.59,0-1.13-.04-1.62-.11s-.91-.19-1.26-.36-.62-.39-.81-.66-.29-.61-.29-1.02c0-.37.12-.7.37-1.01s.59-.57,1.05-.8c-.28-.11-.49-.28-.65-.49s-.24-.47-.24-.76c0-.33.09-.64.28-.92s.52-.6.99-.95c-.42-.25-.74-.58-.96-1s-.33-.9-.33-1.44c0-.5.08-.94.25-1.31s.4-.68.69-.92.65-.42,1.05-.54.84-.18,1.31-.18h0ZM788.76,178.88c1.25,0,2.2.36,2.85,1.09s.97,1.78.97,3.14c0,.97-.16,1.79-.48,2.46s-.78,1.17-1.37,1.5-1.29.5-2.1.5c-1.22,0-2.15-.36-2.79-1.08s-.96-1.78-.96-3.19c0-.97.17-1.78.51-2.45s.8-1.16,1.38-1.49,1.25-.49,2-.49h0ZM781.69,174.85h.53v10.38c0,.5.02.85.07,1.05s.14.35.27.45.35.19.65.27v.43h-3.49v-.43c.29-.08.5-.16.61-.24s.2-.18.25-.29.08-.27.11-.47.03-.45.03-.77v-7.36c0-.56,0-.96-.01-1.18s-.03-.41-.07-.57-.09-.28-.16-.36-.16-.16-.27-.21-.32-.11-.62-.16v-.46l2.12-.09h0Z"/>
  <path class="cls-16" d="M812.9,180.44c-.67.08-1.28.33-1.81.73s-.94.93-1.23,1.57-.44,1.35-.44,2.11c0,.63.1,1.08.29,1.37s.51.43.95.43.84-.22,1.21-.65.66-1.01.88-1.74.33-1.44.33-2.14c0-.74-.06-1.31-.18-1.7h0ZM814.07,178.71h3.52l-.37,1.63h-2.58v.04c.26.32.45.67.58,1.05s.19.79.19,1.21c0,.86-.22,1.69-.66,2.5s-1.01,1.41-1.71,1.81-1.52.61-2.44.61c-1.09,0-1.94-.29-2.54-.86s-.9-1.37-.9-2.39c0-.71.12-1.37.35-1.98s.56-1.15.97-1.62.88-.85,1.4-1.15,1.11-.51,1.78-.65,1.47-.21,2.4-.21h0Z"/>
  <path class="cls-16" d="M821.7,171.93c.63,0,1.15.08,1.55.25.4.17.69.4.87.69s.27.63.27,1.02c0,.34-.06.66-.19.95-.13.29-.35.63-.66,1s-.84.91-1.58,1.6c-.23.21-.5.5-.82.85-.32.35-.57.65-.75.9v.06h2.29c.28,0,.49-.02.63-.06.14-.04.25-.11.33-.21s.15-.25.2-.45h.74l-.15,2.31h-5.9v-.43c.33-.76,1.01-1.74,2.03-2.94.46-.55.82-.99,1.06-1.35.24-.35.42-.69.54-1,.12-.31.18-.64.18-.97,0-.47-.11-.84-.32-1.11-.21-.27-.5-.4-.86-.4-.7,0-1.15.5-1.35,1.51h-1.16v-1.52c.7-.28,1.27-.47,1.7-.56s.88-.14,1.36-.14h0Z"/>
  <polygon class="cls-18" points="762.54 223.38 847.86 223.38 847.86 260.57 762.54 260.57 762.54 223.38 762.54 223.38"/>
  <polygon class="cls-9" points="762.54 223.38 847.86 223.38 847.86 260.57 762.54 260.57 762.54 223.38 762.54 223.38"/>
  <path class="cls-16" d="M768.78,240.27c-.6,0-1.09.24-1.45.73s-.57,1.17-.64,2.07h3.84c-.04-.63-.11-1.15-.24-1.55s-.31-.71-.55-.92-.57-.32-.97-.32h0ZM768.87,239.58c.59,0,1.1.09,1.51.28s.75.44,1,.77.44.74.58,1.23.22,1.14.23,1.94h-5.54v.16c0,.69.08,1.27.23,1.74s.41.84.76,1.11.82.4,1.38.4c.48,0,.91-.09,1.3-.27s.77-.47,1.15-.87l.54.57c-.38.39-.72.7-1.03.92s-.66.4-1.03.52-.79.19-1.24.19c-1.21,0-2.12-.36-2.73-1.09s-.92-1.79-.92-3.2c0-.87.16-1.64.47-2.31s.76-1.18,1.34-1.55,1.25-.54,2-.54h0Z"/>
  <path class="cls-16" d="M776.93,241.45c.7,0,1.54.31,2.51.92s1.71.92,2.21.92.91-.13,1.25-.4.67-.67,1.01-1.23l.7.47c-.25.52-.65,1.05-1.2,1.58s-1.21.8-1.99.8-1.61-.31-2.57-.92-1.7-.92-2.21-.92c-.43,0-.8.13-1.12.4s-.61.66-.85,1.18l-.69-.39c.3-.69.69-1.27,1.19-1.73s1.08-.69,1.75-.69h0Z"/>
  <path class="cls-16" d="M786.77,236.13h2.75l4.34,7.24c.21.35.39.66.53.92s.29.56.44.89h.11c-.03-.36-.06-1.07-.08-2.13s-.04-2.02-.04-2.88v-1.85c0-.4-.01-.7-.04-.89s-.07-.33-.13-.43-.15-.18-.25-.24-.3-.13-.57-.21v-.43h3.16v.43c-.26.07-.45.13-.56.19s-.2.13-.26.23-.12.23-.15.42-.05.5-.05.92v9.85h-1.1l-4.9-8.21c-.3-.51-.52-.88-.65-1.12s-.25-.47-.36-.69h-.15c.04.45.07,1.27.09,2.45s.03,2.36.03,3.53v1.79c0,.39.01.68.04.86s.07.33.13.43.15.19.27.26.31.14.58.21v.43h-3.21v-.43c.36-.09.61-.2.73-.31s.2-.28.24-.49.06-.53.06-.97v-7.6c0-.4-.01-.7-.04-.88s-.08-.33-.15-.43-.16-.18-.27-.25-.3-.13-.57-.21v-.43Z"/>
  <path class="cls-16" d="M804.88,235.43l.24.68c-1.37.45-2.39,1.33-3.05,2.64s-.99,2.95-.99,4.94.33,3.74.99,5.07,1.67,2.22,3.02,2.67l-.21.68c-1.72-.45-3.03-1.42-3.95-2.91s-1.37-3.3-1.37-5.42.46-3.92,1.38-5.42,2.23-2.47,3.94-2.92h0Z"/>
  <path class="cls-16" d="M810.92,236.97c-.42,0-.74.18-.98.55s-.41.91-.52,1.63-.16,1.67-.16,2.83c0,1.29.06,2.31.17,3.08s.29,1.32.54,1.68.57.54.98.54c.22,0,.42-.05.58-.16s.32-.28.45-.51.24-.54.34-.92.16-.86.2-1.43.06-1.21.06-1.91c0-1.05-.04-1.93-.12-2.65s-.19-1.27-.34-1.65-.32-.66-.52-.83-.43-.25-.69-.25h0ZM810.97,235.99c1.44,0,2.52.49,3.23,1.47s1.06,2.48,1.06,4.5-.38,3.64-1.13,4.71-1.86,1.6-3.32,1.6-2.51-.5-3.19-1.5-1.03-2.51-1.03-4.53.38-3.58,1.15-4.65,1.85-1.6,3.23-1.6h0Z"/>
  <path class="cls-16" d="M817.52,246.09h1.54c.08.41.12.81.12,1.21s-.07.79-.21,1.12-.36.68-.67,1.02-.73.71-1.27,1.11l-.47-.54c.3-.28.52-.53.65-.76s.23-.48.29-.77.09-.65.09-1.08-.02-.88-.06-1.32h0Z"/>
  <path class="cls-16" d="M829.09,235.99h1.12c-.04.56-.05,1.34-.05,2.34v7.35c0,.34.02.6.06.77s.11.31.2.42.24.19.42.25.41.11.69.14.64.05,1.09.07v.8h-7.58v-.8c.65-.03,1.11-.07,1.39-.12s.49-.12.64-.22.25-.24.32-.42.1-.48.1-.89v-6.35c0-.24-.05-.41-.14-.52s-.22-.16-.37-.16c-.15,0-.35.07-.62.2s-.7.41-1.31.83l-.54-.93,4.59-2.75h0Z"/>
  <path class="cls-16" d="M834.43,235.43c1.71.45,3.02,1.43,3.94,2.92s1.38,3.3,1.38,5.42-.46,3.93-1.37,5.42-2.23,2.46-3.95,2.91l-.21-.68c1.35-.45,2.36-1.34,3.02-2.67s.99-3.02.99-5.07-.33-3.63-.98-4.94-1.67-2.19-3.05-2.64l.24-.68Z"/>
  <polyline class="cls-13" points="847.92 181.08 885.17 181.08 885.17 242.01 848.92 242.01"/>
  <path class="cls-26" d="M873.78,211.62c0-6.49,5.27-11.76,11.76-11.76s11.76,5.27,11.76,11.76-5.27,11.76-11.76,11.76-11.76-5.27-11.76-11.76h0Z"/>
  <path class="cls-9" d="M873.78,211.62c0-6.49,5.27-11.76,11.76-11.76s11.76,5.27,11.76,11.76-5.27,11.76-11.76,11.76-11.76-5.27-11.76-11.76h0Z"/>
  <path class="cls-17" d="M888.15,218.33l-2.61-3.86-2.62,3.86h-1.2l3.17-4.59-3.02-4.36h1.23l2.43,3.64,2.43-3.64h1.24l-3.01,4.34,3.21,4.61h-1.25Z"/>
  <path class="cls-26" d="M935.22,167.1c0-6.49,5.27-11.76,11.76-11.76s11.76,5.27,11.76,11.76-5.27,11.76-11.76,11.76-11.76-5.27-11.76-11.76h0Z"/>
  <path class="cls-9" d="M935.22,167.1c0-6.49,5.27-11.76,11.76-11.76s11.76,5.27,11.76,11.76-5.27,11.76-11.76,11.76-11.76-5.27-11.76-11.76h0Z"/>
  <path class="cls-17" d="M947.44,168.24v3.76h-.92v-3.76h-3.74v-.92h3.74v-3.76h.92v3.76h3.74v.92h-3.74Z"/>
  <polyline class="cls-13" points="847.92 124.8 947.06 124.8 947.06 155.41"/>
  <polyline class="cls-13" points="897.36 211.72 947.05 211.72 947.05 178.92"/>
  <path class="cls-13" d="M958.8,167.16h22.3-22.3Z"/>
  <polygon class="cls-23" points="979.6 162.65 988.6 167.16 979.6 171.65 979.6 162.65 979.6 162.65"/>
  <line class="cls-12" x1="725.15" y1="144.82" x2="745.67" y2="130.39"/>
  <polygon class="cls-26" points="748.39 139.48 757.94 121.77 738.04 124.76 748.39 139.48 748.39 139.48"/>
  <line class="cls-12" x1="725.15" y1="163.89" x2="747.53" y2="175.03"/>
  <polygon class="cls-26" points="748.86 165.64 760.96 181.72 740.84 181.75 748.86 165.64 748.86 165.64"/>
  <path class="cls-15" d="M855.81,173.11v-12.38h6.44v.98h-5.26v4.54h4.73v.98h-4.73v4.9h5.62v.98h-6.8Z"/>
  <path class="cls-15" d="M872.16,173.11l-3.78-5.68-3.79,5.68h-1.3l4.43-6.51-4.07-5.87h1.3l3.45,5.12,3.39-5.12h1.31l-3.98,5.87,4.34,6.51h-1.31Z"/>
  <path class="cls-15" d="M882.69,164.37c0,.73-.17,1.38-.5,1.96s-.82,1.02-1.45,1.33-1.37.47-2.23.47h-2.11v4.97h-1.18v-12.38h3.22c1.34,0,2.38.32,3.13.97s1.12,1.54,1.12,2.68ZM881.49,164.39c0-.86-.27-1.52-.8-2-.54-.48-1.33-.72-2.39-.72h-1.89v5.53h1.97c1,0,1.76-.24,2.31-.73.54-.49.81-1.18.81-2.08Z"/>
  <path class="cls-16" d="M905.54,225.59c-.79.02-1.49.25-2.11.68s-1.1,1.01-1.45,1.74-.51,1.53-.51,2.42c0,.46.07.82.22,1.1s.34.47.56.58.46.16.72.16c.59,0,1.1-.19,1.54-.58.43-.39.78-.98,1.05-1.77s.4-1.56.4-2.3c0-.8-.14-1.48-.42-2.02h0ZM906.9,224.4h2.79l-.26,1.16h-2.87l-.02.07c.33.4.57.8.72,1.2s.22.85.22,1.33c0,.87-.19,1.68-.56,2.43s-.9,1.33-1.57,1.74-1.44.62-2.29.62c-.97,0-1.7-.26-2.21-.78s-.76-1.25-.76-2.2c0-.65.1-1.27.29-1.85s.49-1.12.87-1.61.82-.89,1.31-1.19,1.07-.53,1.74-.69c.67-.15,1.54-.23,2.6-.23h0Z"/>
  <path class="cls-16" d="M923.11,226.52c.31,0,.57.11.77.32s.3.49.3.83-.1.61-.3.82-.46.32-.77.32-.57-.11-.77-.32-.3-.48-.3-.82.1-.62.3-.83.46-.32.77-.32h0ZM923.1,221.23c-1.13,0-2.18.27-3.15.8-.97.54-1.72,1.3-2.27,2.29s-.82,2.1-.82,3.34.27,2.3.81,3.29,1.3,1.76,2.27,2.31c.98.55,2.03.83,3.16.83,1.2,0,2.28-.28,3.25-.83s1.71-1.33,2.25-2.32.8-2.09.8-3.28-.27-2.37-.82-3.35-1.3-1.75-2.26-2.28-2.03-.8-3.21-.8h0ZM923.12,220.11c1.39,0,2.66.32,3.82.95s2.07,1.53,2.73,2.69.99,2.46.99,3.92-.32,2.71-.96,3.86-1.54,2.06-2.71,2.71-2.45.98-3.87.98-2.68-.32-3.85-.97-2.07-1.55-2.71-2.71-.97-2.45-.97-3.88.33-2.73.99-3.89,1.57-2.06,2.72-2.7,2.43-.96,3.81-.96h0Z"/>
  <path class="cls-16" d="M941.66,224.95c-.59,0-1.16.3-1.71.9s-.97,1.41-1.26,2.43c.83,0,1.54-.08,2.13-.22s1.05-.37,1.36-.69.47-.74.47-1.27c0-.36-.08-.64-.25-.84s-.41-.3-.74-.3h0ZM941.98,224.25c.71,0,1.24.14,1.6.43s.53.74.53,1.34c0,1-.47,1.74-1.4,2.24s-2.32.75-4.16.75c-.07.35-.11.73-.11,1.14,0,.62.12,1.06.36,1.34s.63.42,1.18.42,1.03-.12,1.46-.35.9-.59,1.38-1.08l.54.57c-.57.63-1.14,1.1-1.73,1.42s-1.26.47-2.03.47c-.85,0-1.51-.26-1.97-.78s-.7-1.24-.7-2.17c0-.63.11-1.3.34-2.02s.57-1.36,1.02-1.93,1-1.01,1.64-1.33,1.32-.47,2.04-.47h0Z"/>
  <polygon class="cls-24" points="451.24 91.88 505.96 91.88 505.96 232.76 451.24 232.76 451.24 91.88 451.24 91.88"/>
  <polygon class="cls-11" points="451.24 91.88 505.96 91.88 505.96 232.76 451.24 232.76 451.24 91.88 451.24 91.88"/>
  <g>
    <path class="cls-15" d="M466.32,169.2c-1.79,0-3.18-.56-4.17-1.69-.99-1.13-1.48-2.71-1.48-4.73s.48-3.6,1.45-4.69,2.35-1.63,4.14-1.63c1.24,0,2.25.25,3.05.73s1.38,1.23,1.75,2.24l-1.97.6c-.46-1.24-1.41-1.86-2.86-1.86-1.11,0-1.96.4-2.54,1.19-.58.79-.87,1.93-.87,3.42s.31,2.65.93,3.48,1.48,1.25,2.58,1.25,2.09-.36,2.86-1.09v-2.18h-2.92v-1.57h4.92v4.52c-.54.62-1.25,1.11-2.12,1.47-.87.37-1.79.55-2.76.55Z"/>
    <path class="cls-15" d="M478.5,169.2c-1.65,0-2.94-.57-3.86-1.71-.92-1.14-1.38-2.71-1.38-4.72s.45-3.55,1.36-4.66,2.2-1.66,3.87-1.66c1.15,0,2.11.25,2.86.76.75.5,1.32,1.3,1.7,2.39l-1.88.67c-.2-.69-.52-1.22-.98-1.57s-1-.54-1.66-.54c-1,0-1.76.4-2.3,1.2s-.81,1.94-.81,3.41.28,2.62.83,3.46,1.31,1.27,2.27,1.27c.65,0,1.21-.2,1.67-.6.46-.4.81-.97,1.03-1.72l1.89.74c-.82,2.19-2.36,3.28-4.61,3.28Z"/>
    <path class="cls-15" d="M493.17,169.02l-6.26-10.03c.02.38.03.76.05,1.13s.02.75.02,1.13v7.77h-1.93v-12.38h2.55l6.33,10.1c-.02-.32-.04-.68-.06-1.06s-.03-.85-.03-1.38v-7.66h1.94v12.38h-2.61Z"/>
  </g>
  <line class="cls-14" x1="412.3" y1="158.66" x2="444.29" y2="158.66"/>
  <polygon class="cls-23" points="443.17 155.28 449.92 158.66 443.17 162.03 443.17 155.28 443.17 155.28"/>
  <line class="cls-14" x1="509.26" y1="158.66" x2="541.25" y2="158.66"/>
  <polygon class="cls-23" points="540.13 155.28 546.88 158.66 540.13 162.03 540.13 155.28 540.13 155.28"/>
  <line class="cls-14" x1="99.46" y1="161.78" x2="131.45" y2="161.78"/>
  <polygon class="cls-23" points="130.33 158.4 137.08 161.78 130.33 165.15 130.33 158.4 130.33 158.4"/>
  <line class="cls-14" x1="234.34" y1="158.66" x2="266.33" y2="158.66"/>
  <polygon class="cls-23" points="265.21 155.28 271.96 158.66 265.21 162.03 265.21 155.28 265.21 155.28"/>
  <polygon class="cls-9" points="276.25 92.65 408.01 92.65 408.01 226.21 276.25 226.21 276.25 92.65 276.25 92.65"/>
  <g>
    <path class="cls-15" d="M314.9,102.7c0,.73-.17,1.38-.5,1.96s-.82,1.01-1.45,1.33-1.37.47-2.23.47h-2.11v4.97h-1.18v-12.38h3.22c1.34,0,2.38.32,3.13.97s1.12,1.54,1.12,2.68ZM313.71,102.71c0-.86-.27-1.52-.8-2s-1.33-.72-2.4-.72h-1.89v5.53h1.97c1,0,1.77-.24,2.31-.73s.81-1.18.81-2.08Z"/>
    <path class="cls-15" d="M317.08,114.9c-.28,0-.55-.03-.81-.1v-1c.21.06.44.09.68.09.35,0,.64-.08.89-.25s.47-.42.68-.76.41-.67.62-1l.15-.39-3.53-9.01h1.2l2,5.26c.44,1.18.75,2.06.93,2.65.14-.4.28-.79.42-1.18s.29-.78.44-1.18l2.1-5.55h1.19l-3.82,9.67c-.41.83-.86,1.49-1.34,1.99s-1.08.75-1.78.75Z"/>
    <path class="cls-15" d="M330.54,111.61c-1.73,0-3.07-.57-4.01-1.71s-1.42-2.71-1.42-4.72.46-3.58,1.39-4.68,2.24-1.64,3.96-1.64c2.26,0,3.77.91,4.52,2.72l-1.13.4c-.57-1.41-1.7-2.11-3.4-2.11-1.34,0-2.36.46-3.07,1.37s-1.05,2.22-1.05,3.94.38,3.02,1.13,3.99,1.8,1.45,3.14,1.45,2.51-.45,3.38-1.35v-2.87h-3.3v-.98h4.41v4.22c-1.19,1.31-2.7,1.97-4.53,1.97Z"/>
  </g>
  <g>
    <path class="cls-15" d="M352.38,105.11c0,1.29-.24,2.41-.73,3.38-.48.96-1.17,1.69-2.06,2.2s-1.92.76-3.1.76h-3.85v-12.38h3.43c2.06,0,3.62.52,4.7,1.55,1.07,1.03,1.61,2.53,1.61,4.51ZM351.19,105.11c0-3.37-1.72-5.05-5.16-5.05h-2.21v10.38h2.52c1.51,0,2.7-.47,3.55-1.4s1.29-2.24,1.29-3.92Z"/>
    <path class="cls-15" d="M361.06,111.43h-1.06l-.05-1.59h-.04c-.6,1.18-1.54,1.77-2.81,1.77-.93,0-1.65-.23-2.16-.69-.51-.46-.76-1.1-.76-1.91,0-.93.35-1.63,1.05-2.12s1.78-.75,3.24-.79l1.47-.04v-.36c0-.84-.17-1.47-.51-1.87s-.86-.6-1.57-.6c-.65,0-1.14.1-1.47.31s-.56.56-.68,1.05l-1.05-.22c.19-.76.54-1.29,1.07-1.6s1.24-.47,2.16-.47c1.12,0,1.93.28,2.43.83.5.56.75,1.44.75,2.65v5.63ZM357.28,110.69c.52,0,.97-.12,1.38-.36s.72-.58.95-1,.34-.87.34-1.34v-1.08l-1.28.04c-1.2.03-2.05.21-2.55.54s-.76.84-.76,1.51c0,1.13.64,1.7,1.93,1.7Z"/>
    <path class="cls-15" d="M366.12,111.57c-.65,0-1.14-.17-1.48-.52-.34-.35-.51-.86-.51-1.53v-6.12h-1.32v-.92h1.34l.3-2.07h.81v2.07h2.38v.92h-2.38v5.92c0,.42.08.75.25.98s.47.35.91.35c.38,0,.82-.05,1.32-.16v.87c-.51.13-1.05.2-1.63.2Z"/>
    <path class="cls-15" d="M375.83,111.43h-1.06l-.05-1.59h-.04c-.6,1.18-1.54,1.77-2.81,1.77-.93,0-1.65-.23-2.16-.69-.51-.46-.76-1.1-.76-1.91,0-.93.35-1.63,1.05-2.12s1.78-.75,3.24-.79l1.47-.04v-.36c0-.84-.17-1.47-.51-1.87s-.86-.6-1.57-.6c-.65,0-1.14.1-1.47.31s-.56.56-.68,1.05l-1.05-.22c.19-.76.54-1.29,1.07-1.6s1.24-.47,2.16-.47c1.12,0,1.93.28,2.43.83.5.56.75,1.44.75,2.65v5.63ZM372.05,110.69c.52,0,.97-.12,1.38-.36s.72-.58.95-1,.34-.87.34-1.34v-1.08l-1.28.04c-1.2.03-2.05.21-2.55.54s-.76.84-.76,1.51c0,1.13.64,1.7,1.93,1.7Z"/>
  </g>
  <polygon class="cls-3" points="279.04 118.06 403.12 118.06 403.12 147.1 279.04 147.1 279.04 118.06 279.04 118.06"/>
  <g>
    <path class="cls-15" d="M288.75,126.82h3.66v-.55c0-.41-.04-.98-.11-1.7l1.3.18c.14.01.21.04.21.09.02.04-.02.1-.12.19-.19.22-.3.67-.31,1.35v.43h4.02v-1.01c-.01-.54-.06-1-.15-1.4l1.37.18c.12.02.19.05.2.09.01.05-.03.12-.11.2-.22.22-.33.56-.34,1.03v.91h3.35c.62,0,1.1-.04,1.44-.11v1.15c-.49-.07-.97-.11-1.44-.11h-3.35v.83c0,.49.04.99.11,1.49h-1.19c.07-.59.11-1.09.11-1.49v-.83h-4.02v.83c.01.53.05,1.03.11,1.49h-1.19c.08-.55.11-1.05.11-1.49v-.83h-3.66c-.5,0-.99.04-1.46.11v-1.15c.43.07.92.11,1.46.11ZM301.35,130.87c-.07.54-.11,1.1-.11,1.67v1.71c.02,1.95-.22,3.14-.72,3.59-.39.54-1.56.85-3.49.91-.12-.53-.26-.97-.41-1.34.3.02.58.04.83.04,1.93,0,2.85-.63,2.78-1.89v-3.65h-5.57v7.73c0,.48.04.98.11,1.49h-1.34s.03-.35.09-.91c.04-.36.06-.56.06-.58v-7.73h-3.48c-.54,0-1.03.04-1.48.11v-1.15c.47.07.96.11,1.48.11h9.74c.59,0,1.1-.04,1.51-.11Z"/>
    <path class="cls-15" d="M317.66,140.27c1.11-1.01,2.02-2.26,2.74-3.74l1.07.63c.13.08.2.15.18.19-.01.06-.1.12-.27.18-.21.08-.38.25-.54.5-.54.87-1.19,1.81-1.96,2.82-.28-.28-.69-.47-1.23-.59ZM320.3,135.41c.09-.66.13-1.21.11-1.63v-2.18c0-.41-.04-.93-.11-1.56.6.07,1.13.11,1.57.11h2.8v-4.1c0-.35-.04-.87-.11-1.58l1.42.16c.14.02.22.07.23.13s-.04.14-.16.25c-.24.25-.37.66-.38,1.22v.7h5.36c.43,0,.96-.04,1.58-.11v1.12c-.62-.07-1.15-.11-1.58-.11h-5.36v2.32h3.59c.32.01.84-.02,1.56-.11-.07.61-.11,1.11-.11,1.49v2.51c0,.32.04.77.11,1.37-.68-.07-1.22-.11-1.62-.11h-7.27c-.41-.01-.96.02-1.66.11ZM321.42,131.03v3.37h8.32v-3.37h-8.32ZM322.65,137.14l1.12-.34c.45,1.24.81,2.34,1.07,3.32l-1.12.4c-.21-1.24-.57-2.36-1.07-3.38ZM326.09,137.03l1.03-.4c.59,1.05,1.11,2.09,1.58,3.11l-1.06.58c-.38-1.14-.89-2.24-1.55-3.3ZM331.12,136.25c.79,1.18,1.58,2.46,2.36,3.83l-1.07.69c-.62-1.29-1.39-2.59-2.31-3.88l1.03-.63Z"/>
    <path class="cls-15" d="M351.72,134v-4.12h-1.84c-.18.71-.44,1.55-.77,2.52-.43-.13-.86-.22-1.28-.25.87-1.46,1.35-3.26,1.44-5.38l1.35.36c.16.05.24.09.24.14.01.06-.06.13-.2.2-.17.08-.28.24-.33.48-.07.32-.16.67-.25,1.03h1.64v-2.65c0-.5-.04-1.08-.11-1.71l1.38.18c.17.01.26.05.27.11s-.06.15-.2.27c-.24.16-.35.59-.33,1.27v2.52h.66c.43,0,.93-.04,1.48-.11v1.12c-.53-.07-1.02-.11-1.48-.11h-.66v3.59c.56-.33,1.15-.72,1.78-1.17l.15,1.22c-.41.23-1.05.61-1.92,1.13v4.98c0,.43.04.93.11,1.49h-1.22c.07-.56.11-1.06.11-1.49v-4.45c-1.17.64-2,1.15-2.5,1.53l-.77-1.29c.79-.19,1.88-.67,3.28-1.42ZM358.95,130.69v-2.48h-2.03c-.4,0-.88.04-1.46.11v-1.08c.57.07,1.07.11,1.48.11h2.01v-1.22c.01-.43-.03-.98-.12-1.65l1.42.18c.15.01.23.05.25.11.01.05-.04.12-.16.23-.25.23-.38.59-.38,1.08v1.27h1.91c.45.01.93-.02,1.46-.11v1.08c-.47-.07-.96-.11-1.46-.11h-1.91v2.48h3.22c.46,0,.95-.04,1.48-.11v1.12c-.52-.07-1.01-.11-1.48-.11h-6.75c-.43,0-.91.04-1.45.11v-1.12c.56.07,1.05.11,1.45.11h2.52ZM361.04,138.74v-4.14h-4.25c-.4,0-.89.04-1.45.11v-1.08c.52.07,1,.11,1.45.11h4.25v-.18c0-.45-.04-1-.11-1.67l1.39.18c.18.02.28.06.29.12s-.06.14-.2.24c-.24.18-.36.57-.36,1.15v.16h.67c.46,0,.95-.04,1.48-.11v1.08c-.53-.07-1.02-.11-1.48-.11h-.67v4.26c.03.84-.17,1.39-.59,1.64-.39.29-1.25.45-2.58.5-.08-.48-.29-.95-.63-1.41.63.07,1.13.11,1.52.11.36,0,.61-.03.76-.09.36-.08.53-.38.51-.88ZM355.84,135.95l.9-.79c.89.87,1.61,1.67,2.16,2.42l-.93.83c-.51-.81-1.22-1.63-2.13-2.45Z"/>
    <path class="cls-15" d="M378.45,134.49c2.05-1.22,3.68-3.16,4.88-5.83l1.08.57c.13.08.19.14.19.2-.01.06-.08.11-.21.16-.22.06-.47.35-.76.85-.35.57-.72,1.13-1.12,1.67v7.44c.01.41.05.93.11,1.55h-1.22c.06-.57.09-1.08.11-1.53v-6.21c-.59.67-1.23,1.34-1.92,2-.26-.35-.64-.64-1.13-.87ZM378.61,129.31c1.91-1.08,3.37-2.6,4.38-4.54l1.12.71c.11.08.15.14.14.18-.01.06-.08.1-.19.12-.22.04-.46.22-.72.56-1.13,1.41-2.31,2.65-3.53,3.73-.32-.35-.72-.61-1.19-.77ZM385.13,139.05h.74v-6.27c-.01-.45-.05-.99-.11-1.63l1.34.18c.09.03.13.07.13.13,0,.05-.04.12-.13.21-.16.08-.23.5-.22,1.26v6.13h2.5v-12.16h-3.21c-.39.01-.88.05-1.45.11v-1.12c.57.06,1.05.09,1.43.11h6.85c.47-.01.96-.05,1.48-.11v1.12c-.56-.06-1.05-.1-1.48-.11h-2.61v4.84h2.08c.45-.01.94-.05,1.48-.11v1.12c-.55-.06-1.04-.09-1.48-.11h-2.08v6.41h3.13c.45-.01.94-.05,1.48-.11v1.08c-.55-.06-1.04-.09-1.48-.11h-8.38c-.43.01-.93.05-1.48.11v-1.08c.54.06,1.03.1,1.48.11Z"/>
  </g>
  <polygon class="cls-3" points="279.04 152.98 403.12 152.98 403.12 182.14 279.04 182.14 279.04 152.98 279.04 152.98"/>
  <g>
    <path class="cls-15" d="M290.95,165.91c-.08.38-.11.88-.11,1.53v5.27c.59.23,1.38.63,2.36,1.2.49.26,1.42.43,2.77.51.46.02.95.04,1.46.04,1.07,0,2.29-.05,3.66-.15.61-.04,1.3-.12,2.07-.25.12-.02.22-.04.29-.05-.3.42-.47.9-.52,1.46h-.31c-.17-.01-.37-.02-.61-.02s-.42,0-.56.02c-1.29.07-2.57.1-3.84.09-1.21,0-2.21-.04-3.01-.13-.69-.08-1.84-.63-3.44-1.65-.23-.14-.47-.21-.72-.21-.33,0-.67.13-1.02.39-.41.29-.86.73-1.35,1.32-.26-.41-.53-.74-.81-.98.86-.69,1.72-1.21,2.58-1.56v-5.81h-1.34c-.56,0-1.03.04-1.39.11v-1.12c.36.07.83.11,1.39.11h.99c.59,0,1.07-.04,1.46-.11ZM291.81,163.12l-.81.81c-.86-1.05-1.74-1.97-2.66-2.74l.81-.81c.93.8,1.81,1.72,2.66,2.74ZM295.81,159.43l1.69.19c.09.01.14.05.14.11s-.05.12-.16.16c-.3.12-.45.55-.45,1.31,0,1.01-.02,1.77-.07,2.28l3.16-.1,1.51-.12s0,.08-.02.14c-.05.34-.08.69-.11,1.06-.04.62-.07,1.58-.11,2.9-.04,1.57-.08,2.67-.13,3.31.02.92-.34,1.56-1.08,1.92-.29.19-.95.34-2,.45-.08-.52-.27-1-.56-1.44.43.06.83.1,1.2.1.14,0,.25,0,.34,0,.64-.04.99-.36,1.04-.98.1-1.1.17-2.74.2-4.93.01-.65.02-1.14.04-1.46-.39.01-1.11.03-2.16.05-.7.02-1.16.04-1.38.04,0,3.64-1.27,6.56-3.81,8.76-.44-.3-.89-.54-1.36-.72,2.53-1.34,3.89-4.01,4.09-8.01-1.12,0-2.19.06-3.23.17v-1.16c.35.05.84.08,1.48.1.62.01,1.22,0,1.8-.04.03-.53.04-1.02.04-1.47,0-.8-.04-1.68-.11-2.62Z"/>
    <path class="cls-15" d="M336.49,168.96v-4.12h-1.84c-.18.71-.44,1.55-.77,2.52-.43-.13-.86-.22-1.28-.25.87-1.46,1.35-3.26,1.44-5.38l1.35.36c.16.05.24.09.24.14.01.06-.06.13-.2.2-.17.08-.28.24-.33.48-.07.32-.16.67-.25,1.03h1.64v-2.65c0-.5-.04-1.08-.11-1.71l1.38.18c.17.01.26.05.27.11s-.06.15-.2.27c-.24.16-.35.59-.33,1.27v2.52h.66c.43,0,.93-.04,1.48-.11v1.12c-.53-.07-1.02-.11-1.48-.11h-.66v3.59c.56-.33,1.15-.72,1.78-1.17l.15,1.22c-.41.23-1.05.61-1.92,1.13v4.98c0,.43.04.93.11,1.49h-1.22c.07-.56.11-1.06.11-1.49v-4.45c-1.17.64-2,1.15-2.5,1.53l-.77-1.29c.79-.19,1.88-.67,3.28-1.42ZM343.72,165.65v-2.48h-2.03c-.4,0-.88.04-1.46.11v-1.08c.57.07,1.07.11,1.48.11h2.01v-1.22c.01-.43-.03-.98-.12-1.65l1.42.18c.15.01.23.05.25.11.01.05-.04.12-.16.23-.25.23-.38.59-.38,1.08v1.27h1.91c.45.01.93-.02,1.46-.11v1.08c-.47-.07-.96-.11-1.46-.11h-1.91v2.48h3.22c.46,0,.95-.04,1.48-.11v1.12c-.52-.07-1.01-.11-1.48-.11h-6.75c-.43,0-.91.04-1.45.11v-1.12c.56.07,1.05.11,1.45.11h2.52ZM345.81,173.7v-4.14h-4.25c-.4,0-.89.04-1.45.11v-1.08c.52.07,1,.11,1.45.11h4.25v-.18c0-.45-.04-1-.11-1.67l1.39.18c.18.02.28.06.29.12.01.06-.06.14-.2.24-.24.18-.36.57-.36,1.15v.16h.67c.46,0,.95-.04,1.48-.11v1.08c-.53-.07-1.02-.11-1.48-.11h-.67v4.26c.03.84-.17,1.39-.59,1.64-.39.29-1.25.45-2.58.5-.08-.48-.29-.95-.63-1.41.63.07,1.13.11,1.52.11.36,0,.61-.03.76-.09.36-.08.53-.38.51-.88ZM340.61,170.91l.9-.79c.89.87,1.61,1.67,2.16,2.42l-.93.83c-.51-.81-1.22-1.63-2.13-2.45Z"/>
    <path class="cls-15" d="M378.57,169.45c2.05-1.22,3.68-3.16,4.88-5.83l1.08.57c.13.08.19.14.19.2-.01.06-.08.11-.21.16-.22.06-.47.35-.76.85-.35.57-.72,1.13-1.12,1.67v7.44c.01.41.05.93.11,1.55h-1.22c.06-.57.09-1.08.11-1.53v-6.21c-.59.67-1.23,1.34-1.92,2-.26-.35-.64-.64-1.13-.87ZM378.73,164.27c1.91-1.08,3.37-2.6,4.38-4.54l1.12.71c.11.08.15.14.14.18-.01.06-.08.1-.19.12-.22.04-.46.22-.72.56-1.13,1.41-2.31,2.65-3.53,3.73-.32-.35-.72-.61-1.19-.77ZM385.25,174.01h.74v-6.27c-.01-.45-.05-.99-.11-1.63l1.34.18c.09.03.13.07.13.13,0,.05-.04.12-.13.21-.16.08-.23.5-.22,1.26v6.13h2.5v-12.16h-3.21c-.39.01-.88.05-1.45.11v-1.12c.57.06,1.05.09,1.43.11h6.85c.47-.01.96-.05,1.48-.11v1.12c-.56-.06-1.05-.1-1.48-.11h-2.61v4.84h2.08c.45-.01.94-.05,1.48-.11v1.12c-.55-.06-1.04-.09-1.48-.11h-2.08v6.41h3.13c.45-.01.94-.05,1.48-.11v1.08c-.55-.06-1.04-.09-1.48-.11h-8.38c-.43.01-.93.05-1.48.11v-1.08c.54.06,1.03.1,1.48.11Z"/>
  </g>
  <polygon class="cls-3" points="279.04 188.02 403.12 188.02 403.12 217.06 279.04 217.06 279.04 188.02 279.04 188.02"/>
  <g>
    <path class="cls-15" d="M290.95,200.87c-.08.38-.11.88-.11,1.53v5.27c.59.23,1.38.63,2.36,1.2.49.26,1.42.43,2.77.51.46.02.95.04,1.46.04,1.07,0,2.29-.05,3.66-.15.61-.04,1.3-.12,2.07-.25.12-.02.22-.04.29-.05-.3.42-.47.9-.52,1.46h-.31c-.17-.01-.37-.02-.61-.02s-.42,0-.56.02c-1.29.07-2.57.1-3.84.09-1.21,0-2.21-.04-3.01-.13-.69-.08-1.84-.63-3.44-1.65-.23-.14-.47-.21-.72-.21-.33,0-.67.13-1.02.39-.41.29-.86.73-1.35,1.32-.26-.41-.53-.74-.81-.98.86-.69,1.72-1.21,2.58-1.56v-5.81h-1.34c-.56,0-1.03.04-1.39.11v-1.12c.36.07.83.11,1.39.11h.99c.59,0,1.07-.04,1.46-.11ZM291.81,198.09l-.81.81c-.86-1.05-1.74-1.97-2.66-2.74l.81-.81c.93.8,1.81,1.72,2.66,2.74ZM295.81,194.4l1.69.19c.09.01.14.05.14.11s-.05.12-.16.16c-.3.12-.45.55-.45,1.31,0,1.01-.02,1.77-.07,2.28l3.16-.1,1.51-.12s0,.08-.02.14c-.05.34-.08.69-.11,1.06-.04.62-.07,1.58-.11,2.9-.04,1.57-.08,2.67-.13,3.31.02.92-.34,1.56-1.08,1.92-.29.19-.95.34-2,.45-.08-.52-.27-1-.56-1.44.43.06.83.1,1.2.1.14,0,.25,0,.34,0,.64-.04.99-.36,1.04-.98.1-1.1.17-2.74.2-4.93.01-.65.02-1.14.04-1.46-.39.01-1.11.03-2.16.05-.7.02-1.16.04-1.38.04,0,3.64-1.27,6.56-3.81,8.76-.44-.3-.89-.54-1.36-.72,2.53-1.34,3.89-4.01,4.09-8.01-1.12,0-2.19.06-3.23.17v-1.16c.35.05.84.08,1.48.1.62.01,1.22,0,1.8-.04.03-.53.04-1.02.04-1.47,0-.8-.04-1.68-.11-2.62Z"/>
    <path class="cls-15" d="M336.78,201.2c-.09.57-.13,1.08-.11,1.53v5.04c.35.15.88.43,1.57.85.67.35,1.49.59,2.48.74.43.05.99.07,1.68.07.54,0,1.27-.02,2.19-.05,1.77-.09,3.28-.21,4.54-.38-.32.39-.51.85-.58,1.38-2.45.11-4.22.17-5.31.17s-2.01-.04-2.68-.11c-1.14-.22-2.34-.7-3.6-1.44-.33-.26-.64-.39-.94-.39s-.57.12-.84.37c-.5.36-.99.89-1.46,1.6l-.81-1.2c.96-.82,1.88-1.39,2.76-1.71v-5.41h-1.32c-.59-.01-1.05.02-1.41.11v-1.15c.43.07.9.11,1.41.11h.96c.37,0,.86-.04,1.48-.11ZM334.17,196.07l.9-.62c.65.84,1.37,1.85,2.16,3.04l-.96.68c-.61-1.08-1.31-2.11-2.1-3.09ZM342.83,204.78v-2.43h-2.25c-.48,0-.96.1-1.42.29l-.7-1.2c.3-.13.61-.44.94-.91.32-.54.74-1.39,1.24-2.56h-1.2c-.36-.01-.82.03-1.37.11v-1.15c.48.07.94.11,1.37.11h1.58c.48-1.27.74-2.12.77-2.56l1.53.52c.08.02.12.06.12.11,0,.04-.05.08-.14.12-.29.13-.49.33-.62.6-.16.33-.35.74-.57,1.2h4.54c.4,0,.87-.04,1.42-.11v1.15c-.58-.09-1.05-.13-1.42-.11h-4.9c-.71,1.59-1.26,2.73-1.66,3.44h2.74v-.57c0-.57-.04-1.17-.11-1.78l1.46.18c.11.02.17.06.17.11.01.05-.04.11-.15.18-.24.17-.36.58-.36,1.23v.66h2.25c.52,0,1-.04,1.42-.11v1.15c-.36-.08-.83-.12-1.42-.11h-2.25v2.43h3.03c.4,0,.88-.04,1.42-.11v1.15c-.43-.08-.9-.12-1.42-.11h-3.03v1.6c-.01.53.03,1.04.11,1.55h-1.23c.08-.5.11-1.02.11-1.55v-1.6h-3.48c-.49-.01-.95.02-1.38.11v-1.15c.54.07,1,.11,1.38.11h3.48Z"/>
    <path class="cls-15" d="M379.11,199.5v-1.12c.3.08.69.11,1.17.11h1.2v-2.33c-.02-.69-.06-1.25-.11-1.69l1.42.18c.15.03.21.07.2.11.01.05-.05.12-.18.23-.23.19-.34.53-.33,1.01v2.49h.7c.39,0,.76-.04,1.12-.11v1.12c-.33-.07-.71-.11-1.12-.11h-.7v3.98c.19-.11.52-.3.99-.56.24-.13.42-.23.54-.31,0,.06,0,.15-.02.25-.04.36-.06.68-.09.98-.29.12-.68.29-1.17.52-.11.05-.19.08-.25.11v5.12c.01.57-.16.96-.5,1.17-.3.22-1,.38-2.09.48-.16-.61-.3-1.02-.41-1.24.49.06.86.1,1.11.1.28,0,.46-.03.55-.1.24-.08.35-.39.34-.91v-4.07c-.42.22-1.07.58-1.93,1.1-.2-.43-.42-.8-.68-1.1,1.01-.38,1.88-.72,2.61-1.05v-4.46h-1.18c-.38,0-.78.04-1.19.11ZM385.2,207.3c.64-.86,1.15-1.61,1.51-2.23h-1.63c-.43,0-.86.04-1.29.11v-1.07c.5.07.98.11,1.42.11h1.92c.35-.63.63-1.22.86-1.78l1.08.48c.16.08.24.14.25.18.01.06-.05.1-.18.12-.25.08-.42.18-.5.33-.06.11-.14.26-.25.45-.06.1-.1.17-.12.22h5.24c.52,0,.99-.04,1.42-.11v1.07c-.58-.07-1.09-.11-1.52-.11h-1.42c-.21,1.15-.68,2.16-1.42,3.02,1.28.58,2.48,1.19,3.58,1.82l-.59,1.05c-1.19-.86-2.43-1.55-3.73-2.07-1.48.98-3.22,1.72-5.22,2.21-.16-.47-.38-.86-.65-1.17,2.02-.29,3.61-.79,4.77-1.51-.04-.01-.11-.04-.24-.07-1.95-.63-3.05-.98-3.3-1.05ZM384.88,197.89v-1.08c.48.07.92.11,1.31.11h6.46c.53,0,1.01-.04,1.42-.11v1.08c-.53-.07-1-.11-1.42-.11h-6.46c-.37,0-.81.04-1.31.11ZM386.44,201.27h3.18c.72-1.18,1.25-2.23,1.59-3.16l1.12.52c.12.06.18.11.18.16s-.06.1-.18.15c-.25.12-.45.29-.58.52-.29.56-.65,1.17-1.08,1.82h1.56c.39,0,.86-.04,1.42-.11v1.08c-.54-.08-1.01-.11-1.42-.11h-5.76c-.42,0-.88.04-1.39.11v-1.08c.48.07.93.11,1.35.11ZM385.91,198.84l.89-.7c.72.62,1.33,1.35,1.84,2.2l-.89.68c-.66-1.02-1.27-1.74-1.84-2.17ZM386.73,206.78c1.09.33,2.02.65,2.8.95.78-.8,1.23-1.69,1.35-2.66h-3.06c-.28.47-.65,1.04-1.1,1.71ZM387.71,194.95l.76-.81c.72.53,1.43,1.1,2.13,1.73l-.76.88c-.57-.62-1.28-1.22-2.13-1.8Z"/>
  </g>
  <rect class="cls-2" x="143.8" y="134.53" width="84.48" height="44.16" rx="7.36" ry="7.36"/>
  <g>
    <path class="cls-15" d="M173.02,146.26c0,1.28-.24,2.41-.72,3.39s-1.16,1.73-2.04,2.25-1.92.78-3.11.78-2.26-.26-3.14-.78-1.55-1.27-2.01-2.25-.69-2.11-.69-3.4c0-1.97.52-3.51,1.55-4.64s2.47-1.68,4.31-1.68c1.2,0,2.24.25,3.12.76s1.55,1.24,2.02,2.2.7,2.08.7,3.37ZM171.8,146.26c0-1.65-.41-2.94-1.22-3.89s-1.95-1.42-3.41-1.42-2.62.47-3.44,1.4-1.22,2.24-1.22,3.92.42,2.99,1.24,3.97,1.96,1.46,3.4,1.46,2.64-.48,3.44-1.43,1.21-2.29,1.21-4Z"/>
    <path class="cls-15" d="M183.48,148c0,1.48-.34,2.63-1.03,3.45s-1.65,1.23-2.89,1.23c-.7,0-1.29-.14-1.77-.43s-.88-.73-1.2-1.32h-.04c0,.29-.02.81-.08,1.57h-1.06c.04-.62.06-1.25.06-1.89v-10.88h1.12v4.32c0,.19,0,.38,0,.57s-.01.38-.03.57h.04c.39-.67.83-1.14,1.32-1.41s1.11-.4,1.83-.4c1.19,0,2.11.41,2.76,1.22s.98,1.94.98,3.4ZM182.32,148c0-1.21-.23-2.13-.7-2.75s-1.16-.94-2.07-.94c-.99,0-1.74.32-2.24.96s-.75,1.57-.75,2.8.25,2.13.74,2.76,1.22.94,2.18.94,1.65-.32,2.13-.96.71-1.58.71-2.8Z"/>
    <path class="cls-15" d="M186.9,153.45c0,.9-.15,1.55-.46,1.94s-.79.59-1.45.59c-.35,0-.63-.02-.84-.06v-.92c.19.04.37.05.54.05.4,0,.68-.12.85-.35s.25-.66.25-1.27v-9.86h1.12v9.89ZM185.78,141.09v-1.36h1.12v1.36h-1.12Z"/>
    <path class="cls-15" d="M190.46,148.21c0,1.12.25,1.99.74,2.62s1.19.94,2.07.94c.59,0,1.1-.12,1.53-.36.42-.24.79-.65,1.1-1.23l.89.48c-.41.73-.9,1.25-1.48,1.56s-1.26.47-2.07.47c-1.27,0-2.25-.4-2.93-1.21s-1.02-1.98-1.02-3.51c0-.98.16-1.81.48-2.5s.78-1.2,1.37-1.56c.59-.35,1.28-.53,2.06-.53,1.22,0,2.15.39,2.79,1.17s.97,1.9.97,3.36v.3h-6.51ZM193.17,144.31c-.82,0-1.46.26-1.92.77s-.72,1.27-.76,2.26h5.33c-.11-2.02-.98-3.03-2.64-3.03Z"/>
    <path class="cls-15" d="M202.2,152.69c-1.19,0-2.09-.39-2.72-1.18s-.93-1.93-.93-3.43.32-2.65.97-3.46,1.57-1.22,2.76-1.22c.94,0,1.68.19,2.22.58.54.39.88.99,1.02,1.82l-1.15.13c-.11-.56-.34-.96-.68-1.22s-.81-.39-1.4-.39c-1.73,0-2.6,1.24-2.6,3.72s.85,3.74,2.54,3.74c1.25,0,1.97-.57,2.18-1.71l1.11.16c-.31,1.65-1.42,2.47-3.31,2.47Z"/>
    <path class="cls-15" d="M209.53,152.65c-.65,0-1.14-.17-1.48-.52-.34-.35-.51-.86-.51-1.53v-6.12h-1.32v-.92h1.34l.3-2.07h.81v2.07h2.38v.92h-2.38v5.92c0,.42.08.75.25.98s.47.35.91.35c.38,0,.82-.05,1.32-.16v.87c-.51.13-1.05.2-1.63.2Z"/>
  </g>
  <g>
    <path class="cls-15" d="M161.07,168.82v-1.24l8.41-3.81v1l-7.52,3.42,7.52,3.43v.99l-8.41-3.8Z"/>
    <path class="cls-15" d="M183.95,174.1v-5.24c0-1.07-.16-1.83-.48-2.28-.32-.45-.85-.68-1.59-.68s-1.35.29-1.78.87-.65,1.31-.65,2.2v5.13h-1.11v-5.24c0-1.05-.16-1.8-.48-2.27s-.84-.69-1.56-.69-1.31.29-1.77.87c-.46.58-.69,1.35-.69,2.29v5.04h-1.12v-6.95c0-.55-.02-1.22-.06-2h1c.05.58.08,1.15.11,1.71h.04c.29-.64.66-1.11,1.11-1.42.45-.31,1.02-.46,1.71-.46.75,0,1.34.18,1.78.54.43.36.71.84.84,1.45h.04c.57-1.33,1.55-2,2.94-2,.96,0,1.67.29,2.14.86s.7,1.49.7,2.75v5.51h-1.12Z"/>
    <path class="cls-15" d="M195.85,169.62c0,1.45-.38,2.59-1.14,3.42-.76.83-1.82,1.24-3.2,1.24s-2.36-.42-3.11-1.25c-.76-.84-1.13-1.97-1.13-3.41s.38-2.6,1.13-3.41c.76-.82,1.81-1.23,3.16-1.23s2.46.4,3.19,1.19c.73.79,1.09,1.94,1.09,3.45ZM194.68,169.62c0-1.23-.26-2.16-.77-2.78-.52-.62-1.28-.94-2.3-.94s-1.82.32-2.36.96c-.54.64-.8,1.56-.8,2.76s.26,2.1.79,2.76,1.29.98,2.26.98c1.05,0,1.85-.32,2.38-.95s.8-1.56.8-2.79Z"/>
    <path class="cls-15" d="M198.17,174.1v-12.78h1.12v12.78h-1.12Z"/>
    <path class="cls-15" d="M202.6,172.62v-.99l7.52-3.43-7.52-3.42v-1l8.41,3.81v1.24l-8.41,3.8Z"/>
  </g>
  <polygon class="cls-21" points="20.48 127 94.52 127 94.52 150.4 20.48 150.4 20.48 127 20.48 127"/>
  <polygon class="cls-9" points="20.48 127 94.52 127 94.52 150.4 20.48 150.4 20.48 127 20.48 127"/>
  <g>
    <path class="cls-17" d="M36.93,141.96c0,1.18-.38,2.09-1.13,2.72s-1.84.94-3.27.94c-1.25,0-2.24-.27-2.96-.82s-1.19-1.37-1.4-2.47l1.99-.34c.29,1.34,1.11,2.01,2.48,2.01,1.49,0,2.23-.64,2.23-1.92,0-.37-.07-.67-.22-.91s-.35-.43-.61-.59-.56-.29-.91-.4-.72-.22-1.12-.34c-.96-.28-1.66-.56-2.09-.86s-.76-.67-.99-1.12-.35-1.01-.35-1.69c0-1.04.35-1.85,1.04-2.43s1.65-.87,2.88-.87,2.09.23,2.75.7,1.11,1.2,1.37,2.19l-2.01.36c-.26-1.13-.97-1.7-2.12-1.7-.59,0-1.05.15-1.37.44s-.48.69-.48,1.21c0,.36.07.65.22.88s.36.43.65.6.84.38,1.66.63c.96.3,1.65.56,2.06.79s.74.48.98.75.42.59.54.96.18.79.18,1.27Z"/>
    <path class="cls-17" d="M41.97,133.06l2.96,7.28c.15.36.47,1.24.94,2.65.18-.57.5-1.45.98-2.65l2.87-7.28h2.89v12.38h-1.94v-8.21c0-.36,0-.73.02-1.09s.02-.73.04-1.1c-.13.38-.25.68-.33.92s-.28.74-.58,1.51l-3.14,7.98h-1.62l-3.25-8.08c-.35-.87-.63-1.65-.86-2.33.01.36.02.72.03,1.08s.01.72.01,1.08v8.24h-1.93v-12.38h2.91Z"/>
    <path class="cls-17" d="M57.89,145.45h-2.15v-12.38h2.15v12.38Z"/>
    <path class="cls-17" d="M63.15,133.06v10.69h4.76v1.7h-6.91v-12.38h2.14Z"/>
    <path class="cls-17" d="M76.87,145.45h-7.11v-12.38h6.75v1.7h-4.61v3.55h4.07v1.65h-4.07v3.81h4.97v1.68Z"/>
  </g>
  <path class="cls-17" d="M86.85,141.96c0,1.18-.38,2.09-1.13,2.72s-1.84.94-3.26.94c-1.25,0-2.24-.27-2.96-.82s-1.18-1.37-1.4-2.47l1.99-.34c.29,1.34,1.11,2.01,2.48,2.01,1.49,0,2.23-.64,2.23-1.92,0-.37-.07-.67-.22-.91s-.35-.43-.61-.59-.56-.29-.91-.4c-.35-.11-.72-.22-1.12-.34-.96-.28-1.66-.56-2.09-.86-.43-.3-.76-.67-.99-1.12-.23-.45-.35-1.01-.35-1.69,0-1.04.35-1.85,1.04-2.43s1.65-.87,2.88-.87,2.09.23,2.75.7c.66.47,1.12,1.2,1.37,2.19l-2.01.36c-.26-1.13-.97-1.7-2.12-1.7-.59,0-1.05.15-1.37.44s-.48.69-.48,1.21c0,.36.07.65.21.88s.36.43.65.6.84.38,1.66.63c.96.3,1.65.56,2.06.79s.74.48.98.75.42.59.54.96.18.79.18,1.27Z"/>
  <polygon class="cls-22" points="20.48 150.76 94.52 150.76 94.52 174.28 20.48 174.28 20.48 150.76 20.48 150.76"/>
  <polygon class="cls-9" points="20.48 150.76 94.52 150.76 94.52 174.28 20.48 174.28 20.48 150.76 20.48 150.76"/>
  <g>
    <path class="cls-15" d="M38.21,156.84v10.69h4.76v1.7h-6.91v-12.38h2.14Z"/>
    <path class="cls-15" d="M53.28,164.69c0,1.47-.41,2.62-1.23,3.45s-1.96,1.25-3.44,1.25-2.55-.42-3.36-1.27-1.21-1.99-1.21-3.44.41-2.62,1.22-3.44,1.95-1.23,3.41-1.23,2.65.4,3.44,1.2c.79.8,1.18,1.96,1.18,3.47ZM51.16,164.69c0-2.12-.82-3.17-2.45-3.17s-2.55,1.06-2.55,3.17c0,1.04.21,1.83.62,2.38s1.02.83,1.81.83c1.71,0,2.57-1.07,2.57-3.21Z"/>
    <path class="cls-15" d="M54.84,164.66c0-1.49.33-2.63.99-3.43s1.6-1.2,2.83-1.2c.67,0,1.25.15,1.76.45.51.3.89.73,1.16,1.28h.04c0-.5.04-1.02.11-1.56h1.93c-.05.53-.07,1.2-.07,2v6.74c0,1.02-.38,1.9-1.13,2.63-.76.73-1.83,1.1-3.23,1.1-2.3,0-3.63-.81-3.99-2.42l2.01-.31c.22.83.9,1.24,2.04,1.24.74,0,1.31-.22,1.71-.67s.59-.96.59-1.56v-.95c0-.19,0-.39.03-.58h-.04c-.3.6-.71,1.05-1.21,1.35-.5.3-1.13.44-1.89.44-1.17,0-2.07-.4-2.7-1.2s-.94-1.93-.94-3.39ZM56.96,164.66c0,2.06.76,3.09,2.29,3.09.77,0,1.35-.27,1.75-.82s.6-1.32.6-2.32-.2-1.76-.6-2.3c-.4-.54-.98-.8-1.73-.8s-1.3.26-1.7.77c-.4.51-.6,1.31-.6,2.38Z"/>
    <path class="cls-15" d="M79.86,160.63c0,.77-.17,1.45-.52,2.04-.35.59-.86,1.04-1.52,1.37s-1.45.49-2.36.49h-1.86v4.68h-2.13v-12.38h3.9c1.44,0,2.55.33,3.33.99.78.66,1.17,1.59,1.17,2.81ZM77.72,160.65c0-.71-.22-1.27-.65-1.67-.43-.4-1.08-.6-1.95-.6h-1.53v4.62h1.6c.8,0,1.42-.2,1.86-.61.44-.41.66-.99.66-1.75Z"/>
  </g>
  <polygon class="cls-21" points="20.48 174.28 94.52 174.28 94.52 197.68 20.48 197.68 20.48 174.28 20.48 174.28"/>
  <polygon class="cls-9" points="20.48 174.28 94.52 174.28 94.52 197.68 20.48 197.68 20.48 174.28 20.48 174.28"/>
  <g>
    <path class="cls-17" d="M43.91,187.31v-2.3h2.12v2.3h-2.12ZM49.07,187.31v-2.3h2.11v2.3h-2.11ZM54.22,187.31v-2.3h2.12v2.3h-2.12Z"/>
    <path class="cls-17" d="M58.56,187.31v-2.3h2.12v2.3h-2.12ZM63.72,187.31v-2.3h2.11v2.3h-2.11ZM68.87,187.31v-2.3h2.12v2.3h-2.12Z"/>
  </g>
  <g>
    <path class="cls-15" d="M48.58,120.76c-1.19,0-2.09-.39-2.72-1.18s-.93-1.93-.93-3.43.32-2.65.97-3.46,1.57-1.22,2.76-1.22c.94,0,1.68.19,2.22.58s.87.99,1.02,1.82l-1.15.13c-.11-.56-.34-.96-.68-1.22s-.81-.39-1.4-.39c-1.73,0-2.6,1.24-2.6,3.72s.85,3.74,2.54,3.74c1.25,0,1.97-.57,2.18-1.71l1.11.16c-.31,1.65-1.42,2.47-3.31,2.47Z"/>
    <path class="cls-15" d="M58.97,118.12c0,.84-.28,1.5-.83,1.96-.55.46-1.33.69-2.33.69-.94,0-1.67-.17-2.21-.5s-.89-.88-1.08-1.66l1.03-.18c.12.49.36.85.71,1.1s.86.37,1.54.37c1.38,0,2.07-.56,2.07-1.68,0-.32-.06-.57-.19-.77-.13-.2-.3-.36-.52-.49s-.48-.23-.78-.32-.63-.17-.98-.27c-.64-.16-1.13-.34-1.45-.54s-.58-.46-.75-.76-.26-.68-.26-1.12c0-.79.24-1.4.73-1.84s1.2-.65,2.14-.65c.86,0,1.52.16,1.99.47s.79.82.95,1.5l-1.05.12c-.1-.44-.3-.75-.6-.94s-.73-.29-1.29-.29c-.6,0-1.05.13-1.35.39s-.44.63-.44,1.1c0,.3.06.55.17.73s.28.34.51.46.74.3,1.55.51c.79.22,1.35.43,1.68.64s.58.47.77.77c.18.31.28.7.28,1.17Z"/>
    <path class="cls-15" d="M64.31,120.59h-1.3l-3.44-8.95h1.2l2.29,6.22c.31.87.51,1.48.6,1.83.1-.3.2-.61.3-.91s.21-.61.33-.91l2.36-6.23h1.18l-3.52,8.95Z"/>
  </g>
  <rect class="cls-27" x="991.5" y="151.72" width="25.32" height="31.32" rx="4.22" ry="4.22"/>
  <path class="cls-15" d="M1000.53,174.06v-.91l5.53-7.12h-5.18v-.92h6.46v.91l-5.54,7.12h5.8v.91h-7.07Z"/>
  <line class="cls-14" x1="1022.16" y1="166.9" x2="1053.46" y2="166.9"/>
  <polygon class="cls-23" points="1052.34 163.52 1059.09 166.9 1052.34 170.27 1052.34 163.52 1052.34 163.52"/>
  <polygon class="cls-20" points="1082.7 115.96 1194.06 115.96 1194.06 145 1082.7 145 1082.7 115.96 1082.7 115.96"/>
  <polygon class="cls-5" points="1082.7 115.96 1194.06 115.96 1194.06 145 1082.7 145 1082.7 115.96 1082.7 115.96"/>
  <g>
    <path class="cls-15" d="M1096.59,125.84v11.37h-1.17v-11.37h-3.86v-1.01h8.96v1.01h-3.94Z"/>
    <path class="cls-15" d="M1102.23,137.21v-6.73c0-.47-.03-1.21-.08-2.21h1.04c.06.64.1,1.32.1,2.03h.04c.25-.79.57-1.36.98-1.7s.93-.51,1.56-.51c.25,0,.47.03.69.08v1.04c-.22-.05-.5-.08-.84-.08-.74,0-1.31.31-1.73.94s-.62,1.5-.62,2.6v4.54h-1.12Z"/>
    <path class="cls-15" d="M1114.52,137.21h-1.06l-.05-1.59h-.04c-.6,1.18-1.54,1.77-2.81,1.77-.93,0-1.65-.23-2.16-.69-.51-.46-.76-1.1-.76-1.91,0-.93.35-1.63,1.05-2.12.7-.49,1.78-.75,3.24-.79l1.47-.04v-.36c0-.84-.17-1.47-.51-1.87-.34-.4-.86-.6-1.57-.6-.65,0-1.14.1-1.47.31-.33.21-.56.56-.68,1.05l-1.05-.22c.19-.76.54-1.29,1.07-1.6.53-.31,1.24-.47,2.16-.47,1.12,0,1.93.28,2.43.83.5.56.75,1.44.75,2.65v5.63ZM1110.74,136.47c.52,0,.97-.12,1.38-.37.4-.24.72-.58.95-1s.34-.87.34-1.34v-1.08l-1.28.04c-1.2.03-2.05.21-2.55.54-.51.33-.76.84-.76,1.51,0,1.13.64,1.7,1.93,1.7Z"/>
    <path class="cls-15" d="M1123.31,137.21v-5.24c0-1.04-.18-1.79-.54-2.26s-.91-.7-1.67-.7c-.81,0-1.46.3-1.94.89s-.72,1.4-.72,2.41v4.9h-1.12v-6.95c0-.33,0-.67-.02-1-.01-.33-.03-.66-.04-1h1l.11,1.71h.04c.31-.64.7-1.11,1.18-1.42s1.08-.46,1.82-.46c1.03,0,1.79.29,2.28.88.5.59.74,1.5.74,2.73v5.51h-1.12Z"/>
    <path class="cls-15" d="M1132.61,134.74c0,.84-.28,1.5-.83,1.96-.55.46-1.33.69-2.33.69-.94,0-1.67-.17-2.21-.5s-.89-.88-1.08-1.66l1.03-.18c.12.49.36.85.71,1.1.35.25.86.37,1.54.37,1.38,0,2.07-.56,2.07-1.68,0-.32-.06-.57-.19-.77-.12-.2-.3-.36-.52-.49-.22-.13-.48-.23-.78-.32-.3-.08-.63-.17-.98-.27-.64-.16-1.13-.34-1.45-.54-.33-.2-.58-.46-.75-.76s-.26-.68-.26-1.12c0-.79.24-1.4.73-1.84s1.2-.65,2.14-.65c.86,0,1.52.16,1.99.47.47.32.79.82.95,1.5l-1.05.12c-.1-.44-.3-.75-.6-.95-.3-.19-.73-.29-1.29-.29-.6,0-1.05.13-1.35.39-.3.26-.44.63-.44,1.1,0,.3.06.55.17.73.12.18.29.33.51.46.23.13.74.3,1.55.51.79.22,1.35.43,1.68.64s.58.47.77.77c.18.31.28.7.28,1.17Z"/>
    <path class="cls-15" d="M1136.21,129.19v8.02h-1.12v-8.02h-1.53v-.92h1.53v-1.02c0-.96.2-1.66.6-2.12.4-.46,1.01-.69,1.82-.69.44,0,.78.03,1.03.1v.88c-.33-.05-.65-.08-.96-.08-.49,0-.84.17-1.05.5s-.33.86-.33,1.58v.84h1.93v.92h-1.93Z"/>
    <path class="cls-15" d="M1147.88,132.73c0,1.45-.38,2.59-1.14,3.42s-1.82,1.24-3.2,1.24-2.36-.42-3.11-1.25-1.13-1.97-1.13-3.41.38-2.6,1.13-3.42,1.81-1.23,3.16-1.23,2.46.4,3.19,1.19,1.09,1.94,1.09,3.45ZM1146.71,132.73c0-1.23-.26-2.16-.77-2.78s-1.28-.94-2.3-.94-1.82.32-2.36.96-.8,1.56-.8,2.76.27,2.1.8,2.75,1.28.98,2.26.98c1.05,0,1.85-.32,2.38-.95s.8-1.56.8-2.79Z"/>
    <path class="cls-15" d="M1150.23,137.21v-6.73c0-.47-.03-1.21-.08-2.21h1.04c.06.64.1,1.32.1,2.03h.04c.25-.79.57-1.36.97-1.7s.93-.51,1.56-.51c.25,0,.47.03.69.08v1.04c-.22-.05-.5-.08-.83-.08-.74,0-1.32.31-1.73.94s-.62,1.5-.62,2.6v4.54h-1.12Z"/>
    <path class="cls-15" d="M1167.54,137.21v-5.24c0-1.07-.16-1.83-.48-2.28-.32-.45-.85-.68-1.59-.68s-1.35.29-1.78.87-.65,1.31-.65,2.2v5.13h-1.11v-5.24c0-1.05-.16-1.8-.48-2.27s-.84-.69-1.56-.69-1.31.29-1.77.87-.69,1.35-.69,2.29v5.04h-1.12v-6.95c0-.55-.02-1.22-.06-2h1c.05.58.08,1.15.11,1.71h.04c.29-.64.66-1.11,1.11-1.42s1.02-.46,1.71-.46c.75,0,1.34.18,1.78.54s.71.85.84,1.46h.04c.57-1.33,1.55-2,2.94-2,.96,0,1.67.29,2.14.86.47.57.7,1.49.7,2.75v5.51h-1.12Z"/>
    <path class="cls-15" d="M1172.03,132.91c0,1.12.25,1.99.74,2.61s1.19.94,2.07.94c.59,0,1.1-.12,1.52-.37s.79-.65,1.1-1.23l.89.48c-.41.73-.9,1.25-1.48,1.56s-1.26.47-2.07.47c-1.27,0-2.25-.4-2.93-1.21s-1.02-1.98-1.02-3.51c0-.98.16-1.81.48-2.5s.78-1.2,1.37-1.56,1.28-.53,2.06-.53c1.22,0,2.15.39,2.79,1.17s.97,1.9.97,3.36v.3h-6.51ZM1174.74,129.01c-.82,0-1.46.26-1.93.77s-.72,1.27-.76,2.26h5.33c-.11-2.02-.98-3.03-2.64-3.03Z"/>
    <path class="cls-15" d="M1180.72,137.21v-6.73c0-.47-.03-1.21-.08-2.21h1.04c.06.64.1,1.32.1,2.03h.04c.25-.79.57-1.36.98-1.7s.93-.51,1.56-.51c.25,0,.47.03.69.08v1.04c-.22-.05-.5-.08-.84-.08-.74,0-1.31.31-1.73.94s-.62,1.5-.62,2.6v4.54h-1.12Z"/>
  </g>
  <polygon class="cls-24" points="1082.7 186.4 1196.94 186.4 1196.94 215.44 1082.7 215.44 1082.7 186.4 1082.7 186.4"/>
  <polygon class="cls-8" points="1082.7 186.4 1196.94 186.4 1196.94 215.44 1082.7 215.44 1082.7 186.4 1082.7 186.4"/>
  <g>
    <path class="cls-15" d="M1110.12,203.32c0,1.12.25,1.99.74,2.61.5.62,1.18.94,2.07.94.59,0,1.1-.12,1.53-.36s.79-.65,1.1-1.23l.89.48c-.41.73-.9,1.25-1.48,1.56s-1.26.47-2.06.47c-1.27,0-2.25-.4-2.93-1.21s-1.02-1.98-1.02-3.51c0-.98.16-1.81.48-2.5s.78-1.2,1.37-1.56,1.28-.53,2.06-.53c1.22,0,2.15.39,2.79,1.17s.97,1.9.97,3.36v.3h-6.51ZM1112.83,199.42c-.82,0-1.46.26-1.92.77-.46.51-.72,1.27-.77,2.26h5.33c-.11-2.02-.98-3.03-2.64-3.03Z"/>
    <path class="cls-15" d="M1124.76,207.62v-5.24c0-1.04-.18-1.79-.54-2.26s-.91-.7-1.67-.7c-.81,0-1.46.3-1.94.89-.48.6-.72,1.4-.72,2.41v4.9h-1.12v-6.95c0-.33,0-.67-.02-1s-.03-.66-.04-1h1l.11,1.71h.04c.31-.64.7-1.11,1.18-1.42.47-.31,1.08-.46,1.82-.46,1.03,0,1.79.29,2.28.88.5.59.74,1.5.74,2.73v5.51h-1.12Z"/>
    <path class="cls-15" d="M1131.81,207.79c-1.19,0-2.09-.39-2.72-1.18-.62-.79-.93-1.93-.93-3.43s.32-2.65.97-3.46c.65-.81,1.57-1.22,2.75-1.22.94,0,1.68.19,2.22.58.54.39.87.99,1.01,1.82l-1.15.13c-.11-.56-.34-.96-.68-1.22s-.81-.39-1.4-.39c-1.73,0-2.6,1.24-2.6,3.72s.85,3.74,2.54,3.74c1.25,0,1.97-.57,2.18-1.71l1.11.16c-.31,1.65-1.42,2.47-3.31,2.47Z"/>
    <path class="cls-15" d="M1144.88,203.14c0,1.45-.38,2.59-1.14,3.42-.76.83-1.82,1.24-3.2,1.24s-2.36-.42-3.11-1.25c-.76-.84-1.13-1.97-1.13-3.41s.38-2.6,1.13-3.41c.76-.82,1.81-1.23,3.16-1.23s2.46.4,3.19,1.19c.73.79,1.09,1.94,1.09,3.45ZM1143.72,203.14c0-1.23-.26-2.16-.77-2.78-.52-.62-1.28-.94-2.3-.94s-1.82.32-2.36.96c-.54.64-.8,1.56-.8,2.76s.27,2.1.79,2.76c.53.65,1.29.98,2.26.98,1.05,0,1.85-.32,2.38-.95s.8-1.56.8-2.79Z"/>
    <path class="cls-15" d="M1146.62,203.16c0-1.44.34-2.57,1.03-3.41.69-.84,1.65-1.26,2.88-1.26.69,0,1.28.13,1.77.4s.89.7,1.21,1.3h.04c-.02-.27-.03-.54-.03-.82v-4.53h1.12v10.88c0,.73.02,1.36.07,1.89h-1.07c-.06-.76-.09-1.3-.09-1.63h-.04c-.36.65-.79,1.11-1.29,1.39-.49.28-1.08.42-1.77.42-1.22,0-2.16-.4-2.83-1.21s-1-1.95-1-3.42ZM1147.78,203.15c0,1.18.23,2.1.69,2.75.46.65,1.15.98,2.08.98,1,0,1.75-.32,2.25-.96s.75-1.56.75-2.77-.24-2.15-.73-2.78c-.49-.63-1.21-.94-2.17-.94s-1.68.33-2.15.98c-.47.65-.71,1.57-.71,2.75Z"/>
    <path class="cls-15" d="M1158.13,203.32c0,1.12.25,1.99.74,2.61.5.62,1.19.94,2.07.94.59,0,1.1-.12,1.53-.36.42-.24.79-.65,1.1-1.23l.89.48c-.41.73-.9,1.25-1.48,1.56s-1.26.47-2.07.47c-1.27,0-2.25-.4-2.93-1.21s-1.02-1.98-1.02-3.51c0-.98.16-1.81.48-2.5s.78-1.2,1.37-1.56c.59-.35,1.28-.53,2.06-.53,1.22,0,2.15.39,2.79,1.17s.97,1.9.97,3.36v.3h-6.51ZM1160.84,199.42c-.82,0-1.46.26-1.92.77-.46.51-.72,1.27-.76,2.26h5.33c-.11-2.02-.98-3.03-2.64-3.03Z"/>
    <path class="cls-15" d="M1166.82,207.62v-6.73c0-.47-.03-1.21-.08-2.21h1.04c.06.64.1,1.32.1,2.03h.04c.25-.79.57-1.36.98-1.7s.93-.51,1.56-.51c.25,0,.47.03.69.08v1.04c-.22-.05-.5-.08-.83-.08-.74,0-1.32.32-1.73.95s-.62,1.5-.62,2.6v4.54h-1.12Z"/>
  </g>
  <line class="cls-4" x1="1199.64" y1="202.78" x2="1224.29" y2="202.78"/>
  <polygon class="cls-25" points="1223.17 199.4 1229.92 202.78 1223.17 206.15 1223.17 199.4 1223.17 199.4"/>
  <g>
    <path class="cls-15" d="M1241.41,194.63c0,.73-.17,1.38-.5,1.96-.33.57-.82,1.02-1.45,1.33-.63.32-1.37.47-2.23.47h-2.11v4.97h-1.18v-12.38h3.22c1.34,0,2.38.32,3.13.97s1.12,1.54,1.12,2.68ZM1240.22,194.65c0-.86-.27-1.52-.8-2-.54-.48-1.33-.72-2.39-.72h-1.89v5.53h1.97c1,0,1.76-.24,2.31-.73.54-.49.81-1.18.81-2.08Z"/>
    <path class="cls-15" d="M1243.58,206.83c-.28,0-.55-.03-.81-.1v-1c.21.06.44.09.68.09.35,0,.64-.08.89-.25s.47-.42.68-.76.41-.67.62-1l.15-.39-3.53-9.01h1.2l2,5.26c.44,1.18.75,2.06.93,2.65.14-.4.28-.79.42-1.18.14-.39.29-.78.44-1.18l2.1-5.55h1.19l-3.82,9.67c-.41.83-.86,1.49-1.34,1.99-.48.5-1.08.75-1.78.75Z"/>
    <path class="cls-15" d="M1257.05,203.54c-1.73,0-3.07-.57-4.01-1.71-.95-1.14-1.42-2.71-1.42-4.72s.46-3.58,1.39-4.68,2.24-1.64,3.96-1.64c2.26,0,3.77.91,4.52,2.72l-1.13.4c-.57-1.41-1.7-2.11-3.4-2.11-1.34,0-2.37.46-3.07,1.37-.7.91-1.05,2.23-1.05,3.94s.38,3.02,1.13,3.99c.75.96,1.8,1.45,3.14,1.45s2.51-.45,3.38-1.35v-2.87h-3.3v-.98h4.41v4.22c-1.19,1.31-2.7,1.97-4.53,1.97Z"/>
  </g>
  <g>
    <path class="cls-15" d="M1240.86,218.65c0,1.29-.24,2.41-.73,3.38-.48.96-1.17,1.69-2.06,2.2s-1.92.76-3.1.76h-3.85v-12.38h3.43c2.06,0,3.62.52,4.7,1.55,1.07,1.03,1.61,2.53,1.61,4.51ZM1239.67,218.65c0-3.37-1.72-5.05-5.16-5.05h-2.21v10.38h2.52c1.51,0,2.7-.47,3.55-1.4.86-.93,1.29-2.24,1.29-3.92Z"/>
    <path class="cls-15" d="M1249.54,224.98h-1.06l-.05-1.59h-.04c-.6,1.18-1.54,1.77-2.81,1.77-.93,0-1.65-.23-2.16-.69-.51-.46-.76-1.1-.76-1.91,0-.93.35-1.63,1.05-2.12.7-.49,1.78-.75,3.24-.79l1.47-.04v-.36c0-.84-.17-1.47-.51-1.87-.34-.4-.86-.6-1.57-.6-.65,0-1.14.1-1.47.31-.33.21-.56.56-.68,1.05l-1.05-.22c.19-.76.54-1.29,1.07-1.6.53-.31,1.24-.47,2.16-.47,1.12,0,1.93.28,2.43.83.5.56.75,1.44.75,2.65v5.63ZM1245.76,224.23c.52,0,.97-.12,1.38-.36.4-.24.72-.58.95-1s.34-.87.34-1.34v-1.08l-1.28.04c-1.2.03-2.05.21-2.55.54-.51.33-.76.84-.76,1.51,0,1.13.64,1.7,1.93,1.7Z"/>
    <path class="cls-15" d="M1254.6,225.12c-.65,0-1.14-.17-1.48-.52-.34-.35-.51-.86-.51-1.53v-6.12h-1.32v-.92h1.34l.3-2.07h.81v2.07h2.38v.92h-2.38v5.92c0,.42.09.75.26.98s.47.35.91.35c.38,0,.82-.05,1.32-.16v.87c-.51.13-1.05.2-1.63.2Z"/>
    <path class="cls-15" d="M1264.31,224.98h-1.06l-.05-1.59h-.04c-.6,1.18-1.54,1.77-2.81,1.77-.93,0-1.65-.23-2.16-.69-.51-.46-.76-1.1-.76-1.91,0-.93.35-1.63,1.05-2.12.7-.49,1.78-.75,3.24-.79l1.47-.04v-.36c0-.84-.17-1.47-.51-1.87-.34-.4-.86-.6-1.57-.6-.65,0-1.14.1-1.47.31-.33.21-.56.56-.68,1.05l-1.05-.22c.19-.76.54-1.29,1.07-1.6.53-.31,1.24-.47,2.16-.47,1.12,0,1.93.28,2.43.83.5.56.75,1.44.75,2.65v5.63ZM1260.53,224.23c.52,0,.97-.12,1.38-.36.4-.24.72-.58.95-1s.34-.87.34-1.34v-1.08l-1.28.04c-1.2.03-2.05.21-2.55.54-.51.33-.76.84-.76,1.51,0,1.13.64,1.7,1.93,1.7Z"/>
  </g>
  <polygon class="cls-19" points="1236.78 120.04 1310.82 120.04 1310.82 143.56 1236.78 143.56 1236.78 120.04 1236.78 120.04"/>
  <polygon class="cls-9" points="1236.78 120.04 1310.82 120.04 1310.82 143.56 1236.78 143.56 1236.78 120.04 1236.78 120.04"/>
  <g>
    <path class="cls-17" d="M1253.25,135.02c0,1.18-.38,2.09-1.13,2.72-.75.63-1.84.95-3.26.95-1.25,0-2.24-.27-2.96-.82-.72-.54-1.18-1.37-1.4-2.47l1.99-.34c.29,1.34,1.11,2.01,2.48,2.01,1.49,0,2.23-.64,2.23-1.92,0-.37-.07-.67-.22-.91s-.35-.43-.61-.59-.56-.29-.91-.4c-.35-.11-.72-.22-1.12-.34-.96-.28-1.66-.56-2.09-.86-.43-.3-.76-.67-.99-1.12-.23-.45-.35-1.01-.35-1.69,0-1.04.35-1.85,1.04-2.43s1.65-.87,2.88-.87,2.09.23,2.75.7c.66.47,1.12,1.2,1.37,2.19l-2.01.36c-.26-1.13-.97-1.7-2.12-1.7-.59,0-1.05.14-1.37.43-.32.29-.48.69-.48,1.21,0,.36.07.65.21.88.14.23.36.43.65.6s.84.38,1.66.63c.96.3,1.65.56,2.06.79s.73.48.97.75.42.59.54.96.19.79.19,1.27Z"/>
    <path class="cls-17" d="M1258.3,126.13l2.96,7.28c.15.36.46,1.24.94,2.65.18-.57.5-1.45.98-2.65l2.88-7.28h2.89v12.38h-1.94v-8.21c0-.36,0-.73.02-1.09s.02-.73.04-1.1c-.13.38-.25.68-.33.92s-.28.74-.58,1.51l-3.14,7.98h-1.62l-3.25-8.08c-.35-.87-.63-1.65-.86-2.33.01.36.02.72.03,1.08,0,.36.01.72.01,1.08v8.24h-1.93v-12.38h2.91Z"/>
    <path class="cls-17" d="M1274.21,138.51h-2.14v-12.38h2.14v12.38Z"/>
    <path class="cls-17" d="M1279.47,126.13v10.69h4.76v1.7h-6.91v-12.38h2.14Z"/>
    <path class="cls-17" d="M1293.2,138.51h-7.11v-12.38h6.75v1.7h-4.61v3.55h4.07v1.65h-4.07v3.81h4.97v1.68Z"/>
  </g>
  <path class="cls-17" d="M1303.17,135.02c0,1.18-.38,2.09-1.13,2.72-.75.63-1.84.95-3.26.95-1.25,0-2.24-.27-2.96-.82-.72-.54-1.18-1.37-1.4-2.47l1.99-.34c.29,1.34,1.11,2.01,2.48,2.01,1.49,0,2.23-.64,2.23-1.92,0-.37-.07-.67-.22-.91s-.35-.43-.61-.59-.56-.29-.91-.4c-.35-.11-.72-.22-1.12-.34-.96-.28-1.66-.56-2.09-.86-.43-.3-.76-.67-.99-1.12-.23-.45-.35-1.01-.35-1.69,0-1.04.35-1.85,1.04-2.43s1.65-.87,2.88-.87,2.09.23,2.75.7c.66.47,1.12,1.2,1.37,2.19l-2.01.36c-.26-1.13-.97-1.7-2.12-1.7-.59,0-1.05.14-1.37.43-.32.29-.48.69-.48,1.21,0,.36.07.65.21.88.14.23.36.43.65.6s.84.38,1.66.63c.96.3,1.65.56,2.06.79s.73.48.97.75.42.59.54.96.19.79.19,1.27Z"/>
  <path class="cls-15" d="M1313.04,197.5v-1.15c.54.09.99.13,1.34.11h12.62c.38.01.87-.03,1.46-.11v1.15c-.63-.07-1.13-.11-1.51-.11h-12.53c-.31,0-.77.04-1.37.11ZM1314.53,187.1v-1.15c.54.07,1,.11,1.35.11h9.7c.38.01.85-.02,1.41-.11v1.15c-.59-.08-1.07-.11-1.42-.11h-9.58c-.39,0-.88.04-1.46.11Z"/>
  <g>
    <path class="cls-15" d="M1333.84,183.44l1.2.74c.17.11.25.18.24.23s-.12.09-.31.13c-.23.05-.44.25-.63.61-.6,1.1-1.42,2.48-2.46,4.17.77-.01,1.58-.05,2.44-.11.66-1.21,1.14-2.24,1.42-3.09l1.35.88c.13.08.18.13.16.17-.01.05-.11.09-.31.14-.23.1-.42.26-.57.48-1.5,2.56-2.77,4.59-3.81,6.09,1.31-.12,2.69-.35,4.14-.67l-.27,1.2c-3.08.46-4.71.75-4.89.89l-.56-1.35c.45-.16.83-.51,1.15-1.05.48-.72,1.04-1.63,1.66-2.73-1.11,0-2.07.11-2.9.34l-.41-1.28c.45-.26.75-.55.91-.86,1.13-1.79,1.95-3.42,2.45-4.91ZM1330.58,197.82c2.55-.44,4.64-.97,6.27-1.6l-.14,1.34c-2.72.66-4.57,1.21-5.53,1.67l-.6-1.41ZM1335.29,190.86c1.95-1.75,3.31-4.2,4.09-7.33l1.4.69c.13.06.2.11.18.16s-.1.1-.25.16c-.23.07-.41.27-.54.61-.21.47-.52,1.15-.94,2.06h6.27c.35.01.72-.02,1.13-.11v1.08c-.43-.09-.8-.13-1.1-.11h-2.52v2.63h1.95c.33.01.69-.02,1.05-.11v1.08c-.4-.08-.74-.12-1.02-.11h-1.99v2.61h1.93c.32.01.66-.03,1.02-.11v1.08c-.4-.08-.74-.12-1.02-.11h-1.93v2.77h2.83c.33.01.69-.02,1.06-.11v1.05c-.43-.09-.79-.13-1.08-.11h-6.57c-.01.42.03.88.11,1.39h-1.23c.09-.48.13-.95.12-1.41v-9.45c-.46.73-.99,1.52-1.59,2.36-.4-.25-.86-.47-1.36-.66ZM1339.24,188.07v2.63h2.76v-2.63h-2.76ZM1339.24,191.56v2.61h2.76v-2.61h-2.76ZM1339.24,195.03v2.77h2.76v-2.77h-2.76ZM1342.28,183.62c.83,1.1,1.46,2,1.89,2.72l-1,.74c-.54-1.02-1.14-1.94-1.82-2.76l.93-.7Z"/>
    <path class="cls-15" d="M1348.24,191.43c2.74-1.54,4.62-4.03,5.65-7.49l1.21.47c.18.06.26.11.25.16.01.05-.07.13-.25.24-.25.12-.48.42-.69.91-1.24,2.68-2.91,4.85-5.01,6.51-.35-.32-.73-.59-1.17-.81ZM1349.63,198.85c3.31-1.11,4.98-3.71,5.02-7.8h-1.19c-.46,0-.96.04-1.49.11v-1.12c.5.07,1,.11,1.49.11h5.89c.66,0,1.27-.04,1.84-.11-.08.59-.13,1.14-.15,1.67l-.16,3.31c-.06,1.89-.31,3.05-.76,3.47-.37.52-1.36.82-2.97.91-.16-.46-.38-.92-.65-1.39.44.04.85.06,1.23.06.78,0,1.27-.11,1.48-.32.38-.23.58-1.05.61-2.46l.19-4.25h-4.19c-.13,4.2-1.83,7.14-5.1,8.82-.3-.36-.66-.71-1.08-1.03ZM1358.75,183.39c.9,3.39,2.99,5.95,6.27,7.68-.41.21-.84.51-1.29.91-2.82-2.04-4.86-4.85-6.11-8.43l1.13-.16Z"/>
  </g>
  <g>
    <path class="cls-15" d="M1312.93,213.25v-1.15c.42.07.87.11,1.34.11h5.98v-.81c0-.29-.04-.63-.12-1.03,2.03-1.32,3.52-2.53,4.46-3.62h-8.4c-.43,0-.92.04-1.46.11v-1.15c.42.07.89.11,1.41.11h9.09c.49,0,1.12-.04,1.87-.11-1.27,1.46-3.2,3.2-5.78,5.2v1.29h5.9c.49,0,.94-.04,1.35-.11v1.15c-.45-.07-.89-.11-1.34-.11h-5.92v6.22c.02.86-.16,1.4-.56,1.64-.36.28-1.21.45-2.57.52-.08-.49-.29-.98-.61-1.46.63.08,1.14.12,1.51.12.35,0,.59-.04.72-.11.31-.08.46-.45.43-1.1v-5.84h-5.99c-.48,0-.92.04-1.32.11Z"/>
    <path class="cls-15" d="M1336.77,217.68c-.11.36-.16.75-.13,1.19-2.44.72-4.26,1.37-5.45,1.94-.15-.49-.32-.96-.51-1.39,1.61-.23,3.64-.81,6.09-1.74ZM1333.56,205.04l1.32.62c.2.08.29.16.28.23,0,.07-.11.13-.32.18-.26.06-.5.29-.7.7-.6,1.27-1.3,2.54-2.09,3.8.25,0,.65-.01,1.21-.04.58-.03,1-.04,1.27-.04.53-.93.93-1.82,1.22-2.66l1.19.72c.18.11.27.18.27.22.01.05-.07.11-.25.18-.26.13-.5.4-.72.79-.85,1.59-1.89,3.32-3.11,5.19,1.33-.11,2.57-.31,3.73-.62-.11.33-.17.72-.17,1.15-1.95.25-3.59.53-4.91.83-.08-.49-.21-.9-.4-1.22.43-.1.81-.38,1.12-.85.78-1.14,1.35-2.08,1.71-2.84-1.27.05-2.29.14-3.04.29-.04-.11-.18-.48-.43-1.1.35-.22.59-.46.74-.74.86-1.48,1.56-3.07,2.1-4.77ZM1338.95,208.29h2.39v-1.61c0-.5-.04-1.05-.11-1.65l1.46.18c.23.01.35.06.35.13.03.06-.06.16-.26.31-.29.2-.43.55-.43,1.05v1.59h2.99c.5,0,1-.04,1.48-.11v1.12c-.48-.07-.97-.11-1.48-.11h-2.99v2.88h2.1c.52,0,1.01-.04,1.48-.11v1.12c-.52-.07-1.01-.11-1.48-.11h-5.17c-.5,0-.99.04-1.47.11v-1.12c.46.08.95.11,1.47.11h2.06v-2.88h-2.39c-.5,0-.99.04-1.46.11v-1.12c.43.08.91.11,1.46.11ZM1338.15,214.89c.33.07.83.11,1.49.11h4.48c.6,0,1.1-.04,1.49-.11-.07.45-.11.9-.11,1.37v3.73c0,.5.04.96.12,1.38h-1.24c.09-.38.13-.77.11-1.17h-5.24c0,.54.03.96.08,1.25h-1.18c.06-.47.1-.92.1-1.35v-3.76c0-.6-.04-1.08-.12-1.44ZM1339.27,219.33h5.24v-3.44h-5.24v3.44Z"/>
    <path class="cls-15" d="M1351.76,210.23h-1.3c-.64,0-1.12.04-1.44.11v-1.12c.4.07.88.11,1.44.11h1.61v-2.89c0-.62-.04-1.07-.11-1.37l1.37.18c.13.02.19.05.19.1.01.04-.04.08-.14.14-.21.12-.31.52-.31,1.2v2.65h.58c.6,0,1.09-.04,1.48-.11v1.12c-.41-.07-.89-.11-1.44-.11h-.62v1.12c1.08.88,1.91,1.65,2.49,2.29l-.76.88c-.5-.74-1.08-1.38-1.73-1.91v7.38c0,.64.04,1.18.11,1.6h-1.22c.08-.43.11-.96.11-1.58v-7.87c-.71,1.75-1.5,3.23-2.36,4.45-.33-.22-.73-.4-1.19-.56,1.38-1.32,2.46-3.25,3.24-5.79ZM1354.86,211.42c1.58-1.54,2.69-3.68,3.31-6.42l1.22.47c.21.07.31.13.31.18.01.04-.07.08-.25.14-.19.05-.33.18-.4.41-.25.74-.56,1.49-.93,2.25h4.88c.57-.01,1.07-.05,1.48-.11-.03.28-.05.69-.06,1.26-.01.19-.02.34-.02.43,0,.22,0,.55-.02.99-.05,3.26-.12,5.74-.21,7.44-.04,1.1-.5,1.86-1.39,2.29-.55.28-1.55.45-2.99.52-.02-.49-.17-1.01-.45-1.56.42.13.79.21,1.1.24.07,0,.16,0,.26,0,.26,0,.57-.02.95-.07,1.01-.09,1.51-.78,1.51-2.07.01-.48.04-1.3.07-2.47.08-2.83.12-4.83.13-5.99h-5.71c-.52.98-1.03,1.85-1.53,2.61-.32-.28-.74-.45-1.26-.54ZM1358.38,210.62l1.3.38c.15.05.22.09.21.12,0,.02-.09.08-.26.17-.15.07-.29.28-.43.64-.63,1.58-1.4,3.09-2.31,4.54.62-.05,1.7-.17,3.26-.38.29-.04.5-.06.63-.07-.3-.61-.73-1.36-1.28-2.25l.97-.48c.85,1.52,1.54,2.91,2.07,4.16l-.97.48c-.13-.46-.3-.85-.48-1.19-1.95.25-3.2.45-3.75.6-.55.15-1.03.31-1.42.48-.13-.41-.32-.82-.54-1.24.35-.16.59-.32.72-.49,1.05-1.56,1.82-3.38,2.29-5.47Z"/>
  </g>
  <polyline class="cls-7" points="1077.75 132.34 1059.84 132.34 1059.84 167.01"/>
  <polygon class="cls-23" points="1076.75 135.34 1082.75 132.34 1076.75 129.34 1076.75 135.34 1076.75 135.34"/>
  <polyline class="cls-10" points="1077.75 202.76 1059.84 202.76 1059.84 167.02"/>
  <polygon class="cls-21" points="1076.75 199.76 1082.75 202.76 1076.75 205.76 1076.75 199.76 1076.75 199.76"/>
  <line class="cls-14" x1="1197" y1="131.86" x2="1228.3" y2="131.86"/>
  <polygon class="cls-23" points="1227.18 128.48 1233.93 131.86 1227.18 135.23 1227.18 128.48 1227.18 128.48"/>
  <line class="cls-4" x1="1267.2" y1="202.78" x2="1291.85" y2="202.78"/>
  <polygon class="cls-25" points="1290.73 199.4 1297.48 202.78 1290.73 206.15 1290.73 199.4 1290.73 199.4"/>
  <polyline class="cls-1" points="63.09 77.13 63.09 33.75 1271.42 33.75 1271.42 114.28"/>
  <polygon class="cls-21" points="59.36 76 63.09 82.75 66.82 76 59.36 76 59.36 76"/>
  <line class="cls-6" x1="479.86" y1="39.55" x2="479.86" y2="75.79"/>
  <polygon class="cls-20" points="482.86 74.79 479.86 80.79 476.86 74.79 482.86 74.79 482.86 74.79"/>
  <g>
    <path class="cls-15" d="M483,65.29c1.79-.08,3.17-.53,4.16-1.34-.73-.42-1.4-.87-2-1.34l.54-.63c.4.5,1.01.97,1.85,1.42.25-.41.41-.96.48-1.64h-2.37c-.34,0-.7.02-1.09.07.05-.44.08-.8.07-1.09v-2.12c0-.26-.02-.63-.07-1.11.45.05.82.07,1.11.07h2.41v-1.14h-3.9c-.26,0-.59.03-.98.08v-.74c.38.05.7.07.98.07h8.12c.27,0,.59-.02.97-.07v.74c-.38-.06-.7-.08-.97-.08h-3.55v1.14h2.22c.27,0,.62-.02,1.07-.07-.05.41-.07.77-.07,1.05v2.2c0,.29.02.64.07,1.07-.41-.05-.77-.08-1.07-.07h-2.28c-.1.76-.28,1.42-.54,1.98,1.56.75,3.34,1.16,5.34,1.22-.25.29-.42.6-.5.92-1.96-.36-3.69-.88-5.19-1.57-.85.79-2.24,1.4-4.19,1.86-.14-.31-.35-.6-.62-.88ZM485.29,58.18v1.24h2.79v-1.24h-2.79ZM485.29,60.02v1.14h2.77c0-.2.01-.3.01-.31s0-.02,0-.01h0s-.01.25-.01.25c.02-.34.02-.7.02-1.07h-2.79ZM488.72,61.16h2.6v-1.14h-2.58v.64c0,.17-.02.33-.02.49ZM488.76,58.18v1.24h2.57v-1.24h-2.57Z"/>
    <path class="cls-15" d="M494.91,64.61c.71-.71,1.2-1.49,1.46-2.34l.76.45c.07.04.11.07.1.11-.02.02-.08.05-.18.07-.12.02-.24.14-.37.39-.31.57-.66,1.13-1.04,1.69-.19-.14-.44-.27-.73-.36ZM496,59.33h1.15c-.37-.48-.75-.91-1.15-1.28l.53-.43c.36.37.75.79,1.17,1.26l-.47.46h1.01c.46-.74.78-1.4.94-1.97l.78.43c.09.05.12.09.12.12,0,.04-.04.07-.13.1-.11.05-.2.11-.29.18-.08.09-.32.47-.73,1.14h.9c.22,0,.54-.03.94-.07v.74c-.38-.04-.7-.07-.95-.08h-1.35v1.28h1.18c.27-.01.59-.04.94-.08v.74c-.41-.04-.73-.06-.96-.07h-1.16v2.81c.02.5-.07.8-.26.91-.15.14-.6.24-1.34.29-.02-.31-.12-.59-.3-.84.25.04.46.05.63.05s.29-.02.37-.05c.16-.06.24-.22.23-.49v-2.68h-1.46c-.3,0-.64.03-1,.07v-.74c.43.05.77.08,1,.08h1.46v-1.28h-1.78c-.23,0-.55.03-.96.08v-.74c.39.04.71.06.96.07ZM495.29,57.33v-.74c.48.05.82.07,1.01.07h1.79c-.3-.36-.71-.75-1.21-1.18l.5-.48c.3.25.74.63,1.3,1.16l-.48.5h1.39c.22,0,.54-.03.95-.07v.74c-.41-.04-.73-.06-.95-.07h-3.29c-.16,0-.5.02-1.01.07ZM498.87,62.71l.6-.39c.31.46.62.96.92,1.51l-.66.4c-.26-.59-.55-1.1-.87-1.52ZM504.64,55.14l.63.65c.06.06.09.11.07.14s-.07.05-.16.04c-.04,0-.1,0-.18,0-.23,0-.46.04-.69.12-.42.14-1.21.37-2.36.69v2.37h2.91c.22,0,.54-.02.96-.07v.74c-.4-.04-.72-.06-.96-.07h-.6v5.12c.02.33.04.68.07,1.07h-.81c.05-.48.07-.84.07-1.07v-5.12h-1.63c.02,1.79-.07,3.02-.26,3.68-.18.76-.63,1.61-1.35,2.55-.17-.2-.42-.38-.74-.52.69-.59,1.14-1.27,1.35-2.03.22-.73.33-1.96.32-3.7v-2.46s0-.08-.01-.22c-.03-.31-.05-.6-.07-.87.07.01.14.02.21.02.23,0,.52-.05.87-.15,1.09-.29,1.88-.59,2.37-.91Z"/>
    <path class="cls-15" d="M508.92,58.31h-.97c-.27,0-.6.02-.97.07v-.77c.36.05.68.07.97.07h1.02v-1.86c0-.26-.03-.56-.08-.91l.89.12c.1,0,.15.02.16.05s-.03.06-.11.11c-.14.09-.22.36-.22.8v1.7h.45c.28,0,.61-.02.97-.07v.77c-.4-.05-.72-.07-.96-.07h-.46v.65c.4.36.88.83,1.42,1.42.15.15.27.27.35.36l-.57.54c-.31-.46-.71-.94-1.19-1.43v5.13c0,.38.03.74.08,1.08h-.8c.05-.43.08-.79.08-1.05v-5.03c-.39.91-.92,1.83-1.58,2.76-.19-.2-.44-.34-.73-.42.96-.95,1.71-2.29,2.26-4.01ZM517.82,65.06c-.29.14-.56.38-.8.71-1.27-1.09-2.19-2.07-2.77-2.94-.87,1.07-1.96,2-3.26,2.79-.18-.31-.44-.53-.78-.64,1.45-.54,2.65-1.48,3.61-2.81-.91-1.64-1.51-3.45-1.81-5.43-.25,0-.53.02-.83.07v-.77c.26.05.58.07.97.07h3.83c.31,0,.61-.02.88-.07-.44,2.58-1.15,4.64-2.13,6.16.79,1.27,1.82,2.22,3.09,2.86ZM515.91,56.73h-3.21c.18,1.59.71,3.18,1.59,4.78.89-1.55,1.43-3.15,1.62-4.78Z"/>
    <path class="cls-15" d="M519.99,55.92c.56.05,1.15.07,1.78.07.82,0,1.66-.04,2.5-.13,1.42-.16,2.51-.42,3.28-.77l.55.72c.07.08.11.14.11.18,0,.01,0,.02,0,.02-.01.02-.04.03-.08.03-.03,0-.07,0-.13-.02-.13-.03-.25-.04-.36-.04-.09,0-.18,0-.27.03-.71.12-1.6.26-2.66.42v1.07h4.11c.24,0,.47-.02.71-.08v.72c-.24-.05-.47-.08-.7-.07h-4.12v.76h2.54c.22,0,.49-.02.79-.07-.05.29-.08.54-.07.77v2.34c0,.25.02.5.07.76-.29-.05-.55-.08-.78-.07h-2.55v.85h2.9c.23,0,.48-.02.74-.07v.72c-.3-.05-.55-.08-.76-.07h-2.89v1.05h4.12c.21,0,.46-.02.74-.07v.71c-.27-.05-.53-.08-.76-.07h-8.99c-.23,0-.48.02-.76.07v-.71c.23.05.47.08.73.07h4.22v-1.05h-2.83c-.2,0-.45.02-.74.07v-.72c.25.05.49.08.7.07h2.87v-.85h-2.52c-.23,0-.5.02-.81.07.05-.26.08-.51.07-.74v-2.36c0-.21-.02-.46-.07-.76.29.05.56.08.8.07h2.53v-.76h-4.26c-.21,0-.47.02-.77.07v-.72c.25.06.49.08.74.08h4.28v-.98c-.79.09-1.98.16-3.56.22-.15-.38-.3-.65-.46-.82ZM521.39,59.39v1.03h2.62v-1.03h-2.62ZM524.01,62.01v-1.03h-2.62v1.03h2.62ZM524.69,59.39v1.03h2.61v-1.03h-2.61ZM524.69,60.98v1.03h2.61v-1.03h-2.61Z"/>
  </g>
  <line class="cls-6" x1="698.45" y1="38.19" x2="698.45" y2="106.41"/>
  <polygon class="cls-20" points="701.45 105.41 698.45 111.41 695.45 105.41 701.45 105.41 701.45 105.41"/>
  <g>
    <path class="cls-15" d="M702.75,63.54c1.79-.08,3.17-.53,4.16-1.34-.73-.42-1.4-.87-2-1.34l.54-.63c.4.5,1.01.97,1.85,1.42.25-.41.41-.96.48-1.64h-2.37c-.34,0-.7.02-1.09.07.05-.44.08-.8.07-1.09v-2.12c0-.26-.02-.63-.07-1.11.45.05.82.07,1.11.07h2.41v-1.14h-3.9c-.26,0-.59.03-.98.08v-.74c.38.05.7.07.98.07h8.12c.27,0,.59-.02.97-.07v.74c-.38-.06-.7-.08-.97-.08h-3.55v1.14h2.22c.27,0,.62-.02,1.07-.07-.05.41-.07.77-.07,1.05v2.2c0,.29.02.64.07,1.07-.41-.05-.77-.08-1.07-.07h-2.28c-.1.76-.28,1.42-.54,1.98,1.56.75,3.34,1.16,5.34,1.22-.25.29-.42.6-.5.92-1.96-.36-3.69-.88-5.19-1.57-.85.79-2.24,1.4-4.19,1.86-.14-.31-.35-.6-.62-.88ZM705.04,56.43v1.24h2.79v-1.24h-2.79ZM705.04,58.27v1.14h2.77c0-.2.01-.3.01-.31s0-.02,0-.01h0s-.01.25-.01.25c.02-.34.02-.7.02-1.07h-2.79ZM708.48,59.41h2.6v-1.14h-2.58v.64c0,.17-.02.33-.02.49ZM708.51,56.43v1.24h2.57v-1.24h-2.57Z"/>
    <path class="cls-15" d="M714.66,62.87c.71-.71,1.2-1.49,1.46-2.34l.76.45c.07.04.11.07.1.11-.02.02-.08.05-.18.07-.12.02-.24.14-.37.39-.31.57-.66,1.13-1.04,1.69-.19-.14-.44-.27-.73-.36ZM715.76,57.59h1.15c-.37-.48-.75-.91-1.15-1.28l.53-.43c.36.37.75.79,1.17,1.26l-.47.46h1.01c.46-.74.78-1.4.94-1.97l.78.43c.09.05.12.09.12.12,0,.04-.04.07-.13.1-.11.05-.2.11-.29.18-.08.09-.32.47-.73,1.14h.9c.22,0,.54-.03.94-.07v.74c-.38-.04-.7-.07-.95-.08h-1.35v1.28h1.18c.27-.01.59-.04.94-.08v.74c-.41-.04-.73-.06-.96-.07h-1.16v2.81c.02.5-.07.8-.26.91-.15.14-.6.24-1.34.29-.02-.31-.12-.59-.3-.84.25.04.46.05.63.05s.29-.02.37-.05c.16-.06.24-.22.23-.49v-2.68h-1.46c-.3,0-.64.03-1,.07v-.74c.43.05.77.08,1,.08h1.46v-1.28h-1.78c-.23,0-.55.03-.96.08v-.74c.39.04.71.06.96.07ZM715.05,55.58v-.74c.48.05.82.07,1.01.07h1.79c-.3-.36-.71-.75-1.21-1.18l.5-.48c.3.25.74.63,1.3,1.16l-.48.5h1.39c.22,0,.54-.03.95-.07v.74c-.41-.04-.73-.06-.95-.07h-3.29c-.16,0-.5.02-1.01.07ZM718.62,60.96l.6-.39c.31.46.62.96.92,1.51l-.66.4c-.26-.59-.55-1.1-.87-1.52ZM724.4,53.4l.63.65c.06.06.09.11.07.14s-.07.05-.16.04c-.04,0-.1,0-.18,0-.23,0-.46.04-.69.12-.42.14-1.21.37-2.36.69v2.37h2.91c.22,0,.54-.02.96-.07v.74c-.4-.04-.72-.06-.96-.07h-.6v5.12c.02.33.04.68.07,1.07h-.81c.05-.48.07-.84.07-1.07v-5.12h-1.63c.02,1.79-.07,3.02-.26,3.68-.18.76-.63,1.61-1.35,2.55-.17-.2-.42-.38-.74-.52.69-.59,1.14-1.27,1.35-2.03.22-.73.33-1.96.32-3.7v-2.46s0-.08-.01-.22c-.03-.31-.05-.6-.07-.87.07.01.14.02.21.02.23,0,.52-.05.87-.15,1.09-.29,1.88-.59,2.37-.91Z"/>
    <path class="cls-15" d="M728.67,56.57h-.97c-.27,0-.6.02-.97.07v-.77c.36.05.68.07.97.07h1.02v-1.86c0-.26-.03-.56-.08-.91l.89.12c.1,0,.15.02.16.05s-.03.06-.11.11c-.14.09-.22.36-.22.8v1.7h.45c.28,0,.61-.02.97-.07v.77c-.4-.05-.72-.07-.96-.07h-.46v.65c.4.36.88.83,1.42,1.42.15.15.27.27.35.36l-.57.54c-.31-.46-.71-.94-1.19-1.43v5.13c0,.38.03.74.08,1.08h-.8c.05-.43.08-.79.08-1.05v-5.03c-.39.91-.92,1.83-1.58,2.76-.19-.2-.44-.34-.73-.42.96-.95,1.71-2.29,2.26-4.01ZM737.57,63.31c-.29.14-.56.38-.8.71-1.27-1.09-2.19-2.07-2.77-2.94-.87,1.07-1.96,2-3.26,2.79-.18-.31-.44-.53-.78-.64,1.45-.54,2.65-1.48,3.61-2.81-.91-1.64-1.51-3.45-1.81-5.43-.25,0-.53.02-.83.07v-.77c.26.05.58.07.97.07h3.83c.31,0,.61-.02.88-.07-.44,2.58-1.15,4.64-2.13,6.16.79,1.27,1.82,2.22,3.09,2.86ZM735.66,54.99h-3.21c.18,1.59.71,3.18,1.59,4.78.89-1.55,1.43-3.15,1.62-4.78Z"/>
    <path class="cls-15" d="M739.75,54.18c.56.05,1.15.07,1.78.07.82,0,1.66-.04,2.5-.13,1.42-.16,2.51-.42,3.28-.77l.55.72c.07.08.11.14.11.18,0,.01,0,.02,0,.02-.01.02-.04.03-.08.03-.03,0-.07,0-.13-.02-.13-.03-.25-.04-.36-.04-.09,0-.18,0-.27.03-.71.12-1.6.26-2.66.42v1.07h4.11c.24,0,.47-.02.71-.08v.72c-.24-.05-.47-.08-.7-.07h-4.12v.76h2.54c.22,0,.49-.02.79-.07-.05.29-.08.54-.07.77v2.34c0,.25.02.5.07.76-.29-.05-.55-.08-.78-.07h-2.55v.85h2.9c.23,0,.48-.02.74-.07v.72c-.3-.05-.55-.08-.76-.07h-2.89v1.05h4.12c.21,0,.46-.02.74-.07v.71c-.27-.05-.53-.08-.76-.07h-8.99c-.23,0-.48.02-.76.07v-.71c.23.05.47.08.73.07h4.22v-1.05h-2.83c-.2,0-.45.02-.74.07v-.72c.25.05.49.08.7.07h2.87v-.85h-2.52c-.23,0-.5.02-.81.07.05-.26.08-.51.07-.74v-2.36c0-.21-.02-.46-.07-.76.29.05.56.08.8.07h2.53v-.76h-4.26c-.21,0-.47.02-.77.07v-.72c.25.06.49.08.74.08h4.28v-.98c-.79.09-1.98.16-3.56.22-.15-.38-.3-.65-.46-.82ZM741.15,57.65v1.03h2.62v-1.03h-2.62ZM743.77,60.27v-1.03h-2.62v1.03h2.62ZM744.44,57.65v1.03h2.61v-1.03h-2.61ZM744.44,59.23v1.03h2.61v-1.03h-2.61Z"/>
  </g>
  <line class="cls-1" x1="1004.4" y1="152.62" x2="1004.4" y2="34.04"/>
  <g>
    <path class="cls-15" d="M922.09,68.75l-4.41-6.19-1.27,1.26v4.93h-1.18v-12.38h1.18v6.21l5.38-6.21h1.47l-4.75,5.38,5.05,7h-1.48Z"/>
    <path class="cls-15" d="M925.19,68.75v-12.38h1.18v11.39h5.15v.99h-6.33Z"/>
  </g>
  <g>
    <path class="cls-15" d="M934.06,59.8h1.12v-2h-.7c-.36,0-.81.04-1.34.11v-1.08c.5.07.95.11,1.34.11h.7v-.76c0-.53-.04-1.14-.11-1.84l1.32.22c.17.02.26.07.27.14,0,.06-.07.16-.22.29-.17.13-.26.53-.26,1.19v.76h1.86v-.68c0-.58-.04-1.21-.11-1.89l1.34.21c.16.02.25.06.25.12.01.06-.06.17-.21.31-.18.13-.27.55-.26,1.25v.68c.54,0,1.08-.04,1.63-.11v1.08c-.55-.07-1.1-.11-1.63-.11v2c.66,0,1.28-.04,1.86-.11v.84c1.19-1.89,2.01-4.08,2.47-6.57l1.31.38c.18.05.28.11.31.17.01.05-.05.11-.2.19-.23.13-.41.39-.55.76-.47,1.29-.79,2.17-.97,2.65h3.89c.54,0,1.06-.04,1.56-.11v1.12c-.54-.07-1.06-.11-1.56-.11h-.22c-.28,3.02-.83,5.36-1.65,7,1.24,1.68,2.62,2.74,4.16,3.18-.43.28-.81.62-1.13,1.03-1.38-.91-2.59-2.02-3.62-3.31-.84,1.11-1.94,2.22-3.31,3.31-.29-.25-.65-.5-1.1-.76,1.52-.76,2.77-1.88,3.73-3.38-.79-1.46-1.38-3.18-1.76-5.13l.97-.16c.29,1.68.76,3.13,1.41,4.35.72-1.49,1.15-3.53,1.29-6.13h-2.95c-.45.95-.9,1.84-1.36,2.68-.41-.19-.84-.34-1.3-.45.15-.13.29-.29.44-.47-.53-.08-1.09-.11-1.68-.11h-4.98c-.4,0-.88.04-1.46.11v-1.08c.55.07,1.04.11,1.46.11ZM937.89,70.47c-.11-.43-.29-.87-.54-1.33.42.04.73.06.95.06.28,0,.47-.03.58-.08.23-.07.33-.31.3-.72v-1.15h-3.83v1.71c0,.54.04,1.1.12,1.68h-1.23c.08-.63.11-1.19.11-1.68v-5.4c0-.46-.04-1.01-.11-1.65.65.07,1.24.11,1.77.11h2.59c.57,0,1.14-.04,1.71-.11-.07.57-.11,1.1-.11,1.58v5.11c.01.67-.13,1.11-.41,1.32-.24.24-.87.42-1.89.55ZM935.35,62.88v1.34h3.83v-1.34h-3.83ZM935.35,65.08v1.32h3.83v-1.32h-3.83ZM936.18,57.81v2h1.86v-2h-1.86Z"/>
    <path class="cls-15" d="M950.67,69.3c.97-.81,1.61-1.81,1.92-2.99.34-1.1.5-2.96.48-5.58v-3.36c.02-.52-.02-1.08-.11-1.68.62.07,1.15.11,1.6.11h5.92c-.47-.37-1.08-.78-1.84-1.24l.63-.83c.78.47,1.48.94,2.11,1.41l-.46.66h4.53c.38,0,.88-.04,1.51-.11v1.15c-.65-.07-1.15-.11-1.51-.11h-11.35v4.33c.01,2.29-.12,3.98-.41,5.1-.26,1.15-.84,2.38-1.72,3.69-.3-.25-.74-.44-1.32-.56ZM959.51,67.62c-1.14-1-1.98-2.03-2.52-3.09h-.22c-.35-.01-.81.02-1.4.11v-1.12c.55.08,1.02.12,1.4.11h6.39c.34.01.84-.02,1.49-.11-.8,1.32-1.93,2.69-3.38,4.1,1.89.97,3.86,1.49,5.91,1.55-.35.32-.61.76-.79,1.31-2.47-.43-4.47-1.15-5.99-2.15-1.73,1.03-3.63,1.85-5.71,2.46-.22-.52-.49-.93-.83-1.24,2.02-.18,3.9-.82,5.65-1.92ZM958.48,58.76h3.96v-.25c.02-.54-.02-1.09-.11-1.64l1.35.2c.16.02.25.05.25.09.01.04-.06.12-.21.25-.18.16-.27.55-.27,1.15v.19h1.44c.36.01.83-.02,1.42-.11v1.12c-.6-.08-1.08-.12-1.42-.11h-1.44v1.24c-.01.38.02.9.11,1.55-.7-.08-1.27-.12-1.69-.11h-3.17c-.37,0-.81.04-1.33.11.07-.52.11-.98.11-1.39v-1.4h-1.49c-.35-.01-.81.02-1.38.11v-1.12c.55.08,1.01.12,1.38.11h1.49v-.23c0-.48-.04-1.01-.11-1.59l1.37.2c.15.01.23.04.23.09s-.07.13-.21.25c-.18.13-.27.51-.27,1.15v.12ZM960.39,67.02c.95-.76,1.72-1.59,2.32-2.5h-4.57c.5.83,1.25,1.66,2.25,2.5ZM958.48,59.66v1.78h3.96v-1.78h-3.96Z"/>
    <path class="cls-15" d="M969.23,58.96v-1.08c.22.07.56.11,1,.11h1.53v-2.07c0-.72-.04-1.26-.11-1.61l1.42.24c.13.01.19.05.19.11.01.06-.04.13-.16.2-.22.14-.33.43-.34.88v2.25h.86c.47,0,.84-.04,1.12-.11v1.08c-.3-.08-.67-.11-1.12-.11h-.86v3.41c.61-.29,1.16-.59,1.65-.91v.17c-.01.46.03.79.12.98-.17.07-.47.2-.89.38-.4.18-.7.31-.88.4v5.6c.02.6-.11.98-.41,1.12-.25.18-.94.31-2.07.4-.05-.42-.2-.86-.45-1.33.43.08.78.12,1.06.12.68,0,1,.04.95.13s-.07-.13-.07-.65c0-.06,0-.11-.02-.17v-4.69c-.72.36-1.46.75-2.21,1.19-.12-.25-.36-.64-.72-1.15.59-.17,1.57-.55,2.94-1.15v-3.84h-1.36c-.46,0-.85.04-1.17.11ZM978.91,61.98l1.21.12c.24.02.37.06.4.1s-.04.12-.2.24c-.15.11-.23.32-.23.65,0,.08,0,.18.02.29,0,.11,0,.28,0,.49,0,1.8-.53,3.32-1.6,4.54-.79.8-2.13,1.52-4.03,2.14-.15-.41-.43-.81-.85-1.19,1.48-.18,2.58-.57,3.31-1.16.98-.79,1.59-1.59,1.82-2.39.13-.42.21-.93.24-1.51.02-.56,0-1.34-.1-2.34ZM982.93,64.99v-4.07h-6.57v4.26c0,.69.04,1.25.11,1.7h-1.22c.07-.45.11-1.01.11-1.7v-3.76c0-.66-.04-1.16-.11-1.51.33.08.81.11,1.43.11h5.63c.69,0,1.26-.04,1.73-.11-.07.3-.11.8-.11,1.51v3.62c0,.6.04,1.13.11,1.6h-1.22c.07-.47.11-1.02.11-1.65ZM975.71,54.78c.31.07.8.11,1.46.11h4.52c.7,0,1.25-.04,1.67-.11-.07.35-.11.84-.11,1.49v1.04c0,.69.04,1.18.11,1.48-.36-.07-.85-.11-1.48-.11h-4.62c-.73,0-1.25.04-1.55.11.07-.43.11-.93.11-1.51v-1c0-.63-.04-1.12-.11-1.49ZM976.83,55.79v2h5.41v-2h-5.41ZM979.96,67.27l.72-.96c1.63,1.08,3.07,2.11,4.31,3.08l-.85.97c-1.22-1.16-2.62-2.19-4.17-3.09Z"/>
    <path class="cls-15" d="M987,69.7c3.95-.48,6.37-2.63,7.25-6.44h-4.95c-.4.01-.89.05-1.48.11v-1.12c.5.06,1,.09,1.48.11h5.1c.07-.84.13-2,.19-3.45h-3.97c-.4.86-.77,1.57-1.12,2.14-.36-.14-.81-.28-1.35-.41,1.24-1.15,2.15-3.19,2.73-6.12l1.35.59c.13.06.19.13.18.18-.01.07-.09.15-.25.24-.25.08-.47.43-.67,1.04l-.52,1.44h3.61v-2.3c-.01-.47-.05-1.03-.11-1.69l1.39.19c.12.01.18.04.19.09,0,.05-.05.13-.14.22-.18.23-.28.68-.29,1.34v2.14h4.21c.38-.01.86-.05,1.44-.11v1.12c-.57-.06-1.05-.09-1.44-.11h-4.21c-.04,1.4-.1,2.55-.19,3.45h5.42c.4-.01.88-.05,1.44-.11v1.12c-.49-.06-.97-.1-1.44-.11h-4.95c1.31,3.29,3.61,5.35,6.91,6.18-.48.39-.84.79-1.08,1.19-3.19-1.45-5.38-3.6-6.58-6.44-.87,3.22-3.22,5.48-7.07,6.8-.29-.42-.65-.85-1.1-1.28Z"/>
  </g>
  <line class="cls-6" x1="1145.03" y1="38.19" x2="1145.03" y2="106.41"/>
  <polygon class="cls-20" points="1148.03 105.41 1145.03 111.41 1142.03 105.41 1148.03 105.41 1148.03 105.41"/>
  <g>
    <path class="cls-15" d="M1148.18,70.67c1.79-.08,3.17-.53,4.16-1.34-.73-.42-1.4-.87-2-1.34l.54-.63c.4.5,1.01.97,1.85,1.42.25-.41.41-.96.48-1.64h-2.37c-.34,0-.7.02-1.09.07.05-.44.08-.8.07-1.09v-2.12c0-.26-.02-.63-.07-1.11.45.05.82.07,1.11.07h2.41v-1.14h-3.9c-.26,0-.59.03-.98.08v-.74c.38.05.7.07.98.07h8.12c.27,0,.59-.02.97-.07v.74c-.38-.06-.7-.08-.97-.08h-3.55v1.14h2.22c.27,0,.62-.02,1.07-.07-.05.41-.07.77-.07,1.05v2.2c0,.29.02.64.07,1.07-.41-.05-.77-.08-1.07-.07h-2.28c-.1.76-.28,1.42-.54,1.98,1.56.75,3.34,1.16,5.34,1.22-.25.29-.42.6-.5.92-1.96-.36-3.69-.88-5.19-1.57-.85.79-2.24,1.4-4.19,1.86-.14-.31-.35-.6-.62-.88ZM1150.47,63.57v1.24h2.79v-1.24h-2.79ZM1150.47,65.41v1.14h2.77c0-.2.01-.3.01-.31s0-.02,0-.01h0s-.01.25-.01.25c.02-.34.02-.7.02-1.07h-2.79ZM1153.9,66.54h2.6v-1.14h-2.58v.64c0,.17-.02.33-.02.49ZM1153.94,63.57v1.24h2.57v-1.24h-2.57Z"/>
    <path class="cls-15" d="M1160.09,70c.71-.71,1.2-1.49,1.46-2.34l.76.45c.07.04.11.07.1.11-.02.02-.08.05-.18.07-.12.02-.24.14-.37.39-.31.57-.66,1.13-1.04,1.69-.19-.14-.44-.27-.73-.36ZM1161.19,64.72h1.15c-.37-.48-.75-.91-1.15-1.28l.53-.43c.36.37.75.79,1.17,1.26l-.47.46h1.01c.46-.74.78-1.4.94-1.97l.78.43c.09.05.12.09.12.12,0,.04-.04.07-.13.1-.11.05-.2.11-.29.18-.08.09-.32.47-.73,1.14h.9c.22,0,.54-.03.94-.07v.74c-.38-.04-.7-.07-.95-.08h-1.35v1.28h1.18c.27-.01.59-.04.94-.08v.74c-.41-.04-.73-.06-.96-.07h-1.16v2.81c.02.5-.07.8-.26.91-.15.14-.6.24-1.34.29-.02-.31-.12-.59-.3-.84.25.04.46.05.63.05s.29-.02.37-.05c.16-.06.24-.22.23-.49v-2.68h-1.46c-.3,0-.64.03-1,.07v-.74c.43.05.77.08,1,.08h1.46v-1.28h-1.78c-.23,0-.55.03-.96.08v-.74c.39.04.71.06.96.07ZM1160.48,62.72v-.74c.48.05.82.07,1.01.07h1.79c-.3-.36-.71-.75-1.21-1.18l.5-.48c.3.25.74.63,1.3,1.16l-.48.5h1.39c.22,0,.54-.03.95-.07v.74c-.41-.04-.73-.06-.95-.07h-3.29c-.16,0-.5.02-1.01.07ZM1164.05,68.1l.6-.39c.31.46.62.96.92,1.51l-.66.4c-.26-.59-.55-1.1-.87-1.52ZM1169.82,60.53l.63.65c.06.06.09.11.07.14s-.07.05-.16.04c-.04,0-.1,0-.18,0-.23,0-.46.04-.69.12-.42.14-1.21.37-2.36.69v2.37h2.91c.22,0,.54-.02.96-.07v.74c-.4-.04-.72-.06-.96-.07h-.6v5.12c.02.33.04.68.07,1.07h-.81c.05-.48.07-.84.07-1.07v-5.12h-1.63c.02,1.79-.07,3.02-.26,3.68-.18.76-.63,1.61-1.35,2.55-.17-.2-.42-.38-.74-.52.69-.59,1.14-1.27,1.35-2.03.22-.73.33-1.96.32-3.7v-2.46s0-.08-.01-.22c-.03-.31-.05-.6-.07-.87.07.01.14.02.21.02.23,0,.52-.05.87-.15,1.09-.29,1.88-.59,2.37-.91Z"/>
    <path class="cls-15" d="M1174.1,63.7h-.97c-.27,0-.6.02-.97.07v-.77c.36.05.68.07.97.07h1.02v-1.86c0-.26-.03-.56-.08-.91l.89.12c.1,0,.15.02.16.05s-.03.06-.11.11c-.14.09-.22.36-.22.8v1.7h.45c.28,0,.61-.02.97-.07v.77c-.4-.05-.72-.07-.96-.07h-.46v.65c.4.36.88.83,1.42,1.42.15.15.27.27.35.36l-.57.54c-.31-.46-.71-.94-1.19-1.43v5.13c0,.38.03.74.08,1.08h-.8c.05-.43.08-.79.08-1.05v-5.03c-.39.91-.92,1.83-1.58,2.76-.19-.2-.44-.34-.73-.42.96-.95,1.71-2.29,2.26-4.01ZM1183,70.44c-.29.14-.56.38-.8.71-1.27-1.09-2.19-2.07-2.77-2.94-.87,1.07-1.96,2-3.26,2.79-.18-.31-.44-.53-.78-.64,1.45-.54,2.65-1.48,3.61-2.81-.91-1.64-1.51-3.45-1.81-5.43-.25,0-.53.02-.83.07v-.77c.26.05.58.07.97.07h3.83c.31,0,.61-.02.88-.07-.44,2.58-1.15,4.64-2.13,6.16.79,1.27,1.82,2.22,3.09,2.86ZM1181.09,62.12h-3.21c.18,1.59.71,3.18,1.59,4.78.89-1.55,1.43-3.15,1.62-4.78Z"/>
    <path class="cls-15" d="M1185.18,61.31c.56.05,1.15.07,1.78.07.82,0,1.66-.04,2.5-.13,1.42-.16,2.51-.42,3.28-.77l.55.72c.07.08.11.14.11.18,0,.01,0,.02,0,.02-.01.02-.04.03-.08.03-.03,0-.07,0-.13-.02-.13-.03-.25-.04-.36-.04-.09,0-.18,0-.27.03-.71.12-1.6.26-2.66.42v1.07h4.11c.24,0,.47-.02.71-.08v.72c-.24-.05-.47-.08-.7-.07h-4.12v.76h2.54c.22,0,.49-.02.79-.07-.05.29-.08.54-.07.77v2.34c0,.25.02.5.07.76-.29-.05-.55-.08-.78-.07h-2.55v.85h2.9c.23,0,.48-.02.74-.07v.72c-.3-.05-.55-.08-.76-.07h-2.89v1.05h4.12c.21,0,.46-.02.74-.07v.71c-.27-.05-.53-.08-.76-.07h-8.99c-.23,0-.48.02-.76.07v-.71c.23.05.47.08.73.07h4.22v-1.05h-2.83c-.2,0-.45.02-.74.07v-.72c.25.05.49.08.7.07h2.87v-.85h-2.52c-.23,0-.5.02-.81.07.05-.26.08-.51.07-.74v-2.36c0-.21-.02-.46-.07-.76.29.05.56.08.8.07h2.53v-.76h-4.26c-.21,0-.47.02-.77.07v-.72c.25.06.49.08.74.08h4.28v-.98c-.79.09-1.98.16-3.56.22-.15-.38-.3-.65-.46-.82ZM1186.58,64.78v1.03h2.62v-1.03h-2.62ZM1189.19,67.4v-1.03h-2.62v1.03h2.62ZM1189.87,64.78v1.03h2.61v-1.03h-2.61ZM1189.87,66.37v1.03h2.61v-1.03h-2.61Z"/>
  </g>
  <g>
    <path class="cls-15" d="M1058.12,9.83c.84.07,1.73.11,2.66.11,1.24,0,2.48-.06,3.74-.19,2.13-.24,3.77-.62,4.91-1.15l.83,1.08c.11.12.16.21.16.27,0,.02,0,.03,0,.04-.02.03-.06.04-.12.04-.04,0-.11,0-.2-.03-.2-.04-.38-.06-.54-.06-.13,0-.26.01-.4.04-1.07.18-2.4.38-3.99.62v1.61h6.17c.36.01.71-.03,1.06-.11v1.08c-.36-.08-.71-.12-1.05-.11h-6.19v1.13h3.81c.33.01.73-.02,1.19-.11-.08.43-.12.81-.11,1.15v3.51c-.01.38.02.75.11,1.13-.43-.08-.82-.12-1.17-.11h-3.83v1.27h4.35c.35,0,.72-.04,1.12-.11v1.08c-.45-.08-.82-.12-1.13-.11h-4.33v1.58h6.19c.31.01.68-.02,1.12-.11v1.07c-.41-.08-.79-.12-1.13-.11h-13.48c-.35-.01-.72.02-1.13.11v-1.07c.35.08.71.12,1.1.11h6.34v-1.58h-4.25c-.3-.01-.68.02-1.12.11v-1.08c.38.08.73.12,1.05.11h4.31v-1.27h-3.78c-.34-.01-.75.02-1.22.11.08-.39.12-.76.11-1.12v-3.54c.01-.31-.02-.69-.11-1.13.44.08.84.12,1.2.11h3.8v-1.13h-6.39c-.32-.01-.71.02-1.15.11v-1.08c.37.09.74.13,1.12.11h6.42v-1.48c-1.19.13-2.97.24-5.34.33-.23-.57-.46-.98-.69-1.23ZM1060.22,15.04v1.55h3.93v-1.55h-3.93ZM1064.15,18.96v-1.55h-3.93v1.55h3.93ZM1065.16,15.04v1.55h3.92v-1.55h-3.92ZM1065.16,17.42v1.55h3.92v-1.55h-3.92Z"/>
    <path class="cls-15" d="M1077.58,13.73h-1.3c-.64,0-1.12.04-1.44.11v-1.12c.4.07.88.11,1.44.11h1.61v-2.89c0-.62-.04-1.07-.11-1.37l1.37.18c.13.02.19.05.19.1.01.04-.04.08-.14.14-.21.12-.31.52-.31,1.2v2.65h.58c.6,0,1.09-.04,1.48-.11v1.12c-.41-.07-.89-.11-1.44-.11h-.62v1.12c1.08.88,1.91,1.65,2.49,2.29l-.76.88c-.5-.74-1.08-1.38-1.73-1.91v7.38c0,.64.04,1.18.11,1.6h-1.22c.08-.43.11-.96.11-1.58v-7.87c-.71,1.75-1.5,3.23-2.36,4.45-.33-.22-.73-.4-1.19-.56,1.38-1.32,2.46-3.25,3.24-5.79ZM1080.67,14.91c1.58-1.54,2.69-3.68,3.31-6.42l1.22.47c.21.07.31.13.31.18.01.04-.07.08-.25.14-.19.05-.33.18-.4.41-.25.74-.56,1.49-.93,2.25h4.88c.57-.01,1.07-.05,1.48-.11-.03.28-.05.69-.06,1.26-.01.19-.02.34-.02.43,0,.22,0,.55-.02.99-.05,3.26-.12,5.74-.21,7.44-.04,1.1-.5,1.86-1.39,2.29-.55.28-1.55.45-2.99.52-.02-.49-.17-1.01-.45-1.56.42.13.79.21,1.1.24.07,0,.16,0,.25,0,.26,0,.57-.02.95-.07,1.01-.09,1.51-.78,1.51-2.07.01-.48.04-1.3.07-2.47.08-2.83.12-4.83.13-5.99h-5.71c-.52.98-1.03,1.85-1.53,2.61-.32-.28-.74-.45-1.26-.54ZM1084.2,14.12l1.3.38c.15.05.22.09.21.12,0,.02-.09.08-.26.17-.15.07-.29.28-.43.64-.63,1.58-1.4,3.09-2.31,4.54.62-.05,1.7-.17,3.26-.38.29-.04.5-.06.63-.07-.3-.61-.73-1.36-1.28-2.25l.98-.48c.85,1.52,1.54,2.91,2.07,4.16l-.97.48c-.13-.46-.3-.85-.48-1.19-1.95.25-3.2.45-3.75.6-.55.15-1.03.31-1.42.48-.13-.41-.32-.82-.54-1.24.35-.16.59-.32.72-.49,1.05-1.56,1.82-3.38,2.29-5.47Z"/>
    <path class="cls-15" d="M1092.9,13.35v-1.08c.22.07.56.11,1,.11h1.53v-2.07c0-.72-.04-1.26-.11-1.61l1.42.24c.13.01.19.05.19.11.01.06-.04.13-.16.2-.22.14-.33.43-.34.88v2.25h.86c.47,0,.84-.04,1.12-.11v1.08c-.3-.08-.67-.11-1.12-.11h-.86v3.41c.61-.29,1.16-.59,1.65-.91v.17c-.01.46.03.79.11.98-.17.07-.47.2-.89.38-.4.18-.7.31-.88.4v5.6c.02.6-.11.98-.41,1.12-.25.18-.94.31-2.07.4-.05-.42-.2-.86-.45-1.33.43.08.78.12,1.06.12.68,0,1,.04.95.13-.05.08-.07-.13-.07-.65,0-.06,0-.11-.02-.17v-4.69c-.72.36-1.46.75-2.21,1.19-.12-.25-.36-.64-.72-1.15.59-.17,1.57-.55,2.94-1.15v-3.84h-1.36c-.46,0-.85.04-1.17.11ZM1102.57,16.37l1.21.12c.24.02.37.06.4.1s-.04.12-.2.24c-.15.11-.23.32-.23.65,0,.08,0,.18.02.29,0,.11,0,.28,0,.49,0,1.8-.53,3.32-1.6,4.54-.79.8-2.13,1.52-4.03,2.14-.15-.41-.43-.81-.85-1.19,1.48-.18,2.58-.57,3.31-1.16.98-.79,1.59-1.59,1.82-2.39.13-.42.21-.93.24-1.51.02-.56,0-1.34-.1-2.34ZM1106.59,19.38v-4.07h-6.57v4.26c0,.69.04,1.25.11,1.7h-1.22c.07-.45.11-1.01.11-1.7v-3.76c0-.66-.04-1.16-.11-1.51.33.08.81.11,1.43.11h5.63c.69,0,1.26-.04,1.73-.11-.07.3-.11.8-.11,1.51v3.62c0,.6.04,1.13.11,1.6h-1.22c.07-.47.11-1.02.11-1.65ZM1099.37,9.17c.31.07.8.11,1.46.11h4.52c.7,0,1.25-.04,1.67-.11-.07.35-.11.84-.11,1.49v1.04c0,.69.04,1.18.11,1.48-.36-.07-.85-.11-1.48-.11h-4.62c-.73,0-1.25.04-1.55.11.07-.43.11-.93.11-1.51v-1c0-.63-.04-1.12-.11-1.49ZM1100.49,10.18v2h5.41v-2h-5.41ZM1103.62,21.66l.72-.96c1.63,1.08,3.07,2.11,4.31,3.08l-.85.97c-1.22-1.16-2.62-2.19-4.17-3.09Z"/>
    <path class="cls-15" d="M1110.66,24.09c3.95-.48,6.37-2.63,7.25-6.44h-4.95c-.4.01-.89.05-1.48.11v-1.12c.5.06,1,.09,1.48.11h5.1c.07-.84.13-2,.19-3.45h-3.97c-.4.86-.77,1.57-1.12,2.14-.36-.14-.81-.28-1.35-.41,1.24-1.15,2.15-3.19,2.73-6.12l1.35.59c.13.06.19.13.18.18-.01.07-.09.15-.25.24-.25.08-.47.43-.67,1.04l-.52,1.44h3.61v-2.3c-.01-.47-.05-1.03-.11-1.69l1.39.19c.12.01.18.04.19.09,0,.05-.05.13-.14.22-.18.23-.28.68-.29,1.34v2.14h4.21c.38-.01.86-.05,1.44-.11v1.12c-.57-.06-1.05-.09-1.44-.11h-4.21c-.04,1.4-.1,2.55-.18,3.45h5.42c.4-.01.88-.05,1.44-.11v1.12c-.49-.06-.97-.1-1.44-.11h-4.95c1.31,3.29,3.61,5.35,6.91,6.18-.48.39-.84.79-1.08,1.19-3.19-1.45-5.38-3.6-6.58-6.44-.87,3.22-3.23,5.48-7.08,6.8-.29-.42-.65-.85-1.1-1.28Z"/>
  </g>
</svg>